G04 #@! TF.GenerationSoftware,KiCad,Pcbnew,10.0.0*
G04 #@! TF.CreationDate,2026-04-15T11:58:41-07:00*
G04 #@! TF.ProjectId,servo,73657276-6f2e-46b6-9963-61645f706362,0.1*
G04 #@! TF.SameCoordinates,Original*
G04 #@! TF.FileFunction,Soldermask,Bot*
G04 #@! TF.FilePolarity,Negative*
%FSLAX46Y46*%
G04 Gerber Fmt 4.6, Leading zero omitted, Abs format (unit mm)*
G04 Created by KiCad (PCBNEW 10.0.0) date 2026-04-15 11:58:41*
%MOMM*%
%LPD*%
G01*
G04 APERTURE LIST*
G04 Aperture macros list*
%AMRoundRect*
0 Rectangle with rounded corners*
0 $1 Rounding radius*
0 $2 $3 $4 $5 $6 $7 $8 $9 X,Y pos of 4 corners*
0 Add a 4 corners polygon primitive as box body*
4,1,4,$2,$3,$4,$5,$6,$7,$8,$9,$2,$3,0*
0 Add four circle primitives for the rounded corners*
1,1,$1+$1,$2,$3*
1,1,$1+$1,$4,$5*
1,1,$1+$1,$6,$7*
1,1,$1+$1,$8,$9*
0 Add four rect primitives between the rounded corners*
20,1,$1+$1,$2,$3,$4,$5,0*
20,1,$1+$1,$4,$5,$6,$7,0*
20,1,$1+$1,$6,$7,$8,$9,0*
20,1,$1+$1,$8,$9,$2,$3,0*%
%AMFreePoly0*
4,1,23,0.550000,-0.750000,0.000000,-0.750000,0.000000,-0.745722,-0.065263,-0.745722,-0.191342,-0.711940,-0.304381,-0.646677,-0.396677,-0.554381,-0.461940,-0.441342,-0.495722,-0.315263,-0.495722,-0.250000,-0.500000,-0.250000,-0.500000,0.250000,-0.495722,0.250000,-0.495722,0.315263,-0.461940,0.441342,-0.396677,0.554381,-0.304381,0.646677,-0.191342,0.711940,-0.065263,0.745722,0.000000,0.745722,
0.000000,0.750000,0.550000,0.750000,0.550000,-0.750000,0.550000,-0.750000,$1*%
%AMFreePoly1*
4,1,23,0.000000,0.745722,0.065263,0.745722,0.191342,0.711940,0.304381,0.646677,0.396677,0.554381,0.461940,0.441342,0.495722,0.315263,0.495722,0.250000,0.500000,0.250000,0.500000,-0.250000,0.495722,-0.250000,0.495722,-0.315263,0.461940,-0.441342,0.396677,-0.554381,0.304381,-0.646677,0.191342,-0.711940,0.065263,-0.745722,0.000000,-0.745722,0.000000,-0.750000,-0.550000,-0.750000,
-0.550000,0.750000,0.000000,0.750000,0.000000,0.745722,0.000000,0.745722,$1*%
G04 Aperture macros list end*
%ADD10C,3.600000*%
%ADD11C,6.400000*%
%ADD12RoundRect,0.250000X0.600000X0.725000X-0.600000X0.725000X-0.600000X-0.725000X0.600000X-0.725000X0*%
%ADD13O,1.700000X1.950000*%
%ADD14RoundRect,0.250000X0.625000X-0.350000X0.625000X0.350000X-0.625000X0.350000X-0.625000X-0.350000X0*%
%ADD15O,1.750000X1.200000*%
%ADD16C,0.990600*%
%ADD17RoundRect,0.250000X-0.750000X0.600000X-0.750000X-0.600000X0.750000X-0.600000X0.750000X0.600000X0*%
%ADD18O,2.000000X1.700000*%
%ADD19RoundRect,0.250000X-0.625000X0.350000X-0.625000X-0.350000X0.625000X-0.350000X0.625000X0.350000X0*%
%ADD20FreePoly0,270.000000*%
%ADD21R,1.500000X1.000000*%
%ADD22FreePoly1,270.000000*%
%ADD23FreePoly0,90.000000*%
%ADD24FreePoly1,90.000000*%
G04 APERTURE END LIST*
G36*
X56650000Y-109950000D02*
G01*
X58150000Y-109950000D01*
X58150000Y-111450000D01*
X56650000Y-111450000D01*
X56650000Y-109950000D01*
G37*
G36*
X49250000Y-106550000D02*
G01*
X50750000Y-106550000D01*
X50750000Y-108050000D01*
X49250000Y-108050000D01*
X49250000Y-106550000D01*
G37*
G36*
X49250000Y-115550000D02*
G01*
X50750000Y-115550000D01*
X50750000Y-117050000D01*
X49250000Y-117050000D01*
X49250000Y-115550000D01*
G37*
D10*
X46000000Y-127000000D03*
D11*
X46000000Y-127000000D03*
D12*
X76750000Y-97445000D03*
D13*
X74250000Y-97445000D03*
X71750000Y-97445000D03*
X69250000Y-97445000D03*
D14*
X53650000Y-107200000D03*
D15*
X53650000Y-105200000D03*
X53650000Y-103200000D03*
D12*
X90750000Y-97445000D03*
D13*
X88250000Y-97445000D03*
X85750000Y-97445000D03*
X83250000Y-97445000D03*
D16*
X88670000Y-112965000D03*
X83590000Y-113981000D03*
X83590000Y-111949000D03*
D10*
X100000000Y-90000000D03*
D11*
X100000000Y-90000000D03*
D17*
X54445000Y-93750000D03*
D18*
X54445000Y-96250000D03*
D14*
X53650000Y-116400000D03*
D15*
X53650000Y-114400000D03*
X53650000Y-112400000D03*
D10*
X100000000Y-127000000D03*
D11*
X100000000Y-127000000D03*
D14*
X46650000Y-116400000D03*
D15*
X46650000Y-114400000D03*
X46650000Y-112400000D03*
D14*
X96450000Y-119325000D03*
D15*
X96450000Y-117325000D03*
D19*
X60550000Y-116600000D03*
D15*
X60550000Y-118600000D03*
D14*
X46650000Y-107200000D03*
D15*
X46650000Y-105200000D03*
X46650000Y-103200000D03*
D14*
X96500000Y-102000000D03*
D15*
X96500000Y-100000000D03*
X96500000Y-98000000D03*
X96500000Y-96000000D03*
D10*
X62000000Y-90000000D03*
D11*
X62000000Y-90000000D03*
D20*
X57400000Y-109400000D03*
D21*
X57400000Y-110700000D03*
D22*
X57400000Y-112000000D03*
D23*
X50000000Y-108600000D03*
D21*
X50000000Y-107300000D03*
D24*
X50000000Y-106000000D03*
D23*
X50000000Y-117600000D03*
D21*
X50000000Y-116300000D03*
D24*
X50000000Y-115000000D03*
M02*
