G04 #@! TF.GenerationSoftware,KiCad,Pcbnew,10.0.0*
G04 #@! TF.CreationDate,2026-04-15T13:26:49-07:00*
G04 #@! TF.ProjectId,servo,73657276-6f2e-46b6-9963-61645f706362,0.1*
G04 #@! TF.SameCoordinates,Original*
G04 #@! TF.FileFunction,Copper,L4,Bot*
G04 #@! TF.FilePolarity,Positive*
%FSLAX46Y46*%
G04 Gerber Fmt 4.6, Leading zero omitted, Abs format (unit mm)*
G04 Created by KiCad (PCBNEW 10.0.0) date 2026-04-15 13:26:49*
%MOMM*%
%LPD*%
G01*
G04 APERTURE LIST*
G04 Aperture macros list*
%AMRoundRect*
0 Rectangle with rounded corners*
0 $1 Rounding radius*
0 $2 $3 $4 $5 $6 $7 $8 $9 X,Y pos of 4 corners*
0 Add a 4 corners polygon primitive as box body*
4,1,4,$2,$3,$4,$5,$6,$7,$8,$9,$2,$3,0*
0 Add four circle primitives for the rounded corners*
1,1,$1+$1,$2,$3*
1,1,$1+$1,$4,$5*
1,1,$1+$1,$6,$7*
1,1,$1+$1,$8,$9*
0 Add four rect primitives between the rounded corners*
20,1,$1+$1,$2,$3,$4,$5,0*
20,1,$1+$1,$4,$5,$6,$7,0*
20,1,$1+$1,$6,$7,$8,$9,0*
20,1,$1+$1,$8,$9,$2,$3,0*%
%AMFreePoly0*
4,1,23,0.550000,-0.750000,0.000000,-0.750000,0.000000,-0.745722,-0.065263,-0.745722,-0.191342,-0.711940,-0.304381,-0.646677,-0.396677,-0.554381,-0.461940,-0.441342,-0.495722,-0.315263,-0.495722,-0.250000,-0.500000,-0.250000,-0.500000,0.250000,-0.495722,0.250000,-0.495722,0.315263,-0.461940,0.441342,-0.396677,0.554381,-0.304381,0.646677,-0.191342,0.711940,-0.065263,0.745722,0.000000,0.745722,
0.000000,0.750000,0.550000,0.750000,0.550000,-0.750000,0.550000,-0.750000,$1*%
%AMFreePoly1*
4,1,23,0.000000,0.745722,0.065263,0.745722,0.191342,0.711940,0.304381,0.646677,0.396677,0.554381,0.461940,0.441342,0.495722,0.315263,0.495722,0.250000,0.500000,0.250000,0.500000,-0.250000,0.495722,-0.250000,0.495722,-0.315263,0.461940,-0.441342,0.396677,-0.554381,0.304381,-0.646677,0.191342,-0.711940,0.065263,-0.745722,0.000000,-0.745722,0.000000,-0.750000,-0.550000,-0.750000,
-0.550000,0.750000,0.000000,0.750000,0.000000,0.745722,0.000000,0.745722,$1*%
G04 Aperture macros list end*
G04 #@! TA.AperFunction,EtchedComponent*
%ADD10C,0.000000*%
G04 #@! TD*
G04 #@! TA.AperFunction,ComponentPad*
%ADD11C,3.600000*%
G04 #@! TD*
G04 #@! TA.AperFunction,ConnectorPad*
%ADD12C,6.400000*%
G04 #@! TD*
G04 #@! TA.AperFunction,ComponentPad*
%ADD13RoundRect,0.250000X0.600000X0.725000X-0.600000X0.725000X-0.600000X-0.725000X0.600000X-0.725000X0*%
G04 #@! TD*
G04 #@! TA.AperFunction,ComponentPad*
%ADD14O,1.700000X1.950000*%
G04 #@! TD*
G04 #@! TA.AperFunction,ComponentPad*
%ADD15RoundRect,0.250000X0.625000X-0.350000X0.625000X0.350000X-0.625000X0.350000X-0.625000X-0.350000X0*%
G04 #@! TD*
G04 #@! TA.AperFunction,ComponentPad*
%ADD16O,1.750000X1.200000*%
G04 #@! TD*
G04 #@! TA.AperFunction,ComponentPad*
%ADD17RoundRect,0.250000X-0.750000X0.600000X-0.750000X-0.600000X0.750000X-0.600000X0.750000X0.600000X0*%
G04 #@! TD*
G04 #@! TA.AperFunction,ComponentPad*
%ADD18O,2.000000X1.700000*%
G04 #@! TD*
G04 #@! TA.AperFunction,ComponentPad*
%ADD19RoundRect,0.250000X-0.625000X0.350000X-0.625000X-0.350000X0.625000X-0.350000X0.625000X0.350000X0*%
G04 #@! TD*
G04 #@! TA.AperFunction,SMDPad,CuDef*
%ADD20FreePoly0,270.000000*%
G04 #@! TD*
G04 #@! TA.AperFunction,SMDPad,CuDef*
%ADD21R,1.500000X1.000000*%
G04 #@! TD*
G04 #@! TA.AperFunction,SMDPad,CuDef*
%ADD22FreePoly1,270.000000*%
G04 #@! TD*
G04 #@! TA.AperFunction,SMDPad,CuDef*
%ADD23FreePoly0,90.000000*%
G04 #@! TD*
G04 #@! TA.AperFunction,SMDPad,CuDef*
%ADD24FreePoly1,90.000000*%
G04 #@! TD*
G04 #@! TA.AperFunction,ViaPad*
%ADD25C,0.600000*%
G04 #@! TD*
G04 #@! TA.AperFunction,Conductor*
%ADD26C,0.200000*%
G04 #@! TD*
G04 #@! TA.AperFunction,Conductor*
%ADD27C,0.500000*%
G04 #@! TD*
G04 #@! TA.AperFunction,Conductor*
%ADD28C,0.300000*%
G04 #@! TD*
G04 APERTURE END LIST*
D10*
G04 #@! TA.AperFunction,EtchedComponent*
G36*
X57700000Y-110300000D02*
G01*
X57100000Y-110300000D01*
X57100000Y-109800000D01*
X57700000Y-109800000D01*
X57700000Y-110300000D01*
G37*
G04 #@! TD.AperFunction*
G04 #@! TA.AperFunction,EtchedComponent*
G36*
X50300000Y-108200000D02*
G01*
X49700000Y-108200000D01*
X49700000Y-107700000D01*
X50300000Y-107700000D01*
X50300000Y-108200000D01*
G37*
G04 #@! TD.AperFunction*
G04 #@! TA.AperFunction,EtchedComponent*
G36*
X50300000Y-117200000D02*
G01*
X49700000Y-117200000D01*
X49700000Y-116700000D01*
X50300000Y-116700000D01*
X50300000Y-117200000D01*
G37*
G04 #@! TD.AperFunction*
D11*
X46000000Y-127000000D03*
D12*
X46000000Y-127000000D03*
D13*
X76750000Y-97445000D03*
D14*
X74250000Y-97445000D03*
X71750000Y-97445000D03*
X69250000Y-97445000D03*
D15*
X53650000Y-107200000D03*
D16*
X53650000Y-105200000D03*
X53650000Y-103200000D03*
D13*
X90750000Y-97445000D03*
D14*
X88250000Y-97445000D03*
X85750000Y-97445000D03*
X83250000Y-97445000D03*
D11*
X100000000Y-90000000D03*
D12*
X100000000Y-90000000D03*
D17*
X54445000Y-93750000D03*
D18*
X54445000Y-96250000D03*
D15*
X53650000Y-116400000D03*
D16*
X53650000Y-114400000D03*
X53650000Y-112400000D03*
D11*
X100000000Y-127000000D03*
D12*
X100000000Y-127000000D03*
D15*
X46650000Y-116400000D03*
D16*
X46650000Y-114400000D03*
X46650000Y-112400000D03*
D15*
X96450000Y-119325000D03*
D16*
X96450000Y-117325000D03*
D19*
X60550000Y-116600000D03*
D16*
X60550000Y-118600000D03*
D15*
X46650000Y-107200000D03*
D16*
X46650000Y-105200000D03*
X46650000Y-103200000D03*
D15*
X96500000Y-102000000D03*
D16*
X96500000Y-100000000D03*
X96500000Y-98000000D03*
X96500000Y-96000000D03*
D11*
X62000000Y-90000000D03*
D12*
X62000000Y-90000000D03*
D20*
X57400000Y-109400000D03*
D21*
X57400000Y-110700000D03*
D22*
X57400000Y-112000000D03*
D23*
X50000000Y-108600000D03*
D21*
X50000000Y-107300000D03*
D24*
X50000000Y-106000000D03*
D23*
X50000000Y-117600000D03*
D21*
X50000000Y-116300000D03*
D24*
X50000000Y-115000000D03*
D25*
X101800000Y-106740000D03*
X74800000Y-116000000D03*
X101000000Y-107440000D03*
X98000000Y-106000000D03*
X92125000Y-121600000D03*
X101000000Y-106740000D03*
X95200000Y-123400000D03*
X91800000Y-115600000D03*
X64600000Y-120000000D03*
X90800000Y-120800000D03*
X90508519Y-112322524D03*
X53200000Y-121000000D03*
X101800000Y-107440000D03*
X81400000Y-118000000D03*
X51000000Y-110600000D03*
X65600000Y-102600000D03*
X59600000Y-105600000D03*
X65600000Y-105600000D03*
X64600000Y-105600000D03*
X61600000Y-104600000D03*
X66600000Y-105600000D03*
X60600000Y-105600000D03*
X61600000Y-105600000D03*
X50000000Y-104000000D03*
X61600000Y-103600000D03*
X65600000Y-104600000D03*
X63600000Y-105600000D03*
X65600000Y-103600000D03*
X51000000Y-109200000D03*
X51000000Y-109900003D03*
X61600000Y-102600000D03*
X62600000Y-105600000D03*
X50000000Y-104600000D03*
X50000000Y-105250000D03*
X60600000Y-109600000D03*
X101000000Y-110040000D03*
X69000000Y-118000000D03*
X75000000Y-102500000D03*
X95900000Y-114000000D03*
X70500000Y-115000000D03*
X59600000Y-109600000D03*
X84600000Y-111600000D03*
X70500000Y-119000000D03*
X65600000Y-109600000D03*
X82500000Y-105500000D03*
X69733400Y-116975000D03*
X70500000Y-118000000D03*
X102000000Y-110040000D03*
X92500000Y-108375000D03*
X74000000Y-118181641D03*
X84930000Y-119331740D03*
X76200000Y-103800000D03*
X72000000Y-109500000D03*
X73500000Y-113000000D03*
X66016266Y-118489098D03*
X86550000Y-106000000D03*
X73500000Y-108500000D03*
X59600000Y-110600000D03*
X76200000Y-104600000D03*
X92000000Y-111500002D03*
X73640380Y-116240380D03*
X90050000Y-105000000D03*
X63200000Y-117000000D03*
X61600000Y-110600000D03*
X66080948Y-114307598D03*
X82500000Y-103500000D03*
X87800000Y-109400000D03*
X82500000Y-106500000D03*
X74800000Y-115200000D03*
X72000000Y-113000000D03*
X85200000Y-105400000D03*
X65600000Y-110600000D03*
X48200000Y-121000000D03*
X71200000Y-102600000D03*
X82500000Y-107500000D03*
X77000000Y-103800000D03*
X70500000Y-116000000D03*
X88000000Y-114600000D03*
X94645968Y-108091936D03*
X77800000Y-107800000D03*
X72000000Y-108500000D03*
X96000000Y-113000000D03*
X65600000Y-108600000D03*
X93400000Y-119200000D03*
X70500000Y-117000000D03*
X69000000Y-116000000D03*
X69000000Y-115000000D03*
X93800000Y-116500000D03*
X60600000Y-110600000D03*
X69000000Y-117000000D03*
X85200000Y-104600000D03*
X102400000Y-112700000D03*
X73500000Y-109500000D03*
X89050000Y-105000000D03*
X78331206Y-118206383D03*
X76200000Y-114600000D03*
X69000000Y-119000000D03*
X61600000Y-109600000D03*
X82500000Y-104500000D03*
X78000000Y-101500000D03*
X100000000Y-104400000D03*
X78582633Y-115293991D03*
X50800000Y-118600000D03*
X58200000Y-113200000D03*
X50000000Y-112200000D03*
X50000000Y-118600000D03*
X51600000Y-118600000D03*
X80250000Y-105500000D03*
X78750000Y-103500000D03*
X59200000Y-113200000D03*
X57400000Y-113200000D03*
X82000000Y-109000000D03*
X79000000Y-107750000D03*
X80250000Y-103500000D03*
X82000000Y-112000000D03*
X50000000Y-113000000D03*
X78750000Y-105500000D03*
X80000000Y-112000000D03*
X50000000Y-111499997D03*
X79750000Y-107750000D03*
X80000000Y-109000000D03*
X80500000Y-107750000D03*
X97000000Y-111600000D03*
X93800000Y-110600000D03*
X78800000Y-120000000D03*
X85800000Y-120000000D03*
X88982376Y-114327087D03*
X89806383Y-114331206D03*
X65952767Y-115922165D03*
X64768403Y-115331001D03*
X65329528Y-115742226D03*
X54200000Y-121000000D03*
X81200000Y-118800000D03*
X97000000Y-106200000D03*
X78929054Y-116102758D03*
X70000000Y-113000000D03*
X76800000Y-105600000D03*
X72200000Y-121200000D03*
X79200000Y-122000000D03*
X86400000Y-115400000D03*
X88200000Y-120800000D03*
X81600000Y-116200000D03*
X92400000Y-122400000D03*
X80819006Y-121186126D03*
X73739399Y-118984358D03*
X79499590Y-121204544D03*
X73613982Y-119867000D03*
D26*
X94725000Y-118400000D02*
X95650000Y-119325000D01*
X81400000Y-118000000D02*
X81800000Y-118400000D01*
X81800000Y-118400000D02*
X94725000Y-118400000D01*
D27*
X50000000Y-105250000D02*
X50000000Y-104600000D01*
X51000000Y-109900003D02*
X51000000Y-110600000D01*
X59600000Y-105600000D02*
X60600000Y-105600000D01*
X57400000Y-107800000D02*
X59600000Y-105600000D01*
X57400000Y-109400000D02*
X57400000Y-107800000D01*
X51000000Y-114000000D02*
X51000000Y-110600000D01*
X60600000Y-105600000D02*
X61600000Y-105600000D01*
X50000000Y-115000000D02*
X51000000Y-114000000D01*
X50000000Y-106000000D02*
X50000000Y-105250000D01*
X50000000Y-104600000D02*
X50000000Y-104000000D01*
X51000000Y-109200000D02*
X51000000Y-109900003D01*
D26*
X94600000Y-104600000D02*
X93200000Y-106000000D01*
X79774752Y-115293991D02*
X78582633Y-115293991D01*
X89550000Y-116050000D02*
X82669239Y-116050000D01*
X81869239Y-116850000D02*
X81330761Y-116850000D01*
X93200000Y-106000000D02*
X93200000Y-112400000D01*
X99800000Y-104600000D02*
X94600000Y-104600000D01*
X93200000Y-112400000D02*
X89550000Y-116050000D01*
X81330761Y-116850000D02*
X79774752Y-115293991D01*
X82669239Y-116050000D02*
X81869239Y-116850000D01*
X100000000Y-104400000D02*
X99800000Y-104600000D01*
D27*
X50900000Y-118500000D02*
X51500000Y-118500000D01*
X50000000Y-111499997D02*
X50000000Y-108600000D01*
X58200000Y-113200000D02*
X59200000Y-113200000D01*
X50100000Y-118500000D02*
X50700000Y-118500000D01*
X50800000Y-118600000D02*
X50900000Y-118500000D01*
X50700000Y-118500000D02*
X50800000Y-118600000D01*
X57400000Y-113200000D02*
X57400000Y-112000000D01*
X50000000Y-113000000D02*
X50000000Y-112200000D01*
X50000000Y-118600000D02*
X50000000Y-117600000D01*
X51500000Y-118500000D02*
X51600000Y-118600000D01*
X50000000Y-118600000D02*
X50100000Y-118500000D01*
X50000000Y-112200000D02*
X50000000Y-111499997D01*
X57400000Y-113200000D02*
X58200000Y-113200000D01*
D26*
X93800000Y-110600000D02*
X94800000Y-111600000D01*
X94800000Y-111600000D02*
X97000000Y-111600000D01*
X85800000Y-120000000D02*
X78800000Y-120000000D01*
X89600000Y-113600000D02*
X88982376Y-114217624D01*
X86850000Y-108380761D02*
X86850000Y-109949564D01*
X85750000Y-97445000D02*
X85750000Y-107280761D01*
X85750000Y-107280761D02*
X86850000Y-108380761D01*
X88982376Y-114217624D02*
X88982376Y-114327087D01*
X86850000Y-109949564D02*
X89600000Y-112699565D01*
X89600000Y-112699565D02*
X89600000Y-113600000D01*
X89950000Y-112554590D02*
X89950000Y-114187589D01*
X88250000Y-97445000D02*
X87200000Y-98495000D01*
X87200000Y-109804590D02*
X89950000Y-112554590D01*
X89950000Y-114187589D02*
X89806383Y-114331206D01*
X87200000Y-98495000D02*
X87200000Y-109804590D01*
D27*
X53650000Y-107200000D02*
X50100000Y-107200000D01*
X49900000Y-107200000D02*
X50000000Y-107300000D01*
X46650000Y-107200000D02*
X49900000Y-107200000D01*
X50100000Y-107200000D02*
X50000000Y-107300000D01*
X57400000Y-110700000D02*
X58650000Y-110700000D01*
X58650000Y-110700000D02*
X63365678Y-115415678D01*
D28*
X65772828Y-115742226D02*
X65329528Y-115742226D01*
D27*
X63365678Y-115415678D02*
X64683726Y-115415678D01*
D28*
X64768403Y-115331001D02*
X64918303Y-115331001D01*
D27*
X64683726Y-115415678D02*
X64768403Y-115331001D01*
D28*
X65952767Y-115922165D02*
X65772828Y-115742226D01*
X64918303Y-115331001D02*
X65329528Y-115742226D01*
D26*
X54200000Y-121000000D02*
X71080761Y-121000000D01*
X79800000Y-117400000D02*
X81200000Y-118800000D01*
X73200000Y-117400000D02*
X79800000Y-117400000D01*
X72800000Y-119280761D02*
X72800000Y-117800000D01*
X72800000Y-117800000D02*
X73200000Y-117400000D01*
X71080761Y-121000000D02*
X72800000Y-119280761D01*
D27*
X49900000Y-116400000D02*
X50000000Y-116300000D01*
X50100000Y-116400000D02*
X50000000Y-116300000D01*
X46650000Y-116400000D02*
X49900000Y-116400000D01*
X53650000Y-116400000D02*
X50100000Y-116400000D01*
D26*
X82014213Y-117200000D02*
X81185787Y-117200000D01*
X79026296Y-116200000D02*
X78929054Y-116102758D01*
X97800000Y-114000000D02*
X97000000Y-114800000D01*
X97000000Y-106200000D02*
X97800000Y-107000000D01*
X97000000Y-114800000D02*
X91447487Y-114800000D01*
X97800000Y-107000000D02*
X97800000Y-114000000D01*
X82814213Y-116400000D02*
X82014213Y-117200000D01*
X91447487Y-114800000D02*
X89847487Y-116400000D01*
X81185787Y-117200000D02*
X80185787Y-116200000D01*
X80185787Y-116200000D02*
X79026296Y-116200000D01*
X89847487Y-116400000D02*
X82814213Y-116400000D01*
X73400000Y-111800000D02*
X76800000Y-108400000D01*
X70000000Y-113000000D02*
X71200000Y-111800000D01*
X76800000Y-108400000D02*
X76800000Y-105600000D01*
X71200000Y-111800000D02*
X73400000Y-111800000D01*
X72200000Y-121200000D02*
X73000000Y-122000000D01*
X73000000Y-122000000D02*
X79200000Y-122000000D01*
X89800000Y-122400000D02*
X88200000Y-120800000D01*
X82400000Y-115400000D02*
X81600000Y-116200000D01*
X86400000Y-115400000D02*
X82400000Y-115400000D01*
X92400000Y-122400000D02*
X89800000Y-122400000D01*
X77354544Y-120554544D02*
X75784358Y-118984358D01*
X80187424Y-120554544D02*
X77354544Y-120554544D01*
X75784358Y-118984358D02*
X73739399Y-118984358D01*
X80819006Y-121186126D02*
X80187424Y-120554544D01*
X73867000Y-119867000D02*
X75305188Y-121305188D01*
X75305188Y-121305188D02*
X79398946Y-121305188D01*
X73613982Y-119867000D02*
X73867000Y-119867000D01*
X79398946Y-121305188D02*
X79499590Y-121204544D01*
G04 #@! TA.AperFunction,Conductor*
G36*
X74542706Y-110019685D02*
G01*
X74588461Y-110072489D01*
X74598405Y-110141647D01*
X74569380Y-110205203D01*
X74563348Y-110211681D01*
X73311848Y-111463181D01*
X73250525Y-111496666D01*
X73224167Y-111499500D01*
X71160438Y-111499500D01*
X71122224Y-111509739D01*
X71084009Y-111519979D01*
X71049923Y-111539659D01*
X71032879Y-111549500D01*
X71032877Y-111549500D01*
X71032877Y-111549501D01*
X71015492Y-111559537D01*
X71015487Y-111559541D01*
X70111847Y-112463181D01*
X70050524Y-112496666D01*
X70024166Y-112499500D01*
X69934108Y-112499500D01*
X69806812Y-112533608D01*
X69692686Y-112599500D01*
X69692683Y-112599502D01*
X69599502Y-112692683D01*
X69599500Y-112692686D01*
X69533608Y-112806812D01*
X69499500Y-112934108D01*
X69499500Y-113065891D01*
X69533608Y-113193187D01*
X69544286Y-113211681D01*
X69599500Y-113307314D01*
X69692686Y-113400500D01*
X69806814Y-113466392D01*
X69934108Y-113500500D01*
X69934110Y-113500500D01*
X70065890Y-113500500D01*
X70065892Y-113500500D01*
X70193186Y-113466392D01*
X70307314Y-113400500D01*
X70400500Y-113307314D01*
X70466392Y-113193186D01*
X70500500Y-113065892D01*
X70500500Y-112975832D01*
X70520185Y-112908793D01*
X70536819Y-112888151D01*
X71288152Y-112136819D01*
X71349475Y-112103334D01*
X71375833Y-112100500D01*
X73439560Y-112100500D01*
X73439562Y-112100500D01*
X73515989Y-112080021D01*
X73584511Y-112040460D01*
X73640460Y-111984511D01*
X74788319Y-110836652D01*
X74849642Y-110803167D01*
X74919334Y-110808151D01*
X74975267Y-110850023D01*
X74999684Y-110915487D01*
X75000000Y-110924333D01*
X75000000Y-115375760D01*
X74980315Y-115442799D01*
X74927511Y-115488554D01*
X74874019Y-115496581D01*
X74874019Y-115499500D01*
X74734108Y-115499500D01*
X74606812Y-115533608D01*
X74492686Y-115599500D01*
X74492683Y-115599502D01*
X74399502Y-115692683D01*
X74399500Y-115692686D01*
X74333608Y-115806812D01*
X74299500Y-115934108D01*
X74299500Y-116065891D01*
X74333608Y-116193187D01*
X74352154Y-116225309D01*
X74399500Y-116307314D01*
X74492686Y-116400500D01*
X74606814Y-116466392D01*
X74734108Y-116500500D01*
X74734110Y-116500500D01*
X74874019Y-116500500D01*
X74874019Y-116503516D01*
X74928839Y-116512060D01*
X74981099Y-116558435D01*
X75000000Y-116624239D01*
X75000000Y-116975500D01*
X74980315Y-117042539D01*
X74927511Y-117088294D01*
X74876000Y-117099500D01*
X73160438Y-117099500D01*
X73122224Y-117109739D01*
X73084009Y-117119979D01*
X73084008Y-117119980D01*
X73024546Y-117154311D01*
X73024544Y-117154312D01*
X73015492Y-117159537D01*
X73015487Y-117159541D01*
X72559541Y-117615487D01*
X72559535Y-117615495D01*
X72519982Y-117684004D01*
X72519979Y-117684009D01*
X72499500Y-117760439D01*
X72499500Y-119104928D01*
X72479815Y-119171967D01*
X72463181Y-119192609D01*
X70992609Y-120663181D01*
X70931286Y-120696666D01*
X70904928Y-120699500D01*
X64852206Y-120699500D01*
X64785167Y-120679815D01*
X64739412Y-120627011D01*
X64729468Y-120557853D01*
X64758493Y-120494297D01*
X64790206Y-120468113D01*
X64862087Y-120426611D01*
X64907314Y-120400500D01*
X65000500Y-120307314D01*
X65066392Y-120193186D01*
X65100500Y-120065892D01*
X65100500Y-119934108D01*
X65066392Y-119806814D01*
X65000500Y-119692686D01*
X64907314Y-119599500D01*
X64845754Y-119563958D01*
X64793187Y-119533608D01*
X64729539Y-119516554D01*
X64665892Y-119499500D01*
X64534108Y-119499500D01*
X64406812Y-119533608D01*
X64292686Y-119599500D01*
X64292683Y-119599502D01*
X64199502Y-119692683D01*
X64199500Y-119692686D01*
X64133608Y-119806812D01*
X64099500Y-119934108D01*
X64099500Y-120065891D01*
X64133608Y-120193187D01*
X64166554Y-120250250D01*
X64199500Y-120307314D01*
X64292686Y-120400500D01*
X64292687Y-120400501D01*
X64292689Y-120400502D01*
X64409794Y-120468113D01*
X64458010Y-120518680D01*
X64471232Y-120587287D01*
X64445264Y-120652152D01*
X64388350Y-120692680D01*
X64347794Y-120699500D01*
X58124000Y-120699500D01*
X58056961Y-120679815D01*
X58011206Y-120627011D01*
X58000000Y-120575500D01*
X58000000Y-118521153D01*
X59474500Y-118521153D01*
X59474500Y-118678846D01*
X59505261Y-118833489D01*
X59505264Y-118833501D01*
X59565602Y-118979172D01*
X59565609Y-118979185D01*
X59653210Y-119110288D01*
X59653213Y-119110292D01*
X59764707Y-119221786D01*
X59764711Y-119221789D01*
X59895814Y-119309390D01*
X59895827Y-119309397D01*
X60041498Y-119369735D01*
X60041503Y-119369737D01*
X60177306Y-119396750D01*
X60196153Y-119400499D01*
X60196156Y-119400500D01*
X60196158Y-119400500D01*
X60903844Y-119400500D01*
X60903845Y-119400499D01*
X61058497Y-119369737D01*
X61204179Y-119309394D01*
X61335289Y-119221789D01*
X61446789Y-119110289D01*
X61534394Y-118979179D01*
X61594737Y-118833497D01*
X61625500Y-118678842D01*
X61625500Y-118521158D01*
X61625500Y-118521155D01*
X61625499Y-118521153D01*
X61624865Y-118517966D01*
X61594737Y-118366503D01*
X61594735Y-118366498D01*
X61534397Y-118220827D01*
X61534390Y-118220814D01*
X61446789Y-118089711D01*
X61446786Y-118089707D01*
X61335292Y-117978213D01*
X61335288Y-117978210D01*
X61204185Y-117890609D01*
X61204172Y-117890602D01*
X61058501Y-117830264D01*
X61058489Y-117830261D01*
X60903845Y-117799500D01*
X60903842Y-117799500D01*
X60196158Y-117799500D01*
X60196155Y-117799500D01*
X60041510Y-117830261D01*
X60041498Y-117830264D01*
X59895827Y-117890602D01*
X59895814Y-117890609D01*
X59764711Y-117978210D01*
X59764707Y-117978213D01*
X59653213Y-118089707D01*
X59653210Y-118089711D01*
X59565609Y-118220814D01*
X59565602Y-118220827D01*
X59505264Y-118366498D01*
X59505261Y-118366510D01*
X59474500Y-118521153D01*
X58000000Y-118521153D01*
X58000000Y-116195730D01*
X59474500Y-116195730D01*
X59474500Y-117004269D01*
X59477353Y-117034699D01*
X59477353Y-117034701D01*
X59521038Y-117159541D01*
X59522207Y-117162882D01*
X59602850Y-117272150D01*
X59712118Y-117352793D01*
X59754845Y-117367744D01*
X59840299Y-117397646D01*
X59870730Y-117400500D01*
X59870734Y-117400500D01*
X61229270Y-117400500D01*
X61259699Y-117397646D01*
X61259701Y-117397646D01*
X61323790Y-117375219D01*
X61387882Y-117352793D01*
X61497150Y-117272150D01*
X61577793Y-117162882D01*
X61619903Y-117042539D01*
X61622646Y-117034701D01*
X61622646Y-117034699D01*
X61625500Y-117004269D01*
X61625500Y-116195730D01*
X61622646Y-116165300D01*
X61622646Y-116165298D01*
X61582140Y-116049542D01*
X61577793Y-116037118D01*
X61497150Y-115927850D01*
X61387882Y-115847207D01*
X61387880Y-115847206D01*
X61259700Y-115802353D01*
X61229270Y-115799500D01*
X61229266Y-115799500D01*
X59870734Y-115799500D01*
X59870730Y-115799500D01*
X59840300Y-115802353D01*
X59840298Y-115802353D01*
X59712119Y-115847206D01*
X59712117Y-115847207D01*
X59602850Y-115927850D01*
X59522207Y-116037117D01*
X59522206Y-116037119D01*
X59477353Y-116165298D01*
X59477353Y-116165300D01*
X59474500Y-116195730D01*
X58000000Y-116195730D01*
X58000000Y-113824239D01*
X58019685Y-113757200D01*
X58072489Y-113711445D01*
X58125981Y-113703430D01*
X58125981Y-113700500D01*
X58265890Y-113700500D01*
X58265892Y-113700500D01*
X58393186Y-113666392D01*
X58393194Y-113666387D01*
X58400696Y-113663281D01*
X58401249Y-113664618D01*
X58453937Y-113650500D01*
X58946063Y-113650500D01*
X58998750Y-113664618D01*
X58999304Y-113663281D01*
X59006807Y-113666388D01*
X59006814Y-113666392D01*
X59134108Y-113700500D01*
X59134110Y-113700500D01*
X59265890Y-113700500D01*
X59265892Y-113700500D01*
X59393186Y-113666392D01*
X59507314Y-113600500D01*
X59600500Y-113507314D01*
X59666392Y-113393186D01*
X59700500Y-113265892D01*
X59700500Y-113134108D01*
X59700500Y-113125981D01*
X59703517Y-113125981D01*
X59712060Y-113071161D01*
X59758435Y-113018901D01*
X59824239Y-113000000D01*
X60261535Y-113000000D01*
X60328574Y-113019685D01*
X60349213Y-113036317D01*
X63089064Y-115776168D01*
X63191791Y-115835477D01*
X63215999Y-115841962D01*
X63216002Y-115841964D01*
X63216003Y-115841964D01*
X63246125Y-115850035D01*
X63306369Y-115866178D01*
X63306371Y-115866178D01*
X64751163Y-115866178D01*
X64751163Y-115869684D01*
X64804175Y-115877828D01*
X64856537Y-115924089D01*
X64858822Y-115928517D01*
X64859072Y-115928373D01*
X64863135Y-115935411D01*
X64863136Y-115935412D01*
X64929028Y-116049540D01*
X65022214Y-116142726D01*
X65136342Y-116208618D01*
X65263636Y-116242726D01*
X65263638Y-116242726D01*
X65395416Y-116242726D01*
X65395420Y-116242726D01*
X65460421Y-116225309D01*
X65530265Y-116226972D01*
X65580191Y-116257403D01*
X65645453Y-116322665D01*
X65759581Y-116388557D01*
X65886875Y-116422665D01*
X65886877Y-116422665D01*
X66018657Y-116422665D01*
X66018659Y-116422665D01*
X66145953Y-116388557D01*
X66260081Y-116322665D01*
X66353267Y-116229479D01*
X66419159Y-116115351D01*
X66453267Y-115988057D01*
X66453267Y-115856273D01*
X66419159Y-115728979D01*
X66353267Y-115614851D01*
X66260081Y-115521665D01*
X66202731Y-115488554D01*
X66145954Y-115455773D01*
X66082306Y-115438719D01*
X66018659Y-115421665D01*
X66018658Y-115421665D01*
X65947030Y-115421665D01*
X65929432Y-115420410D01*
X65912129Y-115417929D01*
X65908116Y-115415612D01*
X65818972Y-115391726D01*
X65729360Y-115391726D01*
X65720606Y-115390471D01*
X65696538Y-115379491D01*
X65671165Y-115372041D01*
X65659367Y-115362534D01*
X65657039Y-115361472D01*
X65655951Y-115359781D01*
X65650523Y-115355407D01*
X65636844Y-115341728D01*
X65636842Y-115341726D01*
X65579778Y-115308780D01*
X65522715Y-115275834D01*
X65459067Y-115258780D01*
X65395420Y-115241726D01*
X65395419Y-115241726D01*
X65376072Y-115241726D01*
X65309033Y-115222041D01*
X65288391Y-115205407D01*
X65262132Y-115179148D01*
X65239118Y-115144704D01*
X65238859Y-115144854D01*
X65236573Y-115140894D01*
X65235249Y-115138913D01*
X65234796Y-115137821D01*
X65234795Y-115137815D01*
X65168903Y-115023687D01*
X65075717Y-114930501D01*
X65018653Y-114897555D01*
X64961590Y-114864609D01*
X64897942Y-114847555D01*
X64834295Y-114830501D01*
X64702511Y-114830501D01*
X64575215Y-114864609D01*
X64461089Y-114930501D01*
X64454643Y-114935448D01*
X64453468Y-114933916D01*
X64401408Y-114962344D01*
X64375050Y-114965178D01*
X63603644Y-114965178D01*
X63536605Y-114945493D01*
X63515963Y-114928859D01*
X61798785Y-113211681D01*
X61765300Y-113150358D01*
X61770284Y-113080666D01*
X61812156Y-113024733D01*
X61877620Y-113000316D01*
X61886466Y-113000000D01*
X68000000Y-113000000D01*
X70963681Y-110036319D01*
X71025004Y-110002834D01*
X71051362Y-110000000D01*
X74475667Y-110000000D01*
X74542706Y-110019685D01*
G37*
G04 #@! TD.AperFunction*
G04 #@! TA.AperFunction,Conductor*
G36*
X74943039Y-117720185D02*
G01*
X74988794Y-117772989D01*
X75000000Y-117824500D01*
X75000000Y-118559858D01*
X74980315Y-118626897D01*
X74927511Y-118672652D01*
X74876000Y-118683858D01*
X74198075Y-118683858D01*
X74131036Y-118664173D01*
X74110394Y-118647539D01*
X74046715Y-118583860D01*
X74046713Y-118583858D01*
X73989649Y-118550912D01*
X73932586Y-118517966D01*
X73868938Y-118500912D01*
X73805291Y-118483858D01*
X73673507Y-118483858D01*
X73546211Y-118517966D01*
X73432085Y-118583858D01*
X73432082Y-118583860D01*
X73338901Y-118677041D01*
X73338895Y-118677050D01*
X73331885Y-118689191D01*
X73281317Y-118737405D01*
X73212710Y-118750626D01*
X73147846Y-118724657D01*
X73107319Y-118667741D01*
X73100500Y-118627188D01*
X73100500Y-117975833D01*
X73120185Y-117908794D01*
X73136819Y-117888152D01*
X73288152Y-117736819D01*
X73349475Y-117703334D01*
X73375833Y-117700500D01*
X74876000Y-117700500D01*
X74943039Y-117720185D01*
G37*
G04 #@! TD.AperFunction*
M02*
