G04 #@! TF.GenerationSoftware,KiCad,Pcbnew,10.0.0*
G04 #@! TF.CreationDate,2026-04-15T11:58:41-07:00*
G04 #@! TF.ProjectId,servo,73657276-6f2e-46b6-9963-61645f706362,0.1*
G04 #@! TF.SameCoordinates,Original*
G04 #@! TF.FileFunction,Paste,Top*
G04 #@! TF.FilePolarity,Positive*
%FSLAX46Y46*%
G04 Gerber Fmt 4.6, Leading zero omitted, Abs format (unit mm)*
G04 Created by KiCad (PCBNEW 10.0.0) date 2026-04-15 11:58:41*
%MOMM*%
%LPD*%
G01*
G04 APERTURE LIST*
G04 Aperture macros list*
%AMRoundRect*
0 Rectangle with rounded corners*
0 $1 Rounding radius*
0 $2 $3 $4 $5 $6 $7 $8 $9 X,Y pos of 4 corners*
0 Add a 4 corners polygon primitive as box body*
4,1,4,$2,$3,$4,$5,$6,$7,$8,$9,$2,$3,0*
0 Add four circle primitives for the rounded corners*
1,1,$1+$1,$2,$3*
1,1,$1+$1,$4,$5*
1,1,$1+$1,$6,$7*
1,1,$1+$1,$8,$9*
0 Add four rect primitives between the rounded corners*
20,1,$1+$1,$2,$3,$4,$5,0*
20,1,$1+$1,$4,$5,$6,$7,0*
20,1,$1+$1,$6,$7,$8,$9,0*
20,1,$1+$1,$8,$9,$2,$3,0*%
G04 Aperture macros list end*
%ADD10RoundRect,0.135000X0.185000X-0.135000X0.185000X0.135000X-0.185000X0.135000X-0.185000X-0.135000X0*%
%ADD11RoundRect,0.135000X-0.135000X-0.185000X0.135000X-0.185000X0.135000X0.185000X-0.135000X0.185000X0*%
%ADD12RoundRect,0.135000X0.135000X0.185000X-0.135000X0.185000X-0.135000X-0.185000X0.135000X-0.185000X0*%
%ADD13RoundRect,0.140000X-0.170000X0.140000X-0.170000X-0.140000X0.170000X-0.140000X0.170000X0.140000X0*%
%ADD14RoundRect,0.250000X1.000000X0.650000X-1.000000X0.650000X-1.000000X-0.650000X1.000000X-0.650000X0*%
%ADD15RoundRect,0.225000X0.250000X-0.225000X0.250000X0.225000X-0.250000X0.225000X-0.250000X-0.225000X0*%
%ADD16RoundRect,0.140000X-0.140000X-0.170000X0.140000X-0.170000X0.140000X0.170000X-0.140000X0.170000X0*%
%ADD17RoundRect,0.218750X-0.218750X-0.256250X0.218750X-0.256250X0.218750X0.256250X-0.218750X0.256250X0*%
%ADD18RoundRect,0.250000X-0.325000X-0.650000X0.325000X-0.650000X0.325000X0.650000X-0.325000X0.650000X0*%
%ADD19RoundRect,0.250000X-0.250000X-0.475000X0.250000X-0.475000X0.250000X0.475000X-0.250000X0.475000X0*%
%ADD20R,0.200000X0.300000*%
%ADD21O,0.550000X0.300000*%
%ADD22R,0.650000X1.000000*%
%ADD23RoundRect,0.100000X-0.712500X-0.100000X0.712500X-0.100000X0.712500X0.100000X-0.712500X0.100000X0*%
%ADD24RoundRect,0.250000X-0.300000X-1.600000X0.300000X-1.600000X0.300000X1.600000X-0.300000X1.600000X0*%
%ADD25RoundRect,0.135000X-0.185000X0.135000X-0.185000X-0.135000X0.185000X-0.135000X0.185000X0.135000X0*%
%ADD26R,0.880000X1.050000*%
%ADD27R,1.050000X0.450000*%
%ADD28RoundRect,0.140000X0.140000X0.170000X-0.140000X0.170000X-0.140000X-0.170000X0.140000X-0.170000X0*%
%ADD29RoundRect,0.250000X-1.000000X-0.650000X1.000000X-0.650000X1.000000X0.650000X-1.000000X0.650000X0*%
%ADD30RoundRect,0.250000X0.650000X-0.325000X0.650000X0.325000X-0.650000X0.325000X-0.650000X-0.325000X0*%
%ADD31RoundRect,0.250000X-1.000000X1.950000X-1.000000X-1.950000X1.000000X-1.950000X1.000000X1.950000X0*%
%ADD32RoundRect,0.225000X-0.225000X-0.250000X0.225000X-0.250000X0.225000X0.250000X-0.225000X0.250000X0*%
%ADD33RoundRect,0.250000X-0.312500X-0.625000X0.312500X-0.625000X0.312500X0.625000X-0.312500X0.625000X0*%
%ADD34RoundRect,0.230000X-0.375000X0.230000X-0.375000X-0.230000X0.375000X-0.230000X0.375000X0.230000X0*%
%ADD35RoundRect,0.150000X-0.150000X0.825000X-0.150000X-0.825000X0.150000X-0.825000X0.150000X0.825000X0*%
%ADD36RoundRect,0.140000X0.170000X-0.140000X0.170000X0.140000X-0.170000X0.140000X-0.170000X-0.140000X0*%
%ADD37RoundRect,0.100000X-0.637500X-0.100000X0.637500X-0.100000X0.637500X0.100000X-0.637500X0.100000X0*%
%ADD38RoundRect,0.150000X-0.512500X-0.150000X0.512500X-0.150000X0.512500X0.150000X-0.512500X0.150000X0*%
G04 APERTURE END LIST*
D10*
X92800000Y-121710000D03*
X92800000Y-120690000D03*
D11*
X46890000Y-120000000D03*
X47910000Y-120000000D03*
D12*
X86310000Y-110200000D03*
X85290000Y-110200000D03*
D13*
X65333400Y-117095000D03*
X65333400Y-118055000D03*
D14*
X64000000Y-98000000D03*
X60000000Y-98000000D03*
D15*
X89550000Y-107500000D03*
X89550000Y-105950000D03*
D16*
X94020000Y-114000000D03*
X94980000Y-114000000D03*
D17*
X89212500Y-122000000D03*
X90787500Y-122000000D03*
D18*
X73525000Y-102200000D03*
X76475000Y-102200000D03*
D13*
X76400000Y-108020000D03*
X76400000Y-108980000D03*
D11*
X97990000Y-105000000D03*
X99010000Y-105000000D03*
D19*
X79550000Y-104500000D03*
X81450000Y-104500000D03*
D16*
X92020000Y-116500000D03*
X92980000Y-116500000D03*
X90220000Y-111500000D03*
X91180000Y-111500000D03*
D11*
X64600000Y-119200000D03*
X65620000Y-119200000D03*
X76090000Y-114400000D03*
X77110000Y-114400000D03*
D20*
X90750000Y-107400000D03*
D21*
X90950000Y-107400000D03*
D20*
X90750000Y-108050000D03*
D21*
X90950000Y-108050000D03*
D20*
X90750000Y-108700000D03*
D21*
X90950000Y-108700000D03*
D20*
X90750000Y-109350000D03*
D21*
X90950000Y-109350000D03*
X94050000Y-109350000D03*
D20*
X94250000Y-109350000D03*
D21*
X94050000Y-108700000D03*
D20*
X94250000Y-108700000D03*
D21*
X94050000Y-108050000D03*
D20*
X94250000Y-108050000D03*
D21*
X94050000Y-107400000D03*
D20*
X94250000Y-107400000D03*
D22*
X92050000Y-107750000D03*
X92050000Y-109000000D03*
X92950000Y-107750000D03*
X92950000Y-109000000D03*
D13*
X102000000Y-108360000D03*
X102000000Y-109320000D03*
D23*
X87487500Y-117625000D03*
X87487500Y-118275000D03*
X87487500Y-118925000D03*
X87487500Y-119575000D03*
X91712500Y-119575000D03*
X91712500Y-118925000D03*
X91712500Y-118275000D03*
X91712500Y-117625000D03*
D24*
X96000000Y-109000000D03*
X99000000Y-109000000D03*
D12*
X101510000Y-111500000D03*
X100490000Y-111500000D03*
X75710000Y-117200000D03*
X74690000Y-117200000D03*
D25*
X93900000Y-111890000D03*
X93900000Y-112910000D03*
D26*
X70866800Y-118850000D03*
X70866800Y-117600000D03*
X70866800Y-116350000D03*
X70866800Y-115100000D03*
X69733400Y-118850000D03*
X69733400Y-117600000D03*
X69733400Y-116350000D03*
X69733400Y-115100000D03*
X68600000Y-118850000D03*
X68600000Y-117600000D03*
X68600000Y-116350000D03*
X68600000Y-115100000D03*
D27*
X72508400Y-119250000D03*
X72508400Y-118600000D03*
X72508400Y-117950000D03*
X72508400Y-117300000D03*
X72508400Y-116650000D03*
X72508400Y-116000000D03*
X72508400Y-115350000D03*
X72508400Y-114700000D03*
X66958400Y-114700000D03*
X66958400Y-115350000D03*
X66958400Y-116000000D03*
X66958400Y-116650000D03*
X66958400Y-117300000D03*
X66958400Y-117950000D03*
X66958400Y-118600000D03*
X66958400Y-119250000D03*
D24*
X77900000Y-110500000D03*
X80900000Y-110500000D03*
D28*
X64480000Y-116175000D03*
X63520000Y-116175000D03*
D29*
X84770000Y-102175000D03*
X88770000Y-102175000D03*
D13*
X95100000Y-111920000D03*
X95100000Y-112880000D03*
D11*
X86990000Y-121800000D03*
X88010000Y-121800000D03*
X53290000Y-120000000D03*
X54310000Y-120000000D03*
X74090000Y-114400000D03*
X75110000Y-114400000D03*
D25*
X85800000Y-118190000D03*
X85800000Y-119210000D03*
D12*
X89760000Y-109400000D03*
X88740000Y-109400000D03*
D11*
X46890000Y-122000000D03*
X47910000Y-122000000D03*
D28*
X75680000Y-118200000D03*
X74720000Y-118200000D03*
D30*
X87400000Y-107875000D03*
X87400000Y-104925000D03*
D31*
X63600000Y-102600000D03*
X63600000Y-111000000D03*
D10*
X84800000Y-119210000D03*
X84800000Y-118190000D03*
D11*
X87045000Y-115295000D03*
X88065000Y-115295000D03*
D16*
X93970000Y-105400000D03*
X94930000Y-105400000D03*
D32*
X73425000Y-104200000D03*
X74975000Y-104200000D03*
D10*
X71200000Y-104420000D03*
X71200000Y-103400000D03*
D33*
X87737500Y-124000000D03*
X90662500Y-124000000D03*
D11*
X95990000Y-105000000D03*
X97010000Y-105000000D03*
X100490000Y-112700000D03*
X101510000Y-112700000D03*
D19*
X79550000Y-106500000D03*
X81450000Y-106500000D03*
D13*
X101000000Y-108360000D03*
X101000000Y-109320000D03*
D34*
X73500000Y-108360000D03*
X72000000Y-108360000D03*
X73500000Y-109500000D03*
X72000000Y-109500000D03*
D35*
X74655000Y-106455000D03*
X73385000Y-106455000D03*
X72115000Y-106455000D03*
X70845000Y-106455000D03*
X70845000Y-111405000D03*
X72115000Y-111405000D03*
X73385000Y-111405000D03*
X74655000Y-111405000D03*
D36*
X75400000Y-121480000D03*
X75400000Y-120520000D03*
D11*
X53200000Y-122000000D03*
X54220000Y-122000000D03*
D37*
X77137500Y-115475000D03*
X77137500Y-116125000D03*
X77137500Y-116775000D03*
X77137500Y-117425000D03*
X77137500Y-118075000D03*
X77137500Y-118725000D03*
X77137500Y-119375000D03*
X77137500Y-120025000D03*
X77137500Y-120675000D03*
X77137500Y-121325000D03*
X82862500Y-121325000D03*
X82862500Y-120675000D03*
X82862500Y-120025000D03*
X82862500Y-119375000D03*
X82862500Y-118725000D03*
X82862500Y-118075000D03*
X82862500Y-117425000D03*
X82862500Y-116775000D03*
X82862500Y-116125000D03*
X82862500Y-115475000D03*
D25*
X78000000Y-104000000D03*
X78000000Y-105020000D03*
D38*
X49462500Y-120050000D03*
X49462500Y-121000000D03*
X49462500Y-121950000D03*
X51737500Y-121950000D03*
X51737500Y-121000000D03*
X51737500Y-120050000D03*
D25*
X78000000Y-105990000D03*
X78000000Y-107010000D03*
M02*
