M48
METRIC
T1C0.300
T2C0.750
T3C0.950
T4C1.000
T5C3.200
T6C0.991
%
G90
G05
T1
X48.2Y-121.0
X50.0Y-104.0
X50.0Y-104.6
X50.0Y-105.25
X50.0Y-111.5
X50.0Y-112.2
X50.0Y-113.0
X50.0Y-118.6
X50.8Y-118.6
X51.0Y-109.2
X51.0Y-109.9
X51.0Y-110.6
X51.6Y-118.6
X53.2Y-121.0
X54.2Y-121.0
X57.4Y-113.2
X58.2Y-113.2
X59.2Y-113.2
X59.6Y-105.6
X59.6Y-109.6
X59.6Y-110.6
X60.6Y-105.6
X60.6Y-109.6
X60.6Y-110.6
X61.6Y-102.6
X61.6Y-103.6
X61.6Y-104.6
X61.6Y-105.6
X61.6Y-109.6
X61.6Y-110.6
X62.6Y-105.6
X63.2Y-117.0
X63.6Y-105.6
X64.6Y-105.6
X64.6Y-120.0
X64.768Y-115.331
X65.33Y-115.742
X65.6Y-102.6
X65.6Y-103.6
X65.6Y-104.6
X65.6Y-105.6
X65.6Y-108.6
X65.6Y-109.6
X65.6Y-110.6
X65.953Y-115.922
X66.016Y-118.489
X66.081Y-114.308
X66.6Y-105.6
X69.0Y-115.0
X69.0Y-116.0
X69.0Y-117.0
X69.0Y-118.0
X69.0Y-119.0
X69.733Y-116.975
X70.0Y-113.0
X70.5Y-115.0
X70.5Y-116.0
X70.5Y-117.0
X70.5Y-118.0
X70.5Y-119.0
X71.2Y-102.6
X72.0Y-108.5
X72.0Y-109.5
X72.0Y-113.0
X72.2Y-121.2
X73.5Y-108.5
X73.5Y-109.5
X73.5Y-113.0
X73.614Y-119.867
X73.64Y-116.24
X73.739Y-118.984
X74.0Y-118.182
X74.472Y-121.35
X74.8Y-115.2
X75.0Y-102.5
X75.4Y-119.8
X75.6Y-116.4
X75.8Y-115.2
X76.2Y-103.8
X76.2Y-104.6
X76.8Y-105.6
X77.0Y-103.8
X77.8Y-107.8
X78.0Y-101.5
X78.6Y-116.8
X78.707Y-115.809
X78.75Y-103.5
X78.75Y-105.5
X78.8Y-119.4
X79.0Y-107.75
X79.462Y-121.305
X79.75Y-107.75
X80.0Y-109.0
X80.0Y-112.0
X80.25Y-103.5
X80.25Y-105.5
X80.5Y-107.75
X80.819Y-121.186
X81.2Y-118.8
X81.4Y-118.0
X81.6Y-115.4
X81.6Y-121.4
X82.0Y-109.0
X82.0Y-112.0
X82.5Y-103.5
X82.5Y-104.5
X82.5Y-105.5
X82.5Y-106.5
X82.5Y-107.5
X84.6Y-111.6
X85.043Y-119.629
X85.2Y-104.6
X85.2Y-105.4
X85.8Y-120.0
X86.4Y-115.4
X86.55Y-106.0
X87.8Y-109.4
X88.0Y-114.6
X88.2Y-120.8
X88.982Y-114.327
X89.05Y-105.0
X89.806Y-114.331
X90.05Y-105.0
X90.509Y-112.323
X90.8Y-120.8
X91.8Y-115.6
X92.0Y-111.5
X92.125Y-121.6
X92.4Y-122.4
X92.5Y-108.375
X93.4Y-119.2
X93.8Y-110.6
X93.8Y-116.5
X94.646Y-108.092
X95.2Y-123.4
X95.9Y-114.0
X96.0Y-113.0
X97.0Y-106.2
X97.0Y-111.6
X98.0Y-106.0
X100.0Y-104.4
X101.0Y-106.74
X101.0Y-107.44
X101.0Y-110.04
X101.8Y-106.74
X101.8Y-107.44
X102.0Y-110.04
X102.4Y-112.7
T2
X46.65Y-103.2
X46.65Y-105.2
X46.65Y-107.2
X46.65Y-112.4
X46.65Y-114.4
X46.65Y-116.4
X53.65Y-103.2
X53.65Y-105.2
X53.65Y-107.2
X53.65Y-112.4
X53.65Y-114.4
X53.65Y-116.4
X60.55Y-116.6
X60.55Y-118.6
X96.45Y-117.325
X96.45Y-119.325
X96.5Y-96.0
X96.5Y-98.0
X96.5Y-100.0
X96.5Y-102.0
T3
X69.25Y-97.445
X71.75Y-97.445
X74.25Y-97.445
X76.75Y-97.445
X83.25Y-97.445
X85.75Y-97.445
X88.25Y-97.445
X90.75Y-97.445
T4
X54.445Y-93.75
X54.445Y-96.25
T5
X46.0Y-127.0
X62.0Y-90.0
X100.0Y-90.0
X100.0Y-127.0
T6
X83.59Y-111.949
X83.59Y-113.981
X88.67Y-112.965
M30
