G04 #@! TF.GenerationSoftware,KiCad,Pcbnew,10.0.0*
G04 #@! TF.CreationDate,2026-04-15T11:58:41-07:00*
G04 #@! TF.ProjectId,servo,73657276-6f2e-46b6-9963-61645f706362,0.1*
G04 #@! TF.SameCoordinates,Original*
G04 #@! TF.FileFunction,Copper,L2,Inr*
G04 #@! TF.FilePolarity,Positive*
%FSLAX46Y46*%
G04 Gerber Fmt 4.6, Leading zero omitted, Abs format (unit mm)*
G04 Created by KiCad (PCBNEW 10.0.0) date 2026-04-15 11:58:41*
%MOMM*%
%LPD*%
G01*
G04 APERTURE LIST*
G04 Aperture macros list*
%AMRoundRect*
0 Rectangle with rounded corners*
0 $1 Rounding radius*
0 $2 $3 $4 $5 $6 $7 $8 $9 X,Y pos of 4 corners*
0 Add a 4 corners polygon primitive as box body*
4,1,4,$2,$3,$4,$5,$6,$7,$8,$9,$2,$3,0*
0 Add four circle primitives for the rounded corners*
1,1,$1+$1,$2,$3*
1,1,$1+$1,$4,$5*
1,1,$1+$1,$6,$7*
1,1,$1+$1,$8,$9*
0 Add four rect primitives between the rounded corners*
20,1,$1+$1,$2,$3,$4,$5,0*
20,1,$1+$1,$4,$5,$6,$7,0*
20,1,$1+$1,$6,$7,$8,$9,0*
20,1,$1+$1,$8,$9,$2,$3,0*%
G04 Aperture macros list end*
G04 #@! TA.AperFunction,ComponentPad*
%ADD10C,3.600000*%
G04 #@! TD*
G04 #@! TA.AperFunction,ComponentPad*
%ADD11RoundRect,0.250000X0.600000X0.725000X-0.600000X0.725000X-0.600000X-0.725000X0.600000X-0.725000X0*%
G04 #@! TD*
G04 #@! TA.AperFunction,ComponentPad*
%ADD12O,1.700000X1.950000*%
G04 #@! TD*
G04 #@! TA.AperFunction,ComponentPad*
%ADD13RoundRect,0.250000X0.625000X-0.350000X0.625000X0.350000X-0.625000X0.350000X-0.625000X-0.350000X0*%
G04 #@! TD*
G04 #@! TA.AperFunction,ComponentPad*
%ADD14O,1.750000X1.200000*%
G04 #@! TD*
G04 #@! TA.AperFunction,ComponentPad*
%ADD15RoundRect,0.250000X-0.750000X0.600000X-0.750000X-0.600000X0.750000X-0.600000X0.750000X0.600000X0*%
G04 #@! TD*
G04 #@! TA.AperFunction,ComponentPad*
%ADD16O,2.000000X1.700000*%
G04 #@! TD*
G04 #@! TA.AperFunction,ComponentPad*
%ADD17RoundRect,0.250000X-0.625000X0.350000X-0.625000X-0.350000X0.625000X-0.350000X0.625000X0.350000X0*%
G04 #@! TD*
G04 #@! TA.AperFunction,ViaPad*
%ADD18C,0.600000*%
G04 #@! TD*
G04 APERTURE END LIST*
D10*
X46000000Y-127000000D03*
D11*
X76750000Y-97445000D03*
D12*
X74250000Y-97445000D03*
X71750000Y-97445000D03*
X69250000Y-97445000D03*
D13*
X53650000Y-107200000D03*
D14*
X53650000Y-105200000D03*
X53650000Y-103200000D03*
D11*
X90750000Y-97445000D03*
D12*
X88250000Y-97445000D03*
X85750000Y-97445000D03*
X83250000Y-97445000D03*
D10*
X100000000Y-90000000D03*
D15*
X54445000Y-93750000D03*
D16*
X54445000Y-96250000D03*
D13*
X53650000Y-116400000D03*
D14*
X53650000Y-114400000D03*
X53650000Y-112400000D03*
D10*
X100000000Y-127000000D03*
D13*
X46650000Y-116400000D03*
D14*
X46650000Y-114400000D03*
X46650000Y-112400000D03*
D13*
X96450000Y-119325000D03*
D14*
X96450000Y-117325000D03*
D17*
X60550000Y-116600000D03*
D14*
X60550000Y-118600000D03*
D13*
X46650000Y-107200000D03*
D14*
X46650000Y-105200000D03*
X46650000Y-103200000D03*
D13*
X96500000Y-102000000D03*
D14*
X96500000Y-100000000D03*
X96500000Y-98000000D03*
X96500000Y-96000000D03*
D10*
X62000000Y-90000000D03*
D18*
X101800000Y-106740000D03*
X75600000Y-116400000D03*
X101000000Y-107440000D03*
X74471753Y-121350000D03*
X98000000Y-106000000D03*
X92125000Y-121600000D03*
X101000000Y-106740000D03*
X95200000Y-123400000D03*
X91800000Y-115600000D03*
X64600000Y-120000000D03*
X90800000Y-120800000D03*
X90508519Y-112322524D03*
X53200000Y-121000000D03*
X101800000Y-107440000D03*
X75800000Y-115200000D03*
X81400000Y-118000000D03*
X51000000Y-110600000D03*
X65600000Y-102600000D03*
X59600000Y-105600000D03*
X65600000Y-105600000D03*
X64600000Y-105600000D03*
X61600000Y-104600000D03*
X66600000Y-105600000D03*
X60600000Y-105600000D03*
X61600000Y-105600000D03*
X50000000Y-104000000D03*
X61600000Y-103600000D03*
X65600000Y-104600000D03*
X63600000Y-105600000D03*
X65600000Y-103600000D03*
X51000000Y-109200000D03*
X51000000Y-109900003D03*
X61600000Y-102600000D03*
X62600000Y-105600000D03*
X50000000Y-104600000D03*
X50000000Y-105250000D03*
X60600000Y-109600000D03*
X101000000Y-110040000D03*
X69000000Y-118000000D03*
X75000000Y-102500000D03*
X95900000Y-114000000D03*
X70500000Y-115000000D03*
X59600000Y-109600000D03*
X84600000Y-111600000D03*
X70500000Y-119000000D03*
X65600000Y-109600000D03*
X82500000Y-105500000D03*
X69733400Y-116975000D03*
X70500000Y-118000000D03*
X102000000Y-110040000D03*
X92500000Y-108375000D03*
X74000000Y-118181641D03*
X85043047Y-119628834D03*
X76200000Y-103800000D03*
X72000000Y-109500000D03*
X73500000Y-113000000D03*
X66016266Y-118489098D03*
X86550000Y-106000000D03*
X73500000Y-108500000D03*
X59600000Y-110600000D03*
X76200000Y-104600000D03*
X92000000Y-111500002D03*
X73640380Y-116240380D03*
X90050000Y-105000000D03*
X63200000Y-117000000D03*
X61600000Y-110600000D03*
X66080948Y-114307598D03*
X82500000Y-103500000D03*
X87800000Y-109400000D03*
X82500000Y-106500000D03*
X74800000Y-115200000D03*
X72000000Y-113000000D03*
X85200000Y-105400000D03*
X65600000Y-110600000D03*
X48200000Y-121000000D03*
X71200000Y-102600000D03*
X82500000Y-107500000D03*
X77000000Y-103800000D03*
X70500000Y-116000000D03*
X88000000Y-114600000D03*
X94645968Y-108091936D03*
X77800000Y-107800000D03*
X72000000Y-108500000D03*
X96000000Y-113000000D03*
X65600000Y-108600000D03*
X93400000Y-119200000D03*
X70500000Y-117000000D03*
X69000000Y-116000000D03*
X69000000Y-115000000D03*
X93800000Y-116500000D03*
X60600000Y-110600000D03*
X69000000Y-117000000D03*
X85200000Y-104600000D03*
X102400000Y-112700000D03*
X73500000Y-109500000D03*
X89050000Y-105000000D03*
X69000000Y-119000000D03*
X61600000Y-109600000D03*
X75400000Y-119800000D03*
X82500000Y-104500000D03*
X78000000Y-101500000D03*
X100000000Y-104400000D03*
X78707021Y-115809095D03*
X50800000Y-118600000D03*
X58200000Y-113200000D03*
X50000000Y-112200000D03*
X50000000Y-118600000D03*
X51600000Y-118600000D03*
X80250000Y-105500000D03*
X78750000Y-103500000D03*
X59200000Y-113200000D03*
X57400000Y-113200000D03*
X82000000Y-109000000D03*
X79000000Y-107750000D03*
X80250000Y-103500000D03*
X82000000Y-112000000D03*
X50000000Y-113000000D03*
X78750000Y-105500000D03*
X80000000Y-112000000D03*
X50000000Y-111499997D03*
X79750000Y-107750000D03*
X80000000Y-109000000D03*
X80500000Y-107750000D03*
X97000000Y-111600000D03*
X93800000Y-110600000D03*
X78800000Y-119400000D03*
X85800000Y-120000000D03*
X88982376Y-114327087D03*
X89806383Y-114331206D03*
X79461685Y-121305188D03*
X73613982Y-119867000D03*
X80819006Y-121186126D03*
X73739399Y-118984358D03*
X65952767Y-115922165D03*
X64768403Y-115331001D03*
X65329528Y-115742226D03*
X86400000Y-115400000D03*
X88200000Y-120800000D03*
X81600000Y-115400000D03*
X92400000Y-122400000D03*
X54200000Y-121000000D03*
X81200000Y-118800000D03*
X97000000Y-106200000D03*
X78600000Y-116800000D03*
X70000000Y-113000000D03*
X76800000Y-105600000D03*
X72200000Y-121200000D03*
X81600000Y-121400000D03*
G04 #@! TA.AperFunction,Conductor*
G36*
X67497345Y-99000158D02*
G01*
X67502175Y-99000474D01*
X67506992Y-99000947D01*
X67599447Y-99013122D01*
X67614772Y-99015140D01*
X67624248Y-99017025D01*
X67633574Y-99019525D01*
X67642715Y-99022630D01*
X67727255Y-99057657D01*
X67751257Y-99073698D01*
X67778740Y-99101186D01*
X67778742Y-99101187D01*
X67778743Y-99101188D01*
X67831328Y-99131557D01*
X67843121Y-99140011D01*
X67847611Y-99143950D01*
X67853872Y-99149443D01*
X67863787Y-99160034D01*
X67923993Y-99238535D01*
X67929369Y-99246585D01*
X67934175Y-99254914D01*
X67938456Y-99263600D01*
X67977220Y-99357265D01*
X67980330Y-99366437D01*
X67982818Y-99375736D01*
X67984699Y-99385214D01*
X67998851Y-99493015D01*
X67999321Y-99497804D01*
X67999636Y-99502632D01*
X67999793Y-99507480D01*
X67997024Y-106297202D01*
X67996865Y-106302028D01*
X67996547Y-106306864D01*
X67996069Y-106311697D01*
X67981842Y-106419416D01*
X67979951Y-106428903D01*
X67977459Y-106438191D01*
X67974343Y-106447361D01*
X67935524Y-106540972D01*
X67931237Y-106549654D01*
X67926421Y-106557987D01*
X67921042Y-106566031D01*
X67859321Y-106646400D01*
X67852934Y-106653677D01*
X67846129Y-106660476D01*
X67838850Y-106666854D01*
X67758422Y-106728516D01*
X67750377Y-106733887D01*
X67742055Y-106738688D01*
X67733366Y-106742969D01*
X67639717Y-106781714D01*
X67630554Y-106784820D01*
X67621263Y-106787306D01*
X67611765Y-106789192D01*
X67504033Y-106803331D01*
X67499215Y-106803803D01*
X67494380Y-106804118D01*
X67489539Y-106804275D01*
X61291989Y-106801749D01*
X57000000Y-106800000D01*
X57000000Y-110492720D01*
X56999841Y-110497561D01*
X56999524Y-110502396D01*
X56999050Y-110507215D01*
X56984866Y-110614946D01*
X56982978Y-110624436D01*
X56980491Y-110633719D01*
X56977379Y-110642888D01*
X56938596Y-110736517D01*
X56934315Y-110745197D01*
X56929507Y-110753525D01*
X56924130Y-110761574D01*
X56882715Y-110815548D01*
X56833666Y-110843867D01*
X56824006Y-110844500D01*
X51228007Y-110844500D01*
X51221905Y-110845303D01*
X51187760Y-110849798D01*
X51150760Y-110859713D01*
X51150745Y-110859718D01*
X51119025Y-110872857D01*
X51109860Y-110875968D01*
X51048246Y-110892478D01*
X51029093Y-110895000D01*
X50970904Y-110895000D01*
X50951751Y-110892478D01*
X50927262Y-110885916D01*
X50927257Y-110885914D01*
X50923649Y-110884948D01*
X50923647Y-110884947D01*
X50890126Y-110875965D01*
X50880972Y-110872857D01*
X50849242Y-110859713D01*
X50812239Y-110849798D01*
X50779184Y-110845446D01*
X50771993Y-110844500D01*
X50771992Y-110844500D01*
X49229500Y-110844500D01*
X49177174Y-110822826D01*
X49155500Y-110770500D01*
X49155500Y-106818480D01*
X52624500Y-106818480D01*
X52624500Y-107581519D01*
X52639353Y-107675304D01*
X52639354Y-107675306D01*
X52696950Y-107788342D01*
X52786658Y-107878050D01*
X52899696Y-107935646D01*
X52993481Y-107950500D01*
X54306518Y-107950499D01*
X54306519Y-107950499D01*
X54400304Y-107935646D01*
X54400306Y-107935645D01*
X54402419Y-107934568D01*
X54513342Y-107878050D01*
X54603050Y-107788342D01*
X54660646Y-107675304D01*
X54675500Y-107581519D01*
X54675499Y-106818482D01*
X54670760Y-106788561D01*
X54669969Y-106783569D01*
X54660646Y-106724696D01*
X54660646Y-106724695D01*
X54660645Y-106724693D01*
X54603049Y-106611657D01*
X54513343Y-106521951D01*
X54513342Y-106521950D01*
X54513340Y-106521948D01*
X54400421Y-106464413D01*
X54400356Y-106464380D01*
X54400304Y-106464354D01*
X54400302Y-106464353D01*
X54400301Y-106464353D01*
X54397387Y-106463665D01*
X54394549Y-106463442D01*
X54306520Y-106449500D01*
X54306519Y-106449500D01*
X52993480Y-106449500D01*
X52993479Y-106449500D01*
X52899695Y-106464353D01*
X52899629Y-106464386D01*
X52786656Y-106521950D01*
X52696951Y-106611655D01*
X52639353Y-106724695D01*
X52639353Y-106724697D01*
X52626750Y-106804276D01*
X52624500Y-106818480D01*
X49155500Y-106818480D01*
X49155500Y-105126082D01*
X52624500Y-105126082D01*
X52624500Y-105126083D01*
X52624500Y-105273916D01*
X52628587Y-105294466D01*
X52653338Y-105418903D01*
X52653342Y-105418915D01*
X52653343Y-105418917D01*
X52709915Y-105555494D01*
X52709916Y-105555495D01*
X52792049Y-105678416D01*
X52896584Y-105782951D01*
X53019505Y-105865084D01*
X53156087Y-105921658D01*
X53301082Y-105950500D01*
X53301084Y-105950500D01*
X53998916Y-105950500D01*
X53998918Y-105950500D01*
X54143913Y-105921658D01*
X54280495Y-105865084D01*
X54403416Y-105782951D01*
X54507951Y-105678416D01*
X54590084Y-105555495D01*
X54646658Y-105418913D01*
X54675500Y-105273918D01*
X54675500Y-105126082D01*
X54646658Y-104981087D01*
X54590084Y-104844505D01*
X54507951Y-104721584D01*
X54403416Y-104617049D01*
X54323204Y-104563453D01*
X54315996Y-104552666D01*
X54280490Y-104534913D01*
X54143915Y-104478342D01*
X54143905Y-104478339D01*
X54070919Y-104463821D01*
X54046811Y-104459026D01*
X54046810Y-104459025D01*
X53998918Y-104449500D01*
X53301082Y-104449500D01*
X53259977Y-104457676D01*
X53156095Y-104478338D01*
X53156083Y-104478342D01*
X53019508Y-104534913D01*
X52896314Y-104617227D01*
X52894933Y-104618699D01*
X52793699Y-104719933D01*
X52792227Y-104721314D01*
X52709913Y-104844508D01*
X52653342Y-104981083D01*
X52653338Y-104981095D01*
X52624500Y-105126082D01*
X49155500Y-105126082D01*
X49155500Y-103126082D01*
X52624500Y-103126082D01*
X52624500Y-103126083D01*
X52624500Y-103273916D01*
X52628587Y-103294466D01*
X52653338Y-103418903D01*
X52653342Y-103418915D01*
X52653343Y-103418917D01*
X52709915Y-103555494D01*
X52709916Y-103555495D01*
X52792049Y-103678416D01*
X52896584Y-103782951D01*
X53019505Y-103865084D01*
X53156087Y-103921658D01*
X53301082Y-103950500D01*
X53301084Y-103950500D01*
X53998916Y-103950500D01*
X53998918Y-103950500D01*
X54143913Y-103921658D01*
X54280495Y-103865084D01*
X54403416Y-103782951D01*
X54507951Y-103678416D01*
X54590084Y-103555495D01*
X54646658Y-103418913D01*
X54675500Y-103273918D01*
X54675500Y-103126082D01*
X54646658Y-102981087D01*
X54590084Y-102844505D01*
X54507951Y-102721584D01*
X54403416Y-102617049D01*
X54323204Y-102563453D01*
X54315996Y-102552666D01*
X54280490Y-102534913D01*
X54143915Y-102478342D01*
X54143905Y-102478339D01*
X54070919Y-102463821D01*
X54046811Y-102459026D01*
X54046810Y-102459025D01*
X53998918Y-102449500D01*
X53301082Y-102449500D01*
X53259977Y-102457676D01*
X53156095Y-102478338D01*
X53156083Y-102478342D01*
X53019508Y-102534913D01*
X52896314Y-102617227D01*
X52894933Y-102618699D01*
X52793699Y-102719933D01*
X52792227Y-102721314D01*
X52709913Y-102844508D01*
X52653342Y-102981083D01*
X52653338Y-102981095D01*
X52624500Y-103126082D01*
X49155500Y-103126082D01*
X49155500Y-99504836D01*
X49155168Y-99494701D01*
X49154534Y-99485022D01*
X49153536Y-99474888D01*
X49140482Y-99375736D01*
X49138404Y-99359951D01*
X49134435Y-99340001D01*
X49129435Y-99321341D01*
X49122897Y-99302081D01*
X49105635Y-99260406D01*
X49105635Y-99203772D01*
X49115288Y-99187050D01*
X49137577Y-99158004D01*
X49143937Y-99150752D01*
X49150747Y-99143942D01*
X49158008Y-99137574D01*
X49238426Y-99075866D01*
X49246472Y-99070491D01*
X49254796Y-99065685D01*
X49263471Y-99061406D01*
X49357122Y-99022614D01*
X49366271Y-99019509D01*
X49375565Y-99017019D01*
X49385048Y-99015133D01*
X49492811Y-99000946D01*
X49497618Y-99000474D01*
X49502453Y-99000158D01*
X49507279Y-99000000D01*
X67492514Y-99000000D01*
X67497345Y-99000158D01*
G37*
G04 #@! TD.AperFunction*
G04 #@! TA.AperFunction,Conductor*
G36*
X56954371Y-119140968D02*
G01*
X56993882Y-119198593D01*
X57000000Y-119237062D01*
X57000000Y-123876000D01*
X56980315Y-123943039D01*
X56927511Y-123988794D01*
X56876000Y-124000000D01*
X43141830Y-124000000D01*
X43106889Y-123994975D01*
X43091890Y-123990570D01*
X43033144Y-123952827D01*
X43031957Y-123951458D01*
X43004477Y-123896583D01*
X43002832Y-123889021D01*
X43000000Y-123862668D01*
X43000000Y-120934108D01*
X47699500Y-120934108D01*
X47699500Y-121065891D01*
X47716554Y-121129539D01*
X47733608Y-121193188D01*
X47766554Y-121250250D01*
X47799500Y-121307314D01*
X47892686Y-121400500D01*
X48006814Y-121466392D01*
X48134108Y-121500500D01*
X48134110Y-121500500D01*
X48265890Y-121500500D01*
X48265892Y-121500500D01*
X48393186Y-121466392D01*
X48507314Y-121400500D01*
X48600500Y-121307314D01*
X48666392Y-121193186D01*
X48700500Y-121065892D01*
X48700500Y-120934108D01*
X53699500Y-120934108D01*
X53699500Y-121065891D01*
X53716554Y-121129539D01*
X53733608Y-121193188D01*
X53766554Y-121250250D01*
X53799500Y-121307314D01*
X53892686Y-121400500D01*
X54006814Y-121466392D01*
X54134108Y-121500500D01*
X54134110Y-121500500D01*
X54265890Y-121500500D01*
X54265892Y-121500500D01*
X54393186Y-121466392D01*
X54507314Y-121400500D01*
X54600500Y-121307314D01*
X54666392Y-121193186D01*
X54700500Y-121065892D01*
X54700500Y-120934108D01*
X54666392Y-120806814D01*
X54666387Y-120806806D01*
X54657563Y-120791521D01*
X54600500Y-120692686D01*
X54507314Y-120599500D01*
X54450250Y-120566554D01*
X54393187Y-120533608D01*
X54329539Y-120516554D01*
X54265892Y-120499500D01*
X54265891Y-120499500D01*
X54134108Y-120499500D01*
X54006808Y-120533609D01*
X54006806Y-120533610D01*
X53892696Y-120599493D01*
X53892682Y-120599502D01*
X53892677Y-120599506D01*
X53799506Y-120692677D01*
X53799502Y-120692682D01*
X53799493Y-120692696D01*
X53733610Y-120806806D01*
X53733609Y-120806808D01*
X53733608Y-120806812D01*
X53699500Y-120934108D01*
X48700500Y-120934108D01*
X48666392Y-120806814D01*
X48666387Y-120806806D01*
X48657563Y-120791521D01*
X48600500Y-120692686D01*
X48507314Y-120599500D01*
X48450250Y-120566554D01*
X48393187Y-120533608D01*
X48329539Y-120516554D01*
X48265892Y-120499500D01*
X48265891Y-120499500D01*
X48134108Y-120499500D01*
X48006808Y-120533609D01*
X48006806Y-120533610D01*
X47892696Y-120599493D01*
X47892682Y-120599502D01*
X47892677Y-120599506D01*
X47799506Y-120692677D01*
X47799502Y-120692682D01*
X47799493Y-120692696D01*
X47733610Y-120806806D01*
X47733609Y-120806808D01*
X47733608Y-120806812D01*
X47699500Y-120934108D01*
X43000000Y-120934108D01*
X43000000Y-119237062D01*
X43019685Y-119170023D01*
X43072489Y-119124268D01*
X43141647Y-119114324D01*
X43178860Y-119125858D01*
X43180359Y-119126598D01*
X43180370Y-119126602D01*
X43180377Y-119126606D01*
X43282936Y-119169087D01*
X43282946Y-119169091D01*
X43308400Y-119177732D01*
X43327060Y-119182732D01*
X43353424Y-119187976D01*
X43468368Y-119203109D01*
X43481753Y-119204427D01*
X43491412Y-119205060D01*
X43504851Y-119205500D01*
X56495134Y-119205500D01*
X56495149Y-119205500D01*
X56508588Y-119205060D01*
X56518247Y-119204427D01*
X56531632Y-119203109D01*
X56646575Y-119187976D01*
X56672939Y-119182732D01*
X56691599Y-119177732D01*
X56717053Y-119169091D01*
X56819640Y-119126598D01*
X56821147Y-119125854D01*
X56821362Y-119125817D01*
X56821478Y-119125765D01*
X56821491Y-119125794D01*
X56889977Y-119113852D01*
X56954371Y-119140968D01*
G37*
G04 #@! TD.AperFunction*
G04 #@! TA.AperFunction,Conductor*
G36*
X102893106Y-101005023D02*
G01*
X102908104Y-101009427D01*
X102966855Y-101047172D01*
X102968042Y-101048541D01*
X102987907Y-101092004D01*
X102991363Y-101090908D01*
X102994195Y-101099835D01*
X102995582Y-101108794D01*
X102997087Y-101112087D01*
X102996608Y-101115423D01*
X103000000Y-101137331D01*
X103000000Y-112274994D01*
X102994976Y-112309932D01*
X102991789Y-112320785D01*
X102954014Y-112379562D01*
X102890457Y-112408585D01*
X102821307Y-112398644D01*
X102814329Y-112395457D01*
X102778157Y-112370343D01*
X102707316Y-112299502D01*
X102707314Y-112299500D01*
X102617873Y-112247861D01*
X102593187Y-112233608D01*
X102529539Y-112216554D01*
X102465892Y-112199500D01*
X102465891Y-112199500D01*
X102334108Y-112199500D01*
X102206808Y-112233609D01*
X102206806Y-112233610D01*
X102092696Y-112299493D01*
X102092682Y-112299502D01*
X102092677Y-112299506D01*
X101999506Y-112392677D01*
X101999502Y-112392682D01*
X101999493Y-112392696D01*
X101933610Y-112506806D01*
X101933609Y-112506808D01*
X101933608Y-112506812D01*
X101899500Y-112634108D01*
X101899500Y-112765891D01*
X101910465Y-112806814D01*
X101933608Y-112893188D01*
X101957234Y-112934108D01*
X101966554Y-112950250D01*
X101999500Y-113007314D01*
X102092686Y-113100500D01*
X102206814Y-113166392D01*
X102334108Y-113200500D01*
X102334110Y-113200500D01*
X102465890Y-113200500D01*
X102465892Y-113200500D01*
X102593186Y-113166392D01*
X102707314Y-113100500D01*
X102775717Y-113032096D01*
X102803957Y-113010955D01*
X102813891Y-113005531D01*
X102882161Y-112990678D01*
X102947626Y-113015092D01*
X102989499Y-113071024D01*
X102989501Y-113071028D01*
X102992182Y-113078216D01*
X103000000Y-113121550D01*
X103000000Y-123858170D01*
X102994975Y-123893114D01*
X102990570Y-123908112D01*
X102952827Y-123966855D01*
X102951458Y-123968042D01*
X102896597Y-123995518D01*
X102889039Y-123997163D01*
X102862668Y-124000000D01*
X57124000Y-124000000D01*
X57056961Y-123980315D01*
X57011206Y-123927511D01*
X57000000Y-123876000D01*
X57000000Y-122334108D01*
X91899500Y-122334108D01*
X91899500Y-122465891D01*
X91916554Y-122529539D01*
X91933608Y-122593188D01*
X91966554Y-122650250D01*
X91999500Y-122707314D01*
X92092686Y-122800500D01*
X92206814Y-122866392D01*
X92334108Y-122900500D01*
X92334110Y-122900500D01*
X92465890Y-122900500D01*
X92465892Y-122900500D01*
X92593186Y-122866392D01*
X92707314Y-122800500D01*
X92800500Y-122707314D01*
X92866392Y-122593186D01*
X92900500Y-122465892D01*
X92900500Y-122334108D01*
X92866392Y-122206814D01*
X92866387Y-122206806D01*
X92857563Y-122191521D01*
X92800500Y-122092686D01*
X92707314Y-121999500D01*
X92650250Y-121966554D01*
X92593187Y-121933608D01*
X92529539Y-121916554D01*
X92465892Y-121899500D01*
X92465891Y-121899500D01*
X92334108Y-121899500D01*
X92206808Y-121933609D01*
X92206806Y-121933610D01*
X92092696Y-121999493D01*
X92092682Y-121999502D01*
X92092677Y-121999506D01*
X91999506Y-122092677D01*
X91999502Y-122092682D01*
X91999493Y-122092696D01*
X91933610Y-122206806D01*
X91933609Y-122206808D01*
X91933608Y-122206812D01*
X91899500Y-122334108D01*
X57000000Y-122334108D01*
X57000000Y-121134108D01*
X71699500Y-121134108D01*
X71699500Y-121265891D01*
X71708773Y-121300498D01*
X71733608Y-121393188D01*
X71758544Y-121436376D01*
X71766554Y-121450250D01*
X71799500Y-121507314D01*
X71892686Y-121600500D01*
X72006814Y-121666392D01*
X72134108Y-121700500D01*
X72134110Y-121700500D01*
X72265890Y-121700500D01*
X72265892Y-121700500D01*
X72393186Y-121666392D01*
X72507314Y-121600500D01*
X72600500Y-121507314D01*
X72666392Y-121393186D01*
X72700500Y-121265892D01*
X72700500Y-121239292D01*
X78961185Y-121239292D01*
X78961185Y-121239296D01*
X78961185Y-121371080D01*
X78978239Y-121434727D01*
X78995293Y-121498375D01*
X79028239Y-121555438D01*
X79061185Y-121612502D01*
X79154371Y-121705688D01*
X79268499Y-121771580D01*
X79395793Y-121805688D01*
X79395795Y-121805688D01*
X79527575Y-121805688D01*
X79527577Y-121805688D01*
X79654871Y-121771580D01*
X79768999Y-121705688D01*
X79862185Y-121612502D01*
X79928077Y-121498374D01*
X79962185Y-121371080D01*
X79962185Y-121239296D01*
X79930283Y-121120234D01*
X80318506Y-121120234D01*
X80318506Y-121120237D01*
X80318506Y-121252021D01*
X80331495Y-121300498D01*
X80331496Y-121300498D01*
X80331496Y-121300499D01*
X80352614Y-121379313D01*
X80385560Y-121436376D01*
X80418506Y-121493440D01*
X80511692Y-121586626D01*
X80587921Y-121630637D01*
X80616456Y-121647112D01*
X80625820Y-121652518D01*
X80753114Y-121686626D01*
X80753116Y-121686626D01*
X80884896Y-121686626D01*
X80884898Y-121686626D01*
X81012192Y-121652518D01*
X81012194Y-121652516D01*
X81019699Y-121649408D01*
X81020119Y-121650423D01*
X81038873Y-121642909D01*
X81054070Y-121639222D01*
X81123831Y-121642534D01*
X81125543Y-121643126D01*
X81176775Y-121676910D01*
X81181980Y-121682636D01*
X81197609Y-121704039D01*
X81198560Y-121705687D01*
X81199500Y-121707314D01*
X81292686Y-121800500D01*
X81406814Y-121866392D01*
X81534108Y-121900500D01*
X81534110Y-121900500D01*
X81665890Y-121900500D01*
X81665892Y-121900500D01*
X81793186Y-121866392D01*
X81907314Y-121800500D01*
X82000500Y-121707314D01*
X82066392Y-121593186D01*
X82100500Y-121465892D01*
X82100500Y-121334108D01*
X82066392Y-121206814D01*
X82062745Y-121200498D01*
X82057563Y-121191521D01*
X82000500Y-121092686D01*
X81907314Y-120999500D01*
X81850250Y-120966554D01*
X81793187Y-120933608D01*
X81719126Y-120913764D01*
X81711760Y-120911790D01*
X81711757Y-120911789D01*
X81665893Y-120899500D01*
X81665892Y-120899500D01*
X81534108Y-120899500D01*
X81534106Y-120899500D01*
X81413575Y-120931794D01*
X81413548Y-120931803D01*
X81406814Y-120933608D01*
X81406813Y-120933608D01*
X81406811Y-120933609D01*
X81406808Y-120933610D01*
X81404010Y-120935225D01*
X81395507Y-120938276D01*
X81394472Y-120938336D01*
X81380519Y-120943121D01*
X81364930Y-120946903D01*
X81295140Y-120943579D01*
X81295117Y-120943571D01*
X81291034Y-120942157D01*
X81234127Y-120901618D01*
X81224225Y-120886985D01*
X81219508Y-120878815D01*
X81219504Y-120878810D01*
X81126322Y-120785628D01*
X81126320Y-120785626D01*
X81037092Y-120734110D01*
X81037085Y-120734106D01*
X87699500Y-120734106D01*
X87699500Y-120865893D01*
X87708504Y-120899499D01*
X87708505Y-120899499D01*
X87708505Y-120899500D01*
X87733541Y-120992938D01*
X87733609Y-120993190D01*
X87739770Y-121003861D01*
X87739772Y-121003863D01*
X87741477Y-121006816D01*
X87799500Y-121107314D01*
X87892686Y-121200500D01*
X87959886Y-121239298D01*
X88005944Y-121265890D01*
X88005958Y-121265898D01*
X88005957Y-121265898D01*
X88006810Y-121266390D01*
X88006811Y-121266390D01*
X88006814Y-121266392D01*
X88134108Y-121300500D01*
X88134110Y-121300500D01*
X88265890Y-121300500D01*
X88265892Y-121300500D01*
X88393186Y-121266392D01*
X88507314Y-121200500D01*
X88600500Y-121107314D01*
X88666392Y-120993186D01*
X88700500Y-120865892D01*
X88700500Y-120734108D01*
X88666392Y-120606814D01*
X88666387Y-120606806D01*
X88605011Y-120500500D01*
X88600500Y-120492686D01*
X88507314Y-120399500D01*
X88450250Y-120366554D01*
X88393187Y-120333608D01*
X88329539Y-120316554D01*
X88265892Y-120299500D01*
X88265891Y-120299500D01*
X88134108Y-120299500D01*
X88006808Y-120333609D01*
X88006806Y-120333610D01*
X87892696Y-120399493D01*
X87892682Y-120399502D01*
X87892677Y-120399506D01*
X87799506Y-120492677D01*
X87799502Y-120492682D01*
X87799493Y-120492696D01*
X87733610Y-120606806D01*
X87733609Y-120606809D01*
X87733608Y-120606811D01*
X87733608Y-120606812D01*
X87712490Y-120685626D01*
X87708773Y-120699500D01*
X87699500Y-120734106D01*
X81037085Y-120734106D01*
X81012193Y-120719734D01*
X80936677Y-120699500D01*
X80884898Y-120685626D01*
X80884897Y-120685626D01*
X80753114Y-120685626D01*
X80625814Y-120719735D01*
X80625812Y-120719736D01*
X80511702Y-120785619D01*
X80511688Y-120785628D01*
X80511683Y-120785632D01*
X80418512Y-120878803D01*
X80418508Y-120878808D01*
X80418499Y-120878822D01*
X80352616Y-120992932D01*
X80352615Y-120992935D01*
X80352614Y-120992937D01*
X80352614Y-120992938D01*
X80347371Y-121012502D01*
X80325888Y-121092680D01*
X80325888Y-121092683D01*
X80318506Y-121120234D01*
X79930283Y-121120234D01*
X79928077Y-121112002D01*
X79928072Y-121111994D01*
X79910420Y-121081419D01*
X79862185Y-120997874D01*
X79768999Y-120904688D01*
X79701799Y-120865890D01*
X79654872Y-120838796D01*
X79591224Y-120821742D01*
X79527577Y-120804688D01*
X79527576Y-120804688D01*
X79395793Y-120804688D01*
X79268493Y-120838797D01*
X79268491Y-120838798D01*
X79154381Y-120904681D01*
X79154367Y-120904690D01*
X79154362Y-120904694D01*
X79061191Y-120997865D01*
X79061187Y-120997870D01*
X79061178Y-120997884D01*
X78995295Y-121111994D01*
X78995294Y-121111997D01*
X78995293Y-121111999D01*
X78995293Y-121112000D01*
X78971580Y-121200500D01*
X78971579Y-121200499D01*
X78961185Y-121239292D01*
X72700500Y-121239292D01*
X72700500Y-121134108D01*
X72666392Y-121006814D01*
X72661230Y-120997874D01*
X72658523Y-120993186D01*
X72636758Y-120955487D01*
X72636757Y-120955486D01*
X72631802Y-120946903D01*
X72600500Y-120892686D01*
X72507314Y-120799500D01*
X72450250Y-120766554D01*
X72393187Y-120733608D01*
X72329539Y-120716554D01*
X72265892Y-120699500D01*
X72265891Y-120699500D01*
X72134108Y-120699500D01*
X72006808Y-120733609D01*
X72006806Y-120733610D01*
X71892696Y-120799493D01*
X71892682Y-120799502D01*
X71892677Y-120799506D01*
X71799506Y-120892677D01*
X71799502Y-120892682D01*
X71799493Y-120892696D01*
X71733610Y-121006806D01*
X71733609Y-121006808D01*
X71710599Y-121092686D01*
X71699500Y-121134108D01*
X57000000Y-121134108D01*
X57000000Y-119801108D01*
X73113482Y-119801108D01*
X73113482Y-119932892D01*
X73114355Y-119936150D01*
X73114651Y-119937255D01*
X73114651Y-119937257D01*
X73129637Y-119993186D01*
X73147590Y-120060187D01*
X73147591Y-120060188D01*
X73147590Y-120060188D01*
X73157755Y-120077793D01*
X73176083Y-120109537D01*
X73213482Y-120174314D01*
X73306668Y-120267500D01*
X73420796Y-120333392D01*
X73548090Y-120367500D01*
X73548092Y-120367500D01*
X73679872Y-120367500D01*
X73679874Y-120367500D01*
X73807168Y-120333392D01*
X73921296Y-120267500D01*
X74014482Y-120174314D01*
X74080374Y-120060186D01*
X74114482Y-119932892D01*
X74114482Y-119801108D01*
X74096530Y-119734108D01*
X74899500Y-119734108D01*
X74899500Y-119865891D01*
X74918622Y-119937257D01*
X74933609Y-119993190D01*
X74954476Y-120029330D01*
X74954477Y-120029334D01*
X74954478Y-120029334D01*
X74999500Y-120107314D01*
X75092686Y-120200500D01*
X75206814Y-120266392D01*
X75334108Y-120300500D01*
X75334110Y-120300500D01*
X75465890Y-120300500D01*
X75465892Y-120300500D01*
X75593186Y-120266392D01*
X75707314Y-120200500D01*
X75800500Y-120107314D01*
X75866392Y-119993186D01*
X75900500Y-119865892D01*
X75900500Y-119734108D01*
X75866392Y-119606814D01*
X75866387Y-119606806D01*
X75841051Y-119562923D01*
X75800500Y-119492686D01*
X75707314Y-119399500D01*
X75650250Y-119366554D01*
X75594050Y-119334106D01*
X78299500Y-119334106D01*
X78299500Y-119465893D01*
X78313363Y-119517633D01*
X78313364Y-119517633D01*
X78333608Y-119593187D01*
X78341475Y-119606812D01*
X78399500Y-119707314D01*
X78492686Y-119800500D01*
X78492687Y-119800501D01*
X78492689Y-119800502D01*
X78591519Y-119857562D01*
X78591521Y-119857563D01*
X78605944Y-119865890D01*
X78606814Y-119866392D01*
X78734108Y-119900500D01*
X78734110Y-119900500D01*
X78865890Y-119900500D01*
X78865892Y-119900500D01*
X78993186Y-119866392D01*
X79107314Y-119800500D01*
X79200500Y-119707314D01*
X79266392Y-119593186D01*
X79274496Y-119562940D01*
X84542547Y-119562940D01*
X84542547Y-119694727D01*
X84551801Y-119729266D01*
X84551802Y-119729266D01*
X84576655Y-119822021D01*
X84576656Y-119822022D01*
X84602273Y-119866391D01*
X84602274Y-119866393D01*
X84642544Y-119936144D01*
X84642546Y-119936147D01*
X84642547Y-119936148D01*
X84735733Y-120029334D01*
X84849861Y-120095226D01*
X84977155Y-120129334D01*
X84977157Y-120129334D01*
X85108936Y-120129334D01*
X85108939Y-120129334D01*
X85165604Y-120114150D01*
X85200642Y-120109961D01*
X85216272Y-120110333D01*
X85282823Y-120131608D01*
X85284328Y-120132626D01*
X85325034Y-120178493D01*
X85341957Y-120211320D01*
X85343713Y-120212619D01*
X85352262Y-120225498D01*
X85361454Y-120241418D01*
X85361456Y-120241421D01*
X85399500Y-120307314D01*
X85492686Y-120400500D01*
X85606814Y-120466392D01*
X85734108Y-120500500D01*
X85734110Y-120500500D01*
X85865890Y-120500500D01*
X85865892Y-120500500D01*
X85993186Y-120466392D01*
X86107314Y-120400500D01*
X86200500Y-120307314D01*
X86266392Y-120193186D01*
X86300500Y-120065892D01*
X86300500Y-119934108D01*
X86266392Y-119806814D01*
X86200500Y-119692686D01*
X86107314Y-119599500D01*
X86043994Y-119562942D01*
X85993187Y-119533608D01*
X85929539Y-119516554D01*
X85865892Y-119499500D01*
X85865891Y-119499500D01*
X85734107Y-119499500D01*
X85734106Y-119499500D01*
X85716529Y-119504209D01*
X85677442Y-119514682D01*
X85642401Y-119518871D01*
X85626774Y-119518499D01*
X85560222Y-119497224D01*
X85560215Y-119497220D01*
X85558720Y-119496208D01*
X85518009Y-119450331D01*
X85515543Y-119445547D01*
X85513999Y-119442550D01*
X85501096Y-119417516D01*
X85499337Y-119416216D01*
X85490769Y-119403311D01*
X85489673Y-119401412D01*
X85443547Y-119321520D01*
X85350361Y-119228334D01*
X85289483Y-119193186D01*
X85236234Y-119162442D01*
X85172586Y-119145388D01*
X85130481Y-119134106D01*
X92899500Y-119134106D01*
X92899500Y-119265893D01*
X92911154Y-119309389D01*
X92911155Y-119309389D01*
X92911155Y-119309390D01*
X92932681Y-119389727D01*
X92933609Y-119393190D01*
X92962107Y-119442550D01*
X92995565Y-119500499D01*
X92999500Y-119507314D01*
X93092686Y-119600500D01*
X93206814Y-119666392D01*
X93334108Y-119700500D01*
X93334110Y-119700500D01*
X93465890Y-119700500D01*
X93465892Y-119700500D01*
X93593186Y-119666392D01*
X93707314Y-119600500D01*
X93800500Y-119507314D01*
X93866392Y-119393186D01*
X93900500Y-119265892D01*
X93900500Y-119134108D01*
X93866392Y-119006814D01*
X93866389Y-119006808D01*
X93850815Y-118979833D01*
X93850815Y-118979834D01*
X93824415Y-118934108D01*
X93816693Y-118920733D01*
X95374500Y-118920733D01*
X95374500Y-119729265D01*
X95375596Y-119740967D01*
X95375597Y-119740970D01*
X95377353Y-119759699D01*
X95377353Y-119759701D01*
X95414687Y-119866392D01*
X95415380Y-119868372D01*
X95415388Y-119868398D01*
X95422205Y-119887878D01*
X95422206Y-119887881D01*
X95422207Y-119887882D01*
X95502850Y-119997150D01*
X95588263Y-120060187D01*
X95612118Y-120077793D01*
X95740299Y-120122646D01*
X95740303Y-120122647D01*
X95758500Y-120124353D01*
X95770730Y-120125500D01*
X95770734Y-120125500D01*
X95770739Y-120125500D01*
X97129270Y-120125500D01*
X97129271Y-120125500D01*
X97131250Y-120125314D01*
X97159699Y-120122646D01*
X97159701Y-120122646D01*
X97238064Y-120095225D01*
X97287882Y-120077793D01*
X97397150Y-119997150D01*
X97477793Y-119887882D01*
X97508156Y-119801110D01*
X97522646Y-119759701D01*
X97522646Y-119759699D01*
X97525500Y-119729269D01*
X97525500Y-118920730D01*
X97522646Y-118890300D01*
X97522646Y-118890298D01*
X97487959Y-118791170D01*
X97477793Y-118762118D01*
X97397150Y-118652850D01*
X97287882Y-118572207D01*
X97287880Y-118572206D01*
X97256079Y-118561078D01*
X97159704Y-118527354D01*
X97159702Y-118527353D01*
X97159700Y-118527353D01*
X97129270Y-118524500D01*
X97129266Y-118524500D01*
X97129264Y-118524500D01*
X95770734Y-118524500D01*
X95770730Y-118524500D01*
X95752074Y-118526249D01*
X95746069Y-118526812D01*
X95744862Y-118526577D01*
X95740297Y-118527353D01*
X95612118Y-118572206D01*
X95502849Y-118652849D01*
X95422206Y-118762118D01*
X95377353Y-118890297D01*
X95376978Y-118892499D01*
X95376812Y-118896069D01*
X95374713Y-118918466D01*
X95374500Y-118920733D01*
X93816693Y-118920733D01*
X93800502Y-118892689D01*
X93800497Y-118892683D01*
X93707316Y-118799502D01*
X93707314Y-118799500D01*
X93650250Y-118766554D01*
X93630600Y-118755209D01*
X93593187Y-118733608D01*
X93529539Y-118716554D01*
X93465892Y-118699500D01*
X93465891Y-118699500D01*
X93334108Y-118699500D01*
X93206808Y-118733609D01*
X93206806Y-118733610D01*
X93092696Y-118799493D01*
X93092682Y-118799502D01*
X93092677Y-118799506D01*
X92999506Y-118892677D01*
X92999502Y-118892682D01*
X92999498Y-118892689D01*
X92933610Y-119006806D01*
X92933609Y-119006809D01*
X92933608Y-119006811D01*
X92933608Y-119006812D01*
X92933607Y-119006816D01*
X92917778Y-119065892D01*
X92899500Y-119134106D01*
X85130481Y-119134106D01*
X85108939Y-119128334D01*
X85108938Y-119128334D01*
X84977155Y-119128334D01*
X84849855Y-119162443D01*
X84849853Y-119162444D01*
X84735743Y-119228327D01*
X84735729Y-119228336D01*
X84735724Y-119228340D01*
X84642553Y-119321511D01*
X84642549Y-119321516D01*
X84642540Y-119321530D01*
X84576657Y-119435640D01*
X84576656Y-119435643D01*
X84576655Y-119435645D01*
X84576655Y-119435646D01*
X84561369Y-119492696D01*
X84557452Y-119507314D01*
X84542547Y-119562940D01*
X79274496Y-119562940D01*
X79300500Y-119465892D01*
X79300500Y-119334108D01*
X79266392Y-119206814D01*
X79266387Y-119206806D01*
X79240774Y-119162443D01*
X79200500Y-119092686D01*
X79107314Y-118999500D01*
X79031085Y-118955489D01*
X79031085Y-118955488D01*
X79031083Y-118955488D01*
X78993187Y-118933608D01*
X78901033Y-118908916D01*
X78865892Y-118899500D01*
X78865891Y-118899500D01*
X78734108Y-118899500D01*
X78606808Y-118933609D01*
X78606806Y-118933610D01*
X78492696Y-118999493D01*
X78492682Y-118999502D01*
X78492677Y-118999506D01*
X78399506Y-119092677D01*
X78399502Y-119092682D01*
X78399493Y-119092696D01*
X78333610Y-119206806D01*
X78333609Y-119206809D01*
X78333608Y-119206811D01*
X78333608Y-119206812D01*
X78327841Y-119228336D01*
X78310870Y-119291674D01*
X78299500Y-119334106D01*
X75594050Y-119334106D01*
X75593187Y-119333608D01*
X75502802Y-119309390D01*
X75502800Y-119309389D01*
X75465893Y-119299500D01*
X75465892Y-119299500D01*
X75334108Y-119299500D01*
X75206808Y-119333609D01*
X75206806Y-119333610D01*
X75092696Y-119399493D01*
X75092682Y-119399502D01*
X75092677Y-119399506D01*
X74999506Y-119492677D01*
X74999502Y-119492682D01*
X74999493Y-119492696D01*
X74933610Y-119606806D01*
X74933609Y-119606808D01*
X74910599Y-119692686D01*
X74899500Y-119734108D01*
X74096530Y-119734108D01*
X74080374Y-119673814D01*
X74020174Y-119569546D01*
X74017317Y-119562923D01*
X74017211Y-119562059D01*
X74015512Y-119558507D01*
X74005411Y-119532378D01*
X73999598Y-119462753D01*
X73999964Y-119460967D01*
X74026763Y-119405808D01*
X74030483Y-119401410D01*
X74038940Y-119393817D01*
X74038347Y-119393224D01*
X74139898Y-119291673D01*
X74139899Y-119291672D01*
X74205791Y-119177544D01*
X74239899Y-119050250D01*
X74239899Y-118918466D01*
X74205791Y-118791172D01*
X74205787Y-118791165D01*
X74205074Y-118789441D01*
X74199134Y-118771227D01*
X74198001Y-118766554D01*
X74195249Y-118755204D01*
X74195249Y-118755201D01*
X74195246Y-118755192D01*
X74194762Y-118753196D01*
X74195676Y-118734108D01*
X80699500Y-118734108D01*
X80699500Y-118865892D01*
X80706680Y-118892689D01*
X80733608Y-118993187D01*
X80741475Y-119006812D01*
X80799500Y-119107314D01*
X80892686Y-119200500D01*
X80892687Y-119200501D01*
X80892689Y-119200502D01*
X80941768Y-119228838D01*
X80991521Y-119257563D01*
X81005944Y-119265890D01*
X81006814Y-119266392D01*
X81134108Y-119300500D01*
X81134110Y-119300500D01*
X81265890Y-119300500D01*
X81265892Y-119300500D01*
X81393186Y-119266392D01*
X81507314Y-119200500D01*
X81600500Y-119107314D01*
X81666392Y-118993186D01*
X81700500Y-118865892D01*
X81700500Y-118734108D01*
X81666392Y-118606814D01*
X81658198Y-118592623D01*
X81645081Y-118559857D01*
X81643900Y-118554990D01*
X81641396Y-118544665D01*
X81644721Y-118474877D01*
X81645317Y-118473156D01*
X81679080Y-118421971D01*
X81684809Y-118416763D01*
X81706224Y-118401128D01*
X81707314Y-118400500D01*
X81800500Y-118307314D01*
X81866392Y-118193186D01*
X81900500Y-118065892D01*
X81900500Y-117934108D01*
X81866392Y-117806814D01*
X81866387Y-117806806D01*
X81832548Y-117748195D01*
X81800500Y-117692686D01*
X81707314Y-117599500D01*
X81607630Y-117541947D01*
X81593187Y-117533608D01*
X81529539Y-117516554D01*
X81465892Y-117499500D01*
X81465891Y-117499500D01*
X81334108Y-117499500D01*
X81206808Y-117533609D01*
X81206806Y-117533610D01*
X81092696Y-117599493D01*
X81092682Y-117599502D01*
X81092677Y-117599506D01*
X80999506Y-117692677D01*
X80999502Y-117692682D01*
X80999500Y-117692686D01*
X80933610Y-117806806D01*
X80933609Y-117806807D01*
X80933608Y-117806812D01*
X80925978Y-117835288D01*
X80925978Y-117835289D01*
X80925977Y-117835288D01*
X80899500Y-117934106D01*
X80899500Y-117934108D01*
X80899500Y-118065892D01*
X80930552Y-118181781D01*
X80933609Y-118193188D01*
X80933609Y-118193189D01*
X80945858Y-118214406D01*
X80948968Y-118221910D01*
X80949464Y-118226520D01*
X80954916Y-118240138D01*
X80958601Y-118255326D01*
X80955278Y-118325116D01*
X80955261Y-118325167D01*
X80954667Y-118326881D01*
X80920922Y-118378022D01*
X80915203Y-118383222D01*
X80896207Y-118397095D01*
X80896223Y-118397119D01*
X80895618Y-118397525D01*
X80893793Y-118398859D01*
X80892692Y-118399494D01*
X80892687Y-118399498D01*
X80799502Y-118492682D01*
X80799493Y-118492696D01*
X80733607Y-118606810D01*
X80715890Y-118672939D01*
X80714791Y-118677041D01*
X80699500Y-118734108D01*
X74195676Y-118734108D01*
X74198105Y-118683409D01*
X74198705Y-118681676D01*
X74232461Y-118630524D01*
X74238181Y-118625324D01*
X74259583Y-118609697D01*
X74307314Y-118582141D01*
X74400500Y-118488955D01*
X74466392Y-118374827D01*
X74500500Y-118247533D01*
X74500500Y-118115749D01*
X74466392Y-117988455D01*
X74466387Y-117988447D01*
X74442331Y-117946781D01*
X74400500Y-117874327D01*
X74307314Y-117781141D01*
X74250250Y-117748195D01*
X74193187Y-117715249D01*
X74108979Y-117692686D01*
X74108979Y-117692685D01*
X74065893Y-117681141D01*
X74065892Y-117681141D01*
X73934108Y-117681141D01*
X73806808Y-117715250D01*
X73806806Y-117715251D01*
X73692696Y-117781134D01*
X73692682Y-117781143D01*
X73692677Y-117781147D01*
X73599506Y-117874318D01*
X73599502Y-117874323D01*
X73599493Y-117874337D01*
X73533610Y-117988447D01*
X73533609Y-117988450D01*
X73533608Y-117988452D01*
X73533608Y-117988453D01*
X73512859Y-118065891D01*
X73512858Y-118065890D01*
X73499500Y-118115745D01*
X73499500Y-118115749D01*
X73499500Y-118247533D01*
X73531379Y-118366510D01*
X73533609Y-118374829D01*
X73533609Y-118374830D01*
X73534582Y-118376517D01*
X73538661Y-118389406D01*
X73538715Y-118392015D01*
X73540943Y-118397580D01*
X73544628Y-118412772D01*
X73541301Y-118482562D01*
X73541292Y-118482587D01*
X73540699Y-118484299D01*
X73506942Y-118535465D01*
X73501220Y-118540667D01*
X73479809Y-118556302D01*
X73432090Y-118583853D01*
X73432086Y-118583856D01*
X73338902Y-118677040D01*
X73338901Y-118677040D01*
X73338892Y-118677054D01*
X73273009Y-118791164D01*
X73273008Y-118791166D01*
X73265382Y-118819628D01*
X73238899Y-118918466D01*
X73238899Y-119050249D01*
X73273007Y-119177545D01*
X73289905Y-119206812D01*
X73324015Y-119265893D01*
X73329602Y-119275569D01*
X73337877Y-119292866D01*
X73340651Y-119300043D01*
X73340651Y-119300044D01*
X73344265Y-119309394D01*
X73347972Y-119318985D01*
X73353779Y-119388613D01*
X73353777Y-119388624D01*
X73353412Y-119390402D01*
X73326618Y-119445547D01*
X73321267Y-119451873D01*
X73308360Y-119465014D01*
X73306667Y-119466498D01*
X73213488Y-119559677D01*
X73213484Y-119559682D01*
X73213475Y-119559696D01*
X73147589Y-119673810D01*
X73147589Y-119673812D01*
X73141054Y-119698201D01*
X73141053Y-119698208D01*
X73138613Y-119707316D01*
X73113482Y-119801108D01*
X57000000Y-119801108D01*
X57000000Y-119042362D01*
X57019685Y-118975323D01*
X57025625Y-118966875D01*
X57090111Y-118882836D01*
X57101433Y-118865892D01*
X57105051Y-118860477D01*
X57114710Y-118843747D01*
X57126598Y-118819640D01*
X57169091Y-118717053D01*
X57177732Y-118691599D01*
X57181149Y-118678848D01*
X59474499Y-118678848D01*
X59505257Y-118833471D01*
X59505264Y-118833502D01*
X59565598Y-118979165D01*
X59565603Y-118979174D01*
X59565613Y-118979191D01*
X59653211Y-119110290D01*
X59653217Y-119110297D01*
X59764701Y-119221781D01*
X59764707Y-119221786D01*
X59764711Y-119221789D01*
X59895814Y-119309390D01*
X59895827Y-119309397D01*
X60041498Y-119369735D01*
X60041503Y-119369737D01*
X60159389Y-119393186D01*
X60188512Y-119398979D01*
X60191247Y-119399703D01*
X60196155Y-119400500D01*
X60903844Y-119400500D01*
X60907964Y-119400500D01*
X60915814Y-119398118D01*
X61058497Y-119369737D01*
X61204179Y-119309394D01*
X61335289Y-119221789D01*
X61446789Y-119110289D01*
X61534394Y-118979179D01*
X61539491Y-118966875D01*
X61570221Y-118892685D01*
X61594737Y-118833497D01*
X61625500Y-118678842D01*
X61625500Y-118521158D01*
X61625500Y-118521155D01*
X61625500Y-118520970D01*
X61625069Y-118518988D01*
X61609212Y-118439271D01*
X61609212Y-118439270D01*
X61606016Y-118423205D01*
X65515766Y-118423205D01*
X65515766Y-118554991D01*
X65527050Y-118597106D01*
X65527051Y-118597106D01*
X65527051Y-118597107D01*
X65549874Y-118682285D01*
X65579506Y-118733608D01*
X65615766Y-118796412D01*
X65708952Y-118889598D01*
X65786049Y-118934110D01*
X65823076Y-118955488D01*
X65823080Y-118955490D01*
X65950374Y-118989598D01*
X65950376Y-118989598D01*
X66082156Y-118989598D01*
X66082158Y-118989598D01*
X66209452Y-118955490D01*
X66323580Y-118889598D01*
X66416766Y-118796412D01*
X66482658Y-118682284D01*
X66516766Y-118554990D01*
X66516766Y-118423206D01*
X66482658Y-118295912D01*
X66482653Y-118295904D01*
X66473829Y-118280619D01*
X66416766Y-118181784D01*
X66323580Y-118088598D01*
X66266516Y-118055652D01*
X66209453Y-118022706D01*
X66145805Y-118005652D01*
X66082158Y-117988598D01*
X66082157Y-117988598D01*
X65950374Y-117988598D01*
X65823074Y-118022707D01*
X65823072Y-118022708D01*
X65708962Y-118088591D01*
X65708948Y-118088600D01*
X65708943Y-118088604D01*
X65615772Y-118181775D01*
X65615768Y-118181780D01*
X65615759Y-118181794D01*
X65549876Y-118295904D01*
X65549875Y-118295907D01*
X65549874Y-118295909D01*
X65549874Y-118295910D01*
X65521547Y-118401630D01*
X65518961Y-118411281D01*
X65515766Y-118423205D01*
X61606016Y-118423205D01*
X61594761Y-118366624D01*
X61594652Y-118366066D01*
X61594509Y-118365325D01*
X61592417Y-118360903D01*
X61534397Y-118220827D01*
X61534390Y-118220814D01*
X61446789Y-118089711D01*
X61446786Y-118089707D01*
X61446781Y-118089701D01*
X61335297Y-117978217D01*
X61335291Y-117978212D01*
X61335290Y-117978211D01*
X61204191Y-117890613D01*
X61204190Y-117890612D01*
X61204185Y-117890609D01*
X61204172Y-117890602D01*
X61204165Y-117890598D01*
X61058502Y-117830264D01*
X61058471Y-117830257D01*
X60903847Y-117799500D01*
X60903845Y-117799500D01*
X60903842Y-117799500D01*
X60196158Y-117799500D01*
X60196155Y-117799500D01*
X60196153Y-117799500D01*
X60041527Y-117830257D01*
X60041496Y-117830264D01*
X59895833Y-117890598D01*
X59895824Y-117890603D01*
X59895807Y-117890613D01*
X59764708Y-117978211D01*
X59764707Y-117978212D01*
X59764701Y-117978217D01*
X59653217Y-118089701D01*
X59653212Y-118089707D01*
X59653211Y-118089708D01*
X59565613Y-118220807D01*
X59565603Y-118220824D01*
X59565598Y-118220833D01*
X59505264Y-118366496D01*
X59505264Y-118366497D01*
X59505264Y-118366498D01*
X59505261Y-118366510D01*
X59498501Y-118400496D01*
X59474500Y-118521150D01*
X59474500Y-118521153D01*
X59474500Y-118678846D01*
X59474500Y-118678848D01*
X59474499Y-118678848D01*
X57181149Y-118678848D01*
X57182732Y-118672939D01*
X57187976Y-118646575D01*
X57203109Y-118531632D01*
X57204427Y-118518247D01*
X57204517Y-118516862D01*
X57205058Y-118508629D01*
X57205058Y-118508608D01*
X57205060Y-118508588D01*
X57205500Y-118495149D01*
X57205500Y-116195730D01*
X59474500Y-116195730D01*
X59474500Y-117004269D01*
X59474509Y-117004365D01*
X59474509Y-117004370D01*
X59475582Y-117015815D01*
X59475582Y-117015817D01*
X59477353Y-117034699D01*
X59477353Y-117034701D01*
X59518534Y-117152385D01*
X59519169Y-117154201D01*
X59519177Y-117154225D01*
X59522206Y-117162881D01*
X59522207Y-117162882D01*
X59602850Y-117272150D01*
X59712118Y-117352793D01*
X59733075Y-117360126D01*
X59840299Y-117397646D01*
X59840304Y-117397646D01*
X59840307Y-117397647D01*
X59851892Y-117398733D01*
X59870730Y-117400500D01*
X59870734Y-117400500D01*
X59870739Y-117400500D01*
X61229270Y-117400500D01*
X61229271Y-117400500D01*
X61230385Y-117400395D01*
X61259699Y-117397646D01*
X61259701Y-117397646D01*
X61331997Y-117372348D01*
X61387882Y-117352793D01*
X61497150Y-117272150D01*
X61577793Y-117162882D01*
X61602767Y-117091510D01*
X61622646Y-117034701D01*
X61622646Y-117034699D01*
X61625500Y-117004269D01*
X61625500Y-116934106D01*
X62699500Y-116934106D01*
X62699500Y-116934108D01*
X62699500Y-117065892D01*
X62716554Y-117129539D01*
X62723168Y-117154225D01*
X62733609Y-117193189D01*
X62764189Y-117246154D01*
X62764190Y-117246155D01*
X62799500Y-117307314D01*
X62892686Y-117400500D01*
X62963513Y-117441392D01*
X63000843Y-117462945D01*
X63006814Y-117466392D01*
X63134108Y-117500500D01*
X63134110Y-117500500D01*
X63265890Y-117500500D01*
X63265892Y-117500500D01*
X63393186Y-117466392D01*
X63507314Y-117400500D01*
X63600500Y-117307314D01*
X63666392Y-117193186D01*
X63700500Y-117065892D01*
X63700500Y-116934108D01*
X63666392Y-116806814D01*
X63666387Y-116806806D01*
X63628326Y-116740882D01*
X63600500Y-116692686D01*
X63507314Y-116599500D01*
X63507311Y-116599498D01*
X63507307Y-116599495D01*
X63456092Y-116569926D01*
X63456086Y-116569923D01*
X63447811Y-116565146D01*
X63393187Y-116533608D01*
X63299891Y-116508610D01*
X63293424Y-116506877D01*
X63293416Y-116506874D01*
X63265893Y-116499500D01*
X63265892Y-116499500D01*
X63134108Y-116499500D01*
X63006808Y-116533609D01*
X63006806Y-116533610D01*
X62892696Y-116599493D01*
X62892682Y-116599502D01*
X62892677Y-116599506D01*
X62799506Y-116692677D01*
X62799502Y-116692682D01*
X62799493Y-116692696D01*
X62733610Y-116806806D01*
X62733609Y-116806809D01*
X62733608Y-116806811D01*
X62733608Y-116806812D01*
X62731492Y-116814711D01*
X62717778Y-116865892D01*
X62699500Y-116934106D01*
X61625500Y-116934106D01*
X61625500Y-116195730D01*
X61625261Y-116193187D01*
X61624415Y-116184164D01*
X61622646Y-116165300D01*
X61622646Y-116165298D01*
X61582140Y-116049542D01*
X61577793Y-116037118D01*
X61575203Y-116033609D01*
X61550030Y-115999500D01*
X61497150Y-115927850D01*
X61387882Y-115847207D01*
X61387880Y-115847206D01*
X61342996Y-115831500D01*
X61259704Y-115802354D01*
X61259702Y-115802353D01*
X61259700Y-115802353D01*
X61229270Y-115799500D01*
X61229266Y-115799500D01*
X61229264Y-115799500D01*
X59870734Y-115799500D01*
X59870730Y-115799500D01*
X59852074Y-115801249D01*
X59846069Y-115801812D01*
X59842499Y-115801978D01*
X59840297Y-115802353D01*
X59712118Y-115847206D01*
X59602849Y-115927849D01*
X59522206Y-116037118D01*
X59477353Y-116165297D01*
X59477333Y-116165412D01*
X59477332Y-116165517D01*
X59474500Y-116195730D01*
X57205500Y-116195730D01*
X57205500Y-115265107D01*
X64267903Y-115265107D01*
X64267903Y-115265109D01*
X64267903Y-115396893D01*
X64284957Y-115460540D01*
X64302011Y-115524188D01*
X64334957Y-115581251D01*
X64367903Y-115638315D01*
X64461089Y-115731501D01*
X64575217Y-115797393D01*
X64702511Y-115831501D01*
X64702513Y-115831501D01*
X64722315Y-115831501D01*
X64757251Y-115836524D01*
X64772249Y-115840928D01*
X64831023Y-115878699D01*
X64836829Y-115885399D01*
X64859501Y-115928117D01*
X64860025Y-115927901D01*
X64862294Y-115933380D01*
X64862893Y-115934508D01*
X64863133Y-115935406D01*
X64863135Y-115935412D01*
X64863136Y-115935413D01*
X64893530Y-115988056D01*
X64929028Y-116049540D01*
X65022214Y-116142726D01*
X65136342Y-116208618D01*
X65263636Y-116242726D01*
X65263638Y-116242726D01*
X65395416Y-116242726D01*
X65395417Y-116242726D01*
X65395420Y-116242726D01*
X65443203Y-116229922D01*
X65478243Y-116225733D01*
X65497051Y-116226181D01*
X65558636Y-116244265D01*
X65567533Y-116249688D01*
X65590676Y-116267888D01*
X65645453Y-116322665D01*
X65759581Y-116388557D01*
X65886875Y-116422665D01*
X65886877Y-116422665D01*
X66018657Y-116422665D01*
X66018659Y-116422665D01*
X66145953Y-116388557D01*
X66260081Y-116322665D01*
X66353267Y-116229479D01*
X66419159Y-116115351D01*
X66453267Y-115988057D01*
X66453267Y-115856273D01*
X66419159Y-115728979D01*
X66353267Y-115614851D01*
X66260081Y-115521665D01*
X66203017Y-115488719D01*
X66145954Y-115455773D01*
X66082306Y-115438719D01*
X66018659Y-115421665D01*
X66018658Y-115421665D01*
X65886870Y-115421665D01*
X65839096Y-115434466D01*
X65804053Y-115438656D01*
X65785243Y-115438208D01*
X65723660Y-115420126D01*
X65714764Y-115414704D01*
X65691618Y-115396502D01*
X65636844Y-115341728D01*
X65636842Y-115341726D01*
X65577237Y-115307313D01*
X65522715Y-115275834D01*
X65459067Y-115258780D01*
X65395420Y-115241726D01*
X65395419Y-115241726D01*
X65375616Y-115241726D01*
X65340675Y-115236701D01*
X65325676Y-115232296D01*
X65266908Y-115194528D01*
X65261101Y-115187827D01*
X65238430Y-115145106D01*
X65237905Y-115145324D01*
X65235627Y-115139826D01*
X65235034Y-115138707D01*
X65234795Y-115137815D01*
X65234794Y-115137814D01*
X65168903Y-115023687D01*
X65079324Y-114934108D01*
X68499500Y-114934108D01*
X68499500Y-115065892D01*
X68500730Y-115070483D01*
X68500730Y-115070485D01*
X68508773Y-115100500D01*
X68519310Y-115139826D01*
X68533608Y-115193187D01*
X68541475Y-115206812D01*
X68599500Y-115307314D01*
X68599502Y-115307316D01*
X68688283Y-115396097D01*
X68700754Y-115410664D01*
X68712855Y-115427240D01*
X68736484Y-115492993D01*
X68720817Y-115561078D01*
X68715994Y-115569665D01*
X68695562Y-115596622D01*
X68599502Y-115692682D01*
X68599493Y-115692696D01*
X68533610Y-115806806D01*
X68533609Y-115806808D01*
X68533608Y-115806812D01*
X68499500Y-115934108D01*
X68499500Y-116065891D01*
X68533608Y-116193186D01*
X68533609Y-116193190D01*
X68562208Y-116242725D01*
X68599495Y-116307307D01*
X68599502Y-116307316D01*
X68688283Y-116396097D01*
X68700754Y-116410664D01*
X68712855Y-116427240D01*
X68736484Y-116492993D01*
X68720817Y-116561078D01*
X68715994Y-116569665D01*
X68695562Y-116596622D01*
X68599502Y-116692682D01*
X68599493Y-116692696D01*
X68533610Y-116806806D01*
X68533609Y-116806809D01*
X68533608Y-116806811D01*
X68533608Y-116806812D01*
X68531492Y-116814711D01*
X68517778Y-116865892D01*
X68499500Y-116934106D01*
X68499500Y-116934108D01*
X68499500Y-117065892D01*
X68516554Y-117129539D01*
X68523168Y-117154225D01*
X68533609Y-117193189D01*
X68559138Y-117237406D01*
X68559140Y-117237409D01*
X68564189Y-117246153D01*
X68599500Y-117307314D01*
X68599502Y-117307316D01*
X68692644Y-117400458D01*
X68696544Y-117405221D01*
X68696984Y-117406260D01*
X68700754Y-117410664D01*
X68712855Y-117427240D01*
X68736484Y-117492993D01*
X68720817Y-117561078D01*
X68715994Y-117569665D01*
X68695562Y-117596622D01*
X68599502Y-117692682D01*
X68599500Y-117692686D01*
X68533610Y-117806806D01*
X68533609Y-117806807D01*
X68533608Y-117806812D01*
X68525978Y-117835288D01*
X68525978Y-117835289D01*
X68525977Y-117835288D01*
X68499500Y-117934106D01*
X68499500Y-117934108D01*
X68499500Y-118065892D01*
X68515472Y-118125500D01*
X68533608Y-118193187D01*
X68564984Y-118247531D01*
X68599500Y-118307314D01*
X68599502Y-118307316D01*
X68688283Y-118396097D01*
X68700754Y-118410664D01*
X68712855Y-118427240D01*
X68736484Y-118492993D01*
X68720817Y-118561078D01*
X68715994Y-118569665D01*
X68695562Y-118596622D01*
X68599502Y-118692682D01*
X68599493Y-118692696D01*
X68533610Y-118806806D01*
X68533609Y-118806808D01*
X68533608Y-118806812D01*
X68499634Y-118933608D01*
X68499634Y-118933610D01*
X68499632Y-118933617D01*
X68499500Y-118934108D01*
X68499500Y-119065891D01*
X68511396Y-119110289D01*
X68533608Y-119193188D01*
X68541472Y-119206806D01*
X68541475Y-119206812D01*
X68599500Y-119307314D01*
X68692686Y-119400500D01*
X68692687Y-119400501D01*
X68692689Y-119400502D01*
X68722158Y-119417516D01*
X68791521Y-119457563D01*
X68798555Y-119461624D01*
X68806814Y-119466392D01*
X68806816Y-119466392D01*
X68806817Y-119466393D01*
X68827691Y-119471986D01*
X68934108Y-119500500D01*
X68934110Y-119500500D01*
X69065890Y-119500500D01*
X69065892Y-119500500D01*
X69193186Y-119466392D01*
X69307314Y-119400500D01*
X69400500Y-119307314D01*
X69466392Y-119193186D01*
X69500500Y-119065892D01*
X69500500Y-118934108D01*
X69466392Y-118806814D01*
X69466387Y-118806806D01*
X69440587Y-118762119D01*
X69400500Y-118692686D01*
X69311717Y-118603903D01*
X69299254Y-118589345D01*
X69287150Y-118572768D01*
X69263514Y-118507017D01*
X69279176Y-118438931D01*
X69283998Y-118430344D01*
X69304436Y-118403376D01*
X69307310Y-118400502D01*
X69307314Y-118400500D01*
X69400500Y-118307314D01*
X69466392Y-118193186D01*
X69500500Y-118065892D01*
X69500500Y-117934108D01*
X69466392Y-117806814D01*
X69466387Y-117806806D01*
X69432548Y-117748195D01*
X69400500Y-117692686D01*
X69311717Y-117603903D01*
X69305129Y-117591838D01*
X69301983Y-117590169D01*
X69267767Y-117529250D01*
X69271917Y-117459504D01*
X69313117Y-117403074D01*
X69378284Y-117377876D01*
X69413514Y-117379971D01*
X69420882Y-117381482D01*
X69425333Y-117382395D01*
X69462427Y-117396481D01*
X69540210Y-117441390D01*
X69540214Y-117441392D01*
X69667508Y-117475500D01*
X69667510Y-117475500D01*
X69799290Y-117475500D01*
X69799292Y-117475500D01*
X69926586Y-117441392D01*
X70023370Y-117385513D01*
X70056132Y-117372395D01*
X70071329Y-117368709D01*
X70141114Y-117372033D01*
X70148152Y-117374469D01*
X70205063Y-117414998D01*
X70213027Y-117426387D01*
X70217444Y-117433526D01*
X70217453Y-117433539D01*
X70218282Y-117434878D01*
X70236815Y-117502245D01*
X70220947Y-117560845D01*
X70215992Y-117569667D01*
X70195560Y-117596624D01*
X70099502Y-117692682D01*
X70099500Y-117692686D01*
X70033610Y-117806806D01*
X70033609Y-117806807D01*
X70033608Y-117806812D01*
X70025978Y-117835288D01*
X70025978Y-117835289D01*
X70025977Y-117835288D01*
X69999500Y-117934106D01*
X69999500Y-117934108D01*
X69999500Y-118065892D01*
X70015472Y-118125500D01*
X70033608Y-118193187D01*
X70064984Y-118247531D01*
X70099500Y-118307314D01*
X70099502Y-118307316D01*
X70188283Y-118396097D01*
X70200754Y-118410664D01*
X70212855Y-118427240D01*
X70236484Y-118492993D01*
X70220817Y-118561078D01*
X70215994Y-118569665D01*
X70195562Y-118596622D01*
X70099502Y-118692682D01*
X70099493Y-118692696D01*
X70033610Y-118806806D01*
X70033609Y-118806808D01*
X70033608Y-118806812D01*
X69999634Y-118933608D01*
X69999634Y-118933610D01*
X69999632Y-118933617D01*
X69999500Y-118934108D01*
X69999500Y-119065891D01*
X70011396Y-119110289D01*
X70033608Y-119193188D01*
X70041472Y-119206806D01*
X70041475Y-119206812D01*
X70099500Y-119307314D01*
X70192686Y-119400500D01*
X70192687Y-119400501D01*
X70192689Y-119400502D01*
X70222158Y-119417516D01*
X70291521Y-119457563D01*
X70298555Y-119461624D01*
X70306814Y-119466392D01*
X70306816Y-119466392D01*
X70306817Y-119466393D01*
X70327691Y-119471986D01*
X70434108Y-119500500D01*
X70434110Y-119500500D01*
X70565890Y-119500500D01*
X70565892Y-119500500D01*
X70693186Y-119466392D01*
X70807314Y-119400500D01*
X70900500Y-119307314D01*
X70966392Y-119193186D01*
X71000500Y-119065892D01*
X71000500Y-118934108D01*
X70966392Y-118806814D01*
X70966387Y-118806806D01*
X70940587Y-118762119D01*
X70900500Y-118692686D01*
X70811717Y-118603903D01*
X70799254Y-118589345D01*
X70787150Y-118572768D01*
X70763514Y-118507017D01*
X70779176Y-118438931D01*
X70783998Y-118430344D01*
X70804436Y-118403376D01*
X70807310Y-118400502D01*
X70807314Y-118400500D01*
X70900500Y-118307314D01*
X70966392Y-118193186D01*
X71000500Y-118065892D01*
X71000500Y-117934108D01*
X70966392Y-117806814D01*
X70966387Y-117806806D01*
X70932548Y-117748195D01*
X70900500Y-117692686D01*
X70811717Y-117603903D01*
X70799254Y-117589345D01*
X70787150Y-117572768D01*
X70763514Y-117507017D01*
X70779176Y-117438931D01*
X70783998Y-117430344D01*
X70804078Y-117403848D01*
X95374499Y-117403848D01*
X95405257Y-117558471D01*
X95405264Y-117558502D01*
X95465598Y-117704165D01*
X95465603Y-117704174D01*
X95465613Y-117704191D01*
X95553212Y-117835291D01*
X95553217Y-117835297D01*
X95664701Y-117946781D01*
X95664707Y-117946786D01*
X95664711Y-117946789D01*
X95795814Y-118034390D01*
X95795827Y-118034397D01*
X95871864Y-118065892D01*
X95941503Y-118094737D01*
X95941505Y-118094737D01*
X95941510Y-118094739D01*
X96047137Y-118115749D01*
X96088512Y-118123979D01*
X96091247Y-118124703D01*
X96096155Y-118125500D01*
X96803844Y-118125500D01*
X96807964Y-118125500D01*
X96815814Y-118123118D01*
X96958497Y-118094737D01*
X97104179Y-118034394D01*
X97235289Y-117946789D01*
X97346789Y-117835289D01*
X97346790Y-117835288D01*
X97346791Y-117835287D01*
X97434390Y-117704185D01*
X97434390Y-117704184D01*
X97434394Y-117704179D01*
X97494737Y-117558497D01*
X97525500Y-117403842D01*
X97525500Y-117246158D01*
X97525500Y-117246155D01*
X97525500Y-117246154D01*
X97525500Y-117245971D01*
X97525064Y-117243966D01*
X97497882Y-117107314D01*
X97497881Y-117107311D01*
X97495355Y-117094613D01*
X97494737Y-117091503D01*
X97457043Y-117000500D01*
X97434397Y-116945827D01*
X97434390Y-116945814D01*
X97346789Y-116814711D01*
X97346786Y-116814707D01*
X97346781Y-116814701D01*
X97235294Y-116703214D01*
X97235291Y-116703212D01*
X97235290Y-116703211D01*
X97104191Y-116615613D01*
X97104190Y-116615612D01*
X97104185Y-116615609D01*
X97104172Y-116615602D01*
X97104165Y-116615598D01*
X96958502Y-116555264D01*
X96958471Y-116555257D01*
X96803847Y-116524500D01*
X96803845Y-116524500D01*
X96803842Y-116524500D01*
X96096158Y-116524500D01*
X96096155Y-116524500D01*
X96096153Y-116524500D01*
X95941527Y-116555257D01*
X95941496Y-116555264D01*
X95795833Y-116615598D01*
X95795824Y-116615603D01*
X95795807Y-116615613D01*
X95664708Y-116703211D01*
X95664705Y-116703214D01*
X95553217Y-116814701D01*
X95553212Y-116814707D01*
X95553211Y-116814708D01*
X95465613Y-116945807D01*
X95465603Y-116945824D01*
X95465598Y-116945833D01*
X95405264Y-117091496D01*
X95405261Y-117091510D01*
X95374500Y-117246150D01*
X95374500Y-117246153D01*
X95374500Y-117403846D01*
X95374500Y-117403848D01*
X95374499Y-117403848D01*
X70804078Y-117403848D01*
X70804436Y-117403376D01*
X70807310Y-117400502D01*
X70807314Y-117400500D01*
X70900500Y-117307314D01*
X70966392Y-117193186D01*
X71000500Y-117065892D01*
X71000500Y-116934108D01*
X70966392Y-116806814D01*
X70966387Y-116806806D01*
X70928326Y-116740882D01*
X70900500Y-116692686D01*
X70811717Y-116603903D01*
X70799254Y-116589345D01*
X70787150Y-116572768D01*
X70763514Y-116507017D01*
X70779176Y-116438931D01*
X70783998Y-116430344D01*
X70804436Y-116403376D01*
X70807310Y-116400502D01*
X70807314Y-116400500D01*
X70900500Y-116307314D01*
X70966392Y-116193186D01*
X70971402Y-116174488D01*
X73139880Y-116174488D01*
X73139880Y-116306272D01*
X73147205Y-116333608D01*
X73173415Y-116431429D01*
X73173989Y-116433570D01*
X73192938Y-116466388D01*
X73192939Y-116466392D01*
X73192940Y-116466392D01*
X73239880Y-116547694D01*
X73333066Y-116640880D01*
X73423664Y-116693187D01*
X73423665Y-116693187D01*
X73441029Y-116703213D01*
X73447194Y-116706772D01*
X73574488Y-116740880D01*
X73574490Y-116740880D01*
X73706270Y-116740880D01*
X73706272Y-116740880D01*
X73731546Y-116734108D01*
X78099500Y-116734108D01*
X78099500Y-116865891D01*
X78133608Y-116993186D01*
X78133608Y-116993187D01*
X78157577Y-117034701D01*
X78157578Y-117034703D01*
X78199497Y-117107310D01*
X78199498Y-117107311D01*
X78199500Y-117107314D01*
X78292686Y-117200500D01*
X78406814Y-117266392D01*
X78534108Y-117300500D01*
X78534110Y-117300500D01*
X78665890Y-117300500D01*
X78665892Y-117300500D01*
X78793186Y-117266392D01*
X78907314Y-117200500D01*
X79000500Y-117107314D01*
X79066392Y-116993186D01*
X79100500Y-116865892D01*
X79100500Y-116734108D01*
X79066392Y-116606814D01*
X79066390Y-116606810D01*
X79005154Y-116500746D01*
X79005152Y-116500744D01*
X79000500Y-116492686D01*
X79000499Y-116492684D01*
X79000498Y-116492683D01*
X78951973Y-116444159D01*
X78944643Y-116434106D01*
X93299500Y-116434106D01*
X93299500Y-116565892D01*
X93308204Y-116598376D01*
X93333608Y-116693187D01*
X93361144Y-116740879D01*
X93361145Y-116740882D01*
X93399495Y-116807307D01*
X93399499Y-116807312D01*
X93399500Y-116807314D01*
X93492686Y-116900500D01*
X93606814Y-116966392D01*
X93734108Y-117000500D01*
X93734110Y-117000500D01*
X93865890Y-117000500D01*
X93865892Y-117000500D01*
X93993186Y-116966392D01*
X94107314Y-116900500D01*
X94200500Y-116807314D01*
X94266392Y-116693186D01*
X94300500Y-116565892D01*
X94300500Y-116434108D01*
X94266392Y-116306814D01*
X94266078Y-116306271D01*
X94256939Y-116290441D01*
X94230197Y-116244122D01*
X94230196Y-116244122D01*
X94200500Y-116192686D01*
X94107314Y-116099500D01*
X94049100Y-116065890D01*
X93993187Y-116033608D01*
X93929539Y-116016554D01*
X93865892Y-115999500D01*
X93865891Y-115999500D01*
X93734108Y-115999500D01*
X93606808Y-116033609D01*
X93606806Y-116033610D01*
X93492696Y-116099493D01*
X93492682Y-116099502D01*
X93492677Y-116099506D01*
X93399506Y-116192677D01*
X93399502Y-116192682D01*
X93399493Y-116192696D01*
X93333610Y-116306806D01*
X93333609Y-116306808D01*
X93308506Y-116400497D01*
X93299500Y-116434106D01*
X78944643Y-116434106D01*
X78929357Y-116413141D01*
X78925815Y-116406247D01*
X78923645Y-116402022D01*
X78910521Y-116333396D01*
X78934675Y-116271049D01*
X78939824Y-116264172D01*
X78977090Y-116231098D01*
X78979896Y-116229478D01*
X79014335Y-116209595D01*
X79107521Y-116116409D01*
X79173413Y-116002281D01*
X79207521Y-115874987D01*
X79207521Y-115743203D01*
X79173413Y-115615909D01*
X79172800Y-115614848D01*
X79163286Y-115598370D01*
X79157718Y-115588725D01*
X79107523Y-115501784D01*
X79107519Y-115501779D01*
X79028374Y-115422634D01*
X79014335Y-115408595D01*
X78957271Y-115375649D01*
X78954158Y-115373851D01*
X78954154Y-115373849D01*
X78900208Y-115342703D01*
X78868123Y-115334106D01*
X81099500Y-115334106D01*
X81099500Y-115465893D01*
X81114443Y-115521664D01*
X81114444Y-115521664D01*
X81114444Y-115521665D01*
X81133608Y-115593187D01*
X81146116Y-115614851D01*
X81199500Y-115707314D01*
X81292686Y-115800500D01*
X81406814Y-115866392D01*
X81534108Y-115900500D01*
X81534110Y-115900500D01*
X81665890Y-115900500D01*
X81665892Y-115900500D01*
X81793186Y-115866392D01*
X81907314Y-115800500D01*
X82000500Y-115707314D01*
X82066392Y-115593186D01*
X82100500Y-115465892D01*
X82100500Y-115334108D01*
X82100499Y-115334106D01*
X85899500Y-115334106D01*
X85899500Y-115465893D01*
X85914443Y-115521664D01*
X85914444Y-115521664D01*
X85914444Y-115521665D01*
X85933608Y-115593187D01*
X85946116Y-115614851D01*
X85999500Y-115707314D01*
X86092686Y-115800500D01*
X86206814Y-115866392D01*
X86334108Y-115900500D01*
X86334110Y-115900500D01*
X86465890Y-115900500D01*
X86465892Y-115900500D01*
X86593186Y-115866392D01*
X86707314Y-115800500D01*
X86800500Y-115707314D01*
X86866392Y-115593186D01*
X86900500Y-115465892D01*
X86900500Y-115334108D01*
X86866392Y-115206814D01*
X86866387Y-115206806D01*
X86844697Y-115169237D01*
X86800500Y-115092686D01*
X86707314Y-114999500D01*
X86650250Y-114966554D01*
X86593187Y-114933608D01*
X86529539Y-114916554D01*
X86465892Y-114899500D01*
X86465891Y-114899500D01*
X86334108Y-114899500D01*
X86206808Y-114933609D01*
X86206806Y-114933610D01*
X86092696Y-114999493D01*
X86092682Y-114999502D01*
X86092677Y-114999506D01*
X85999506Y-115092677D01*
X85999502Y-115092682D01*
X85999493Y-115092696D01*
X85933610Y-115206806D01*
X85933609Y-115206809D01*
X85933608Y-115206811D01*
X85933608Y-115206812D01*
X85924253Y-115241726D01*
X85917778Y-115265892D01*
X85899500Y-115334106D01*
X82100499Y-115334106D01*
X82066392Y-115206814D01*
X82066387Y-115206806D01*
X82044697Y-115169237D01*
X82000500Y-115092686D01*
X81907314Y-114999500D01*
X81850250Y-114966554D01*
X81793187Y-114933608D01*
X81729539Y-114916554D01*
X81665892Y-114899500D01*
X81665891Y-114899500D01*
X81534108Y-114899500D01*
X81406808Y-114933609D01*
X81406806Y-114933610D01*
X81292696Y-114999493D01*
X81292682Y-114999502D01*
X81292677Y-114999506D01*
X81199506Y-115092677D01*
X81199502Y-115092682D01*
X81199493Y-115092696D01*
X81133610Y-115206806D01*
X81133609Y-115206809D01*
X81133608Y-115206811D01*
X81133608Y-115206812D01*
X81124253Y-115241726D01*
X81117778Y-115265892D01*
X81099500Y-115334106D01*
X78868123Y-115334106D01*
X78836560Y-115325649D01*
X78772913Y-115308595D01*
X78772912Y-115308595D01*
X78641129Y-115308595D01*
X78513829Y-115342704D01*
X78513827Y-115342705D01*
X78399717Y-115408588D01*
X78399703Y-115408597D01*
X78399698Y-115408601D01*
X78306527Y-115501772D01*
X78306523Y-115501777D01*
X78306514Y-115501791D01*
X78240631Y-115615901D01*
X78240630Y-115615902D01*
X78207409Y-115739887D01*
X78206521Y-115743202D01*
X78206521Y-115874988D01*
X78222081Y-115933062D01*
X78222082Y-115933062D01*
X78222082Y-115933063D01*
X78222083Y-115933066D01*
X78240630Y-116002286D01*
X78240631Y-116002287D01*
X78260742Y-116037119D01*
X78267913Y-116049539D01*
X78306521Y-116116409D01*
X78306523Y-116116411D01*
X78360130Y-116170018D01*
X78365306Y-116176868D01*
X78366913Y-116181119D01*
X78375203Y-116192193D01*
X78375472Y-116192686D01*
X78381856Y-116204376D01*
X78396708Y-116272649D01*
X78372292Y-116338114D01*
X78372283Y-116338125D01*
X78367187Y-116344931D01*
X78329930Y-116377996D01*
X78292688Y-116399498D01*
X78292682Y-116399502D01*
X78292677Y-116399506D01*
X78199506Y-116492677D01*
X78199502Y-116492682D01*
X78199493Y-116492696D01*
X78133610Y-116606806D01*
X78133609Y-116606808D01*
X78110599Y-116692686D01*
X78099500Y-116734108D01*
X73731546Y-116734108D01*
X73833566Y-116706772D01*
X73947694Y-116640880D01*
X74040880Y-116547694D01*
X74106772Y-116433566D01*
X74140880Y-116306272D01*
X74140880Y-116174488D01*
X74106772Y-116047194D01*
X74106767Y-116047186D01*
X74072629Y-115988057D01*
X74040880Y-115933066D01*
X73947694Y-115839880D01*
X73882697Y-115802354D01*
X73882696Y-115802353D01*
X73882695Y-115802353D01*
X73882679Y-115802344D01*
X73833567Y-115773988D01*
X73769919Y-115756934D01*
X73706272Y-115739880D01*
X73706271Y-115739880D01*
X73574488Y-115739880D01*
X73447188Y-115773989D01*
X73447186Y-115773990D01*
X73333076Y-115839873D01*
X73333062Y-115839882D01*
X73333057Y-115839886D01*
X73239886Y-115933057D01*
X73239882Y-115933062D01*
X73239881Y-115933064D01*
X73173990Y-116047186D01*
X73173989Y-116047187D01*
X73142341Y-116165301D01*
X73142340Y-116165300D01*
X73140437Y-116172403D01*
X73140437Y-116172407D01*
X73139880Y-116174488D01*
X70971402Y-116174488D01*
X71000500Y-116065892D01*
X71000500Y-115934108D01*
X70966392Y-115806814D01*
X70963816Y-115802353D01*
X70963815Y-115802351D01*
X70963816Y-115802350D01*
X70963811Y-115802345D01*
X70929666Y-115743203D01*
X70927747Y-115739880D01*
X70921453Y-115728977D01*
X70900500Y-115692686D01*
X70811717Y-115603903D01*
X70799254Y-115589345D01*
X70787150Y-115572768D01*
X70763514Y-115507017D01*
X70779176Y-115438931D01*
X70783998Y-115430344D01*
X70804436Y-115403376D01*
X70807310Y-115400502D01*
X70807314Y-115400500D01*
X70900500Y-115307314D01*
X70966392Y-115193186D01*
X70982222Y-115134106D01*
X74299500Y-115134106D01*
X74299500Y-115265891D01*
X74310941Y-115308594D01*
X74310942Y-115308594D01*
X74310942Y-115308595D01*
X74333608Y-115393187D01*
X74366554Y-115450250D01*
X74399500Y-115507314D01*
X74492686Y-115600500D01*
X74606814Y-115666392D01*
X74734108Y-115700500D01*
X74734110Y-115700500D01*
X74865890Y-115700500D01*
X74865892Y-115700500D01*
X74993186Y-115666392D01*
X75107314Y-115600500D01*
X75200500Y-115507314D01*
X75266392Y-115393186D01*
X75300500Y-115265892D01*
X75300500Y-115134108D01*
X75266392Y-115006814D01*
X75266387Y-115006806D01*
X75224416Y-114934110D01*
X75200500Y-114892686D01*
X75107314Y-114799500D01*
X75081046Y-114784334D01*
X75058466Y-114771297D01*
X75058463Y-114771295D01*
X75050250Y-114766554D01*
X74993187Y-114733608D01*
X74897980Y-114708098D01*
X74891446Y-114706347D01*
X74891438Y-114706344D01*
X74865893Y-114699500D01*
X74865892Y-114699500D01*
X74734108Y-114699500D01*
X74606808Y-114733609D01*
X74606806Y-114733610D01*
X74492696Y-114799493D01*
X74492682Y-114799502D01*
X74492677Y-114799506D01*
X74399506Y-114892677D01*
X74399502Y-114892682D01*
X74399500Y-114892686D01*
X74333610Y-115006806D01*
X74333609Y-115006809D01*
X74333608Y-115006811D01*
X74333608Y-115006812D01*
X74329086Y-115023690D01*
X74317644Y-115066392D01*
X74299500Y-115134106D01*
X70982222Y-115134106D01*
X71000500Y-115065892D01*
X71000500Y-114934108D01*
X70966392Y-114806814D01*
X70900500Y-114692686D01*
X70807314Y-114599500D01*
X70807312Y-114599499D01*
X70807310Y-114599497D01*
X70739420Y-114560301D01*
X70693188Y-114533608D01*
X70629539Y-114516554D01*
X70565892Y-114499500D01*
X70565891Y-114499500D01*
X70434108Y-114499500D01*
X70306808Y-114533609D01*
X70306806Y-114533610D01*
X70192696Y-114599493D01*
X70192682Y-114599502D01*
X70192677Y-114599506D01*
X70099506Y-114692677D01*
X70099502Y-114692682D01*
X70099493Y-114692696D01*
X70033607Y-114806810D01*
X70033607Y-114806812D01*
X70026938Y-114831704D01*
X70026938Y-114831706D01*
X69999500Y-114934108D01*
X69999500Y-115065893D01*
X70008773Y-115100500D01*
X70019310Y-115139826D01*
X70033608Y-115193187D01*
X70041475Y-115206812D01*
X70099500Y-115307314D01*
X70099502Y-115307316D01*
X70188283Y-115396097D01*
X70200754Y-115410664D01*
X70212855Y-115427240D01*
X70236484Y-115492993D01*
X70220817Y-115561078D01*
X70215994Y-115569665D01*
X70195562Y-115596622D01*
X70099502Y-115692682D01*
X70099493Y-115692696D01*
X70033610Y-115806806D01*
X70033609Y-115806808D01*
X70033608Y-115806812D01*
X69999500Y-115934108D01*
X69999500Y-116065891D01*
X70033608Y-116193186D01*
X70033609Y-116193190D01*
X70062208Y-116242725D01*
X70099495Y-116307307D01*
X70099502Y-116307316D01*
X70133359Y-116341173D01*
X70136286Y-116346534D01*
X70136288Y-116346535D01*
X70158084Y-116386453D01*
X70164438Y-116398091D01*
X70169772Y-116407859D01*
X70164788Y-116477550D01*
X70122916Y-116533484D01*
X70057451Y-116557900D01*
X70022248Y-116555382D01*
X70017639Y-116554379D01*
X69982002Y-116540602D01*
X69926589Y-116508609D01*
X69926587Y-116508608D01*
X69926585Y-116508607D01*
X69833399Y-116483638D01*
X69799292Y-116474500D01*
X69799291Y-116474500D01*
X69667506Y-116474500D01*
X69537637Y-116509297D01*
X69510349Y-116508646D01*
X69478629Y-116513786D01*
X69414566Y-116485897D01*
X69375751Y-116427801D01*
X69374507Y-116357943D01*
X69388591Y-116325588D01*
X69394039Y-116316770D01*
X69400160Y-116307902D01*
X69400498Y-116307315D01*
X69400500Y-116307314D01*
X69408419Y-116293596D01*
X69410305Y-116290441D01*
X69416250Y-116280819D01*
X69418821Y-116275581D01*
X69466392Y-116193186D01*
X69500500Y-116065892D01*
X69500500Y-115934108D01*
X69466392Y-115806814D01*
X69463816Y-115802353D01*
X69463815Y-115802351D01*
X69463816Y-115802350D01*
X69463811Y-115802345D01*
X69429666Y-115743203D01*
X69427747Y-115739880D01*
X69421453Y-115728977D01*
X69400500Y-115692686D01*
X69311717Y-115603903D01*
X69299254Y-115589345D01*
X69287150Y-115572768D01*
X69263514Y-115507017D01*
X69279176Y-115438931D01*
X69283998Y-115430344D01*
X69304436Y-115403376D01*
X69307310Y-115400502D01*
X69307314Y-115400500D01*
X69400500Y-115307314D01*
X69466392Y-115193186D01*
X69500500Y-115065892D01*
X69500500Y-114934108D01*
X69466392Y-114806814D01*
X69400500Y-114692686D01*
X69307314Y-114599500D01*
X69307312Y-114599499D01*
X69307310Y-114599497D01*
X69239420Y-114560301D01*
X69193188Y-114533608D01*
X69129539Y-114516554D01*
X69065892Y-114499500D01*
X69065891Y-114499500D01*
X68934108Y-114499500D01*
X68806808Y-114533609D01*
X68806806Y-114533610D01*
X68692696Y-114599493D01*
X68692682Y-114599502D01*
X68692677Y-114599506D01*
X68599506Y-114692677D01*
X68599502Y-114692682D01*
X68599493Y-114692696D01*
X68533607Y-114806810D01*
X68533607Y-114806812D01*
X68529300Y-114822885D01*
X68529298Y-114822894D01*
X68526938Y-114831706D01*
X68499500Y-114934108D01*
X65079324Y-114934108D01*
X65075717Y-114930501D01*
X65010220Y-114892686D01*
X65010204Y-114892677D01*
X64961591Y-114864609D01*
X64897942Y-114847555D01*
X64834295Y-114830501D01*
X64834294Y-114830501D01*
X64702511Y-114830501D01*
X64575211Y-114864610D01*
X64575209Y-114864611D01*
X64461099Y-114930494D01*
X64461085Y-114930503D01*
X64461080Y-114930507D01*
X64367909Y-115023678D01*
X64367905Y-115023683D01*
X64367896Y-115023697D01*
X64302013Y-115137807D01*
X64302012Y-115137810D01*
X64302011Y-115137812D01*
X64302011Y-115137813D01*
X64298794Y-115149819D01*
X64287174Y-115193187D01*
X64267903Y-115265107D01*
X57205500Y-115265107D01*
X57205500Y-114124000D01*
X57225185Y-114056961D01*
X57277989Y-114011206D01*
X57329500Y-114000000D01*
X65465783Y-114000000D01*
X65500715Y-114005021D01*
X65514034Y-114008932D01*
X65572812Y-114046706D01*
X65601838Y-114110261D01*
X65601839Y-114110272D01*
X65603048Y-114118685D01*
X65600084Y-114168414D01*
X65580449Y-114241698D01*
X65580448Y-114241706D01*
X65580448Y-114373490D01*
X65587685Y-114400499D01*
X65614556Y-114500785D01*
X65647502Y-114557848D01*
X65680448Y-114614912D01*
X65773634Y-114708098D01*
X65872469Y-114765161D01*
X65883097Y-114771297D01*
X65887762Y-114773990D01*
X66015056Y-114808098D01*
X66015058Y-114808098D01*
X66146838Y-114808098D01*
X66146840Y-114808098D01*
X66274134Y-114773990D01*
X66388262Y-114708098D01*
X66481448Y-114614912D01*
X66547340Y-114500784D01*
X66581448Y-114373490D01*
X66581448Y-114241706D01*
X66563121Y-114173310D01*
X66558932Y-114138271D01*
X66559043Y-114133608D01*
X66559262Y-114124394D01*
X66580535Y-114057845D01*
X66634410Y-114013360D01*
X66642244Y-114010005D01*
X66691043Y-114000000D01*
X72016270Y-114000000D01*
X72018701Y-114000024D01*
X81981238Y-114195367D01*
X81981249Y-114195366D01*
X81981258Y-114195367D01*
X81994870Y-114195182D01*
X82004659Y-114194725D01*
X82018231Y-114193640D01*
X82134853Y-114180415D01*
X82134861Y-114180413D01*
X82134865Y-114180413D01*
X82141344Y-114179239D01*
X82161635Y-114175564D01*
X82180608Y-114170811D01*
X82206514Y-114162463D01*
X82310992Y-114120975D01*
X82335567Y-114109277D01*
X82352629Y-114099721D01*
X82369735Y-114088592D01*
X82375434Y-114084885D01*
X82375442Y-114084879D01*
X82465403Y-114017472D01*
X82486057Y-113999743D01*
X82500020Y-113986051D01*
X82518147Y-113965752D01*
X82587306Y-113877131D01*
X82602593Y-113854612D01*
X82612482Y-113837739D01*
X82612484Y-113837734D01*
X82613488Y-113836022D01*
X82664369Y-113788138D01*
X82733061Y-113775363D01*
X82797755Y-113801754D01*
X82837910Y-113858932D01*
X82842793Y-113901448D01*
X82844200Y-113901448D01*
X82844200Y-114054463D01*
X82872856Y-114198527D01*
X82872857Y-114198531D01*
X82872858Y-114198534D01*
X82872861Y-114198544D01*
X82872864Y-114198552D01*
X82872869Y-114198566D01*
X82929072Y-114334255D01*
X82929087Y-114334282D01*
X83010702Y-114456425D01*
X83114570Y-114560293D01*
X83114576Y-114560298D01*
X83114577Y-114560299D01*
X83236727Y-114641918D01*
X83236730Y-114641919D01*
X83236731Y-114641920D01*
X83372458Y-114698140D01*
X83495631Y-114722640D01*
X83513569Y-114726208D01*
X83515804Y-114726709D01*
X83516542Y-114726800D01*
X83663456Y-114726800D01*
X83667578Y-114726800D01*
X83675432Y-114724416D01*
X83807542Y-114698140D01*
X83943269Y-114641920D01*
X84065420Y-114560301D01*
X84091615Y-114534106D01*
X87499500Y-114534106D01*
X87499500Y-114665895D01*
X87514704Y-114722639D01*
X87514705Y-114722639D01*
X87514705Y-114722640D01*
X87533608Y-114793187D01*
X87566554Y-114850250D01*
X87599500Y-114907314D01*
X87692686Y-115000500D01*
X87692687Y-115000501D01*
X87692689Y-115000502D01*
X87732864Y-115023697D01*
X87791521Y-115057563D01*
X87805944Y-115065890D01*
X87806814Y-115066392D01*
X87934108Y-115100500D01*
X87934110Y-115100500D01*
X88065890Y-115100500D01*
X88065892Y-115100500D01*
X88193186Y-115066392D01*
X88307314Y-115000500D01*
X88400500Y-114907314D01*
X88466392Y-114793186D01*
X88466393Y-114793180D01*
X88469126Y-114786585D01*
X88477801Y-114769506D01*
X88485258Y-114757269D01*
X88536953Y-114710264D01*
X88605851Y-114698670D01*
X88607492Y-114698866D01*
X88662257Y-114719295D01*
X88668131Y-114723270D01*
X88668131Y-114723269D01*
X88691098Y-114738813D01*
X88693457Y-114739111D01*
X88705894Y-114745388D01*
X88755434Y-114773990D01*
X88788687Y-114793189D01*
X88788720Y-114793208D01*
X88788719Y-114793208D01*
X88789187Y-114793478D01*
X88789189Y-114793478D01*
X88789190Y-114793479D01*
X88916484Y-114827587D01*
X88916486Y-114827587D01*
X89048266Y-114827587D01*
X89048268Y-114827587D01*
X89175562Y-114793479D01*
X89289690Y-114727587D01*
X89292032Y-114725244D01*
X89320284Y-114704094D01*
X89334008Y-114696600D01*
X89402266Y-114681749D01*
X89404076Y-114681878D01*
X89462273Y-114701244D01*
X89468791Y-114705433D01*
X89489426Y-114722063D01*
X89499069Y-114731706D01*
X89613197Y-114797598D01*
X89740491Y-114831706D01*
X89740493Y-114831706D01*
X89872273Y-114831706D01*
X89872275Y-114831706D01*
X89999569Y-114797598D01*
X90113697Y-114731706D01*
X90206883Y-114638520D01*
X90272775Y-114524392D01*
X90306883Y-114397098D01*
X90306883Y-114265314D01*
X90272775Y-114138020D01*
X90206883Y-114023892D01*
X90117099Y-113934108D01*
X95399500Y-113934108D01*
X95399500Y-114065891D01*
X95411125Y-114109277D01*
X95433608Y-114193188D01*
X95447257Y-114216827D01*
X95451773Y-114224649D01*
X95499500Y-114307314D01*
X95592686Y-114400500D01*
X95706814Y-114466392D01*
X95834108Y-114500500D01*
X95834110Y-114500500D01*
X95965890Y-114500500D01*
X95965892Y-114500500D01*
X96093186Y-114466392D01*
X96207314Y-114400500D01*
X96300500Y-114307314D01*
X96366392Y-114193186D01*
X96400500Y-114065892D01*
X96400500Y-113934108D01*
X96366392Y-113806814D01*
X96366387Y-113806806D01*
X96341360Y-113763458D01*
X96300500Y-113692686D01*
X96244631Y-113636817D01*
X96223482Y-113608567D01*
X96216827Y-113596379D01*
X96201976Y-113528109D01*
X96226390Y-113462648D01*
X96231496Y-113455827D01*
X96268759Y-113422758D01*
X96307314Y-113400500D01*
X96400500Y-113307314D01*
X96466392Y-113193186D01*
X96500500Y-113065892D01*
X96500500Y-112934108D01*
X96466392Y-112806814D01*
X96466387Y-112806806D01*
X96432130Y-112747471D01*
X96400500Y-112692686D01*
X96307314Y-112599500D01*
X96215107Y-112546264D01*
X96193187Y-112533608D01*
X96093188Y-112506814D01*
X96089163Y-112505735D01*
X96089150Y-112505731D01*
X96065893Y-112499500D01*
X96065892Y-112499500D01*
X95934108Y-112499500D01*
X95806808Y-112533609D01*
X95806806Y-112533610D01*
X95692696Y-112599493D01*
X95692682Y-112599502D01*
X95692677Y-112599506D01*
X95599506Y-112692677D01*
X95599502Y-112692682D01*
X95599493Y-112692696D01*
X95533610Y-112806806D01*
X95533609Y-112806808D01*
X95533608Y-112806812D01*
X95499500Y-112934108D01*
X95499500Y-113065891D01*
X95533608Y-113193187D01*
X95541936Y-113207611D01*
X95557865Y-113235201D01*
X95557866Y-113235201D01*
X95599500Y-113307314D01*
X95599502Y-113307316D01*
X95655367Y-113363181D01*
X95676517Y-113391433D01*
X95682122Y-113401698D01*
X95683170Y-113403616D01*
X95698022Y-113471889D01*
X95673606Y-113537354D01*
X95673603Y-113537358D01*
X95668507Y-113544165D01*
X95631246Y-113577236D01*
X95592682Y-113599502D01*
X95592677Y-113599506D01*
X95499506Y-113692677D01*
X95499502Y-113692682D01*
X95499493Y-113692696D01*
X95433610Y-113806806D01*
X95433609Y-113806808D01*
X95430066Y-113820031D01*
X95399500Y-113934108D01*
X90117099Y-113934108D01*
X90113697Y-113930706D01*
X90056633Y-113897760D01*
X89999570Y-113864814D01*
X89911462Y-113841206D01*
X89911462Y-113841205D01*
X89872276Y-113830706D01*
X89872275Y-113830706D01*
X89740491Y-113830706D01*
X89613193Y-113864814D01*
X89499068Y-113930705D01*
X89499063Y-113930710D01*
X89499059Y-113930713D01*
X89496724Y-113933049D01*
X89468463Y-113954204D01*
X89454746Y-113961693D01*
X89386501Y-113976543D01*
X89384693Y-113976414D01*
X89326470Y-113957038D01*
X89319967Y-113952858D01*
X89299338Y-113936234D01*
X89289695Y-113926592D01*
X89289695Y-113926591D01*
X89289692Y-113926589D01*
X89289690Y-113926587D01*
X89232626Y-113893641D01*
X89175563Y-113860695D01*
X89102827Y-113841206D01*
X89102827Y-113841205D01*
X89102820Y-113841204D01*
X89097626Y-113839812D01*
X89065187Y-113825918D01*
X89060808Y-113823250D01*
X89055528Y-113820031D01*
X89008532Y-113768328D01*
X88996950Y-113699425D01*
X89024456Y-113635200D01*
X89031425Y-113626760D01*
X89058152Y-113602611D01*
X89062809Y-113599500D01*
X89145420Y-113544301D01*
X89249301Y-113440420D01*
X89330920Y-113318269D01*
X89387140Y-113182542D01*
X89415800Y-113038455D01*
X89415800Y-112891545D01*
X89387140Y-112747458D01*
X89330920Y-112611731D01*
X89330919Y-112611730D01*
X89330918Y-112611727D01*
X89249299Y-112489577D01*
X89249298Y-112489576D01*
X89249293Y-112489570D01*
X89145425Y-112385702D01*
X89023282Y-112304087D01*
X89023255Y-112304072D01*
X88978211Y-112285415D01*
X88962694Y-112272910D01*
X88887544Y-112247861D01*
X88887545Y-112247861D01*
X88887542Y-112247860D01*
X88887538Y-112247859D01*
X88887534Y-112247858D01*
X88887532Y-112247857D01*
X88887508Y-112247852D01*
X88743462Y-112219200D01*
X88743459Y-112219200D01*
X88743455Y-112219200D01*
X88596545Y-112219200D01*
X88596540Y-112219200D01*
X88596535Y-112219200D01*
X88452471Y-112247856D01*
X88452465Y-112247858D01*
X88452455Y-112247861D01*
X88452450Y-112247862D01*
X88452432Y-112247869D01*
X88316743Y-112304072D01*
X88316716Y-112304087D01*
X88194573Y-112385702D01*
X88090702Y-112489573D01*
X88009087Y-112611716D01*
X88009072Y-112611743D01*
X87952869Y-112747432D01*
X87952856Y-112747471D01*
X87924200Y-112891535D01*
X87924200Y-113038462D01*
X87952852Y-113182508D01*
X87952860Y-113182542D01*
X87952861Y-113182545D01*
X87963244Y-113207612D01*
X88009072Y-113318255D01*
X88009087Y-113318282D01*
X88090702Y-113440425D01*
X88194570Y-113544293D01*
X88194576Y-113544298D01*
X88194577Y-113544299D01*
X88316727Y-113625918D01*
X88316730Y-113625919D01*
X88316731Y-113625920D01*
X88452458Y-113682140D01*
X88505463Y-113692683D01*
X88575448Y-113706604D01*
X88611572Y-113719878D01*
X88619376Y-113724223D01*
X88651545Y-113733667D01*
X88697302Y-113786469D01*
X88707249Y-113855627D01*
X88697307Y-113889491D01*
X88694122Y-113896466D01*
X88669007Y-113932641D01*
X88581876Y-114019772D01*
X88581869Y-114019783D01*
X88515982Y-114133901D01*
X88513242Y-114140516D01*
X88504563Y-114157599D01*
X88497109Y-114169828D01*
X88445409Y-114216827D01*
X88376507Y-114228413D01*
X88376505Y-114228413D01*
X88374891Y-114228220D01*
X88320111Y-114207787D01*
X88291273Y-114188269D01*
X88288955Y-114187979D01*
X88276390Y-114181646D01*
X88274254Y-114180413D01*
X88209031Y-114142756D01*
X88193187Y-114133608D01*
X88121545Y-114114412D01*
X88065892Y-114099500D01*
X88065891Y-114099500D01*
X87934108Y-114099500D01*
X87806808Y-114133609D01*
X87806806Y-114133610D01*
X87692696Y-114199493D01*
X87692682Y-114199502D01*
X87692677Y-114199506D01*
X87599506Y-114292677D01*
X87599502Y-114292682D01*
X87599493Y-114292696D01*
X87533610Y-114406806D01*
X87533609Y-114406809D01*
X87517644Y-114466392D01*
X87499500Y-114534106D01*
X84091615Y-114534106D01*
X84169301Y-114456420D01*
X84250920Y-114334269D01*
X84307140Y-114198542D01*
X84335800Y-114054455D01*
X84335800Y-113907545D01*
X84307140Y-113763458D01*
X84250920Y-113627731D01*
X84250919Y-113627730D01*
X84250918Y-113627727D01*
X84169299Y-113505577D01*
X84169298Y-113505576D01*
X84169293Y-113505570D01*
X84065425Y-113401702D01*
X83943282Y-113320087D01*
X83943277Y-113320084D01*
X83943275Y-113320083D01*
X83943266Y-113320078D01*
X83938891Y-113318266D01*
X83912448Y-113307313D01*
X83832611Y-113274244D01*
X83832609Y-113274242D01*
X83807545Y-113263861D01*
X83807542Y-113263860D01*
X83807508Y-113263852D01*
X83663462Y-113235200D01*
X83663459Y-113235200D01*
X83663455Y-113235200D01*
X83516545Y-113235200D01*
X83516540Y-113235200D01*
X83516535Y-113235200D01*
X83372471Y-113263856D01*
X83372465Y-113263858D01*
X83372455Y-113263861D01*
X83372450Y-113263862D01*
X83372432Y-113263869D01*
X83236743Y-113320072D01*
X83236716Y-113320087D01*
X83114573Y-113401702D01*
X83010702Y-113505573D01*
X82929076Y-113627733D01*
X82928362Y-113628904D01*
X82928190Y-113629059D01*
X82927671Y-113629837D01*
X82927477Y-113629707D01*
X82876631Y-113675868D01*
X82807721Y-113687408D01*
X82743511Y-113659861D01*
X82704387Y-113601972D01*
X82699611Y-113547911D01*
X82700712Y-113539655D01*
X82700712Y-113539653D01*
X82703049Y-113522123D01*
X82704400Y-113508577D01*
X82705049Y-113498799D01*
X82705500Y-113485189D01*
X82705500Y-112376433D01*
X82725185Y-112309394D01*
X82777989Y-112263639D01*
X82847147Y-112253695D01*
X82910703Y-112282720D01*
X82932602Y-112307542D01*
X83010699Y-112424421D01*
X83010700Y-112424422D01*
X83010705Y-112424428D01*
X83114570Y-112528293D01*
X83114576Y-112528298D01*
X83114577Y-112528299D01*
X83236727Y-112609918D01*
X83236730Y-112609919D01*
X83236731Y-112609920D01*
X83372458Y-112666140D01*
X83505902Y-112692683D01*
X83516540Y-112694799D01*
X83516544Y-112694800D01*
X83516545Y-112694800D01*
X83663456Y-112694800D01*
X83663457Y-112694799D01*
X83807542Y-112666140D01*
X83943269Y-112609920D01*
X84065420Y-112528301D01*
X84169301Y-112424420D01*
X84250920Y-112302269D01*
X84304187Y-112173669D01*
X84315023Y-112153178D01*
X84326232Y-112136072D01*
X84379436Y-112090793D01*
X84382096Y-112089607D01*
X84440493Y-112079117D01*
X84446344Y-112079491D01*
X84470521Y-112083461D01*
X84534108Y-112100500D01*
X84534111Y-112100500D01*
X84665890Y-112100500D01*
X84665892Y-112100500D01*
X84793186Y-112066392D01*
X84907314Y-112000500D01*
X85000500Y-111907314D01*
X85066392Y-111793186D01*
X85100500Y-111665892D01*
X85100500Y-111534108D01*
X85073706Y-111434110D01*
X91499500Y-111434110D01*
X91499500Y-111565893D01*
X91512340Y-111613813D01*
X91533608Y-111693190D01*
X91555701Y-111731455D01*
X91555703Y-111731458D01*
X91599500Y-111807316D01*
X91692686Y-111900502D01*
X91806814Y-111966394D01*
X91934108Y-112000502D01*
X91934110Y-112000502D01*
X92065890Y-112000502D01*
X92065892Y-112000502D01*
X92193186Y-111966394D01*
X92307314Y-111900502D01*
X92400500Y-111807316D01*
X92466392Y-111693188D01*
X92500500Y-111565894D01*
X92500500Y-111534106D01*
X96499500Y-111534106D01*
X96499500Y-111665893D01*
X96506813Y-111693188D01*
X96506814Y-111693188D01*
X96517067Y-111731455D01*
X96533609Y-111793189D01*
X96541475Y-111806812D01*
X96541477Y-111806816D01*
X96541765Y-111807315D01*
X96599500Y-111907314D01*
X96692686Y-112000500D01*
X96692687Y-112000501D01*
X96692689Y-112000502D01*
X96791519Y-112057562D01*
X96791521Y-112057563D01*
X96805944Y-112065890D01*
X96806814Y-112066392D01*
X96934108Y-112100500D01*
X96934110Y-112100500D01*
X97065890Y-112100500D01*
X97065892Y-112100500D01*
X97193186Y-112066392D01*
X97307314Y-112000500D01*
X97400500Y-111907314D01*
X97466392Y-111793186D01*
X97500500Y-111665892D01*
X97500500Y-111534108D01*
X97466392Y-111406814D01*
X97466387Y-111406806D01*
X97435449Y-111353220D01*
X97400500Y-111292686D01*
X97307314Y-111199500D01*
X97250250Y-111166554D01*
X97193187Y-111133608D01*
X97129539Y-111116554D01*
X97065892Y-111099500D01*
X97065891Y-111099500D01*
X96934108Y-111099500D01*
X96806808Y-111133609D01*
X96806806Y-111133610D01*
X96692696Y-111199493D01*
X96692682Y-111199502D01*
X96692677Y-111199506D01*
X96599506Y-111292677D01*
X96599502Y-111292682D01*
X96599493Y-111292696D01*
X96533610Y-111406806D01*
X96533609Y-111406809D01*
X96533608Y-111406811D01*
X96533608Y-111406812D01*
X96526294Y-111434110D01*
X96516649Y-111470106D01*
X96499500Y-111534106D01*
X92500500Y-111534106D01*
X92500500Y-111434110D01*
X92466392Y-111306816D01*
X92466387Y-111306808D01*
X92444798Y-111269415D01*
X92400500Y-111192688D01*
X92307314Y-111099502D01*
X92249964Y-111066391D01*
X92193187Y-111033610D01*
X92129539Y-111016556D01*
X92065892Y-110999502D01*
X92065891Y-110999502D01*
X91934108Y-110999502D01*
X91806808Y-111033611D01*
X91806806Y-111033612D01*
X91692696Y-111099495D01*
X91692682Y-111099504D01*
X91692677Y-111099508D01*
X91599506Y-111192679D01*
X91599502Y-111192684D01*
X91599493Y-111192698D01*
X91533610Y-111306808D01*
X91533609Y-111306810D01*
X91524889Y-111339355D01*
X91499500Y-111434110D01*
X85073706Y-111434110D01*
X85066392Y-111406814D01*
X85066387Y-111406806D01*
X85035449Y-111353220D01*
X85000500Y-111292686D01*
X84907314Y-111199500D01*
X84850250Y-111166554D01*
X84793187Y-111133608D01*
X84729539Y-111116554D01*
X84665892Y-111099500D01*
X84665891Y-111099500D01*
X84534108Y-111099500D01*
X84406808Y-111133609D01*
X84406806Y-111133610D01*
X84292696Y-111199493D01*
X84292682Y-111199502D01*
X84292677Y-111199506D01*
X84199514Y-111292669D01*
X84199498Y-111292687D01*
X84196096Y-111296770D01*
X84195782Y-111296509D01*
X84185267Y-111308759D01*
X84172209Y-111321208D01*
X84110104Y-111353220D01*
X84045039Y-111348270D01*
X84034497Y-111344515D01*
X84007213Y-111330806D01*
X83943269Y-111288080D01*
X83943266Y-111288078D01*
X83943258Y-111288074D01*
X83943255Y-111288073D01*
X83898211Y-111269415D01*
X83882694Y-111256910D01*
X83807544Y-111231861D01*
X83807545Y-111231861D01*
X83807542Y-111231860D01*
X83807538Y-111231859D01*
X83807534Y-111231858D01*
X83807532Y-111231857D01*
X83807508Y-111231852D01*
X83663462Y-111203200D01*
X83663459Y-111203200D01*
X83663455Y-111203200D01*
X83516545Y-111203200D01*
X83516540Y-111203200D01*
X83516535Y-111203200D01*
X83372471Y-111231856D01*
X83372465Y-111231858D01*
X83372455Y-111231861D01*
X83372450Y-111231862D01*
X83372432Y-111231869D01*
X83236743Y-111288072D01*
X83236716Y-111288087D01*
X83114573Y-111369702D01*
X83010705Y-111473570D01*
X83010700Y-111473576D01*
X83010693Y-111473586D01*
X82932601Y-111590457D01*
X82878989Y-111635261D01*
X82809664Y-111643968D01*
X82746637Y-111613813D01*
X82709918Y-111554369D01*
X82705500Y-111521565D01*
X82705500Y-110534108D01*
X93299500Y-110534108D01*
X93299500Y-110665891D01*
X93316554Y-110729539D01*
X93333608Y-110793188D01*
X93366554Y-110850250D01*
X93399500Y-110907314D01*
X93492686Y-111000500D01*
X93606814Y-111066392D01*
X93734108Y-111100500D01*
X93734110Y-111100500D01*
X93865890Y-111100500D01*
X93865892Y-111100500D01*
X93993186Y-111066392D01*
X94107314Y-111000500D01*
X94200500Y-110907314D01*
X94266392Y-110793186D01*
X94300500Y-110665892D01*
X94300500Y-110534108D01*
X94266392Y-110406814D01*
X94266387Y-110406806D01*
X94257563Y-110391521D01*
X94200500Y-110292686D01*
X94107314Y-110199500D01*
X94050250Y-110166554D01*
X93993187Y-110133608D01*
X93929539Y-110116554D01*
X93865892Y-110099500D01*
X93865891Y-110099500D01*
X93734108Y-110099500D01*
X93606808Y-110133609D01*
X93606806Y-110133610D01*
X93492696Y-110199493D01*
X93492682Y-110199502D01*
X93492677Y-110199506D01*
X93399506Y-110292677D01*
X93399502Y-110292682D01*
X93399493Y-110292696D01*
X93333610Y-110406806D01*
X93333609Y-110406808D01*
X93333608Y-110406812D01*
X93299500Y-110534108D01*
X82705500Y-110534108D01*
X82705500Y-110124000D01*
X82725185Y-110056961D01*
X82777989Y-110011206D01*
X82829500Y-110000000D01*
X88000000Y-110000000D01*
X88000000Y-109974108D01*
X100499500Y-109974108D01*
X100499500Y-110105892D01*
X100516554Y-110169539D01*
X100533608Y-110233187D01*
X100566554Y-110290250D01*
X100599500Y-110347314D01*
X100692686Y-110440500D01*
X100806814Y-110506392D01*
X100934108Y-110540500D01*
X100934110Y-110540500D01*
X101065890Y-110540500D01*
X101065892Y-110540500D01*
X101193186Y-110506392D01*
X101307314Y-110440500D01*
X101396106Y-110351707D01*
X101410654Y-110339254D01*
X101427233Y-110327149D01*
X101492984Y-110303514D01*
X101561069Y-110319176D01*
X101569654Y-110323997D01*
X101596620Y-110344434D01*
X101599499Y-110347313D01*
X101599500Y-110347314D01*
X101692686Y-110440500D01*
X101806814Y-110506392D01*
X101934108Y-110540500D01*
X101934110Y-110540500D01*
X102065890Y-110540500D01*
X102065892Y-110540500D01*
X102193186Y-110506392D01*
X102307314Y-110440500D01*
X102400500Y-110347314D01*
X102466392Y-110233186D01*
X102500500Y-110105892D01*
X102500500Y-109974108D01*
X102466392Y-109846814D01*
X102400500Y-109732686D01*
X102307314Y-109639500D01*
X102227096Y-109593186D01*
X102227096Y-109593185D01*
X102227094Y-109593185D01*
X102193187Y-109573608D01*
X102129539Y-109556554D01*
X102065892Y-109539500D01*
X102065891Y-109539500D01*
X101934108Y-109539500D01*
X101806808Y-109573609D01*
X101806806Y-109573610D01*
X101692696Y-109639493D01*
X101692682Y-109639502D01*
X101603897Y-109728287D01*
X101589332Y-109740755D01*
X101572761Y-109752853D01*
X101507009Y-109776484D01*
X101438925Y-109760819D01*
X101430332Y-109755993D01*
X101405727Y-109733196D01*
X101403369Y-109735555D01*
X101307316Y-109639502D01*
X101307314Y-109639500D01*
X101227096Y-109593186D01*
X101227096Y-109593185D01*
X101227094Y-109593185D01*
X101193187Y-109573608D01*
X101129539Y-109556554D01*
X101065892Y-109539500D01*
X101065891Y-109539500D01*
X100934108Y-109539500D01*
X100806808Y-109573609D01*
X100806806Y-109573610D01*
X100692696Y-109639493D01*
X100692682Y-109639502D01*
X100692677Y-109639506D01*
X100599506Y-109732677D01*
X100599502Y-109732682D01*
X100599493Y-109732696D01*
X100533607Y-109846810D01*
X100519566Y-109899217D01*
X100519557Y-109899250D01*
X100519223Y-109900500D01*
X100499500Y-109974108D01*
X88000000Y-109974108D01*
X88000000Y-109951877D01*
X88005023Y-109916943D01*
X88010324Y-109898889D01*
X88043727Y-109844084D01*
X88051269Y-109836892D01*
X88074836Y-109819250D01*
X88107314Y-109800500D01*
X88200500Y-109707314D01*
X88266392Y-109593186D01*
X88300500Y-109465892D01*
X88300500Y-109334108D01*
X88266392Y-109206814D01*
X88200500Y-109092686D01*
X88107314Y-108999500D01*
X88093799Y-108991697D01*
X88077434Y-108982248D01*
X88049697Y-108960434D01*
X88036708Y-108946812D01*
X88005950Y-108890476D01*
X88003494Y-108880350D01*
X88000000Y-108851122D01*
X88000000Y-108309108D01*
X91999500Y-108309108D01*
X91999500Y-108440891D01*
X92013310Y-108492433D01*
X92033608Y-108568188D01*
X92051687Y-108599500D01*
X92099500Y-108682314D01*
X92192686Y-108775500D01*
X92306814Y-108841392D01*
X92434108Y-108875500D01*
X92434110Y-108875500D01*
X92565890Y-108875500D01*
X92565892Y-108875500D01*
X92693186Y-108841392D01*
X92807314Y-108775500D01*
X92900500Y-108682314D01*
X92966392Y-108568186D01*
X93000500Y-108440892D01*
X93000500Y-108309108D01*
X92966392Y-108181814D01*
X92966391Y-108181812D01*
X92966391Y-108181811D01*
X92952544Y-108157829D01*
X92952543Y-108157827D01*
X92907562Y-108079917D01*
X92907561Y-108079916D01*
X92905021Y-108075517D01*
X92905026Y-108075514D01*
X92905008Y-108075495D01*
X92900500Y-108067686D01*
X92858854Y-108026040D01*
X94145468Y-108026040D01*
X94145468Y-108026044D01*
X94145468Y-108157828D01*
X94151895Y-108181814D01*
X94179576Y-108285123D01*
X94212522Y-108342186D01*
X94245468Y-108399250D01*
X94338654Y-108492436D01*
X94452782Y-108558328D01*
X94580076Y-108592436D01*
X94580078Y-108592436D01*
X94711858Y-108592436D01*
X94711860Y-108592436D01*
X94839154Y-108558328D01*
X94953282Y-108492436D01*
X95046468Y-108399250D01*
X95112360Y-108285122D01*
X95146468Y-108157828D01*
X95146468Y-108026044D01*
X95112360Y-107898750D01*
X95112355Y-107898742D01*
X95098359Y-107874500D01*
X95046468Y-107784622D01*
X94953282Y-107691436D01*
X94896218Y-107658490D01*
X94839155Y-107625544D01*
X94769252Y-107606814D01*
X94711860Y-107591436D01*
X94711859Y-107591436D01*
X94580076Y-107591436D01*
X94452776Y-107625545D01*
X94452774Y-107625546D01*
X94338664Y-107691429D01*
X94338650Y-107691438D01*
X94338645Y-107691442D01*
X94245474Y-107784613D01*
X94245470Y-107784618D01*
X94245461Y-107784632D01*
X94179578Y-107898742D01*
X94179577Y-107898745D01*
X94179576Y-107898747D01*
X94179576Y-107898748D01*
X94154272Y-107993186D01*
X94154271Y-107993185D01*
X94145468Y-108026040D01*
X92858854Y-108026040D01*
X92807314Y-107974500D01*
X92750250Y-107941554D01*
X92693187Y-107908608D01*
X92629539Y-107891554D01*
X92565892Y-107874500D01*
X92565891Y-107874500D01*
X92434108Y-107874500D01*
X92306808Y-107908609D01*
X92306806Y-107908610D01*
X92192696Y-107974493D01*
X92192682Y-107974502D01*
X92192677Y-107974506D01*
X92099506Y-108067677D01*
X92099502Y-108067682D01*
X92099493Y-108067696D01*
X92033610Y-108181806D01*
X92033609Y-108181808D01*
X92033608Y-108181812D01*
X91999500Y-108309108D01*
X88000000Y-108309108D01*
X88000000Y-106134108D01*
X96499500Y-106134108D01*
X96499500Y-106265891D01*
X96533608Y-106393186D01*
X96533609Y-106393190D01*
X96557233Y-106434108D01*
X96557234Y-106434108D01*
X96599500Y-106507314D01*
X96692686Y-106600500D01*
X96806814Y-106666392D01*
X96934108Y-106700500D01*
X96934110Y-106700500D01*
X97065890Y-106700500D01*
X97065892Y-106700500D01*
X97193186Y-106666392D01*
X97307314Y-106600500D01*
X97400500Y-106507314D01*
X97466392Y-106393186D01*
X97500500Y-106265892D01*
X97500500Y-106134108D01*
X97466392Y-106006814D01*
X97466387Y-106006806D01*
X97457563Y-105991521D01*
X97400500Y-105892686D01*
X97307314Y-105799500D01*
X97250250Y-105766554D01*
X97193187Y-105733608D01*
X97129539Y-105716554D01*
X97065892Y-105699500D01*
X97065891Y-105699500D01*
X96934108Y-105699500D01*
X96806808Y-105733609D01*
X96806806Y-105733610D01*
X96692696Y-105799493D01*
X96692682Y-105799502D01*
X96692677Y-105799506D01*
X96599506Y-105892677D01*
X96599502Y-105892682D01*
X96599493Y-105892696D01*
X96533610Y-106006806D01*
X96533609Y-106006808D01*
X96533608Y-106006812D01*
X96499500Y-106134108D01*
X88000000Y-106134108D01*
X88000000Y-104934106D01*
X88549500Y-104934106D01*
X88549500Y-105065893D01*
X88558504Y-105099499D01*
X88558505Y-105099499D01*
X88583609Y-105193190D01*
X88587253Y-105199501D01*
X88587254Y-105199501D01*
X88649500Y-105307314D01*
X88742686Y-105400500D01*
X88856814Y-105466392D01*
X88984108Y-105500500D01*
X88984110Y-105500500D01*
X89115890Y-105500500D01*
X89115892Y-105500500D01*
X89243186Y-105466392D01*
X89357314Y-105400500D01*
X89446106Y-105311707D01*
X89460654Y-105299254D01*
X89477233Y-105287149D01*
X89542984Y-105263514D01*
X89611069Y-105279176D01*
X89619654Y-105283997D01*
X89646620Y-105304434D01*
X89649499Y-105307313D01*
X89649500Y-105307314D01*
X89742686Y-105400500D01*
X89856814Y-105466392D01*
X89984108Y-105500500D01*
X89984110Y-105500500D01*
X90115890Y-105500500D01*
X90115892Y-105500500D01*
X90243186Y-105466392D01*
X90357314Y-105400500D01*
X90450500Y-105307314D01*
X90516392Y-105193186D01*
X90550500Y-105065892D01*
X90550500Y-104934108D01*
X90516392Y-104806814D01*
X90516387Y-104806806D01*
X90507563Y-104791521D01*
X90450500Y-104692686D01*
X90357314Y-104599500D01*
X90299104Y-104565892D01*
X90299104Y-104565891D01*
X90299101Y-104565891D01*
X90243187Y-104533608D01*
X90179539Y-104516554D01*
X90115892Y-104499500D01*
X90115891Y-104499500D01*
X89984108Y-104499500D01*
X89856808Y-104533609D01*
X89856806Y-104533610D01*
X89742696Y-104599493D01*
X89742682Y-104599502D01*
X89653897Y-104688287D01*
X89639332Y-104700755D01*
X89622761Y-104712853D01*
X89557009Y-104736484D01*
X89488925Y-104720819D01*
X89480332Y-104715993D01*
X89455727Y-104693196D01*
X89453369Y-104695555D01*
X89357315Y-104599501D01*
X89357314Y-104599500D01*
X89299104Y-104565892D01*
X89299104Y-104565891D01*
X89299101Y-104565891D01*
X89243187Y-104533608D01*
X89179539Y-104516554D01*
X89115892Y-104499500D01*
X89115891Y-104499500D01*
X88984108Y-104499500D01*
X88856808Y-104533609D01*
X88856806Y-104533610D01*
X88742696Y-104599493D01*
X88742682Y-104599502D01*
X88742677Y-104599506D01*
X88649506Y-104692677D01*
X88649502Y-104692682D01*
X88649493Y-104692696D01*
X88583610Y-104806806D01*
X88583609Y-104806809D01*
X88583608Y-104806811D01*
X88583608Y-104806812D01*
X88567644Y-104866391D01*
X88567644Y-104866392D01*
X88549500Y-104934106D01*
X88000000Y-104934106D01*
X88000000Y-104334108D01*
X99499500Y-104334108D01*
X99499500Y-104465891D01*
X99508505Y-104499500D01*
X99533608Y-104593188D01*
X99537253Y-104599501D01*
X99566554Y-104650250D01*
X99599500Y-104707314D01*
X99692686Y-104800500D01*
X99806814Y-104866392D01*
X99934108Y-104900500D01*
X99934110Y-104900500D01*
X100065890Y-104900500D01*
X100065892Y-104900500D01*
X100193186Y-104866392D01*
X100307314Y-104800500D01*
X100400500Y-104707314D01*
X100466392Y-104593186D01*
X100500500Y-104465892D01*
X100500500Y-104334108D01*
X100466392Y-104206814D01*
X100466387Y-104206806D01*
X100457563Y-104191521D01*
X100400500Y-104092686D01*
X100307314Y-103999500D01*
X100249970Y-103966392D01*
X100249970Y-103966391D01*
X100249967Y-103966391D01*
X100193187Y-103933608D01*
X100129539Y-103916554D01*
X100065892Y-103899500D01*
X100065891Y-103899500D01*
X99934108Y-103899500D01*
X99806808Y-103933609D01*
X99806806Y-103933610D01*
X99692696Y-103999493D01*
X99692682Y-103999502D01*
X99692677Y-103999506D01*
X99599506Y-104092677D01*
X99599502Y-104092682D01*
X99599493Y-104092696D01*
X99533610Y-104206806D01*
X99533609Y-104206808D01*
X99533608Y-104206812D01*
X99499500Y-104334108D01*
X88000000Y-104334108D01*
X88000000Y-101141829D01*
X88005023Y-101106893D01*
X88009427Y-101091895D01*
X88047172Y-101033144D01*
X88048541Y-101031957D01*
X88103420Y-101004477D01*
X88110979Y-101002833D01*
X88137332Y-101000000D01*
X102858170Y-101000000D01*
X102893106Y-101005023D01*
G37*
G04 #@! TD.AperFunction*
G04 #@! TA.AperFunction,Conductor*
G36*
X48504808Y-99000633D02*
G01*
X48619753Y-99015765D01*
X48638408Y-99020764D01*
X48740999Y-99063258D01*
X48757728Y-99072917D01*
X48845824Y-99140516D01*
X48859483Y-99154175D01*
X48927082Y-99242271D01*
X48936741Y-99259001D01*
X48979234Y-99361588D01*
X48984234Y-99380248D01*
X48999367Y-99495191D01*
X49000000Y-99504850D01*
X49000000Y-111000000D01*
X50771993Y-111000000D01*
X50808994Y-111009915D01*
X50826109Y-111019797D01*
X50826117Y-111019800D01*
X50883402Y-111035149D01*
X50940688Y-111050499D01*
X50940689Y-111050500D01*
X50940691Y-111050500D01*
X51059311Y-111050500D01*
X51059311Y-111050499D01*
X51173886Y-111019799D01*
X51173888Y-111019797D01*
X51173890Y-111019797D01*
X51191006Y-111009915D01*
X51228007Y-111000000D01*
X58000000Y-111000000D01*
X58000000Y-109540688D01*
X59149500Y-109540688D01*
X59149500Y-109659311D01*
X59180199Y-109773882D01*
X59180201Y-109773887D01*
X59239508Y-109876609D01*
X59239509Y-109876610D01*
X59239511Y-109876613D01*
X59323387Y-109960489D01*
X59426114Y-110019799D01*
X59426115Y-110019799D01*
X59426117Y-110019800D01*
X59458666Y-110028522D01*
X59503599Y-110063001D01*
X59510991Y-110119153D01*
X59476512Y-110164086D01*
X59458666Y-110171478D01*
X59426117Y-110180199D01*
X59426112Y-110180201D01*
X59323390Y-110239508D01*
X59239508Y-110323390D01*
X59180201Y-110426112D01*
X59180199Y-110426117D01*
X59149500Y-110540688D01*
X59149500Y-110659311D01*
X59180199Y-110773882D01*
X59180201Y-110773887D01*
X59239508Y-110876609D01*
X59239509Y-110876610D01*
X59239511Y-110876613D01*
X59323387Y-110960489D01*
X59323389Y-110960490D01*
X59323390Y-110960491D01*
X59426112Y-111019798D01*
X59426114Y-111019799D01*
X59426115Y-111019799D01*
X59426117Y-111019800D01*
X59483402Y-111035149D01*
X59540688Y-111050499D01*
X59540689Y-111050500D01*
X59540691Y-111050500D01*
X59659311Y-111050500D01*
X59659311Y-111050499D01*
X59773886Y-111019799D01*
X59876613Y-110960489D01*
X59960489Y-110876613D01*
X60019799Y-110773886D01*
X60028522Y-110741333D01*
X60063000Y-110696400D01*
X60119153Y-110689008D01*
X60164086Y-110723486D01*
X60171478Y-110741333D01*
X60180199Y-110773882D01*
X60180201Y-110773887D01*
X60239508Y-110876609D01*
X60239509Y-110876610D01*
X60239511Y-110876613D01*
X60323387Y-110960489D01*
X60323389Y-110960490D01*
X60323390Y-110960491D01*
X60426112Y-111019798D01*
X60426114Y-111019799D01*
X60426115Y-111019799D01*
X60426117Y-111019800D01*
X60483402Y-111035149D01*
X60540688Y-111050499D01*
X60540689Y-111050500D01*
X60540691Y-111050500D01*
X60659311Y-111050500D01*
X60659311Y-111050499D01*
X60773886Y-111019799D01*
X60876613Y-110960489D01*
X60960489Y-110876613D01*
X61019799Y-110773886D01*
X61028522Y-110741333D01*
X61063000Y-110696400D01*
X61119153Y-110689008D01*
X61164086Y-110723486D01*
X61171478Y-110741333D01*
X61180199Y-110773882D01*
X61180201Y-110773887D01*
X61239508Y-110876609D01*
X61239509Y-110876610D01*
X61239511Y-110876613D01*
X61323387Y-110960489D01*
X61323389Y-110960490D01*
X61323390Y-110960491D01*
X61426112Y-111019798D01*
X61426114Y-111019799D01*
X61426115Y-111019799D01*
X61426117Y-111019800D01*
X61483402Y-111035149D01*
X61540688Y-111050499D01*
X61540689Y-111050500D01*
X61540691Y-111050500D01*
X61659311Y-111050500D01*
X61659311Y-111050499D01*
X61773886Y-111019799D01*
X61876613Y-110960489D01*
X61960489Y-110876613D01*
X62019799Y-110773886D01*
X62050499Y-110659311D01*
X62050500Y-110659311D01*
X62050500Y-110540689D01*
X62050499Y-110540688D01*
X62019800Y-110426117D01*
X62019798Y-110426112D01*
X61960491Y-110323390D01*
X61960490Y-110323389D01*
X61960489Y-110323387D01*
X61876613Y-110239511D01*
X61876610Y-110239509D01*
X61876609Y-110239508D01*
X61773887Y-110180201D01*
X61773882Y-110180199D01*
X61741333Y-110171478D01*
X61696400Y-110137000D01*
X61689008Y-110080847D01*
X61723486Y-110035914D01*
X61741333Y-110028522D01*
X61773882Y-110019800D01*
X61773881Y-110019800D01*
X61773886Y-110019799D01*
X61876613Y-109960489D01*
X61960489Y-109876613D01*
X62019799Y-109773886D01*
X62050499Y-109659311D01*
X62050500Y-109659311D01*
X62050500Y-109540689D01*
X62050499Y-109540688D01*
X62019800Y-109426117D01*
X62019798Y-109426112D01*
X61960491Y-109323390D01*
X61960490Y-109323389D01*
X61960489Y-109323387D01*
X61876613Y-109239511D01*
X61876610Y-109239509D01*
X61876609Y-109239508D01*
X61773887Y-109180201D01*
X61773882Y-109180199D01*
X61659311Y-109149500D01*
X61659309Y-109149500D01*
X61540691Y-109149500D01*
X61540689Y-109149500D01*
X61426117Y-109180199D01*
X61426112Y-109180201D01*
X61323390Y-109239508D01*
X61239508Y-109323390D01*
X61180201Y-109426112D01*
X61180199Y-109426117D01*
X61171478Y-109458666D01*
X61136999Y-109503599D01*
X61080847Y-109510991D01*
X61035914Y-109476512D01*
X61028522Y-109458666D01*
X61019800Y-109426117D01*
X61019798Y-109426112D01*
X60960491Y-109323390D01*
X60960490Y-109323389D01*
X60960489Y-109323387D01*
X60876613Y-109239511D01*
X60876610Y-109239509D01*
X60876609Y-109239508D01*
X60773887Y-109180201D01*
X60773882Y-109180199D01*
X60659311Y-109149500D01*
X60659309Y-109149500D01*
X60540691Y-109149500D01*
X60540689Y-109149500D01*
X60426117Y-109180199D01*
X60426112Y-109180201D01*
X60323390Y-109239508D01*
X60239508Y-109323390D01*
X60180201Y-109426112D01*
X60180199Y-109426117D01*
X60171478Y-109458666D01*
X60136999Y-109503599D01*
X60080847Y-109510991D01*
X60035914Y-109476512D01*
X60028522Y-109458666D01*
X60019800Y-109426117D01*
X60019798Y-109426112D01*
X59960491Y-109323390D01*
X59960490Y-109323389D01*
X59960489Y-109323387D01*
X59876613Y-109239511D01*
X59876610Y-109239509D01*
X59876609Y-109239508D01*
X59773887Y-109180201D01*
X59773882Y-109180199D01*
X59659311Y-109149500D01*
X59659309Y-109149500D01*
X59540691Y-109149500D01*
X59540689Y-109149500D01*
X59426117Y-109180199D01*
X59426112Y-109180201D01*
X59323390Y-109239508D01*
X59239508Y-109323390D01*
X59180201Y-109426112D01*
X59180199Y-109426117D01*
X59149500Y-109540688D01*
X58000000Y-109540688D01*
X58000000Y-108540688D01*
X65149500Y-108540688D01*
X65149500Y-108659311D01*
X65180199Y-108773882D01*
X65180201Y-108773887D01*
X65239508Y-108876609D01*
X65239509Y-108876610D01*
X65239511Y-108876613D01*
X65323387Y-108960489D01*
X65323389Y-108960490D01*
X65323390Y-108960491D01*
X65424995Y-109019153D01*
X65426114Y-109019799D01*
X65426115Y-109019799D01*
X65426117Y-109019800D01*
X65458666Y-109028522D01*
X65503599Y-109063001D01*
X65510991Y-109119153D01*
X65476512Y-109164086D01*
X65458666Y-109171478D01*
X65426117Y-109180199D01*
X65426112Y-109180201D01*
X65323390Y-109239508D01*
X65239508Y-109323390D01*
X65180201Y-109426112D01*
X65180199Y-109426117D01*
X65149500Y-109540688D01*
X65149500Y-109659311D01*
X65180199Y-109773882D01*
X65180201Y-109773887D01*
X65239508Y-109876609D01*
X65239509Y-109876610D01*
X65239511Y-109876613D01*
X65323387Y-109960489D01*
X65426114Y-110019799D01*
X65426115Y-110019799D01*
X65426117Y-110019800D01*
X65458666Y-110028522D01*
X65503599Y-110063001D01*
X65510991Y-110119153D01*
X65476512Y-110164086D01*
X65458666Y-110171478D01*
X65426117Y-110180199D01*
X65426112Y-110180201D01*
X65323390Y-110239508D01*
X65239508Y-110323390D01*
X65180201Y-110426112D01*
X65180199Y-110426117D01*
X65149500Y-110540688D01*
X65149500Y-110659311D01*
X65180199Y-110773882D01*
X65180201Y-110773887D01*
X65239508Y-110876609D01*
X65239509Y-110876610D01*
X65239511Y-110876613D01*
X65323387Y-110960489D01*
X65323389Y-110960490D01*
X65323390Y-110960491D01*
X65426112Y-111019798D01*
X65426114Y-111019799D01*
X65426115Y-111019799D01*
X65426117Y-111019800D01*
X65483402Y-111035149D01*
X65540688Y-111050499D01*
X65540689Y-111050500D01*
X65540691Y-111050500D01*
X65659311Y-111050500D01*
X65659311Y-111050499D01*
X65773886Y-111019799D01*
X65876613Y-110960489D01*
X65960489Y-110876613D01*
X66019799Y-110773886D01*
X66050499Y-110659311D01*
X66050500Y-110659311D01*
X66050500Y-110540689D01*
X66050499Y-110540688D01*
X66019800Y-110426117D01*
X66019798Y-110426112D01*
X65960491Y-110323390D01*
X65960490Y-110323389D01*
X65960489Y-110323387D01*
X65876613Y-110239511D01*
X65876610Y-110239509D01*
X65876609Y-110239508D01*
X65773887Y-110180201D01*
X65773882Y-110180199D01*
X65741333Y-110171478D01*
X65696400Y-110137000D01*
X65689008Y-110080847D01*
X65723486Y-110035914D01*
X65741333Y-110028522D01*
X65773882Y-110019800D01*
X65773881Y-110019800D01*
X65773886Y-110019799D01*
X65876613Y-109960489D01*
X65960489Y-109876613D01*
X66019799Y-109773886D01*
X66050499Y-109659311D01*
X66050500Y-109659311D01*
X66050500Y-109540689D01*
X66050499Y-109540688D01*
X66019800Y-109426117D01*
X66019798Y-109426112D01*
X65960491Y-109323390D01*
X65960490Y-109323389D01*
X65960489Y-109323387D01*
X65876613Y-109239511D01*
X65876610Y-109239509D01*
X65876609Y-109239508D01*
X65773887Y-109180201D01*
X65773882Y-109180199D01*
X65741333Y-109171478D01*
X65696400Y-109137000D01*
X65689008Y-109080847D01*
X65723486Y-109035914D01*
X65741333Y-109028522D01*
X65773882Y-109019800D01*
X65773881Y-109019800D01*
X65773886Y-109019799D01*
X65876613Y-108960489D01*
X65960489Y-108876613D01*
X66019799Y-108773886D01*
X66050499Y-108659311D01*
X66050500Y-108659311D01*
X66050500Y-108540689D01*
X66050499Y-108540688D01*
X66019800Y-108426117D01*
X66019798Y-108426112D01*
X65960491Y-108323390D01*
X65960490Y-108323389D01*
X65960489Y-108323387D01*
X65876613Y-108239511D01*
X65876610Y-108239509D01*
X65876609Y-108239508D01*
X65773887Y-108180201D01*
X65773882Y-108180199D01*
X65659311Y-108149500D01*
X65659309Y-108149500D01*
X65540691Y-108149500D01*
X65540689Y-108149500D01*
X65426117Y-108180199D01*
X65426112Y-108180201D01*
X65323390Y-108239508D01*
X65239508Y-108323390D01*
X65180201Y-108426112D01*
X65180199Y-108426117D01*
X65149500Y-108540688D01*
X58000000Y-108540688D01*
X58000000Y-108504850D01*
X58000633Y-108495191D01*
X58007808Y-108440689D01*
X58015766Y-108380244D01*
X58020763Y-108361593D01*
X58063260Y-108258996D01*
X58072914Y-108242274D01*
X58140520Y-108154170D01*
X58154170Y-108140520D01*
X58242274Y-108072914D01*
X58258996Y-108063260D01*
X58361593Y-108020763D01*
X58380244Y-108015766D01*
X58495192Y-108000633D01*
X58504851Y-108000000D01*
X71688854Y-108000000D01*
X71741180Y-108021674D01*
X71762854Y-108074000D01*
X71741180Y-108126326D01*
X71725856Y-108138085D01*
X71723390Y-108139508D01*
X71639508Y-108223390D01*
X71580201Y-108326112D01*
X71580199Y-108326117D01*
X71549500Y-108440688D01*
X71549500Y-108559311D01*
X71580199Y-108673882D01*
X71580201Y-108673887D01*
X71639508Y-108776609D01*
X71639509Y-108776610D01*
X71639511Y-108776613D01*
X71723387Y-108860489D01*
X71826114Y-108919799D01*
X71826115Y-108919799D01*
X71826117Y-108919800D01*
X71858666Y-108928522D01*
X71903599Y-108963001D01*
X71910991Y-109019153D01*
X71876512Y-109064086D01*
X71858666Y-109071478D01*
X71826117Y-109080199D01*
X71826112Y-109080201D01*
X71723390Y-109139508D01*
X71639508Y-109223390D01*
X71580201Y-109326112D01*
X71580199Y-109326117D01*
X71549500Y-109440688D01*
X71549500Y-109559311D01*
X71580199Y-109673882D01*
X71580201Y-109673887D01*
X71639508Y-109776609D01*
X71639509Y-109776610D01*
X71639511Y-109776613D01*
X71723387Y-109860489D01*
X71826114Y-109919799D01*
X71826115Y-109919799D01*
X71826117Y-109919800D01*
X71883402Y-109935149D01*
X71940688Y-109950499D01*
X71940689Y-109950500D01*
X71940691Y-109950500D01*
X72059311Y-109950500D01*
X72059311Y-109950499D01*
X72173886Y-109919799D01*
X72276613Y-109860489D01*
X72360489Y-109776613D01*
X72419799Y-109673886D01*
X72450499Y-109559311D01*
X72450500Y-109559311D01*
X72450500Y-109440689D01*
X72450499Y-109440688D01*
X72446593Y-109426112D01*
X72419799Y-109326114D01*
X72381229Y-109259309D01*
X72360491Y-109223390D01*
X72360490Y-109223389D01*
X72360489Y-109223387D01*
X72276613Y-109139511D01*
X72276610Y-109139509D01*
X72276609Y-109139508D01*
X72173887Y-109080201D01*
X72173882Y-109080199D01*
X72141333Y-109071478D01*
X72096400Y-109037000D01*
X72089008Y-108980847D01*
X72123486Y-108935914D01*
X72141333Y-108928522D01*
X72173882Y-108919800D01*
X72173881Y-108919800D01*
X72173886Y-108919799D01*
X72276613Y-108860489D01*
X72360489Y-108776613D01*
X72419799Y-108673886D01*
X72450499Y-108559311D01*
X72450500Y-108559311D01*
X72450500Y-108440689D01*
X72450499Y-108440688D01*
X72446593Y-108426112D01*
X72419799Y-108326114D01*
X72376143Y-108250500D01*
X72360491Y-108223390D01*
X72360490Y-108223389D01*
X72360489Y-108223387D01*
X72276613Y-108139511D01*
X72276610Y-108139509D01*
X72276609Y-108139508D01*
X72274144Y-108138085D01*
X72273268Y-108136944D01*
X72272759Y-108136553D01*
X72272863Y-108136416D01*
X72239667Y-108093151D01*
X72247061Y-108036998D01*
X72291995Y-108002521D01*
X72311146Y-108000000D01*
X73188854Y-108000000D01*
X73241180Y-108021674D01*
X73262854Y-108074000D01*
X73241180Y-108126326D01*
X73225856Y-108138085D01*
X73223390Y-108139508D01*
X73139508Y-108223390D01*
X73080201Y-108326112D01*
X73080199Y-108326117D01*
X73049500Y-108440688D01*
X73049500Y-108559311D01*
X73080199Y-108673882D01*
X73080201Y-108673887D01*
X73139508Y-108776609D01*
X73139509Y-108776610D01*
X73139511Y-108776613D01*
X73223387Y-108860489D01*
X73326114Y-108919799D01*
X73326115Y-108919799D01*
X73326117Y-108919800D01*
X73358666Y-108928522D01*
X73403599Y-108963001D01*
X73410991Y-109019153D01*
X73376512Y-109064086D01*
X73358666Y-109071478D01*
X73326117Y-109080199D01*
X73326112Y-109080201D01*
X73223390Y-109139508D01*
X73139508Y-109223390D01*
X73080201Y-109326112D01*
X73080199Y-109326117D01*
X73049500Y-109440688D01*
X73049500Y-109559311D01*
X73080199Y-109673882D01*
X73080201Y-109673887D01*
X73139508Y-109776609D01*
X73139509Y-109776610D01*
X73139511Y-109776613D01*
X73223387Y-109860489D01*
X73326114Y-109919799D01*
X73326115Y-109919799D01*
X73326117Y-109919800D01*
X73383402Y-109935149D01*
X73440688Y-109950499D01*
X73440689Y-109950500D01*
X73440691Y-109950500D01*
X73559311Y-109950500D01*
X73559311Y-109950499D01*
X73673886Y-109919799D01*
X73776613Y-109860489D01*
X73860489Y-109776613D01*
X73919799Y-109673886D01*
X73950499Y-109559311D01*
X73950500Y-109559311D01*
X73950500Y-109440689D01*
X73950499Y-109440688D01*
X73946593Y-109426112D01*
X73919799Y-109326114D01*
X73881229Y-109259309D01*
X73860491Y-109223390D01*
X73860490Y-109223389D01*
X73860489Y-109223387D01*
X73776613Y-109139511D01*
X73776610Y-109139509D01*
X73776609Y-109139508D01*
X73673887Y-109080201D01*
X73673882Y-109080199D01*
X73641333Y-109071478D01*
X73596400Y-109037000D01*
X73589008Y-108980847D01*
X73623486Y-108935914D01*
X73641333Y-108928522D01*
X73673882Y-108919800D01*
X73673881Y-108919800D01*
X73673886Y-108919799D01*
X73776613Y-108860489D01*
X73860489Y-108776613D01*
X73919799Y-108673886D01*
X73950499Y-108559311D01*
X73950500Y-108559311D01*
X73950500Y-108440689D01*
X73950499Y-108440688D01*
X73946593Y-108426112D01*
X73919799Y-108326114D01*
X73876143Y-108250500D01*
X73860491Y-108223390D01*
X73860490Y-108223389D01*
X73860489Y-108223387D01*
X73776613Y-108139511D01*
X73776610Y-108139509D01*
X73776609Y-108139508D01*
X73774144Y-108138085D01*
X73773268Y-108136944D01*
X73772759Y-108136553D01*
X73772863Y-108136416D01*
X73739667Y-108093151D01*
X73747061Y-108036998D01*
X73791995Y-108002521D01*
X73811146Y-108000000D01*
X75000000Y-108000000D01*
X75000000Y-107740688D01*
X77349500Y-107740688D01*
X77349500Y-107859311D01*
X77380199Y-107973882D01*
X77380201Y-107973887D01*
X77439508Y-108076609D01*
X77439509Y-108076610D01*
X77439511Y-108076613D01*
X77523387Y-108160489D01*
X77523389Y-108160490D01*
X77523390Y-108160491D01*
X77626112Y-108219798D01*
X77626114Y-108219799D01*
X77626115Y-108219799D01*
X77626117Y-108219800D01*
X77683402Y-108235149D01*
X77740688Y-108250499D01*
X77740689Y-108250500D01*
X77740691Y-108250500D01*
X77859311Y-108250500D01*
X77859311Y-108250499D01*
X77973886Y-108219799D01*
X78076613Y-108160489D01*
X78160489Y-108076613D01*
X78219799Y-107973886D01*
X78250499Y-107859311D01*
X78250500Y-107859311D01*
X78250500Y-107740689D01*
X78250499Y-107740688D01*
X78219800Y-107626117D01*
X78219798Y-107626112D01*
X78160491Y-107523390D01*
X78160490Y-107523389D01*
X78160489Y-107523387D01*
X78076613Y-107439511D01*
X78076610Y-107439509D01*
X78076609Y-107439508D01*
X77973887Y-107380201D01*
X77973882Y-107380199D01*
X77859311Y-107349500D01*
X77859309Y-107349500D01*
X77740691Y-107349500D01*
X77740689Y-107349500D01*
X77626117Y-107380199D01*
X77626112Y-107380201D01*
X77523390Y-107439508D01*
X77439508Y-107523390D01*
X77380201Y-107626112D01*
X77380199Y-107626117D01*
X77349500Y-107740688D01*
X75000000Y-107740688D01*
X75000000Y-105540688D01*
X76349500Y-105540688D01*
X76349500Y-105659311D01*
X76380199Y-105773882D01*
X76380201Y-105773887D01*
X76439508Y-105876609D01*
X76439509Y-105876610D01*
X76439511Y-105876613D01*
X76523387Y-105960489D01*
X76523389Y-105960490D01*
X76523390Y-105960491D01*
X76624995Y-106019153D01*
X76626114Y-106019799D01*
X76626115Y-106019799D01*
X76626117Y-106019800D01*
X76683402Y-106035149D01*
X76740688Y-106050499D01*
X76740689Y-106050500D01*
X76740691Y-106050500D01*
X76859311Y-106050500D01*
X76859311Y-106050499D01*
X76973886Y-106019799D01*
X77076613Y-105960489D01*
X77160489Y-105876613D01*
X77219799Y-105773886D01*
X77250499Y-105659311D01*
X77250500Y-105659311D01*
X77250500Y-105540689D01*
X77250499Y-105540688D01*
X77219800Y-105426117D01*
X77219798Y-105426112D01*
X77160491Y-105323390D01*
X77160490Y-105323389D01*
X77160489Y-105323387D01*
X77076613Y-105239511D01*
X77076610Y-105239509D01*
X77076609Y-105239508D01*
X76973887Y-105180201D01*
X76973882Y-105180199D01*
X76859311Y-105149500D01*
X76859309Y-105149500D01*
X76740691Y-105149500D01*
X76740689Y-105149500D01*
X76626117Y-105180199D01*
X76626112Y-105180201D01*
X76523390Y-105239508D01*
X76439508Y-105323390D01*
X76380201Y-105426112D01*
X76380199Y-105426117D01*
X76349500Y-105540688D01*
X75000000Y-105540688D01*
X75000000Y-103740688D01*
X75749500Y-103740688D01*
X75749500Y-103859311D01*
X75780199Y-103973882D01*
X75780201Y-103973887D01*
X75839508Y-104076609D01*
X75839509Y-104076610D01*
X75839511Y-104076613D01*
X75910573Y-104147675D01*
X75932247Y-104200000D01*
X75910573Y-104252324D01*
X75862898Y-104300000D01*
X75839508Y-104323390D01*
X75780201Y-104426112D01*
X75780199Y-104426117D01*
X75749500Y-104540688D01*
X75749500Y-104659311D01*
X75780199Y-104773882D01*
X75780201Y-104773887D01*
X75839508Y-104876609D01*
X75839509Y-104876610D01*
X75839511Y-104876613D01*
X75923387Y-104960489D01*
X75923389Y-104960490D01*
X75923390Y-104960491D01*
X75959063Y-104981087D01*
X76026114Y-105019799D01*
X76026115Y-105019799D01*
X76026117Y-105019800D01*
X76083402Y-105035149D01*
X76140688Y-105050499D01*
X76140689Y-105050500D01*
X76140691Y-105050500D01*
X76259311Y-105050500D01*
X76259311Y-105050499D01*
X76373886Y-105019799D01*
X76476613Y-104960489D01*
X76560489Y-104876613D01*
X76619799Y-104773886D01*
X76650499Y-104659311D01*
X76650500Y-104659311D01*
X76650500Y-104540689D01*
X76650499Y-104540688D01*
X76648952Y-104534916D01*
X76619799Y-104426114D01*
X76562065Y-104326117D01*
X76560491Y-104323390D01*
X76560490Y-104323389D01*
X76560489Y-104323387D01*
X76489426Y-104252324D01*
X76467753Y-104200000D01*
X76489426Y-104147675D01*
X76547675Y-104089426D01*
X76600000Y-104067753D01*
X76652324Y-104089426D01*
X76723387Y-104160489D01*
X76723389Y-104160490D01*
X76723390Y-104160491D01*
X76791821Y-104200000D01*
X76826114Y-104219799D01*
X76826115Y-104219799D01*
X76826117Y-104219800D01*
X76883402Y-104235149D01*
X76940688Y-104250499D01*
X76940689Y-104250500D01*
X76940691Y-104250500D01*
X77059311Y-104250500D01*
X77059311Y-104250499D01*
X77173886Y-104219799D01*
X77276613Y-104160489D01*
X77360489Y-104076613D01*
X77419799Y-103973886D01*
X77450499Y-103859311D01*
X77450500Y-103859311D01*
X77450500Y-103740689D01*
X77450499Y-103740688D01*
X77419800Y-103626117D01*
X77419798Y-103626112D01*
X77360491Y-103523390D01*
X77360490Y-103523389D01*
X77360489Y-103523387D01*
X77276613Y-103439511D01*
X77276610Y-103439509D01*
X77276609Y-103439508D01*
X77173887Y-103380201D01*
X77173882Y-103380199D01*
X77059311Y-103349500D01*
X77059309Y-103349500D01*
X76940691Y-103349500D01*
X76940689Y-103349500D01*
X76826117Y-103380199D01*
X76826112Y-103380201D01*
X76723390Y-103439508D01*
X76723387Y-103439510D01*
X76723387Y-103439511D01*
X76652324Y-103510573D01*
X76600000Y-103532247D01*
X76547675Y-103510573D01*
X76476613Y-103439511D01*
X76476610Y-103439509D01*
X76476609Y-103439508D01*
X76373887Y-103380201D01*
X76373882Y-103380199D01*
X76259311Y-103349500D01*
X76259309Y-103349500D01*
X76140691Y-103349500D01*
X76140689Y-103349500D01*
X76026117Y-103380199D01*
X76026112Y-103380201D01*
X75923390Y-103439508D01*
X75839508Y-103523390D01*
X75780201Y-103626112D01*
X75780199Y-103626117D01*
X75749500Y-103740688D01*
X75000000Y-103740688D01*
X75000000Y-103023174D01*
X75021674Y-102970848D01*
X75054847Y-102951696D01*
X75173882Y-102919800D01*
X75173881Y-102919800D01*
X75173886Y-102919799D01*
X75276613Y-102860489D01*
X75360489Y-102776613D01*
X75419799Y-102673886D01*
X75450499Y-102559311D01*
X75450500Y-102559311D01*
X75450500Y-102440689D01*
X75450499Y-102440688D01*
X75419800Y-102326117D01*
X75419799Y-102326116D01*
X75419799Y-102326114D01*
X75397651Y-102287754D01*
X75390259Y-102231603D01*
X75424737Y-102186669D01*
X75446418Y-102178358D01*
X75465997Y-102174217D01*
X75477068Y-102172739D01*
X77146071Y-102077367D01*
X78485315Y-102000838D01*
X78486144Y-102000796D01*
X78499021Y-102000246D01*
X78501051Y-102000189D01*
X78512889Y-102000019D01*
X78513717Y-102000008D01*
X78514772Y-102000000D01*
X81995149Y-102000000D01*
X82004808Y-102000633D01*
X82119753Y-102015765D01*
X82138408Y-102020764D01*
X82240999Y-102063258D01*
X82257728Y-102072917D01*
X82345824Y-102140516D01*
X82359483Y-102154175D01*
X82427082Y-102242271D01*
X82436741Y-102259001D01*
X82479234Y-102361588D01*
X82484234Y-102380248D01*
X82499367Y-102495191D01*
X82500000Y-102504850D01*
X82500000Y-102976825D01*
X82478326Y-103029151D01*
X82445153Y-103048303D01*
X82326117Y-103080199D01*
X82326112Y-103080201D01*
X82223390Y-103139508D01*
X82139508Y-103223390D01*
X82080201Y-103326112D01*
X82080199Y-103326117D01*
X82049500Y-103440688D01*
X82049500Y-103559311D01*
X82080199Y-103673882D01*
X82080201Y-103673887D01*
X82139508Y-103776609D01*
X82139509Y-103776610D01*
X82139511Y-103776613D01*
X82223387Y-103860489D01*
X82223389Y-103860490D01*
X82223390Y-103860491D01*
X82251314Y-103876613D01*
X82326114Y-103919799D01*
X82326115Y-103919799D01*
X82326117Y-103919800D01*
X82358666Y-103928522D01*
X82403599Y-103963001D01*
X82410991Y-104019153D01*
X82376512Y-104064086D01*
X82358666Y-104071478D01*
X82326117Y-104080199D01*
X82326112Y-104080201D01*
X82223390Y-104139508D01*
X82139508Y-104223390D01*
X82080201Y-104326112D01*
X82080199Y-104326117D01*
X82049500Y-104440688D01*
X82049500Y-104559311D01*
X82080199Y-104673882D01*
X82080201Y-104673887D01*
X82139508Y-104776609D01*
X82139509Y-104776610D01*
X82139511Y-104776613D01*
X82223387Y-104860489D01*
X82326114Y-104919799D01*
X82326115Y-104919799D01*
X82326117Y-104919800D01*
X82358666Y-104928522D01*
X82403599Y-104963001D01*
X82410991Y-105019153D01*
X82376512Y-105064086D01*
X82358666Y-105071478D01*
X82326117Y-105080199D01*
X82326112Y-105080201D01*
X82223390Y-105139508D01*
X82139508Y-105223390D01*
X82080201Y-105326112D01*
X82080199Y-105326117D01*
X82049500Y-105440688D01*
X82049500Y-105559311D01*
X82080199Y-105673882D01*
X82080201Y-105673887D01*
X82139508Y-105776609D01*
X82139509Y-105776610D01*
X82139511Y-105776613D01*
X82223387Y-105860489D01*
X82223389Y-105860490D01*
X82223390Y-105860491D01*
X82251307Y-105876609D01*
X82326114Y-105919799D01*
X82326115Y-105919799D01*
X82326117Y-105919800D01*
X82358666Y-105928522D01*
X82403599Y-105963001D01*
X82410991Y-106019153D01*
X82376512Y-106064086D01*
X82358666Y-106071478D01*
X82326117Y-106080199D01*
X82326112Y-106080201D01*
X82223390Y-106139508D01*
X82139508Y-106223390D01*
X82080201Y-106326112D01*
X82080199Y-106326117D01*
X82049500Y-106440688D01*
X82049500Y-106559311D01*
X82080199Y-106673882D01*
X82080201Y-106673887D01*
X82139508Y-106776609D01*
X82139509Y-106776610D01*
X82139511Y-106776613D01*
X82223387Y-106860489D01*
X82326114Y-106919799D01*
X82326115Y-106919799D01*
X82326117Y-106919800D01*
X82358666Y-106928522D01*
X82403599Y-106963001D01*
X82410991Y-107019153D01*
X82376512Y-107064086D01*
X82358666Y-107071478D01*
X82326117Y-107080199D01*
X82326112Y-107080201D01*
X82223390Y-107139508D01*
X82139508Y-107223390D01*
X82080201Y-107326112D01*
X82080199Y-107326117D01*
X82049500Y-107440688D01*
X82049500Y-107559311D01*
X82080199Y-107673882D01*
X82080201Y-107673887D01*
X82139508Y-107776609D01*
X82139509Y-107776610D01*
X82139511Y-107776613D01*
X82223387Y-107860489D01*
X82223389Y-107860490D01*
X82223390Y-107860491D01*
X82253803Y-107878050D01*
X82326114Y-107919799D01*
X82326115Y-107919799D01*
X82326117Y-107919800D01*
X82445153Y-107951696D01*
X82490086Y-107986174D01*
X82500000Y-108023174D01*
X82500000Y-113485189D01*
X82499351Y-113494967D01*
X82497014Y-113512497D01*
X82483840Y-113611308D01*
X82478717Y-113630181D01*
X82435188Y-113733830D01*
X82425299Y-113750703D01*
X82356140Y-113839324D01*
X82342177Y-113853016D01*
X82252211Y-113920427D01*
X82235149Y-113929983D01*
X82130671Y-113971471D01*
X82111698Y-113976224D01*
X81995076Y-113989449D01*
X81985287Y-113989906D01*
X69389124Y-113742924D01*
X68925330Y-113733830D01*
X57509802Y-113509996D01*
X57509801Y-113509996D01*
X57509799Y-113509995D01*
X57000000Y-113500000D01*
X57000000Y-118495149D01*
X56999367Y-118504808D01*
X56984234Y-118619751D01*
X56979234Y-118638411D01*
X56936741Y-118740998D01*
X56927082Y-118757728D01*
X56859483Y-118845824D01*
X56845824Y-118859483D01*
X56757728Y-118927082D01*
X56740998Y-118936741D01*
X56638411Y-118979234D01*
X56619751Y-118984234D01*
X56504808Y-118999367D01*
X56495149Y-119000000D01*
X43504851Y-119000000D01*
X43495192Y-118999367D01*
X43380248Y-118984234D01*
X43361588Y-118979234D01*
X43259001Y-118936741D01*
X43242271Y-118927082D01*
X43154175Y-118859483D01*
X43140516Y-118845824D01*
X43072917Y-118757728D01*
X43063258Y-118740998D01*
X43020765Y-118638411D01*
X43015765Y-118619751D01*
X43000633Y-118504808D01*
X43000000Y-118495149D01*
X43000000Y-116018480D01*
X45624500Y-116018480D01*
X45624500Y-116781519D01*
X45639353Y-116875304D01*
X45639354Y-116875306D01*
X45672670Y-116940691D01*
X45696950Y-116988342D01*
X45786658Y-117078050D01*
X45899696Y-117135646D01*
X45993481Y-117150500D01*
X47306518Y-117150499D01*
X47306519Y-117150499D01*
X47400304Y-117135646D01*
X47400306Y-117135645D01*
X47402419Y-117134568D01*
X47513342Y-117078050D01*
X47603050Y-116988342D01*
X47660646Y-116875304D01*
X47675500Y-116781519D01*
X47675499Y-116018482D01*
X47675499Y-116018480D01*
X52624500Y-116018480D01*
X52624500Y-116781519D01*
X52639353Y-116875304D01*
X52639354Y-116875306D01*
X52672670Y-116940691D01*
X52696950Y-116988342D01*
X52786658Y-117078050D01*
X52899696Y-117135646D01*
X52993481Y-117150500D01*
X54306518Y-117150499D01*
X54306519Y-117150499D01*
X54400304Y-117135646D01*
X54400306Y-117135645D01*
X54402419Y-117134568D01*
X54513342Y-117078050D01*
X54603050Y-116988342D01*
X54660646Y-116875304D01*
X54675500Y-116781519D01*
X54675499Y-116018482D01*
X54674418Y-116011658D01*
X54660646Y-115924695D01*
X54660645Y-115924693D01*
X54622332Y-115849501D01*
X54603050Y-115811658D01*
X54513342Y-115721950D01*
X54400304Y-115664354D01*
X54400302Y-115664353D01*
X54400301Y-115664353D01*
X54306519Y-115649500D01*
X52993480Y-115649500D01*
X52899695Y-115664353D01*
X52899693Y-115664354D01*
X52786657Y-115721950D01*
X52696951Y-115811656D01*
X52639353Y-115924698D01*
X52624500Y-116018480D01*
X47675499Y-116018480D01*
X47674418Y-116011658D01*
X47660646Y-115924695D01*
X47660645Y-115924693D01*
X47622332Y-115849501D01*
X47603050Y-115811658D01*
X47513342Y-115721950D01*
X47400304Y-115664354D01*
X47400302Y-115664353D01*
X47400301Y-115664353D01*
X47306519Y-115649500D01*
X45993480Y-115649500D01*
X45899695Y-115664353D01*
X45899693Y-115664354D01*
X45786657Y-115721950D01*
X45696951Y-115811656D01*
X45639353Y-115924698D01*
X45624500Y-116018480D01*
X43000000Y-116018480D01*
X43000000Y-114326083D01*
X45624500Y-114326083D01*
X45624500Y-114473916D01*
X45653340Y-114618907D01*
X45653343Y-114618917D01*
X45709915Y-114755494D01*
X45766054Y-114839511D01*
X45792049Y-114878416D01*
X45896584Y-114982951D01*
X46019505Y-115065084D01*
X46156087Y-115121658D01*
X46301082Y-115150500D01*
X46301084Y-115150500D01*
X46998916Y-115150500D01*
X46998918Y-115150500D01*
X47143913Y-115121658D01*
X47280495Y-115065084D01*
X47403416Y-114982951D01*
X47507951Y-114878416D01*
X47590084Y-114755495D01*
X47646658Y-114618913D01*
X47675500Y-114473918D01*
X47675500Y-114326083D01*
X52624500Y-114326083D01*
X52624500Y-114473916D01*
X52653340Y-114618907D01*
X52653343Y-114618917D01*
X52709915Y-114755494D01*
X52766054Y-114839511D01*
X52792049Y-114878416D01*
X52896584Y-114982951D01*
X53019505Y-115065084D01*
X53156087Y-115121658D01*
X53301082Y-115150500D01*
X53301084Y-115150500D01*
X53998916Y-115150500D01*
X53998918Y-115150500D01*
X54143913Y-115121658D01*
X54280495Y-115065084D01*
X54403416Y-114982951D01*
X54507951Y-114878416D01*
X54590084Y-114755495D01*
X54646658Y-114618913D01*
X54675500Y-114473918D01*
X54675500Y-114326082D01*
X54646658Y-114181087D01*
X54590084Y-114044505D01*
X54507951Y-113921584D01*
X54403416Y-113817049D01*
X54323212Y-113763458D01*
X54280494Y-113734915D01*
X54143917Y-113678343D01*
X54143907Y-113678340D01*
X54046811Y-113659026D01*
X53998918Y-113649500D01*
X53301082Y-113649500D01*
X53259977Y-113657676D01*
X53156092Y-113678340D01*
X53156082Y-113678343D01*
X53019505Y-113734915D01*
X52896584Y-113817048D01*
X52896583Y-113817050D01*
X52792050Y-113921583D01*
X52792048Y-113921584D01*
X52709915Y-114044505D01*
X52653343Y-114181082D01*
X52653340Y-114181092D01*
X52624500Y-114326083D01*
X47675500Y-114326083D01*
X47675500Y-114326082D01*
X47646658Y-114181087D01*
X47590084Y-114044505D01*
X47507951Y-113921584D01*
X47403416Y-113817049D01*
X47323212Y-113763458D01*
X47280494Y-113734915D01*
X47143917Y-113678343D01*
X47143907Y-113678340D01*
X47046811Y-113659026D01*
X46998918Y-113649500D01*
X46301082Y-113649500D01*
X46259977Y-113657676D01*
X46156092Y-113678340D01*
X46156082Y-113678343D01*
X46019505Y-113734915D01*
X45896584Y-113817048D01*
X45896583Y-113817050D01*
X45792050Y-113921583D01*
X45792048Y-113921584D01*
X45709915Y-114044505D01*
X45653343Y-114181082D01*
X45653340Y-114181092D01*
X45624500Y-114326083D01*
X43000000Y-114326083D01*
X43000000Y-112326083D01*
X45624500Y-112326083D01*
X45624500Y-112473916D01*
X45653340Y-112618907D01*
X45653343Y-112618917D01*
X45709915Y-112755494D01*
X45757101Y-112826112D01*
X45792049Y-112878416D01*
X45896584Y-112982951D01*
X46019505Y-113065084D01*
X46156087Y-113121658D01*
X46301082Y-113150500D01*
X46301084Y-113150500D01*
X46998916Y-113150500D01*
X46998918Y-113150500D01*
X47143913Y-113121658D01*
X47280495Y-113065084D01*
X47403416Y-112982951D01*
X47507951Y-112878416D01*
X47590084Y-112755495D01*
X47646658Y-112618913D01*
X47675500Y-112473918D01*
X47675500Y-112326083D01*
X52624500Y-112326083D01*
X52624500Y-112473916D01*
X52653340Y-112618907D01*
X52653343Y-112618917D01*
X52709915Y-112755494D01*
X52757101Y-112826112D01*
X52792049Y-112878416D01*
X52896584Y-112982951D01*
X53019505Y-113065084D01*
X53156087Y-113121658D01*
X53301082Y-113150500D01*
X53301084Y-113150500D01*
X53998916Y-113150500D01*
X53998918Y-113150500D01*
X54143913Y-113121658D01*
X54280495Y-113065084D01*
X54403416Y-112982951D01*
X54445679Y-112940688D01*
X69549500Y-112940688D01*
X69549500Y-113059311D01*
X69580199Y-113173882D01*
X69580201Y-113173887D01*
X69639508Y-113276609D01*
X69639509Y-113276610D01*
X69639511Y-113276613D01*
X69723387Y-113360489D01*
X69826114Y-113419799D01*
X69826115Y-113419799D01*
X69826117Y-113419800D01*
X69883402Y-113435149D01*
X69940688Y-113450499D01*
X69940689Y-113450500D01*
X69940691Y-113450500D01*
X70059311Y-113450500D01*
X70059311Y-113450499D01*
X70173886Y-113419799D01*
X70276613Y-113360489D01*
X70360489Y-113276613D01*
X70419799Y-113173886D01*
X70450499Y-113059311D01*
X70450500Y-113059311D01*
X70450500Y-112940689D01*
X70450499Y-112940688D01*
X71549500Y-112940688D01*
X71549500Y-113059311D01*
X71580199Y-113173882D01*
X71580201Y-113173887D01*
X71639508Y-113276609D01*
X71639509Y-113276610D01*
X71639511Y-113276613D01*
X71723387Y-113360489D01*
X71826114Y-113419799D01*
X71826115Y-113419799D01*
X71826117Y-113419800D01*
X71883402Y-113435149D01*
X71940688Y-113450499D01*
X71940689Y-113450500D01*
X71940691Y-113450500D01*
X72059311Y-113450500D01*
X72059311Y-113450499D01*
X72173886Y-113419799D01*
X72276613Y-113360489D01*
X72360489Y-113276613D01*
X72419799Y-113173886D01*
X72450499Y-113059311D01*
X72450500Y-113059311D01*
X72450500Y-112940689D01*
X72450499Y-112940688D01*
X73049500Y-112940688D01*
X73049500Y-113059311D01*
X73080199Y-113173882D01*
X73080201Y-113173887D01*
X73139508Y-113276609D01*
X73139509Y-113276610D01*
X73139511Y-113276613D01*
X73223387Y-113360489D01*
X73326114Y-113419799D01*
X73326115Y-113419799D01*
X73326117Y-113419800D01*
X73383402Y-113435149D01*
X73440688Y-113450499D01*
X73440689Y-113450500D01*
X73440691Y-113450500D01*
X73559311Y-113450500D01*
X73559311Y-113450499D01*
X73673886Y-113419799D01*
X73776613Y-113360489D01*
X73860489Y-113276613D01*
X73919799Y-113173886D01*
X73950499Y-113059311D01*
X73950500Y-113059311D01*
X73950500Y-112940689D01*
X73950499Y-112940688D01*
X73919800Y-112826117D01*
X73919798Y-112826112D01*
X73860491Y-112723390D01*
X73860490Y-112723389D01*
X73860489Y-112723387D01*
X73776613Y-112639511D01*
X73776610Y-112639509D01*
X73776609Y-112639508D01*
X73673887Y-112580201D01*
X73673882Y-112580199D01*
X73559311Y-112549500D01*
X73559309Y-112549500D01*
X73440691Y-112549500D01*
X73440689Y-112549500D01*
X73326117Y-112580199D01*
X73326112Y-112580201D01*
X73223390Y-112639508D01*
X73139508Y-112723390D01*
X73080201Y-112826112D01*
X73080199Y-112826117D01*
X73049500Y-112940688D01*
X72450499Y-112940688D01*
X72419800Y-112826117D01*
X72419798Y-112826112D01*
X72360491Y-112723390D01*
X72360490Y-112723389D01*
X72360489Y-112723387D01*
X72276613Y-112639511D01*
X72276610Y-112639509D01*
X72276609Y-112639508D01*
X72173887Y-112580201D01*
X72173882Y-112580199D01*
X72059311Y-112549500D01*
X72059309Y-112549500D01*
X71940691Y-112549500D01*
X71940689Y-112549500D01*
X71826117Y-112580199D01*
X71826112Y-112580201D01*
X71723390Y-112639508D01*
X71639508Y-112723390D01*
X71580201Y-112826112D01*
X71580199Y-112826117D01*
X71549500Y-112940688D01*
X70450499Y-112940688D01*
X70419800Y-112826117D01*
X70419798Y-112826112D01*
X70360491Y-112723390D01*
X70360490Y-112723389D01*
X70360489Y-112723387D01*
X70276613Y-112639511D01*
X70276610Y-112639509D01*
X70276609Y-112639508D01*
X70173887Y-112580201D01*
X70173882Y-112580199D01*
X70059311Y-112549500D01*
X70059309Y-112549500D01*
X69940691Y-112549500D01*
X69940689Y-112549500D01*
X69826117Y-112580199D01*
X69826112Y-112580201D01*
X69723390Y-112639508D01*
X69639508Y-112723390D01*
X69580201Y-112826112D01*
X69580199Y-112826117D01*
X69549500Y-112940688D01*
X54445679Y-112940688D01*
X54507951Y-112878416D01*
X54590084Y-112755495D01*
X54646658Y-112618913D01*
X54675500Y-112473918D01*
X54675500Y-112326082D01*
X54646658Y-112181087D01*
X54590084Y-112044505D01*
X54507951Y-111921584D01*
X54403416Y-111817049D01*
X54280495Y-111734916D01*
X54280496Y-111734916D01*
X54280494Y-111734915D01*
X54143917Y-111678343D01*
X54143907Y-111678340D01*
X54046811Y-111659026D01*
X53998918Y-111649500D01*
X53301082Y-111649500D01*
X53259977Y-111657676D01*
X53156092Y-111678340D01*
X53156082Y-111678343D01*
X53019505Y-111734915D01*
X52896584Y-111817048D01*
X52896583Y-111817050D01*
X52792050Y-111921583D01*
X52792048Y-111921584D01*
X52709915Y-112044505D01*
X52653343Y-112181082D01*
X52653340Y-112181092D01*
X52624500Y-112326083D01*
X47675500Y-112326083D01*
X47675500Y-112326082D01*
X47646658Y-112181087D01*
X47590084Y-112044505D01*
X47507951Y-111921584D01*
X47403416Y-111817049D01*
X47280495Y-111734916D01*
X47280496Y-111734916D01*
X47280494Y-111734915D01*
X47143917Y-111678343D01*
X47143907Y-111678340D01*
X47046811Y-111659026D01*
X46998918Y-111649500D01*
X46301082Y-111649500D01*
X46259977Y-111657676D01*
X46156092Y-111678340D01*
X46156082Y-111678343D01*
X46019505Y-111734915D01*
X45896584Y-111817048D01*
X45896583Y-111817050D01*
X45792050Y-111921583D01*
X45792048Y-111921584D01*
X45709915Y-112044505D01*
X45653343Y-112181082D01*
X45653340Y-112181092D01*
X45624500Y-112326083D01*
X43000000Y-112326083D01*
X43000000Y-106818480D01*
X45624500Y-106818480D01*
X45624500Y-107581519D01*
X45639353Y-107675304D01*
X45639354Y-107675306D01*
X45672669Y-107740688D01*
X45696950Y-107788342D01*
X45786658Y-107878050D01*
X45899696Y-107935646D01*
X45993481Y-107950500D01*
X47306518Y-107950499D01*
X47306519Y-107950499D01*
X47400304Y-107935646D01*
X47400306Y-107935645D01*
X47431407Y-107919798D01*
X47513342Y-107878050D01*
X47603050Y-107788342D01*
X47660646Y-107675304D01*
X47675500Y-107581519D01*
X47675499Y-106818482D01*
X47660646Y-106724696D01*
X47660646Y-106724695D01*
X47660645Y-106724693D01*
X47603049Y-106611657D01*
X47513343Y-106521951D01*
X47513342Y-106521950D01*
X47400304Y-106464354D01*
X47400302Y-106464353D01*
X47400301Y-106464353D01*
X47306519Y-106449500D01*
X45993480Y-106449500D01*
X45899695Y-106464353D01*
X45899693Y-106464354D01*
X45786657Y-106521950D01*
X45696951Y-106611656D01*
X45639353Y-106724698D01*
X45624500Y-106818480D01*
X43000000Y-106818480D01*
X43000000Y-105126083D01*
X45624500Y-105126083D01*
X45624500Y-105273916D01*
X45653340Y-105418907D01*
X45653343Y-105418917D01*
X45709915Y-105555494D01*
X45792048Y-105678415D01*
X45896584Y-105782951D01*
X46019505Y-105865084D01*
X46151596Y-105919798D01*
X46156087Y-105921658D01*
X46301082Y-105950500D01*
X46301084Y-105950500D01*
X46998916Y-105950500D01*
X46998918Y-105950500D01*
X47143913Y-105921658D01*
X47280495Y-105865084D01*
X47403416Y-105782951D01*
X47507951Y-105678416D01*
X47590084Y-105555495D01*
X47646658Y-105418913D01*
X47675500Y-105273918D01*
X47675500Y-105126082D01*
X47646658Y-104981087D01*
X47633988Y-104950500D01*
X47590084Y-104844505D01*
X47507951Y-104721584D01*
X47403415Y-104617048D01*
X47280494Y-104534915D01*
X47143917Y-104478343D01*
X47143907Y-104478340D01*
X47046811Y-104459026D01*
X46998918Y-104449500D01*
X46301082Y-104449500D01*
X46259977Y-104457676D01*
X46156092Y-104478340D01*
X46156082Y-104478343D01*
X46019505Y-104534915D01*
X45896584Y-104617048D01*
X45896583Y-104617050D01*
X45792050Y-104721583D01*
X45792048Y-104721584D01*
X45709915Y-104844505D01*
X45653343Y-104981082D01*
X45653340Y-104981092D01*
X45624500Y-105126083D01*
X43000000Y-105126083D01*
X43000000Y-103126083D01*
X45624500Y-103126083D01*
X45624500Y-103273916D01*
X45653340Y-103418907D01*
X45653343Y-103418917D01*
X45709915Y-103555494D01*
X45792048Y-103678415D01*
X45896584Y-103782951D01*
X46019505Y-103865084D01*
X46151596Y-103919798D01*
X46156087Y-103921658D01*
X46301082Y-103950500D01*
X46301084Y-103950500D01*
X46998916Y-103950500D01*
X46998918Y-103950500D01*
X47143913Y-103921658D01*
X47280495Y-103865084D01*
X47403416Y-103782951D01*
X47507951Y-103678416D01*
X47590084Y-103555495D01*
X47646658Y-103418913D01*
X47675500Y-103273918D01*
X47675500Y-103126082D01*
X47646658Y-102981087D01*
X47633988Y-102950500D01*
X47590084Y-102844505D01*
X47507951Y-102721584D01*
X47403415Y-102617048D01*
X47280494Y-102534915D01*
X47143917Y-102478343D01*
X47143907Y-102478340D01*
X47046811Y-102459026D01*
X46998918Y-102449500D01*
X46301082Y-102449500D01*
X46259977Y-102457676D01*
X46156092Y-102478340D01*
X46156082Y-102478343D01*
X46019505Y-102534915D01*
X45896584Y-102617048D01*
X45896583Y-102617050D01*
X45792050Y-102721583D01*
X45792048Y-102721584D01*
X45709915Y-102844505D01*
X45653343Y-102981082D01*
X45653340Y-102981092D01*
X45624500Y-103126083D01*
X43000000Y-103126083D01*
X43000000Y-99504850D01*
X43000633Y-99495191D01*
X43015766Y-99380244D01*
X43020763Y-99361593D01*
X43063260Y-99258996D01*
X43072914Y-99242274D01*
X43140520Y-99154170D01*
X43154170Y-99140520D01*
X43242274Y-99072914D01*
X43258996Y-99063260D01*
X43361593Y-99020763D01*
X43380244Y-99015766D01*
X43495192Y-99000633D01*
X43504851Y-99000000D01*
X48495149Y-99000000D01*
X48504808Y-99000633D01*
G37*
G04 #@! TD.AperFunction*
M02*
