%TF.GenerationSoftware,KiCad,Pcbnew,10.0.0*%
%TF.CreationDate,2026-04-15T09:38:54-07:00*%
%TF.ProjectId,servo,73657276-6f2e-46b6-9963-61645f706362,0.1*%
%TF.SameCoordinates,Original*%
%TF.FileFunction,Drillmap*%
%TF.FilePolarity,Positive*%
%FSLAX45Y45*%
G04 Gerber Fmt 4.5, Leading zero omitted, Abs format (unit mm)*
G04 Created by KiCad (PCBNEW 10.0.0) date 2026-04-15 09:38:54*
%MOMM*%
%LPD*%
G01*
G04 APERTURE LIST*
%ADD10C,0.100000*%
%ADD11C,0.200000*%
%ADD12C,0.320000*%
G04 APERTURE END LIST*
D10*
X4200000Y-8800000D02*
X4200000Y-12900000D01*
X4200000Y-8800000D02*
G75*
G02*
X4400000Y-8600000I200000J0D01*
G01*
X4400000Y-8600000D02*
X10200000Y-8600000D01*
X4400000Y-13100000D02*
G75*
G02*
X4200000Y-12900000I0J200000D01*
G01*
X10200000Y-8600000D02*
G75*
G02*
X10400000Y-8800000I0J-200000D01*
G01*
X10200000Y-13100000D02*
X4400000Y-13100000D01*
X10400000Y-8800000D02*
X10400000Y-12900000D01*
X10400000Y-12900000D02*
G75*
G02*
X10200000Y-13100000I-200000J0D01*
G01*
D11*
D10*
X4805000Y-12085000D02*
X4835000Y-12115000D01*
X4835000Y-12085000D02*
X4805000Y-12115000D01*
X4985000Y-10385000D02*
X5015000Y-10415000D01*
X5015000Y-10385000D02*
X4985000Y-10415000D01*
X4985000Y-10445000D02*
X5015000Y-10475000D01*
X5015000Y-10445000D02*
X4985000Y-10475000D01*
X4985000Y-10510000D02*
X5015000Y-10540000D01*
X5015000Y-10510000D02*
X4985000Y-10540000D01*
X4985000Y-11135000D02*
X5015000Y-11165000D01*
X5015000Y-11135000D02*
X4985000Y-11165000D01*
X4985000Y-11205000D02*
X5015000Y-11235000D01*
X5015000Y-11205000D02*
X4985000Y-11235000D01*
X4985000Y-11285000D02*
X5015000Y-11315000D01*
X5015000Y-11285000D02*
X4985000Y-11315000D01*
X4985000Y-11845000D02*
X5015000Y-11875000D01*
X5015000Y-11845000D02*
X4985000Y-11875000D01*
X5065000Y-11845000D02*
X5095000Y-11875000D01*
X5095000Y-11845000D02*
X5065000Y-11875000D01*
X5085000Y-10905000D02*
X5115000Y-10935000D01*
X5115000Y-10905000D02*
X5085000Y-10935000D01*
X5085000Y-10975000D02*
X5115000Y-11005000D01*
X5115000Y-10975000D02*
X5085000Y-11005000D01*
X5085000Y-11045000D02*
X5115000Y-11075000D01*
X5115000Y-11045000D02*
X5085000Y-11075000D01*
X5145000Y-11845000D02*
X5175000Y-11875000D01*
X5175000Y-11845000D02*
X5145000Y-11875000D01*
X5305000Y-12085000D02*
X5335000Y-12115000D01*
X5335000Y-12085000D02*
X5305000Y-12115000D01*
X5405000Y-12085000D02*
X5435000Y-12115000D01*
X5435000Y-12085000D02*
X5405000Y-12115000D01*
X5725000Y-11305000D02*
X5755000Y-11335000D01*
X5755000Y-11305000D02*
X5725000Y-11335000D01*
X5805000Y-11305000D02*
X5835000Y-11335000D01*
X5835000Y-11305000D02*
X5805000Y-11335000D01*
X5905000Y-11305000D02*
X5935000Y-11335000D01*
X5935000Y-11305000D02*
X5905000Y-11335000D01*
X5945000Y-10545000D02*
X5975000Y-10575000D01*
X5975000Y-10545000D02*
X5945000Y-10575000D01*
X5945000Y-10945000D02*
X5975000Y-10975000D01*
X5975000Y-10945000D02*
X5945000Y-10975000D01*
X5945000Y-11045000D02*
X5975000Y-11075000D01*
X5975000Y-11045000D02*
X5945000Y-11075000D01*
X6045000Y-10545000D02*
X6075000Y-10575000D01*
X6075000Y-10545000D02*
X6045000Y-10575000D01*
X6045000Y-10945000D02*
X6075000Y-10975000D01*
X6075000Y-10945000D02*
X6045000Y-10975000D01*
X6045000Y-11045000D02*
X6075000Y-11075000D01*
X6075000Y-11045000D02*
X6045000Y-11075000D01*
X6145000Y-10245000D02*
X6175000Y-10275000D01*
X6175000Y-10245000D02*
X6145000Y-10275000D01*
X6145000Y-10345000D02*
X6175000Y-10375000D01*
X6175000Y-10345000D02*
X6145000Y-10375000D01*
X6145000Y-10445000D02*
X6175000Y-10475000D01*
X6175000Y-10445000D02*
X6145000Y-10475000D01*
X6145000Y-10545000D02*
X6175000Y-10575000D01*
X6175000Y-10545000D02*
X6145000Y-10575000D01*
X6145000Y-10945000D02*
X6175000Y-10975000D01*
X6175000Y-10945000D02*
X6145000Y-10975000D01*
X6145000Y-11045000D02*
X6175000Y-11075000D01*
X6175000Y-11045000D02*
X6145000Y-11075000D01*
X6245000Y-10545000D02*
X6275000Y-10575000D01*
X6275000Y-10545000D02*
X6245000Y-10575000D01*
X6305000Y-11685000D02*
X6335000Y-11715000D01*
X6335000Y-11685000D02*
X6305000Y-11715000D01*
X6345000Y-10545000D02*
X6375000Y-10575000D01*
X6375000Y-10545000D02*
X6345000Y-10575000D01*
X6445000Y-10545000D02*
X6475000Y-10575000D01*
X6475000Y-10545000D02*
X6445000Y-10575000D01*
X6445000Y-11985000D02*
X6475000Y-12015000D01*
X6475000Y-11985000D02*
X6445000Y-12015000D01*
X6461840Y-11518100D02*
X6491840Y-11548100D01*
X6491840Y-11518100D02*
X6461840Y-11548100D01*
X6517953Y-11559223D02*
X6547953Y-11589223D01*
X6547953Y-11559223D02*
X6517953Y-11589223D01*
X6545000Y-10245000D02*
X6575000Y-10275000D01*
X6575000Y-10245000D02*
X6545000Y-10275000D01*
X6545000Y-10345000D02*
X6575000Y-10375000D01*
X6575000Y-10345000D02*
X6545000Y-10375000D01*
X6545000Y-10445000D02*
X6575000Y-10475000D01*
X6575000Y-10445000D02*
X6545000Y-10475000D01*
X6545000Y-10545000D02*
X6575000Y-10575000D01*
X6575000Y-10545000D02*
X6545000Y-10575000D01*
X6545000Y-10845000D02*
X6575000Y-10875000D01*
X6575000Y-10845000D02*
X6545000Y-10875000D01*
X6545000Y-10945000D02*
X6575000Y-10975000D01*
X6575000Y-10945000D02*
X6545000Y-10975000D01*
X6545000Y-11045000D02*
X6575000Y-11075000D01*
X6575000Y-11045000D02*
X6545000Y-11075000D01*
X6580277Y-11577216D02*
X6610277Y-11607216D01*
X6610277Y-11577216D02*
X6580277Y-11607216D01*
X6586627Y-11833910D02*
X6616627Y-11863910D01*
X6616627Y-11833910D02*
X6586627Y-11863910D01*
X6593095Y-11415760D02*
X6623095Y-11445760D01*
X6623095Y-11415760D02*
X6593095Y-11445760D01*
X6645000Y-10545000D02*
X6675000Y-10575000D01*
X6675000Y-10545000D02*
X6645000Y-10575000D01*
X6885000Y-11485000D02*
X6915000Y-11515000D01*
X6915000Y-11485000D02*
X6885000Y-11515000D01*
X6885000Y-11585000D02*
X6915000Y-11615000D01*
X6915000Y-11585000D02*
X6885000Y-11615000D01*
X6885000Y-11685000D02*
X6915000Y-11715000D01*
X6915000Y-11685000D02*
X6885000Y-11715000D01*
X6885000Y-11785000D02*
X6915000Y-11815000D01*
X6915000Y-11785000D02*
X6885000Y-11815000D01*
X6885000Y-11885000D02*
X6915000Y-11915000D01*
X6915000Y-11885000D02*
X6885000Y-11915000D01*
X6958340Y-11682500D02*
X6988340Y-11712500D01*
X6988340Y-11682500D02*
X6958340Y-11712500D01*
X6985000Y-11285000D02*
X7015000Y-11315000D01*
X7015000Y-11285000D02*
X6985000Y-11315000D01*
X7035000Y-11485000D02*
X7065000Y-11515000D01*
X7065000Y-11485000D02*
X7035000Y-11515000D01*
X7035000Y-11585000D02*
X7065000Y-11615000D01*
X7065000Y-11585000D02*
X7035000Y-11615000D01*
X7035000Y-11685000D02*
X7065000Y-11715000D01*
X7065000Y-11685000D02*
X7035000Y-11715000D01*
X7035000Y-11785000D02*
X7065000Y-11815000D01*
X7065000Y-11785000D02*
X7035000Y-11815000D01*
X7035000Y-11885000D02*
X7065000Y-11915000D01*
X7065000Y-11885000D02*
X7035000Y-11915000D01*
X7105000Y-10245000D02*
X7135000Y-10275000D01*
X7135000Y-10245000D02*
X7105000Y-10275000D01*
X7185000Y-10835000D02*
X7215000Y-10865000D01*
X7215000Y-10835000D02*
X7185000Y-10865000D01*
X7185000Y-10935000D02*
X7215000Y-10965000D01*
X7215000Y-10935000D02*
X7185000Y-10965000D01*
X7185000Y-11285000D02*
X7215000Y-11315000D01*
X7215000Y-11285000D02*
X7185000Y-11315000D01*
X7205000Y-12105000D02*
X7235000Y-12135000D01*
X7235000Y-12105000D02*
X7205000Y-12135000D01*
X7335000Y-10835000D02*
X7365000Y-10865000D01*
X7365000Y-10835000D02*
X7335000Y-10865000D01*
X7335000Y-10935000D02*
X7365000Y-10965000D01*
X7365000Y-10935000D02*
X7335000Y-10965000D01*
X7335000Y-11285000D02*
X7365000Y-11315000D01*
X7365000Y-11285000D02*
X7335000Y-11315000D01*
X7346398Y-11971700D02*
X7376398Y-12001700D01*
X7376398Y-11971700D02*
X7346398Y-12001700D01*
X7349038Y-11609038D02*
X7379038Y-11639038D01*
X7379038Y-11609038D02*
X7349038Y-11639038D01*
X7358940Y-11883436D02*
X7388940Y-11913436D01*
X7388940Y-11883436D02*
X7358940Y-11913436D01*
X7385000Y-11803164D02*
X7415000Y-11833164D01*
X7415000Y-11803164D02*
X7385000Y-11833164D01*
X7432175Y-12120000D02*
X7462175Y-12150000D01*
X7462175Y-12120000D02*
X7432175Y-12150000D01*
X7465000Y-11505000D02*
X7495000Y-11535000D01*
X7495000Y-11505000D02*
X7465000Y-11535000D01*
X7485000Y-10235000D02*
X7515000Y-10265000D01*
X7515000Y-10235000D02*
X7485000Y-10265000D01*
X7525000Y-11965000D02*
X7555000Y-11995000D01*
X7555000Y-11965000D02*
X7525000Y-11995000D01*
X7545000Y-11625000D02*
X7575000Y-11655000D01*
X7575000Y-11625000D02*
X7545000Y-11655000D01*
X7565000Y-11505000D02*
X7595000Y-11535000D01*
X7595000Y-11505000D02*
X7565000Y-11535000D01*
X7605000Y-10365000D02*
X7635000Y-10395000D01*
X7635000Y-10365000D02*
X7605000Y-10395000D01*
X7605000Y-10445000D02*
X7635000Y-10475000D01*
X7635000Y-10445000D02*
X7605000Y-10475000D01*
X7665000Y-10545000D02*
X7695000Y-10575000D01*
X7695000Y-10545000D02*
X7665000Y-10575000D01*
X7685000Y-10365000D02*
X7715000Y-10395000D01*
X7715000Y-10365000D02*
X7685000Y-10395000D01*
X7765000Y-10765000D02*
X7795000Y-10795000D01*
X7795000Y-10765000D02*
X7765000Y-10795000D01*
X7785000Y-10135000D02*
X7815000Y-10165000D01*
X7815000Y-10135000D02*
X7785000Y-10165000D01*
X7845000Y-11665000D02*
X7875000Y-11695000D01*
X7875000Y-11665000D02*
X7845000Y-11695000D01*
X7855702Y-11565909D02*
X7885702Y-11595909D01*
X7885702Y-11565909D02*
X7855702Y-11595909D01*
X7860000Y-10335000D02*
X7890000Y-10365000D01*
X7890000Y-10335000D02*
X7860000Y-10365000D01*
X7860000Y-10535000D02*
X7890000Y-10565000D01*
X7890000Y-10535000D02*
X7860000Y-10565000D01*
X7865000Y-11925000D02*
X7895000Y-11955000D01*
X7895000Y-11925000D02*
X7865000Y-11955000D01*
X7885000Y-10760000D02*
X7915000Y-10790000D01*
X7915000Y-10760000D02*
X7885000Y-10790000D01*
X7931168Y-12115519D02*
X7961168Y-12145519D01*
X7961168Y-12115519D02*
X7931168Y-12145519D01*
X7960000Y-10760000D02*
X7990000Y-10790000D01*
X7990000Y-10760000D02*
X7960000Y-10790000D01*
X7985000Y-10885000D02*
X8015000Y-10915000D01*
X8015000Y-10885000D02*
X7985000Y-10915000D01*
X7985000Y-11185000D02*
X8015000Y-11215000D01*
X8015000Y-11185000D02*
X7985000Y-11215000D01*
X8010000Y-10335000D02*
X8040000Y-10365000D01*
X8040000Y-10335000D02*
X8010000Y-10365000D01*
X8010000Y-10535000D02*
X8040000Y-10565000D01*
X8040000Y-10535000D02*
X8010000Y-10565000D01*
X8035000Y-10760000D02*
X8065000Y-10790000D01*
X8065000Y-10760000D02*
X8035000Y-10790000D01*
X8066901Y-12103613D02*
X8096901Y-12133613D01*
X8096901Y-12103613D02*
X8066901Y-12133613D01*
X8105000Y-11865000D02*
X8135000Y-11895000D01*
X8135000Y-11865000D02*
X8105000Y-11895000D01*
X8125000Y-11785000D02*
X8155000Y-11815000D01*
X8155000Y-11785000D02*
X8125000Y-11815000D01*
X8145000Y-12125000D02*
X8175000Y-12155000D01*
X8175000Y-12125000D02*
X8145000Y-12155000D01*
X8185000Y-10885000D02*
X8215000Y-10915000D01*
X8215000Y-10885000D02*
X8185000Y-10915000D01*
X8185000Y-11185000D02*
X8215000Y-11215000D01*
X8215000Y-11185000D02*
X8185000Y-11215000D01*
X8235000Y-10335000D02*
X8265000Y-10365000D01*
X8265000Y-10335000D02*
X8235000Y-10365000D01*
X8235000Y-10435000D02*
X8265000Y-10465000D01*
X8265000Y-10435000D02*
X8235000Y-10465000D01*
X8235000Y-10535000D02*
X8265000Y-10565000D01*
X8265000Y-10535000D02*
X8235000Y-10565000D01*
X8235000Y-10635000D02*
X8265000Y-10665000D01*
X8265000Y-10635000D02*
X8235000Y-10665000D01*
X8235000Y-10735000D02*
X8265000Y-10765000D01*
X8265000Y-10735000D02*
X8235000Y-10765000D01*
X8445000Y-11145000D02*
X8475000Y-11175000D01*
X8475000Y-11145000D02*
X8445000Y-11175000D01*
X8489305Y-11947883D02*
X8519305Y-11977883D01*
X8519305Y-11947883D02*
X8489305Y-11977883D01*
X8505000Y-10445000D02*
X8535000Y-10475000D01*
X8535000Y-10445000D02*
X8505000Y-10475000D01*
X8505000Y-10525000D02*
X8535000Y-10555000D01*
X8535000Y-10525000D02*
X8505000Y-10555000D01*
X8565000Y-11985000D02*
X8595000Y-12015000D01*
X8595000Y-11985000D02*
X8565000Y-12015000D01*
X8640000Y-10585000D02*
X8670000Y-10615000D01*
X8670000Y-10585000D02*
X8640000Y-10615000D01*
X8765000Y-10925000D02*
X8795000Y-10955000D01*
X8795000Y-10925000D02*
X8765000Y-10955000D01*
X8883238Y-11417709D02*
X8913238Y-11447709D01*
X8913238Y-11417709D02*
X8883238Y-11447709D01*
X8890000Y-10485000D02*
X8920000Y-10515000D01*
X8920000Y-10485000D02*
X8890000Y-10515000D01*
X8965638Y-11418121D02*
X8995638Y-11448121D01*
X8995638Y-11418121D02*
X8965638Y-11448121D01*
X8990000Y-10485000D02*
X9020000Y-10515000D01*
X9020000Y-10485000D02*
X8990000Y-10515000D01*
X9035852Y-11217252D02*
X9065852Y-11247252D01*
X9065852Y-11217252D02*
X9035852Y-11247252D01*
X9065000Y-12065000D02*
X9095000Y-12095000D01*
X9095000Y-12065000D02*
X9065000Y-12095000D01*
X9165000Y-11545000D02*
X9195000Y-11575000D01*
X9195000Y-11545000D02*
X9165000Y-11575000D01*
X9185000Y-11135000D02*
X9215000Y-11165000D01*
X9215000Y-11135000D02*
X9185000Y-11165000D01*
X9197500Y-12145000D02*
X9227500Y-12175000D01*
X9227500Y-12145000D02*
X9197500Y-12175000D01*
X9235000Y-10822500D02*
X9265000Y-10852500D01*
X9265000Y-10822500D02*
X9235000Y-10852500D01*
X9305000Y-11945000D02*
X9335000Y-11975000D01*
X9335000Y-11945000D02*
X9305000Y-11975000D01*
X9365000Y-11045000D02*
X9395000Y-11075000D01*
X9395000Y-11045000D02*
X9365000Y-11075000D01*
X9365000Y-11635000D02*
X9395000Y-11665000D01*
X9395000Y-11635000D02*
X9365000Y-11665000D01*
X9449597Y-10794194D02*
X9479597Y-10824194D01*
X9479597Y-10794194D02*
X9449597Y-10824194D01*
X9575000Y-11385000D02*
X9605000Y-11415000D01*
X9605000Y-11385000D02*
X9575000Y-11415000D01*
X9585000Y-11285000D02*
X9615000Y-11315000D01*
X9615000Y-11285000D02*
X9585000Y-11315000D01*
X9685000Y-10605000D02*
X9715000Y-10635000D01*
X9715000Y-10605000D02*
X9685000Y-10635000D01*
X9685000Y-11145000D02*
X9715000Y-11175000D01*
X9715000Y-11145000D02*
X9685000Y-11175000D01*
X9785000Y-10585000D02*
X9815000Y-10615000D01*
X9815000Y-10585000D02*
X9785000Y-10615000D01*
X9985000Y-10425000D02*
X10015000Y-10455000D01*
X10015000Y-10425000D02*
X9985000Y-10455000D01*
X10085000Y-10659000D02*
X10115000Y-10689000D01*
X10115000Y-10659000D02*
X10085000Y-10689000D01*
X10085000Y-10729000D02*
X10115000Y-10759000D01*
X10115000Y-10729000D02*
X10085000Y-10759000D01*
X10085000Y-10989000D02*
X10115000Y-11019000D01*
X10115000Y-10989000D02*
X10085000Y-11019000D01*
X10165000Y-10659000D02*
X10195000Y-10689000D01*
X10195000Y-10659000D02*
X10165000Y-10689000D01*
X10165000Y-10729000D02*
X10195000Y-10759000D01*
X10195000Y-10729000D02*
X10165000Y-10759000D01*
X10185000Y-10989000D02*
X10215000Y-11019000D01*
X10215000Y-10989000D02*
X10185000Y-11019000D01*
X10225000Y-11255000D02*
X10255000Y-11285000D01*
X10255000Y-11255000D02*
X10225000Y-11285000D01*
X4702500Y-10320000D02*
G75*
G02*
X4627500Y-10320000I-37500J0D01*
G01*
X4627500Y-10320000D02*
G75*
G02*
X4702500Y-10320000I37500J0D01*
G01*
X4702500Y-10520000D02*
G75*
G02*
X4627500Y-10520000I-37500J0D01*
G01*
X4627500Y-10520000D02*
G75*
G02*
X4702500Y-10520000I37500J0D01*
G01*
X4702500Y-10720000D02*
G75*
G02*
X4627500Y-10720000I-37500J0D01*
G01*
X4627500Y-10720000D02*
G75*
G02*
X4702500Y-10720000I37500J0D01*
G01*
X4702500Y-11240000D02*
G75*
G02*
X4627500Y-11240000I-37500J0D01*
G01*
X4627500Y-11240000D02*
G75*
G02*
X4702500Y-11240000I37500J0D01*
G01*
X4702500Y-11440000D02*
G75*
G02*
X4627500Y-11440000I-37500J0D01*
G01*
X4627500Y-11440000D02*
G75*
G02*
X4702500Y-11440000I37500J0D01*
G01*
X4702500Y-11640000D02*
G75*
G02*
X4627500Y-11640000I-37500J0D01*
G01*
X4627500Y-11640000D02*
G75*
G02*
X4702500Y-11640000I37500J0D01*
G01*
X5402500Y-10320000D02*
G75*
G02*
X5327500Y-10320000I-37500J0D01*
G01*
X5327500Y-10320000D02*
G75*
G02*
X5402500Y-10320000I37500J0D01*
G01*
X5402500Y-10520000D02*
G75*
G02*
X5327500Y-10520000I-37500J0D01*
G01*
X5327500Y-10520000D02*
G75*
G02*
X5402500Y-10520000I37500J0D01*
G01*
X5402500Y-10720000D02*
G75*
G02*
X5327500Y-10720000I-37500J0D01*
G01*
X5327500Y-10720000D02*
G75*
G02*
X5402500Y-10720000I37500J0D01*
G01*
X5402500Y-11240000D02*
G75*
G02*
X5327500Y-11240000I-37500J0D01*
G01*
X5327500Y-11240000D02*
G75*
G02*
X5402500Y-11240000I37500J0D01*
G01*
X5402500Y-11440000D02*
G75*
G02*
X5327500Y-11440000I-37500J0D01*
G01*
X5327500Y-11440000D02*
G75*
G02*
X5402500Y-11440000I37500J0D01*
G01*
X5402500Y-11640000D02*
G75*
G02*
X5327500Y-11640000I-37500J0D01*
G01*
X5327500Y-11640000D02*
G75*
G02*
X5402500Y-11640000I37500J0D01*
G01*
X6092500Y-11660000D02*
G75*
G02*
X6017500Y-11660000I-37500J0D01*
G01*
X6017500Y-11660000D02*
G75*
G02*
X6092500Y-11660000I37500J0D01*
G01*
X6092500Y-11860000D02*
G75*
G02*
X6017500Y-11860000I-37500J0D01*
G01*
X6017500Y-11860000D02*
G75*
G02*
X6092500Y-11860000I37500J0D01*
G01*
X9682500Y-11732500D02*
G75*
G02*
X9607500Y-11732500I-37500J0D01*
G01*
X9607500Y-11732500D02*
G75*
G02*
X9682500Y-11732500I37500J0D01*
G01*
X9682500Y-11932500D02*
G75*
G02*
X9607500Y-11932500I-37500J0D01*
G01*
X9607500Y-11932500D02*
G75*
G02*
X9682500Y-11932500I37500J0D01*
G01*
X9687500Y-9600000D02*
G75*
G02*
X9612500Y-9600000I-37500J0D01*
G01*
X9612500Y-9600000D02*
G75*
G02*
X9687500Y-9600000I37500J0D01*
G01*
X9687500Y-9800000D02*
G75*
G02*
X9612500Y-9800000I-37500J0D01*
G01*
X9612500Y-9800000D02*
G75*
G02*
X9687500Y-9800000I37500J0D01*
G01*
X9687500Y-10000000D02*
G75*
G02*
X9612500Y-10000000I-37500J0D01*
G01*
X9612500Y-10000000D02*
G75*
G02*
X9687500Y-10000000I37500J0D01*
G01*
X9687500Y-10200000D02*
G75*
G02*
X9612500Y-10200000I-37500J0D01*
G01*
X9612500Y-10200000D02*
G75*
G02*
X9687500Y-10200000I37500J0D01*
G01*
X6925000Y-9697000D02*
X6925000Y-9792000D01*
X6877500Y-9744500D02*
X6972500Y-9744500D01*
X7175000Y-9697000D02*
X7175000Y-9792000D01*
X7127500Y-9744500D02*
X7222500Y-9744500D01*
X7425000Y-9697000D02*
X7425000Y-9792000D01*
X7377500Y-9744500D02*
X7472500Y-9744500D01*
X7675000Y-9697000D02*
X7675000Y-9792000D01*
X7627500Y-9744500D02*
X7722500Y-9744500D01*
X8325000Y-9697000D02*
X8325000Y-9792000D01*
X8277500Y-9744500D02*
X8372500Y-9744500D01*
X8575000Y-9697000D02*
X8575000Y-9792000D01*
X8527500Y-9744500D02*
X8622500Y-9744500D01*
X8825000Y-9697000D02*
X8825000Y-9792000D01*
X8777500Y-9744500D02*
X8872500Y-9744500D01*
X9075000Y-9697000D02*
X9075000Y-9792000D01*
X9027500Y-9744500D02*
X9122500Y-9744500D01*
X5479856Y-9410356D02*
X5479856Y-9339644D01*
X5409144Y-9339644D01*
X5409144Y-9410356D01*
X5479856Y-9410356D01*
X5479856Y-9660356D02*
X5479856Y-9589644D01*
X5409144Y-9589644D01*
X5409144Y-9660356D01*
X5479856Y-9660356D01*
D12*
X4600000Y-12860000D02*
X4760000Y-12700000D01*
X4600000Y-12540000D01*
X4440000Y-12700000D01*
X4600000Y-12860000D01*
X6200000Y-9160000D02*
X6360000Y-9000000D01*
X6200000Y-8840000D01*
X6040000Y-9000000D01*
X6200000Y-9160000D01*
X10000000Y-9160000D02*
X10160000Y-9000000D01*
X10000000Y-8840000D01*
X9840000Y-9000000D01*
X10000000Y-9160000D01*
X10000000Y-12860000D02*
X10160000Y-12700000D01*
X10000000Y-12540000D01*
X9840000Y-12700000D01*
X10000000Y-12860000D01*
D10*
X8309470Y-11145370D02*
X8408530Y-11244430D01*
X8408530Y-11145370D02*
X8309470Y-11244430D01*
X8408530Y-11194900D02*
G75*
G02*
X8309470Y-11194900I-49530J0D01*
G01*
X8309470Y-11194900D02*
G75*
G02*
X8408530Y-11194900I49530J0D01*
G01*
X8309470Y-11348570D02*
X8408530Y-11447630D01*
X8408530Y-11348570D02*
X8309470Y-11447630D01*
X8408530Y-11398100D02*
G75*
G02*
X8309470Y-11398100I-49530J0D01*
G01*
X8309470Y-11398100D02*
G75*
G02*
X8408530Y-11398100I49530J0D01*
G01*
X8817470Y-11246970D02*
X8916530Y-11346030D01*
X8916530Y-11246970D02*
X8817470Y-11346030D01*
X8916530Y-11296500D02*
G75*
G02*
X8817470Y-11296500I-49530J0D01*
G01*
X8817470Y-11296500D02*
G75*
G02*
X8916530Y-11296500I49530J0D01*
G01*
D11*
X4455777Y-13416484D02*
X4455777Y-13216484D01*
X4455777Y-13216484D02*
X4503396Y-13216484D01*
X4503396Y-13216484D02*
X4531967Y-13226008D01*
X4531967Y-13226008D02*
X4551015Y-13245055D01*
X4551015Y-13245055D02*
X4560539Y-13264103D01*
X4560539Y-13264103D02*
X4570063Y-13302198D01*
X4570063Y-13302198D02*
X4570063Y-13330769D01*
X4570063Y-13330769D02*
X4560539Y-13368865D01*
X4560539Y-13368865D02*
X4551015Y-13387912D01*
X4551015Y-13387912D02*
X4531967Y-13406960D01*
X4531967Y-13406960D02*
X4503396Y-13416484D01*
X4503396Y-13416484D02*
X4455777Y-13416484D01*
X4655777Y-13416484D02*
X4655777Y-13283150D01*
X4655777Y-13321246D02*
X4665301Y-13302198D01*
X4665301Y-13302198D02*
X4674824Y-13292674D01*
X4674824Y-13292674D02*
X4693872Y-13283150D01*
X4693872Y-13283150D02*
X4712920Y-13283150D01*
X4779586Y-13416484D02*
X4779586Y-13283150D01*
X4779586Y-13216484D02*
X4770063Y-13226008D01*
X4770063Y-13226008D02*
X4779586Y-13235531D01*
X4779586Y-13235531D02*
X4789110Y-13226008D01*
X4789110Y-13226008D02*
X4779586Y-13216484D01*
X4779586Y-13216484D02*
X4779586Y-13235531D01*
X4903396Y-13416484D02*
X4884348Y-13406960D01*
X4884348Y-13406960D02*
X4874824Y-13387912D01*
X4874824Y-13387912D02*
X4874824Y-13216484D01*
X5008158Y-13416484D02*
X4989110Y-13406960D01*
X4989110Y-13406960D02*
X4979586Y-13387912D01*
X4979586Y-13387912D02*
X4979586Y-13216484D01*
X5236729Y-13416484D02*
X5236729Y-13216484D01*
X5236729Y-13216484D02*
X5303396Y-13359341D01*
X5303396Y-13359341D02*
X5370063Y-13216484D01*
X5370063Y-13216484D02*
X5370063Y-13416484D01*
X5551015Y-13416484D02*
X5551015Y-13311722D01*
X5551015Y-13311722D02*
X5541491Y-13292674D01*
X5541491Y-13292674D02*
X5522444Y-13283150D01*
X5522444Y-13283150D02*
X5484348Y-13283150D01*
X5484348Y-13283150D02*
X5465301Y-13292674D01*
X5551015Y-13406960D02*
X5531967Y-13416484D01*
X5531967Y-13416484D02*
X5484348Y-13416484D01*
X5484348Y-13416484D02*
X5465301Y-13406960D01*
X5465301Y-13406960D02*
X5455777Y-13387912D01*
X5455777Y-13387912D02*
X5455777Y-13368865D01*
X5455777Y-13368865D02*
X5465301Y-13349817D01*
X5465301Y-13349817D02*
X5484348Y-13340293D01*
X5484348Y-13340293D02*
X5531967Y-13340293D01*
X5531967Y-13340293D02*
X5551015Y-13330769D01*
X5646253Y-13283150D02*
X5646253Y-13483150D01*
X5646253Y-13292674D02*
X5665301Y-13283150D01*
X5665301Y-13283150D02*
X5703396Y-13283150D01*
X5703396Y-13283150D02*
X5722443Y-13292674D01*
X5722443Y-13292674D02*
X5731967Y-13302198D01*
X5731967Y-13302198D02*
X5741491Y-13321246D01*
X5741491Y-13321246D02*
X5741491Y-13378388D01*
X5741491Y-13378388D02*
X5731967Y-13397436D01*
X5731967Y-13397436D02*
X5722443Y-13406960D01*
X5722443Y-13406960D02*
X5703396Y-13416484D01*
X5703396Y-13416484D02*
X5665301Y-13416484D01*
X5665301Y-13416484D02*
X5646253Y-13406960D01*
X5827205Y-13397436D02*
X5836729Y-13406960D01*
X5836729Y-13406960D02*
X5827205Y-13416484D01*
X5827205Y-13416484D02*
X5817682Y-13406960D01*
X5817682Y-13406960D02*
X5827205Y-13397436D01*
X5827205Y-13397436D02*
X5827205Y-13416484D01*
X5827205Y-13292674D02*
X5836729Y-13302198D01*
X5836729Y-13302198D02*
X5827205Y-13311722D01*
X5827205Y-13311722D02*
X5817682Y-13302198D01*
X5817682Y-13302198D02*
X5827205Y-13292674D01*
X5827205Y-13292674D02*
X5827205Y-13311722D01*
D10*
X4165000Y-13730000D02*
X4195000Y-13760000D01*
X4195000Y-13730000D02*
X4165000Y-13760000D01*
D11*
X4493872Y-13636484D02*
X4512920Y-13636484D01*
X4512920Y-13636484D02*
X4531967Y-13646008D01*
X4531967Y-13646008D02*
X4541491Y-13655531D01*
X4541491Y-13655531D02*
X4551015Y-13674579D01*
X4551015Y-13674579D02*
X4560539Y-13712674D01*
X4560539Y-13712674D02*
X4560539Y-13760293D01*
X4560539Y-13760293D02*
X4551015Y-13798388D01*
X4551015Y-13798388D02*
X4541491Y-13817436D01*
X4541491Y-13817436D02*
X4531967Y-13826960D01*
X4531967Y-13826960D02*
X4512920Y-13836484D01*
X4512920Y-13836484D02*
X4493872Y-13836484D01*
X4493872Y-13836484D02*
X4474824Y-13826960D01*
X4474824Y-13826960D02*
X4465301Y-13817436D01*
X4465301Y-13817436D02*
X4455777Y-13798388D01*
X4455777Y-13798388D02*
X4446253Y-13760293D01*
X4446253Y-13760293D02*
X4446253Y-13712674D01*
X4446253Y-13712674D02*
X4455777Y-13674579D01*
X4455777Y-13674579D02*
X4465301Y-13655531D01*
X4465301Y-13655531D02*
X4474824Y-13646008D01*
X4474824Y-13646008D02*
X4493872Y-13636484D01*
X4646253Y-13817436D02*
X4655777Y-13826960D01*
X4655777Y-13826960D02*
X4646253Y-13836484D01*
X4646253Y-13836484D02*
X4636729Y-13826960D01*
X4636729Y-13826960D02*
X4646253Y-13817436D01*
X4646253Y-13817436D02*
X4646253Y-13836484D01*
X4722444Y-13636484D02*
X4846253Y-13636484D01*
X4846253Y-13636484D02*
X4779586Y-13712674D01*
X4779586Y-13712674D02*
X4808158Y-13712674D01*
X4808158Y-13712674D02*
X4827205Y-13722198D01*
X4827205Y-13722198D02*
X4836729Y-13731722D01*
X4836729Y-13731722D02*
X4846253Y-13750769D01*
X4846253Y-13750769D02*
X4846253Y-13798388D01*
X4846253Y-13798388D02*
X4836729Y-13817436D01*
X4836729Y-13817436D02*
X4827205Y-13826960D01*
X4827205Y-13826960D02*
X4808158Y-13836484D01*
X4808158Y-13836484D02*
X4751015Y-13836484D01*
X4751015Y-13836484D02*
X4731967Y-13826960D01*
X4731967Y-13826960D02*
X4722444Y-13817436D01*
X4970063Y-13636484D02*
X4989110Y-13636484D01*
X4989110Y-13636484D02*
X5008158Y-13646008D01*
X5008158Y-13646008D02*
X5017682Y-13655531D01*
X5017682Y-13655531D02*
X5027205Y-13674579D01*
X5027205Y-13674579D02*
X5036729Y-13712674D01*
X5036729Y-13712674D02*
X5036729Y-13760293D01*
X5036729Y-13760293D02*
X5027205Y-13798388D01*
X5027205Y-13798388D02*
X5017682Y-13817436D01*
X5017682Y-13817436D02*
X5008158Y-13826960D01*
X5008158Y-13826960D02*
X4989110Y-13836484D01*
X4989110Y-13836484D02*
X4970063Y-13836484D01*
X4970063Y-13836484D02*
X4951015Y-13826960D01*
X4951015Y-13826960D02*
X4941491Y-13817436D01*
X4941491Y-13817436D02*
X4931967Y-13798388D01*
X4931967Y-13798388D02*
X4922444Y-13760293D01*
X4922444Y-13760293D02*
X4922444Y-13712674D01*
X4922444Y-13712674D02*
X4931967Y-13674579D01*
X4931967Y-13674579D02*
X4941491Y-13655531D01*
X4941491Y-13655531D02*
X4951015Y-13646008D01*
X4951015Y-13646008D02*
X4970063Y-13636484D01*
X5160539Y-13636484D02*
X5179586Y-13636484D01*
X5179586Y-13636484D02*
X5198634Y-13646008D01*
X5198634Y-13646008D02*
X5208158Y-13655531D01*
X5208158Y-13655531D02*
X5217682Y-13674579D01*
X5217682Y-13674579D02*
X5227205Y-13712674D01*
X5227205Y-13712674D02*
X5227205Y-13760293D01*
X5227205Y-13760293D02*
X5217682Y-13798388D01*
X5217682Y-13798388D02*
X5208158Y-13817436D01*
X5208158Y-13817436D02*
X5198634Y-13826960D01*
X5198634Y-13826960D02*
X5179586Y-13836484D01*
X5179586Y-13836484D02*
X5160539Y-13836484D01*
X5160539Y-13836484D02*
X5141491Y-13826960D01*
X5141491Y-13826960D02*
X5131967Y-13817436D01*
X5131967Y-13817436D02*
X5122444Y-13798388D01*
X5122444Y-13798388D02*
X5112920Y-13760293D01*
X5112920Y-13760293D02*
X5112920Y-13712674D01*
X5112920Y-13712674D02*
X5122444Y-13674579D01*
X5122444Y-13674579D02*
X5131967Y-13655531D01*
X5131967Y-13655531D02*
X5141491Y-13646008D01*
X5141491Y-13646008D02*
X5160539Y-13636484D01*
X5312920Y-13836484D02*
X5312920Y-13703150D01*
X5312920Y-13722198D02*
X5322444Y-13712674D01*
X5322444Y-13712674D02*
X5341491Y-13703150D01*
X5341491Y-13703150D02*
X5370063Y-13703150D01*
X5370063Y-13703150D02*
X5389110Y-13712674D01*
X5389110Y-13712674D02*
X5398634Y-13731722D01*
X5398634Y-13731722D02*
X5398634Y-13836484D01*
X5398634Y-13731722D02*
X5408158Y-13712674D01*
X5408158Y-13712674D02*
X5427205Y-13703150D01*
X5427205Y-13703150D02*
X5455777Y-13703150D01*
X5455777Y-13703150D02*
X5474825Y-13712674D01*
X5474825Y-13712674D02*
X5484348Y-13731722D01*
X5484348Y-13731722D02*
X5484348Y-13836484D01*
X5579586Y-13836484D02*
X5579586Y-13703150D01*
X5579586Y-13722198D02*
X5589110Y-13712674D01*
X5589110Y-13712674D02*
X5608158Y-13703150D01*
X5608158Y-13703150D02*
X5636729Y-13703150D01*
X5636729Y-13703150D02*
X5655777Y-13712674D01*
X5655777Y-13712674D02*
X5665301Y-13731722D01*
X5665301Y-13731722D02*
X5665301Y-13836484D01*
X5665301Y-13731722D02*
X5674824Y-13712674D01*
X5674824Y-13712674D02*
X5693872Y-13703150D01*
X5693872Y-13703150D02*
X5722443Y-13703150D01*
X5722443Y-13703150D02*
X5741491Y-13712674D01*
X5741491Y-13712674D02*
X5751015Y-13731722D01*
X5751015Y-13731722D02*
X5751015Y-13836484D01*
X6141491Y-13626960D02*
X5970063Y-13884103D01*
X6398634Y-13636484D02*
X6417682Y-13636484D01*
X6417682Y-13636484D02*
X6436729Y-13646008D01*
X6436729Y-13646008D02*
X6446253Y-13655531D01*
X6446253Y-13655531D02*
X6455777Y-13674579D01*
X6455777Y-13674579D02*
X6465301Y-13712674D01*
X6465301Y-13712674D02*
X6465301Y-13760293D01*
X6465301Y-13760293D02*
X6455777Y-13798388D01*
X6455777Y-13798388D02*
X6446253Y-13817436D01*
X6446253Y-13817436D02*
X6436729Y-13826960D01*
X6436729Y-13826960D02*
X6417682Y-13836484D01*
X6417682Y-13836484D02*
X6398634Y-13836484D01*
X6398634Y-13836484D02*
X6379586Y-13826960D01*
X6379586Y-13826960D02*
X6370063Y-13817436D01*
X6370063Y-13817436D02*
X6360539Y-13798388D01*
X6360539Y-13798388D02*
X6351015Y-13760293D01*
X6351015Y-13760293D02*
X6351015Y-13712674D01*
X6351015Y-13712674D02*
X6360539Y-13674579D01*
X6360539Y-13674579D02*
X6370063Y-13655531D01*
X6370063Y-13655531D02*
X6379586Y-13646008D01*
X6379586Y-13646008D02*
X6398634Y-13636484D01*
X6551015Y-13817436D02*
X6560539Y-13826960D01*
X6560539Y-13826960D02*
X6551015Y-13836484D01*
X6551015Y-13836484D02*
X6541491Y-13826960D01*
X6541491Y-13826960D02*
X6551015Y-13817436D01*
X6551015Y-13817436D02*
X6551015Y-13836484D01*
X6684348Y-13636484D02*
X6703396Y-13636484D01*
X6703396Y-13636484D02*
X6722444Y-13646008D01*
X6722444Y-13646008D02*
X6731967Y-13655531D01*
X6731967Y-13655531D02*
X6741491Y-13674579D01*
X6741491Y-13674579D02*
X6751015Y-13712674D01*
X6751015Y-13712674D02*
X6751015Y-13760293D01*
X6751015Y-13760293D02*
X6741491Y-13798388D01*
X6741491Y-13798388D02*
X6731967Y-13817436D01*
X6731967Y-13817436D02*
X6722444Y-13826960D01*
X6722444Y-13826960D02*
X6703396Y-13836484D01*
X6703396Y-13836484D02*
X6684348Y-13836484D01*
X6684348Y-13836484D02*
X6665301Y-13826960D01*
X6665301Y-13826960D02*
X6655777Y-13817436D01*
X6655777Y-13817436D02*
X6646253Y-13798388D01*
X6646253Y-13798388D02*
X6636729Y-13760293D01*
X6636729Y-13760293D02*
X6636729Y-13712674D01*
X6636729Y-13712674D02*
X6646253Y-13674579D01*
X6646253Y-13674579D02*
X6655777Y-13655531D01*
X6655777Y-13655531D02*
X6665301Y-13646008D01*
X6665301Y-13646008D02*
X6684348Y-13636484D01*
X6941491Y-13836484D02*
X6827206Y-13836484D01*
X6884348Y-13836484D02*
X6884348Y-13636484D01*
X6884348Y-13636484D02*
X6865301Y-13665055D01*
X6865301Y-13665055D02*
X6846253Y-13684103D01*
X6846253Y-13684103D02*
X6827206Y-13693627D01*
X7131967Y-13836484D02*
X7017682Y-13836484D01*
X7074825Y-13836484D02*
X7074825Y-13636484D01*
X7074825Y-13636484D02*
X7055777Y-13665055D01*
X7055777Y-13665055D02*
X7036729Y-13684103D01*
X7036729Y-13684103D02*
X7017682Y-13693627D01*
X7246253Y-13722198D02*
X7227206Y-13712674D01*
X7227206Y-13712674D02*
X7217682Y-13703150D01*
X7217682Y-13703150D02*
X7208158Y-13684103D01*
X7208158Y-13684103D02*
X7208158Y-13674579D01*
X7208158Y-13674579D02*
X7217682Y-13655531D01*
X7217682Y-13655531D02*
X7227206Y-13646008D01*
X7227206Y-13646008D02*
X7246253Y-13636484D01*
X7246253Y-13636484D02*
X7284348Y-13636484D01*
X7284348Y-13636484D02*
X7303396Y-13646008D01*
X7303396Y-13646008D02*
X7312920Y-13655531D01*
X7312920Y-13655531D02*
X7322444Y-13674579D01*
X7322444Y-13674579D02*
X7322444Y-13684103D01*
X7322444Y-13684103D02*
X7312920Y-13703150D01*
X7312920Y-13703150D02*
X7303396Y-13712674D01*
X7303396Y-13712674D02*
X7284348Y-13722198D01*
X7284348Y-13722198D02*
X7246253Y-13722198D01*
X7246253Y-13722198D02*
X7227206Y-13731722D01*
X7227206Y-13731722D02*
X7217682Y-13741246D01*
X7217682Y-13741246D02*
X7208158Y-13760293D01*
X7208158Y-13760293D02*
X7208158Y-13798388D01*
X7208158Y-13798388D02*
X7217682Y-13817436D01*
X7217682Y-13817436D02*
X7227206Y-13826960D01*
X7227206Y-13826960D02*
X7246253Y-13836484D01*
X7246253Y-13836484D02*
X7284348Y-13836484D01*
X7284348Y-13836484D02*
X7303396Y-13826960D01*
X7303396Y-13826960D02*
X7312920Y-13817436D01*
X7312920Y-13817436D02*
X7322444Y-13798388D01*
X7322444Y-13798388D02*
X7322444Y-13760293D01*
X7322444Y-13760293D02*
X7312920Y-13741246D01*
X7312920Y-13741246D02*
X7303396Y-13731722D01*
X7303396Y-13731722D02*
X7284348Y-13722198D01*
X7398634Y-13636484D02*
X7398634Y-13674579D01*
X7474825Y-13636484D02*
X7474825Y-13674579D01*
X7770063Y-13912674D02*
X7760539Y-13903150D01*
X7760539Y-13903150D02*
X7741491Y-13874579D01*
X7741491Y-13874579D02*
X7731968Y-13855531D01*
X7731968Y-13855531D02*
X7722444Y-13826960D01*
X7722444Y-13826960D02*
X7712920Y-13779341D01*
X7712920Y-13779341D02*
X7712920Y-13741246D01*
X7712920Y-13741246D02*
X7722444Y-13693627D01*
X7722444Y-13693627D02*
X7731968Y-13665055D01*
X7731968Y-13665055D02*
X7741491Y-13646008D01*
X7741491Y-13646008D02*
X7760539Y-13617436D01*
X7760539Y-13617436D02*
X7770063Y-13607912D01*
X7951015Y-13836484D02*
X7836729Y-13836484D01*
X7893872Y-13836484D02*
X7893872Y-13636484D01*
X7893872Y-13636484D02*
X7874825Y-13665055D01*
X7874825Y-13665055D02*
X7855777Y-13684103D01*
X7855777Y-13684103D02*
X7836729Y-13693627D01*
X8122444Y-13703150D02*
X8122444Y-13836484D01*
X8074825Y-13626960D02*
X8027206Y-13769817D01*
X8027206Y-13769817D02*
X8151015Y-13769817D01*
X8217682Y-13655531D02*
X8227206Y-13646008D01*
X8227206Y-13646008D02*
X8246253Y-13636484D01*
X8246253Y-13636484D02*
X8293872Y-13636484D01*
X8293872Y-13636484D02*
X8312920Y-13646008D01*
X8312920Y-13646008D02*
X8322444Y-13655531D01*
X8322444Y-13655531D02*
X8331968Y-13674579D01*
X8331968Y-13674579D02*
X8331968Y-13693627D01*
X8331968Y-13693627D02*
X8322444Y-13722198D01*
X8322444Y-13722198D02*
X8208158Y-13836484D01*
X8208158Y-13836484D02*
X8331968Y-13836484D01*
X8570063Y-13836484D02*
X8570063Y-13636484D01*
X8655777Y-13836484D02*
X8655777Y-13731722D01*
X8655777Y-13731722D02*
X8646253Y-13712674D01*
X8646253Y-13712674D02*
X8627206Y-13703150D01*
X8627206Y-13703150D02*
X8598634Y-13703150D01*
X8598634Y-13703150D02*
X8579587Y-13712674D01*
X8579587Y-13712674D02*
X8570063Y-13722198D01*
X8779587Y-13836484D02*
X8760539Y-13826960D01*
X8760539Y-13826960D02*
X8751015Y-13817436D01*
X8751015Y-13817436D02*
X8741492Y-13798388D01*
X8741492Y-13798388D02*
X8741492Y-13741246D01*
X8741492Y-13741246D02*
X8751015Y-13722198D01*
X8751015Y-13722198D02*
X8760539Y-13712674D01*
X8760539Y-13712674D02*
X8779587Y-13703150D01*
X8779587Y-13703150D02*
X8808158Y-13703150D01*
X8808158Y-13703150D02*
X8827206Y-13712674D01*
X8827206Y-13712674D02*
X8836730Y-13722198D01*
X8836730Y-13722198D02*
X8846253Y-13741246D01*
X8846253Y-13741246D02*
X8846253Y-13798388D01*
X8846253Y-13798388D02*
X8836730Y-13817436D01*
X8836730Y-13817436D02*
X8827206Y-13826960D01*
X8827206Y-13826960D02*
X8808158Y-13836484D01*
X8808158Y-13836484D02*
X8779587Y-13836484D01*
X8960539Y-13836484D02*
X8941492Y-13826960D01*
X8941492Y-13826960D02*
X8931968Y-13807912D01*
X8931968Y-13807912D02*
X8931968Y-13636484D01*
X9112920Y-13826960D02*
X9093873Y-13836484D01*
X9093873Y-13836484D02*
X9055777Y-13836484D01*
X9055777Y-13836484D02*
X9036730Y-13826960D01*
X9036730Y-13826960D02*
X9027206Y-13807912D01*
X9027206Y-13807912D02*
X9027206Y-13731722D01*
X9027206Y-13731722D02*
X9036730Y-13712674D01*
X9036730Y-13712674D02*
X9055777Y-13703150D01*
X9055777Y-13703150D02*
X9093873Y-13703150D01*
X9093873Y-13703150D02*
X9112920Y-13712674D01*
X9112920Y-13712674D02*
X9122444Y-13731722D01*
X9122444Y-13731722D02*
X9122444Y-13750769D01*
X9122444Y-13750769D02*
X9027206Y-13769817D01*
X9198634Y-13826960D02*
X9217682Y-13836484D01*
X9217682Y-13836484D02*
X9255777Y-13836484D01*
X9255777Y-13836484D02*
X9274825Y-13826960D01*
X9274825Y-13826960D02*
X9284349Y-13807912D01*
X9284349Y-13807912D02*
X9284349Y-13798388D01*
X9284349Y-13798388D02*
X9274825Y-13779341D01*
X9274825Y-13779341D02*
X9255777Y-13769817D01*
X9255777Y-13769817D02*
X9227206Y-13769817D01*
X9227206Y-13769817D02*
X9208158Y-13760293D01*
X9208158Y-13760293D02*
X9198634Y-13741246D01*
X9198634Y-13741246D02*
X9198634Y-13731722D01*
X9198634Y-13731722D02*
X9208158Y-13712674D01*
X9208158Y-13712674D02*
X9227206Y-13703150D01*
X9227206Y-13703150D02*
X9255777Y-13703150D01*
X9255777Y-13703150D02*
X9274825Y-13712674D01*
X9351015Y-13912674D02*
X9360539Y-13903150D01*
X9360539Y-13903150D02*
X9379587Y-13874579D01*
X9379587Y-13874579D02*
X9389111Y-13855531D01*
X9389111Y-13855531D02*
X9398634Y-13826960D01*
X9398634Y-13826960D02*
X9408158Y-13779341D01*
X9408158Y-13779341D02*
X9408158Y-13741246D01*
X9408158Y-13741246D02*
X9398634Y-13693627D01*
X9398634Y-13693627D02*
X9389111Y-13665055D01*
X9389111Y-13665055D02*
X9379587Y-13646008D01*
X9379587Y-13646008D02*
X9360539Y-13617436D01*
X9360539Y-13617436D02*
X9351015Y-13607912D01*
D10*
X4195000Y-14009000D02*
G75*
G02*
X4120000Y-14009000I-37500J0D01*
G01*
X4120000Y-14009000D02*
G75*
G02*
X4195000Y-14009000I37500J0D01*
G01*
D11*
X4493872Y-13900484D02*
X4512920Y-13900484D01*
X4512920Y-13900484D02*
X4531967Y-13910008D01*
X4531967Y-13910008D02*
X4541491Y-13919531D01*
X4541491Y-13919531D02*
X4551015Y-13938579D01*
X4551015Y-13938579D02*
X4560539Y-13976674D01*
X4560539Y-13976674D02*
X4560539Y-14024293D01*
X4560539Y-14024293D02*
X4551015Y-14062388D01*
X4551015Y-14062388D02*
X4541491Y-14081436D01*
X4541491Y-14081436D02*
X4531967Y-14090960D01*
X4531967Y-14090960D02*
X4512920Y-14100484D01*
X4512920Y-14100484D02*
X4493872Y-14100484D01*
X4493872Y-14100484D02*
X4474824Y-14090960D01*
X4474824Y-14090960D02*
X4465301Y-14081436D01*
X4465301Y-14081436D02*
X4455777Y-14062388D01*
X4455777Y-14062388D02*
X4446253Y-14024293D01*
X4446253Y-14024293D02*
X4446253Y-13976674D01*
X4446253Y-13976674D02*
X4455777Y-13938579D01*
X4455777Y-13938579D02*
X4465301Y-13919531D01*
X4465301Y-13919531D02*
X4474824Y-13910008D01*
X4474824Y-13910008D02*
X4493872Y-13900484D01*
X4646253Y-14081436D02*
X4655777Y-14090960D01*
X4655777Y-14090960D02*
X4646253Y-14100484D01*
X4646253Y-14100484D02*
X4636729Y-14090960D01*
X4636729Y-14090960D02*
X4646253Y-14081436D01*
X4646253Y-14081436D02*
X4646253Y-14100484D01*
X4722444Y-13900484D02*
X4855777Y-13900484D01*
X4855777Y-13900484D02*
X4770063Y-14100484D01*
X5027205Y-13900484D02*
X4931967Y-13900484D01*
X4931967Y-13900484D02*
X4922444Y-13995722D01*
X4922444Y-13995722D02*
X4931967Y-13986198D01*
X4931967Y-13986198D02*
X4951015Y-13976674D01*
X4951015Y-13976674D02*
X4998634Y-13976674D01*
X4998634Y-13976674D02*
X5017682Y-13986198D01*
X5017682Y-13986198D02*
X5027205Y-13995722D01*
X5027205Y-13995722D02*
X5036729Y-14014769D01*
X5036729Y-14014769D02*
X5036729Y-14062388D01*
X5036729Y-14062388D02*
X5027205Y-14081436D01*
X5027205Y-14081436D02*
X5017682Y-14090960D01*
X5017682Y-14090960D02*
X4998634Y-14100484D01*
X4998634Y-14100484D02*
X4951015Y-14100484D01*
X4951015Y-14100484D02*
X4931967Y-14090960D01*
X4931967Y-14090960D02*
X4922444Y-14081436D01*
X5160539Y-13900484D02*
X5179586Y-13900484D01*
X5179586Y-13900484D02*
X5198634Y-13910008D01*
X5198634Y-13910008D02*
X5208158Y-13919531D01*
X5208158Y-13919531D02*
X5217682Y-13938579D01*
X5217682Y-13938579D02*
X5227205Y-13976674D01*
X5227205Y-13976674D02*
X5227205Y-14024293D01*
X5227205Y-14024293D02*
X5217682Y-14062388D01*
X5217682Y-14062388D02*
X5208158Y-14081436D01*
X5208158Y-14081436D02*
X5198634Y-14090960D01*
X5198634Y-14090960D02*
X5179586Y-14100484D01*
X5179586Y-14100484D02*
X5160539Y-14100484D01*
X5160539Y-14100484D02*
X5141491Y-14090960D01*
X5141491Y-14090960D02*
X5131967Y-14081436D01*
X5131967Y-14081436D02*
X5122444Y-14062388D01*
X5122444Y-14062388D02*
X5112920Y-14024293D01*
X5112920Y-14024293D02*
X5112920Y-13976674D01*
X5112920Y-13976674D02*
X5122444Y-13938579D01*
X5122444Y-13938579D02*
X5131967Y-13919531D01*
X5131967Y-13919531D02*
X5141491Y-13910008D01*
X5141491Y-13910008D02*
X5160539Y-13900484D01*
X5312920Y-14100484D02*
X5312920Y-13967150D01*
X5312920Y-13986198D02*
X5322444Y-13976674D01*
X5322444Y-13976674D02*
X5341491Y-13967150D01*
X5341491Y-13967150D02*
X5370063Y-13967150D01*
X5370063Y-13967150D02*
X5389110Y-13976674D01*
X5389110Y-13976674D02*
X5398634Y-13995722D01*
X5398634Y-13995722D02*
X5398634Y-14100484D01*
X5398634Y-13995722D02*
X5408158Y-13976674D01*
X5408158Y-13976674D02*
X5427205Y-13967150D01*
X5427205Y-13967150D02*
X5455777Y-13967150D01*
X5455777Y-13967150D02*
X5474825Y-13976674D01*
X5474825Y-13976674D02*
X5484348Y-13995722D01*
X5484348Y-13995722D02*
X5484348Y-14100484D01*
X5579586Y-14100484D02*
X5579586Y-13967150D01*
X5579586Y-13986198D02*
X5589110Y-13976674D01*
X5589110Y-13976674D02*
X5608158Y-13967150D01*
X5608158Y-13967150D02*
X5636729Y-13967150D01*
X5636729Y-13967150D02*
X5655777Y-13976674D01*
X5655777Y-13976674D02*
X5665301Y-13995722D01*
X5665301Y-13995722D02*
X5665301Y-14100484D01*
X5665301Y-13995722D02*
X5674824Y-13976674D01*
X5674824Y-13976674D02*
X5693872Y-13967150D01*
X5693872Y-13967150D02*
X5722443Y-13967150D01*
X5722443Y-13967150D02*
X5741491Y-13976674D01*
X5741491Y-13976674D02*
X5751015Y-13995722D01*
X5751015Y-13995722D02*
X5751015Y-14100484D01*
X6141491Y-13890960D02*
X5970063Y-14148103D01*
X6398634Y-13900484D02*
X6417682Y-13900484D01*
X6417682Y-13900484D02*
X6436729Y-13910008D01*
X6436729Y-13910008D02*
X6446253Y-13919531D01*
X6446253Y-13919531D02*
X6455777Y-13938579D01*
X6455777Y-13938579D02*
X6465301Y-13976674D01*
X6465301Y-13976674D02*
X6465301Y-14024293D01*
X6465301Y-14024293D02*
X6455777Y-14062388D01*
X6455777Y-14062388D02*
X6446253Y-14081436D01*
X6446253Y-14081436D02*
X6436729Y-14090960D01*
X6436729Y-14090960D02*
X6417682Y-14100484D01*
X6417682Y-14100484D02*
X6398634Y-14100484D01*
X6398634Y-14100484D02*
X6379586Y-14090960D01*
X6379586Y-14090960D02*
X6370063Y-14081436D01*
X6370063Y-14081436D02*
X6360539Y-14062388D01*
X6360539Y-14062388D02*
X6351015Y-14024293D01*
X6351015Y-14024293D02*
X6351015Y-13976674D01*
X6351015Y-13976674D02*
X6360539Y-13938579D01*
X6360539Y-13938579D02*
X6370063Y-13919531D01*
X6370063Y-13919531D02*
X6379586Y-13910008D01*
X6379586Y-13910008D02*
X6398634Y-13900484D01*
X6551015Y-14081436D02*
X6560539Y-14090960D01*
X6560539Y-14090960D02*
X6551015Y-14100484D01*
X6551015Y-14100484D02*
X6541491Y-14090960D01*
X6541491Y-14090960D02*
X6551015Y-14081436D01*
X6551015Y-14081436D02*
X6551015Y-14100484D01*
X6684348Y-13900484D02*
X6703396Y-13900484D01*
X6703396Y-13900484D02*
X6722444Y-13910008D01*
X6722444Y-13910008D02*
X6731967Y-13919531D01*
X6731967Y-13919531D02*
X6741491Y-13938579D01*
X6741491Y-13938579D02*
X6751015Y-13976674D01*
X6751015Y-13976674D02*
X6751015Y-14024293D01*
X6751015Y-14024293D02*
X6741491Y-14062388D01*
X6741491Y-14062388D02*
X6731967Y-14081436D01*
X6731967Y-14081436D02*
X6722444Y-14090960D01*
X6722444Y-14090960D02*
X6703396Y-14100484D01*
X6703396Y-14100484D02*
X6684348Y-14100484D01*
X6684348Y-14100484D02*
X6665301Y-14090960D01*
X6665301Y-14090960D02*
X6655777Y-14081436D01*
X6655777Y-14081436D02*
X6646253Y-14062388D01*
X6646253Y-14062388D02*
X6636729Y-14024293D01*
X6636729Y-14024293D02*
X6636729Y-13976674D01*
X6636729Y-13976674D02*
X6646253Y-13938579D01*
X6646253Y-13938579D02*
X6655777Y-13919531D01*
X6655777Y-13919531D02*
X6665301Y-13910008D01*
X6665301Y-13910008D02*
X6684348Y-13900484D01*
X6827206Y-13919531D02*
X6836729Y-13910008D01*
X6836729Y-13910008D02*
X6855777Y-13900484D01*
X6855777Y-13900484D02*
X6903396Y-13900484D01*
X6903396Y-13900484D02*
X6922444Y-13910008D01*
X6922444Y-13910008D02*
X6931967Y-13919531D01*
X6931967Y-13919531D02*
X6941491Y-13938579D01*
X6941491Y-13938579D02*
X6941491Y-13957627D01*
X6941491Y-13957627D02*
X6931967Y-13986198D01*
X6931967Y-13986198D02*
X6817682Y-14100484D01*
X6817682Y-14100484D02*
X6941491Y-14100484D01*
X7036729Y-14100484D02*
X7074825Y-14100484D01*
X7074825Y-14100484D02*
X7093872Y-14090960D01*
X7093872Y-14090960D02*
X7103396Y-14081436D01*
X7103396Y-14081436D02*
X7122444Y-14052865D01*
X7122444Y-14052865D02*
X7131967Y-14014769D01*
X7131967Y-14014769D02*
X7131967Y-13938579D01*
X7131967Y-13938579D02*
X7122444Y-13919531D01*
X7122444Y-13919531D02*
X7112920Y-13910008D01*
X7112920Y-13910008D02*
X7093872Y-13900484D01*
X7093872Y-13900484D02*
X7055777Y-13900484D01*
X7055777Y-13900484D02*
X7036729Y-13910008D01*
X7036729Y-13910008D02*
X7027206Y-13919531D01*
X7027206Y-13919531D02*
X7017682Y-13938579D01*
X7017682Y-13938579D02*
X7017682Y-13986198D01*
X7017682Y-13986198D02*
X7027206Y-14005246D01*
X7027206Y-14005246D02*
X7036729Y-14014769D01*
X7036729Y-14014769D02*
X7055777Y-14024293D01*
X7055777Y-14024293D02*
X7093872Y-14024293D01*
X7093872Y-14024293D02*
X7112920Y-14014769D01*
X7112920Y-14014769D02*
X7122444Y-14005246D01*
X7122444Y-14005246D02*
X7131967Y-13986198D01*
X7312920Y-13900484D02*
X7217682Y-13900484D01*
X7217682Y-13900484D02*
X7208158Y-13995722D01*
X7208158Y-13995722D02*
X7217682Y-13986198D01*
X7217682Y-13986198D02*
X7236729Y-13976674D01*
X7236729Y-13976674D02*
X7284348Y-13976674D01*
X7284348Y-13976674D02*
X7303396Y-13986198D01*
X7303396Y-13986198D02*
X7312920Y-13995722D01*
X7312920Y-13995722D02*
X7322444Y-14014769D01*
X7322444Y-14014769D02*
X7322444Y-14062388D01*
X7322444Y-14062388D02*
X7312920Y-14081436D01*
X7312920Y-14081436D02*
X7303396Y-14090960D01*
X7303396Y-14090960D02*
X7284348Y-14100484D01*
X7284348Y-14100484D02*
X7236729Y-14100484D01*
X7236729Y-14100484D02*
X7217682Y-14090960D01*
X7217682Y-14090960D02*
X7208158Y-14081436D01*
X7398634Y-13900484D02*
X7398634Y-13938579D01*
X7474825Y-13900484D02*
X7474825Y-13938579D01*
X7770063Y-14176674D02*
X7760539Y-14167150D01*
X7760539Y-14167150D02*
X7741491Y-14138579D01*
X7741491Y-14138579D02*
X7731968Y-14119531D01*
X7731968Y-14119531D02*
X7722444Y-14090960D01*
X7722444Y-14090960D02*
X7712920Y-14043341D01*
X7712920Y-14043341D02*
X7712920Y-14005246D01*
X7712920Y-14005246D02*
X7722444Y-13957627D01*
X7722444Y-13957627D02*
X7731968Y-13929055D01*
X7731968Y-13929055D02*
X7741491Y-13910008D01*
X7741491Y-13910008D02*
X7760539Y-13881436D01*
X7760539Y-13881436D02*
X7770063Y-13871912D01*
X7836729Y-13919531D02*
X7846253Y-13910008D01*
X7846253Y-13910008D02*
X7865301Y-13900484D01*
X7865301Y-13900484D02*
X7912920Y-13900484D01*
X7912920Y-13900484D02*
X7931968Y-13910008D01*
X7931968Y-13910008D02*
X7941491Y-13919531D01*
X7941491Y-13919531D02*
X7951015Y-13938579D01*
X7951015Y-13938579D02*
X7951015Y-13957627D01*
X7951015Y-13957627D02*
X7941491Y-13986198D01*
X7941491Y-13986198D02*
X7827206Y-14100484D01*
X7827206Y-14100484D02*
X7951015Y-14100484D01*
X8074825Y-13900484D02*
X8093872Y-13900484D01*
X8093872Y-13900484D02*
X8112920Y-13910008D01*
X8112920Y-13910008D02*
X8122444Y-13919531D01*
X8122444Y-13919531D02*
X8131968Y-13938579D01*
X8131968Y-13938579D02*
X8141491Y-13976674D01*
X8141491Y-13976674D02*
X8141491Y-14024293D01*
X8141491Y-14024293D02*
X8131968Y-14062388D01*
X8131968Y-14062388D02*
X8122444Y-14081436D01*
X8122444Y-14081436D02*
X8112920Y-14090960D01*
X8112920Y-14090960D02*
X8093872Y-14100484D01*
X8093872Y-14100484D02*
X8074825Y-14100484D01*
X8074825Y-14100484D02*
X8055777Y-14090960D01*
X8055777Y-14090960D02*
X8046253Y-14081436D01*
X8046253Y-14081436D02*
X8036729Y-14062388D01*
X8036729Y-14062388D02*
X8027206Y-14024293D01*
X8027206Y-14024293D02*
X8027206Y-13976674D01*
X8027206Y-13976674D02*
X8036729Y-13938579D01*
X8036729Y-13938579D02*
X8046253Y-13919531D01*
X8046253Y-13919531D02*
X8055777Y-13910008D01*
X8055777Y-13910008D02*
X8074825Y-13900484D01*
X8379587Y-14100484D02*
X8379587Y-13900484D01*
X8465301Y-14100484D02*
X8465301Y-13995722D01*
X8465301Y-13995722D02*
X8455777Y-13976674D01*
X8455777Y-13976674D02*
X8436730Y-13967150D01*
X8436730Y-13967150D02*
X8408158Y-13967150D01*
X8408158Y-13967150D02*
X8389111Y-13976674D01*
X8389111Y-13976674D02*
X8379587Y-13986198D01*
X8589111Y-14100484D02*
X8570063Y-14090960D01*
X8570063Y-14090960D02*
X8560539Y-14081436D01*
X8560539Y-14081436D02*
X8551015Y-14062388D01*
X8551015Y-14062388D02*
X8551015Y-14005246D01*
X8551015Y-14005246D02*
X8560539Y-13986198D01*
X8560539Y-13986198D02*
X8570063Y-13976674D01*
X8570063Y-13976674D02*
X8589111Y-13967150D01*
X8589111Y-13967150D02*
X8617682Y-13967150D01*
X8617682Y-13967150D02*
X8636730Y-13976674D01*
X8636730Y-13976674D02*
X8646253Y-13986198D01*
X8646253Y-13986198D02*
X8655777Y-14005246D01*
X8655777Y-14005246D02*
X8655777Y-14062388D01*
X8655777Y-14062388D02*
X8646253Y-14081436D01*
X8646253Y-14081436D02*
X8636730Y-14090960D01*
X8636730Y-14090960D02*
X8617682Y-14100484D01*
X8617682Y-14100484D02*
X8589111Y-14100484D01*
X8770063Y-14100484D02*
X8751015Y-14090960D01*
X8751015Y-14090960D02*
X8741492Y-14071912D01*
X8741492Y-14071912D02*
X8741492Y-13900484D01*
X8922444Y-14090960D02*
X8903396Y-14100484D01*
X8903396Y-14100484D02*
X8865301Y-14100484D01*
X8865301Y-14100484D02*
X8846253Y-14090960D01*
X8846253Y-14090960D02*
X8836730Y-14071912D01*
X8836730Y-14071912D02*
X8836730Y-13995722D01*
X8836730Y-13995722D02*
X8846253Y-13976674D01*
X8846253Y-13976674D02*
X8865301Y-13967150D01*
X8865301Y-13967150D02*
X8903396Y-13967150D01*
X8903396Y-13967150D02*
X8922444Y-13976674D01*
X8922444Y-13976674D02*
X8931968Y-13995722D01*
X8931968Y-13995722D02*
X8931968Y-14014769D01*
X8931968Y-14014769D02*
X8836730Y-14033817D01*
X9008158Y-14090960D02*
X9027206Y-14100484D01*
X9027206Y-14100484D02*
X9065301Y-14100484D01*
X9065301Y-14100484D02*
X9084349Y-14090960D01*
X9084349Y-14090960D02*
X9093873Y-14071912D01*
X9093873Y-14071912D02*
X9093873Y-14062388D01*
X9093873Y-14062388D02*
X9084349Y-14043341D01*
X9084349Y-14043341D02*
X9065301Y-14033817D01*
X9065301Y-14033817D02*
X9036730Y-14033817D01*
X9036730Y-14033817D02*
X9017682Y-14024293D01*
X9017682Y-14024293D02*
X9008158Y-14005246D01*
X9008158Y-14005246D02*
X9008158Y-13995722D01*
X9008158Y-13995722D02*
X9017682Y-13976674D01*
X9017682Y-13976674D02*
X9036730Y-13967150D01*
X9036730Y-13967150D02*
X9065301Y-13967150D01*
X9065301Y-13967150D02*
X9084349Y-13976674D01*
X9160539Y-14176674D02*
X9170063Y-14167150D01*
X9170063Y-14167150D02*
X9189111Y-14138579D01*
X9189111Y-14138579D02*
X9198634Y-14119531D01*
X9198634Y-14119531D02*
X9208158Y-14090960D01*
X9208158Y-14090960D02*
X9217682Y-14043341D01*
X9217682Y-14043341D02*
X9217682Y-14005246D01*
X9217682Y-14005246D02*
X9208158Y-13957627D01*
X9208158Y-13957627D02*
X9198634Y-13929055D01*
X9198634Y-13929055D02*
X9189111Y-13910008D01*
X9189111Y-13910008D02*
X9170063Y-13881436D01*
X9170063Y-13881436D02*
X9160539Y-13871912D01*
D10*
X4147500Y-14225500D02*
X4147500Y-14320500D01*
X4100000Y-14273000D02*
X4195000Y-14273000D01*
D11*
X4493872Y-14164484D02*
X4512920Y-14164484D01*
X4512920Y-14164484D02*
X4531967Y-14174008D01*
X4531967Y-14174008D02*
X4541491Y-14183531D01*
X4541491Y-14183531D02*
X4551015Y-14202579D01*
X4551015Y-14202579D02*
X4560539Y-14240674D01*
X4560539Y-14240674D02*
X4560539Y-14288293D01*
X4560539Y-14288293D02*
X4551015Y-14326388D01*
X4551015Y-14326388D02*
X4541491Y-14345436D01*
X4541491Y-14345436D02*
X4531967Y-14354960D01*
X4531967Y-14354960D02*
X4512920Y-14364484D01*
X4512920Y-14364484D02*
X4493872Y-14364484D01*
X4493872Y-14364484D02*
X4474824Y-14354960D01*
X4474824Y-14354960D02*
X4465301Y-14345436D01*
X4465301Y-14345436D02*
X4455777Y-14326388D01*
X4455777Y-14326388D02*
X4446253Y-14288293D01*
X4446253Y-14288293D02*
X4446253Y-14240674D01*
X4446253Y-14240674D02*
X4455777Y-14202579D01*
X4455777Y-14202579D02*
X4465301Y-14183531D01*
X4465301Y-14183531D02*
X4474824Y-14174008D01*
X4474824Y-14174008D02*
X4493872Y-14164484D01*
X4646253Y-14345436D02*
X4655777Y-14354960D01*
X4655777Y-14354960D02*
X4646253Y-14364484D01*
X4646253Y-14364484D02*
X4636729Y-14354960D01*
X4636729Y-14354960D02*
X4646253Y-14345436D01*
X4646253Y-14345436D02*
X4646253Y-14364484D01*
X4751015Y-14364484D02*
X4789110Y-14364484D01*
X4789110Y-14364484D02*
X4808158Y-14354960D01*
X4808158Y-14354960D02*
X4817682Y-14345436D01*
X4817682Y-14345436D02*
X4836729Y-14316865D01*
X4836729Y-14316865D02*
X4846253Y-14278769D01*
X4846253Y-14278769D02*
X4846253Y-14202579D01*
X4846253Y-14202579D02*
X4836729Y-14183531D01*
X4836729Y-14183531D02*
X4827205Y-14174008D01*
X4827205Y-14174008D02*
X4808158Y-14164484D01*
X4808158Y-14164484D02*
X4770063Y-14164484D01*
X4770063Y-14164484D02*
X4751015Y-14174008D01*
X4751015Y-14174008D02*
X4741491Y-14183531D01*
X4741491Y-14183531D02*
X4731967Y-14202579D01*
X4731967Y-14202579D02*
X4731967Y-14250198D01*
X4731967Y-14250198D02*
X4741491Y-14269246D01*
X4741491Y-14269246D02*
X4751015Y-14278769D01*
X4751015Y-14278769D02*
X4770063Y-14288293D01*
X4770063Y-14288293D02*
X4808158Y-14288293D01*
X4808158Y-14288293D02*
X4827205Y-14278769D01*
X4827205Y-14278769D02*
X4836729Y-14269246D01*
X4836729Y-14269246D02*
X4846253Y-14250198D01*
X5027205Y-14164484D02*
X4931967Y-14164484D01*
X4931967Y-14164484D02*
X4922444Y-14259722D01*
X4922444Y-14259722D02*
X4931967Y-14250198D01*
X4931967Y-14250198D02*
X4951015Y-14240674D01*
X4951015Y-14240674D02*
X4998634Y-14240674D01*
X4998634Y-14240674D02*
X5017682Y-14250198D01*
X5017682Y-14250198D02*
X5027205Y-14259722D01*
X5027205Y-14259722D02*
X5036729Y-14278769D01*
X5036729Y-14278769D02*
X5036729Y-14326388D01*
X5036729Y-14326388D02*
X5027205Y-14345436D01*
X5027205Y-14345436D02*
X5017682Y-14354960D01*
X5017682Y-14354960D02*
X4998634Y-14364484D01*
X4998634Y-14364484D02*
X4951015Y-14364484D01*
X4951015Y-14364484D02*
X4931967Y-14354960D01*
X4931967Y-14354960D02*
X4922444Y-14345436D01*
X5160539Y-14164484D02*
X5179586Y-14164484D01*
X5179586Y-14164484D02*
X5198634Y-14174008D01*
X5198634Y-14174008D02*
X5208158Y-14183531D01*
X5208158Y-14183531D02*
X5217682Y-14202579D01*
X5217682Y-14202579D02*
X5227205Y-14240674D01*
X5227205Y-14240674D02*
X5227205Y-14288293D01*
X5227205Y-14288293D02*
X5217682Y-14326388D01*
X5217682Y-14326388D02*
X5208158Y-14345436D01*
X5208158Y-14345436D02*
X5198634Y-14354960D01*
X5198634Y-14354960D02*
X5179586Y-14364484D01*
X5179586Y-14364484D02*
X5160539Y-14364484D01*
X5160539Y-14364484D02*
X5141491Y-14354960D01*
X5141491Y-14354960D02*
X5131967Y-14345436D01*
X5131967Y-14345436D02*
X5122444Y-14326388D01*
X5122444Y-14326388D02*
X5112920Y-14288293D01*
X5112920Y-14288293D02*
X5112920Y-14240674D01*
X5112920Y-14240674D02*
X5122444Y-14202579D01*
X5122444Y-14202579D02*
X5131967Y-14183531D01*
X5131967Y-14183531D02*
X5141491Y-14174008D01*
X5141491Y-14174008D02*
X5160539Y-14164484D01*
X5312920Y-14364484D02*
X5312920Y-14231150D01*
X5312920Y-14250198D02*
X5322444Y-14240674D01*
X5322444Y-14240674D02*
X5341491Y-14231150D01*
X5341491Y-14231150D02*
X5370063Y-14231150D01*
X5370063Y-14231150D02*
X5389110Y-14240674D01*
X5389110Y-14240674D02*
X5398634Y-14259722D01*
X5398634Y-14259722D02*
X5398634Y-14364484D01*
X5398634Y-14259722D02*
X5408158Y-14240674D01*
X5408158Y-14240674D02*
X5427205Y-14231150D01*
X5427205Y-14231150D02*
X5455777Y-14231150D01*
X5455777Y-14231150D02*
X5474825Y-14240674D01*
X5474825Y-14240674D02*
X5484348Y-14259722D01*
X5484348Y-14259722D02*
X5484348Y-14364484D01*
X5579586Y-14364484D02*
X5579586Y-14231150D01*
X5579586Y-14250198D02*
X5589110Y-14240674D01*
X5589110Y-14240674D02*
X5608158Y-14231150D01*
X5608158Y-14231150D02*
X5636729Y-14231150D01*
X5636729Y-14231150D02*
X5655777Y-14240674D01*
X5655777Y-14240674D02*
X5665301Y-14259722D01*
X5665301Y-14259722D02*
X5665301Y-14364484D01*
X5665301Y-14259722D02*
X5674824Y-14240674D01*
X5674824Y-14240674D02*
X5693872Y-14231150D01*
X5693872Y-14231150D02*
X5722443Y-14231150D01*
X5722443Y-14231150D02*
X5741491Y-14240674D01*
X5741491Y-14240674D02*
X5751015Y-14259722D01*
X5751015Y-14259722D02*
X5751015Y-14364484D01*
X6141491Y-14154960D02*
X5970063Y-14412103D01*
X6398634Y-14164484D02*
X6417682Y-14164484D01*
X6417682Y-14164484D02*
X6436729Y-14174008D01*
X6436729Y-14174008D02*
X6446253Y-14183531D01*
X6446253Y-14183531D02*
X6455777Y-14202579D01*
X6455777Y-14202579D02*
X6465301Y-14240674D01*
X6465301Y-14240674D02*
X6465301Y-14288293D01*
X6465301Y-14288293D02*
X6455777Y-14326388D01*
X6455777Y-14326388D02*
X6446253Y-14345436D01*
X6446253Y-14345436D02*
X6436729Y-14354960D01*
X6436729Y-14354960D02*
X6417682Y-14364484D01*
X6417682Y-14364484D02*
X6398634Y-14364484D01*
X6398634Y-14364484D02*
X6379586Y-14354960D01*
X6379586Y-14354960D02*
X6370063Y-14345436D01*
X6370063Y-14345436D02*
X6360539Y-14326388D01*
X6360539Y-14326388D02*
X6351015Y-14288293D01*
X6351015Y-14288293D02*
X6351015Y-14240674D01*
X6351015Y-14240674D02*
X6360539Y-14202579D01*
X6360539Y-14202579D02*
X6370063Y-14183531D01*
X6370063Y-14183531D02*
X6379586Y-14174008D01*
X6379586Y-14174008D02*
X6398634Y-14164484D01*
X6551015Y-14345436D02*
X6560539Y-14354960D01*
X6560539Y-14354960D02*
X6551015Y-14364484D01*
X6551015Y-14364484D02*
X6541491Y-14354960D01*
X6541491Y-14354960D02*
X6551015Y-14345436D01*
X6551015Y-14345436D02*
X6551015Y-14364484D01*
X6684348Y-14164484D02*
X6703396Y-14164484D01*
X6703396Y-14164484D02*
X6722444Y-14174008D01*
X6722444Y-14174008D02*
X6731967Y-14183531D01*
X6731967Y-14183531D02*
X6741491Y-14202579D01*
X6741491Y-14202579D02*
X6751015Y-14240674D01*
X6751015Y-14240674D02*
X6751015Y-14288293D01*
X6751015Y-14288293D02*
X6741491Y-14326388D01*
X6741491Y-14326388D02*
X6731967Y-14345436D01*
X6731967Y-14345436D02*
X6722444Y-14354960D01*
X6722444Y-14354960D02*
X6703396Y-14364484D01*
X6703396Y-14364484D02*
X6684348Y-14364484D01*
X6684348Y-14364484D02*
X6665301Y-14354960D01*
X6665301Y-14354960D02*
X6655777Y-14345436D01*
X6655777Y-14345436D02*
X6646253Y-14326388D01*
X6646253Y-14326388D02*
X6636729Y-14288293D01*
X6636729Y-14288293D02*
X6636729Y-14240674D01*
X6636729Y-14240674D02*
X6646253Y-14202579D01*
X6646253Y-14202579D02*
X6655777Y-14183531D01*
X6655777Y-14183531D02*
X6665301Y-14174008D01*
X6665301Y-14174008D02*
X6684348Y-14164484D01*
X6817682Y-14164484D02*
X6941491Y-14164484D01*
X6941491Y-14164484D02*
X6874825Y-14240674D01*
X6874825Y-14240674D02*
X6903396Y-14240674D01*
X6903396Y-14240674D02*
X6922444Y-14250198D01*
X6922444Y-14250198D02*
X6931967Y-14259722D01*
X6931967Y-14259722D02*
X6941491Y-14278769D01*
X6941491Y-14278769D02*
X6941491Y-14326388D01*
X6941491Y-14326388D02*
X6931967Y-14345436D01*
X6931967Y-14345436D02*
X6922444Y-14354960D01*
X6922444Y-14354960D02*
X6903396Y-14364484D01*
X6903396Y-14364484D02*
X6846253Y-14364484D01*
X6846253Y-14364484D02*
X6827206Y-14354960D01*
X6827206Y-14354960D02*
X6817682Y-14345436D01*
X7008158Y-14164484D02*
X7141491Y-14164484D01*
X7141491Y-14164484D02*
X7055777Y-14364484D01*
X7303396Y-14231150D02*
X7303396Y-14364484D01*
X7255777Y-14154960D02*
X7208158Y-14297817D01*
X7208158Y-14297817D02*
X7331967Y-14297817D01*
X7398634Y-14164484D02*
X7398634Y-14202579D01*
X7474825Y-14164484D02*
X7474825Y-14202579D01*
X7770063Y-14440674D02*
X7760539Y-14431150D01*
X7760539Y-14431150D02*
X7741491Y-14402579D01*
X7741491Y-14402579D02*
X7731968Y-14383531D01*
X7731968Y-14383531D02*
X7722444Y-14354960D01*
X7722444Y-14354960D02*
X7712920Y-14307341D01*
X7712920Y-14307341D02*
X7712920Y-14269246D01*
X7712920Y-14269246D02*
X7722444Y-14221627D01*
X7722444Y-14221627D02*
X7731968Y-14193055D01*
X7731968Y-14193055D02*
X7741491Y-14174008D01*
X7741491Y-14174008D02*
X7760539Y-14145436D01*
X7760539Y-14145436D02*
X7770063Y-14135912D01*
X7874825Y-14250198D02*
X7855777Y-14240674D01*
X7855777Y-14240674D02*
X7846253Y-14231150D01*
X7846253Y-14231150D02*
X7836729Y-14212103D01*
X7836729Y-14212103D02*
X7836729Y-14202579D01*
X7836729Y-14202579D02*
X7846253Y-14183531D01*
X7846253Y-14183531D02*
X7855777Y-14174008D01*
X7855777Y-14174008D02*
X7874825Y-14164484D01*
X7874825Y-14164484D02*
X7912920Y-14164484D01*
X7912920Y-14164484D02*
X7931968Y-14174008D01*
X7931968Y-14174008D02*
X7941491Y-14183531D01*
X7941491Y-14183531D02*
X7951015Y-14202579D01*
X7951015Y-14202579D02*
X7951015Y-14212103D01*
X7951015Y-14212103D02*
X7941491Y-14231150D01*
X7941491Y-14231150D02*
X7931968Y-14240674D01*
X7931968Y-14240674D02*
X7912920Y-14250198D01*
X7912920Y-14250198D02*
X7874825Y-14250198D01*
X7874825Y-14250198D02*
X7855777Y-14259722D01*
X7855777Y-14259722D02*
X7846253Y-14269246D01*
X7846253Y-14269246D02*
X7836729Y-14288293D01*
X7836729Y-14288293D02*
X7836729Y-14326388D01*
X7836729Y-14326388D02*
X7846253Y-14345436D01*
X7846253Y-14345436D02*
X7855777Y-14354960D01*
X7855777Y-14354960D02*
X7874825Y-14364484D01*
X7874825Y-14364484D02*
X7912920Y-14364484D01*
X7912920Y-14364484D02*
X7931968Y-14354960D01*
X7931968Y-14354960D02*
X7941491Y-14345436D01*
X7941491Y-14345436D02*
X7951015Y-14326388D01*
X7951015Y-14326388D02*
X7951015Y-14288293D01*
X7951015Y-14288293D02*
X7941491Y-14269246D01*
X7941491Y-14269246D02*
X7931968Y-14259722D01*
X7931968Y-14259722D02*
X7912920Y-14250198D01*
X8189110Y-14364484D02*
X8189110Y-14164484D01*
X8274825Y-14364484D02*
X8274825Y-14259722D01*
X8274825Y-14259722D02*
X8265301Y-14240674D01*
X8265301Y-14240674D02*
X8246253Y-14231150D01*
X8246253Y-14231150D02*
X8217682Y-14231150D01*
X8217682Y-14231150D02*
X8198634Y-14240674D01*
X8198634Y-14240674D02*
X8189110Y-14250198D01*
X8398634Y-14364484D02*
X8379587Y-14354960D01*
X8379587Y-14354960D02*
X8370063Y-14345436D01*
X8370063Y-14345436D02*
X8360539Y-14326388D01*
X8360539Y-14326388D02*
X8360539Y-14269246D01*
X8360539Y-14269246D02*
X8370063Y-14250198D01*
X8370063Y-14250198D02*
X8379587Y-14240674D01*
X8379587Y-14240674D02*
X8398634Y-14231150D01*
X8398634Y-14231150D02*
X8427206Y-14231150D01*
X8427206Y-14231150D02*
X8446253Y-14240674D01*
X8446253Y-14240674D02*
X8455777Y-14250198D01*
X8455777Y-14250198D02*
X8465301Y-14269246D01*
X8465301Y-14269246D02*
X8465301Y-14326388D01*
X8465301Y-14326388D02*
X8455777Y-14345436D01*
X8455777Y-14345436D02*
X8446253Y-14354960D01*
X8446253Y-14354960D02*
X8427206Y-14364484D01*
X8427206Y-14364484D02*
X8398634Y-14364484D01*
X8579587Y-14364484D02*
X8560539Y-14354960D01*
X8560539Y-14354960D02*
X8551015Y-14335912D01*
X8551015Y-14335912D02*
X8551015Y-14164484D01*
X8731968Y-14354960D02*
X8712920Y-14364484D01*
X8712920Y-14364484D02*
X8674825Y-14364484D01*
X8674825Y-14364484D02*
X8655777Y-14354960D01*
X8655777Y-14354960D02*
X8646253Y-14335912D01*
X8646253Y-14335912D02*
X8646253Y-14259722D01*
X8646253Y-14259722D02*
X8655777Y-14240674D01*
X8655777Y-14240674D02*
X8674825Y-14231150D01*
X8674825Y-14231150D02*
X8712920Y-14231150D01*
X8712920Y-14231150D02*
X8731968Y-14240674D01*
X8731968Y-14240674D02*
X8741492Y-14259722D01*
X8741492Y-14259722D02*
X8741492Y-14278769D01*
X8741492Y-14278769D02*
X8646253Y-14297817D01*
X8817682Y-14354960D02*
X8836730Y-14364484D01*
X8836730Y-14364484D02*
X8874825Y-14364484D01*
X8874825Y-14364484D02*
X8893873Y-14354960D01*
X8893873Y-14354960D02*
X8903396Y-14335912D01*
X8903396Y-14335912D02*
X8903396Y-14326388D01*
X8903396Y-14326388D02*
X8893873Y-14307341D01*
X8893873Y-14307341D02*
X8874825Y-14297817D01*
X8874825Y-14297817D02*
X8846253Y-14297817D01*
X8846253Y-14297817D02*
X8827206Y-14288293D01*
X8827206Y-14288293D02*
X8817682Y-14269246D01*
X8817682Y-14269246D02*
X8817682Y-14259722D01*
X8817682Y-14259722D02*
X8827206Y-14240674D01*
X8827206Y-14240674D02*
X8846253Y-14231150D01*
X8846253Y-14231150D02*
X8874825Y-14231150D01*
X8874825Y-14231150D02*
X8893873Y-14240674D01*
X8970063Y-14440674D02*
X8979587Y-14431150D01*
X8979587Y-14431150D02*
X8998634Y-14402579D01*
X8998634Y-14402579D02*
X9008158Y-14383531D01*
X9008158Y-14383531D02*
X9017682Y-14354960D01*
X9017682Y-14354960D02*
X9027206Y-14307341D01*
X9027206Y-14307341D02*
X9027206Y-14269246D01*
X9027206Y-14269246D02*
X9017682Y-14221627D01*
X9017682Y-14221627D02*
X9008158Y-14193055D01*
X9008158Y-14193055D02*
X8998634Y-14174008D01*
X8998634Y-14174008D02*
X8979587Y-14145436D01*
X8979587Y-14145436D02*
X8970063Y-14135912D01*
D10*
X4180356Y-14572356D02*
X4180356Y-14501644D01*
X4109644Y-14501644D01*
X4109644Y-14572356D01*
X4180356Y-14572356D01*
D11*
X4560539Y-14628484D02*
X4446253Y-14628484D01*
X4503396Y-14628484D02*
X4503396Y-14428484D01*
X4503396Y-14428484D02*
X4484348Y-14457055D01*
X4484348Y-14457055D02*
X4465301Y-14476103D01*
X4465301Y-14476103D02*
X4446253Y-14485627D01*
X4646253Y-14609436D02*
X4655777Y-14618960D01*
X4655777Y-14618960D02*
X4646253Y-14628484D01*
X4646253Y-14628484D02*
X4636729Y-14618960D01*
X4636729Y-14618960D02*
X4646253Y-14609436D01*
X4646253Y-14609436D02*
X4646253Y-14628484D01*
X4779586Y-14428484D02*
X4798634Y-14428484D01*
X4798634Y-14428484D02*
X4817682Y-14438008D01*
X4817682Y-14438008D02*
X4827205Y-14447531D01*
X4827205Y-14447531D02*
X4836729Y-14466579D01*
X4836729Y-14466579D02*
X4846253Y-14504674D01*
X4846253Y-14504674D02*
X4846253Y-14552293D01*
X4846253Y-14552293D02*
X4836729Y-14590388D01*
X4836729Y-14590388D02*
X4827205Y-14609436D01*
X4827205Y-14609436D02*
X4817682Y-14618960D01*
X4817682Y-14618960D02*
X4798634Y-14628484D01*
X4798634Y-14628484D02*
X4779586Y-14628484D01*
X4779586Y-14628484D02*
X4760539Y-14618960D01*
X4760539Y-14618960D02*
X4751015Y-14609436D01*
X4751015Y-14609436D02*
X4741491Y-14590388D01*
X4741491Y-14590388D02*
X4731967Y-14552293D01*
X4731967Y-14552293D02*
X4731967Y-14504674D01*
X4731967Y-14504674D02*
X4741491Y-14466579D01*
X4741491Y-14466579D02*
X4751015Y-14447531D01*
X4751015Y-14447531D02*
X4760539Y-14438008D01*
X4760539Y-14438008D02*
X4779586Y-14428484D01*
X4970063Y-14428484D02*
X4989110Y-14428484D01*
X4989110Y-14428484D02*
X5008158Y-14438008D01*
X5008158Y-14438008D02*
X5017682Y-14447531D01*
X5017682Y-14447531D02*
X5027205Y-14466579D01*
X5027205Y-14466579D02*
X5036729Y-14504674D01*
X5036729Y-14504674D02*
X5036729Y-14552293D01*
X5036729Y-14552293D02*
X5027205Y-14590388D01*
X5027205Y-14590388D02*
X5017682Y-14609436D01*
X5017682Y-14609436D02*
X5008158Y-14618960D01*
X5008158Y-14618960D02*
X4989110Y-14628484D01*
X4989110Y-14628484D02*
X4970063Y-14628484D01*
X4970063Y-14628484D02*
X4951015Y-14618960D01*
X4951015Y-14618960D02*
X4941491Y-14609436D01*
X4941491Y-14609436D02*
X4931967Y-14590388D01*
X4931967Y-14590388D02*
X4922444Y-14552293D01*
X4922444Y-14552293D02*
X4922444Y-14504674D01*
X4922444Y-14504674D02*
X4931967Y-14466579D01*
X4931967Y-14466579D02*
X4941491Y-14447531D01*
X4941491Y-14447531D02*
X4951015Y-14438008D01*
X4951015Y-14438008D02*
X4970063Y-14428484D01*
X5160539Y-14428484D02*
X5179586Y-14428484D01*
X5179586Y-14428484D02*
X5198634Y-14438008D01*
X5198634Y-14438008D02*
X5208158Y-14447531D01*
X5208158Y-14447531D02*
X5217682Y-14466579D01*
X5217682Y-14466579D02*
X5227205Y-14504674D01*
X5227205Y-14504674D02*
X5227205Y-14552293D01*
X5227205Y-14552293D02*
X5217682Y-14590388D01*
X5217682Y-14590388D02*
X5208158Y-14609436D01*
X5208158Y-14609436D02*
X5198634Y-14618960D01*
X5198634Y-14618960D02*
X5179586Y-14628484D01*
X5179586Y-14628484D02*
X5160539Y-14628484D01*
X5160539Y-14628484D02*
X5141491Y-14618960D01*
X5141491Y-14618960D02*
X5131967Y-14609436D01*
X5131967Y-14609436D02*
X5122444Y-14590388D01*
X5122444Y-14590388D02*
X5112920Y-14552293D01*
X5112920Y-14552293D02*
X5112920Y-14504674D01*
X5112920Y-14504674D02*
X5122444Y-14466579D01*
X5122444Y-14466579D02*
X5131967Y-14447531D01*
X5131967Y-14447531D02*
X5141491Y-14438008D01*
X5141491Y-14438008D02*
X5160539Y-14428484D01*
X5312920Y-14628484D02*
X5312920Y-14495150D01*
X5312920Y-14514198D02*
X5322444Y-14504674D01*
X5322444Y-14504674D02*
X5341491Y-14495150D01*
X5341491Y-14495150D02*
X5370063Y-14495150D01*
X5370063Y-14495150D02*
X5389110Y-14504674D01*
X5389110Y-14504674D02*
X5398634Y-14523722D01*
X5398634Y-14523722D02*
X5398634Y-14628484D01*
X5398634Y-14523722D02*
X5408158Y-14504674D01*
X5408158Y-14504674D02*
X5427205Y-14495150D01*
X5427205Y-14495150D02*
X5455777Y-14495150D01*
X5455777Y-14495150D02*
X5474825Y-14504674D01*
X5474825Y-14504674D02*
X5484348Y-14523722D01*
X5484348Y-14523722D02*
X5484348Y-14628484D01*
X5579586Y-14628484D02*
X5579586Y-14495150D01*
X5579586Y-14514198D02*
X5589110Y-14504674D01*
X5589110Y-14504674D02*
X5608158Y-14495150D01*
X5608158Y-14495150D02*
X5636729Y-14495150D01*
X5636729Y-14495150D02*
X5655777Y-14504674D01*
X5655777Y-14504674D02*
X5665301Y-14523722D01*
X5665301Y-14523722D02*
X5665301Y-14628484D01*
X5665301Y-14523722D02*
X5674824Y-14504674D01*
X5674824Y-14504674D02*
X5693872Y-14495150D01*
X5693872Y-14495150D02*
X5722443Y-14495150D01*
X5722443Y-14495150D02*
X5741491Y-14504674D01*
X5741491Y-14504674D02*
X5751015Y-14523722D01*
X5751015Y-14523722D02*
X5751015Y-14628484D01*
X6141491Y-14418960D02*
X5970063Y-14676103D01*
X6398634Y-14428484D02*
X6417682Y-14428484D01*
X6417682Y-14428484D02*
X6436729Y-14438008D01*
X6436729Y-14438008D02*
X6446253Y-14447531D01*
X6446253Y-14447531D02*
X6455777Y-14466579D01*
X6455777Y-14466579D02*
X6465301Y-14504674D01*
X6465301Y-14504674D02*
X6465301Y-14552293D01*
X6465301Y-14552293D02*
X6455777Y-14590388D01*
X6455777Y-14590388D02*
X6446253Y-14609436D01*
X6446253Y-14609436D02*
X6436729Y-14618960D01*
X6436729Y-14618960D02*
X6417682Y-14628484D01*
X6417682Y-14628484D02*
X6398634Y-14628484D01*
X6398634Y-14628484D02*
X6379586Y-14618960D01*
X6379586Y-14618960D02*
X6370063Y-14609436D01*
X6370063Y-14609436D02*
X6360539Y-14590388D01*
X6360539Y-14590388D02*
X6351015Y-14552293D01*
X6351015Y-14552293D02*
X6351015Y-14504674D01*
X6351015Y-14504674D02*
X6360539Y-14466579D01*
X6360539Y-14466579D02*
X6370063Y-14447531D01*
X6370063Y-14447531D02*
X6379586Y-14438008D01*
X6379586Y-14438008D02*
X6398634Y-14428484D01*
X6551015Y-14609436D02*
X6560539Y-14618960D01*
X6560539Y-14618960D02*
X6551015Y-14628484D01*
X6551015Y-14628484D02*
X6541491Y-14618960D01*
X6541491Y-14618960D02*
X6551015Y-14609436D01*
X6551015Y-14609436D02*
X6551015Y-14628484D01*
X6684348Y-14428484D02*
X6703396Y-14428484D01*
X6703396Y-14428484D02*
X6722444Y-14438008D01*
X6722444Y-14438008D02*
X6731967Y-14447531D01*
X6731967Y-14447531D02*
X6741491Y-14466579D01*
X6741491Y-14466579D02*
X6751015Y-14504674D01*
X6751015Y-14504674D02*
X6751015Y-14552293D01*
X6751015Y-14552293D02*
X6741491Y-14590388D01*
X6741491Y-14590388D02*
X6731967Y-14609436D01*
X6731967Y-14609436D02*
X6722444Y-14618960D01*
X6722444Y-14618960D02*
X6703396Y-14628484D01*
X6703396Y-14628484D02*
X6684348Y-14628484D01*
X6684348Y-14628484D02*
X6665301Y-14618960D01*
X6665301Y-14618960D02*
X6655777Y-14609436D01*
X6655777Y-14609436D02*
X6646253Y-14590388D01*
X6646253Y-14590388D02*
X6636729Y-14552293D01*
X6636729Y-14552293D02*
X6636729Y-14504674D01*
X6636729Y-14504674D02*
X6646253Y-14466579D01*
X6646253Y-14466579D02*
X6655777Y-14447531D01*
X6655777Y-14447531D02*
X6665301Y-14438008D01*
X6665301Y-14438008D02*
X6684348Y-14428484D01*
X6817682Y-14428484D02*
X6941491Y-14428484D01*
X6941491Y-14428484D02*
X6874825Y-14504674D01*
X6874825Y-14504674D02*
X6903396Y-14504674D01*
X6903396Y-14504674D02*
X6922444Y-14514198D01*
X6922444Y-14514198D02*
X6931967Y-14523722D01*
X6931967Y-14523722D02*
X6941491Y-14542769D01*
X6941491Y-14542769D02*
X6941491Y-14590388D01*
X6941491Y-14590388D02*
X6931967Y-14609436D01*
X6931967Y-14609436D02*
X6922444Y-14618960D01*
X6922444Y-14618960D02*
X6903396Y-14628484D01*
X6903396Y-14628484D02*
X6846253Y-14628484D01*
X6846253Y-14628484D02*
X6827206Y-14618960D01*
X6827206Y-14618960D02*
X6817682Y-14609436D01*
X7036729Y-14628484D02*
X7074825Y-14628484D01*
X7074825Y-14628484D02*
X7093872Y-14618960D01*
X7093872Y-14618960D02*
X7103396Y-14609436D01*
X7103396Y-14609436D02*
X7122444Y-14580865D01*
X7122444Y-14580865D02*
X7131967Y-14542769D01*
X7131967Y-14542769D02*
X7131967Y-14466579D01*
X7131967Y-14466579D02*
X7122444Y-14447531D01*
X7122444Y-14447531D02*
X7112920Y-14438008D01*
X7112920Y-14438008D02*
X7093872Y-14428484D01*
X7093872Y-14428484D02*
X7055777Y-14428484D01*
X7055777Y-14428484D02*
X7036729Y-14438008D01*
X7036729Y-14438008D02*
X7027206Y-14447531D01*
X7027206Y-14447531D02*
X7017682Y-14466579D01*
X7017682Y-14466579D02*
X7017682Y-14514198D01*
X7017682Y-14514198D02*
X7027206Y-14533246D01*
X7027206Y-14533246D02*
X7036729Y-14542769D01*
X7036729Y-14542769D02*
X7055777Y-14552293D01*
X7055777Y-14552293D02*
X7093872Y-14552293D01*
X7093872Y-14552293D02*
X7112920Y-14542769D01*
X7112920Y-14542769D02*
X7122444Y-14533246D01*
X7122444Y-14533246D02*
X7131967Y-14514198D01*
X7303396Y-14495150D02*
X7303396Y-14628484D01*
X7255777Y-14418960D02*
X7208158Y-14561817D01*
X7208158Y-14561817D02*
X7331967Y-14561817D01*
X7398634Y-14428484D02*
X7398634Y-14466579D01*
X7474825Y-14428484D02*
X7474825Y-14466579D01*
X7770063Y-14704674D02*
X7760539Y-14695150D01*
X7760539Y-14695150D02*
X7741491Y-14666579D01*
X7741491Y-14666579D02*
X7731968Y-14647531D01*
X7731968Y-14647531D02*
X7722444Y-14618960D01*
X7722444Y-14618960D02*
X7712920Y-14571341D01*
X7712920Y-14571341D02*
X7712920Y-14533246D01*
X7712920Y-14533246D02*
X7722444Y-14485627D01*
X7722444Y-14485627D02*
X7731968Y-14457055D01*
X7731968Y-14457055D02*
X7741491Y-14438008D01*
X7741491Y-14438008D02*
X7760539Y-14409436D01*
X7760539Y-14409436D02*
X7770063Y-14399912D01*
X7836729Y-14447531D02*
X7846253Y-14438008D01*
X7846253Y-14438008D02*
X7865301Y-14428484D01*
X7865301Y-14428484D02*
X7912920Y-14428484D01*
X7912920Y-14428484D02*
X7931968Y-14438008D01*
X7931968Y-14438008D02*
X7941491Y-14447531D01*
X7941491Y-14447531D02*
X7951015Y-14466579D01*
X7951015Y-14466579D02*
X7951015Y-14485627D01*
X7951015Y-14485627D02*
X7941491Y-14514198D01*
X7941491Y-14514198D02*
X7827206Y-14628484D01*
X7827206Y-14628484D02*
X7951015Y-14628484D01*
X8189110Y-14628484D02*
X8189110Y-14428484D01*
X8274825Y-14628484D02*
X8274825Y-14523722D01*
X8274825Y-14523722D02*
X8265301Y-14504674D01*
X8265301Y-14504674D02*
X8246253Y-14495150D01*
X8246253Y-14495150D02*
X8217682Y-14495150D01*
X8217682Y-14495150D02*
X8198634Y-14504674D01*
X8198634Y-14504674D02*
X8189110Y-14514198D01*
X8398634Y-14628484D02*
X8379587Y-14618960D01*
X8379587Y-14618960D02*
X8370063Y-14609436D01*
X8370063Y-14609436D02*
X8360539Y-14590388D01*
X8360539Y-14590388D02*
X8360539Y-14533246D01*
X8360539Y-14533246D02*
X8370063Y-14514198D01*
X8370063Y-14514198D02*
X8379587Y-14504674D01*
X8379587Y-14504674D02*
X8398634Y-14495150D01*
X8398634Y-14495150D02*
X8427206Y-14495150D01*
X8427206Y-14495150D02*
X8446253Y-14504674D01*
X8446253Y-14504674D02*
X8455777Y-14514198D01*
X8455777Y-14514198D02*
X8465301Y-14533246D01*
X8465301Y-14533246D02*
X8465301Y-14590388D01*
X8465301Y-14590388D02*
X8455777Y-14609436D01*
X8455777Y-14609436D02*
X8446253Y-14618960D01*
X8446253Y-14618960D02*
X8427206Y-14628484D01*
X8427206Y-14628484D02*
X8398634Y-14628484D01*
X8579587Y-14628484D02*
X8560539Y-14618960D01*
X8560539Y-14618960D02*
X8551015Y-14599912D01*
X8551015Y-14599912D02*
X8551015Y-14428484D01*
X8731968Y-14618960D02*
X8712920Y-14628484D01*
X8712920Y-14628484D02*
X8674825Y-14628484D01*
X8674825Y-14628484D02*
X8655777Y-14618960D01*
X8655777Y-14618960D02*
X8646253Y-14599912D01*
X8646253Y-14599912D02*
X8646253Y-14523722D01*
X8646253Y-14523722D02*
X8655777Y-14504674D01*
X8655777Y-14504674D02*
X8674825Y-14495150D01*
X8674825Y-14495150D02*
X8712920Y-14495150D01*
X8712920Y-14495150D02*
X8731968Y-14504674D01*
X8731968Y-14504674D02*
X8741492Y-14523722D01*
X8741492Y-14523722D02*
X8741492Y-14542769D01*
X8741492Y-14542769D02*
X8646253Y-14561817D01*
X8817682Y-14618960D02*
X8836730Y-14628484D01*
X8836730Y-14628484D02*
X8874825Y-14628484D01*
X8874825Y-14628484D02*
X8893873Y-14618960D01*
X8893873Y-14618960D02*
X8903396Y-14599912D01*
X8903396Y-14599912D02*
X8903396Y-14590388D01*
X8903396Y-14590388D02*
X8893873Y-14571341D01*
X8893873Y-14571341D02*
X8874825Y-14561817D01*
X8874825Y-14561817D02*
X8846253Y-14561817D01*
X8846253Y-14561817D02*
X8827206Y-14552293D01*
X8827206Y-14552293D02*
X8817682Y-14533246D01*
X8817682Y-14533246D02*
X8817682Y-14523722D01*
X8817682Y-14523722D02*
X8827206Y-14504674D01*
X8827206Y-14504674D02*
X8846253Y-14495150D01*
X8846253Y-14495150D02*
X8874825Y-14495150D01*
X8874825Y-14495150D02*
X8893873Y-14504674D01*
X8970063Y-14704674D02*
X8979587Y-14695150D01*
X8979587Y-14695150D02*
X8998634Y-14666579D01*
X8998634Y-14666579D02*
X9008158Y-14647531D01*
X9008158Y-14647531D02*
X9017682Y-14618960D01*
X9017682Y-14618960D02*
X9027206Y-14571341D01*
X9027206Y-14571341D02*
X9027206Y-14533246D01*
X9027206Y-14533246D02*
X9017682Y-14485627D01*
X9017682Y-14485627D02*
X9008158Y-14457055D01*
X9008158Y-14457055D02*
X8998634Y-14438008D01*
X8998634Y-14438008D02*
X8979587Y-14409436D01*
X8979587Y-14409436D02*
X8970063Y-14399912D01*
X4095000Y-14901000D02*
X4195000Y-14801000D01*
X4095000Y-14701000D01*
X3995000Y-14801000D01*
X4095000Y-14901000D01*
X4436729Y-14692484D02*
X4560539Y-14692484D01*
X4560539Y-14692484D02*
X4493872Y-14768674D01*
X4493872Y-14768674D02*
X4522444Y-14768674D01*
X4522444Y-14768674D02*
X4541491Y-14778198D01*
X4541491Y-14778198D02*
X4551015Y-14787722D01*
X4551015Y-14787722D02*
X4560539Y-14806769D01*
X4560539Y-14806769D02*
X4560539Y-14854388D01*
X4560539Y-14854388D02*
X4551015Y-14873436D01*
X4551015Y-14873436D02*
X4541491Y-14882960D01*
X4541491Y-14882960D02*
X4522444Y-14892484D01*
X4522444Y-14892484D02*
X4465301Y-14892484D01*
X4465301Y-14892484D02*
X4446253Y-14882960D01*
X4446253Y-14882960D02*
X4436729Y-14873436D01*
X4646253Y-14873436D02*
X4655777Y-14882960D01*
X4655777Y-14882960D02*
X4646253Y-14892484D01*
X4646253Y-14892484D02*
X4636729Y-14882960D01*
X4636729Y-14882960D02*
X4646253Y-14873436D01*
X4646253Y-14873436D02*
X4646253Y-14892484D01*
X4731967Y-14711531D02*
X4741491Y-14702008D01*
X4741491Y-14702008D02*
X4760539Y-14692484D01*
X4760539Y-14692484D02*
X4808158Y-14692484D01*
X4808158Y-14692484D02*
X4827205Y-14702008D01*
X4827205Y-14702008D02*
X4836729Y-14711531D01*
X4836729Y-14711531D02*
X4846253Y-14730579D01*
X4846253Y-14730579D02*
X4846253Y-14749627D01*
X4846253Y-14749627D02*
X4836729Y-14778198D01*
X4836729Y-14778198D02*
X4722444Y-14892484D01*
X4722444Y-14892484D02*
X4846253Y-14892484D01*
X4970063Y-14692484D02*
X4989110Y-14692484D01*
X4989110Y-14692484D02*
X5008158Y-14702008D01*
X5008158Y-14702008D02*
X5017682Y-14711531D01*
X5017682Y-14711531D02*
X5027205Y-14730579D01*
X5027205Y-14730579D02*
X5036729Y-14768674D01*
X5036729Y-14768674D02*
X5036729Y-14816293D01*
X5036729Y-14816293D02*
X5027205Y-14854388D01*
X5027205Y-14854388D02*
X5017682Y-14873436D01*
X5017682Y-14873436D02*
X5008158Y-14882960D01*
X5008158Y-14882960D02*
X4989110Y-14892484D01*
X4989110Y-14892484D02*
X4970063Y-14892484D01*
X4970063Y-14892484D02*
X4951015Y-14882960D01*
X4951015Y-14882960D02*
X4941491Y-14873436D01*
X4941491Y-14873436D02*
X4931967Y-14854388D01*
X4931967Y-14854388D02*
X4922444Y-14816293D01*
X4922444Y-14816293D02*
X4922444Y-14768674D01*
X4922444Y-14768674D02*
X4931967Y-14730579D01*
X4931967Y-14730579D02*
X4941491Y-14711531D01*
X4941491Y-14711531D02*
X4951015Y-14702008D01*
X4951015Y-14702008D02*
X4970063Y-14692484D01*
X5160539Y-14692484D02*
X5179586Y-14692484D01*
X5179586Y-14692484D02*
X5198634Y-14702008D01*
X5198634Y-14702008D02*
X5208158Y-14711531D01*
X5208158Y-14711531D02*
X5217682Y-14730579D01*
X5217682Y-14730579D02*
X5227205Y-14768674D01*
X5227205Y-14768674D02*
X5227205Y-14816293D01*
X5227205Y-14816293D02*
X5217682Y-14854388D01*
X5217682Y-14854388D02*
X5208158Y-14873436D01*
X5208158Y-14873436D02*
X5198634Y-14882960D01*
X5198634Y-14882960D02*
X5179586Y-14892484D01*
X5179586Y-14892484D02*
X5160539Y-14892484D01*
X5160539Y-14892484D02*
X5141491Y-14882960D01*
X5141491Y-14882960D02*
X5131967Y-14873436D01*
X5131967Y-14873436D02*
X5122444Y-14854388D01*
X5122444Y-14854388D02*
X5112920Y-14816293D01*
X5112920Y-14816293D02*
X5112920Y-14768674D01*
X5112920Y-14768674D02*
X5122444Y-14730579D01*
X5122444Y-14730579D02*
X5131967Y-14711531D01*
X5131967Y-14711531D02*
X5141491Y-14702008D01*
X5141491Y-14702008D02*
X5160539Y-14692484D01*
X5312920Y-14892484D02*
X5312920Y-14759150D01*
X5312920Y-14778198D02*
X5322444Y-14768674D01*
X5322444Y-14768674D02*
X5341491Y-14759150D01*
X5341491Y-14759150D02*
X5370063Y-14759150D01*
X5370063Y-14759150D02*
X5389110Y-14768674D01*
X5389110Y-14768674D02*
X5398634Y-14787722D01*
X5398634Y-14787722D02*
X5398634Y-14892484D01*
X5398634Y-14787722D02*
X5408158Y-14768674D01*
X5408158Y-14768674D02*
X5427205Y-14759150D01*
X5427205Y-14759150D02*
X5455777Y-14759150D01*
X5455777Y-14759150D02*
X5474825Y-14768674D01*
X5474825Y-14768674D02*
X5484348Y-14787722D01*
X5484348Y-14787722D02*
X5484348Y-14892484D01*
X5579586Y-14892484D02*
X5579586Y-14759150D01*
X5579586Y-14778198D02*
X5589110Y-14768674D01*
X5589110Y-14768674D02*
X5608158Y-14759150D01*
X5608158Y-14759150D02*
X5636729Y-14759150D01*
X5636729Y-14759150D02*
X5655777Y-14768674D01*
X5655777Y-14768674D02*
X5665301Y-14787722D01*
X5665301Y-14787722D02*
X5665301Y-14892484D01*
X5665301Y-14787722D02*
X5674824Y-14768674D01*
X5674824Y-14768674D02*
X5693872Y-14759150D01*
X5693872Y-14759150D02*
X5722443Y-14759150D01*
X5722443Y-14759150D02*
X5741491Y-14768674D01*
X5741491Y-14768674D02*
X5751015Y-14787722D01*
X5751015Y-14787722D02*
X5751015Y-14892484D01*
X6141491Y-14682960D02*
X5970063Y-14940103D01*
X6398634Y-14692484D02*
X6417682Y-14692484D01*
X6417682Y-14692484D02*
X6436729Y-14702008D01*
X6436729Y-14702008D02*
X6446253Y-14711531D01*
X6446253Y-14711531D02*
X6455777Y-14730579D01*
X6455777Y-14730579D02*
X6465301Y-14768674D01*
X6465301Y-14768674D02*
X6465301Y-14816293D01*
X6465301Y-14816293D02*
X6455777Y-14854388D01*
X6455777Y-14854388D02*
X6446253Y-14873436D01*
X6446253Y-14873436D02*
X6436729Y-14882960D01*
X6436729Y-14882960D02*
X6417682Y-14892484D01*
X6417682Y-14892484D02*
X6398634Y-14892484D01*
X6398634Y-14892484D02*
X6379586Y-14882960D01*
X6379586Y-14882960D02*
X6370063Y-14873436D01*
X6370063Y-14873436D02*
X6360539Y-14854388D01*
X6360539Y-14854388D02*
X6351015Y-14816293D01*
X6351015Y-14816293D02*
X6351015Y-14768674D01*
X6351015Y-14768674D02*
X6360539Y-14730579D01*
X6360539Y-14730579D02*
X6370063Y-14711531D01*
X6370063Y-14711531D02*
X6379586Y-14702008D01*
X6379586Y-14702008D02*
X6398634Y-14692484D01*
X6551015Y-14873436D02*
X6560539Y-14882960D01*
X6560539Y-14882960D02*
X6551015Y-14892484D01*
X6551015Y-14892484D02*
X6541491Y-14882960D01*
X6541491Y-14882960D02*
X6551015Y-14873436D01*
X6551015Y-14873436D02*
X6551015Y-14892484D01*
X6751015Y-14892484D02*
X6636729Y-14892484D01*
X6693872Y-14892484D02*
X6693872Y-14692484D01*
X6693872Y-14692484D02*
X6674825Y-14721055D01*
X6674825Y-14721055D02*
X6655777Y-14740103D01*
X6655777Y-14740103D02*
X6636729Y-14749627D01*
X6827206Y-14711531D02*
X6836729Y-14702008D01*
X6836729Y-14702008D02*
X6855777Y-14692484D01*
X6855777Y-14692484D02*
X6903396Y-14692484D01*
X6903396Y-14692484D02*
X6922444Y-14702008D01*
X6922444Y-14702008D02*
X6931967Y-14711531D01*
X6931967Y-14711531D02*
X6941491Y-14730579D01*
X6941491Y-14730579D02*
X6941491Y-14749627D01*
X6941491Y-14749627D02*
X6931967Y-14778198D01*
X6931967Y-14778198D02*
X6817682Y-14892484D01*
X6817682Y-14892484D02*
X6941491Y-14892484D01*
X7112920Y-14692484D02*
X7074825Y-14692484D01*
X7074825Y-14692484D02*
X7055777Y-14702008D01*
X7055777Y-14702008D02*
X7046253Y-14711531D01*
X7046253Y-14711531D02*
X7027206Y-14740103D01*
X7027206Y-14740103D02*
X7017682Y-14778198D01*
X7017682Y-14778198D02*
X7017682Y-14854388D01*
X7017682Y-14854388D02*
X7027206Y-14873436D01*
X7027206Y-14873436D02*
X7036729Y-14882960D01*
X7036729Y-14882960D02*
X7055777Y-14892484D01*
X7055777Y-14892484D02*
X7093872Y-14892484D01*
X7093872Y-14892484D02*
X7112920Y-14882960D01*
X7112920Y-14882960D02*
X7122444Y-14873436D01*
X7122444Y-14873436D02*
X7131967Y-14854388D01*
X7131967Y-14854388D02*
X7131967Y-14806769D01*
X7131967Y-14806769D02*
X7122444Y-14787722D01*
X7122444Y-14787722D02*
X7112920Y-14778198D01*
X7112920Y-14778198D02*
X7093872Y-14768674D01*
X7093872Y-14768674D02*
X7055777Y-14768674D01*
X7055777Y-14768674D02*
X7036729Y-14778198D01*
X7036729Y-14778198D02*
X7027206Y-14787722D01*
X7027206Y-14787722D02*
X7017682Y-14806769D01*
X7255777Y-14692484D02*
X7274825Y-14692484D01*
X7274825Y-14692484D02*
X7293872Y-14702008D01*
X7293872Y-14702008D02*
X7303396Y-14711531D01*
X7303396Y-14711531D02*
X7312920Y-14730579D01*
X7312920Y-14730579D02*
X7322444Y-14768674D01*
X7322444Y-14768674D02*
X7322444Y-14816293D01*
X7322444Y-14816293D02*
X7312920Y-14854388D01*
X7312920Y-14854388D02*
X7303396Y-14873436D01*
X7303396Y-14873436D02*
X7293872Y-14882960D01*
X7293872Y-14882960D02*
X7274825Y-14892484D01*
X7274825Y-14892484D02*
X7255777Y-14892484D01*
X7255777Y-14892484D02*
X7236729Y-14882960D01*
X7236729Y-14882960D02*
X7227206Y-14873436D01*
X7227206Y-14873436D02*
X7217682Y-14854388D01*
X7217682Y-14854388D02*
X7208158Y-14816293D01*
X7208158Y-14816293D02*
X7208158Y-14768674D01*
X7208158Y-14768674D02*
X7217682Y-14730579D01*
X7217682Y-14730579D02*
X7227206Y-14711531D01*
X7227206Y-14711531D02*
X7236729Y-14702008D01*
X7236729Y-14702008D02*
X7255777Y-14692484D01*
X7398634Y-14692484D02*
X7398634Y-14730579D01*
X7474825Y-14692484D02*
X7474825Y-14730579D01*
X7770063Y-14968674D02*
X7760539Y-14959150D01*
X7760539Y-14959150D02*
X7741491Y-14930579D01*
X7741491Y-14930579D02*
X7731968Y-14911531D01*
X7731968Y-14911531D02*
X7722444Y-14882960D01*
X7722444Y-14882960D02*
X7712920Y-14835341D01*
X7712920Y-14835341D02*
X7712920Y-14797246D01*
X7712920Y-14797246D02*
X7722444Y-14749627D01*
X7722444Y-14749627D02*
X7731968Y-14721055D01*
X7731968Y-14721055D02*
X7741491Y-14702008D01*
X7741491Y-14702008D02*
X7760539Y-14673436D01*
X7760539Y-14673436D02*
X7770063Y-14663912D01*
X7931968Y-14759150D02*
X7931968Y-14892484D01*
X7884348Y-14682960D02*
X7836729Y-14825817D01*
X7836729Y-14825817D02*
X7960539Y-14825817D01*
X8189110Y-14892484D02*
X8189110Y-14692484D01*
X8274825Y-14892484D02*
X8274825Y-14787722D01*
X8274825Y-14787722D02*
X8265301Y-14768674D01*
X8265301Y-14768674D02*
X8246253Y-14759150D01*
X8246253Y-14759150D02*
X8217682Y-14759150D01*
X8217682Y-14759150D02*
X8198634Y-14768674D01*
X8198634Y-14768674D02*
X8189110Y-14778198D01*
X8398634Y-14892484D02*
X8379587Y-14882960D01*
X8379587Y-14882960D02*
X8370063Y-14873436D01*
X8370063Y-14873436D02*
X8360539Y-14854388D01*
X8360539Y-14854388D02*
X8360539Y-14797246D01*
X8360539Y-14797246D02*
X8370063Y-14778198D01*
X8370063Y-14778198D02*
X8379587Y-14768674D01*
X8379587Y-14768674D02*
X8398634Y-14759150D01*
X8398634Y-14759150D02*
X8427206Y-14759150D01*
X8427206Y-14759150D02*
X8446253Y-14768674D01*
X8446253Y-14768674D02*
X8455777Y-14778198D01*
X8455777Y-14778198D02*
X8465301Y-14797246D01*
X8465301Y-14797246D02*
X8465301Y-14854388D01*
X8465301Y-14854388D02*
X8455777Y-14873436D01*
X8455777Y-14873436D02*
X8446253Y-14882960D01*
X8446253Y-14882960D02*
X8427206Y-14892484D01*
X8427206Y-14892484D02*
X8398634Y-14892484D01*
X8579587Y-14892484D02*
X8560539Y-14882960D01*
X8560539Y-14882960D02*
X8551015Y-14863912D01*
X8551015Y-14863912D02*
X8551015Y-14692484D01*
X8731968Y-14882960D02*
X8712920Y-14892484D01*
X8712920Y-14892484D02*
X8674825Y-14892484D01*
X8674825Y-14892484D02*
X8655777Y-14882960D01*
X8655777Y-14882960D02*
X8646253Y-14863912D01*
X8646253Y-14863912D02*
X8646253Y-14787722D01*
X8646253Y-14787722D02*
X8655777Y-14768674D01*
X8655777Y-14768674D02*
X8674825Y-14759150D01*
X8674825Y-14759150D02*
X8712920Y-14759150D01*
X8712920Y-14759150D02*
X8731968Y-14768674D01*
X8731968Y-14768674D02*
X8741492Y-14787722D01*
X8741492Y-14787722D02*
X8741492Y-14806769D01*
X8741492Y-14806769D02*
X8646253Y-14825817D01*
X8817682Y-14882960D02*
X8836730Y-14892484D01*
X8836730Y-14892484D02*
X8874825Y-14892484D01*
X8874825Y-14892484D02*
X8893873Y-14882960D01*
X8893873Y-14882960D02*
X8903396Y-14863912D01*
X8903396Y-14863912D02*
X8903396Y-14854388D01*
X8903396Y-14854388D02*
X8893873Y-14835341D01*
X8893873Y-14835341D02*
X8874825Y-14825817D01*
X8874825Y-14825817D02*
X8846253Y-14825817D01*
X8846253Y-14825817D02*
X8827206Y-14816293D01*
X8827206Y-14816293D02*
X8817682Y-14797246D01*
X8817682Y-14797246D02*
X8817682Y-14787722D01*
X8817682Y-14787722D02*
X8827206Y-14768674D01*
X8827206Y-14768674D02*
X8846253Y-14759150D01*
X8846253Y-14759150D02*
X8874825Y-14759150D01*
X8874825Y-14759150D02*
X8893873Y-14768674D01*
X8970063Y-14968674D02*
X8979587Y-14959150D01*
X8979587Y-14959150D02*
X8998634Y-14930579D01*
X8998634Y-14930579D02*
X9008158Y-14911531D01*
X9008158Y-14911531D02*
X9017682Y-14882960D01*
X9017682Y-14882960D02*
X9027206Y-14835341D01*
X9027206Y-14835341D02*
X9027206Y-14797246D01*
X9027206Y-14797246D02*
X9017682Y-14749627D01*
X9017682Y-14749627D02*
X9008158Y-14721055D01*
X9008158Y-14721055D02*
X8998634Y-14702008D01*
X8998634Y-14702008D02*
X8979587Y-14673436D01*
X8979587Y-14673436D02*
X8970063Y-14663912D01*
D10*
X4095940Y-15071470D02*
X4195000Y-15170530D01*
X4195000Y-15071470D02*
X4095940Y-15170530D01*
X4195000Y-15121000D02*
G75*
G02*
X4095940Y-15121000I-49530J0D01*
G01*
X4095940Y-15121000D02*
G75*
G02*
X4195000Y-15121000I49530J0D01*
G01*
D11*
X4493872Y-15012484D02*
X4512920Y-15012484D01*
X4512920Y-15012484D02*
X4531967Y-15022008D01*
X4531967Y-15022008D02*
X4541491Y-15031531D01*
X4541491Y-15031531D02*
X4551015Y-15050579D01*
X4551015Y-15050579D02*
X4560539Y-15088674D01*
X4560539Y-15088674D02*
X4560539Y-15136293D01*
X4560539Y-15136293D02*
X4551015Y-15174388D01*
X4551015Y-15174388D02*
X4541491Y-15193436D01*
X4541491Y-15193436D02*
X4531967Y-15202960D01*
X4531967Y-15202960D02*
X4512920Y-15212484D01*
X4512920Y-15212484D02*
X4493872Y-15212484D01*
X4493872Y-15212484D02*
X4474824Y-15202960D01*
X4474824Y-15202960D02*
X4465301Y-15193436D01*
X4465301Y-15193436D02*
X4455777Y-15174388D01*
X4455777Y-15174388D02*
X4446253Y-15136293D01*
X4446253Y-15136293D02*
X4446253Y-15088674D01*
X4446253Y-15088674D02*
X4455777Y-15050579D01*
X4455777Y-15050579D02*
X4465301Y-15031531D01*
X4465301Y-15031531D02*
X4474824Y-15022008D01*
X4474824Y-15022008D02*
X4493872Y-15012484D01*
X4646253Y-15193436D02*
X4655777Y-15202960D01*
X4655777Y-15202960D02*
X4646253Y-15212484D01*
X4646253Y-15212484D02*
X4636729Y-15202960D01*
X4636729Y-15202960D02*
X4646253Y-15193436D01*
X4646253Y-15193436D02*
X4646253Y-15212484D01*
X4751015Y-15212484D02*
X4789110Y-15212484D01*
X4789110Y-15212484D02*
X4808158Y-15202960D01*
X4808158Y-15202960D02*
X4817682Y-15193436D01*
X4817682Y-15193436D02*
X4836729Y-15164865D01*
X4836729Y-15164865D02*
X4846253Y-15126769D01*
X4846253Y-15126769D02*
X4846253Y-15050579D01*
X4846253Y-15050579D02*
X4836729Y-15031531D01*
X4836729Y-15031531D02*
X4827205Y-15022008D01*
X4827205Y-15022008D02*
X4808158Y-15012484D01*
X4808158Y-15012484D02*
X4770063Y-15012484D01*
X4770063Y-15012484D02*
X4751015Y-15022008D01*
X4751015Y-15022008D02*
X4741491Y-15031531D01*
X4741491Y-15031531D02*
X4731967Y-15050579D01*
X4731967Y-15050579D02*
X4731967Y-15098198D01*
X4731967Y-15098198D02*
X4741491Y-15117246D01*
X4741491Y-15117246D02*
X4751015Y-15126769D01*
X4751015Y-15126769D02*
X4770063Y-15136293D01*
X4770063Y-15136293D02*
X4808158Y-15136293D01*
X4808158Y-15136293D02*
X4827205Y-15126769D01*
X4827205Y-15126769D02*
X4836729Y-15117246D01*
X4836729Y-15117246D02*
X4846253Y-15098198D01*
X4941491Y-15212484D02*
X4979586Y-15212484D01*
X4979586Y-15212484D02*
X4998634Y-15202960D01*
X4998634Y-15202960D02*
X5008158Y-15193436D01*
X5008158Y-15193436D02*
X5027205Y-15164865D01*
X5027205Y-15164865D02*
X5036729Y-15126769D01*
X5036729Y-15126769D02*
X5036729Y-15050579D01*
X5036729Y-15050579D02*
X5027205Y-15031531D01*
X5027205Y-15031531D02*
X5017682Y-15022008D01*
X5017682Y-15022008D02*
X4998634Y-15012484D01*
X4998634Y-15012484D02*
X4960539Y-15012484D01*
X4960539Y-15012484D02*
X4941491Y-15022008D01*
X4941491Y-15022008D02*
X4931967Y-15031531D01*
X4931967Y-15031531D02*
X4922444Y-15050579D01*
X4922444Y-15050579D02*
X4922444Y-15098198D01*
X4922444Y-15098198D02*
X4931967Y-15117246D01*
X4931967Y-15117246D02*
X4941491Y-15126769D01*
X4941491Y-15126769D02*
X4960539Y-15136293D01*
X4960539Y-15136293D02*
X4998634Y-15136293D01*
X4998634Y-15136293D02*
X5017682Y-15126769D01*
X5017682Y-15126769D02*
X5027205Y-15117246D01*
X5027205Y-15117246D02*
X5036729Y-15098198D01*
X5227205Y-15212484D02*
X5112920Y-15212484D01*
X5170063Y-15212484D02*
X5170063Y-15012484D01*
X5170063Y-15012484D02*
X5151015Y-15041055D01*
X5151015Y-15041055D02*
X5131967Y-15060103D01*
X5131967Y-15060103D02*
X5112920Y-15069627D01*
X5312920Y-15212484D02*
X5312920Y-15079150D01*
X5312920Y-15098198D02*
X5322444Y-15088674D01*
X5322444Y-15088674D02*
X5341491Y-15079150D01*
X5341491Y-15079150D02*
X5370063Y-15079150D01*
X5370063Y-15079150D02*
X5389110Y-15088674D01*
X5389110Y-15088674D02*
X5398634Y-15107722D01*
X5398634Y-15107722D02*
X5398634Y-15212484D01*
X5398634Y-15107722D02*
X5408158Y-15088674D01*
X5408158Y-15088674D02*
X5427205Y-15079150D01*
X5427205Y-15079150D02*
X5455777Y-15079150D01*
X5455777Y-15079150D02*
X5474825Y-15088674D01*
X5474825Y-15088674D02*
X5484348Y-15107722D01*
X5484348Y-15107722D02*
X5484348Y-15212484D01*
X5579586Y-15212484D02*
X5579586Y-15079150D01*
X5579586Y-15098198D02*
X5589110Y-15088674D01*
X5589110Y-15088674D02*
X5608158Y-15079150D01*
X5608158Y-15079150D02*
X5636729Y-15079150D01*
X5636729Y-15079150D02*
X5655777Y-15088674D01*
X5655777Y-15088674D02*
X5665301Y-15107722D01*
X5665301Y-15107722D02*
X5665301Y-15212484D01*
X5665301Y-15107722D02*
X5674824Y-15088674D01*
X5674824Y-15088674D02*
X5693872Y-15079150D01*
X5693872Y-15079150D02*
X5722443Y-15079150D01*
X5722443Y-15079150D02*
X5741491Y-15088674D01*
X5741491Y-15088674D02*
X5751015Y-15107722D01*
X5751015Y-15107722D02*
X5751015Y-15212484D01*
X6141491Y-15002960D02*
X5970063Y-15260103D01*
X6398634Y-15012484D02*
X6417682Y-15012484D01*
X6417682Y-15012484D02*
X6436729Y-15022008D01*
X6436729Y-15022008D02*
X6446253Y-15031531D01*
X6446253Y-15031531D02*
X6455777Y-15050579D01*
X6455777Y-15050579D02*
X6465301Y-15088674D01*
X6465301Y-15088674D02*
X6465301Y-15136293D01*
X6465301Y-15136293D02*
X6455777Y-15174388D01*
X6455777Y-15174388D02*
X6446253Y-15193436D01*
X6446253Y-15193436D02*
X6436729Y-15202960D01*
X6436729Y-15202960D02*
X6417682Y-15212484D01*
X6417682Y-15212484D02*
X6398634Y-15212484D01*
X6398634Y-15212484D02*
X6379586Y-15202960D01*
X6379586Y-15202960D02*
X6370063Y-15193436D01*
X6370063Y-15193436D02*
X6360539Y-15174388D01*
X6360539Y-15174388D02*
X6351015Y-15136293D01*
X6351015Y-15136293D02*
X6351015Y-15088674D01*
X6351015Y-15088674D02*
X6360539Y-15050579D01*
X6360539Y-15050579D02*
X6370063Y-15031531D01*
X6370063Y-15031531D02*
X6379586Y-15022008D01*
X6379586Y-15022008D02*
X6398634Y-15012484D01*
X6551015Y-15193436D02*
X6560539Y-15202960D01*
X6560539Y-15202960D02*
X6551015Y-15212484D01*
X6551015Y-15212484D02*
X6541491Y-15202960D01*
X6541491Y-15202960D02*
X6551015Y-15193436D01*
X6551015Y-15193436D02*
X6551015Y-15212484D01*
X6684348Y-15012484D02*
X6703396Y-15012484D01*
X6703396Y-15012484D02*
X6722444Y-15022008D01*
X6722444Y-15022008D02*
X6731967Y-15031531D01*
X6731967Y-15031531D02*
X6741491Y-15050579D01*
X6741491Y-15050579D02*
X6751015Y-15088674D01*
X6751015Y-15088674D02*
X6751015Y-15136293D01*
X6751015Y-15136293D02*
X6741491Y-15174388D01*
X6741491Y-15174388D02*
X6731967Y-15193436D01*
X6731967Y-15193436D02*
X6722444Y-15202960D01*
X6722444Y-15202960D02*
X6703396Y-15212484D01*
X6703396Y-15212484D02*
X6684348Y-15212484D01*
X6684348Y-15212484D02*
X6665301Y-15202960D01*
X6665301Y-15202960D02*
X6655777Y-15193436D01*
X6655777Y-15193436D02*
X6646253Y-15174388D01*
X6646253Y-15174388D02*
X6636729Y-15136293D01*
X6636729Y-15136293D02*
X6636729Y-15088674D01*
X6636729Y-15088674D02*
X6646253Y-15050579D01*
X6646253Y-15050579D02*
X6655777Y-15031531D01*
X6655777Y-15031531D02*
X6665301Y-15022008D01*
X6665301Y-15022008D02*
X6684348Y-15012484D01*
X6817682Y-15012484D02*
X6941491Y-15012484D01*
X6941491Y-15012484D02*
X6874825Y-15088674D01*
X6874825Y-15088674D02*
X6903396Y-15088674D01*
X6903396Y-15088674D02*
X6922444Y-15098198D01*
X6922444Y-15098198D02*
X6931967Y-15107722D01*
X6931967Y-15107722D02*
X6941491Y-15126769D01*
X6941491Y-15126769D02*
X6941491Y-15174388D01*
X6941491Y-15174388D02*
X6931967Y-15193436D01*
X6931967Y-15193436D02*
X6922444Y-15202960D01*
X6922444Y-15202960D02*
X6903396Y-15212484D01*
X6903396Y-15212484D02*
X6846253Y-15212484D01*
X6846253Y-15212484D02*
X6827206Y-15202960D01*
X6827206Y-15202960D02*
X6817682Y-15193436D01*
X7036729Y-15212484D02*
X7074825Y-15212484D01*
X7074825Y-15212484D02*
X7093872Y-15202960D01*
X7093872Y-15202960D02*
X7103396Y-15193436D01*
X7103396Y-15193436D02*
X7122444Y-15164865D01*
X7122444Y-15164865D02*
X7131967Y-15126769D01*
X7131967Y-15126769D02*
X7131967Y-15050579D01*
X7131967Y-15050579D02*
X7122444Y-15031531D01*
X7122444Y-15031531D02*
X7112920Y-15022008D01*
X7112920Y-15022008D02*
X7093872Y-15012484D01*
X7093872Y-15012484D02*
X7055777Y-15012484D01*
X7055777Y-15012484D02*
X7036729Y-15022008D01*
X7036729Y-15022008D02*
X7027206Y-15031531D01*
X7027206Y-15031531D02*
X7017682Y-15050579D01*
X7017682Y-15050579D02*
X7017682Y-15098198D01*
X7017682Y-15098198D02*
X7027206Y-15117246D01*
X7027206Y-15117246D02*
X7036729Y-15126769D01*
X7036729Y-15126769D02*
X7055777Y-15136293D01*
X7055777Y-15136293D02*
X7093872Y-15136293D01*
X7093872Y-15136293D02*
X7112920Y-15126769D01*
X7112920Y-15126769D02*
X7122444Y-15117246D01*
X7122444Y-15117246D02*
X7131967Y-15098198D01*
X7255777Y-15012484D02*
X7274825Y-15012484D01*
X7274825Y-15012484D02*
X7293872Y-15022008D01*
X7293872Y-15022008D02*
X7303396Y-15031531D01*
X7303396Y-15031531D02*
X7312920Y-15050579D01*
X7312920Y-15050579D02*
X7322444Y-15088674D01*
X7322444Y-15088674D02*
X7322444Y-15136293D01*
X7322444Y-15136293D02*
X7312920Y-15174388D01*
X7312920Y-15174388D02*
X7303396Y-15193436D01*
X7303396Y-15193436D02*
X7293872Y-15202960D01*
X7293872Y-15202960D02*
X7274825Y-15212484D01*
X7274825Y-15212484D02*
X7255777Y-15212484D01*
X7255777Y-15212484D02*
X7236729Y-15202960D01*
X7236729Y-15202960D02*
X7227206Y-15193436D01*
X7227206Y-15193436D02*
X7217682Y-15174388D01*
X7217682Y-15174388D02*
X7208158Y-15136293D01*
X7208158Y-15136293D02*
X7208158Y-15088674D01*
X7208158Y-15088674D02*
X7217682Y-15050579D01*
X7217682Y-15050579D02*
X7227206Y-15031531D01*
X7227206Y-15031531D02*
X7236729Y-15022008D01*
X7236729Y-15022008D02*
X7255777Y-15012484D01*
X7398634Y-15012484D02*
X7398634Y-15050579D01*
X7474825Y-15012484D02*
X7474825Y-15050579D01*
X7770063Y-15288674D02*
X7760539Y-15279150D01*
X7760539Y-15279150D02*
X7741491Y-15250579D01*
X7741491Y-15250579D02*
X7731968Y-15231531D01*
X7731968Y-15231531D02*
X7722444Y-15202960D01*
X7722444Y-15202960D02*
X7712920Y-15155341D01*
X7712920Y-15155341D02*
X7712920Y-15117246D01*
X7712920Y-15117246D02*
X7722444Y-15069627D01*
X7722444Y-15069627D02*
X7731968Y-15041055D01*
X7731968Y-15041055D02*
X7741491Y-15022008D01*
X7741491Y-15022008D02*
X7760539Y-14993436D01*
X7760539Y-14993436D02*
X7770063Y-14983912D01*
X7827206Y-15012484D02*
X7951015Y-15012484D01*
X7951015Y-15012484D02*
X7884348Y-15088674D01*
X7884348Y-15088674D02*
X7912920Y-15088674D01*
X7912920Y-15088674D02*
X7931968Y-15098198D01*
X7931968Y-15098198D02*
X7941491Y-15107722D01*
X7941491Y-15107722D02*
X7951015Y-15126769D01*
X7951015Y-15126769D02*
X7951015Y-15174388D01*
X7951015Y-15174388D02*
X7941491Y-15193436D01*
X7941491Y-15193436D02*
X7931968Y-15202960D01*
X7931968Y-15202960D02*
X7912920Y-15212484D01*
X7912920Y-15212484D02*
X7855777Y-15212484D01*
X7855777Y-15212484D02*
X7836729Y-15202960D01*
X7836729Y-15202960D02*
X7827206Y-15193436D01*
X8189110Y-15212484D02*
X8189110Y-15012484D01*
X8274825Y-15212484D02*
X8274825Y-15107722D01*
X8274825Y-15107722D02*
X8265301Y-15088674D01*
X8265301Y-15088674D02*
X8246253Y-15079150D01*
X8246253Y-15079150D02*
X8217682Y-15079150D01*
X8217682Y-15079150D02*
X8198634Y-15088674D01*
X8198634Y-15088674D02*
X8189110Y-15098198D01*
X8398634Y-15212484D02*
X8379587Y-15202960D01*
X8379587Y-15202960D02*
X8370063Y-15193436D01*
X8370063Y-15193436D02*
X8360539Y-15174388D01*
X8360539Y-15174388D02*
X8360539Y-15117246D01*
X8360539Y-15117246D02*
X8370063Y-15098198D01*
X8370063Y-15098198D02*
X8379587Y-15088674D01*
X8379587Y-15088674D02*
X8398634Y-15079150D01*
X8398634Y-15079150D02*
X8427206Y-15079150D01*
X8427206Y-15079150D02*
X8446253Y-15088674D01*
X8446253Y-15088674D02*
X8455777Y-15098198D01*
X8455777Y-15098198D02*
X8465301Y-15117246D01*
X8465301Y-15117246D02*
X8465301Y-15174388D01*
X8465301Y-15174388D02*
X8455777Y-15193436D01*
X8455777Y-15193436D02*
X8446253Y-15202960D01*
X8446253Y-15202960D02*
X8427206Y-15212484D01*
X8427206Y-15212484D02*
X8398634Y-15212484D01*
X8579587Y-15212484D02*
X8560539Y-15202960D01*
X8560539Y-15202960D02*
X8551015Y-15183912D01*
X8551015Y-15183912D02*
X8551015Y-15012484D01*
X8731968Y-15202960D02*
X8712920Y-15212484D01*
X8712920Y-15212484D02*
X8674825Y-15212484D01*
X8674825Y-15212484D02*
X8655777Y-15202960D01*
X8655777Y-15202960D02*
X8646253Y-15183912D01*
X8646253Y-15183912D02*
X8646253Y-15107722D01*
X8646253Y-15107722D02*
X8655777Y-15088674D01*
X8655777Y-15088674D02*
X8674825Y-15079150D01*
X8674825Y-15079150D02*
X8712920Y-15079150D01*
X8712920Y-15079150D02*
X8731968Y-15088674D01*
X8731968Y-15088674D02*
X8741492Y-15107722D01*
X8741492Y-15107722D02*
X8741492Y-15126769D01*
X8741492Y-15126769D02*
X8646253Y-15145817D01*
X8817682Y-15202960D02*
X8836730Y-15212484D01*
X8836730Y-15212484D02*
X8874825Y-15212484D01*
X8874825Y-15212484D02*
X8893873Y-15202960D01*
X8893873Y-15202960D02*
X8903396Y-15183912D01*
X8903396Y-15183912D02*
X8903396Y-15174388D01*
X8903396Y-15174388D02*
X8893873Y-15155341D01*
X8893873Y-15155341D02*
X8874825Y-15145817D01*
X8874825Y-15145817D02*
X8846253Y-15145817D01*
X8846253Y-15145817D02*
X8827206Y-15136293D01*
X8827206Y-15136293D02*
X8817682Y-15117246D01*
X8817682Y-15117246D02*
X8817682Y-15107722D01*
X8817682Y-15107722D02*
X8827206Y-15088674D01*
X8827206Y-15088674D02*
X8846253Y-15079150D01*
X8846253Y-15079150D02*
X8874825Y-15079150D01*
X8874825Y-15079150D02*
X8893873Y-15088674D01*
X8970063Y-15288674D02*
X8979587Y-15279150D01*
X8979587Y-15279150D02*
X8998634Y-15250579D01*
X8998634Y-15250579D02*
X9008158Y-15231531D01*
X9008158Y-15231531D02*
X9017682Y-15202960D01*
X9017682Y-15202960D02*
X9027206Y-15155341D01*
X9027206Y-15155341D02*
X9027206Y-15117246D01*
X9027206Y-15117246D02*
X9017682Y-15069627D01*
X9017682Y-15069627D02*
X9008158Y-15041055D01*
X9008158Y-15041055D02*
X8998634Y-15022008D01*
X8998634Y-15022008D02*
X8979587Y-14993436D01*
X8979587Y-14993436D02*
X8970063Y-14983912D01*
X9331968Y-15288674D02*
X9322444Y-15279150D01*
X9322444Y-15279150D02*
X9303396Y-15250579D01*
X9303396Y-15250579D02*
X9293873Y-15231531D01*
X9293873Y-15231531D02*
X9284349Y-15202960D01*
X9284349Y-15202960D02*
X9274825Y-15155341D01*
X9274825Y-15155341D02*
X9274825Y-15117246D01*
X9274825Y-15117246D02*
X9284349Y-15069627D01*
X9284349Y-15069627D02*
X9293873Y-15041055D01*
X9293873Y-15041055D02*
X9303396Y-15022008D01*
X9303396Y-15022008D02*
X9322444Y-14993436D01*
X9322444Y-14993436D02*
X9331968Y-14983912D01*
X9408158Y-15079150D02*
X9408158Y-15212484D01*
X9408158Y-15098198D02*
X9417682Y-15088674D01*
X9417682Y-15088674D02*
X9436730Y-15079150D01*
X9436730Y-15079150D02*
X9465301Y-15079150D01*
X9465301Y-15079150D02*
X9484349Y-15088674D01*
X9484349Y-15088674D02*
X9493873Y-15107722D01*
X9493873Y-15107722D02*
X9493873Y-15212484D01*
X9617682Y-15212484D02*
X9598634Y-15202960D01*
X9598634Y-15202960D02*
X9589111Y-15193436D01*
X9589111Y-15193436D02*
X9579587Y-15174388D01*
X9579587Y-15174388D02*
X9579587Y-15117246D01*
X9579587Y-15117246D02*
X9589111Y-15098198D01*
X9589111Y-15098198D02*
X9598634Y-15088674D01*
X9598634Y-15088674D02*
X9617682Y-15079150D01*
X9617682Y-15079150D02*
X9646254Y-15079150D01*
X9646254Y-15079150D02*
X9665301Y-15088674D01*
X9665301Y-15088674D02*
X9674825Y-15098198D01*
X9674825Y-15098198D02*
X9684349Y-15117246D01*
X9684349Y-15117246D02*
X9684349Y-15174388D01*
X9684349Y-15174388D02*
X9674825Y-15193436D01*
X9674825Y-15193436D02*
X9665301Y-15202960D01*
X9665301Y-15202960D02*
X9646254Y-15212484D01*
X9646254Y-15212484D02*
X9617682Y-15212484D01*
X9741492Y-15079150D02*
X9817682Y-15079150D01*
X9770063Y-15012484D02*
X9770063Y-15183912D01*
X9770063Y-15183912D02*
X9779587Y-15202960D01*
X9779587Y-15202960D02*
X9798634Y-15212484D01*
X9798634Y-15212484D02*
X9817682Y-15212484D01*
X10036730Y-15079150D02*
X10036730Y-15279150D01*
X10036730Y-15088674D02*
X10055777Y-15079150D01*
X10055777Y-15079150D02*
X10093873Y-15079150D01*
X10093873Y-15079150D02*
X10112920Y-15088674D01*
X10112920Y-15088674D02*
X10122444Y-15098198D01*
X10122444Y-15098198D02*
X10131968Y-15117246D01*
X10131968Y-15117246D02*
X10131968Y-15174388D01*
X10131968Y-15174388D02*
X10122444Y-15193436D01*
X10122444Y-15193436D02*
X10112920Y-15202960D01*
X10112920Y-15202960D02*
X10093873Y-15212484D01*
X10093873Y-15212484D02*
X10055777Y-15212484D01*
X10055777Y-15212484D02*
X10036730Y-15202960D01*
X10246254Y-15212484D02*
X10227206Y-15202960D01*
X10227206Y-15202960D02*
X10217682Y-15183912D01*
X10217682Y-15183912D02*
X10217682Y-15012484D01*
X10408158Y-15212484D02*
X10408158Y-15107722D01*
X10408158Y-15107722D02*
X10398635Y-15088674D01*
X10398635Y-15088674D02*
X10379587Y-15079150D01*
X10379587Y-15079150D02*
X10341492Y-15079150D01*
X10341492Y-15079150D02*
X10322444Y-15088674D01*
X10408158Y-15202960D02*
X10389111Y-15212484D01*
X10389111Y-15212484D02*
X10341492Y-15212484D01*
X10341492Y-15212484D02*
X10322444Y-15202960D01*
X10322444Y-15202960D02*
X10312920Y-15183912D01*
X10312920Y-15183912D02*
X10312920Y-15164865D01*
X10312920Y-15164865D02*
X10322444Y-15145817D01*
X10322444Y-15145817D02*
X10341492Y-15136293D01*
X10341492Y-15136293D02*
X10389111Y-15136293D01*
X10389111Y-15136293D02*
X10408158Y-15126769D01*
X10474825Y-15079150D02*
X10551015Y-15079150D01*
X10503396Y-15012484D02*
X10503396Y-15183912D01*
X10503396Y-15183912D02*
X10512920Y-15202960D01*
X10512920Y-15202960D02*
X10531968Y-15212484D01*
X10531968Y-15212484D02*
X10551015Y-15212484D01*
X10693873Y-15202960D02*
X10674825Y-15212484D01*
X10674825Y-15212484D02*
X10636730Y-15212484D01*
X10636730Y-15212484D02*
X10617682Y-15202960D01*
X10617682Y-15202960D02*
X10608158Y-15183912D01*
X10608158Y-15183912D02*
X10608158Y-15107722D01*
X10608158Y-15107722D02*
X10617682Y-15088674D01*
X10617682Y-15088674D02*
X10636730Y-15079150D01*
X10636730Y-15079150D02*
X10674825Y-15079150D01*
X10674825Y-15079150D02*
X10693873Y-15088674D01*
X10693873Y-15088674D02*
X10703396Y-15107722D01*
X10703396Y-15107722D02*
X10703396Y-15126769D01*
X10703396Y-15126769D02*
X10608158Y-15145817D01*
X10874825Y-15212484D02*
X10874825Y-15012484D01*
X10874825Y-15202960D02*
X10855777Y-15212484D01*
X10855777Y-15212484D02*
X10817682Y-15212484D01*
X10817682Y-15212484D02*
X10798635Y-15202960D01*
X10798635Y-15202960D02*
X10789111Y-15193436D01*
X10789111Y-15193436D02*
X10779587Y-15174388D01*
X10779587Y-15174388D02*
X10779587Y-15117246D01*
X10779587Y-15117246D02*
X10789111Y-15098198D01*
X10789111Y-15098198D02*
X10798635Y-15088674D01*
X10798635Y-15088674D02*
X10817682Y-15079150D01*
X10817682Y-15079150D02*
X10855777Y-15079150D01*
X10855777Y-15079150D02*
X10874825Y-15088674D01*
X10951016Y-15288674D02*
X10960539Y-15279150D01*
X10960539Y-15279150D02*
X10979587Y-15250579D01*
X10979587Y-15250579D02*
X10989111Y-15231531D01*
X10989111Y-15231531D02*
X10998635Y-15202960D01*
X10998635Y-15202960D02*
X11008158Y-15155341D01*
X11008158Y-15155341D02*
X11008158Y-15117246D01*
X11008158Y-15117246D02*
X10998635Y-15069627D01*
X10998635Y-15069627D02*
X10989111Y-15041055D01*
X10989111Y-15041055D02*
X10979587Y-15022008D01*
X10979587Y-15022008D02*
X10960539Y-14993436D01*
X10960539Y-14993436D02*
X10951016Y-14983912D01*
M02*
