G04 #@! TF.GenerationSoftware,KiCad,Pcbnew,10.0.0*
G04 #@! TF.CreationDate,2026-04-13T22:28:19-07:00*
G04 #@! TF.ProjectId,servo,73657276-6f2e-46b6-9963-61645f706362,0.1*
G04 #@! TF.SameCoordinates,Original*
G04 #@! TF.FileFunction,Copper,L1,Top*
G04 #@! TF.FilePolarity,Positive*
%FSLAX46Y46*%
G04 Gerber Fmt 4.6, Leading zero omitted, Abs format (unit mm)*
G04 Created by KiCad (PCBNEW 10.0.0) date 2026-04-13 22:28:19*
%MOMM*%
%LPD*%
G01*
G04 APERTURE LIST*
G04 Aperture macros list*
%AMRoundRect*
0 Rectangle with rounded corners*
0 $1 Rounding radius*
0 $2 $3 $4 $5 $6 $7 $8 $9 X,Y pos of 4 corners*
0 Add a 4 corners polygon primitive as box body*
4,1,4,$2,$3,$4,$5,$6,$7,$8,$9,$2,$3,0*
0 Add four circle primitives for the rounded corners*
1,1,$1+$1,$2,$3*
1,1,$1+$1,$4,$5*
1,1,$1+$1,$6,$7*
1,1,$1+$1,$8,$9*
0 Add four rect primitives between the rounded corners*
20,1,$1+$1,$2,$3,$4,$5,0*
20,1,$1+$1,$4,$5,$6,$7,0*
20,1,$1+$1,$6,$7,$8,$9,0*
20,1,$1+$1,$8,$9,$2,$3,0*%
G04 Aperture macros list end*
G04 #@! TA.AperFunction,SMDPad,CuDef*
%ADD10RoundRect,0.135000X0.185000X-0.135000X0.185000X0.135000X-0.185000X0.135000X-0.185000X-0.135000X0*%
G04 #@! TD*
G04 #@! TA.AperFunction,SMDPad,CuDef*
%ADD11RoundRect,0.135000X-0.135000X-0.185000X0.135000X-0.185000X0.135000X0.185000X-0.135000X0.185000X0*%
G04 #@! TD*
G04 #@! TA.AperFunction,SMDPad,CuDef*
%ADD12RoundRect,0.140000X-0.170000X0.140000X-0.170000X-0.140000X0.170000X-0.140000X0.170000X0.140000X0*%
G04 #@! TD*
G04 #@! TA.AperFunction,SMDPad,CuDef*
%ADD13RoundRect,0.250000X1.000000X0.650000X-1.000000X0.650000X-1.000000X-0.650000X1.000000X-0.650000X0*%
G04 #@! TD*
G04 #@! TA.AperFunction,SMDPad,CuDef*
%ADD14RoundRect,0.225000X0.250000X-0.225000X0.250000X0.225000X-0.250000X0.225000X-0.250000X-0.225000X0*%
G04 #@! TD*
G04 #@! TA.AperFunction,ComponentPad*
%ADD15C,3.600000*%
G04 #@! TD*
G04 #@! TA.AperFunction,ConnectorPad*
%ADD16C,6.400000*%
G04 #@! TD*
G04 #@! TA.AperFunction,SMDPad,CuDef*
%ADD17RoundRect,0.140000X-0.140000X-0.170000X0.140000X-0.170000X0.140000X0.170000X-0.140000X0.170000X0*%
G04 #@! TD*
G04 #@! TA.AperFunction,SMDPad,CuDef*
%ADD18RoundRect,0.218750X-0.218750X-0.256250X0.218750X-0.256250X0.218750X0.256250X-0.218750X0.256250X0*%
G04 #@! TD*
G04 #@! TA.AperFunction,SMDPad,CuDef*
%ADD19RoundRect,0.250000X-0.325000X-0.650000X0.325000X-0.650000X0.325000X0.650000X-0.325000X0.650000X0*%
G04 #@! TD*
G04 #@! TA.AperFunction,SMDPad,CuDef*
%ADD20RoundRect,0.250000X-0.250000X-0.475000X0.250000X-0.475000X0.250000X0.475000X-0.250000X0.475000X0*%
G04 #@! TD*
G04 #@! TA.AperFunction,SMDPad,CuDef*
%ADD21R,0.300000X0.400000*%
G04 #@! TD*
G04 #@! TA.AperFunction,SMDPad,CuDef*
%ADD22O,0.650000X0.400000*%
G04 #@! TD*
G04 #@! TA.AperFunction,SMDPad,CuDef*
%ADD23R,0.650000X1.000000*%
G04 #@! TD*
G04 #@! TA.AperFunction,SMDPad,CuDef*
%ADD24R,1.650000X2.400000*%
G04 #@! TD*
G04 #@! TA.AperFunction,SMDPad,CuDef*
%ADD25RoundRect,0.100000X-0.712500X-0.100000X0.712500X-0.100000X0.712500X0.100000X-0.712500X0.100000X0*%
G04 #@! TD*
G04 #@! TA.AperFunction,ComponentPad*
%ADD26RoundRect,0.250000X0.600000X0.725000X-0.600000X0.725000X-0.600000X-0.725000X0.600000X-0.725000X0*%
G04 #@! TD*
G04 #@! TA.AperFunction,ComponentPad*
%ADD27O,1.700000X1.950000*%
G04 #@! TD*
G04 #@! TA.AperFunction,ComponentPad*
%ADD28RoundRect,0.250000X0.625000X-0.350000X0.625000X0.350000X-0.625000X0.350000X-0.625000X-0.350000X0*%
G04 #@! TD*
G04 #@! TA.AperFunction,ComponentPad*
%ADD29O,1.750000X1.200000*%
G04 #@! TD*
G04 #@! TA.AperFunction,SMDPad,CuDef*
%ADD30RoundRect,0.250000X-0.300000X-1.600000X0.300000X-1.600000X0.300000X1.600000X-0.300000X1.600000X0*%
G04 #@! TD*
G04 #@! TA.AperFunction,SMDPad,CuDef*
%ADD31RoundRect,0.135000X0.135000X0.185000X-0.135000X0.185000X-0.135000X-0.185000X0.135000X-0.185000X0*%
G04 #@! TD*
G04 #@! TA.AperFunction,SMDPad,CuDef*
%ADD32RoundRect,0.135000X-0.185000X0.135000X-0.185000X-0.135000X0.185000X-0.135000X0.185000X0.135000X0*%
G04 #@! TD*
G04 #@! TA.AperFunction,SMDPad,CuDef*
%ADD33R,1.050000X0.450000*%
G04 #@! TD*
G04 #@! TA.AperFunction,SMDPad,CuDef*
%ADD34R,3.400000X5.000000*%
G04 #@! TD*
G04 #@! TA.AperFunction,SMDPad,CuDef*
%ADD35RoundRect,0.140000X0.140000X0.170000X-0.140000X0.170000X-0.140000X-0.170000X0.140000X-0.170000X0*%
G04 #@! TD*
G04 #@! TA.AperFunction,SMDPad,CuDef*
%ADD36RoundRect,0.250000X-1.000000X-0.650000X1.000000X-0.650000X1.000000X0.650000X-1.000000X0.650000X0*%
G04 #@! TD*
G04 #@! TA.AperFunction,ConnectorPad*
%ADD37C,0.787400*%
G04 #@! TD*
G04 #@! TA.AperFunction,ComponentPad*
%ADD38RoundRect,0.250000X-0.750000X0.600000X-0.750000X-0.600000X0.750000X-0.600000X0.750000X0.600000X0*%
G04 #@! TD*
G04 #@! TA.AperFunction,ComponentPad*
%ADD39O,2.000000X1.700000*%
G04 #@! TD*
G04 #@! TA.AperFunction,SMDPad,CuDef*
%ADD40RoundRect,0.250000X0.650000X-0.325000X0.650000X0.325000X-0.650000X0.325000X-0.650000X-0.325000X0*%
G04 #@! TD*
G04 #@! TA.AperFunction,SMDPad,CuDef*
%ADD41RoundRect,0.250000X-1.000000X1.950000X-1.000000X-1.950000X1.000000X-1.950000X1.000000X1.950000X0*%
G04 #@! TD*
G04 #@! TA.AperFunction,SMDPad,CuDef*
%ADD42RoundRect,0.225000X-0.225000X-0.250000X0.225000X-0.250000X0.225000X0.250000X-0.225000X0.250000X0*%
G04 #@! TD*
G04 #@! TA.AperFunction,SMDPad,CuDef*
%ADD43RoundRect,0.250000X-0.312500X-0.625000X0.312500X-0.625000X0.312500X0.625000X-0.312500X0.625000X0*%
G04 #@! TD*
G04 #@! TA.AperFunction,SMDPad,CuDef*
%ADD44RoundRect,0.150000X-0.150000X0.825000X-0.150000X-0.825000X0.150000X-0.825000X0.150000X0.825000X0*%
G04 #@! TD*
G04 #@! TA.AperFunction,HeatsinkPad*
%ADD45R,3.000000X2.290000*%
G04 #@! TD*
G04 #@! TA.AperFunction,SMDPad,CuDef*
%ADD46RoundRect,0.140000X0.170000X-0.140000X0.170000X0.140000X-0.170000X0.140000X-0.170000X-0.140000X0*%
G04 #@! TD*
G04 #@! TA.AperFunction,ComponentPad*
%ADD47RoundRect,0.250000X-0.625000X0.350000X-0.625000X-0.350000X0.625000X-0.350000X0.625000X0.350000X0*%
G04 #@! TD*
G04 #@! TA.AperFunction,SMDPad,CuDef*
%ADD48RoundRect,0.100000X-0.637500X-0.100000X0.637500X-0.100000X0.637500X0.100000X-0.637500X0.100000X0*%
G04 #@! TD*
G04 #@! TA.AperFunction,SMDPad,CuDef*
%ADD49RoundRect,0.150000X-0.512500X-0.150000X0.512500X-0.150000X0.512500X0.150000X-0.512500X0.150000X0*%
G04 #@! TD*
G04 #@! TA.AperFunction,SMDPad,CuDef*
%ADD50R,1.000000X1.500000*%
G04 #@! TD*
G04 #@! TA.AperFunction,ViaPad*
%ADD51C,0.600000*%
G04 #@! TD*
G04 #@! TA.AperFunction,Conductor*
%ADD52C,0.200000*%
G04 #@! TD*
G04 #@! TA.AperFunction,Conductor*
%ADD53C,0.150000*%
G04 #@! TD*
G04 #@! TA.AperFunction,Conductor*
%ADD54C,0.500000*%
G04 #@! TD*
G04 #@! TA.AperFunction,Conductor*
%ADD55C,0.250000*%
G04 #@! TD*
G04 #@! TA.AperFunction,Conductor*
%ADD56C,1.000000*%
G04 #@! TD*
G04 #@! TA.AperFunction,Conductor*
%ADD57C,0.300000*%
G04 #@! TD*
G04 APERTURE END LIST*
D10*
X92800000Y-121710000D03*
X92800000Y-120690000D03*
D11*
X46890000Y-120000000D03*
X47910000Y-120000000D03*
D12*
X65333400Y-117095000D03*
X65333400Y-118055000D03*
D13*
X64000000Y-98000000D03*
X60000000Y-98000000D03*
D14*
X89550000Y-107500000D03*
X89550000Y-105950000D03*
D15*
X46000000Y-127000000D03*
D16*
X46000000Y-127000000D03*
D17*
X94020000Y-114000000D03*
X94980000Y-114000000D03*
D18*
X89212500Y-122000000D03*
X90787500Y-122000000D03*
D19*
X73525000Y-102200000D03*
X76475000Y-102200000D03*
D12*
X76400000Y-108020000D03*
X76400000Y-108980000D03*
D11*
X97990000Y-105000000D03*
X99010000Y-105000000D03*
D20*
X79550000Y-104500000D03*
X81450000Y-104500000D03*
D17*
X92020000Y-116500000D03*
X92980000Y-116500000D03*
X90220000Y-111500000D03*
X91180000Y-111500000D03*
D11*
X64600000Y-119200000D03*
X65620000Y-119200000D03*
X76090000Y-114400000D03*
X77110000Y-114400000D03*
D21*
X90750000Y-107400000D03*
D22*
X90950000Y-107400000D03*
D21*
X90750000Y-108050000D03*
D22*
X90950000Y-108050000D03*
D21*
X90750000Y-108700000D03*
D22*
X90950000Y-108700000D03*
D21*
X90750000Y-109350000D03*
D22*
X90950000Y-109350000D03*
X94050000Y-109350000D03*
D21*
X94250000Y-109350000D03*
D22*
X94050000Y-108700000D03*
D21*
X94250000Y-108700000D03*
D22*
X94050000Y-108050000D03*
D21*
X94250000Y-108050000D03*
D22*
X94050000Y-107400000D03*
D21*
X94250000Y-107400000D03*
D23*
X92050000Y-107750000D03*
X92050000Y-109000000D03*
D24*
X92500000Y-108375000D03*
D23*
X92950000Y-107750000D03*
X92950000Y-109000000D03*
D12*
X102000000Y-108360000D03*
X102000000Y-109320000D03*
D25*
X87487500Y-117625000D03*
X87487500Y-118275000D03*
X87487500Y-118925000D03*
X87487500Y-119575000D03*
X91712500Y-119575000D03*
X91712500Y-118925000D03*
X91712500Y-118275000D03*
X91712500Y-117625000D03*
D26*
X76750000Y-97445000D03*
D27*
X74250000Y-97445000D03*
X71750000Y-97445000D03*
X69250000Y-97445000D03*
D28*
X53650000Y-107200000D03*
D29*
X53650000Y-105200000D03*
X53650000Y-103200000D03*
D30*
X96000000Y-109000000D03*
X99000000Y-109000000D03*
D31*
X101510000Y-111500000D03*
X100490000Y-111500000D03*
X75710000Y-117200000D03*
X74690000Y-117200000D03*
D32*
X93900000Y-111890000D03*
X93900000Y-112910000D03*
D33*
X72508400Y-119250000D03*
X72508400Y-118600000D03*
X72508400Y-117950000D03*
X72508400Y-117300000D03*
X72508400Y-116650000D03*
X72508400Y-116000000D03*
X72508400Y-115350000D03*
X72508400Y-114700000D03*
X66958400Y-114700000D03*
X66958400Y-115350000D03*
X66958400Y-116000000D03*
X66958400Y-116650000D03*
X66958400Y-117300000D03*
X66958400Y-117950000D03*
X66958400Y-118600000D03*
X66958400Y-119250000D03*
D34*
X69733400Y-116975000D03*
D30*
X77900000Y-110500000D03*
X80900000Y-110500000D03*
D35*
X64480000Y-116175000D03*
X63520000Y-116175000D03*
D36*
X84770000Y-102175000D03*
X88770000Y-102175000D03*
D26*
X90750000Y-97445000D03*
D27*
X88250000Y-97445000D03*
X85750000Y-97445000D03*
X83250000Y-97445000D03*
D37*
X87400000Y-112330000D03*
X87400000Y-113600000D03*
X86130000Y-112330000D03*
X86130000Y-113600000D03*
X84860000Y-112330000D03*
X84860000Y-113600000D03*
D15*
X100000000Y-90000000D03*
D16*
X100000000Y-90000000D03*
D12*
X95100000Y-111920000D03*
X95100000Y-112880000D03*
D11*
X86990000Y-121800000D03*
X88010000Y-121800000D03*
D38*
X54445000Y-93750000D03*
D39*
X54445000Y-96250000D03*
D11*
X53290000Y-120000000D03*
X54310000Y-120000000D03*
X74090000Y-114400000D03*
X75110000Y-114400000D03*
D28*
X53650000Y-116400000D03*
D29*
X53650000Y-114400000D03*
X53650000Y-112400000D03*
D32*
X85800000Y-118190000D03*
X85800000Y-119210000D03*
D31*
X89760000Y-109400000D03*
X88740000Y-109400000D03*
D11*
X46890000Y-122000000D03*
X47910000Y-122000000D03*
D35*
X75680000Y-118200000D03*
X74720000Y-118200000D03*
D40*
X87400000Y-107875000D03*
X87400000Y-104925000D03*
D15*
X100000000Y-127000000D03*
D16*
X100000000Y-127000000D03*
D41*
X63600000Y-102600000D03*
X63600000Y-111000000D03*
D10*
X84800000Y-119210000D03*
X84800000Y-118190000D03*
D17*
X93970000Y-105400000D03*
X94930000Y-105400000D03*
D42*
X73425000Y-104200000D03*
X74975000Y-104200000D03*
D10*
X71200000Y-104420000D03*
X71200000Y-103400000D03*
D43*
X87737500Y-124000000D03*
X90662500Y-124000000D03*
D11*
X95990000Y-105000000D03*
X97010000Y-105000000D03*
D28*
X46650000Y-116400000D03*
D29*
X46650000Y-114400000D03*
X46650000Y-112400000D03*
D11*
X100490000Y-112700000D03*
X101510000Y-112700000D03*
D20*
X79550000Y-106500000D03*
X81450000Y-106500000D03*
D12*
X101000000Y-108360000D03*
X101000000Y-109320000D03*
D44*
X74655000Y-106455000D03*
X73385000Y-106455000D03*
X72115000Y-106455000D03*
X70845000Y-106455000D03*
X70845000Y-111405000D03*
X72115000Y-111405000D03*
X73385000Y-111405000D03*
X74655000Y-111405000D03*
D45*
X72750000Y-108930000D03*
D28*
X96450000Y-119325000D03*
D29*
X96450000Y-117325000D03*
D46*
X75400000Y-121480000D03*
X75400000Y-120520000D03*
D11*
X53200000Y-122000000D03*
X54220000Y-122000000D03*
D47*
X60550000Y-116600000D03*
D29*
X60550000Y-118600000D03*
D48*
X77137500Y-115475000D03*
X77137500Y-116125000D03*
X77137500Y-116775000D03*
X77137500Y-117425000D03*
X77137500Y-118075000D03*
X77137500Y-118725000D03*
X77137500Y-119375000D03*
X77137500Y-120025000D03*
X77137500Y-120675000D03*
X77137500Y-121325000D03*
X82862500Y-121325000D03*
X82862500Y-120675000D03*
X82862500Y-120025000D03*
X82862500Y-119375000D03*
X82862500Y-118725000D03*
X82862500Y-118075000D03*
X82862500Y-117425000D03*
X82862500Y-116775000D03*
X82862500Y-116125000D03*
X82862500Y-115475000D03*
D28*
X46650000Y-107200000D03*
D29*
X46650000Y-105200000D03*
X46650000Y-103200000D03*
D32*
X78000000Y-104000000D03*
X78000000Y-105020000D03*
D49*
X49462500Y-120050000D03*
X49462500Y-121000000D03*
X49462500Y-121950000D03*
X51737500Y-121950000D03*
X51737500Y-121000000D03*
X51737500Y-120050000D03*
D28*
X96500000Y-102000000D03*
D29*
X96500000Y-100000000D03*
X96500000Y-98000000D03*
X96500000Y-96000000D03*
D32*
X78000000Y-105990000D03*
X78000000Y-107010000D03*
D50*
X85650000Y-124000000D03*
X84350000Y-124000000D03*
D15*
X62000000Y-90000000D03*
D16*
X62000000Y-90000000D03*
D51*
X101800000Y-106740000D03*
X75600000Y-116400000D03*
X101000000Y-107440000D03*
X74471753Y-121350000D03*
X98000000Y-106000000D03*
X92125000Y-121600000D03*
X101000000Y-106740000D03*
X91800000Y-115600000D03*
X64600000Y-120000000D03*
X90800000Y-120800000D03*
X90508519Y-112322524D03*
X53200000Y-121000000D03*
X101800000Y-107440000D03*
X75800000Y-115200000D03*
X81400000Y-118000000D03*
X51000000Y-110600000D03*
X65600000Y-102600000D03*
X59600000Y-105600000D03*
X65600000Y-105600000D03*
X64600000Y-105600000D03*
X61600000Y-104600000D03*
X66600000Y-105600000D03*
X60600000Y-105600000D03*
X61600000Y-105600000D03*
X50000000Y-104000000D03*
X61600000Y-103600000D03*
X65600000Y-104600000D03*
X63600000Y-105600000D03*
X65600000Y-103600000D03*
X51000000Y-109200000D03*
X51000000Y-109900003D03*
X61600000Y-102600000D03*
X62600000Y-105600000D03*
X50000000Y-104600000D03*
X50000000Y-105250000D03*
X60600000Y-109600000D03*
X101000000Y-110040000D03*
X69000000Y-118000000D03*
X75000000Y-102500000D03*
X95900000Y-114000000D03*
X70500000Y-115000000D03*
X59600000Y-109600000D03*
X84600000Y-111600000D03*
X70500000Y-119000000D03*
X65600000Y-109600000D03*
X82500000Y-105500000D03*
X69733400Y-116975000D03*
X70500000Y-118000000D03*
X102000000Y-110040000D03*
X92500000Y-108375000D03*
X74000000Y-118181641D03*
X85043047Y-119628834D03*
X76200000Y-103800000D03*
X72000000Y-109500000D03*
X73500000Y-113000000D03*
X66016266Y-118489098D03*
X86550000Y-106000000D03*
X73500000Y-108500000D03*
X59600000Y-110600000D03*
X76200000Y-104600000D03*
X92000000Y-111500002D03*
X73640380Y-116240380D03*
X90050000Y-105000000D03*
X63200000Y-117000000D03*
X61600000Y-110600000D03*
X66080948Y-114307598D03*
X82500000Y-103500000D03*
X87800000Y-109400000D03*
X82500000Y-106500000D03*
X74800000Y-115200000D03*
X72000000Y-113000000D03*
X85200000Y-105400000D03*
X65600000Y-110600000D03*
X48200000Y-121000000D03*
X71200000Y-102600000D03*
X82500000Y-107500000D03*
X77000000Y-103800000D03*
X70500000Y-116000000D03*
X94645968Y-108091936D03*
X77800000Y-107800000D03*
X72000000Y-108500000D03*
X96000000Y-113000000D03*
X65600000Y-108600000D03*
X93200000Y-119600000D03*
X70500000Y-117000000D03*
X69000000Y-116000000D03*
X69000000Y-115000000D03*
X93800000Y-116500000D03*
X60600000Y-110600000D03*
X69000000Y-117000000D03*
X85200000Y-104600000D03*
X102400000Y-112700000D03*
X73500000Y-109500000D03*
X89050000Y-105000000D03*
X69000000Y-119000000D03*
X61600000Y-109600000D03*
X75400000Y-119800000D03*
X82500000Y-104500000D03*
X78000000Y-101500000D03*
X100000000Y-104400000D03*
X78707021Y-115809095D03*
X50800000Y-118600000D03*
X58200000Y-113200000D03*
X50000000Y-112200000D03*
X50000000Y-118600000D03*
X51600000Y-118600000D03*
X80250000Y-105500000D03*
X78750000Y-103500000D03*
X59200000Y-113200000D03*
X57400000Y-113200000D03*
X82000000Y-109000000D03*
X79000000Y-107750000D03*
X80250000Y-103500000D03*
X82000000Y-112000000D03*
X50000000Y-113000000D03*
X78750000Y-105500000D03*
X80000000Y-112000000D03*
X50000000Y-111499997D03*
X79750000Y-107750000D03*
X80000000Y-109000000D03*
X80500000Y-107750000D03*
X97000000Y-111600000D03*
X93800000Y-110600000D03*
X78800000Y-119400000D03*
X85800000Y-120000000D03*
X88982376Y-114327087D03*
X89806383Y-114331206D03*
X79461685Y-121305188D03*
X73613982Y-119867000D03*
X80819006Y-121186126D03*
X73739399Y-118984358D03*
X54200000Y-121000000D03*
X81200000Y-118800000D03*
X97000000Y-106200000D03*
X78600000Y-116800000D03*
X70000000Y-113000000D03*
X76800000Y-105600000D03*
X72200000Y-121200000D03*
X81600000Y-121400000D03*
X65952767Y-115922165D03*
X64768403Y-115331001D03*
X65329528Y-115742226D03*
D52*
X51737500Y-121000000D02*
X53200000Y-121000000D01*
X64600000Y-119200000D02*
X64600000Y-120000000D01*
X74601753Y-121480000D02*
X74471753Y-121350000D01*
D53*
X75600000Y-118070000D02*
X75605000Y-118075000D01*
D52*
X92020000Y-116500000D02*
X92020000Y-117317500D01*
X76090000Y-114910000D02*
X75800000Y-115200000D01*
X76090000Y-114400000D02*
X76090000Y-114910000D01*
D53*
X90787500Y-121800000D02*
X90787500Y-121087500D01*
D54*
X101800000Y-106740000D02*
X101800000Y-107440000D01*
D52*
X92020000Y-117317500D02*
X91712500Y-117625000D01*
D54*
X101000000Y-107440000D02*
X101800000Y-107440000D01*
D52*
X97990000Y-105990000D02*
X98000000Y-106000000D01*
X92020000Y-116500000D02*
X92020000Y-115820000D01*
X92235000Y-121710000D02*
X92125000Y-121600000D01*
D55*
X102000000Y-108360000D02*
X102000000Y-107640000D01*
D53*
X90750000Y-120850000D02*
X90800000Y-120800000D01*
D52*
X100200000Y-109160000D02*
X101000000Y-108360000D01*
X90220000Y-111500000D02*
X90220000Y-112034005D01*
D53*
X90750000Y-121050000D02*
X90750000Y-120850000D01*
X75605000Y-118075000D02*
X77137500Y-118075000D01*
X90787500Y-121087500D02*
X90750000Y-121050000D01*
D52*
X75400000Y-121480000D02*
X74601753Y-121480000D01*
D53*
X76982500Y-121480000D02*
X77137500Y-121325000D01*
D54*
X99150000Y-108340000D02*
X100980000Y-108340000D01*
D52*
X97990000Y-105000000D02*
X97990000Y-105990000D01*
X100200000Y-110190000D02*
X101510000Y-111500000D01*
D55*
X102000000Y-107640000D02*
X101800000Y-107440000D01*
D54*
X101000000Y-106740000D02*
X101800000Y-106740000D01*
D52*
X95990000Y-105000000D02*
X96500000Y-104490000D01*
X92800000Y-121710000D02*
X92235000Y-121710000D01*
D54*
X101000000Y-108360000D02*
X101000000Y-107440000D01*
D52*
X92020000Y-115820000D02*
X91800000Y-115600000D01*
X100200000Y-109160000D02*
X100200000Y-110190000D01*
X90220000Y-111500000D02*
X88230000Y-111500000D01*
X90220000Y-112034005D02*
X90508519Y-112322524D01*
D55*
X102000000Y-108360000D02*
X101000000Y-108360000D01*
D52*
X88230000Y-111500000D02*
X87400000Y-112330000D01*
X75400000Y-121480000D02*
X76982500Y-121480000D01*
D54*
X100980000Y-108340000D02*
X101000000Y-108360000D01*
D53*
X75600000Y-116400000D02*
X75600000Y-118070000D01*
D54*
X101000000Y-107440000D02*
X101000000Y-106740000D01*
D52*
X96500000Y-104490000D02*
X96500000Y-102000000D01*
X82862500Y-118062500D02*
X82800000Y-118000000D01*
X82862500Y-118075000D02*
X81475000Y-118075000D01*
X82862500Y-118075000D02*
X82862500Y-118062500D01*
X92800000Y-120690000D02*
X94285000Y-120690000D01*
X81475000Y-118075000D02*
X81400000Y-118000000D01*
X94285000Y-120690000D02*
X95650000Y-119325000D01*
X46890000Y-120000000D02*
X52490000Y-114400000D01*
X52490000Y-114400000D02*
X53650000Y-114400000D01*
X50600000Y-122044842D02*
X51705158Y-123150000D01*
X75355761Y-118925000D02*
X76937500Y-118925000D01*
X73174266Y-121850000D02*
X74750000Y-120274266D01*
X55844974Y-121850000D02*
X73174266Y-121850000D01*
X54544974Y-123150000D02*
X55844974Y-121850000D01*
X49412500Y-120000000D02*
X49462500Y-120050000D01*
X49462500Y-120050000D02*
X50124999Y-120050000D01*
X50124999Y-120050000D02*
X50600000Y-120525001D01*
X50600000Y-120525001D02*
X50600000Y-122044842D01*
X74750000Y-119530761D02*
X75355761Y-118925000D01*
X76937500Y-118925000D02*
X77137500Y-118725000D01*
X47910000Y-120000000D02*
X49412500Y-120000000D01*
X74750000Y-120274266D02*
X74750000Y-119530761D01*
X51705158Y-123150000D02*
X54544974Y-123150000D01*
D53*
X65333400Y-117095000D02*
X65538400Y-117300000D01*
X65538400Y-117300000D02*
X66958400Y-117300000D01*
X66958400Y-117950000D02*
X65438400Y-117950000D01*
X65438400Y-117950000D02*
X65333400Y-118055000D01*
D56*
X83675000Y-102175000D02*
X81900000Y-100400000D01*
X73600000Y-100600000D02*
X74362500Y-101362500D01*
X68600000Y-100600000D02*
X73600000Y-100600000D01*
X66000000Y-98000000D02*
X68600000Y-100600000D01*
D57*
X86935000Y-108090000D02*
X87550000Y-107475000D01*
D56*
X81900000Y-100400000D02*
X75325000Y-100400000D01*
D54*
X83800000Y-103145000D02*
X84770000Y-102175000D01*
D56*
X75325000Y-100400000D02*
X74362500Y-101362500D01*
X64000000Y-98000000D02*
X66000000Y-98000000D01*
D54*
X84475000Y-107875000D02*
X83800000Y-107200000D01*
X83800000Y-107200000D02*
X83800000Y-103145000D01*
X87400000Y-107875000D02*
X84475000Y-107875000D01*
D56*
X74362500Y-101362500D02*
X73525000Y-102200000D01*
X84770000Y-102175000D02*
X83675000Y-102175000D01*
X55750000Y-93750000D02*
X60000000Y-98000000D01*
X54445000Y-93750000D02*
X55750000Y-93750000D01*
D57*
X66133400Y-114700000D02*
X66080948Y-114647548D01*
D52*
X71200000Y-103400000D02*
X71200000Y-102600000D01*
X91712500Y-119575000D02*
X93175000Y-119575000D01*
X84860000Y-111860000D02*
X84600000Y-111600000D01*
X84800000Y-119210000D02*
X84800000Y-119385787D01*
X49462500Y-121000000D02*
X48200000Y-121000000D01*
D57*
X63520000Y-116175000D02*
X63200000Y-116495000D01*
X72508400Y-116650000D02*
X73407536Y-116650000D01*
D52*
X94604032Y-108050000D02*
X94645968Y-108091936D01*
X91180000Y-111500000D02*
X92000000Y-111500000D01*
X78000000Y-107600000D02*
X77800000Y-107800000D01*
X95100000Y-112880000D02*
X95880000Y-112880000D01*
X74501641Y-118181641D02*
X74000000Y-118181641D01*
X78000000Y-107010000D02*
X78000000Y-107600000D01*
X75400000Y-120520000D02*
X76982500Y-120520000D01*
X75400000Y-120240001D02*
X75400000Y-119800000D01*
X101000000Y-109320000D02*
X101000000Y-110040000D01*
X88740000Y-109400000D02*
X87800000Y-109400000D01*
X94980000Y-114000000D02*
X95900000Y-114000000D01*
X84860000Y-112330000D02*
X84860000Y-111860000D01*
X94250000Y-108050000D02*
X94604032Y-108050000D01*
X75400000Y-120520000D02*
X75400000Y-120240001D01*
D57*
X66080948Y-114647548D02*
X66080948Y-114307598D01*
X73407536Y-116650000D02*
X73640380Y-116417156D01*
D52*
X95880000Y-112880000D02*
X96000000Y-113000000D01*
D57*
X66127168Y-118600000D02*
X66016266Y-118489098D01*
D52*
X74520000Y-118200000D02*
X74501641Y-118181641D01*
D57*
X63200000Y-116495000D02*
X63200000Y-117000000D01*
D52*
X101510000Y-112700000D02*
X102400000Y-112700000D01*
D57*
X73640380Y-116417156D02*
X73640380Y-116240380D01*
D52*
X76982500Y-120520000D02*
X77137500Y-120675000D01*
D55*
X102000000Y-109320000D02*
X102000000Y-110040000D01*
D52*
X75110000Y-114890000D02*
X74800000Y-115200000D01*
X84800000Y-119385787D02*
X85043047Y-119628834D01*
X92980000Y-116500000D02*
X93800000Y-116500000D01*
D57*
X66958400Y-114700000D02*
X66133400Y-114700000D01*
X66958400Y-118600000D02*
X66127168Y-118600000D01*
D52*
X75110000Y-114400000D02*
X75110000Y-114890000D01*
X93175000Y-119575000D02*
X93200000Y-119600000D01*
X93900000Y-112910000D02*
X93900000Y-113880000D01*
X93900000Y-113880000D02*
X94020000Y-114000000D01*
D53*
X89212500Y-121800000D02*
X88010000Y-121800000D01*
D52*
X76400000Y-106200000D02*
X76400000Y-108020000D01*
X74800000Y-105400000D02*
X75600000Y-105400000D01*
X75600000Y-105400000D02*
X76400000Y-106200000D01*
X74655000Y-106455000D02*
X74800000Y-106310000D01*
X74800000Y-106310000D02*
X74800000Y-105400000D01*
X78391116Y-116125000D02*
X78707021Y-115809095D01*
X99010000Y-105000000D02*
X99400000Y-105000000D01*
X99010000Y-100960000D02*
X99010000Y-105000000D01*
X96500000Y-98000000D02*
X96500000Y-98450000D01*
X96500000Y-98450000D02*
X99010000Y-100960000D01*
X77137500Y-116125000D02*
X78391116Y-116125000D01*
X99400000Y-105000000D02*
X100000000Y-104400000D01*
X79050000Y-104000000D02*
X79550000Y-104500000D01*
X78000000Y-104000000D02*
X79050000Y-104000000D01*
X66908400Y-119200000D02*
X66958400Y-119250000D01*
X65620000Y-119200000D02*
X66908400Y-119200000D01*
X73500000Y-117300000D02*
X72508400Y-117300000D01*
X76400001Y-115475000D02*
X76025001Y-115850000D01*
X77137500Y-115475000D02*
X77137500Y-114427500D01*
X77137500Y-114427500D02*
X77110000Y-114400000D01*
X77137500Y-115475000D02*
X76400001Y-115475000D01*
X74950000Y-115850000D02*
X73500000Y-117300000D01*
X76025001Y-115850000D02*
X74950000Y-115850000D01*
X90450000Y-107000000D02*
X90450000Y-106400000D01*
X90850000Y-107400000D02*
X90450000Y-107000000D01*
X90950000Y-107400000D02*
X90850000Y-107400000D01*
X91450000Y-105400000D02*
X93970000Y-105400000D01*
X90450000Y-106400000D02*
X91450000Y-105400000D01*
X89760000Y-109400000D02*
X90900000Y-109400000D01*
X90900000Y-109400000D02*
X90950000Y-109350000D01*
X100490000Y-112700000D02*
X100490000Y-111500000D01*
X97100000Y-111500000D02*
X97000000Y-111600000D01*
X94050000Y-109350000D02*
X94250000Y-109350000D01*
X100490000Y-111500000D02*
X97100000Y-111500000D01*
X94250000Y-109350000D02*
X94250000Y-110150000D01*
X94250000Y-110150000D02*
X93800000Y-110600000D01*
X94050000Y-108700000D02*
X94500000Y-108700000D01*
X94800000Y-110990000D02*
X93900000Y-111890000D01*
X95070000Y-111890000D02*
X95100000Y-111920000D01*
X93900000Y-111890000D02*
X95070000Y-111890000D01*
X94500000Y-108700000D02*
X94800000Y-109000000D01*
X94800000Y-109000000D02*
X94800000Y-110990000D01*
X96000000Y-106200000D02*
X96000000Y-109000000D01*
X95250000Y-105450000D02*
X96000000Y-106200000D01*
X94980000Y-105450000D02*
X95250000Y-105450000D01*
X94980000Y-105450000D02*
X94930000Y-105400000D01*
D57*
X95298529Y-107400000D02*
X96000000Y-108101471D01*
X96000000Y-108101471D02*
X96000000Y-109000000D01*
X94250000Y-107400000D02*
X95298529Y-107400000D01*
D52*
X86637500Y-116775000D02*
X82862500Y-116775000D01*
X87487500Y-117625000D02*
X86637500Y-116775000D01*
X87487500Y-118287500D02*
X87390000Y-118190000D01*
X87390000Y-118190000D02*
X85800000Y-118190000D01*
X85800000Y-118190000D02*
X84800000Y-118190000D01*
X87487500Y-118275000D02*
X87487500Y-118287500D01*
X78775000Y-119375000D02*
X78800000Y-119400000D01*
X85800000Y-119210000D02*
X85800000Y-120000000D01*
X85800000Y-120000000D02*
X85700000Y-120100000D01*
X87487500Y-118925000D02*
X86085000Y-118925000D01*
X86085000Y-118925000D02*
X85800000Y-119210000D01*
X77137500Y-119375000D02*
X78775000Y-119375000D01*
X86512500Y-120550000D02*
X85186395Y-120550000D01*
X87487500Y-119575000D02*
X86512500Y-120550000D01*
X85186395Y-120550000D02*
X84000000Y-119363605D01*
X84000000Y-117825001D02*
X83599999Y-117425000D01*
X83599999Y-117425000D02*
X82862500Y-117425000D01*
X84000000Y-119363605D02*
X84000000Y-117825001D01*
X90900001Y-118925000D02*
X89900000Y-119925001D01*
X89000000Y-117600000D02*
X89000000Y-114344711D01*
X91712500Y-118925000D02*
X90325000Y-118925000D01*
X71750000Y-97445000D02*
X71875000Y-97445000D01*
X89900000Y-122456474D02*
X89481474Y-122875000D01*
X71875000Y-97445000D02*
X73870000Y-95450000D01*
X90325000Y-118925000D02*
X89000000Y-117600000D01*
X89000000Y-114344711D02*
X88982376Y-114327087D01*
X89900000Y-119925001D02*
X89900000Y-122456474D01*
X89481474Y-122875000D02*
X84525000Y-122875000D01*
X85625000Y-97445000D02*
X85750000Y-97445000D01*
X88925656Y-114383807D02*
X88982376Y-114327087D01*
X84999999Y-96705025D02*
X84999999Y-96819999D01*
X88925656Y-114600000D02*
X88925656Y-114383807D01*
X73870000Y-95450000D02*
X83744974Y-95450000D01*
X84525000Y-122875000D02*
X84350000Y-123050000D01*
X84999999Y-96819999D02*
X85625000Y-97445000D01*
X91712500Y-118925000D02*
X90900001Y-118925000D01*
X83744974Y-95450000D02*
X84999999Y-96705025D01*
X84350000Y-123050000D02*
X84350000Y-124000000D01*
X93475000Y-118275000D02*
X91712500Y-118275000D01*
X91475000Y-120325000D02*
X91630000Y-120170000D01*
X91475000Y-123187500D02*
X91475000Y-120325000D01*
X94000000Y-118800000D02*
X93475000Y-118275000D01*
X88125000Y-97445000D02*
X88250000Y-97445000D01*
X73025000Y-98670000D02*
X71294365Y-98670000D01*
X72414365Y-95100000D02*
X85780000Y-95100000D01*
X94000000Y-120000000D02*
X94000000Y-118800000D01*
X91630000Y-120170000D02*
X93770000Y-120170000D01*
X89600000Y-116974999D02*
X89600000Y-114537589D01*
X70650000Y-98025635D02*
X70650000Y-96864365D01*
X90662500Y-124000000D02*
X91475000Y-123187500D01*
X70650000Y-96864365D02*
X72414365Y-95100000D01*
X91712500Y-118275000D02*
X90900001Y-118275000D01*
X89600000Y-114537589D02*
X89806383Y-114331206D01*
X74250000Y-97445000D02*
X73025000Y-98670000D01*
X85780000Y-95100000D02*
X88125000Y-97445000D01*
X93800000Y-120200000D02*
X94000000Y-120000000D01*
X71294365Y-98670000D02*
X70650000Y-98025635D01*
X90900001Y-118275000D02*
X89600000Y-116974999D01*
X93770000Y-120170000D02*
X93800000Y-120200000D01*
X55125000Y-106675000D02*
X53650000Y-105200000D01*
X54310000Y-122000000D02*
X55125000Y-121185000D01*
X55125000Y-121185000D02*
X55125000Y-106675000D01*
X74194974Y-117200000D02*
X74490000Y-117200000D01*
X72508400Y-117950000D02*
X73444974Y-117950000D01*
X73444974Y-117950000D02*
X74194974Y-117200000D01*
X82862500Y-119375000D02*
X81391873Y-119375000D01*
X72996982Y-119250000D02*
X73613982Y-119867000D01*
X72508400Y-119250000D02*
X72996982Y-119250000D01*
X81391873Y-119375000D02*
X79461685Y-121305188D01*
X73355041Y-118600000D02*
X73739399Y-118984358D01*
X81330132Y-120675000D02*
X80819006Y-121186126D01*
X82862500Y-120675000D02*
X81330132Y-120675000D01*
X72508400Y-118600000D02*
X73355041Y-118600000D01*
X72508400Y-115350000D02*
X73140000Y-115350000D01*
X73140000Y-115350000D02*
X74090000Y-114400000D01*
D57*
X72208400Y-114700000D02*
X71115998Y-113607598D01*
X63542402Y-113607598D02*
X60550000Y-116600000D01*
X72508400Y-114700000D02*
X72208400Y-114700000D01*
X71115998Y-113607598D02*
X63542402Y-113607598D01*
X63484322Y-114715678D02*
X65499078Y-114715678D01*
X65499078Y-114715678D02*
X66133400Y-115350000D01*
X66133400Y-115350000D02*
X66958400Y-115350000D01*
X60550000Y-118600000D02*
X61750000Y-117400000D01*
X61750000Y-116450000D02*
X63484322Y-114715678D01*
X61750000Y-117400000D02*
X61750000Y-116450000D01*
D52*
X65753824Y-116650000D02*
X65668824Y-116565000D01*
X64870000Y-116565000D02*
X64480000Y-116175000D01*
X65668824Y-116565000D02*
X64870000Y-116565000D01*
X66958400Y-116650000D02*
X65753824Y-116650000D01*
X84875000Y-116125000D02*
X87400000Y-113600000D01*
X82862500Y-116125000D02*
X84875000Y-116125000D01*
X77137500Y-117425000D02*
X78975000Y-117425000D01*
X78975000Y-117425000D02*
X81600000Y-114800000D01*
X81600000Y-114800000D02*
X81600000Y-113600000D01*
X82744700Y-112455300D02*
X82744700Y-111598865D01*
X82744700Y-111598865D02*
X83393565Y-110950000D01*
X84750000Y-110950000D02*
X86130000Y-112330000D01*
X83393565Y-110950000D02*
X84750000Y-110950000D01*
X81600000Y-113600000D02*
X82744700Y-112455300D01*
X84255000Y-115475000D02*
X86130000Y-113600000D01*
X82862500Y-115475000D02*
X84255000Y-115475000D01*
X85941421Y-121800000D02*
X86990000Y-121800000D01*
X84166421Y-120025000D02*
X85941421Y-121800000D01*
X82862500Y-120025000D02*
X84166421Y-120025000D01*
X51737500Y-120050000D02*
X53240000Y-120050000D01*
X81275000Y-118725000D02*
X81200000Y-118800000D01*
X53240000Y-120050000D02*
X53290000Y-120000000D01*
X53250000Y-120050000D02*
X54200000Y-121000000D01*
X51737500Y-120050000D02*
X53250000Y-120050000D01*
X82862500Y-118725000D02*
X81275000Y-118725000D01*
X47927082Y-105200000D02*
X46650000Y-105200000D01*
X54775000Y-112047918D02*
X47927082Y-105200000D01*
X54775000Y-119535000D02*
X54775000Y-112047918D01*
X54310000Y-120000000D02*
X54775000Y-119535000D01*
X45525000Y-120635000D02*
X45525000Y-115525000D01*
X45525000Y-115525000D02*
X46650000Y-114400000D01*
X46890000Y-122000000D02*
X45525000Y-120635000D01*
X51012500Y-123500000D02*
X54689948Y-123500000D01*
X49462500Y-121950000D02*
X51012500Y-123500000D01*
X78400000Y-120400000D02*
X78025000Y-120025000D01*
X55989948Y-122200000D02*
X78000000Y-122200000D01*
X49412500Y-122000000D02*
X49462500Y-121950000D01*
X47910000Y-122000000D02*
X49412500Y-122000000D01*
X54689948Y-123500000D02*
X55989948Y-122200000D01*
X78000000Y-122200000D02*
X78400000Y-121800000D01*
X78025000Y-120025000D02*
X77137500Y-120025000D01*
X78400000Y-121800000D02*
X78400000Y-120400000D01*
X70845000Y-106455000D02*
X70845000Y-104775000D01*
X70845000Y-104775000D02*
X71200000Y-104420000D01*
X85650000Y-124000000D02*
X87737500Y-124000000D01*
X98000000Y-101500000D02*
X98000000Y-102500000D01*
X97010000Y-103490000D02*
X97010000Y-105000000D01*
X78575000Y-116775000D02*
X78600000Y-116800000D01*
X97000000Y-106200000D02*
X97000000Y-105010000D01*
X77137500Y-116775000D02*
X78575000Y-116775000D01*
X98000000Y-102500000D02*
X97010000Y-103490000D01*
X96500000Y-100000000D02*
X98000000Y-101500000D01*
X97000000Y-105010000D02*
X97010000Y-105000000D01*
X78000000Y-105020000D02*
X78000000Y-105990000D01*
X78000000Y-105020000D02*
X77380000Y-105020000D01*
X70000000Y-113000000D02*
X70000000Y-112250000D01*
X70000000Y-112250000D02*
X70845000Y-111405000D01*
X77380000Y-105020000D02*
X76800000Y-105600000D01*
X81600000Y-121400000D02*
X82787500Y-121400000D01*
X54378214Y-122800000D02*
X55978214Y-121200000D01*
X82787500Y-121400000D02*
X82862500Y-121325000D01*
X55978214Y-121200000D02*
X72200000Y-121200000D01*
X52587500Y-122800000D02*
X54378214Y-122800000D01*
X51737500Y-121950000D02*
X52587500Y-122800000D01*
X53240000Y-121950000D02*
X53290000Y-122000000D01*
X51737500Y-121950000D02*
X53240000Y-121950000D01*
D56*
X78375000Y-99070000D02*
X76750000Y-97445000D01*
X90750000Y-97445000D02*
X90750000Y-100195000D01*
X85665000Y-99070000D02*
X78375000Y-99070000D01*
X88770000Y-102175000D02*
X85665000Y-99070000D01*
X90750000Y-100195000D02*
X88770000Y-102175000D01*
D57*
X65952767Y-115922165D02*
X65994620Y-115880312D01*
X65994620Y-115880312D02*
X65994620Y-115805380D01*
X66000000Y-115800000D02*
X66200000Y-116000000D01*
X66200000Y-116000000D02*
X66958400Y-116000000D01*
X65994620Y-115805380D02*
X66000000Y-115800000D01*
G04 #@! TA.AperFunction,Conductor*
G36*
X93453262Y-105705523D02*
G01*
X93468519Y-105710003D01*
X93480727Y-105717814D01*
X93494673Y-105721073D01*
X93521818Y-105741856D01*
X93524482Y-105744554D01*
X93538643Y-105760765D01*
X93539734Y-105760001D01*
X93543925Y-105764245D01*
X93546775Y-105768315D01*
X93546776Y-105768316D01*
X93631684Y-105853224D01*
X93740513Y-105903972D01*
X93790099Y-105910500D01*
X93858172Y-105910499D01*
X93893102Y-105915520D01*
X93908104Y-105919925D01*
X93966881Y-105957698D01*
X93966890Y-105957709D01*
X93968076Y-105959078D01*
X93995518Y-106013900D01*
X93997163Y-106021458D01*
X94000000Y-106047829D01*
X94000000Y-106857670D01*
X93994975Y-106892614D01*
X93990570Y-106907612D01*
X93952827Y-106966355D01*
X93951458Y-106967542D01*
X93896583Y-106995021D01*
X93886759Y-106997158D01*
X93876599Y-106998930D01*
X93872275Y-106999499D01*
X93770413Y-107026792D01*
X93770408Y-107026795D01*
X93679088Y-107079518D01*
X93679082Y-107079523D01*
X93604523Y-107154082D01*
X93604518Y-107154088D01*
X93551795Y-107245408D01*
X93551792Y-107245413D01*
X93524500Y-107347273D01*
X93524500Y-107452727D01*
X93551793Y-107554587D01*
X93604520Y-107645913D01*
X93679087Y-107720480D01*
X93770413Y-107773207D01*
X93872273Y-107800500D01*
X93872275Y-107800500D01*
X93872276Y-107800500D01*
X93876165Y-107801542D01*
X93888246Y-107804095D01*
X93908103Y-107809926D01*
X93966880Y-107847699D01*
X93966885Y-107847705D01*
X93968072Y-107849075D01*
X93995518Y-107903902D01*
X93997163Y-107911460D01*
X94000000Y-107937831D01*
X94000000Y-108157670D01*
X93994975Y-108192614D01*
X93990570Y-108207612D01*
X93952827Y-108266355D01*
X93951458Y-108267542D01*
X93896583Y-108295021D01*
X93886759Y-108297158D01*
X93876599Y-108298930D01*
X93872275Y-108299499D01*
X93770413Y-108326792D01*
X93770408Y-108326795D01*
X93679088Y-108379518D01*
X93679082Y-108379523D01*
X93604523Y-108454082D01*
X93604518Y-108454088D01*
X93551795Y-108545408D01*
X93551792Y-108545413D01*
X93533226Y-108614705D01*
X93524500Y-108647273D01*
X93524500Y-108752727D01*
X93549800Y-108847147D01*
X93551793Y-108854586D01*
X93551793Y-108854587D01*
X93603869Y-108944787D01*
X93612139Y-108962074D01*
X93619348Y-108980722D01*
X93625161Y-109050350D01*
X93625158Y-109050365D01*
X93623274Y-109059544D01*
X93606219Y-109100374D01*
X93606552Y-109100567D01*
X93605059Y-109103152D01*
X93604920Y-109103486D01*
X93604526Y-109104074D01*
X93551795Y-109195408D01*
X93551792Y-109195413D01*
X93524500Y-109297273D01*
X93524500Y-109402727D01*
X93551793Y-109504587D01*
X93604520Y-109595913D01*
X93679087Y-109670480D01*
X93770413Y-109723207D01*
X93840379Y-109741953D01*
X93872819Y-109755846D01*
X93877521Y-109758712D01*
X93886168Y-109763983D01*
X93933159Y-109815674D01*
X93937034Y-109823650D01*
X93949500Y-109877837D01*
X93949500Y-109956335D01*
X93944477Y-109991271D01*
X93940031Y-110006412D01*
X93902256Y-110065190D01*
X93880525Y-110080283D01*
X93873164Y-110084307D01*
X93813692Y-110099500D01*
X93734108Y-110099500D01*
X93606808Y-110133609D01*
X93606806Y-110133610D01*
X93492696Y-110199493D01*
X93492682Y-110199502D01*
X93492677Y-110199506D01*
X93399506Y-110292677D01*
X93399502Y-110292682D01*
X93399493Y-110292696D01*
X93333610Y-110406806D01*
X93333609Y-110406808D01*
X93333608Y-110406812D01*
X93299500Y-110534108D01*
X93299500Y-110665891D01*
X93311197Y-110709545D01*
X93333608Y-110793188D01*
X93366554Y-110850250D01*
X93399500Y-110907314D01*
X93492686Y-111000500D01*
X93606814Y-111066392D01*
X93734108Y-111100500D01*
X93734110Y-111100500D01*
X93808388Y-111100500D01*
X93843320Y-111105521D01*
X93856639Y-111109432D01*
X93915417Y-111147206D01*
X93944443Y-111210761D01*
X93944443Y-111210764D01*
X93945476Y-111217949D01*
X93941056Y-111272702D01*
X93925658Y-111321800D01*
X93894460Y-111372931D01*
X93886331Y-111380957D01*
X93829495Y-111412964D01*
X93818453Y-111415745D01*
X93788169Y-111419500D01*
X93675681Y-111419500D01*
X93626832Y-111425930D01*
X93626824Y-111425932D01*
X93519594Y-111475935D01*
X93435935Y-111559594D01*
X93385932Y-111666824D01*
X93385930Y-111666832D01*
X93379500Y-111715680D01*
X93379500Y-111764336D01*
X93374475Y-111799280D01*
X93370070Y-111814278D01*
X93332305Y-111873041D01*
X93325759Y-111878714D01*
X93275700Y-111905030D01*
X93170331Y-111932378D01*
X93158034Y-111934913D01*
X93145677Y-111936814D01*
X93133186Y-111938093D01*
X92959465Y-111947019D01*
X92953181Y-111947182D01*
X92946908Y-111947186D01*
X92940637Y-111947031D01*
X90835911Y-111841794D01*
X90801267Y-111835032D01*
X90786507Y-111829884D01*
X90729733Y-111789275D01*
X90728937Y-111788259D01*
X90704061Y-111731100D01*
X90702010Y-111718095D01*
X90700499Y-111698808D01*
X90700499Y-111290105D01*
X90700499Y-111290100D01*
X90693972Y-111240513D01*
X90643224Y-111131684D01*
X90558316Y-111046776D01*
X90558315Y-111046775D01*
X90526360Y-111031874D01*
X90492005Y-111001623D01*
X90399904Y-110989500D01*
X90399902Y-110989500D01*
X90040105Y-110989500D01*
X90040104Y-110989500D01*
X90024386Y-110991569D01*
X89998553Y-110994969D01*
X89993144Y-110995323D01*
X89991334Y-110995643D01*
X89989048Y-110996709D01*
X89988997Y-110996734D01*
X89881683Y-111046776D01*
X89820286Y-111108172D01*
X89820250Y-111108208D01*
X89796775Y-111131684D01*
X89795139Y-111134019D01*
X89789490Y-111139826D01*
X89788594Y-111139199D01*
X89774220Y-111155522D01*
X89772060Y-111157743D01*
X89745489Y-111172729D01*
X89717647Y-111190389D01*
X89703045Y-111194614D01*
X89668580Y-111199500D01*
X88190438Y-111199500D01*
X88152224Y-111209739D01*
X88152221Y-111209739D01*
X88114007Y-111219979D01*
X88090297Y-111233669D01*
X88078445Y-111240511D01*
X88078446Y-111240512D01*
X88075623Y-111242142D01*
X88075615Y-111242146D01*
X88045493Y-111259535D01*
X88045489Y-111259538D01*
X87675356Y-111629670D01*
X87647100Y-111650822D01*
X87624890Y-111662949D01*
X87559273Y-111677961D01*
X85881275Y-111594062D01*
X85846634Y-111587301D01*
X85820658Y-111578242D01*
X85773810Y-111548839D01*
X84934517Y-110709545D01*
X84934515Y-110709544D01*
X84934512Y-110709541D01*
X84934504Y-110709535D01*
X84909164Y-110694905D01*
X84866872Y-110670488D01*
X84866050Y-110670004D01*
X84865995Y-110669981D01*
X84865991Y-110669980D01*
X84865990Y-110669979D01*
X84840513Y-110663152D01*
X84840509Y-110663150D01*
X84789563Y-110649500D01*
X84789562Y-110649500D01*
X84141830Y-110649500D01*
X84106889Y-110644475D01*
X84091890Y-110640070D01*
X84033144Y-110602327D01*
X84031957Y-110600958D01*
X84004477Y-110546083D01*
X84002832Y-110538521D01*
X84000000Y-110512168D01*
X84000000Y-108352537D01*
X84005022Y-108317604D01*
X84008933Y-108304285D01*
X84046706Y-108245508D01*
X84110251Y-108216484D01*
X84111974Y-108216236D01*
X84181130Y-108226175D01*
X84191628Y-108231586D01*
X84198383Y-108235486D01*
X84198386Y-108235489D01*
X84301113Y-108294799D01*
X84305261Y-108295910D01*
X84305269Y-108295915D01*
X84305270Y-108295913D01*
X84328604Y-108302165D01*
X84415691Y-108325500D01*
X85855297Y-108325500D01*
X85922336Y-108345185D01*
X85958394Y-108380602D01*
X85959877Y-108382821D01*
X85959885Y-108382833D01*
X86027473Y-108470914D01*
X86027493Y-108470938D01*
X86045199Y-108491126D01*
X86045204Y-108491132D01*
X86058866Y-108504794D01*
X86058872Y-108504799D01*
X86079060Y-108522505D01*
X86079084Y-108522525D01*
X86167162Y-108590111D01*
X86189529Y-108605056D01*
X86206243Y-108614705D01*
X86206252Y-108614710D01*
X86230359Y-108626598D01*
X86230364Y-108626600D01*
X86230370Y-108626603D01*
X86230375Y-108626604D01*
X86332946Y-108669091D01*
X86358400Y-108677732D01*
X86377060Y-108682732D01*
X86403424Y-108687976D01*
X86518368Y-108703109D01*
X86531753Y-108704427D01*
X86541412Y-108705060D01*
X86554851Y-108705500D01*
X89365413Y-108705500D01*
X89432452Y-108725185D01*
X89478207Y-108777989D01*
X89488151Y-108847147D01*
X89459126Y-108910703D01*
X89436537Y-108931075D01*
X89429592Y-108935937D01*
X89345935Y-109019594D01*
X89295932Y-109126824D01*
X89295930Y-109126832D01*
X89289500Y-109175680D01*
X89289500Y-109624318D01*
X89295930Y-109673171D01*
X89295974Y-109673313D01*
X89296644Y-109674700D01*
X89345935Y-109780404D01*
X89429596Y-109864065D01*
X89536827Y-109914068D01*
X89585683Y-109920500D01*
X89585684Y-109920500D01*
X89934311Y-109920500D01*
X89934317Y-109920500D01*
X89950601Y-109918356D01*
X89983173Y-109914068D01*
X90090404Y-109864065D01*
X90174065Y-109780404D01*
X90174065Y-109780402D01*
X90174067Y-109780401D01*
X90180288Y-109771517D01*
X90181018Y-109772028D01*
X90189716Y-109758718D01*
X90200227Y-109746781D01*
X90258833Y-109709610D01*
X90273444Y-109705382D01*
X90307898Y-109700500D01*
X90388737Y-109700500D01*
X90455776Y-109720185D01*
X90461592Y-109726898D01*
X90515801Y-109737680D01*
X90515804Y-109737681D01*
X90521772Y-109738868D01*
X90521770Y-109738868D01*
X90572614Y-109748980D01*
X90575340Y-109749703D01*
X90580249Y-109750500D01*
X90580250Y-109750500D01*
X90580252Y-109750500D01*
X91127725Y-109750500D01*
X91127727Y-109750500D01*
X91229587Y-109723207D01*
X91320913Y-109670480D01*
X91395480Y-109595913D01*
X91448207Y-109504587D01*
X91475500Y-109402727D01*
X91475500Y-109297273D01*
X91448207Y-109195413D01*
X91396127Y-109105208D01*
X91387864Y-109087935D01*
X91380651Y-109069278D01*
X91374836Y-108999656D01*
X91376520Y-108991441D01*
X91390604Y-108954356D01*
X91395477Y-108945915D01*
X91395480Y-108945913D01*
X91448207Y-108854587D01*
X91475500Y-108752727D01*
X91475500Y-108647273D01*
X91475500Y-108644628D01*
X91495185Y-108577589D01*
X91516614Y-108553038D01*
X91516565Y-108552986D01*
X91516380Y-108552801D01*
X91516387Y-108552793D01*
X91516322Y-108552723D01*
X91518085Y-108551092D01*
X91518101Y-108551079D01*
X91601079Y-108468101D01*
X91622026Y-108443576D01*
X91635634Y-108424845D01*
X91652479Y-108397355D01*
X91699536Y-108305001D01*
X91716255Y-108259682D01*
X91724321Y-108226087D01*
X91730000Y-108178111D01*
X91730000Y-107921885D01*
X91724322Y-107873910D01*
X91718359Y-107849075D01*
X91716260Y-107840330D01*
X91716259Y-107840328D01*
X91716257Y-107840318D01*
X91702033Y-107801764D01*
X91699541Y-107795008D01*
X91699537Y-107794999D01*
X91699537Y-107794998D01*
X91652480Y-107702644D01*
X91635633Y-107675152D01*
X91622026Y-107656423D01*
X91601081Y-107631900D01*
X91519301Y-107550120D01*
X91519296Y-107550116D01*
X91519289Y-107550109D01*
X91517725Y-107548737D01*
X91517392Y-107548212D01*
X91516431Y-107547251D01*
X91516646Y-107547035D01*
X91480311Y-107489729D01*
X91475500Y-107455523D01*
X91475500Y-107347275D01*
X91475500Y-107347273D01*
X91448207Y-107245413D01*
X91395480Y-107154087D01*
X91320913Y-107079520D01*
X91242186Y-107034067D01*
X91229589Y-107026794D01*
X91229588Y-107026793D01*
X91229587Y-107026793D01*
X91127727Y-106999500D01*
X91127726Y-106999500D01*
X90943663Y-106999500D01*
X90908727Y-106994477D01*
X90883485Y-106987065D01*
X90830740Y-106955769D01*
X90799426Y-106924455D01*
X90778274Y-106896199D01*
X90765667Y-106873110D01*
X90750500Y-106813685D01*
X90750500Y-106593662D01*
X90755522Y-106558729D01*
X90762934Y-106533484D01*
X90794228Y-106480742D01*
X91525547Y-105749423D01*
X91553797Y-105728275D01*
X91576889Y-105715667D01*
X91636314Y-105700500D01*
X93418326Y-105700500D01*
X93453262Y-105705523D01*
G37*
G04 #@! TD.AperFunction*
G04 #@! TA.AperFunction,Conductor*
G36*
X87293757Y-103005023D02*
G01*
X87315362Y-103011367D01*
X87365216Y-103039864D01*
X87368158Y-103042621D01*
X87383131Y-103059459D01*
X87441497Y-103138542D01*
X87443876Y-103142426D01*
X87445310Y-103144130D01*
X87449119Y-103148962D01*
X87456261Y-103153358D01*
X87519178Y-103199792D01*
X87557118Y-103227793D01*
X87599845Y-103242744D01*
X87685299Y-103272646D01*
X87685303Y-103272647D01*
X87703742Y-103274375D01*
X87715730Y-103275500D01*
X87715734Y-103275500D01*
X87715739Y-103275500D01*
X89824270Y-103275500D01*
X89824271Y-103275500D01*
X89825576Y-103275377D01*
X89854699Y-103272646D01*
X89854701Y-103272646D01*
X89918790Y-103250219D01*
X89982882Y-103227793D01*
X90092150Y-103147150D01*
X90152991Y-103064712D01*
X90177773Y-103039589D01*
X90195712Y-103025968D01*
X90248285Y-103002770D01*
X90250903Y-103002289D01*
X90252249Y-103002042D01*
X90274658Y-103000000D01*
X92990857Y-103000000D01*
X92996917Y-103000147D01*
X93003047Y-103000448D01*
X93009058Y-103000892D01*
X93176886Y-103017421D01*
X93188910Y-103019205D01*
X93200792Y-103021568D01*
X93212584Y-103024521D01*
X93365181Y-103070810D01*
X93376629Y-103074907D01*
X93387833Y-103079548D01*
X93398818Y-103084744D01*
X93499467Y-103138542D01*
X93539421Y-103159898D01*
X93549857Y-103166153D01*
X93559946Y-103172894D01*
X93569722Y-103180144D01*
X93692959Y-103281282D01*
X93701975Y-103289454D01*
X93710544Y-103298023D01*
X93718716Y-103307039D01*
X93819854Y-103430276D01*
X93827100Y-103440045D01*
X93833847Y-103450142D01*
X93840101Y-103460577D01*
X93915249Y-103601170D01*
X93920451Y-103612168D01*
X93925090Y-103623367D01*
X93929191Y-103634827D01*
X93975471Y-103787393D01*
X93978428Y-103799199D01*
X93980794Y-103811095D01*
X93982579Y-103823129D01*
X93999104Y-103990903D01*
X93999551Y-103996970D01*
X93999850Y-104003053D01*
X94000000Y-104009141D01*
X94000000Y-104747670D01*
X93994975Y-104782614D01*
X93990570Y-104797612D01*
X93952827Y-104856355D01*
X93951458Y-104857542D01*
X93896597Y-104885018D01*
X93889039Y-104886663D01*
X93862668Y-104889500D01*
X93790104Y-104889500D01*
X93774386Y-104891569D01*
X93748553Y-104894969D01*
X93743144Y-104895323D01*
X93741334Y-104895643D01*
X93739048Y-104896709D01*
X93738997Y-104896734D01*
X93631683Y-104946776D01*
X93570286Y-105008172D01*
X93570250Y-105008208D01*
X93546775Y-105031684D01*
X93545139Y-105034019D01*
X93539490Y-105039826D01*
X93538594Y-105039199D01*
X93524220Y-105055522D01*
X93522060Y-105057743D01*
X93495489Y-105072729D01*
X93467647Y-105090389D01*
X93453045Y-105094614D01*
X93418580Y-105099500D01*
X91410436Y-105099500D01*
X91334011Y-105119977D01*
X91334008Y-105119978D01*
X91265499Y-105159533D01*
X91265485Y-105159542D01*
X91265480Y-105159546D01*
X90209545Y-106215481D01*
X90209544Y-106215483D01*
X90209526Y-106215508D01*
X90181004Y-106264909D01*
X90181002Y-106264914D01*
X90169982Y-106284004D01*
X90169979Y-106284009D01*
X90149500Y-106360439D01*
X90149500Y-106430993D01*
X90147327Y-106442449D01*
X90136505Y-106463591D01*
X90129815Y-106486378D01*
X90120881Y-106494119D01*
X90115494Y-106504645D01*
X90094957Y-106516582D01*
X90077011Y-106532133D01*
X90065309Y-106533815D01*
X90055088Y-106539757D01*
X90031361Y-106538696D01*
X90007853Y-106542077D01*
X89989352Y-106536819D01*
X89985288Y-106536638D01*
X89982990Y-106535011D01*
X89975967Y-106533016D01*
X89962478Y-106527138D01*
X89937155Y-106518026D01*
X89825633Y-106485967D01*
X89812566Y-106482671D01*
X89803114Y-106480613D01*
X89802778Y-106480551D01*
X89789873Y-106478182D01*
X89551652Y-106442449D01*
X89027048Y-106363758D01*
X89027048Y-106363757D01*
X89026550Y-106363683D01*
X88624127Y-106304455D01*
X88614168Y-106302989D01*
X88608417Y-106301159D01*
X88580341Y-106298010D01*
X88578245Y-106297702D01*
X88578222Y-106297699D01*
X88575519Y-106297301D01*
X88573420Y-106297274D01*
X88571925Y-106297134D01*
X88567861Y-106296755D01*
X88562497Y-106296355D01*
X88562446Y-106296352D01*
X88562444Y-106296352D01*
X88554815Y-106295926D01*
X88554811Y-106295925D01*
X88554796Y-106295925D01*
X88524610Y-106294800D01*
X88521686Y-106294692D01*
X88521678Y-106294691D01*
X88521657Y-106294691D01*
X88520768Y-106294666D01*
X88517869Y-106294585D01*
X88516122Y-106294553D01*
X88515130Y-106294535D01*
X88511324Y-106294500D01*
X88511282Y-106294500D01*
X86554866Y-106294500D01*
X86554851Y-106294500D01*
X86546086Y-106294786D01*
X86541404Y-106294940D01*
X86531748Y-106295573D01*
X86518362Y-106296891D01*
X86403425Y-106312023D01*
X86377061Y-106317267D01*
X86358404Y-106322266D01*
X86332939Y-106330910D01*
X86230361Y-106373399D01*
X86230354Y-106373403D01*
X86206244Y-106385293D01*
X86189527Y-106394944D01*
X86167176Y-106409877D01*
X86167167Y-106409884D01*
X86079064Y-106477490D01*
X86058851Y-106495218D01*
X86045218Y-106508851D01*
X86027490Y-106529064D01*
X85959884Y-106617167D01*
X85959877Y-106617176D01*
X85944944Y-106639527D01*
X85935293Y-106656244D01*
X85923403Y-106680354D01*
X85923399Y-106680361D01*
X85880910Y-106782939D01*
X85872266Y-106808404D01*
X85867267Y-106827061D01*
X85862023Y-106853425D01*
X85846891Y-106968361D01*
X85845573Y-106981747D01*
X85844940Y-106991403D01*
X85844500Y-107004864D01*
X85844500Y-107300500D01*
X85824815Y-107367539D01*
X85772011Y-107413294D01*
X85720500Y-107424500D01*
X84730795Y-107424500D01*
X84695859Y-107419477D01*
X84670617Y-107412065D01*
X84617872Y-107380769D01*
X84299426Y-107062323D01*
X84278274Y-107034067D01*
X84265667Y-107010978D01*
X84250500Y-106951553D01*
X84250500Y-103417329D01*
X84255523Y-103382393D01*
X84259927Y-103367395D01*
X84297672Y-103308644D01*
X84299041Y-103307457D01*
X84353920Y-103279977D01*
X84361479Y-103278333D01*
X84387832Y-103275500D01*
X85824271Y-103275500D01*
X85825576Y-103275377D01*
X85854699Y-103272646D01*
X85854701Y-103272646D01*
X85918790Y-103250219D01*
X85982882Y-103227793D01*
X86092150Y-103147150D01*
X86152991Y-103064712D01*
X86177773Y-103039589D01*
X86195712Y-103025968D01*
X86248285Y-103002770D01*
X86250903Y-103002289D01*
X86252249Y-103002042D01*
X86274658Y-103000000D01*
X87258821Y-103000000D01*
X87293757Y-103005023D01*
G37*
G04 #@! TD.AperFunction*
G04 #@! TA.AperFunction,Conductor*
G36*
X81016686Y-101056131D02*
G01*
X81033896Y-101063260D01*
X81050617Y-101072914D01*
X81142597Y-101143493D01*
X81168377Y-101188146D01*
X82499736Y-102499890D01*
X82500000Y-102500000D01*
X80500000Y-102500000D01*
X80000000Y-102000000D01*
X78000001Y-102000000D01*
X78000000Y-102000000D01*
X77886038Y-102341886D01*
X77115792Y-104652623D01*
X77111299Y-104663255D01*
X77047804Y-104785850D01*
X77034171Y-104804391D01*
X76940253Y-104897422D01*
X76921584Y-104910878D01*
X76803619Y-104970562D01*
X76781718Y-104977632D01*
X76645338Y-104999100D01*
X76633831Y-105000000D01*
X74504851Y-105000000D01*
X74495192Y-104999367D01*
X74380248Y-104984234D01*
X74361588Y-104979234D01*
X74259001Y-104936741D01*
X74242271Y-104927082D01*
X74154175Y-104859483D01*
X74140516Y-104845824D01*
X74072917Y-104757728D01*
X74063258Y-104740998D01*
X74031056Y-104663255D01*
X74020764Y-104638408D01*
X74015766Y-104619755D01*
X74011965Y-104590886D01*
X74014213Y-104564338D01*
X74014037Y-104564313D01*
X74014463Y-104561384D01*
X74014634Y-104559373D01*
X74014863Y-104558630D01*
X74014866Y-104558625D01*
X74025500Y-104485636D01*
X74025500Y-103914364D01*
X74014866Y-103841375D01*
X74007519Y-103826346D01*
X74000000Y-103793846D01*
X74000000Y-103268409D01*
X74021674Y-103216083D01*
X74040402Y-103202476D01*
X74088342Y-103178050D01*
X74178050Y-103088342D01*
X74235646Y-102975304D01*
X74250500Y-102881519D01*
X74250499Y-102690664D01*
X74265297Y-102646270D01*
X75062018Y-101583975D01*
X75068865Y-101576080D01*
X75572772Y-101072174D01*
X75625098Y-101050500D01*
X80988370Y-101050500D01*
X81016686Y-101056131D01*
G37*
G04 #@! TD.AperFunction*
G04 #@! TA.AperFunction,Conductor*
G36*
X70484707Y-108149920D02*
G01*
X70500000Y-108194970D01*
X70500000Y-110319376D01*
X70478326Y-110371702D01*
X70442794Y-110407233D01*
X70397413Y-110510012D01*
X70394500Y-110535135D01*
X70394500Y-111455867D01*
X70388867Y-111484183D01*
X70379071Y-111507836D01*
X70378459Y-111509313D01*
X70362418Y-111533319D01*
X69858103Y-112037636D01*
X69787632Y-112108107D01*
X69749500Y-112200168D01*
X69749500Y-112568262D01*
X69743867Y-112596578D01*
X69738842Y-112608713D01*
X69733625Y-112621307D01*
X69717584Y-112645313D01*
X69639508Y-112723389D01*
X69580200Y-112826112D01*
X69580197Y-112826121D01*
X69549500Y-112940685D01*
X69549500Y-113059313D01*
X69580197Y-113173877D01*
X69580200Y-113173886D01*
X69585665Y-113183351D01*
X69594946Y-113210694D01*
X69596416Y-113221862D01*
X69581805Y-113276505D01*
X69581279Y-113277192D01*
X69541686Y-113303682D01*
X69538359Y-113304574D01*
X69519196Y-113307098D01*
X63502836Y-113307098D01*
X63426420Y-113327573D01*
X63426411Y-113327576D01*
X63357893Y-113367135D01*
X63157110Y-113567918D01*
X63133104Y-113583958D01*
X63107974Y-113594367D01*
X63079658Y-113600000D01*
X60814386Y-113600000D01*
X60809545Y-113599841D01*
X60804710Y-113599524D01*
X60799891Y-113599050D01*
X60692161Y-113584866D01*
X60682668Y-113582977D01*
X60673379Y-113580488D01*
X60664214Y-113577377D01*
X60570588Y-113538596D01*
X60561910Y-113534317D01*
X60553581Y-113529509D01*
X60545529Y-113524129D01*
X60535887Y-113516731D01*
X60459319Y-113457978D01*
X60455588Y-113454916D01*
X60451934Y-113451711D01*
X60448414Y-113448414D01*
X58751585Y-111751585D01*
X58748280Y-111748057D01*
X58745081Y-111744409D01*
X58742027Y-111740687D01*
X58675866Y-111654464D01*
X58670493Y-111646423D01*
X58665678Y-111638084D01*
X58661402Y-111629410D01*
X58622621Y-111535784D01*
X58619510Y-111526619D01*
X58617021Y-111517330D01*
X58615132Y-111507836D01*
X58608290Y-111455867D01*
X58600946Y-111400084D01*
X58600474Y-111395274D01*
X58600158Y-111390439D01*
X58600000Y-111385613D01*
X58600000Y-108229500D01*
X58621674Y-108177174D01*
X58674000Y-108155500D01*
X70287718Y-108155500D01*
X70327964Y-108150202D01*
X70327970Y-108150200D01*
X70327972Y-108150200D01*
X70364964Y-108140288D01*
X70384226Y-108133749D01*
X70384230Y-108133745D01*
X70389579Y-108130888D01*
X70391010Y-108133566D01*
X70435656Y-108121603D01*
X70484707Y-108149920D01*
G37*
G04 #@! TD.AperFunction*
G04 #@! TA.AperFunction,Conductor*
G36*
X70376429Y-112303179D02*
G01*
X70415811Y-112341657D01*
X70442793Y-112402764D01*
X70478326Y-112438297D01*
X70500000Y-112490623D01*
X70478326Y-112542949D01*
X70472190Y-112548438D01*
X70430858Y-112581458D01*
X70474328Y-112631625D01*
X70478573Y-112634161D01*
X70480850Y-112637127D01*
X70481636Y-112640060D01*
X70481926Y-112640394D01*
X70481763Y-112640534D01*
X70495521Y-112691831D01*
X70467214Y-112740887D01*
X70412510Y-112755558D01*
X70364501Y-112727855D01*
X70363980Y-112728231D01*
X70362681Y-112726429D01*
X70362680Y-112726427D01*
X70362180Y-112725733D01*
X70361929Y-112725879D01*
X70361610Y-112725327D01*
X70360791Y-112723807D01*
X70360490Y-112723389D01*
X70360489Y-112723387D01*
X70287243Y-112650141D01*
X70275483Y-112634814D01*
X70260414Y-112608713D01*
X70250500Y-112571714D01*
X70250500Y-112399130D01*
X70256131Y-112370816D01*
X70266396Y-112346032D01*
X70306442Y-112305985D01*
X70316506Y-112301816D01*
X70373133Y-112301814D01*
X70376429Y-112303179D01*
G37*
G04 #@! TD.AperFunction*
G04 #@! TA.AperFunction,Conductor*
G36*
X74360871Y-107785495D02*
G01*
X74396810Y-107829270D01*
X74400000Y-107850764D01*
X74400000Y-107926000D01*
X74378326Y-107978326D01*
X74326000Y-108000000D01*
X71281257Y-108000000D01*
X71260669Y-107991472D01*
X71253508Y-107991333D01*
X71248988Y-107986634D01*
X71228931Y-107978326D01*
X71219802Y-107956288D01*
X71214247Y-107950512D01*
X71214733Y-107944050D01*
X71207257Y-107926000D01*
X71213784Y-107895613D01*
X71217315Y-107887771D01*
X71221490Y-107882331D01*
X71241241Y-107834645D01*
X71241706Y-107833613D01*
X71261577Y-107814916D01*
X71280859Y-107795634D01*
X71282395Y-107795328D01*
X71282955Y-107794802D01*
X71284764Y-107794857D01*
X71309179Y-107790000D01*
X74241164Y-107790000D01*
X74257710Y-107788369D01*
X74271504Y-107787010D01*
X74290308Y-107783268D01*
X74299820Y-107781376D01*
X74299822Y-107781375D01*
X74299829Y-107781374D01*
X74304508Y-107779954D01*
X74360871Y-107785495D01*
G37*
G04 #@! TD.AperFunction*
G04 #@! TA.AperFunction,Conductor*
G36*
X78834749Y-108458639D02*
G01*
X78839604Y-108458897D01*
X78844387Y-108459308D01*
X78952342Y-108472155D01*
X78961806Y-108473916D01*
X78971178Y-108476302D01*
X78980344Y-108479288D01*
X79065292Y-108513242D01*
X79089494Y-108528979D01*
X79116106Y-108554936D01*
X79117296Y-108556097D01*
X79117298Y-108556098D01*
X79170267Y-108585807D01*
X79182158Y-108594104D01*
X79193033Y-108603405D01*
X79203075Y-108613864D01*
X79264254Y-108691573D01*
X79269731Y-108699553D01*
X79274647Y-108707828D01*
X79279036Y-108716456D01*
X79318978Y-108809588D01*
X79322204Y-108818715D01*
X79324809Y-108827975D01*
X79326815Y-108837443D01*
X79342338Y-108944983D01*
X79342873Y-108949797D01*
X79343250Y-108954627D01*
X79343468Y-108959464D01*
X79359537Y-110250000D01*
X79393605Y-112986441D01*
X79393505Y-112991318D01*
X79393244Y-112996193D01*
X79392822Y-113001058D01*
X79379768Y-113109783D01*
X79377971Y-113119366D01*
X79375561Y-113128752D01*
X79372515Y-113138026D01*
X79334310Y-113232756D01*
X79330067Y-113241554D01*
X79325289Y-113249988D01*
X79319936Y-113258133D01*
X79258351Y-113339609D01*
X79251975Y-113346981D01*
X79245164Y-113353879D01*
X79237860Y-113360359D01*
X79157153Y-113422956D01*
X79149060Y-113428418D01*
X79140688Y-113433297D01*
X79131959Y-113437641D01*
X79037716Y-113477022D01*
X79028488Y-113480181D01*
X79019132Y-113482709D01*
X79009564Y-113484628D01*
X78900998Y-113499036D01*
X78896145Y-113499517D01*
X78891279Y-113499839D01*
X78886407Y-113500000D01*
X74729500Y-113500000D01*
X74677174Y-113478326D01*
X74655500Y-113426000D01*
X74655500Y-112601035D01*
X74653740Y-112590630D01*
X74646855Y-112549911D01*
X74630857Y-112503957D01*
X74630853Y-112503948D01*
X74617448Y-112475255D01*
X74617446Y-112475253D01*
X74617446Y-112475252D01*
X74559653Y-112419225D01*
X74559648Y-112419222D01*
X74520900Y-112397645D01*
X74520900Y-112397644D01*
X74499527Y-112385744D01*
X74495447Y-112383472D01*
X74493258Y-112383320D01*
X74434288Y-112357282D01*
X74411852Y-112341913D01*
X74393083Y-112323144D01*
X74377713Y-112300706D01*
X74366304Y-112274865D01*
X74360000Y-112244977D01*
X74360000Y-110565022D01*
X74366304Y-110535135D01*
X74377717Y-110509286D01*
X74393081Y-110486855D01*
X74411856Y-110468080D01*
X74434285Y-110452716D01*
X74481721Y-110431771D01*
X74483093Y-110431716D01*
X74495001Y-110425957D01*
X74497335Y-110424878D01*
X74522266Y-110413870D01*
X74524098Y-110411883D01*
X74546034Y-110401274D01*
X74572989Y-110384655D01*
X74621989Y-110320796D01*
X74643663Y-110268470D01*
X74655500Y-110208963D01*
X74655500Y-110074000D01*
X74677174Y-110021674D01*
X74729500Y-110000000D01*
X75500000Y-110000000D01*
X75500000Y-109001027D01*
X75500155Y-108996238D01*
X75500467Y-108991427D01*
X75500930Y-108986691D01*
X75505437Y-108952185D01*
X75514895Y-108879754D01*
X75516751Y-108870345D01*
X75519206Y-108861108D01*
X75522264Y-108852024D01*
X75530222Y-108832643D01*
X75560460Y-108758993D01*
X75564674Y-108750371D01*
X75569413Y-108742083D01*
X75574699Y-108734091D01*
X75635509Y-108653984D01*
X75641782Y-108646748D01*
X75648507Y-108639939D01*
X75655656Y-108633584D01*
X75735005Y-108571776D01*
X75742925Y-108566395D01*
X75751160Y-108561548D01*
X75759719Y-108557233D01*
X75852282Y-108517875D01*
X75861321Y-108514708D01*
X75870528Y-108512138D01*
X75879901Y-108510167D01*
X75986656Y-108494870D01*
X75991392Y-108494348D01*
X75996216Y-108493975D01*
X76000977Y-108493762D01*
X77442134Y-108475820D01*
X78829921Y-108458542D01*
X78834749Y-108458639D01*
G37*
G04 #@! TD.AperFunction*
G04 #@! TA.AperFunction,Conductor*
G36*
X74478326Y-108021674D02*
G01*
X74500000Y-108074000D01*
X74500000Y-110208963D01*
X74478326Y-110261289D01*
X74440065Y-110279795D01*
X74440381Y-110280954D01*
X74435007Y-110282415D01*
X74332234Y-110327794D01*
X74252794Y-110407234D01*
X74207414Y-110510011D01*
X74204500Y-110535135D01*
X74204500Y-112274863D01*
X74207414Y-112299986D01*
X74207415Y-112299992D01*
X74252794Y-112402765D01*
X74332235Y-112482206D01*
X74435009Y-112527585D01*
X74435012Y-112527585D01*
X74435014Y-112527586D01*
X74440383Y-112529048D01*
X74439970Y-112530563D01*
X74484002Y-112555082D01*
X74500000Y-112601036D01*
X74500000Y-113426000D01*
X74478326Y-113478326D01*
X74461355Y-113495296D01*
X74450000Y-113500000D01*
X71433371Y-113500000D01*
X71300509Y-113367138D01*
X71231988Y-113327577D01*
X71231983Y-113327575D01*
X71155562Y-113307098D01*
X71155560Y-113307098D01*
X70500000Y-113307098D01*
X70500000Y-112459971D01*
X70522235Y-112482206D01*
X70625009Y-112527585D01*
X70650135Y-112530500D01*
X71039864Y-112530499D01*
X71064991Y-112527585D01*
X71167765Y-112482206D01*
X71247206Y-112402765D01*
X71292585Y-112299991D01*
X71295500Y-112274865D01*
X71295499Y-110535136D01*
X71292585Y-110510009D01*
X71247206Y-110407235D01*
X71167765Y-110327794D01*
X71064991Y-110282415D01*
X71064990Y-110282414D01*
X71064988Y-110282414D01*
X71043659Y-110279940D01*
X71039865Y-110279500D01*
X71039864Y-110279500D01*
X70650136Y-110279500D01*
X70625013Y-110282414D01*
X70625007Y-110282415D01*
X70522234Y-110327794D01*
X70500000Y-110350028D01*
X70500000Y-108000000D01*
X74400000Y-108000000D01*
X74426000Y-108000000D01*
X74478326Y-108021674D01*
G37*
G04 #@! TD.AperFunction*
G04 #@! TA.AperFunction,Conductor*
G36*
X79957264Y-102177174D02*
G01*
X80390045Y-102609955D01*
X80422250Y-102634667D01*
X80445153Y-102640803D01*
X80490086Y-102675282D01*
X80500000Y-102712282D01*
X80500000Y-107500000D01*
X80878732Y-107594683D01*
X82114136Y-107903534D01*
X82118850Y-107904881D01*
X82123494Y-107906375D01*
X82128106Y-107908028D01*
X82230412Y-107948602D01*
X82239264Y-107952811D01*
X82247764Y-107957567D01*
X82255971Y-107962901D01*
X82338153Y-108024438D01*
X82345576Y-108030807D01*
X82348104Y-108033285D01*
X82352528Y-108037621D01*
X82359057Y-108044928D01*
X82420350Y-108123429D01*
X82420355Y-108123436D01*
X82422230Y-108125838D01*
X82427735Y-108133944D01*
X82432660Y-108142344D01*
X82437046Y-108151109D01*
X82476797Y-108245723D01*
X82479985Y-108254985D01*
X82482538Y-108264382D01*
X82484478Y-108274001D01*
X82499026Y-108383088D01*
X82499512Y-108387963D01*
X82499837Y-108392853D01*
X82500000Y-108397760D01*
X82500000Y-111513027D01*
X82498578Y-111527465D01*
X82495774Y-111541560D01*
X82495499Y-111542468D01*
X82494200Y-111549038D01*
X82494200Y-112306168D01*
X82488567Y-112334484D01*
X82478159Y-112359614D01*
X82462118Y-112383620D01*
X81877820Y-112967918D01*
X81853814Y-112983958D01*
X81828684Y-112994367D01*
X81800368Y-113000000D01*
X79920051Y-113000000D01*
X79915130Y-112999836D01*
X79910224Y-112999509D01*
X79905333Y-112999020D01*
X79795928Y-112984385D01*
X79786290Y-112982436D01*
X79776867Y-112979869D01*
X79767575Y-112976661D01*
X79720146Y-112956667D01*
X79672721Y-112936675D01*
X79663933Y-112932261D01*
X79655517Y-112927308D01*
X79647393Y-112921769D01*
X79575230Y-112865193D01*
X79547423Y-112815852D01*
X79546894Y-112807895D01*
X79515025Y-110248064D01*
X79499656Y-109013755D01*
X79500000Y-109000001D01*
X79499999Y-109000000D01*
X79500000Y-109000000D01*
X79499475Y-108999212D01*
X79498956Y-108957528D01*
X79498810Y-108952463D01*
X79498592Y-108947626D01*
X79498278Y-108942526D01*
X79497901Y-108937696D01*
X79497422Y-108932621D01*
X79496887Y-108927807D01*
X79496243Y-108922767D01*
X79480720Y-108815227D01*
X79478938Y-108805212D01*
X79476932Y-108795744D01*
X79474499Y-108785865D01*
X79471894Y-108776605D01*
X79468815Y-108766894D01*
X79465589Y-108757767D01*
X79461889Y-108748297D01*
X79421947Y-108655165D01*
X79417634Y-108645952D01*
X79413245Y-108637324D01*
X79408335Y-108628407D01*
X79403419Y-108620132D01*
X79403414Y-108620125D01*
X79403408Y-108620114D01*
X79397949Y-108611573D01*
X79392459Y-108603575D01*
X79386433Y-108595383D01*
X79325254Y-108517674D01*
X79315243Y-108506168D01*
X79311679Y-108502456D01*
X79305221Y-108495729D01*
X79305214Y-108495723D01*
X79305201Y-108495709D01*
X79294103Y-108485231D01*
X79283228Y-108475930D01*
X79271139Y-108466579D01*
X79259248Y-108458282D01*
X79259241Y-108458277D01*
X79259233Y-108458272D01*
X79246353Y-108450193D01*
X79246321Y-108450175D01*
X79219714Y-108435251D01*
X79204245Y-108423685D01*
X79198066Y-108417658D01*
X79198061Y-108417653D01*
X79174261Y-108398614D01*
X79150063Y-108382880D01*
X79148312Y-108381972D01*
X79123006Y-108368849D01*
X79084681Y-108353530D01*
X79050576Y-108325865D01*
X79016000Y-108274001D01*
X78855524Y-108033285D01*
X78588495Y-107632741D01*
X78585659Y-107628129D01*
X78582975Y-107623380D01*
X78580486Y-107618571D01*
X78528458Y-107508342D01*
X78524553Y-107498201D01*
X78521427Y-107487877D01*
X78519050Y-107477271D01*
X78501192Y-107356667D01*
X78500599Y-107351298D01*
X78500198Y-107345861D01*
X78500000Y-107340445D01*
X78500000Y-102507278D01*
X78500158Y-102502452D01*
X78500474Y-102497617D01*
X78500946Y-102492810D01*
X78515133Y-102385048D01*
X78517020Y-102375563D01*
X78519509Y-102366271D01*
X78522614Y-102357122D01*
X78561406Y-102263471D01*
X78565685Y-102254796D01*
X78570491Y-102246472D01*
X78575868Y-102238424D01*
X78617284Y-102184451D01*
X78666334Y-102156133D01*
X78675992Y-102155500D01*
X79904938Y-102155500D01*
X79957264Y-102177174D01*
G37*
G04 #@! TD.AperFunction*
G04 #@! TA.AperFunction,Conductor*
G36*
X65396281Y-115037852D02*
G01*
X65948889Y-115590460D01*
X66017412Y-115630022D01*
X66093838Y-115650500D01*
X66203155Y-115650500D01*
X66255481Y-115672174D01*
X66264682Y-115683386D01*
X66288848Y-115719552D01*
X66340483Y-115754054D01*
X66359386Y-115766685D01*
X66390851Y-115813777D01*
X66391660Y-115818707D01*
X66399387Y-115878361D01*
X66400000Y-115887867D01*
X66400000Y-116092711D01*
X66398578Y-116107148D01*
X66381622Y-116192390D01*
X66350158Y-116239481D01*
X66288848Y-116280448D01*
X66242695Y-116349519D01*
X66195604Y-116380983D01*
X66109663Y-116398078D01*
X66095226Y-116399500D01*
X65969549Y-116399500D01*
X65957695Y-116398544D01*
X65860631Y-116382792D01*
X65820159Y-116362074D01*
X65810722Y-116352637D01*
X65810718Y-116352634D01*
X65718652Y-116314500D01*
X65712554Y-116314500D01*
X65678206Y-116306045D01*
X65671945Y-116302764D01*
X65661893Y-116296419D01*
X65176002Y-115932002D01*
X65176001Y-115932000D01*
X65000000Y-115800000D01*
X64856481Y-115800000D01*
X64804155Y-115778326D01*
X64787016Y-115761187D01*
X64687662Y-115717318D01*
X64687663Y-115717318D01*
X64682804Y-115716754D01*
X64663373Y-115714500D01*
X64663369Y-115714500D01*
X64386431Y-115714500D01*
X64334105Y-115692826D01*
X64284678Y-115643399D01*
X64271070Y-115624668D01*
X64224897Y-115534048D01*
X64217744Y-115512036D01*
X64201833Y-115411573D01*
X64201833Y-115388424D01*
X64217744Y-115287961D01*
X64224896Y-115265953D01*
X64271073Y-115175326D01*
X64284675Y-115156603D01*
X64356603Y-115084675D01*
X64375326Y-115071073D01*
X64465953Y-115024896D01*
X64487980Y-115017741D01*
X64489646Y-115017477D01*
X64492118Y-115017087D01*
X64503678Y-115016178D01*
X65343955Y-115016178D01*
X65396281Y-115037852D01*
G37*
G04 #@! TD.AperFunction*
G04 #@! TA.AperFunction,Conductor*
G36*
X88514077Y-106500051D02*
G01*
X88516759Y-106500150D01*
X88547162Y-106501283D01*
X88552620Y-106501690D01*
X88585516Y-106505379D01*
X88588251Y-106506889D01*
X88996378Y-106566957D01*
X88996580Y-106566987D01*
X89759389Y-106681408D01*
X89768856Y-106683469D01*
X89880386Y-106715530D01*
X89898112Y-106723254D01*
X89993334Y-106780586D01*
X90008448Y-106792635D01*
X90074883Y-106861588D01*
X90085563Y-106872673D01*
X90097045Y-106888230D01*
X90153165Y-106989807D01*
X90157285Y-106998577D01*
X90268645Y-107282546D01*
X90393137Y-107600000D01*
X90404453Y-107607717D01*
X90438148Y-107621674D01*
X90454550Y-107652358D01*
X90455444Y-107651989D01*
X90458232Y-107658720D01*
X90458232Y-107658721D01*
X90458233Y-107658722D01*
X90491496Y-107708504D01*
X90541278Y-107741767D01*
X90585180Y-107750500D01*
X90585181Y-107750500D01*
X91121146Y-107750500D01*
X91121146Y-107750499D01*
X91210288Y-107726614D01*
X91284666Y-107683670D01*
X91340816Y-107676277D01*
X91373991Y-107695430D01*
X91455771Y-107777210D01*
X91469378Y-107795939D01*
X91516435Y-107888293D01*
X91524500Y-107921885D01*
X91524500Y-108178111D01*
X91516434Y-108211706D01*
X91469377Y-108304060D01*
X91455769Y-108322791D01*
X91372791Y-108405769D01*
X91354060Y-108419378D01*
X91249499Y-108472654D01*
X91227481Y-108479808D01*
X91134600Y-108494519D01*
X91105750Y-108499089D01*
X91094176Y-108500000D01*
X86554851Y-108500000D01*
X86545192Y-108499367D01*
X86430248Y-108484234D01*
X86411588Y-108479234D01*
X86309001Y-108436741D01*
X86292271Y-108427082D01*
X86204175Y-108359483D01*
X86190516Y-108345824D01*
X86166482Y-108314503D01*
X86122917Y-108257728D01*
X86113258Y-108240998D01*
X86091744Y-108189058D01*
X86070764Y-108138408D01*
X86065765Y-108119751D01*
X86056582Y-108050000D01*
X86050633Y-108004808D01*
X86050000Y-107995149D01*
X86050000Y-107004850D01*
X86050633Y-106995191D01*
X86051342Y-106989807D01*
X86065766Y-106880244D01*
X86070763Y-106861593D01*
X86113260Y-106758996D01*
X86122914Y-106742274D01*
X86190520Y-106654170D01*
X86204170Y-106640520D01*
X86292274Y-106572914D01*
X86308996Y-106563260D01*
X86411593Y-106520763D01*
X86430244Y-106515766D01*
X86545192Y-106500633D01*
X86554851Y-106500000D01*
X88511324Y-106500000D01*
X88514077Y-106500051D01*
G37*
G04 #@! TD.AperFunction*
G04 #@! TA.AperFunction,Conductor*
G36*
X74497543Y-101000156D02*
G01*
X74502412Y-101000476D01*
X74507188Y-101000946D01*
X74614954Y-101015133D01*
X74624428Y-101017017D01*
X74633736Y-101019512D01*
X74642887Y-101022619D01*
X74727398Y-101057624D01*
X74751404Y-101073664D01*
X74778867Y-101101127D01*
X74778869Y-101101128D01*
X74778870Y-101101129D01*
X74831462Y-101131493D01*
X74843255Y-101139944D01*
X74854004Y-101149371D01*
X74863919Y-101159957D01*
X74924129Y-101238423D01*
X74929507Y-101246473D01*
X74934315Y-101254801D01*
X74938596Y-101263481D01*
X74977379Y-101357110D01*
X74980491Y-101366279D01*
X74982978Y-101375562D01*
X74984866Y-101385051D01*
X74986515Y-101397574D01*
X74971857Y-101452282D01*
X74965477Y-101459557D01*
X74958922Y-101466112D01*
X74951389Y-101474199D01*
X74944546Y-101482090D01*
X74937613Y-101490681D01*
X74140899Y-102552966D01*
X74117776Y-102597097D01*
X74102980Y-102641487D01*
X74102977Y-102641497D01*
X74094999Y-102690665D01*
X74094999Y-102863454D01*
X74094088Y-102875030D01*
X74087745Y-102915077D01*
X74080590Y-102937097D01*
X74055999Y-102985359D01*
X74042391Y-103004089D01*
X74004088Y-103042392D01*
X73985361Y-103055999D01*
X73969800Y-103063928D01*
X73949003Y-103076673D01*
X73930225Y-103090316D01*
X73927012Y-103092715D01*
X73878012Y-103156573D01*
X73878010Y-103156577D01*
X73856338Y-103208897D01*
X73856335Y-103208907D01*
X73844500Y-103268410D01*
X73844500Y-103793838D01*
X73844501Y-103793861D01*
X73848500Y-103828887D01*
X73848501Y-103828891D01*
X73856020Y-103861394D01*
X73856023Y-103861404D01*
X73861422Y-103876619D01*
X73864909Y-103890693D01*
X73869227Y-103920323D01*
X73870000Y-103930994D01*
X73870000Y-104469006D01*
X73869227Y-104479674D01*
X73864996Y-104508716D01*
X73864983Y-104508737D01*
X73862781Y-104523880D01*
X73861367Y-104526424D01*
X73860100Y-104541390D01*
X73859591Y-104545808D01*
X73857409Y-104560785D01*
X73858213Y-104563597D01*
X73857020Y-104577754D01*
X73857020Y-104577761D01*
X73857795Y-104611181D01*
X73861597Y-104640057D01*
X73861599Y-104640069D01*
X73865561Y-104659986D01*
X73865565Y-104660004D01*
X73870563Y-104678656D01*
X73877095Y-104697899D01*
X73877102Y-104697918D01*
X73919591Y-104800496D01*
X73919598Y-104800512D01*
X73928588Y-104818743D01*
X73928591Y-104818748D01*
X73938250Y-104835478D01*
X73949551Y-104852391D01*
X74017150Y-104940487D01*
X74017158Y-104940497D01*
X74026220Y-104950829D01*
X74030561Y-104955779D01*
X74044220Y-104969438D01*
X74050818Y-104975225D01*
X74059501Y-104982840D01*
X74059506Y-104982843D01*
X74059512Y-104982849D01*
X74147608Y-105050448D01*
X74164521Y-105061749D01*
X74181251Y-105071408D01*
X74199494Y-105080404D01*
X74302081Y-105122897D01*
X74321341Y-105129435D01*
X74340001Y-105134435D01*
X74359951Y-105138404D01*
X74474895Y-105153537D01*
X74485023Y-105154534D01*
X74494682Y-105155167D01*
X74494691Y-105155167D01*
X74494702Y-105155168D01*
X74504838Y-105155500D01*
X74504851Y-105155500D01*
X74519386Y-105155500D01*
X74571712Y-105177174D01*
X74593386Y-105229500D01*
X74587750Y-105257825D01*
X74582612Y-105270226D01*
X74566574Y-105294227D01*
X74552975Y-105307826D01*
X74500649Y-105329500D01*
X74460135Y-105329500D01*
X74455667Y-105330018D01*
X74435017Y-105332413D01*
X74435007Y-105332414D01*
X74332233Y-105377794D01*
X74252794Y-105457233D01*
X74207413Y-105560012D01*
X74204500Y-105585135D01*
X74204500Y-107324863D01*
X74205819Y-107336241D01*
X74207413Y-107349981D01*
X74207414Y-107349991D01*
X74252794Y-107452765D01*
X74297795Y-107497766D01*
X74313837Y-107521775D01*
X74316885Y-107529134D01*
X74316883Y-107585771D01*
X74276842Y-107625815D01*
X74269483Y-107628864D01*
X74241158Y-107634500D01*
X71258842Y-107634500D01*
X71230522Y-107628866D01*
X71223159Y-107625816D01*
X71183114Y-107585766D01*
X71183114Y-107529136D01*
X71186165Y-107521769D01*
X71202211Y-107497759D01*
X71204822Y-107495149D01*
X71247206Y-107452765D01*
X71292585Y-107349991D01*
X71295500Y-107324865D01*
X71295499Y-105585136D01*
X71292585Y-105560009D01*
X71247206Y-105457235D01*
X71167765Y-105377794D01*
X71167763Y-105377793D01*
X71167760Y-105377791D01*
X71152812Y-105371190D01*
X71152586Y-105371089D01*
X71152237Y-105370718D01*
X71129442Y-105354713D01*
X71115977Y-105340610D01*
X71095500Y-105289509D01*
X71095500Y-104929217D01*
X71101129Y-104900908D01*
X71105443Y-104890493D01*
X71145482Y-104850447D01*
X71155911Y-104846127D01*
X71184219Y-104840499D01*
X71427622Y-104840499D01*
X71451498Y-104837730D01*
X71549141Y-104794616D01*
X71624616Y-104719141D01*
X71667730Y-104621498D01*
X71670500Y-104597623D01*
X71670499Y-104242378D01*
X71667730Y-104218502D01*
X71624616Y-104120859D01*
X71549141Y-104045384D01*
X71451498Y-104002270D01*
X71427623Y-103999500D01*
X71427619Y-103999500D01*
X70972378Y-103999500D01*
X70972377Y-103999500D01*
X70969245Y-103999863D01*
X70948506Y-104002268D01*
X70850857Y-104045384D01*
X70775384Y-104120857D01*
X70732270Y-104218499D01*
X70732269Y-104218501D01*
X70729500Y-104242379D01*
X70729500Y-104490867D01*
X70723867Y-104519183D01*
X70713459Y-104544313D01*
X70697418Y-104568319D01*
X70632638Y-104633099D01*
X70632634Y-104633104D01*
X70632632Y-104633108D01*
X70594500Y-104725168D01*
X70594500Y-105282948D01*
X70588867Y-105311267D01*
X70581406Y-105329279D01*
X70542931Y-105368654D01*
X70522240Y-105377790D01*
X70522236Y-105377793D01*
X70442793Y-105457235D01*
X70397413Y-105560012D01*
X70394500Y-105585135D01*
X70394500Y-107324863D01*
X70397411Y-107349968D01*
X70397413Y-107349981D01*
X70397414Y-107349986D01*
X70397415Y-107349991D01*
X70442794Y-107452765D01*
X70522235Y-107532206D01*
X70625009Y-107577585D01*
X70650135Y-107580500D01*
X71039864Y-107580499D01*
X71045981Y-107579789D01*
X71074762Y-107582121D01*
X71083695Y-107584663D01*
X71128086Y-107619834D01*
X71135369Y-107673195D01*
X71133748Y-107679912D01*
X71123344Y-107703661D01*
X71108233Y-107726277D01*
X71108233Y-107726278D01*
X71099500Y-107770180D01*
X71099500Y-107770500D01*
X71099458Y-107770600D01*
X71099143Y-107773800D01*
X71098172Y-107773704D01*
X71077826Y-107822826D01*
X71025500Y-107844500D01*
X70499998Y-107844500D01*
X70422250Y-107865332D01*
X70365333Y-107922249D01*
X70364057Y-107927011D01*
X70359196Y-107945153D01*
X70324718Y-107990086D01*
X70287718Y-108000000D01*
X58507279Y-108000000D01*
X58502438Y-107999841D01*
X58497603Y-107999524D01*
X58492785Y-107999050D01*
X58385053Y-107984866D01*
X58375562Y-107982978D01*
X58366279Y-107980491D01*
X58357110Y-107977379D01*
X58263481Y-107938596D01*
X58254801Y-107934315D01*
X58246473Y-107929507D01*
X58238423Y-107924129D01*
X58158021Y-107862434D01*
X58150744Y-107856052D01*
X58143946Y-107849254D01*
X58137564Y-107841977D01*
X58075869Y-107761575D01*
X58070493Y-107753530D01*
X58070490Y-107753524D01*
X58065677Y-107745188D01*
X58061402Y-107736517D01*
X58057161Y-107726278D01*
X58037277Y-107678273D01*
X58022621Y-107642890D01*
X58019509Y-107633724D01*
X58017018Y-107624427D01*
X58015132Y-107614952D01*
X58014853Y-107612826D01*
X58000946Y-107507185D01*
X58000475Y-107502409D01*
X58000157Y-107497544D01*
X58000000Y-107492720D01*
X58000000Y-103222377D01*
X70729500Y-103222377D01*
X70729500Y-103222380D01*
X70729500Y-103577622D01*
X70732269Y-103601495D01*
X70732269Y-103601497D01*
X70732270Y-103601498D01*
X70739567Y-103618024D01*
X70739569Y-103618030D01*
X70758962Y-103661949D01*
X70775384Y-103699141D01*
X70850859Y-103774616D01*
X70948502Y-103817730D01*
X70972377Y-103820500D01*
X71427622Y-103820499D01*
X71451498Y-103817730D01*
X71549141Y-103774616D01*
X71624616Y-103699141D01*
X71667730Y-103601498D01*
X71670500Y-103577623D01*
X71670499Y-103222378D01*
X71667730Y-103198502D01*
X71624616Y-103100859D01*
X71564579Y-103040822D01*
X71562228Y-103038360D01*
X71544932Y-103019394D01*
X71545143Y-103019087D01*
X71534102Y-103007519D01*
X71533530Y-103006892D01*
X71524174Y-102980998D01*
X71514227Y-102955308D01*
X71514310Y-102951737D01*
X71535965Y-102901136D01*
X71560489Y-102876613D01*
X71619799Y-102773886D01*
X71645367Y-102678462D01*
X71650500Y-102669573D01*
X71650500Y-102539704D01*
X71649244Y-102536007D01*
X71619800Y-102426117D01*
X71619798Y-102426112D01*
X71561595Y-102325301D01*
X71561595Y-102325300D01*
X71560491Y-102323389D01*
X71476613Y-102239511D01*
X71476607Y-102239506D01*
X71373886Y-102180200D01*
X71373877Y-102180197D01*
X71259313Y-102149500D01*
X71259311Y-102149500D01*
X71259309Y-102149500D01*
X71140691Y-102149500D01*
X71140689Y-102149500D01*
X71090168Y-102163036D01*
X71026112Y-102180200D01*
X70923393Y-102239505D01*
X70839505Y-102323393D01*
X70780200Y-102426112D01*
X70780197Y-102426121D01*
X70749500Y-102540685D01*
X70749500Y-102659313D01*
X70780197Y-102773877D01*
X70780200Y-102773886D01*
X70839507Y-102876609D01*
X70859394Y-102896496D01*
X70875433Y-102920499D01*
X70879745Y-102930907D01*
X70879749Y-102987544D01*
X70879746Y-102987551D01*
X70878212Y-102991254D01*
X70851675Y-103023977D01*
X70843580Y-103029523D01*
X70840087Y-103036154D01*
X70775384Y-103100857D01*
X70732270Y-103198499D01*
X70732269Y-103198501D01*
X70729500Y-103222377D01*
X58000000Y-103222377D01*
X58000000Y-101507278D01*
X58000158Y-101502452D01*
X58000474Y-101497617D01*
X58000946Y-101492810D01*
X58015133Y-101385048D01*
X58017020Y-101375563D01*
X58017020Y-101375562D01*
X58019509Y-101366271D01*
X58022614Y-101357122D01*
X58061406Y-101263471D01*
X58065685Y-101254796D01*
X58070491Y-101246472D01*
X58075868Y-101238424D01*
X58136079Y-101159957D01*
X58137574Y-101158008D01*
X58143942Y-101150747D01*
X58150747Y-101143942D01*
X58158008Y-101137574D01*
X58238426Y-101075866D01*
X58246472Y-101070491D01*
X58254796Y-101065685D01*
X58263471Y-101061406D01*
X58357122Y-101022614D01*
X58366271Y-101019509D01*
X58375565Y-101017019D01*
X58385048Y-101015133D01*
X58492811Y-101000946D01*
X58497618Y-101000474D01*
X58502453Y-101000158D01*
X58507279Y-101000000D01*
X74492721Y-101000000D01*
X74497543Y-101000156D01*
G37*
G04 #@! TD.AperFunction*
G04 #@! TA.AperFunction,Conductor*
G36*
X82997559Y-102500158D02*
G01*
X83002396Y-102500475D01*
X83007213Y-102500950D01*
X83015824Y-102502083D01*
X83035200Y-102504634D01*
X83055176Y-102507263D01*
X83055177Y-102507264D01*
X83078240Y-102514260D01*
X83098996Y-102524495D01*
X83118592Y-102538538D01*
X83260331Y-102680277D01*
X83324374Y-102723068D01*
X83344788Y-102743482D01*
X83357028Y-102761800D01*
X83369500Y-102802913D01*
X83369500Y-102856520D01*
X83384352Y-102950305D01*
X83389669Y-102960739D01*
X83389676Y-102960749D01*
X83400087Y-102981182D01*
X83407746Y-103007041D01*
X83410423Y-103032507D01*
X83408309Y-103059391D01*
X83402861Y-103079727D01*
X83399507Y-103092246D01*
X83399500Y-103092273D01*
X83399500Y-103092274D01*
X83399500Y-107252726D01*
X83411712Y-107298304D01*
X83411711Y-107298304D01*
X83423138Y-107340947D01*
X83426793Y-107354588D01*
X83426795Y-107354592D01*
X83461856Y-107415319D01*
X83474162Y-107436633D01*
X83478443Y-107445314D01*
X83492675Y-107479673D01*
X83497675Y-107517651D01*
X83484866Y-107614945D01*
X83482978Y-107624436D01*
X83480491Y-107633719D01*
X83477379Y-107642888D01*
X83438596Y-107736517D01*
X83434315Y-107745197D01*
X83429507Y-107753525D01*
X83424129Y-107761575D01*
X83362434Y-107841977D01*
X83356052Y-107849254D01*
X83349254Y-107856052D01*
X83341977Y-107862434D01*
X83261575Y-107924129D01*
X83253525Y-107929507D01*
X83245197Y-107934315D01*
X83236517Y-107938596D01*
X83142888Y-107977379D01*
X83133719Y-107980491D01*
X83124436Y-107982978D01*
X83114946Y-107984866D01*
X83007215Y-107999050D01*
X83002397Y-107999524D01*
X82997563Y-107999841D01*
X82992721Y-108000000D01*
X82557368Y-108000000D01*
X82505042Y-107978326D01*
X82499041Y-107971541D01*
X82481622Y-107949231D01*
X82475012Y-107941319D01*
X82471343Y-107937213D01*
X82468472Y-107933999D01*
X82461386Y-107926580D01*
X82461375Y-107926569D01*
X82454423Y-107919755D01*
X82446833Y-107912793D01*
X82446809Y-107912772D01*
X82439423Y-107906434D01*
X82437045Y-107904528D01*
X82431357Y-107899966D01*
X82390266Y-107869197D01*
X82349185Y-107838436D01*
X82340696Y-107832508D01*
X82332516Y-107827192D01*
X82329849Y-107825582D01*
X82323693Y-107821865D01*
X82315193Y-107817109D01*
X82315194Y-107817109D01*
X82315186Y-107817105D01*
X82306039Y-107812378D01*
X82297195Y-107808173D01*
X82287718Y-107804046D01*
X82224423Y-107778944D01*
X82185433Y-107763481D01*
X82183292Y-107762673D01*
X82180570Y-107761645D01*
X82175929Y-107759982D01*
X82171129Y-107758351D01*
X82166467Y-107756851D01*
X82161584Y-107755368D01*
X82156864Y-107754019D01*
X82151876Y-107752683D01*
X80822305Y-107420290D01*
X80787931Y-107400829D01*
X80776613Y-107389511D01*
X80776610Y-107389509D01*
X80776609Y-107389508D01*
X80776606Y-107389506D01*
X80692500Y-107340947D01*
X80658021Y-107296013D01*
X80655500Y-107276861D01*
X80655500Y-105718480D01*
X80658798Y-105696634D01*
X80661253Y-105688686D01*
X80669799Y-105673886D01*
X80695733Y-105577096D01*
X80696143Y-105575771D01*
X80698705Y-105572680D01*
X80700500Y-105569573D01*
X80700500Y-105439993D01*
X80699932Y-105438409D01*
X80699569Y-105437218D01*
X80669800Y-105326117D01*
X80669798Y-105326112D01*
X80661178Y-105311183D01*
X80658711Y-105303081D01*
X80659394Y-105296055D01*
X80655500Y-105281519D01*
X80655500Y-103718480D01*
X80665416Y-103681477D01*
X80669798Y-103673887D01*
X80669799Y-103673886D01*
X80695367Y-103578462D01*
X80700500Y-103569573D01*
X80700500Y-103439993D01*
X80699932Y-103438409D01*
X80699569Y-103437218D01*
X80669800Y-103326117D01*
X80669798Y-103326112D01*
X80661178Y-103311183D01*
X80658711Y-103303081D01*
X80659394Y-103296055D01*
X80655500Y-103281519D01*
X80655500Y-102712282D01*
X80650202Y-102672039D01*
X80650200Y-102672027D01*
X80640292Y-102635051D01*
X80640288Y-102635036D01*
X80633750Y-102615776D01*
X80633746Y-102615771D01*
X80630889Y-102610424D01*
X80633565Y-102608993D01*
X80621603Y-102564335D01*
X80649926Y-102515288D01*
X80694969Y-102500000D01*
X82992720Y-102500000D01*
X82997559Y-102500158D01*
G37*
G04 #@! TD.AperFunction*
M02*
