<?xml version="1.0" standalone="no"?>
 <!DOCTYPE svg PUBLIC "-//W3C//DTD SVG 1.1//EN" 
 "http://www.w3.org/Graphics/SVG/1.1/DTD/svg11.dtd"> 
<svg
  xmlns:svg="http://www.w3.org/2000/svg"
  xmlns="http://www.w3.org/2000/svg"
  xmlns:xlink="http://www.w3.org/1999/xlink"
  xmlns:inkscape="http://www.inkscape.org/namespaces/inkscape"
  version="1.1"
  width="99.3902mm" height="71.6026mm" viewBox="0.0000 0.0000 99.3902 71.6026">
<title>SVG Image created as pcb-bottom.svg date 2026-04-14T21:38:09 </title>
  <desc>Image generated by PCBNEW </desc>
<g style="fill:#000000; fill-opacity:1.0000;stroke:#000000; stroke-opacity:1.0000;
stroke-linecap:round; stroke-linejoin:round;"
 transform="translate(0 0) scale(1 1)">
</g>
<g style="fill:none; 
stroke:#C872AB; stroke-width:0.1500; stroke-opacity:1; 
stroke-linecap:round; stroke-linejoin:round;">
<path d="M-124.8000 -29.1395
L-16.8000 -29.1395
L-16.8000 2.8605
L-124.8000 2.8605
L-124.8000 -29.1395
" />
<path d="M-94.2000 -46.7598
L-14.8000 -46.7598
L-14.8000 4.8605
L-94.2000 4.8605
L-94.2000 -46.7598
" />
<path d="M-92.2000 -44.7598
L-16.8000 -44.7598
L-16.8000 2.8605
L-92.2000 2.8605
L-92.2000 -44.7598
" />
<path d="M-44.2000 -44.7598
L-44.2000 -46.7598
" />
<text x="-69.2000" y="-45.1098"
textLength="1.4281" font-size="1.7333" lengthAdjust="spacingAndGlyphs"
text-anchor="start" opacity="0" stroke-opacity="0">1</text>
<g class="stroked-text"><desc>1</desc>
<path d="M-68.1108 -45.1662
L-68.8537 -45.1662
" />
<path d="M-68.4823 -45.1662
L-68.4823 -46.4662
" />
<path d="M-68.4823 -46.4662
L-68.6061 -46.2804
" />
<path d="M-68.6061 -46.2804
L-68.7299 -46.1566
" />
<path d="M-68.7299 -46.1566
L-68.8537 -46.0947
" />
</g><text x="-19.2000" y="-45.1098"
textLength="1.4281" font-size="1.7333" lengthAdjust="spacingAndGlyphs"
text-anchor="start" opacity="0" stroke-opacity="0">2</text>
<g class="stroked-text"><desc>2</desc>
<path d="M-18.8537 -46.3423
L-18.7918 -46.4043
" />
<path d="M-18.7918 -46.4043
L-18.6680 -46.4662
" />
<path d="M-18.6680 -46.4662
L-18.3585 -46.4662
" />
<path d="M-18.3585 -46.4662
L-18.2346 -46.4043
" />
<path d="M-18.2346 -46.4043
L-18.1727 -46.3423
" />
<path d="M-18.1727 -46.3423
L-18.1108 -46.2185
" />
<path d="M-18.1108 -46.2185
L-18.1108 -46.0947
" />
<path d="M-18.1108 -46.0947
L-18.1727 -45.9090
" />
<path d="M-18.1727 -45.9090
L-18.9156 -45.1662
" />
<path d="M-18.9156 -45.1662
L-18.1108 -45.1662
" />
</g><path d="M-44.2000 2.8605
L-44.2000 4.8605
" />
<text x="-69.2000" y="4.5105"
textLength="1.4281" font-size="1.7333" lengthAdjust="spacingAndGlyphs"
text-anchor="start" opacity="0" stroke-opacity="0">1</text>
<g class="stroked-text"><desc>1</desc>
<path d="M-68.1108 4.4541
L-68.8537 4.4541
" />
<path d="M-68.4823 4.4541
L-68.4823 3.1541
" />
<path d="M-68.4823 3.1541
L-68.6061 3.3398
" />
<path d="M-68.6061 3.3398
L-68.7299 3.4636
" />
<path d="M-68.7299 3.4636
L-68.8537 3.5255
" />
</g><text x="-19.2000" y="4.5105"
textLength="1.4281" font-size="1.7333" lengthAdjust="spacingAndGlyphs"
text-anchor="start" opacity="0" stroke-opacity="0">2</text>
<g class="stroked-text"><desc>2</desc>
<path d="M-18.8537 3.2779
L-18.7918 3.2160
" />
<path d="M-18.7918 3.2160
L-18.6680 3.1541
" />
<path d="M-18.6680 3.1541
L-18.3585 3.1541
" />
<path d="M-18.3585 3.1541
L-18.2346 3.2160
" />
<path d="M-18.2346 3.2160
L-18.1727 3.2779
" />
<path d="M-18.1727 3.2779
L-18.1108 3.4017
" />
<path d="M-18.1108 3.4017
L-18.1108 3.5255
" />
<path d="M-18.1108 3.5255
L-18.1727 3.7112
" />
<path d="M-18.1727 3.7112
L-18.9156 4.4541
" />
<path d="M-18.9156 4.4541
L-18.1108 4.4541
" />
</g><path d="M-94.2000 3.2402
L-92.2000 3.2402
" />
<text x="-93.2000" y="-21.1098"
textLength="1.3043" font-size="1.7333" lengthAdjust="spacingAndGlyphs"
text-anchor="middle" opacity="0" stroke-opacity="0">A</text>
<g class="stroked-text"><desc>A</desc>
<path d="M-93.5095 -21.5376
L-92.8905 -21.5376
" />
<path d="M-93.6333 -21.1662
L-93.2000 -22.4662
" />
<path d="M-93.2000 -22.4662
L-92.7667 -21.1662
" />
</g><path d="M-14.8000 3.2402
L-16.8000 3.2402
" />
<text x="-15.8000" y="-21.1098"
textLength="1.3043" font-size="1.7333" lengthAdjust="spacingAndGlyphs"
text-anchor="middle" opacity="0" stroke-opacity="0">A</text>
<g class="stroked-text"><desc>A</desc>
<path d="M-16.1095 -21.5376
L-15.4905 -21.5376
" />
<path d="M-16.2333 -21.1662
L-15.8000 -22.4662
" />
<path d="M-15.8000 -22.4662
L-15.3667 -21.1662
" />
</g><text x="-101.8000" y="-1.2895"
textLength="22.1500" font-size="2.0000" lengthAdjust="spacingAndGlyphs"
text-anchor="start" opacity="0" stroke-opacity="0">Date: 2026-04-14</text>
<g class="stroked-text"><desc>Date: 2026-04-14</desc>
<path d="M-101.3442 -1.3534
L-101.3442 -2.8534
" />
<path d="M-101.3442 -2.8534
L-100.9870 -2.8534
" />
<path d="M-100.9870 -2.8534
L-100.7727 -2.7820
" />
<path d="M-100.7727 -2.7820
L-100.6299 -2.6391
" />
<path d="M-100.6299 -2.6391
L-100.5585 -2.4963
" />
<path d="M-100.5585 -2.4963
L-100.4870 -2.2105
" />
<path d="M-100.4870 -2.2105
L-100.4870 -1.9963
" />
<path d="M-100.4870 -1.9963
L-100.5585 -1.7105
" />
<path d="M-100.5585 -1.7105
L-100.6299 -1.5677
" />
<path d="M-100.6299 -1.5677
L-100.7727 -1.4248
" />
<path d="M-100.7727 -1.4248
L-100.9870 -1.3534
" />
<path d="M-100.9870 -1.3534
L-101.3442 -1.3534
" />
<path d="M-99.2013 -1.3534
L-99.2013 -2.1391
" />
<path d="M-99.2013 -2.1391
L-99.2727 -2.2820
" />
<path d="M-99.2727 -2.2820
L-99.4156 -2.3534
" />
<path d="M-99.4156 -2.3534
L-99.7013 -2.3534
" />
<path d="M-99.7013 -2.3534
L-99.8442 -2.2820
" />
<path d="M-99.2013 -1.4248
L-99.3442 -1.3534
" />
<path d="M-99.3442 -1.3534
L-99.7013 -1.3534
" />
<path d="M-99.7013 -1.3534
L-99.8442 -1.4248
" />
<path d="M-99.8442 -1.4248
L-99.9156 -1.5677
" />
<path d="M-99.9156 -1.5677
L-99.9156 -1.7105
" />
<path d="M-99.9156 -1.7105
L-99.8442 -1.8534
" />
<path d="M-99.8442 -1.8534
L-99.7013 -1.9248
" />
<path d="M-99.7013 -1.9248
L-99.3442 -1.9248
" />
<path d="M-99.3442 -1.9248
L-99.2013 -1.9963
" />
<path d="M-98.7013 -2.3534
L-98.1299 -2.3534
" />
<path d="M-98.4870 -2.8534
L-98.4870 -1.5677
" />
<path d="M-98.4870 -1.5677
L-98.4156 -1.4248
" />
<path d="M-98.4156 -1.4248
L-98.2727 -1.3534
" />
<path d="M-98.2727 -1.3534
L-98.1299 -1.3534
" />
<path d="M-97.0585 -1.4248
L-97.2013 -1.3534
" />
<path d="M-97.2013 -1.3534
L-97.4870 -1.3534
" />
<path d="M-97.4870 -1.3534
L-97.6299 -1.4248
" />
<path d="M-97.6299 -1.4248
L-97.7013 -1.5677
" />
<path d="M-97.7013 -1.5677
L-97.7013 -2.1391
" />
<path d="M-97.7013 -2.1391
L-97.6299 -2.2820
" />
<path d="M-97.6299 -2.2820
L-97.4870 -2.3534
" />
<path d="M-97.4870 -2.3534
L-97.2013 -2.3534
" />
<path d="M-97.2013 -2.3534
L-97.0585 -2.2820
" />
<path d="M-97.0585 -2.2820
L-96.9870 -2.1391
" />
<path d="M-96.9870 -2.1391
L-96.9870 -1.9963
" />
<path d="M-96.9870 -1.9963
L-97.7013 -1.8534
" />
<path d="M-96.3442 -1.4963
L-96.2727 -1.4248
" />
<path d="M-96.2727 -1.4248
L-96.3442 -1.3534
" />
<path d="M-96.3442 -1.3534
L-96.4156 -1.4248
" />
<path d="M-96.4156 -1.4248
L-96.3442 -1.4963
" />
<path d="M-96.3442 -1.4963
L-96.3442 -1.3534
" />
<path d="M-96.3442 -2.2820
L-96.2727 -2.2105
" />
<path d="M-96.2727 -2.2105
L-96.3442 -2.1391
" />
<path d="M-96.3442 -2.1391
L-96.4156 -2.2105
" />
<path d="M-96.4156 -2.2105
L-96.3442 -2.2820
" />
<path d="M-96.3442 -2.2820
L-96.3442 -2.1391
" />
<path d="M-94.5585 -2.7105
L-94.4870 -2.7820
" />
<path d="M-94.4870 -2.7820
L-94.3442 -2.8534
" />
<path d="M-94.3442 -2.8534
L-93.9870 -2.8534
" />
<path d="M-93.9870 -2.8534
L-93.8442 -2.7820
" />
<path d="M-93.8442 -2.7820
L-93.7727 -2.7105
" />
<path d="M-93.7727 -2.7105
L-93.7013 -2.5677
" />
<path d="M-93.7013 -2.5677
L-93.7013 -2.4248
" />
<path d="M-93.7013 -2.4248
L-93.7727 -2.2105
" />
<path d="M-93.7727 -2.2105
L-94.6299 -1.3534
" />
<path d="M-94.6299 -1.3534
L-93.7013 -1.3534
" />
<path d="M-92.7727 -2.8534
L-92.6299 -2.8534
" />
<path d="M-92.6299 -2.8534
L-92.4870 -2.7820
" />
<path d="M-92.4870 -2.7820
L-92.4156 -2.7105
" />
<path d="M-92.4156 -2.7105
L-92.3442 -2.5677
" />
<path d="M-92.3442 -2.5677
L-92.2727 -2.2820
" />
<path d="M-92.2727 -2.2820
L-92.2727 -1.9248
" />
<path d="M-92.2727 -1.9248
L-92.3442 -1.6391
" />
<path d="M-92.3442 -1.6391
L-92.4156 -1.4963
" />
<path d="M-92.4156 -1.4963
L-92.4870 -1.4248
" />
<path d="M-92.4870 -1.4248
L-92.6299 -1.3534
" />
<path d="M-92.6299 -1.3534
L-92.7727 -1.3534
" />
<path d="M-92.7727 -1.3534
L-92.9156 -1.4248
" />
<path d="M-92.9156 -1.4248
L-92.9870 -1.4963
" />
<path d="M-92.9870 -1.4963
L-93.0585 -1.6391
" />
<path d="M-93.0585 -1.6391
L-93.1299 -1.9248
" />
<path d="M-93.1299 -1.9248
L-93.1299 -2.2820
" />
<path d="M-93.1299 -2.2820
L-93.0585 -2.5677
" />
<path d="M-93.0585 -2.5677
L-92.9870 -2.7105
" />
<path d="M-92.9870 -2.7105
L-92.9156 -2.7820
" />
<path d="M-92.9156 -2.7820
L-92.7727 -2.8534
" />
<path d="M-91.7013 -2.7105
L-91.6299 -2.7820
" />
<path d="M-91.6299 -2.7820
L-91.4870 -2.8534
" />
<path d="M-91.4870 -2.8534
L-91.1299 -2.8534
" />
<path d="M-91.1299 -2.8534
L-90.9870 -2.7820
" />
<path d="M-90.9870 -2.7820
L-90.9156 -2.7105
" />
<path d="M-90.9156 -2.7105
L-90.8442 -2.5677
" />
<path d="M-90.8442 -2.5677
L-90.8442 -2.4248
" />
<path d="M-90.8442 -2.4248
L-90.9156 -2.2105
" />
<path d="M-90.9156 -2.2105
L-91.7727 -1.3534
" />
<path d="M-91.7727 -1.3534
L-90.8442 -1.3534
" />
<path d="M-89.5585 -2.8534
L-89.8442 -2.8534
" />
<path d="M-89.8442 -2.8534
L-89.9870 -2.7820
" />
<path d="M-89.9870 -2.7820
L-90.0585 -2.7105
" />
<path d="M-90.0585 -2.7105
L-90.2013 -2.4963
" />
<path d="M-90.2013 -2.4963
L-90.2727 -2.2105
" />
<path d="M-90.2727 -2.2105
L-90.2727 -1.6391
" />
<path d="M-90.2727 -1.6391
L-90.2013 -1.4963
" />
<path d="M-90.2013 -1.4963
L-90.1299 -1.4248
" />
<path d="M-90.1299 -1.4248
L-89.9870 -1.3534
" />
<path d="M-89.9870 -1.3534
L-89.7013 -1.3534
" />
<path d="M-89.7013 -1.3534
L-89.5585 -1.4248
" />
<path d="M-89.5585 -1.4248
L-89.4870 -1.4963
" />
<path d="M-89.4870 -1.4963
L-89.4156 -1.6391
" />
<path d="M-89.4156 -1.6391
L-89.4156 -1.9963
" />
<path d="M-89.4156 -1.9963
L-89.4870 -2.1391
" />
<path d="M-89.4870 -2.1391
L-89.5585 -2.2105
" />
<path d="M-89.5585 -2.2105
L-89.7013 -2.2820
" />
<path d="M-89.7013 -2.2820
L-89.9870 -2.2820
" />
<path d="M-89.9870 -2.2820
L-90.1299 -2.2105
" />
<path d="M-90.1299 -2.2105
L-90.2013 -2.1391
" />
<path d="M-90.2013 -2.1391
L-90.2727 -1.9963
" />
<path d="M-88.7727 -1.9248
L-87.6299 -1.9248
" />
<path d="M-86.6299 -2.8534
L-86.4870 -2.8534
" />
<path d="M-86.4870 -2.8534
L-86.3442 -2.7820
" />
<path d="M-86.3442 -2.7820
L-86.2727 -2.7105
" />
<path d="M-86.2727 -2.7105
L-86.2013 -2.5677
" />
<path d="M-86.2013 -2.5677
L-86.1299 -2.2820
" />
<path d="M-86.1299 -2.2820
L-86.1299 -1.9248
" />
<path d="M-86.1299 -1.9248
L-86.2013 -1.6391
" />
<path d="M-86.2013 -1.6391
L-86.2727 -1.4963
" />
<path d="M-86.2727 -1.4963
L-86.3442 -1.4248
" />
<path d="M-86.3442 -1.4248
L-86.4870 -1.3534
" />
<path d="M-86.4870 -1.3534
L-86.6299 -1.3534
" />
<path d="M-86.6299 -1.3534
L-86.7727 -1.4248
" />
<path d="M-86.7727 -1.4248
L-86.8442 -1.4963
" />
<path d="M-86.8442 -1.4963
L-86.9156 -1.6391
" />
<path d="M-86.9156 -1.6391
L-86.9870 -1.9248
" />
<path d="M-86.9870 -1.9248
L-86.9870 -2.2820
" />
<path d="M-86.9870 -2.2820
L-86.9156 -2.5677
" />
<path d="M-86.9156 -2.5677
L-86.8442 -2.7105
" />
<path d="M-86.8442 -2.7105
L-86.7727 -2.7820
" />
<path d="M-86.7727 -2.7820
L-86.6299 -2.8534
" />
<path d="M-84.8442 -2.3534
L-84.8442 -1.3534
" />
<path d="M-85.2013 -2.9248
L-85.5585 -1.8534
" />
<path d="M-85.5585 -1.8534
L-84.6299 -1.8534
" />
<path d="M-84.0585 -1.9248
L-82.9156 -1.9248
" />
<path d="M-81.4156 -1.3534
L-82.2727 -1.3534
" />
<path d="M-81.8442 -1.3534
L-81.8442 -2.8534
" />
<path d="M-81.8442 -2.8534
L-81.9870 -2.6391
" />
<path d="M-81.9870 -2.6391
L-82.1299 -2.4963
" />
<path d="M-82.1299 -2.4963
L-82.2727 -2.4248
" />
<path d="M-80.1299 -2.3534
L-80.1299 -1.3534
" />
<path d="M-80.4870 -2.9248
L-80.8442 -1.8534
" />
<path d="M-80.8442 -1.8534
L-79.9156 -1.8534
" />
</g><path d="M-124.8000 -0.6395
L-16.8000 -0.6395
" />
<text x="-123.8000" y="1.5105"
textLength="22.2929" font-size="2.0000" lengthAdjust="spacingAndGlyphs"
text-anchor="start" opacity="0" stroke-opacity="0">KiCad E.D.A. 10.0.0</text>
<g class="stroked-text"><desc>KiCad E.D.A. 10.0.0</desc>
<path d="M-123.3442 1.4466
L-123.3442 -0.0534
" />
<path d="M-122.4870 1.4466
L-123.1299 0.5895
" />
<path d="M-122.4870 -0.0534
L-123.3442 0.8037
" />
<path d="M-121.8442 1.4466
L-121.8442 0.4466
" />
<path d="M-121.8442 -0.0534
L-121.9156 0.0180
" />
<path d="M-121.9156 0.0180
L-121.8442 0.0895
" />
<path d="M-121.8442 0.0895
L-121.7727 0.0180
" />
<path d="M-121.7727 0.0180
L-121.8442 -0.0534
" />
<path d="M-121.8442 -0.0534
L-121.8442 0.0895
" />
<path d="M-120.2727 1.3037
L-120.3442 1.3752
" />
<path d="M-120.3442 1.3752
L-120.5585 1.4466
" />
<path d="M-120.5585 1.4466
L-120.7013 1.4466
" />
<path d="M-120.7013 1.4466
L-120.9156 1.3752
" />
<path d="M-120.9156 1.3752
L-121.0585 1.2323
" />
<path d="M-121.0585 1.2323
L-121.1299 1.0895
" />
<path d="M-121.1299 1.0895
L-121.2013 0.8037
" />
<path d="M-121.2013 0.8037
L-121.2013 0.5895
" />
<path d="M-121.2013 0.5895
L-121.1299 0.3037
" />
<path d="M-121.1299 0.3037
L-121.0585 0.1609
" />
<path d="M-121.0585 0.1609
L-120.9156 0.0180
" />
<path d="M-120.9156 0.0180
L-120.7013 -0.0534
" />
<path d="M-120.7013 -0.0534
L-120.5585 -0.0534
" />
<path d="M-120.5585 -0.0534
L-120.3442 0.0180
" />
<path d="M-120.3442 0.0180
L-120.2727 0.0895
" />
<path d="M-118.9870 1.4466
L-118.9870 0.6609
" />
<path d="M-118.9870 0.6609
L-119.0585 0.5180
" />
<path d="M-119.0585 0.5180
L-119.2013 0.4466
" />
<path d="M-119.2013 0.4466
L-119.4870 0.4466
" />
<path d="M-119.4870 0.4466
L-119.6299 0.5180
" />
<path d="M-118.9870 1.3752
L-119.1299 1.4466
" />
<path d="M-119.1299 1.4466
L-119.4870 1.4466
" />
<path d="M-119.4870 1.4466
L-119.6299 1.3752
" />
<path d="M-119.6299 1.3752
L-119.7013 1.2323
" />
<path d="M-119.7013 1.2323
L-119.7013 1.0895
" />
<path d="M-119.7013 1.0895
L-119.6299 0.9466
" />
<path d="M-119.6299 0.9466
L-119.4870 0.8752
" />
<path d="M-119.4870 0.8752
L-119.1299 0.8752
" />
<path d="M-119.1299 0.8752
L-118.9870 0.8037
" />
<path d="M-117.6299 1.4466
L-117.6299 -0.0534
" />
<path d="M-117.6299 1.3752
L-117.7727 1.4466
" />
<path d="M-117.7727 1.4466
L-118.0585 1.4466
" />
<path d="M-118.0585 1.4466
L-118.2013 1.3752
" />
<path d="M-118.2013 1.3752
L-118.2727 1.3037
" />
<path d="M-118.2727 1.3037
L-118.3442 1.1609
" />
<path d="M-118.3442 1.1609
L-118.3442 0.7323
" />
<path d="M-118.3442 0.7323
L-118.2727 0.5895
" />
<path d="M-118.2727 0.5895
L-118.2013 0.5180
" />
<path d="M-118.2013 0.5180
L-118.0585 0.4466
" />
<path d="M-118.0585 0.4466
L-117.7727 0.4466
" />
<path d="M-117.7727 0.4466
L-117.6299 0.5180
" />
<path d="M-115.7727 0.6609
L-115.2727 0.6609
" />
<path d="M-115.0585 1.4466
L-115.7727 1.4466
" />
<path d="M-115.7727 1.4466
L-115.7727 -0.0534
" />
<path d="M-115.7727 -0.0534
L-115.0585 -0.0534
" />
<path d="M-114.4156 1.3037
L-114.3442 1.3752
" />
<path d="M-114.3442 1.3752
L-114.4156 1.4466
" />
<path d="M-114.4156 1.4466
L-114.4870 1.3752
" />
<path d="M-114.4870 1.3752
L-114.4156 1.3037
" />
<path d="M-114.4156 1.3037
L-114.4156 1.4466
" />
<path d="M-113.7013 1.4466
L-113.7013 -0.0534
" />
<path d="M-113.7013 -0.0534
L-113.3442 -0.0534
" />
<path d="M-113.3442 -0.0534
L-113.1299 0.0180
" />
<path d="M-113.1299 0.0180
L-112.9870 0.1609
" />
<path d="M-112.9870 0.1609
L-112.9156 0.3037
" />
<path d="M-112.9156 0.3037
L-112.8442 0.5895
" />
<path d="M-112.8442 0.5895
L-112.8442 0.8037
" />
<path d="M-112.8442 0.8037
L-112.9156 1.0895
" />
<path d="M-112.9156 1.0895
L-112.9870 1.2323
" />
<path d="M-112.9870 1.2323
L-113.1299 1.3752
" />
<path d="M-113.1299 1.3752
L-113.3442 1.4466
" />
<path d="M-113.3442 1.4466
L-113.7013 1.4466
" />
<path d="M-112.2013 1.3037
L-112.1299 1.3752
" />
<path d="M-112.1299 1.3752
L-112.2013 1.4466
" />
<path d="M-112.2013 1.4466
L-112.2727 1.3752
" />
<path d="M-112.2727 1.3752
L-112.2013 1.3037
" />
<path d="M-112.2013 1.3037
L-112.2013 1.4466
" />
<path d="M-111.5585 1.0180
L-110.8442 1.0180
" />
<path d="M-111.7013 1.4466
L-111.2013 -0.0534
" />
<path d="M-111.2013 -0.0534
L-110.7013 1.4466
" />
<path d="M-110.2013 1.3037
L-110.1299 1.3752
" />
<path d="M-110.1299 1.3752
L-110.2013 1.4466
" />
<path d="M-110.2013 1.4466
L-110.2727 1.3752
" />
<path d="M-110.2727 1.3752
L-110.2013 1.3037
" />
<path d="M-110.2013 1.3037
L-110.2013 1.4466
" />
<path d="M-107.5585 1.4466
L-108.4156 1.4466
" />
<path d="M-107.9870 1.4466
L-107.9870 -0.0534
" />
<path d="M-107.9870 -0.0534
L-108.1299 0.1609
" />
<path d="M-108.1299 0.1609
L-108.2727 0.3037
" />
<path d="M-108.2727 0.3037
L-108.4156 0.3752
" />
<path d="M-106.6299 -0.0534
L-106.4870 -0.0534
" />
<path d="M-106.4870 -0.0534
L-106.3442 0.0180
" />
<path d="M-106.3442 0.0180
L-106.2727 0.0895
" />
<path d="M-106.2727 0.0895
L-106.2013 0.2323
" />
<path d="M-106.2013 0.2323
L-106.1299 0.5180
" />
<path d="M-106.1299 0.5180
L-106.1299 0.8752
" />
<path d="M-106.1299 0.8752
L-106.2013 1.1609
" />
<path d="M-106.2013 1.1609
L-106.2727 1.3037
" />
<path d="M-106.2727 1.3037
L-106.3442 1.3752
" />
<path d="M-106.3442 1.3752
L-106.4870 1.4466
" />
<path d="M-106.4870 1.4466
L-106.6299 1.4466
" />
<path d="M-106.6299 1.4466
L-106.7727 1.3752
" />
<path d="M-106.7727 1.3752
L-106.8442 1.3037
" />
<path d="M-106.8442 1.3037
L-106.9156 1.1609
" />
<path d="M-106.9156 1.1609
L-106.9870 0.8752
" />
<path d="M-106.9870 0.8752
L-106.9870 0.5180
" />
<path d="M-106.9870 0.5180
L-106.9156 0.2323
" />
<path d="M-106.9156 0.2323
L-106.8442 0.0895
" />
<path d="M-106.8442 0.0895
L-106.7727 0.0180
" />
<path d="M-106.7727 0.0180
L-106.6299 -0.0534
" />
<path d="M-105.4870 1.3037
L-105.4156 1.3752
" />
<path d="M-105.4156 1.3752
L-105.4870 1.4466
" />
<path d="M-105.4870 1.4466
L-105.5585 1.3752
" />
<path d="M-105.5585 1.3752
L-105.4870 1.3037
" />
<path d="M-105.4870 1.3037
L-105.4870 1.4466
" />
<path d="M-104.4870 -0.0534
L-104.3442 -0.0534
" />
<path d="M-104.3442 -0.0534
L-104.2013 0.0180
" />
<path d="M-104.2013 0.0180
L-104.1299 0.0895
" />
<path d="M-104.1299 0.0895
L-104.0585 0.2323
" />
<path d="M-104.0585 0.2323
L-103.9870 0.5180
" />
<path d="M-103.9870 0.5180
L-103.9870 0.8752
" />
<path d="M-103.9870 0.8752
L-104.0585 1.1609
" />
<path d="M-104.0585 1.1609
L-104.1299 1.3037
" />
<path d="M-104.1299 1.3037
L-104.2013 1.3752
" />
<path d="M-104.2013 1.3752
L-104.3442 1.4466
" />
<path d="M-104.3442 1.4466
L-104.4870 1.4466
" />
<path d="M-104.4870 1.4466
L-104.6299 1.3752
" />
<path d="M-104.6299 1.3752
L-104.7013 1.3037
" />
<path d="M-104.7013 1.3037
L-104.7727 1.1609
" />
<path d="M-104.7727 1.1609
L-104.8442 0.8752
" />
<path d="M-104.8442 0.8752
L-104.8442 0.5180
" />
<path d="M-104.8442 0.5180
L-104.7727 0.2323
" />
<path d="M-104.7727 0.2323
L-104.7013 0.0895
" />
<path d="M-104.7013 0.0895
L-104.6299 0.0180
" />
<path d="M-104.6299 0.0180
L-104.4870 -0.0534
" />
<path d="M-103.3442 1.3037
L-103.2727 1.3752
" />
<path d="M-103.2727 1.3752
L-103.3442 1.4466
" />
<path d="M-103.3442 1.4466
L-103.4156 1.3752
" />
<path d="M-103.4156 1.3752
L-103.3442 1.3037
" />
<path d="M-103.3442 1.3037
L-103.3442 1.4466
" />
<path d="M-102.3442 -0.0534
L-102.2013 -0.0534
" />
<path d="M-102.2013 -0.0534
L-102.0585 0.0180
" />
<path d="M-102.0585 0.0180
L-101.9870 0.0895
" />
<path d="M-101.9870 0.0895
L-101.9156 0.2323
" />
<path d="M-101.9156 0.2323
L-101.8442 0.5180
" />
<path d="M-101.8442 0.5180
L-101.8442 0.8752
" />
<path d="M-101.8442 0.8752
L-101.9156 1.1609
" />
<path d="M-101.9156 1.1609
L-101.9870 1.3037
" />
<path d="M-101.9870 1.3037
L-102.0585 1.3752
" />
<path d="M-102.0585 1.3752
L-102.2013 1.4466
" />
<path d="M-102.2013 1.4466
L-102.3442 1.4466
" />
<path d="M-102.3442 1.4466
L-102.4870 1.3752
" />
<path d="M-102.4870 1.3752
L-102.5585 1.3037
" />
<path d="M-102.5585 1.3037
L-102.6299 1.1609
" />
<path d="M-102.6299 1.1609
L-102.7013 0.8752
" />
<path d="M-102.7013 0.8752
L-102.7013 0.5180
" />
<path d="M-102.7013 0.5180
L-102.6299 0.2323
" />
<path d="M-102.6299 0.2323
L-102.5585 0.0895
" />
<path d="M-102.5585 0.0895
L-102.4870 0.0180
" />
<path d="M-102.4870 0.0180
L-102.3442 -0.0534
" />
</g><path d="M-124.8000 -3.6395
L-16.8000 -3.6395
" />
</g>
<g style="fill:none; 
stroke:#C872AB; stroke-width:0.3000; stroke-opacity:1; 
stroke-linecap:round; stroke-linejoin:round;">
<text x="-38.8000" y="-1.2895"
textLength="9.9571" font-size="2.0000" lengthAdjust="spacingAndGlyphs"
text-anchor="start" opacity="0" stroke-opacity="0">Rev: 0.1</text>
<g class="stroked-text"><desc>Rev: 0.1</desc>
<path d="M-37.3883 -1.3612
L-37.8883 -2.0755
" />
<path d="M-38.2455 -1.3612
L-38.2455 -2.8612
" />
<path d="M-38.2455 -2.8612
L-37.6741 -2.8612
" />
<path d="M-37.6741 -2.8612
L-37.5312 -2.7898
" />
<path d="M-37.5312 -2.7898
L-37.4598 -2.7183
" />
<path d="M-37.4598 -2.7183
L-37.3883 -2.5755
" />
<path d="M-37.3883 -2.5755
L-37.3883 -2.3612
" />
<path d="M-37.3883 -2.3612
L-37.4598 -2.2183
" />
<path d="M-37.4598 -2.2183
L-37.5312 -2.1469
" />
<path d="M-37.5312 -2.1469
L-37.6741 -2.0755
" />
<path d="M-37.6741 -2.0755
L-38.2455 -2.0755
" />
<path d="M-36.1741 -1.4326
L-36.3169 -1.3612
" />
<path d="M-36.3169 -1.3612
L-36.6026 -1.3612
" />
<path d="M-36.6026 -1.3612
L-36.7455 -1.4326
" />
<path d="M-36.7455 -1.4326
L-36.8169 -1.5755
" />
<path d="M-36.8169 -1.5755
L-36.8169 -2.1469
" />
<path d="M-36.8169 -2.1469
L-36.7455 -2.2898
" />
<path d="M-36.7455 -2.2898
L-36.6026 -2.3612
" />
<path d="M-36.6026 -2.3612
L-36.3169 -2.3612
" />
<path d="M-36.3169 -2.3612
L-36.1741 -2.2898
" />
<path d="M-36.1741 -2.2898
L-36.1026 -2.1469
" />
<path d="M-36.1026 -2.1469
L-36.1026 -2.0041
" />
<path d="M-36.1026 -2.0041
L-36.8169 -1.8612
" />
<path d="M-35.6026 -2.3612
L-35.2455 -1.3612
" />
<path d="M-35.2455 -1.3612
L-34.8883 -2.3612
" />
<path d="M-34.3169 -1.5041
L-34.2455 -1.4326
" />
<path d="M-34.2455 -1.4326
L-34.3169 -1.3612
" />
<path d="M-34.3169 -1.3612
L-34.3883 -1.4326
" />
<path d="M-34.3883 -1.4326
L-34.3169 -1.5041
" />
<path d="M-34.3169 -1.5041
L-34.3169 -1.3612
" />
<path d="M-34.3169 -2.2898
L-34.2455 -2.2183
" />
<path d="M-34.2455 -2.2183
L-34.3169 -2.1469
" />
<path d="M-34.3169 -2.1469
L-34.3883 -2.2183
" />
<path d="M-34.3883 -2.2183
L-34.3169 -2.2898
" />
<path d="M-34.3169 -2.2898
L-34.3169 -2.1469
" />
<path d="M-32.1741 -2.8612
L-32.0312 -2.8612
" />
<path d="M-32.0312 -2.8612
L-31.8883 -2.7898
" />
<path d="M-31.8883 -2.7898
L-31.8169 -2.7183
" />
<path d="M-31.8169 -2.7183
L-31.7455 -2.5755
" />
<path d="M-31.7455 -2.5755
L-31.6741 -2.2898
" />
<path d="M-31.6741 -2.2898
L-31.6741 -1.9326
" />
<path d="M-31.6741 -1.9326
L-31.7455 -1.6469
" />
<path d="M-31.7455 -1.6469
L-31.8169 -1.5041
" />
<path d="M-31.8169 -1.5041
L-31.8883 -1.4326
" />
<path d="M-31.8883 -1.4326
L-32.0312 -1.3612
" />
<path d="M-32.0312 -1.3612
L-32.1741 -1.3612
" />
<path d="M-32.1741 -1.3612
L-32.3169 -1.4326
" />
<path d="M-32.3169 -1.4326
L-32.3883 -1.5041
" />
<path d="M-32.3883 -1.5041
L-32.4598 -1.6469
" />
<path d="M-32.4598 -1.6469
L-32.5312 -1.9326
" />
<path d="M-32.5312 -1.9326
L-32.5312 -2.2898
" />
<path d="M-32.5312 -2.2898
L-32.4598 -2.5755
" />
<path d="M-32.4598 -2.5755
L-32.3883 -2.7183
" />
<path d="M-32.3883 -2.7183
L-32.3169 -2.7898
" />
<path d="M-32.3169 -2.7898
L-32.1741 -2.8612
" />
<path d="M-31.0312 -1.5041
L-30.9598 -1.4326
" />
<path d="M-30.9598 -1.4326
L-31.0312 -1.3612
" />
<path d="M-31.0312 -1.3612
L-31.1026 -1.4326
" />
<path d="M-31.1026 -1.4326
L-31.0312 -1.5041
" />
<path d="M-31.0312 -1.5041
L-31.0312 -1.3612
" />
<path d="M-29.5312 -1.3612
L-30.3883 -1.3612
" />
<path d="M-29.9598 -1.3612
L-29.9598 -2.8612
" />
<path d="M-29.9598 -2.8612
L-30.1026 -2.6469
" />
<path d="M-30.1026 -2.6469
L-30.2455 -2.5041
" />
<path d="M-30.2455 -2.5041
L-30.3883 -2.4326
" />
</g></g>
<g style="fill:none; 
stroke:#C872AB; stroke-width:0.1500; stroke-opacity:1; 
stroke-linecap:round; stroke-linejoin:round;">
<text x="-123.8000" y="-1.2895"
textLength="11.6500" font-size="2.0000" lengthAdjust="spacingAndGlyphs"
text-anchor="start" opacity="0" stroke-opacity="0">Size: User</text>
<g class="stroked-text"><desc>Size: User</desc>
<path d="M-123.4156 -1.4248
L-123.2013 -1.3534
" />
<path d="M-123.2013 -1.3534
L-122.8442 -1.3534
" />
<path d="M-122.8442 -1.3534
L-122.7013 -1.4248
" />
<path d="M-122.7013 -1.4248
L-122.6299 -1.4963
" />
<path d="M-122.6299 -1.4963
L-122.5585 -1.6391
" />
<path d="M-122.5585 -1.6391
L-122.5585 -1.7820
" />
<path d="M-122.5585 -1.7820
L-122.6299 -1.9248
" />
<path d="M-122.6299 -1.9248
L-122.7013 -1.9963
" />
<path d="M-122.7013 -1.9963
L-122.8442 -2.0677
" />
<path d="M-122.8442 -2.0677
L-123.1299 -2.1391
" />
<path d="M-123.1299 -2.1391
L-123.2727 -2.2105
" />
<path d="M-123.2727 -2.2105
L-123.3442 -2.2820
" />
<path d="M-123.3442 -2.2820
L-123.4156 -2.4248
" />
<path d="M-123.4156 -2.4248
L-123.4156 -2.5677
" />
<path d="M-123.4156 -2.5677
L-123.3442 -2.7105
" />
<path d="M-123.3442 -2.7105
L-123.2727 -2.7820
" />
<path d="M-123.2727 -2.7820
L-123.1299 -2.8534
" />
<path d="M-123.1299 -2.8534
L-122.7727 -2.8534
" />
<path d="M-122.7727 -2.8534
L-122.5585 -2.7820
" />
<path d="M-121.9156 -1.3534
L-121.9156 -2.3534
" />
<path d="M-121.9156 -2.8534
L-121.9870 -2.7820
" />
<path d="M-121.9870 -2.7820
L-121.9156 -2.7105
" />
<path d="M-121.9156 -2.7105
L-121.8442 -2.7820
" />
<path d="M-121.8442 -2.7820
L-121.9156 -2.8534
" />
<path d="M-121.9156 -2.8534
L-121.9156 -2.7105
" />
<path d="M-121.3442 -2.3534
L-120.5585 -2.3534
" />
<path d="M-120.5585 -2.3534
L-121.3442 -1.3534
" />
<path d="M-121.3442 -1.3534
L-120.5585 -1.3534
" />
<path d="M-119.4156 -1.4248
L-119.5585 -1.3534
" />
<path d="M-119.5585 -1.3534
L-119.8442 -1.3534
" />
<path d="M-119.8442 -1.3534
L-119.9870 -1.4248
" />
<path d="M-119.9870 -1.4248
L-120.0585 -1.5677
" />
<path d="M-120.0585 -1.5677
L-120.0585 -2.1391
" />
<path d="M-120.0585 -2.1391
L-119.9870 -2.2820
" />
<path d="M-119.9870 -2.2820
L-119.8442 -2.3534
" />
<path d="M-119.8442 -2.3534
L-119.5585 -2.3534
" />
<path d="M-119.5585 -2.3534
L-119.4156 -2.2820
" />
<path d="M-119.4156 -2.2820
L-119.3442 -2.1391
" />
<path d="M-119.3442 -2.1391
L-119.3442 -1.9963
" />
<path d="M-119.3442 -1.9963
L-120.0585 -1.8534
" />
<path d="M-118.7013 -1.4963
L-118.6299 -1.4248
" />
<path d="M-118.6299 -1.4248
L-118.7013 -1.3534
" />
<path d="M-118.7013 -1.3534
L-118.7727 -1.4248
" />
<path d="M-118.7727 -1.4248
L-118.7013 -1.4963
" />
<path d="M-118.7013 -1.4963
L-118.7013 -1.3534
" />
<path d="M-118.7013 -2.2820
L-118.6299 -2.2105
" />
<path d="M-118.6299 -2.2105
L-118.7013 -2.1391
" />
<path d="M-118.7013 -2.1391
L-118.7727 -2.2105
" />
<path d="M-118.7727 -2.2105
L-118.7013 -2.2820
" />
<path d="M-118.7013 -2.2820
L-118.7013 -2.1391
" />
<path d="M-116.8442 -2.8534
L-116.8442 -1.6391
" />
<path d="M-116.8442 -1.6391
L-116.7727 -1.4963
" />
<path d="M-116.7727 -1.4963
L-116.7013 -1.4248
" />
<path d="M-116.7013 -1.4248
L-116.5585 -1.3534
" />
<path d="M-116.5585 -1.3534
L-116.2727 -1.3534
" />
<path d="M-116.2727 -1.3534
L-116.1299 -1.4248
" />
<path d="M-116.1299 -1.4248
L-116.0585 -1.4963
" />
<path d="M-116.0585 -1.4963
L-115.9870 -1.6391
" />
<path d="M-115.9870 -1.6391
L-115.9870 -2.8534
" />
<path d="M-115.3442 -1.4248
L-115.2013 -1.3534
" />
<path d="M-115.2013 -1.3534
L-114.9156 -1.3534
" />
<path d="M-114.9156 -1.3534
L-114.7727 -1.4248
" />
<path d="M-114.7727 -1.4248
L-114.7013 -1.5677
" />
<path d="M-114.7013 -1.5677
L-114.7013 -1.6391
" />
<path d="M-114.7013 -1.6391
L-114.7727 -1.7820
" />
<path d="M-114.7727 -1.7820
L-114.9156 -1.8534
" />
<path d="M-114.9156 -1.8534
L-115.1299 -1.8534
" />
<path d="M-115.1299 -1.8534
L-115.2727 -1.9248
" />
<path d="M-115.2727 -1.9248
L-115.3442 -2.0677
" />
<path d="M-115.3442 -2.0677
L-115.3442 -2.1391
" />
<path d="M-115.3442 -2.1391
L-115.2727 -2.2820
" />
<path d="M-115.2727 -2.2820
L-115.1299 -2.3534
" />
<path d="M-115.1299 -2.3534
L-114.9156 -2.3534
" />
<path d="M-114.9156 -2.3534
L-114.7727 -2.2820
" />
<path d="M-113.4870 -1.4248
L-113.6299 -1.3534
" />
<path d="M-113.6299 -1.3534
L-113.9156 -1.3534
" />
<path d="M-113.9156 -1.3534
L-114.0585 -1.4248
" />
<path d="M-114.0585 -1.4248
L-114.1299 -1.5677
" />
<path d="M-114.1299 -1.5677
L-114.1299 -2.1391
" />
<path d="M-114.1299 -2.1391
L-114.0585 -2.2820
" />
<path d="M-114.0585 -2.2820
L-113.9156 -2.3534
" />
<path d="M-113.9156 -2.3534
L-113.6299 -2.3534
" />
<path d="M-113.6299 -2.3534
L-113.4870 -2.2820
" />
<path d="M-113.4870 -2.2820
L-113.4156 -2.1391
" />
<path d="M-113.4156 -2.1391
L-113.4156 -1.9963
" />
<path d="M-113.4156 -1.9963
L-114.1299 -1.8534
" />
<path d="M-112.7727 -1.3534
L-112.7727 -2.3534
" />
<path d="M-112.7727 -2.0677
L-112.7013 -2.2105
" />
<path d="M-112.7013 -2.2105
L-112.6299 -2.2820
" />
<path d="M-112.6299 -2.2820
L-112.4870 -2.3534
" />
<path d="M-112.4870 -2.3534
L-112.3442 -2.3534
" />
</g><text x="-38.8000" y="1.5105"
textLength="8.5071" font-size="2.0000" lengthAdjust="spacingAndGlyphs"
text-anchor="start" opacity="0" stroke-opacity="0">Id: 1/1</text>
<g class="stroked-text"><desc>Id: 1/1</desc>
<path d="M-38.3442 1.4466
L-38.3442 -0.0534
" />
<path d="M-36.9870 1.4466
L-36.9870 -0.0534
" />
<path d="M-36.9870 1.3752
L-37.1299 1.4466
" />
<path d="M-37.1299 1.4466
L-37.4156 1.4466
" />
<path d="M-37.4156 1.4466
L-37.5585 1.3752
" />
<path d="M-37.5585 1.3752
L-37.6299 1.3037
" />
<path d="M-37.6299 1.3037
L-37.7013 1.1609
" />
<path d="M-37.7013 1.1609
L-37.7013 0.7323
" />
<path d="M-37.7013 0.7323
L-37.6299 0.5895
" />
<path d="M-37.6299 0.5895
L-37.5585 0.5180
" />
<path d="M-37.5585 0.5180
L-37.4156 0.4466
" />
<path d="M-37.4156 0.4466
L-37.1299 0.4466
" />
<path d="M-37.1299 0.4466
L-36.9870 0.5180
" />
<path d="M-36.2727 1.3037
L-36.2013 1.3752
" />
<path d="M-36.2013 1.3752
L-36.2727 1.4466
" />
<path d="M-36.2727 1.4466
L-36.3442 1.3752
" />
<path d="M-36.3442 1.3752
L-36.2727 1.3037
" />
<path d="M-36.2727 1.3037
L-36.2727 1.4466
" />
<path d="M-36.2727 0.5180
L-36.2013 0.5895
" />
<path d="M-36.2013 0.5895
L-36.2727 0.6609
" />
<path d="M-36.2727 0.6609
L-36.3442 0.5895
" />
<path d="M-36.3442 0.5895
L-36.2727 0.5180
" />
<path d="M-36.2727 0.5180
L-36.2727 0.6609
" />
<path d="M-33.6299 1.4466
L-34.4870 1.4466
" />
<path d="M-34.0585 1.4466
L-34.0585 -0.0534
" />
<path d="M-34.0585 -0.0534
L-34.2013 0.1609
" />
<path d="M-34.2013 0.1609
L-34.3442 0.3037
" />
<path d="M-34.3442 0.3037
L-34.4870 0.3752
" />
<path d="M-31.9156 -0.1248
L-33.2013 1.8037
" />
<path d="M-30.6299 1.4466
L-31.4870 1.4466
" />
<path d="M-31.0585 1.4466
L-31.0585 -0.0534
" />
<path d="M-31.0585 -0.0534
L-31.2013 0.1609
" />
<path d="M-31.2013 0.1609
L-31.3442 0.3037
" />
<path d="M-31.3442 0.3037
L-31.4870 0.3752
" />
</g><path d="M-124.8000 -7.6395
L-16.8000 -7.6395
" />
</g>
<g style="fill:none; 
stroke:#C872AB; stroke-width:0.4000; stroke-opacity:1; 
stroke-linecap:round; stroke-linejoin:round;">
<text x="-123.8000" y="-4.8395"
textLength="60.7048" font-size="2.6667" lengthAdjust="spacingAndGlyphs"
text-anchor="start" opacity="0" stroke-opacity="0">Title: Tsumikoro TMC2130 Dual Stepper</text>
<g class="stroked-text"><desc>Title: Tsumikoro TMC2130 Dual Stepper</desc>
<path d="M-123.1083 -6.9351
L-121.9654 -6.9351
" />
<path d="M-122.7868 -4.9351
L-122.5368 -6.9351
" />
<path d="M-121.5487 -4.9351
L-121.3821 -6.2684
" />
<path d="M-121.2987 -6.9351
L-121.4059 -6.8398
" />
<path d="M-121.4059 -6.8398
L-121.3226 -6.7446
" />
<path d="M-121.3226 -6.7446
L-121.2154 -6.8398
" />
<path d="M-121.2154 -6.8398
L-121.2987 -6.9351
" />
<path d="M-121.2987 -6.9351
L-121.3226 -6.7446
" />
<path d="M-120.7154 -6.2684
L-119.9535 -6.2684
" />
<path d="M-120.3464 -6.9351
L-120.5607 -5.2208
" />
<path d="M-120.5607 -5.2208
L-120.4892 -5.0303
" />
<path d="M-120.4892 -5.0303
L-120.3107 -4.9351
" />
<path d="M-120.3107 -4.9351
L-120.1202 -4.9351
" />
<path d="M-119.1678 -4.9351
L-119.3464 -5.0303
" />
<path d="M-119.3464 -5.0303
L-119.4178 -5.2208
" />
<path d="M-119.4178 -5.2208
L-119.2035 -6.9351
" />
<path d="M-117.6321 -5.0303
L-117.8345 -4.9351
" />
<path d="M-117.8345 -4.9351
L-118.2154 -4.9351
" />
<path d="M-118.2154 -4.9351
L-118.3940 -5.0303
" />
<path d="M-118.3940 -5.0303
L-118.4654 -5.2208
" />
<path d="M-118.4654 -5.2208
L-118.3702 -5.9827
" />
<path d="M-118.3702 -5.9827
L-118.2511 -6.1732
" />
<path d="M-118.2511 -6.1732
L-118.0487 -6.2684
" />
<path d="M-118.0487 -6.2684
L-117.6678 -6.2684
" />
<path d="M-117.6678 -6.2684
L-117.4892 -6.1732
" />
<path d="M-117.4892 -6.1732
L-117.4178 -5.9827
" />
<path d="M-117.4178 -5.9827
L-117.4416 -5.7922
" />
<path d="M-117.4416 -5.7922
L-118.4178 -5.6018
" />
<path d="M-116.6678 -5.1256
L-116.5845 -5.0303
" />
<path d="M-116.5845 -5.0303
L-116.6916 -4.9351
" />
<path d="M-116.6916 -4.9351
L-116.7749 -5.0303
" />
<path d="M-116.7749 -5.0303
L-116.6678 -5.1256
" />
<path d="M-116.6678 -5.1256
L-116.6916 -4.9351
" />
<path d="M-116.5368 -6.1732
L-116.4535 -6.0779
" />
<path d="M-116.4535 -6.0779
L-116.5607 -5.9827
" />
<path d="M-116.5607 -5.9827
L-116.6440 -6.0779
" />
<path d="M-116.6440 -6.0779
L-116.5368 -6.1732
" />
<path d="M-116.5368 -6.1732
L-116.5607 -5.9827
" />
<path d="M-114.2511 -6.9351
L-113.1083 -6.9351
" />
<path d="M-113.9297 -4.9351
L-113.6797 -6.9351
" />
<path d="M-112.7749 -5.0303
L-112.5964 -4.9351
" />
<path d="M-112.5964 -4.9351
L-112.2154 -4.9351
" />
<path d="M-112.2154 -4.9351
L-112.0130 -5.0303
" />
<path d="M-112.0130 -5.0303
L-111.8940 -5.2208
" />
<path d="M-111.8940 -5.2208
L-111.8821 -5.3160
" />
<path d="M-111.8821 -5.3160
L-111.9535 -5.5065
" />
<path d="M-111.9535 -5.5065
L-112.1321 -5.6018
" />
<path d="M-112.1321 -5.6018
L-112.4178 -5.6018
" />
<path d="M-112.4178 -5.6018
L-112.5964 -5.6970
" />
<path d="M-112.5964 -5.6970
L-112.6678 -5.8875
" />
<path d="M-112.6678 -5.8875
L-112.6559 -5.9827
" />
<path d="M-112.6559 -5.9827
L-112.5368 -6.1732
" />
<path d="M-112.5368 -6.1732
L-112.3345 -6.2684
" />
<path d="M-112.3345 -6.2684
L-112.0487 -6.2684
" />
<path d="M-112.0487 -6.2684
L-111.8702 -6.1732
" />
<path d="M-110.0487 -6.2684
L-110.2154 -4.9351
" />
<path d="M-110.9059 -6.2684
L-111.0368 -5.2208
" />
<path d="M-111.0368 -5.2208
L-110.9654 -5.0303
" />
<path d="M-110.9654 -5.0303
L-110.7868 -4.9351
" />
<path d="M-110.7868 -4.9351
L-110.5011 -4.9351
" />
<path d="M-110.5011 -4.9351
L-110.2987 -5.0303
" />
<path d="M-110.2987 -5.0303
L-110.1916 -5.1256
" />
<path d="M-109.2630 -4.9351
L-109.0964 -6.2684
" />
<path d="M-109.1202 -6.0779
L-109.0130 -6.1732
" />
<path d="M-109.0130 -6.1732
L-108.8106 -6.2684
" />
<path d="M-108.8106 -6.2684
L-108.5249 -6.2684
" />
<path d="M-108.5249 -6.2684
L-108.3464 -6.1732
" />
<path d="M-108.3464 -6.1732
L-108.2749 -5.9827
" />
<path d="M-108.2749 -5.9827
L-108.4059 -4.9351
" />
<path d="M-108.2749 -5.9827
L-108.1559 -6.1732
" />
<path d="M-108.1559 -6.1732
L-107.9535 -6.2684
" />
<path d="M-107.9535 -6.2684
L-107.6678 -6.2684
" />
<path d="M-107.6678 -6.2684
L-107.4892 -6.1732
" />
<path d="M-107.4892 -6.1732
L-107.4178 -5.9827
" />
<path d="M-107.4178 -5.9827
L-107.5487 -4.9351
" />
<path d="M-106.5964 -4.9351
L-106.4297 -6.2684
" />
<path d="M-106.3464 -6.9351
L-106.4535 -6.8398
" />
<path d="M-106.4535 -6.8398
L-106.3702 -6.7446
" />
<path d="M-106.3702 -6.7446
L-106.2630 -6.8398
" />
<path d="M-106.2630 -6.8398
L-106.3464 -6.9351
" />
<path d="M-106.3464 -6.9351
L-106.3702 -6.7446
" />
<path d="M-105.6440 -4.9351
L-105.3940 -6.9351
" />
<path d="M-105.3583 -5.6970
L-104.8821 -4.9351
" />
<path d="M-104.7154 -6.2684
L-105.5726 -5.5065
" />
<path d="M-103.7392 -4.9351
L-103.9178 -5.0303
" />
<path d="M-103.9178 -5.0303
L-104.0011 -5.1256
" />
<path d="M-104.0011 -5.1256
L-104.0726 -5.3160
" />
<path d="M-104.0726 -5.3160
L-104.0011 -5.8875
" />
<path d="M-104.0011 -5.8875
L-103.8821 -6.0779
" />
<path d="M-103.8821 -6.0779
L-103.7749 -6.1732
" />
<path d="M-103.7749 -6.1732
L-103.5726 -6.2684
" />
<path d="M-103.5726 -6.2684
L-103.2868 -6.2684
" />
<path d="M-103.2868 -6.2684
L-103.1083 -6.1732
" />
<path d="M-103.1083 -6.1732
L-103.0249 -6.0779
" />
<path d="M-103.0249 -6.0779
L-102.9535 -5.8875
" />
<path d="M-102.9535 -5.8875
L-103.0249 -5.3160
" />
<path d="M-103.0249 -5.3160
L-103.1440 -5.1256
" />
<path d="M-103.1440 -5.1256
L-103.2511 -5.0303
" />
<path d="M-103.2511 -5.0303
L-103.4535 -4.9351
" />
<path d="M-103.4535 -4.9351
L-103.7392 -4.9351
" />
<path d="M-102.2154 -4.9351
L-102.0487 -6.2684
" />
<path d="M-102.0964 -5.8875
L-101.9773 -6.0779
" />
<path d="M-101.9773 -6.0779
L-101.8702 -6.1732
" />
<path d="M-101.8702 -6.1732
L-101.6678 -6.2684
" />
<path d="M-101.6678 -6.2684
L-101.4773 -6.2684
" />
<path d="M-100.6916 -4.9351
L-100.8702 -5.0303
" />
<path d="M-100.8702 -5.0303
L-100.9535 -5.1256
" />
<path d="M-100.9535 -5.1256
L-101.0249 -5.3160
" />
<path d="M-101.0249 -5.3160
L-100.9535 -5.8875
" />
<path d="M-100.9535 -5.8875
L-100.8345 -6.0779
" />
<path d="M-100.8345 -6.0779
L-100.7273 -6.1732
" />
<path d="M-100.7273 -6.1732
L-100.5249 -6.2684
" />
<path d="M-100.5249 -6.2684
L-100.2392 -6.2684
" />
<path d="M-100.2392 -6.2684
L-100.0606 -6.1732
" />
<path d="M-100.0606 -6.1732
L-99.9773 -6.0779
" />
<path d="M-99.9773 -6.0779
L-99.9059 -5.8875
" />
<path d="M-99.9059 -5.8875
L-99.9773 -5.3160
" />
<path d="M-99.9773 -5.3160
L-100.0964 -5.1256
" />
<path d="M-100.0964 -5.1256
L-100.2035 -5.0303
" />
<path d="M-100.2035 -5.0303
L-100.4059 -4.9351
" />
<path d="M-100.4059 -4.9351
L-100.6916 -4.9351
" />
<path d="M-97.6797 -6.9351
L-96.5368 -6.9351
" />
<path d="M-97.3583 -4.9351
L-97.1083 -6.9351
" />
<path d="M-96.1202 -4.9351
L-95.8702 -6.9351
" />
<path d="M-95.8702 -6.9351
L-95.3821 -5.5065
" />
<path d="M-95.3821 -5.5065
L-94.5368 -6.9351
" />
<path d="M-94.5368 -6.9351
L-94.7868 -4.9351
" />
<path d="M-92.6678 -5.1256
L-92.7749 -5.0303
" />
<path d="M-92.7749 -5.0303
L-93.0726 -4.9351
" />
<path d="M-93.0726 -4.9351
L-93.2630 -4.9351
" />
<path d="M-93.2630 -4.9351
L-93.5368 -5.0303
" />
<path d="M-93.5368 -5.0303
L-93.7035 -5.2208
" />
<path d="M-93.7035 -5.2208
L-93.7749 -5.4113
" />
<path d="M-93.7749 -5.4113
L-93.8226 -5.7922
" />
<path d="M-93.8226 -5.7922
L-93.7868 -6.0779
" />
<path d="M-93.7868 -6.0779
L-93.6440 -6.4589
" />
<path d="M-93.6440 -6.4589
L-93.5249 -6.6494
" />
<path d="M-93.5249 -6.6494
L-93.3106 -6.8398
" />
<path d="M-93.3106 -6.8398
L-93.0130 -6.9351
" />
<path d="M-93.0130 -6.9351
L-92.8226 -6.9351
" />
<path d="M-92.8226 -6.9351
L-92.5487 -6.8398
" />
<path d="M-92.5487 -6.8398
L-92.4654 -6.7446
" />
<path d="M-91.7035 -6.7446
L-91.5964 -6.8398
" />
<path d="M-91.5964 -6.8398
L-91.3940 -6.9351
" />
<path d="M-91.3940 -6.9351
L-90.9178 -6.9351
" />
<path d="M-90.9178 -6.9351
L-90.7392 -6.8398
" />
<path d="M-90.7392 -6.8398
L-90.6559 -6.7446
" />
<path d="M-90.6559 -6.7446
L-90.5845 -6.5541
" />
<path d="M-90.5845 -6.5541
L-90.6083 -6.3637
" />
<path d="M-90.6083 -6.3637
L-90.7392 -6.0779
" />
<path d="M-90.7392 -6.0779
L-92.0249 -4.9351
" />
<path d="M-92.0249 -4.9351
L-90.7868 -4.9351
" />
<path d="M-88.8821 -4.9351
L-90.0249 -4.9351
" />
<path d="M-89.4535 -4.9351
L-89.2035 -6.9351
" />
<path d="M-89.2035 -6.9351
L-89.4297 -6.6494
" />
<path d="M-89.4297 -6.6494
L-89.6440 -6.4589
" />
<path d="M-89.6440 -6.4589
L-89.8464 -6.3637
" />
<path d="M-87.9654 -6.9351
L-86.7273 -6.9351
" />
<path d="M-86.7273 -6.9351
L-87.4892 -6.1732
" />
<path d="M-87.4892 -6.1732
L-87.2035 -6.1732
" />
<path d="M-87.2035 -6.1732
L-87.0249 -6.0779
" />
<path d="M-87.0249 -6.0779
L-86.9416 -5.9827
" />
<path d="M-86.9416 -5.9827
L-86.8702 -5.7922
" />
<path d="M-86.8702 -5.7922
L-86.9297 -5.3160
" />
<path d="M-86.9297 -5.3160
L-87.0487 -5.1256
" />
<path d="M-87.0487 -5.1256
L-87.1559 -5.0303
" />
<path d="M-87.1559 -5.0303
L-87.3583 -4.9351
" />
<path d="M-87.3583 -4.9351
L-87.9297 -4.9351
" />
<path d="M-87.9297 -4.9351
L-88.1083 -5.0303
" />
<path d="M-88.1083 -5.0303
L-88.1916 -5.1256
" />
<path d="M-85.4892 -6.9351
L-85.2987 -6.9351
" />
<path d="M-85.2987 -6.9351
L-85.1202 -6.8398
" />
<path d="M-85.1202 -6.8398
L-85.0368 -6.7446
" />
<path d="M-85.0368 -6.7446
L-84.9654 -6.5541
" />
<path d="M-84.9654 -6.5541
L-84.9178 -6.1732
" />
<path d="M-84.9178 -6.1732
L-84.9773 -5.6970
" />
<path d="M-84.9773 -5.6970
L-85.1202 -5.3160
" />
<path d="M-85.1202 -5.3160
L-85.2392 -5.1256
" />
<path d="M-85.2392 -5.1256
L-85.3464 -5.0303
" />
<path d="M-85.3464 -5.0303
L-85.5487 -4.9351
" />
<path d="M-85.5487 -4.9351
L-85.7392 -4.9351
" />
<path d="M-85.7392 -4.9351
L-85.9178 -5.0303
" />
<path d="M-85.9178 -5.0303
L-86.0011 -5.1256
" />
<path d="M-86.0011 -5.1256
L-86.0726 -5.3160
" />
<path d="M-86.0726 -5.3160
L-86.1202 -5.6970
" />
<path d="M-86.1202 -5.6970
L-86.0606 -6.1732
" />
<path d="M-86.0606 -6.1732
L-85.9178 -6.5541
" />
<path d="M-85.9178 -6.5541
L-85.7987 -6.7446
" />
<path d="M-85.7987 -6.7446
L-85.6916 -6.8398
" />
<path d="M-85.6916 -6.8398
L-85.4892 -6.9351
" />
<path d="M-82.6916 -4.9351
L-82.4416 -6.9351
" />
<path d="M-82.4416 -6.9351
L-81.9654 -6.9351
" />
<path d="M-81.9654 -6.9351
L-81.6916 -6.8398
" />
<path d="M-81.6916 -6.8398
L-81.5249 -6.6494
" />
<path d="M-81.5249 -6.6494
L-81.4535 -6.4589
" />
<path d="M-81.4535 -6.4589
L-81.4059 -6.0779
" />
<path d="M-81.4059 -6.0779
L-81.4416 -5.7922
" />
<path d="M-81.4416 -5.7922
L-81.5845 -5.4113
" />
<path d="M-81.5845 -5.4113
L-81.7035 -5.2208
" />
<path d="M-81.7035 -5.2208
L-81.9178 -5.0303
" />
<path d="M-81.9178 -5.0303
L-82.2154 -4.9351
" />
<path d="M-82.2154 -4.9351
L-82.6916 -4.9351
" />
<path d="M-79.6678 -6.2684
L-79.8345 -4.9351
" />
<path d="M-80.5249 -6.2684
L-80.6559 -5.2208
" />
<path d="M-80.6559 -5.2208
L-80.5845 -5.0303
" />
<path d="M-80.5845 -5.0303
L-80.4059 -4.9351
" />
<path d="M-80.4059 -4.9351
L-80.1202 -4.9351
" />
<path d="M-80.1202 -4.9351
L-79.9178 -5.0303
" />
<path d="M-79.9178 -5.0303
L-79.8106 -5.1256
" />
<path d="M-78.0249 -4.9351
L-77.8940 -5.9827
" />
<path d="M-77.8940 -5.9827
L-77.9654 -6.1732
" />
<path d="M-77.9654 -6.1732
L-78.1440 -6.2684
" />
<path d="M-78.1440 -6.2684
L-78.5249 -6.2684
" />
<path d="M-78.5249 -6.2684
L-78.7273 -6.1732
" />
<path d="M-78.0130 -5.0303
L-78.2154 -4.9351
" />
<path d="M-78.2154 -4.9351
L-78.6916 -4.9351
" />
<path d="M-78.6916 -4.9351
L-78.8702 -5.0303
" />
<path d="M-78.8702 -5.0303
L-78.9416 -5.2208
" />
<path d="M-78.9416 -5.2208
L-78.9178 -5.4113
" />
<path d="M-78.9178 -5.4113
L-78.7987 -5.6018
" />
<path d="M-78.7987 -5.6018
L-78.5964 -5.6970
" />
<path d="M-78.5964 -5.6970
L-78.1202 -5.6970
" />
<path d="M-78.1202 -5.6970
L-77.9178 -5.7922
" />
<path d="M-76.7868 -4.9351
L-76.9654 -5.0303
" />
<path d="M-76.9654 -5.0303
L-77.0368 -5.2208
" />
<path d="M-77.0368 -5.2208
L-76.8226 -6.9351
" />
<path d="M-74.5845 -5.0303
L-74.3106 -4.9351
" />
<path d="M-74.3106 -4.9351
L-73.8345 -4.9351
" />
<path d="M-73.8345 -4.9351
L-73.6321 -5.0303
" />
<path d="M-73.6321 -5.0303
L-73.5249 -5.1256
" />
<path d="M-73.5249 -5.1256
L-73.4059 -5.3160
" />
<path d="M-73.4059 -5.3160
L-73.3821 -5.5065
" />
<path d="M-73.3821 -5.5065
L-73.4535 -5.6970
" />
<path d="M-73.4535 -5.6970
L-73.5368 -5.7922
" />
<path d="M-73.5368 -5.7922
L-73.7154 -5.8875
" />
<path d="M-73.7154 -5.8875
L-74.0845 -5.9827
" />
<path d="M-74.0845 -5.9827
L-74.2630 -6.0779
" />
<path d="M-74.2630 -6.0779
L-74.3464 -6.1732
" />
<path d="M-74.3464 -6.1732
L-74.4178 -6.3637
" />
<path d="M-74.4178 -6.3637
L-74.3940 -6.5541
" />
<path d="M-74.3940 -6.5541
L-74.2749 -6.7446
" />
<path d="M-74.2749 -6.7446
L-74.1678 -6.8398
" />
<path d="M-74.1678 -6.8398
L-73.9654 -6.9351
" />
<path d="M-73.9654 -6.9351
L-73.4892 -6.9351
" />
<path d="M-73.4892 -6.9351
L-73.2154 -6.8398
" />
<path d="M-72.7154 -6.2684
L-71.9535 -6.2684
" />
<path d="M-72.3464 -6.9351
L-72.5606 -5.2208
" />
<path d="M-72.5606 -5.2208
L-72.4892 -5.0303
" />
<path d="M-72.4892 -5.0303
L-72.3106 -4.9351
" />
<path d="M-72.3106 -4.9351
L-72.1202 -4.9351
" />
<path d="M-70.6797 -5.0303
L-70.8821 -4.9351
" />
<path d="M-70.8821 -4.9351
L-71.2630 -4.9351
" />
<path d="M-71.2630 -4.9351
L-71.4416 -5.0303
" />
<path d="M-71.4416 -5.0303
L-71.5130 -5.2208
" />
<path d="M-71.5130 -5.2208
L-71.4178 -5.9827
" />
<path d="M-71.4178 -5.9827
L-71.2987 -6.1732
" />
<path d="M-71.2987 -6.1732
L-71.0964 -6.2684
" />
<path d="M-71.0964 -6.2684
L-70.7154 -6.2684
" />
<path d="M-70.7154 -6.2684
L-70.5368 -6.1732
" />
<path d="M-70.5368 -6.1732
L-70.4654 -5.9827
" />
<path d="M-70.4654 -5.9827
L-70.4892 -5.7922
" />
<path d="M-70.4892 -5.7922
L-71.4654 -5.6018
" />
<path d="M-69.5726 -6.2684
L-69.8226 -4.2684
" />
<path d="M-69.5845 -6.1732
L-69.3821 -6.2684
" />
<path d="M-69.3821 -6.2684
L-69.0011 -6.2684
" />
<path d="M-69.0011 -6.2684
L-68.8226 -6.1732
" />
<path d="M-68.8226 -6.1732
L-68.7392 -6.0779
" />
<path d="M-68.7392 -6.0779
L-68.6678 -5.8875
" />
<path d="M-68.6678 -5.8875
L-68.7392 -5.3160
" />
<path d="M-68.7392 -5.3160
L-68.8583 -5.1256
" />
<path d="M-68.8583 -5.1256
L-68.9654 -5.0303
" />
<path d="M-68.9654 -5.0303
L-69.1678 -4.9351
" />
<path d="M-69.1678 -4.9351
L-69.5487 -4.9351
" />
<path d="M-69.5487 -4.9351
L-69.7273 -5.0303
" />
<path d="M-67.7630 -6.2684
L-68.0130 -4.2684
" />
<path d="M-67.7749 -6.1732
L-67.5726 -6.2684
" />
<path d="M-67.5726 -6.2684
L-67.1916 -6.2684
" />
<path d="M-67.1916 -6.2684
L-67.0130 -6.1732
" />
<path d="M-67.0130 -6.1732
L-66.9297 -6.0779
" />
<path d="M-66.9297 -6.0779
L-66.8583 -5.8875
" />
<path d="M-66.8583 -5.8875
L-66.9297 -5.3160
" />
<path d="M-66.9297 -5.3160
L-67.0487 -5.1256
" />
<path d="M-67.0487 -5.1256
L-67.1559 -5.0303
" />
<path d="M-67.1559 -5.0303
L-67.3583 -4.9351
" />
<path d="M-67.3583 -4.9351
L-67.7392 -4.9351
" />
<path d="M-67.7392 -4.9351
L-67.9178 -5.0303
" />
<path d="M-65.3464 -5.0303
L-65.5487 -4.9351
" />
<path d="M-65.5487 -4.9351
L-65.9297 -4.9351
" />
<path d="M-65.9297 -4.9351
L-66.1083 -5.0303
" />
<path d="M-66.1083 -5.0303
L-66.1797 -5.2208
" />
<path d="M-66.1797 -5.2208
L-66.0845 -5.9827
" />
<path d="M-66.0845 -5.9827
L-65.9654 -6.1732
" />
<path d="M-65.9654 -6.1732
L-65.7630 -6.2684
" />
<path d="M-65.7630 -6.2684
L-65.3821 -6.2684
" />
<path d="M-65.3821 -6.2684
L-65.2035 -6.1732
" />
<path d="M-65.2035 -6.1732
L-65.1321 -5.9827
" />
<path d="M-65.1321 -5.9827
L-65.1559 -5.7922
" />
<path d="M-65.1559 -5.7922
L-66.1321 -5.6018
" />
<path d="M-64.4059 -4.9351
L-64.2392 -6.2684
" />
<path d="M-64.2868 -5.8875
L-64.1678 -6.0779
" />
<path d="M-64.1678 -6.0779
L-64.0606 -6.1732
" />
<path d="M-64.0606 -6.1732
L-63.8583 -6.2684
" />
<path d="M-63.8583 -6.2684
L-63.6678 -6.2684
" />
</g></g>
<g style="fill:none; 
stroke:#C872AB; stroke-width:0.1500; stroke-opacity:1; 
stroke-linecap:round; stroke-linejoin:round;">
<text x="-123.8000" y="-8.6895"
textLength="30.9357" font-size="2.0000" lengthAdjust="spacingAndGlyphs"
text-anchor="start" opacity="0" stroke-opacity="0">File: ministepper.kicad_pcb</text>
<g class="stroked-text"><desc>File: ministepper.kicad_pcb</desc>
<path d="M-122.8442 -9.5391
L-123.3442 -9.5391
" />
<path d="M-123.3442 -8.7534
L-123.3442 -10.2534
" />
<path d="M-123.3442 -10.2534
L-122.6299 -10.2534
" />
<path d="M-122.0585 -8.7534
L-122.0585 -9.7534
" />
<path d="M-122.0585 -10.2534
L-122.1299 -10.1820
" />
<path d="M-122.1299 -10.1820
L-122.0585 -10.1105
" />
<path d="M-122.0585 -10.1105
L-121.9870 -10.1820
" />
<path d="M-121.9870 -10.1820
L-122.0585 -10.2534
" />
<path d="M-122.0585 -10.2534
L-122.0585 -10.1105
" />
<path d="M-121.1299 -8.7534
L-121.2727 -8.8248
" />
<path d="M-121.2727 -8.8248
L-121.3442 -8.9677
" />
<path d="M-121.3442 -8.9677
L-121.3442 -10.2534
" />
<path d="M-119.9870 -8.8248
L-120.1299 -8.7534
" />
<path d="M-120.1299 -8.7534
L-120.4156 -8.7534
" />
<path d="M-120.4156 -8.7534
L-120.5585 -8.8248
" />
<path d="M-120.5585 -8.8248
L-120.6299 -8.9677
" />
<path d="M-120.6299 -8.9677
L-120.6299 -9.5391
" />
<path d="M-120.6299 -9.5391
L-120.5585 -9.6820
" />
<path d="M-120.5585 -9.6820
L-120.4156 -9.7534
" />
<path d="M-120.4156 -9.7534
L-120.1299 -9.7534
" />
<path d="M-120.1299 -9.7534
L-119.9870 -9.6820
" />
<path d="M-119.9870 -9.6820
L-119.9156 -9.5391
" />
<path d="M-119.9156 -9.5391
L-119.9156 -9.3963
" />
<path d="M-119.9156 -9.3963
L-120.6299 -9.2534
" />
<path d="M-119.2727 -8.8963
L-119.2013 -8.8248
" />
<path d="M-119.2013 -8.8248
L-119.2727 -8.7534
" />
<path d="M-119.2727 -8.7534
L-119.3442 -8.8248
" />
<path d="M-119.3442 -8.8248
L-119.2727 -8.8963
" />
<path d="M-119.2727 -8.8963
L-119.2727 -8.7534
" />
<path d="M-119.2727 -9.6820
L-119.2013 -9.6105
" />
<path d="M-119.2013 -9.6105
L-119.2727 -9.5391
" />
<path d="M-119.2727 -9.5391
L-119.3442 -9.6105
" />
<path d="M-119.3442 -9.6105
L-119.2727 -9.6820
" />
<path d="M-119.2727 -9.6820
L-119.2727 -9.5391
" />
<path d="M-117.4156 -8.7534
L-117.4156 -9.7534
" />
<path d="M-117.4156 -9.6105
L-117.3442 -9.6820
" />
<path d="M-117.3442 -9.6820
L-117.2013 -9.7534
" />
<path d="M-117.2013 -9.7534
L-116.9870 -9.7534
" />
<path d="M-116.9870 -9.7534
L-116.8442 -9.6820
" />
<path d="M-116.8442 -9.6820
L-116.7727 -9.5391
" />
<path d="M-116.7727 -9.5391
L-116.7727 -8.7534
" />
<path d="M-116.7727 -9.5391
L-116.7013 -9.6820
" />
<path d="M-116.7013 -9.6820
L-116.5585 -9.7534
" />
<path d="M-116.5585 -9.7534
L-116.3442 -9.7534
" />
<path d="M-116.3442 -9.7534
L-116.2013 -9.6820
" />
<path d="M-116.2013 -9.6820
L-116.1299 -9.5391
" />
<path d="M-116.1299 -9.5391
L-116.1299 -8.7534
" />
<path d="M-115.4156 -8.7534
L-115.4156 -9.7534
" />
<path d="M-115.4156 -10.2534
L-115.4870 -10.1820
" />
<path d="M-115.4870 -10.1820
L-115.4156 -10.1105
" />
<path d="M-115.4156 -10.1105
L-115.3442 -10.1820
" />
<path d="M-115.3442 -10.1820
L-115.4156 -10.2534
" />
<path d="M-115.4156 -10.2534
L-115.4156 -10.1105
" />
<path d="M-114.7013 -9.7534
L-114.7013 -8.7534
" />
<path d="M-114.7013 -9.6105
L-114.6299 -9.6820
" />
<path d="M-114.6299 -9.6820
L-114.4870 -9.7534
" />
<path d="M-114.4870 -9.7534
L-114.2727 -9.7534
" />
<path d="M-114.2727 -9.7534
L-114.1299 -9.6820
" />
<path d="M-114.1299 -9.6820
L-114.0585 -9.5391
" />
<path d="M-114.0585 -9.5391
L-114.0585 -8.7534
" />
<path d="M-113.3442 -8.7534
L-113.3442 -9.7534
" />
<path d="M-113.3442 -10.2534
L-113.4156 -10.1820
" />
<path d="M-113.4156 -10.1820
L-113.3442 -10.1105
" />
<path d="M-113.3442 -10.1105
L-113.2727 -10.1820
" />
<path d="M-113.2727 -10.1820
L-113.3442 -10.2534
" />
<path d="M-113.3442 -10.2534
L-113.3442 -10.1105
" />
<path d="M-112.7013 -8.8248
L-112.5585 -8.7534
" />
<path d="M-112.5585 -8.7534
L-112.2727 -8.7534
" />
<path d="M-112.2727 -8.7534
L-112.1299 -8.8248
" />
<path d="M-112.1299 -8.8248
L-112.0585 -8.9677
" />
<path d="M-112.0585 -8.9677
L-112.0585 -9.0391
" />
<path d="M-112.0585 -9.0391
L-112.1299 -9.1820
" />
<path d="M-112.1299 -9.1820
L-112.2727 -9.2534
" />
<path d="M-112.2727 -9.2534
L-112.4870 -9.2534
" />
<path d="M-112.4870 -9.2534
L-112.6299 -9.3248
" />
<path d="M-112.6299 -9.3248
L-112.7013 -9.4677
" />
<path d="M-112.7013 -9.4677
L-112.7013 -9.5391
" />
<path d="M-112.7013 -9.5391
L-112.6299 -9.6820
" />
<path d="M-112.6299 -9.6820
L-112.4870 -9.7534
" />
<path d="M-112.4870 -9.7534
L-112.2727 -9.7534
" />
<path d="M-112.2727 -9.7534
L-112.1299 -9.6820
" />
<path d="M-111.6299 -9.7534
L-111.0585 -9.7534
" />
<path d="M-111.4156 -10.2534
L-111.4156 -8.9677
" />
<path d="M-111.4156 -8.9677
L-111.3442 -8.8248
" />
<path d="M-111.3442 -8.8248
L-111.2013 -8.7534
" />
<path d="M-111.2013 -8.7534
L-111.0585 -8.7534
" />
<path d="M-109.9870 -8.8248
L-110.1299 -8.7534
" />
<path d="M-110.1299 -8.7534
L-110.4156 -8.7534
" />
<path d="M-110.4156 -8.7534
L-110.5585 -8.8248
" />
<path d="M-110.5585 -8.8248
L-110.6299 -8.9677
" />
<path d="M-110.6299 -8.9677
L-110.6299 -9.5391
" />
<path d="M-110.6299 -9.5391
L-110.5585 -9.6820
" />
<path d="M-110.5585 -9.6820
L-110.4156 -9.7534
" />
<path d="M-110.4156 -9.7534
L-110.1299 -9.7534
" />
<path d="M-110.1299 -9.7534
L-109.9870 -9.6820
" />
<path d="M-109.9870 -9.6820
L-109.9156 -9.5391
" />
<path d="M-109.9156 -9.5391
L-109.9156 -9.3963
" />
<path d="M-109.9156 -9.3963
L-110.6299 -9.2534
" />
<path d="M-109.2727 -9.7534
L-109.2727 -8.2534
" />
<path d="M-109.2727 -9.6820
L-109.1299 -9.7534
" />
<path d="M-109.1299 -9.7534
L-108.8442 -9.7534
" />
<path d="M-108.8442 -9.7534
L-108.7013 -9.6820
" />
<path d="M-108.7013 -9.6820
L-108.6299 -9.6105
" />
<path d="M-108.6299 -9.6105
L-108.5585 -9.4677
" />
<path d="M-108.5585 -9.4677
L-108.5585 -9.0391
" />
<path d="M-108.5585 -9.0391
L-108.6299 -8.8963
" />
<path d="M-108.6299 -8.8963
L-108.7013 -8.8248
" />
<path d="M-108.7013 -8.8248
L-108.8442 -8.7534
" />
<path d="M-108.8442 -8.7534
L-109.1299 -8.7534
" />
<path d="M-109.1299 -8.7534
L-109.2727 -8.8248
" />
<path d="M-107.9156 -9.7534
L-107.9156 -8.2534
" />
<path d="M-107.9156 -9.6820
L-107.7727 -9.7534
" />
<path d="M-107.7727 -9.7534
L-107.4870 -9.7534
" />
<path d="M-107.4870 -9.7534
L-107.3442 -9.6820
" />
<path d="M-107.3442 -9.6820
L-107.2727 -9.6105
" />
<path d="M-107.2727 -9.6105
L-107.2013 -9.4677
" />
<path d="M-107.2013 -9.4677
L-107.2013 -9.0391
" />
<path d="M-107.2013 -9.0391
L-107.2727 -8.8963
" />
<path d="M-107.2727 -8.8963
L-107.3442 -8.8248
" />
<path d="M-107.3442 -8.8248
L-107.4870 -8.7534
" />
<path d="M-107.4870 -8.7534
L-107.7727 -8.7534
" />
<path d="M-107.7727 -8.7534
L-107.9156 -8.8248
" />
<path d="M-105.9870 -8.8248
L-106.1299 -8.7534
" />
<path d="M-106.1299 -8.7534
L-106.4156 -8.7534
" />
<path d="M-106.4156 -8.7534
L-106.5585 -8.8248
" />
<path d="M-106.5585 -8.8248
L-106.6299 -8.9677
" />
<path d="M-106.6299 -8.9677
L-106.6299 -9.5391
" />
<path d="M-106.6299 -9.5391
L-106.5585 -9.6820
" />
<path d="M-106.5585 -9.6820
L-106.4156 -9.7534
" />
<path d="M-106.4156 -9.7534
L-106.1299 -9.7534
" />
<path d="M-106.1299 -9.7534
L-105.9870 -9.6820
" />
<path d="M-105.9870 -9.6820
L-105.9156 -9.5391
" />
<path d="M-105.9156 -9.5391
L-105.9156 -9.3963
" />
<path d="M-105.9156 -9.3963
L-106.6299 -9.2534
" />
<path d="M-105.2727 -8.7534
L-105.2727 -9.7534
" />
<path d="M-105.2727 -9.4677
L-105.2013 -9.6105
" />
<path d="M-105.2013 -9.6105
L-105.1299 -9.6820
" />
<path d="M-105.1299 -9.6820
L-104.9870 -9.7534
" />
<path d="M-104.9870 -9.7534
L-104.8442 -9.7534
" />
<path d="M-104.3442 -8.8963
L-104.2727 -8.8248
" />
<path d="M-104.2727 -8.8248
L-104.3442 -8.7534
" />
<path d="M-104.3442 -8.7534
L-104.4156 -8.8248
" />
<path d="M-104.4156 -8.8248
L-104.3442 -8.8963
" />
<path d="M-104.3442 -8.8963
L-104.3442 -8.7534
" />
<path d="M-103.6299 -8.7534
L-103.6299 -10.2534
" />
<path d="M-103.4870 -9.3248
L-103.0585 -8.7534
" />
<path d="M-103.0585 -9.7534
L-103.6299 -9.1820
" />
<path d="M-102.4156 -8.7534
L-102.4156 -9.7534
" />
<path d="M-102.4156 -10.2534
L-102.4870 -10.1820
" />
<path d="M-102.4870 -10.1820
L-102.4156 -10.1105
" />
<path d="M-102.4156 -10.1105
L-102.3442 -10.1820
" />
<path d="M-102.3442 -10.1820
L-102.4156 -10.2534
" />
<path d="M-102.4156 -10.2534
L-102.4156 -10.1105
" />
<path d="M-101.0585 -8.8248
L-101.2013 -8.7534
" />
<path d="M-101.2013 -8.7534
L-101.4870 -8.7534
" />
<path d="M-101.4870 -8.7534
L-101.6299 -8.8248
" />
<path d="M-101.6299 -8.8248
L-101.7013 -8.8963
" />
<path d="M-101.7013 -8.8963
L-101.7727 -9.0391
" />
<path d="M-101.7727 -9.0391
L-101.7727 -9.4677
" />
<path d="M-101.7727 -9.4677
L-101.7013 -9.6105
" />
<path d="M-101.7013 -9.6105
L-101.6299 -9.6820
" />
<path d="M-101.6299 -9.6820
L-101.4870 -9.7534
" />
<path d="M-101.4870 -9.7534
L-101.2013 -9.7534
" />
<path d="M-101.2013 -9.7534
L-101.0585 -9.6820
" />
<path d="M-99.7727 -8.7534
L-99.7727 -9.5391
" />
<path d="M-99.7727 -9.5391
L-99.8442 -9.6820
" />
<path d="M-99.8442 -9.6820
L-99.9870 -9.7534
" />
<path d="M-99.9870 -9.7534
L-100.2727 -9.7534
" />
<path d="M-100.2727 -9.7534
L-100.4156 -9.6820
" />
<path d="M-99.7727 -8.8248
L-99.9156 -8.7534
" />
<path d="M-99.9156 -8.7534
L-100.2727 -8.7534
" />
<path d="M-100.2727 -8.7534
L-100.4156 -8.8248
" />
<path d="M-100.4156 -8.8248
L-100.4870 -8.9677
" />
<path d="M-100.4870 -8.9677
L-100.4870 -9.1105
" />
<path d="M-100.4870 -9.1105
L-100.4156 -9.2534
" />
<path d="M-100.4156 -9.2534
L-100.2727 -9.3248
" />
<path d="M-100.2727 -9.3248
L-99.9156 -9.3248
" />
<path d="M-99.9156 -9.3248
L-99.7727 -9.3963
" />
<path d="M-98.4156 -8.7534
L-98.4156 -10.2534
" />
<path d="M-98.4156 -8.8248
L-98.5585 -8.7534
" />
<path d="M-98.5585 -8.7534
L-98.8442 -8.7534
" />
<path d="M-98.8442 -8.7534
L-98.9870 -8.8248
" />
<path d="M-98.9870 -8.8248
L-99.0585 -8.8963
" />
<path d="M-99.0585 -8.8963
L-99.1299 -9.0391
" />
<path d="M-99.1299 -9.0391
L-99.1299 -9.4677
" />
<path d="M-99.1299 -9.4677
L-99.0585 -9.6105
" />
<path d="M-99.0585 -9.6105
L-98.9870 -9.6820
" />
<path d="M-98.9870 -9.6820
L-98.8442 -9.7534
" />
<path d="M-98.8442 -9.7534
L-98.5585 -9.7534
" />
<path d="M-98.5585 -9.7534
L-98.4156 -9.6820
" />
<path d="M-98.0585 -8.6105
L-96.9156 -8.6105
" />
<path d="M-96.5585 -9.7534
L-96.5585 -8.2534
" />
<path d="M-96.5585 -9.6820
L-96.4156 -9.7534
" />
<path d="M-96.4156 -9.7534
L-96.1299 -9.7534
" />
<path d="M-96.1299 -9.7534
L-95.9870 -9.6820
" />
<path d="M-95.9870 -9.6820
L-95.9156 -9.6105
" />
<path d="M-95.9156 -9.6105
L-95.8442 -9.4677
" />
<path d="M-95.8442 -9.4677
L-95.8442 -9.0391
" />
<path d="M-95.8442 -9.0391
L-95.9156 -8.8963
" />
<path d="M-95.9156 -8.8963
L-95.9870 -8.8248
" />
<path d="M-95.9870 -8.8248
L-96.1299 -8.7534
" />
<path d="M-96.1299 -8.7534
L-96.4156 -8.7534
" />
<path d="M-96.4156 -8.7534
L-96.5585 -8.8248
" />
<path d="M-94.5585 -8.8248
L-94.7013 -8.7534
" />
<path d="M-94.7013 -8.7534
L-94.9870 -8.7534
" />
<path d="M-94.9870 -8.7534
L-95.1299 -8.8248
" />
<path d="M-95.1299 -8.8248
L-95.2013 -8.8963
" />
<path d="M-95.2013 -8.8963
L-95.2727 -9.0391
" />
<path d="M-95.2727 -9.0391
L-95.2727 -9.4677
" />
<path d="M-95.2727 -9.4677
L-95.2013 -9.6105
" />
<path d="M-95.2013 -9.6105
L-95.1299 -9.6820
" />
<path d="M-95.1299 -9.6820
L-94.9870 -9.7534
" />
<path d="M-94.9870 -9.7534
L-94.7013 -9.7534
" />
<path d="M-94.7013 -9.7534
L-94.5585 -9.6820
" />
<path d="M-93.9156 -8.7534
L-93.9156 -10.2534
" />
<path d="M-93.9156 -9.6820
L-93.7727 -9.7534
" />
<path d="M-93.7727 -9.7534
L-93.4870 -9.7534
" />
<path d="M-93.4870 -9.7534
L-93.3442 -9.6820
" />
<path d="M-93.3442 -9.6820
L-93.2727 -9.6105
" />
<path d="M-93.2727 -9.6105
L-93.2013 -9.4677
" />
<path d="M-93.2013 -9.4677
L-93.2013 -9.0391
" />
<path d="M-93.2013 -9.0391
L-93.2727 -8.8963
" />
<path d="M-93.2727 -8.8963
L-93.3442 -8.8248
" />
<path d="M-93.3442 -8.8248
L-93.4870 -8.7534
" />
<path d="M-93.4870 -8.7534
L-93.7727 -8.7534
" />
<path d="M-93.7727 -8.7534
L-93.9156 -8.8248
" />
</g><path d="M-124.8000 -13.6395
L-16.8000 -13.6395
" />
<text x="-123.8000" y="-11.3895"
textLength="8.2214" font-size="2.0000" lengthAdjust="spacingAndGlyphs"
text-anchor="start" opacity="0" stroke-opacity="0">Sheet: </text>
<g class="stroked-text"><desc>Sheet: </desc>
<path d="M-123.4156 -11.5248
L-123.2013 -11.4534
" />
<path d="M-123.2013 -11.4534
L-122.8442 -11.4534
" />
<path d="M-122.8442 -11.4534
L-122.7013 -11.5248
" />
<path d="M-122.7013 -11.5248
L-122.6299 -11.5963
" />
<path d="M-122.6299 -11.5963
L-122.5585 -11.7391
" />
<path d="M-122.5585 -11.7391
L-122.5585 -11.8820
" />
<path d="M-122.5585 -11.8820
L-122.6299 -12.0248
" />
<path d="M-122.6299 -12.0248
L-122.7013 -12.0963
" />
<path d="M-122.7013 -12.0963
L-122.8442 -12.1677
" />
<path d="M-122.8442 -12.1677
L-123.1299 -12.2391
" />
<path d="M-123.1299 -12.2391
L-123.2727 -12.3105
" />
<path d="M-123.2727 -12.3105
L-123.3442 -12.3820
" />
<path d="M-123.3442 -12.3820
L-123.4156 -12.5248
" />
<path d="M-123.4156 -12.5248
L-123.4156 -12.6677
" />
<path d="M-123.4156 -12.6677
L-123.3442 -12.8105
" />
<path d="M-123.3442 -12.8105
L-123.2727 -12.8820
" />
<path d="M-123.2727 -12.8820
L-123.1299 -12.9534
" />
<path d="M-123.1299 -12.9534
L-122.7727 -12.9534
" />
<path d="M-122.7727 -12.9534
L-122.5585 -12.8820
" />
<path d="M-121.9156 -11.4534
L-121.9156 -12.9534
" />
<path d="M-121.2727 -11.4534
L-121.2727 -12.2391
" />
<path d="M-121.2727 -12.2391
L-121.3442 -12.3820
" />
<path d="M-121.3442 -12.3820
L-121.4870 -12.4534
" />
<path d="M-121.4870 -12.4534
L-121.7013 -12.4534
" />
<path d="M-121.7013 -12.4534
L-121.8442 -12.3820
" />
<path d="M-121.8442 -12.3820
L-121.9156 -12.3105
" />
<path d="M-119.9870 -11.5248
L-120.1299 -11.4534
" />
<path d="M-120.1299 -11.4534
L-120.4156 -11.4534
" />
<path d="M-120.4156 -11.4534
L-120.5585 -11.5248
" />
<path d="M-120.5585 -11.5248
L-120.6299 -11.6677
" />
<path d="M-120.6299 -11.6677
L-120.6299 -12.2391
" />
<path d="M-120.6299 -12.2391
L-120.5585 -12.3820
" />
<path d="M-120.5585 -12.3820
L-120.4156 -12.4534
" />
<path d="M-120.4156 -12.4534
L-120.1299 -12.4534
" />
<path d="M-120.1299 -12.4534
L-119.9870 -12.3820
" />
<path d="M-119.9870 -12.3820
L-119.9156 -12.2391
" />
<path d="M-119.9156 -12.2391
L-119.9156 -12.0963
" />
<path d="M-119.9156 -12.0963
L-120.6299 -11.9534
" />
<path d="M-118.7013 -11.5248
L-118.8442 -11.4534
" />
<path d="M-118.8442 -11.4534
L-119.1299 -11.4534
" />
<path d="M-119.1299 -11.4534
L-119.2727 -11.5248
" />
<path d="M-119.2727 -11.5248
L-119.3442 -11.6677
" />
<path d="M-119.3442 -11.6677
L-119.3442 -12.2391
" />
<path d="M-119.3442 -12.2391
L-119.2727 -12.3820
" />
<path d="M-119.2727 -12.3820
L-119.1299 -12.4534
" />
<path d="M-119.1299 -12.4534
L-118.8442 -12.4534
" />
<path d="M-118.8442 -12.4534
L-118.7013 -12.3820
" />
<path d="M-118.7013 -12.3820
L-118.6299 -12.2391
" />
<path d="M-118.6299 -12.2391
L-118.6299 -12.0963
" />
<path d="M-118.6299 -12.0963
L-119.3442 -11.9534
" />
<path d="M-118.2013 -12.4534
L-117.6299 -12.4534
" />
<path d="M-117.9870 -12.9534
L-117.9870 -11.6677
" />
<path d="M-117.9870 -11.6677
L-117.9156 -11.5248
" />
<path d="M-117.9156 -11.5248
L-117.7727 -11.4534
" />
<path d="M-117.7727 -11.4534
L-117.6299 -11.4534
" />
<path d="M-117.1299 -11.5963
L-117.0585 -11.5248
" />
<path d="M-117.0585 -11.5248
L-117.1299 -11.4534
" />
<path d="M-117.1299 -11.4534
L-117.2013 -11.5248
" />
<path d="M-117.2013 -11.5248
L-117.1299 -11.5963
" />
<path d="M-117.1299 -11.5963
L-117.1299 -11.4534
" />
<path d="M-117.1299 -12.3820
L-117.0585 -12.3105
" />
<path d="M-117.0585 -12.3105
L-117.1299 -12.2391
" />
<path d="M-117.1299 -12.2391
L-117.2013 -12.3105
" />
<path d="M-117.2013 -12.3105
L-117.1299 -12.3820
" />
<path d="M-117.1299 -12.3820
L-117.1299 -12.2391
" />
</g></g>
<g style="fill:none; 
stroke:#C872AB; stroke-width:0.3000; stroke-opacity:1; 
stroke-linecap:round; stroke-linejoin:round;">
<text x="-123.8000" y="-14.3895"
textLength="0.9000" font-size="2.0000" lengthAdjust="spacingAndGlyphs"
text-anchor="start" opacity="0" stroke-opacity="0"></text>
<g class="stroked-text"><desc></desc>
</g></g>
<g style="fill:none; 
stroke:#C872AB; stroke-width:0.1500; stroke-opacity:1; 
stroke-linecap:round; stroke-linejoin:round;">
<text x="-123.8000" y="-17.3895"
textLength="0.4500" font-size="2.0000" lengthAdjust="spacingAndGlyphs"
text-anchor="start" opacity="0" stroke-opacity="0"></text>
<g class="stroked-text"><desc></desc>
</g><text x="-123.8000" y="-20.3895"
textLength="0.4500" font-size="2.0000" lengthAdjust="spacingAndGlyphs"
text-anchor="start" opacity="0" stroke-opacity="0"></text>
<g class="stroked-text"><desc></desc>
</g><text x="-123.8000" y="-23.3895"
textLength="0.4500" font-size="2.0000" lengthAdjust="spacingAndGlyphs"
text-anchor="start" opacity="0" stroke-opacity="0"></text>
<g class="stroked-text"><desc></desc>
</g><text x="-123.8000" y="-26.3895"
textLength="0.4500" font-size="2.0000" lengthAdjust="spacingAndGlyphs"
text-anchor="start" opacity="0" stroke-opacity="0"></text>
<g class="stroked-text"><desc></desc>
</g><path d="M-104.8000 -3.6395
L-104.8000 -0.6395
" />
<path d="M-40.8000 -3.6395
L-40.8000 2.8605
" />
<path style="fill:#4D7FC4; fill-opacity:1.0000; stroke:none;fill-rule:evenodd;"
d="M 97.2652,20.9102
97.2462,20.8146
97.1920,20.7335
97.1109,20.6793
97.0152,20.6602
95.8152,20.6602
95.7195,20.6793
95.6384,20.7335
95.5842,20.8146
95.5652,20.9102
95.5652,22.3602
95.5842,22.4559
95.6384,22.5370
95.7195,22.5912
95.8152,22.6102
97.0152,22.6102
97.1109,22.5912
97.1920,22.5370
97.2462,22.4559
97.2652,22.3602
Z" /> 
</g>
<g style="fill:none; 
stroke:#4D7FC4; stroke-width:1.7000; stroke-opacity:1; 
stroke-linecap:round; stroke-linejoin:round;">
<path d="M93.9152 21.5102
L93.9152 21.7602
" />
<path d="M91.4152 21.5102
L91.4152 21.7602
" />
<path d="M88.9152 21.5102
L88.9152 21.7602
" />
<path style="fill:#4D7FC4; fill-opacity:1.0000; stroke:none;fill-rule:evenodd;"
d="M 97.2652,34.4702
97.2462,34.3746
97.1920,34.2935
97.1109,34.2393
97.0152,34.2202
95.8152,34.2202
95.7195,34.2393
95.6384,34.2935
95.5842,34.3746
95.5652,34.4702
95.5652,35.9202
95.5842,36.0159
95.6384,36.0970
95.7195,36.1512
95.8152,36.1702
97.0152,36.1702
97.1109,36.1512
97.1920,36.0970
97.2462,36.0159
97.2652,35.9202
Z" /> 
</g>
<g style="fill:none; 
stroke:#4D7FC4; stroke-width:1.7000; stroke-opacity:1; 
stroke-linecap:round; stroke-linejoin:round;">
<path d="M93.9152 35.0702
L93.9152 35.3202
" />
<path d="M91.4152 35.0702
L91.4152 35.3202
" />
<path d="M88.9152 35.0702
L88.9152 35.3202
" />
<path style="fill:#4D7FC4; fill-opacity:1.0000; stroke:none;fill-rule:evenodd;"
d="M 97.2652,48.0302
97.2462,47.9346
97.1920,47.8535
97.1109,47.7993
97.0152,47.7802
95.8152,47.7802
95.7195,47.7993
95.6384,47.8535
95.5842,47.9346
95.5652,48.0302
95.5652,49.4802
95.5842,49.5759
95.6384,49.6570
95.7195,49.7112
95.8152,49.7302
97.0152,49.7302
97.1109,49.7112
97.1920,49.6570
97.2462,49.5759
97.2652,49.4802
Z" /> 
</g>
<g style="fill:none; 
stroke:#4D7FC4; stroke-width:1.7000; stroke-opacity:1; 
stroke-linecap:round; stroke-linejoin:round;">
<path d="M93.9152 48.6302
L93.9152 48.8802
" />
<path d="M91.4152 48.6302
L91.4152 48.8802
" />
<path d="M88.9152 48.6302
L88.9152 48.8802
" />
<path style="fill:#4D7FC4; fill-opacity:1.0000; stroke:none;fill-rule:evenodd;"
d="M 82.8152,15.6352
82.7962,15.5396
82.7420,15.4585
82.6609,15.4043
82.5652,15.3852
81.3652,15.3852
81.2695,15.4043
81.1884,15.4585
81.1342,15.5396
81.1152,15.6352
81.1152,17.1352
81.1342,17.2309
81.1884,17.3120
81.2695,17.3662
81.3652,17.3852
82.5652,17.3852
82.6609,17.3662
82.7420,17.3120
82.7962,17.2309
82.8152,17.1352
Z" /> 
</g>
<g style="fill:none; 
stroke:#4D7FC4; stroke-width:1.7000; stroke-opacity:1; 
stroke-linecap:round; stroke-linejoin:round;">
<path d="M79.4652 16.2352
L79.4652 16.5352
" />
<path style="fill:#4D7FC4; fill-opacity:1.0000; stroke:none;fill-rule:evenodd;"
d="M 97.2652,7.3502
97.2462,7.2546
97.1920,7.1735
97.1109,7.1193
97.0152,7.1002
95.8152,7.1002
95.7195,7.1193
95.6384,7.1735
95.5842,7.2546
95.5652,7.3502
95.5652,8.8002
95.5842,8.8959
95.6384,8.9770
95.7195,9.0312
95.8152,9.0502
97.0152,9.0502
97.1109,9.0312
97.1920,8.9770
97.2462,8.8959
97.2652,8.8002
Z" /> 
</g>
<g style="fill:none; 
stroke:#4D7FC4; stroke-width:1.7000; stroke-opacity:1; 
stroke-linecap:round; stroke-linejoin:round;">
<path d="M93.9152 7.9502
L93.9152 8.2002
" />
<path d="M91.4152 7.9502
L91.4152 8.2002
" />
<path d="M88.9152 7.9502
L88.9152 8.2002
" />
</g>
<g style="fill:#4D7FC4; fill-opacity:1.0000; stroke:none;">
<circle cx="13.0602" cy="13.9987" r="0.3000" /> 
<circle cx="13.1902" cy="14.8402" r="0.3000" /> 
<path style="fill:#02FFEE; fill-opacity:0.4000; stroke:none;fill-rule:evenodd;"
d="M 97.2652,20.9102
97.2462,20.8146
97.1920,20.7335
97.1109,20.6793
97.0152,20.6602
95.8152,20.6602
95.7195,20.6793
95.6384,20.7335
95.5842,20.8146
95.5652,20.9102
95.5652,22.3602
95.5842,22.4559
95.6384,22.5370
95.7195,22.5912
95.8152,22.6102
97.0152,22.6102
97.1109,22.5912
97.1920,22.5370
97.2462,22.4559
97.2652,22.3602
Z" /> 
</g>
<g style="fill:none; 
stroke:#02FFEE; stroke-width:1.7000; stroke-opacity:1; 
stroke-linecap:round; stroke-linejoin:round;">
<path d="M93.9152 21.5102
L93.9152 21.7602
" />
<path d="M91.4152 21.5102
L91.4152 21.7602
" />
<path d="M88.9152 21.5102
L88.9152 21.7602
" />
<path style="fill:#02FFEE; fill-opacity:0.4000; stroke:none;fill-rule:evenodd;"
d="M 97.2652,34.4702
97.2462,34.3746
97.1920,34.2935
97.1109,34.2393
97.0152,34.2202
95.8152,34.2202
95.7195,34.2393
95.6384,34.2935
95.5842,34.3746
95.5652,34.4702
95.5652,35.9202
95.5842,36.0159
95.6384,36.0970
95.7195,36.1512
95.8152,36.1702
97.0152,36.1702
97.1109,36.1512
97.1920,36.0970
97.2462,36.0159
97.2652,35.9202
Z" /> 
</g>
<g style="fill:none; 
stroke:#02FFEE; stroke-width:1.7000; stroke-opacity:1; 
stroke-linecap:round; stroke-linejoin:round;">
<path d="M93.9152 35.0702
L93.9152 35.3202
" />
<path d="M91.4152 35.0702
L91.4152 35.3202
" />
<path d="M88.9152 35.0702
L88.9152 35.3202
" />
<path style="fill:#02FFEE; fill-opacity:0.4000; stroke:none;fill-rule:evenodd;"
d="M 97.2652,48.0302
97.2462,47.9346
97.1920,47.8535
97.1109,47.7993
97.0152,47.7802
95.8152,47.7802
95.7195,47.7993
95.6384,47.8535
95.5842,47.9346
95.5652,48.0302
95.5652,49.4802
95.5842,49.5759
95.6384,49.6570
95.7195,49.7112
95.8152,49.7302
97.0152,49.7302
97.1109,49.7112
97.1920,49.6570
97.2462,49.5759
97.2652,49.4802
Z" /> 
</g>
<g style="fill:none; 
stroke:#02FFEE; stroke-width:1.7000; stroke-opacity:1; 
stroke-linecap:round; stroke-linejoin:round;">
<path d="M93.9152 48.6302
L93.9152 48.8802
" />
<path d="M91.4152 48.6302
L91.4152 48.8802
" />
<path d="M88.9152 48.6302
L88.9152 48.8802
" />
<path style="fill:#02FFEE; fill-opacity:0.4000; stroke:none;fill-rule:evenodd;"
d="M 82.8152,15.6352
82.7962,15.5396
82.7420,15.4585
82.6609,15.4043
82.5652,15.3852
81.3652,15.3852
81.2695,15.4043
81.1884,15.4585
81.1342,15.5396
81.1152,15.6352
81.1152,17.1352
81.1342,17.2309
81.1884,17.3120
81.2695,17.3662
81.3652,17.3852
82.5652,17.3852
82.6609,17.3662
82.7420,17.3120
82.7962,17.2309
82.8152,17.1352
Z" /> 
</g>
<g style="fill:none; 
stroke:#02FFEE; stroke-width:1.7000; stroke-opacity:1; 
stroke-linecap:round; stroke-linejoin:round;">
<path d="M79.4652 16.2352
L79.4652 16.5352
" />
<path style="fill:#02FFEE; fill-opacity:0.4000; stroke:none;fill-rule:evenodd;"
d="M 97.2652,7.3502
97.2462,7.2546
97.1920,7.1735
97.1109,7.1193
97.0152,7.1002
95.8152,7.1002
95.7195,7.1193
95.6384,7.1735
95.5842,7.2546
95.5652,7.3502
95.5652,8.8002
95.5842,8.8959
95.6384,8.9770
95.7195,9.0312
95.8152,9.0502
97.0152,9.0502
97.1109,9.0312
97.1920,8.9770
97.2462,8.8959
97.2652,8.8002
Z" /> 
</g>
<g style="fill:none; 
stroke:#02FFEE; stroke-width:1.7000; stroke-opacity:1; 
stroke-linecap:round; stroke-linejoin:round;">
<path d="M93.9152 7.9502
L93.9152 8.2002
" />
<path d="M91.4152 7.9502
L91.4152 8.2002
" />
<path d="M88.9152 7.9502
L88.9152 8.2002
" />
</g>
<g style="fill:#FFFFFF; fill-opacity:1.0000; stroke:none;">
<circle cx="13.0602" cy="13.9987" r="0.1500" /> 
<circle cx="13.1902" cy="14.8402" r="0.1500" /> 
</g>
<g style="fill:#FFFFFF; fill-opacity:1.0000; stroke:none;">
<circle cx="96.4152" cy="21.6352" r="0.4750" /> 
</g>
<g style="fill:#FFFFFF; fill-opacity:1.0000; stroke:none;">
<circle cx="93.9152" cy="21.6352" r="0.4750" /> 
</g>
<g style="fill:#FFFFFF; fill-opacity:1.0000; stroke:none;">
<circle cx="91.4152" cy="21.6352" r="0.4750" /> 
</g>
<g style="fill:#FFFFFF; fill-opacity:1.0000; stroke:none;">
<circle cx="88.9152" cy="21.6352" r="0.4750" /> 
</g>
<g style="fill:#FFFFFF; fill-opacity:1.0000; stroke:none;">
<circle cx="96.4152" cy="35.1952" r="0.4750" /> 
</g>
<g style="fill:#FFFFFF; fill-opacity:1.0000; stroke:none;">
<circle cx="93.9152" cy="35.1952" r="0.4750" /> 
</g>
<g style="fill:#FFFFFF; fill-opacity:1.0000; stroke:none;">
<circle cx="91.4152" cy="35.1952" r="0.4750" /> 
</g>
<g style="fill:#FFFFFF; fill-opacity:1.0000; stroke:none;">
<circle cx="88.9152" cy="35.1952" r="0.4750" /> 
</g>
<g style="fill:#FFFFFF; fill-opacity:1.0000; stroke:none;">
<circle cx="96.4152" cy="48.7552" r="0.4750" /> 
</g>
<g style="fill:#FFFFFF; fill-opacity:1.0000; stroke:none;">
<circle cx="93.9152" cy="48.7552" r="0.4750" /> 
</g>
<g style="fill:#FFFFFF; fill-opacity:1.0000; stroke:none;">
<circle cx="91.4152" cy="48.7552" r="0.4750" /> 
</g>
<g style="fill:#FFFFFF; fill-opacity:1.0000; stroke:none;">
<circle cx="88.9152" cy="48.7552" r="0.4750" /> 
</g>
<g style="fill:#FFFFFF; fill-opacity:1.0000; stroke:none;">
<circle cx="81.9652" cy="16.3852" r="0.5000" /> 
</g>
<g style="fill:#FFFFFF; fill-opacity:1.0000; stroke:none;">
<circle cx="79.4652" cy="16.3852" r="0.5000" /> 
</g>
<g style="fill:#FFFFFF; fill-opacity:1.0000; stroke:none;">
<circle cx="96.4152" cy="8.0752" r="0.4750" /> 
</g>
<g style="fill:#FFFFFF; fill-opacity:1.0000; stroke:none;">
<circle cx="93.9152" cy="8.0752" r="0.4750" /> 
</g>
<g style="fill:#FFFFFF; fill-opacity:1.0000; stroke:none;">
<circle cx="91.4152" cy="8.0752" r="0.4750" /> 
</g>
<g style="fill:#FFFFFF; fill-opacity:1.0000; stroke:none;">
<circle cx="88.9152" cy="8.0752" r="0.4750" /> 
</g> 
</svg>
