<?xml version="1.0" standalone="no"?>
 <!DOCTYPE svg PUBLIC "-//W3C//DTD SVG 1.1//EN" 
 "http://www.w3.org/Graphics/SVG/1.1/DTD/svg11.dtd"> 
<svg
  xmlns:svg="http://www.w3.org/2000/svg"
  xmlns="http://www.w3.org/2000/svg"
  xmlns:xlink="http://www.w3.org/1999/xlink"
  xmlns:inkscape="http://www.inkscape.org/namespaces/inkscape"
  version="1.1"
  width="82.4230mm" height="55.4482mm" viewBox="0.0000 0.0000 82.4230 55.4482">
<title>SVG Image created as pcb-bottom.svg date 2026-04-14T17:35:29 </title>
  <desc>Image generated by PCBNEW </desc>
<g style="fill:#000000; fill-opacity:1.0000;stroke:#000000; stroke-opacity:1.0000;
stroke-linecap:round; stroke-linejoin:round;"
 transform="translate(0 0) scale(1 1)">
</g>
<g style="fill:none; 
stroke:#C872AB; stroke-width:0.1500; stroke-opacity:1; 
stroke-linecap:round; stroke-linejoin:round;">
<path d="M-150.7131 -61.1052
L-42.7131 -61.1052
L-42.7131 -29.1052
L-150.7131 -29.1052
L-150.7131 -61.1052
" />
<path d="M-103.1476 -62.5767
L-40.7131 -62.5767
L-40.7131 -27.1052
L-103.1476 -27.1052
L-103.1476 -62.5767
" />
<path d="M-101.1476 -60.5767
L-42.7131 -60.5767
L-42.7131 -29.1052
L-101.1476 -29.1052
L-101.1476 -60.5767
" />
<path d="M-53.1476 -60.5767
L-53.1476 -62.5767
" />
<text x="-78.1476" y="-60.9267"
textLength="1.4281" font-size="1.7333" lengthAdjust="spacingAndGlyphs"
text-anchor="start" opacity="0" stroke-opacity="0">1</text>
<g class="stroked-text"><desc>1</desc>
<path d="M-77.0585 -60.9831
L-77.8013 -60.9831
" />
<path d="M-77.4299 -60.9831
L-77.4299 -62.2831
" />
<path d="M-77.4299 -62.2831
L-77.5537 -62.0974
" />
<path d="M-77.5537 -62.0974
L-77.6775 -61.9736
" />
<path d="M-77.6775 -61.9736
L-77.8013 -61.9117
" />
</g><path d="M-53.1476 -29.1052
L-53.1476 -27.1052
" />
<text x="-78.1476" y="-27.4552"
textLength="1.4281" font-size="1.7333" lengthAdjust="spacingAndGlyphs"
text-anchor="start" opacity="0" stroke-opacity="0">1</text>
<g class="stroked-text"><desc>1</desc>
<path d="M-77.0585 -27.5116
L-77.8013 -27.5116
" />
<path d="M-77.4299 -27.5116
L-77.4299 -28.8116
" />
<path d="M-77.4299 -28.8116
L-77.5537 -28.6259
" />
<path d="M-77.5537 -28.6259
L-77.6775 -28.5021
" />
<path d="M-77.6775 -28.5021
L-77.8013 -28.4402
" />
</g><path d="M-103.1476 -12.5767
L-101.1476 -12.5767
" />
<text x="-102.1476" y="-36.9267"
textLength="1.3043" font-size="1.7333" lengthAdjust="spacingAndGlyphs"
text-anchor="middle" opacity="0" stroke-opacity="0">A</text>
<g class="stroked-text"><desc>A</desc>
<path d="M-102.4571 -37.3546
L-101.8381 -37.3546
" />
<path d="M-102.5810 -36.9831
L-102.1476 -38.2831
" />
<path d="M-102.1476 -38.2831
L-101.7143 -36.9831
" />
</g><path d="M-40.7131 -12.5767
L-42.7131 -12.5767
" />
<text x="-41.7131" y="-36.9267"
textLength="1.3043" font-size="1.7333" lengthAdjust="spacingAndGlyphs"
text-anchor="middle" opacity="0" stroke-opacity="0">A</text>
<g class="stroked-text"><desc>A</desc>
<path d="M-42.0226 -37.3546
L-41.4036 -37.3546
" />
<path d="M-42.1464 -36.9831
L-41.7131 -38.2831
" />
<path d="M-41.7131 -38.2831
L-41.2798 -36.9831
" />
</g><text x="-127.7131" y="-33.2552"
textLength="22.1500" font-size="2.0000" lengthAdjust="spacingAndGlyphs"
text-anchor="start" opacity="0" stroke-opacity="0">Date: 2026-04-14</text>
<g class="stroked-text"><desc>Date: 2026-04-14</desc>
<path d="M-127.2573 -33.3191
L-127.2573 -34.8191
" />
<path d="M-127.2573 -34.8191
L-126.9001 -34.8191
" />
<path d="M-126.9001 -34.8191
L-126.6858 -34.7477
" />
<path d="M-126.6858 -34.7477
L-126.5430 -34.6048
" />
<path d="M-126.5430 -34.6048
L-126.4716 -34.4620
" />
<path d="M-126.4716 -34.4620
L-126.4001 -34.1763
" />
<path d="M-126.4001 -34.1763
L-126.4001 -33.9620
" />
<path d="M-126.4001 -33.9620
L-126.4716 -33.6763
" />
<path d="M-126.4716 -33.6763
L-126.5430 -33.5334
" />
<path d="M-126.5430 -33.5334
L-126.6858 -33.3905
" />
<path d="M-126.6858 -33.3905
L-126.9001 -33.3191
" />
<path d="M-126.9001 -33.3191
L-127.2573 -33.3191
" />
<path d="M-125.1144 -33.3191
L-125.1144 -34.1048
" />
<path d="M-125.1144 -34.1048
L-125.1858 -34.2477
" />
<path d="M-125.1858 -34.2477
L-125.3287 -34.3191
" />
<path d="M-125.3287 -34.3191
L-125.6144 -34.3191
" />
<path d="M-125.6144 -34.3191
L-125.7573 -34.2477
" />
<path d="M-125.1144 -33.3905
L-125.2573 -33.3191
" />
<path d="M-125.2573 -33.3191
L-125.6144 -33.3191
" />
<path d="M-125.6144 -33.3191
L-125.7573 -33.3905
" />
<path d="M-125.7573 -33.3905
L-125.8287 -33.5334
" />
<path d="M-125.8287 -33.5334
L-125.8287 -33.6763
" />
<path d="M-125.8287 -33.6763
L-125.7573 -33.8191
" />
<path d="M-125.7573 -33.8191
L-125.6144 -33.8905
" />
<path d="M-125.6144 -33.8905
L-125.2573 -33.8905
" />
<path d="M-125.2573 -33.8905
L-125.1144 -33.9620
" />
<path d="M-124.6144 -34.3191
L-124.0430 -34.3191
" />
<path d="M-124.4001 -34.8191
L-124.4001 -33.5334
" />
<path d="M-124.4001 -33.5334
L-124.3287 -33.3905
" />
<path d="M-124.3287 -33.3905
L-124.1858 -33.3191
" />
<path d="M-124.1858 -33.3191
L-124.0430 -33.3191
" />
<path d="M-122.9716 -33.3905
L-123.1144 -33.3191
" />
<path d="M-123.1144 -33.3191
L-123.4001 -33.3191
" />
<path d="M-123.4001 -33.3191
L-123.5430 -33.3905
" />
<path d="M-123.5430 -33.3905
L-123.6144 -33.5334
" />
<path d="M-123.6144 -33.5334
L-123.6144 -34.1048
" />
<path d="M-123.6144 -34.1048
L-123.5430 -34.2477
" />
<path d="M-123.5430 -34.2477
L-123.4001 -34.3191
" />
<path d="M-123.4001 -34.3191
L-123.1144 -34.3191
" />
<path d="M-123.1144 -34.3191
L-122.9716 -34.2477
" />
<path d="M-122.9716 -34.2477
L-122.9001 -34.1048
" />
<path d="M-122.9001 -34.1048
L-122.9001 -33.9620
" />
<path d="M-122.9001 -33.9620
L-123.6144 -33.8191
" />
<path d="M-122.2573 -33.4620
L-122.1858 -33.3905
" />
<path d="M-122.1858 -33.3905
L-122.2573 -33.3191
" />
<path d="M-122.2573 -33.3191
L-122.3287 -33.3905
" />
<path d="M-122.3287 -33.3905
L-122.2573 -33.4620
" />
<path d="M-122.2573 -33.4620
L-122.2573 -33.3191
" />
<path d="M-122.2573 -34.2477
L-122.1858 -34.1763
" />
<path d="M-122.1858 -34.1763
L-122.2573 -34.1048
" />
<path d="M-122.2573 -34.1048
L-122.3287 -34.1763
" />
<path d="M-122.3287 -34.1763
L-122.2573 -34.2477
" />
<path d="M-122.2573 -34.2477
L-122.2573 -34.1048
" />
<path d="M-120.4716 -34.6763
L-120.4001 -34.7477
" />
<path d="M-120.4001 -34.7477
L-120.2573 -34.8191
" />
<path d="M-120.2573 -34.8191
L-119.9001 -34.8191
" />
<path d="M-119.9001 -34.8191
L-119.7573 -34.7477
" />
<path d="M-119.7573 -34.7477
L-119.6858 -34.6763
" />
<path d="M-119.6858 -34.6763
L-119.6144 -34.5334
" />
<path d="M-119.6144 -34.5334
L-119.6144 -34.3905
" />
<path d="M-119.6144 -34.3905
L-119.6858 -34.1763
" />
<path d="M-119.6858 -34.1763
L-120.5430 -33.3191
" />
<path d="M-120.5430 -33.3191
L-119.6144 -33.3191
" />
<path d="M-118.6858 -34.8191
L-118.5430 -34.8191
" />
<path d="M-118.5430 -34.8191
L-118.4001 -34.7477
" />
<path d="M-118.4001 -34.7477
L-118.3287 -34.6763
" />
<path d="M-118.3287 -34.6763
L-118.2573 -34.5334
" />
<path d="M-118.2573 -34.5334
L-118.1858 -34.2477
" />
<path d="M-118.1858 -34.2477
L-118.1858 -33.8905
" />
<path d="M-118.1858 -33.8905
L-118.2573 -33.6048
" />
<path d="M-118.2573 -33.6048
L-118.3287 -33.4620
" />
<path d="M-118.3287 -33.4620
L-118.4001 -33.3905
" />
<path d="M-118.4001 -33.3905
L-118.5430 -33.3191
" />
<path d="M-118.5430 -33.3191
L-118.6858 -33.3191
" />
<path d="M-118.6858 -33.3191
L-118.8287 -33.3905
" />
<path d="M-118.8287 -33.3905
L-118.9001 -33.4620
" />
<path d="M-118.9001 -33.4620
L-118.9716 -33.6048
" />
<path d="M-118.9716 -33.6048
L-119.0430 -33.8905
" />
<path d="M-119.0430 -33.8905
L-119.0430 -34.2477
" />
<path d="M-119.0430 -34.2477
L-118.9716 -34.5334
" />
<path d="M-118.9716 -34.5334
L-118.9001 -34.6763
" />
<path d="M-118.9001 -34.6763
L-118.8287 -34.7477
" />
<path d="M-118.8287 -34.7477
L-118.6858 -34.8191
" />
<path d="M-117.6144 -34.6763
L-117.5430 -34.7477
" />
<path d="M-117.5430 -34.7477
L-117.4001 -34.8191
" />
<path d="M-117.4001 -34.8191
L-117.0430 -34.8191
" />
<path d="M-117.0430 -34.8191
L-116.9001 -34.7477
" />
<path d="M-116.9001 -34.7477
L-116.8287 -34.6763
" />
<path d="M-116.8287 -34.6763
L-116.7573 -34.5334
" />
<path d="M-116.7573 -34.5334
L-116.7573 -34.3905
" />
<path d="M-116.7573 -34.3905
L-116.8287 -34.1763
" />
<path d="M-116.8287 -34.1763
L-117.6858 -33.3191
" />
<path d="M-117.6858 -33.3191
L-116.7573 -33.3191
" />
<path d="M-115.4716 -34.8191
L-115.7573 -34.8191
" />
<path d="M-115.7573 -34.8191
L-115.9001 -34.7477
" />
<path d="M-115.9001 -34.7477
L-115.9716 -34.6763
" />
<path d="M-115.9716 -34.6763
L-116.1144 -34.4620
" />
<path d="M-116.1144 -34.4620
L-116.1858 -34.1763
" />
<path d="M-116.1858 -34.1763
L-116.1858 -33.6048
" />
<path d="M-116.1858 -33.6048
L-116.1144 -33.4620
" />
<path d="M-116.1144 -33.4620
L-116.0430 -33.3905
" />
<path d="M-116.0430 -33.3905
L-115.9001 -33.3191
" />
<path d="M-115.9001 -33.3191
L-115.6144 -33.3191
" />
<path d="M-115.6144 -33.3191
L-115.4716 -33.3905
" />
<path d="M-115.4716 -33.3905
L-115.4001 -33.4620
" />
<path d="M-115.4001 -33.4620
L-115.3287 -33.6048
" />
<path d="M-115.3287 -33.6048
L-115.3287 -33.9620
" />
<path d="M-115.3287 -33.9620
L-115.4001 -34.1048
" />
<path d="M-115.4001 -34.1048
L-115.4716 -34.1763
" />
<path d="M-115.4716 -34.1763
L-115.6144 -34.2477
" />
<path d="M-115.6144 -34.2477
L-115.9001 -34.2477
" />
<path d="M-115.9001 -34.2477
L-116.0430 -34.1763
" />
<path d="M-116.0430 -34.1763
L-116.1144 -34.1048
" />
<path d="M-116.1144 -34.1048
L-116.1858 -33.9620
" />
<path d="M-114.6858 -33.8905
L-113.5430 -33.8905
" />
<path d="M-112.5430 -34.8191
L-112.4001 -34.8191
" />
<path d="M-112.4001 -34.8191
L-112.2573 -34.7477
" />
<path d="M-112.2573 -34.7477
L-112.1858 -34.6763
" />
<path d="M-112.1858 -34.6763
L-112.1144 -34.5334
" />
<path d="M-112.1144 -34.5334
L-112.0430 -34.2477
" />
<path d="M-112.0430 -34.2477
L-112.0430 -33.8905
" />
<path d="M-112.0430 -33.8905
L-112.1144 -33.6048
" />
<path d="M-112.1144 -33.6048
L-112.1858 -33.4620
" />
<path d="M-112.1858 -33.4620
L-112.2573 -33.3905
" />
<path d="M-112.2573 -33.3905
L-112.4001 -33.3191
" />
<path d="M-112.4001 -33.3191
L-112.5430 -33.3191
" />
<path d="M-112.5430 -33.3191
L-112.6858 -33.3905
" />
<path d="M-112.6858 -33.3905
L-112.7573 -33.4620
" />
<path d="M-112.7573 -33.4620
L-112.8287 -33.6048
" />
<path d="M-112.8287 -33.6048
L-112.9001 -33.8905
" />
<path d="M-112.9001 -33.8905
L-112.9001 -34.2477
" />
<path d="M-112.9001 -34.2477
L-112.8287 -34.5334
" />
<path d="M-112.8287 -34.5334
L-112.7573 -34.6763
" />
<path d="M-112.7573 -34.6763
L-112.6858 -34.7477
" />
<path d="M-112.6858 -34.7477
L-112.5430 -34.8191
" />
<path d="M-110.7573 -34.3191
L-110.7573 -33.3191
" />
<path d="M-111.1144 -34.8905
L-111.4716 -33.8191
" />
<path d="M-111.4716 -33.8191
L-110.5430 -33.8191
" />
<path d="M-109.9716 -33.8905
L-108.8287 -33.8905
" />
<path d="M-107.3287 -33.3191
L-108.1858 -33.3191
" />
<path d="M-107.7573 -33.3191
L-107.7573 -34.8191
" />
<path d="M-107.7573 -34.8191
L-107.9001 -34.6048
" />
<path d="M-107.9001 -34.6048
L-108.0430 -34.4620
" />
<path d="M-108.0430 -34.4620
L-108.1858 -34.3905
" />
<path d="M-106.0430 -34.3191
L-106.0430 -33.3191
" />
<path d="M-106.4001 -34.8905
L-106.7573 -33.8191
" />
<path d="M-106.7573 -33.8191
L-105.8287 -33.8191
" />
</g><path d="M-150.7131 -32.6052
L-42.7131 -32.6052
" />
<text x="-149.7131" y="-30.4552"
textLength="22.2929" font-size="2.0000" lengthAdjust="spacingAndGlyphs"
text-anchor="start" opacity="0" stroke-opacity="0">KiCad E.D.A. 10.0.0</text>
<g class="stroked-text"><desc>KiCad E.D.A. 10.0.0</desc>
<path d="M-149.2573 -30.5191
L-149.2573 -32.0191
" />
<path d="M-148.4001 -30.5191
L-149.0430 -31.3763
" />
<path d="M-148.4001 -32.0191
L-149.2573 -31.1620
" />
<path d="M-147.7573 -30.5191
L-147.7573 -31.5191
" />
<path d="M-147.7573 -32.0191
L-147.8287 -31.9477
" />
<path d="M-147.8287 -31.9477
L-147.7573 -31.8763
" />
<path d="M-147.7573 -31.8763
L-147.6858 -31.9477
" />
<path d="M-147.6858 -31.9477
L-147.7573 -32.0191
" />
<path d="M-147.7573 -32.0191
L-147.7573 -31.8763
" />
<path d="M-146.1858 -30.6620
L-146.2573 -30.5906
" />
<path d="M-146.2573 -30.5906
L-146.4716 -30.5191
" />
<path d="M-146.4716 -30.5191
L-146.6144 -30.5191
" />
<path d="M-146.6144 -30.5191
L-146.8287 -30.5906
" />
<path d="M-146.8287 -30.5906
L-146.9716 -30.7334
" />
<path d="M-146.9716 -30.7334
L-147.0430 -30.8763
" />
<path d="M-147.0430 -30.8763
L-147.1144 -31.1620
" />
<path d="M-147.1144 -31.1620
L-147.1144 -31.3763
" />
<path d="M-147.1144 -31.3763
L-147.0430 -31.6620
" />
<path d="M-147.0430 -31.6620
L-146.9716 -31.8048
" />
<path d="M-146.9716 -31.8048
L-146.8287 -31.9477
" />
<path d="M-146.8287 -31.9477
L-146.6144 -32.0191
" />
<path d="M-146.6144 -32.0191
L-146.4716 -32.0191
" />
<path d="M-146.4716 -32.0191
L-146.2573 -31.9477
" />
<path d="M-146.2573 -31.9477
L-146.1858 -31.8763
" />
<path d="M-144.9001 -30.5191
L-144.9001 -31.3048
" />
<path d="M-144.9001 -31.3048
L-144.9716 -31.4477
" />
<path d="M-144.9716 -31.4477
L-145.1144 -31.5191
" />
<path d="M-145.1144 -31.5191
L-145.4001 -31.5191
" />
<path d="M-145.4001 -31.5191
L-145.5430 -31.4477
" />
<path d="M-144.9001 -30.5906
L-145.0430 -30.5191
" />
<path d="M-145.0430 -30.5191
L-145.4001 -30.5191
" />
<path d="M-145.4001 -30.5191
L-145.5430 -30.5906
" />
<path d="M-145.5430 -30.5906
L-145.6144 -30.7334
" />
<path d="M-145.6144 -30.7334
L-145.6144 -30.8763
" />
<path d="M-145.6144 -30.8763
L-145.5430 -31.0191
" />
<path d="M-145.5430 -31.0191
L-145.4001 -31.0906
" />
<path d="M-145.4001 -31.0906
L-145.0430 -31.0906
" />
<path d="M-145.0430 -31.0906
L-144.9001 -31.1620
" />
<path d="M-143.5430 -30.5191
L-143.5430 -32.0191
" />
<path d="M-143.5430 -30.5906
L-143.6858 -30.5191
" />
<path d="M-143.6858 -30.5191
L-143.9716 -30.5191
" />
<path d="M-143.9716 -30.5191
L-144.1144 -30.5906
" />
<path d="M-144.1144 -30.5906
L-144.1858 -30.6620
" />
<path d="M-144.1858 -30.6620
L-144.2573 -30.8048
" />
<path d="M-144.2573 -30.8048
L-144.2573 -31.2334
" />
<path d="M-144.2573 -31.2334
L-144.1858 -31.3763
" />
<path d="M-144.1858 -31.3763
L-144.1144 -31.4477
" />
<path d="M-144.1144 -31.4477
L-143.9716 -31.5191
" />
<path d="M-143.9716 -31.5191
L-143.6858 -31.5191
" />
<path d="M-143.6858 -31.5191
L-143.5430 -31.4477
" />
<path d="M-141.6858 -31.3048
L-141.1858 -31.3048
" />
<path d="M-140.9716 -30.5191
L-141.6858 -30.5191
" />
<path d="M-141.6858 -30.5191
L-141.6858 -32.0191
" />
<path d="M-141.6858 -32.0191
L-140.9716 -32.0191
" />
<path d="M-140.3287 -30.6620
L-140.2573 -30.5906
" />
<path d="M-140.2573 -30.5906
L-140.3287 -30.5191
" />
<path d="M-140.3287 -30.5191
L-140.4001 -30.5906
" />
<path d="M-140.4001 -30.5906
L-140.3287 -30.6620
" />
<path d="M-140.3287 -30.6620
L-140.3287 -30.5191
" />
<path d="M-139.6144 -30.5191
L-139.6144 -32.0191
" />
<path d="M-139.6144 -32.0191
L-139.2573 -32.0191
" />
<path d="M-139.2573 -32.0191
L-139.0430 -31.9477
" />
<path d="M-139.0430 -31.9477
L-138.9001 -31.8048
" />
<path d="M-138.9001 -31.8048
L-138.8287 -31.6620
" />
<path d="M-138.8287 -31.6620
L-138.7573 -31.3763
" />
<path d="M-138.7573 -31.3763
L-138.7573 -31.1620
" />
<path d="M-138.7573 -31.1620
L-138.8287 -30.8763
" />
<path d="M-138.8287 -30.8763
L-138.9001 -30.7334
" />
<path d="M-138.9001 -30.7334
L-139.0430 -30.5906
" />
<path d="M-139.0430 -30.5906
L-139.2573 -30.5191
" />
<path d="M-139.2573 -30.5191
L-139.6144 -30.5191
" />
<path d="M-138.1144 -30.6620
L-138.0430 -30.5906
" />
<path d="M-138.0430 -30.5906
L-138.1144 -30.5191
" />
<path d="M-138.1144 -30.5191
L-138.1858 -30.5906
" />
<path d="M-138.1858 -30.5906
L-138.1144 -30.6620
" />
<path d="M-138.1144 -30.6620
L-138.1144 -30.5191
" />
<path d="M-137.4716 -30.9477
L-136.7573 -30.9477
" />
<path d="M-137.6144 -30.5191
L-137.1144 -32.0191
" />
<path d="M-137.1144 -32.0191
L-136.6144 -30.5191
" />
<path d="M-136.1144 -30.6620
L-136.0430 -30.5906
" />
<path d="M-136.0430 -30.5906
L-136.1144 -30.5191
" />
<path d="M-136.1144 -30.5191
L-136.1858 -30.5906
" />
<path d="M-136.1858 -30.5906
L-136.1144 -30.6620
" />
<path d="M-136.1144 -30.6620
L-136.1144 -30.5191
" />
<path d="M-133.4716 -30.5191
L-134.3287 -30.5191
" />
<path d="M-133.9001 -30.5191
L-133.9001 -32.0191
" />
<path d="M-133.9001 -32.0191
L-134.0430 -31.8048
" />
<path d="M-134.0430 -31.8048
L-134.1858 -31.6620
" />
<path d="M-134.1858 -31.6620
L-134.3287 -31.5905
" />
<path d="M-132.5430 -32.0191
L-132.4001 -32.0191
" />
<path d="M-132.4001 -32.0191
L-132.2573 -31.9477
" />
<path d="M-132.2573 -31.9477
L-132.1858 -31.8763
" />
<path d="M-132.1858 -31.8763
L-132.1144 -31.7334
" />
<path d="M-132.1144 -31.7334
L-132.0430 -31.4477
" />
<path d="M-132.0430 -31.4477
L-132.0430 -31.0906
" />
<path d="M-132.0430 -31.0906
L-132.1144 -30.8048
" />
<path d="M-132.1144 -30.8048
L-132.1858 -30.6620
" />
<path d="M-132.1858 -30.6620
L-132.2573 -30.5906
" />
<path d="M-132.2573 -30.5906
L-132.4001 -30.5191
" />
<path d="M-132.4001 -30.5191
L-132.5430 -30.5191
" />
<path d="M-132.5430 -30.5191
L-132.6858 -30.5906
" />
<path d="M-132.6858 -30.5906
L-132.7573 -30.6620
" />
<path d="M-132.7573 -30.6620
L-132.8287 -30.8048
" />
<path d="M-132.8287 -30.8048
L-132.9001 -31.0906
" />
<path d="M-132.9001 -31.0906
L-132.9001 -31.4477
" />
<path d="M-132.9001 -31.4477
L-132.8287 -31.7334
" />
<path d="M-132.8287 -31.7334
L-132.7573 -31.8763
" />
<path d="M-132.7573 -31.8763
L-132.6858 -31.9477
" />
<path d="M-132.6858 -31.9477
L-132.5430 -32.0191
" />
<path d="M-131.4001 -30.6620
L-131.3287 -30.5906
" />
<path d="M-131.3287 -30.5906
L-131.4001 -30.5191
" />
<path d="M-131.4001 -30.5191
L-131.4716 -30.5906
" />
<path d="M-131.4716 -30.5906
L-131.4001 -30.6620
" />
<path d="M-131.4001 -30.6620
L-131.4001 -30.5191
" />
<path d="M-130.4001 -32.0191
L-130.2573 -32.0191
" />
<path d="M-130.2573 -32.0191
L-130.1144 -31.9477
" />
<path d="M-130.1144 -31.9477
L-130.0430 -31.8763
" />
<path d="M-130.0430 -31.8763
L-129.9716 -31.7334
" />
<path d="M-129.9716 -31.7334
L-129.9001 -31.4477
" />
<path d="M-129.9001 -31.4477
L-129.9001 -31.0906
" />
<path d="M-129.9001 -31.0906
L-129.9716 -30.8048
" />
<path d="M-129.9716 -30.8048
L-130.0430 -30.6620
" />
<path d="M-130.0430 -30.6620
L-130.1144 -30.5906
" />
<path d="M-130.1144 -30.5906
L-130.2573 -30.5191
" />
<path d="M-130.2573 -30.5191
L-130.4001 -30.5191
" />
<path d="M-130.4001 -30.5191
L-130.5430 -30.5906
" />
<path d="M-130.5430 -30.5906
L-130.6144 -30.6620
" />
<path d="M-130.6144 -30.6620
L-130.6858 -30.8048
" />
<path d="M-130.6858 -30.8048
L-130.7573 -31.0906
" />
<path d="M-130.7573 -31.0906
L-130.7573 -31.4477
" />
<path d="M-130.7573 -31.4477
L-130.6858 -31.7334
" />
<path d="M-130.6858 -31.7334
L-130.6144 -31.8763
" />
<path d="M-130.6144 -31.8763
L-130.5430 -31.9477
" />
<path d="M-130.5430 -31.9477
L-130.4001 -32.0191
" />
<path d="M-129.2573 -30.6620
L-129.1858 -30.5906
" />
<path d="M-129.1858 -30.5906
L-129.2573 -30.5191
" />
<path d="M-129.2573 -30.5191
L-129.3287 -30.5906
" />
<path d="M-129.3287 -30.5906
L-129.2573 -30.6620
" />
<path d="M-129.2573 -30.6620
L-129.2573 -30.5191
" />
<path d="M-128.2573 -32.0191
L-128.1144 -32.0191
" />
<path d="M-128.1144 -32.0191
L-127.9716 -31.9477
" />
<path d="M-127.9716 -31.9477
L-127.9001 -31.8763
" />
<path d="M-127.9001 -31.8763
L-127.8287 -31.7334
" />
<path d="M-127.8287 -31.7334
L-127.7573 -31.4477
" />
<path d="M-127.7573 -31.4477
L-127.7573 -31.0906
" />
<path d="M-127.7573 -31.0906
L-127.8287 -30.8048
" />
<path d="M-127.8287 -30.8048
L-127.9001 -30.6620
" />
<path d="M-127.9001 -30.6620
L-127.9716 -30.5906
" />
<path d="M-127.9716 -30.5906
L-128.1144 -30.5191
" />
<path d="M-128.1144 -30.5191
L-128.2573 -30.5191
" />
<path d="M-128.2573 -30.5191
L-128.4001 -30.5906
" />
<path d="M-128.4001 -30.5906
L-128.4716 -30.6620
" />
<path d="M-128.4716 -30.6620
L-128.5430 -30.8048
" />
<path d="M-128.5430 -30.8048
L-128.6144 -31.0906
" />
<path d="M-128.6144 -31.0906
L-128.6144 -31.4477
" />
<path d="M-128.6144 -31.4477
L-128.5430 -31.7334
" />
<path d="M-128.5430 -31.7334
L-128.4716 -31.8763
" />
<path d="M-128.4716 -31.8763
L-128.4001 -31.9477
" />
<path d="M-128.4001 -31.9477
L-128.2573 -32.0191
" />
</g><path d="M-150.7131 -35.6052
L-42.7131 -35.6052
" />
</g>
<g style="fill:none; 
stroke:#C872AB; stroke-width:0.3000; stroke-opacity:1; 
stroke-linecap:round; stroke-linejoin:round;">
<text x="-64.7131" y="-33.2552"
textLength="9.9571" font-size="2.0000" lengthAdjust="spacingAndGlyphs"
text-anchor="start" opacity="0" stroke-opacity="0">Rev: 0.1</text>
<g class="stroked-text"><desc>Rev: 0.1</desc>
<path d="M-63.3014 -33.3269
L-63.8014 -34.0412
" />
<path d="M-64.1586 -33.3269
L-64.1586 -34.8269
" />
<path d="M-64.1586 -34.8269
L-63.5872 -34.8269
" />
<path d="M-63.5872 -34.8269
L-63.4443 -34.7555
" />
<path d="M-63.4443 -34.7555
L-63.3729 -34.6841
" />
<path d="M-63.3729 -34.6841
L-63.3014 -34.5412
" />
<path d="M-63.3014 -34.5412
L-63.3014 -34.3269
" />
<path d="M-63.3014 -34.3269
L-63.3729 -34.1841
" />
<path d="M-63.3729 -34.1841
L-63.4443 -34.1126
" />
<path d="M-63.4443 -34.1126
L-63.5872 -34.0412
" />
<path d="M-63.5872 -34.0412
L-64.1586 -34.0412
" />
<path d="M-62.0872 -33.3984
L-62.2300 -33.3269
" />
<path d="M-62.2300 -33.3269
L-62.5157 -33.3269
" />
<path d="M-62.5157 -33.3269
L-62.6586 -33.3984
" />
<path d="M-62.6586 -33.3984
L-62.7300 -33.5412
" />
<path d="M-62.7300 -33.5412
L-62.7300 -34.1126
" />
<path d="M-62.7300 -34.1126
L-62.6586 -34.2555
" />
<path d="M-62.6586 -34.2555
L-62.5157 -34.3269
" />
<path d="M-62.5157 -34.3269
L-62.2300 -34.3269
" />
<path d="M-62.2300 -34.3269
L-62.0872 -34.2555
" />
<path d="M-62.0872 -34.2555
L-62.0157 -34.1126
" />
<path d="M-62.0157 -34.1126
L-62.0157 -33.9698
" />
<path d="M-62.0157 -33.9698
L-62.7300 -33.8269
" />
<path d="M-61.5157 -34.3269
L-61.1586 -33.3269
" />
<path d="M-61.1586 -33.3269
L-60.8014 -34.3269
" />
<path d="M-60.2300 -33.4698
L-60.1586 -33.3984
" />
<path d="M-60.1586 -33.3984
L-60.2300 -33.3269
" />
<path d="M-60.2300 -33.3269
L-60.3014 -33.3984
" />
<path d="M-60.3014 -33.3984
L-60.2300 -33.4698
" />
<path d="M-60.2300 -33.4698
L-60.2300 -33.3269
" />
<path d="M-60.2300 -34.2555
L-60.1586 -34.1841
" />
<path d="M-60.1586 -34.1841
L-60.2300 -34.1126
" />
<path d="M-60.2300 -34.1126
L-60.3014 -34.1841
" />
<path d="M-60.3014 -34.1841
L-60.2300 -34.2555
" />
<path d="M-60.2300 -34.2555
L-60.2300 -34.1126
" />
<path d="M-58.0872 -34.8269
L-57.9443 -34.8269
" />
<path d="M-57.9443 -34.8269
L-57.8014 -34.7555
" />
<path d="M-57.8014 -34.7555
L-57.7300 -34.6841
" />
<path d="M-57.7300 -34.6841
L-57.6586 -34.5412
" />
<path d="M-57.6586 -34.5412
L-57.5872 -34.2555
" />
<path d="M-57.5872 -34.2555
L-57.5872 -33.8984
" />
<path d="M-57.5872 -33.8984
L-57.6586 -33.6126
" />
<path d="M-57.6586 -33.6126
L-57.7300 -33.4698
" />
<path d="M-57.7300 -33.4698
L-57.8014 -33.3984
" />
<path d="M-57.8014 -33.3984
L-57.9443 -33.3269
" />
<path d="M-57.9443 -33.3269
L-58.0872 -33.3269
" />
<path d="M-58.0872 -33.3269
L-58.2300 -33.3984
" />
<path d="M-58.2300 -33.3984
L-58.3014 -33.4698
" />
<path d="M-58.3014 -33.4698
L-58.3729 -33.6126
" />
<path d="M-58.3729 -33.6126
L-58.4443 -33.8984
" />
<path d="M-58.4443 -33.8984
L-58.4443 -34.2555
" />
<path d="M-58.4443 -34.2555
L-58.3729 -34.5412
" />
<path d="M-58.3729 -34.5412
L-58.3014 -34.6841
" />
<path d="M-58.3014 -34.6841
L-58.2300 -34.7555
" />
<path d="M-58.2300 -34.7555
L-58.0872 -34.8269
" />
<path d="M-56.9443 -33.4698
L-56.8729 -33.3984
" />
<path d="M-56.8729 -33.3984
L-56.9443 -33.3269
" />
<path d="M-56.9443 -33.3269
L-57.0157 -33.3984
" />
<path d="M-57.0157 -33.3984
L-56.9443 -33.4698
" />
<path d="M-56.9443 -33.4698
L-56.9443 -33.3269
" />
<path d="M-55.4443 -33.3269
L-56.3014 -33.3269
" />
<path d="M-55.8729 -33.3269
L-55.8729 -34.8269
" />
<path d="M-55.8729 -34.8269
L-56.0157 -34.6126
" />
<path d="M-56.0157 -34.6126
L-56.1586 -34.4698
" />
<path d="M-56.1586 -34.4698
L-56.3014 -34.3984
" />
</g></g>
<g style="fill:none; 
stroke:#C872AB; stroke-width:0.1500; stroke-opacity:1; 
stroke-linecap:round; stroke-linejoin:round;">
<text x="-149.7131" y="-33.2552"
textLength="11.6500" font-size="2.0000" lengthAdjust="spacingAndGlyphs"
text-anchor="start" opacity="0" stroke-opacity="0">Size: User</text>
<g class="stroked-text"><desc>Size: User</desc>
<path d="M-149.3287 -33.3905
L-149.1144 -33.3191
" />
<path d="M-149.1144 -33.3191
L-148.7573 -33.3191
" />
<path d="M-148.7573 -33.3191
L-148.6144 -33.3905
" />
<path d="M-148.6144 -33.3905
L-148.5430 -33.4620
" />
<path d="M-148.5430 -33.4620
L-148.4716 -33.6048
" />
<path d="M-148.4716 -33.6048
L-148.4716 -33.7477
" />
<path d="M-148.4716 -33.7477
L-148.5430 -33.8905
" />
<path d="M-148.5430 -33.8905
L-148.6144 -33.9620
" />
<path d="M-148.6144 -33.9620
L-148.7573 -34.0334
" />
<path d="M-148.7573 -34.0334
L-149.0430 -34.1048
" />
<path d="M-149.0430 -34.1048
L-149.1858 -34.1763
" />
<path d="M-149.1858 -34.1763
L-149.2573 -34.2477
" />
<path d="M-149.2573 -34.2477
L-149.3287 -34.3905
" />
<path d="M-149.3287 -34.3905
L-149.3287 -34.5334
" />
<path d="M-149.3287 -34.5334
L-149.2573 -34.6763
" />
<path d="M-149.2573 -34.6763
L-149.1858 -34.7477
" />
<path d="M-149.1858 -34.7477
L-149.0430 -34.8191
" />
<path d="M-149.0430 -34.8191
L-148.6858 -34.8191
" />
<path d="M-148.6858 -34.8191
L-148.4716 -34.7477
" />
<path d="M-147.8287 -33.3191
L-147.8287 -34.3191
" />
<path d="M-147.8287 -34.8191
L-147.9001 -34.7477
" />
<path d="M-147.9001 -34.7477
L-147.8287 -34.6763
" />
<path d="M-147.8287 -34.6763
L-147.7573 -34.7477
" />
<path d="M-147.7573 -34.7477
L-147.8287 -34.8191
" />
<path d="M-147.8287 -34.8191
L-147.8287 -34.6763
" />
<path d="M-147.2573 -34.3191
L-146.4716 -34.3191
" />
<path d="M-146.4716 -34.3191
L-147.2573 -33.3191
" />
<path d="M-147.2573 -33.3191
L-146.4716 -33.3191
" />
<path d="M-145.3287 -33.3905
L-145.4716 -33.3191
" />
<path d="M-145.4716 -33.3191
L-145.7573 -33.3191
" />
<path d="M-145.7573 -33.3191
L-145.9001 -33.3905
" />
<path d="M-145.9001 -33.3905
L-145.9716 -33.5334
" />
<path d="M-145.9716 -33.5334
L-145.9716 -34.1048
" />
<path d="M-145.9716 -34.1048
L-145.9001 -34.2477
" />
<path d="M-145.9001 -34.2477
L-145.7573 -34.3191
" />
<path d="M-145.7573 -34.3191
L-145.4716 -34.3191
" />
<path d="M-145.4716 -34.3191
L-145.3287 -34.2477
" />
<path d="M-145.3287 -34.2477
L-145.2573 -34.1048
" />
<path d="M-145.2573 -34.1048
L-145.2573 -33.9620
" />
<path d="M-145.2573 -33.9620
L-145.9716 -33.8191
" />
<path d="M-144.6144 -33.4620
L-144.5430 -33.3905
" />
<path d="M-144.5430 -33.3905
L-144.6144 -33.3191
" />
<path d="M-144.6144 -33.3191
L-144.6858 -33.3905
" />
<path d="M-144.6858 -33.3905
L-144.6144 -33.4620
" />
<path d="M-144.6144 -33.4620
L-144.6144 -33.3191
" />
<path d="M-144.6144 -34.2477
L-144.5430 -34.1763
" />
<path d="M-144.5430 -34.1763
L-144.6144 -34.1048
" />
<path d="M-144.6144 -34.1048
L-144.6858 -34.1763
" />
<path d="M-144.6858 -34.1763
L-144.6144 -34.2477
" />
<path d="M-144.6144 -34.2477
L-144.6144 -34.1048
" />
<path d="M-142.7573 -34.8191
L-142.7573 -33.6048
" />
<path d="M-142.7573 -33.6048
L-142.6858 -33.4620
" />
<path d="M-142.6858 -33.4620
L-142.6144 -33.3905
" />
<path d="M-142.6144 -33.3905
L-142.4716 -33.3191
" />
<path d="M-142.4716 -33.3191
L-142.1858 -33.3191
" />
<path d="M-142.1858 -33.3191
L-142.0430 -33.3905
" />
<path d="M-142.0430 -33.3905
L-141.9716 -33.4620
" />
<path d="M-141.9716 -33.4620
L-141.9001 -33.6048
" />
<path d="M-141.9001 -33.6048
L-141.9001 -34.8191
" />
<path d="M-141.2573 -33.3905
L-141.1144 -33.3191
" />
<path d="M-141.1144 -33.3191
L-140.8287 -33.3191
" />
<path d="M-140.8287 -33.3191
L-140.6858 -33.3905
" />
<path d="M-140.6858 -33.3905
L-140.6144 -33.5334
" />
<path d="M-140.6144 -33.5334
L-140.6144 -33.6048
" />
<path d="M-140.6144 -33.6048
L-140.6858 -33.7477
" />
<path d="M-140.6858 -33.7477
L-140.8287 -33.8191
" />
<path d="M-140.8287 -33.8191
L-141.0430 -33.8191
" />
<path d="M-141.0430 -33.8191
L-141.1858 -33.8905
" />
<path d="M-141.1858 -33.8905
L-141.2573 -34.0334
" />
<path d="M-141.2573 -34.0334
L-141.2573 -34.1048
" />
<path d="M-141.2573 -34.1048
L-141.1858 -34.2477
" />
<path d="M-141.1858 -34.2477
L-141.0430 -34.3191
" />
<path d="M-141.0430 -34.3191
L-140.8287 -34.3191
" />
<path d="M-140.8287 -34.3191
L-140.6858 -34.2477
" />
<path d="M-139.4001 -33.3905
L-139.5430 -33.3191
" />
<path d="M-139.5430 -33.3191
L-139.8287 -33.3191
" />
<path d="M-139.8287 -33.3191
L-139.9716 -33.3905
" />
<path d="M-139.9716 -33.3905
L-140.0430 -33.5334
" />
<path d="M-140.0430 -33.5334
L-140.0430 -34.1048
" />
<path d="M-140.0430 -34.1048
L-139.9716 -34.2477
" />
<path d="M-139.9716 -34.2477
L-139.8287 -34.3191
" />
<path d="M-139.8287 -34.3191
L-139.5430 -34.3191
" />
<path d="M-139.5430 -34.3191
L-139.4001 -34.2477
" />
<path d="M-139.4001 -34.2477
L-139.3287 -34.1048
" />
<path d="M-139.3287 -34.1048
L-139.3287 -33.9620
" />
<path d="M-139.3287 -33.9620
L-140.0430 -33.8191
" />
<path d="M-138.6858 -33.3191
L-138.6858 -34.3191
" />
<path d="M-138.6858 -34.0334
L-138.6144 -34.1763
" />
<path d="M-138.6144 -34.1763
L-138.5430 -34.2477
" />
<path d="M-138.5430 -34.2477
L-138.4001 -34.3191
" />
<path d="M-138.4001 -34.3191
L-138.2573 -34.3191
" />
</g><text x="-64.7131" y="-30.4552"
textLength="8.5071" font-size="2.0000" lengthAdjust="spacingAndGlyphs"
text-anchor="start" opacity="0" stroke-opacity="0">Id: 1/1</text>
<g class="stroked-text"><desc>Id: 1/1</desc>
<path d="M-64.2573 -30.5191
L-64.2573 -32.0191
" />
<path d="M-62.9001 -30.5191
L-62.9001 -32.0191
" />
<path d="M-62.9001 -30.5906
L-63.0430 -30.5191
" />
<path d="M-63.0430 -30.5191
L-63.3287 -30.5191
" />
<path d="M-63.3287 -30.5191
L-63.4716 -30.5906
" />
<path d="M-63.4716 -30.5906
L-63.5430 -30.6620
" />
<path d="M-63.5430 -30.6620
L-63.6144 -30.8048
" />
<path d="M-63.6144 -30.8048
L-63.6144 -31.2334
" />
<path d="M-63.6144 -31.2334
L-63.5430 -31.3763
" />
<path d="M-63.5430 -31.3763
L-63.4716 -31.4477
" />
<path d="M-63.4716 -31.4477
L-63.3287 -31.5191
" />
<path d="M-63.3287 -31.5191
L-63.0430 -31.5191
" />
<path d="M-63.0430 -31.5191
L-62.9001 -31.4477
" />
<path d="M-62.1858 -30.6620
L-62.1144 -30.5906
" />
<path d="M-62.1144 -30.5906
L-62.1858 -30.5191
" />
<path d="M-62.1858 -30.5191
L-62.2573 -30.5906
" />
<path d="M-62.2573 -30.5906
L-62.1858 -30.6620
" />
<path d="M-62.1858 -30.6620
L-62.1858 -30.5191
" />
<path d="M-62.1858 -31.4477
L-62.1144 -31.3763
" />
<path d="M-62.1144 -31.3763
L-62.1858 -31.3048
" />
<path d="M-62.1858 -31.3048
L-62.2573 -31.3763
" />
<path d="M-62.2573 -31.3763
L-62.1858 -31.4477
" />
<path d="M-62.1858 -31.4477
L-62.1858 -31.3048
" />
<path d="M-59.5430 -30.5191
L-60.4001 -30.5191
" />
<path d="M-59.9716 -30.5191
L-59.9716 -32.0191
" />
<path d="M-59.9716 -32.0191
L-60.1144 -31.8048
" />
<path d="M-60.1144 -31.8048
L-60.2573 -31.6620
" />
<path d="M-60.2573 -31.6620
L-60.4001 -31.5905
" />
<path d="M-57.8287 -32.0906
L-59.1144 -30.1620
" />
<path d="M-56.5430 -30.5191
L-57.4001 -30.5191
" />
<path d="M-56.9716 -30.5191
L-56.9716 -32.0191
" />
<path d="M-56.9716 -32.0191
L-57.1144 -31.8048
" />
<path d="M-57.1144 -31.8048
L-57.2573 -31.6620
" />
<path d="M-57.2573 -31.6620
L-57.4001 -31.5905
" />
</g><path d="M-150.7131 -39.6052
L-42.7131 -39.6052
" />
</g>
<g style="fill:none; 
stroke:#C872AB; stroke-width:0.4000; stroke-opacity:1; 
stroke-linecap:round; stroke-linejoin:round;">
<text x="-149.7131" y="-36.8053"
textLength="60.7048" font-size="2.6667" lengthAdjust="spacingAndGlyphs"
text-anchor="start" opacity="0" stroke-opacity="0">Title: Tsumikoro TMC2130 Dual Stepper</text>
<g class="stroked-text"><desc>Title: Tsumikoro TMC2130 Dual Stepper</desc>
<path d="M-149.0214 -38.9008
L-147.8785 -38.9008
" />
<path d="M-148.6999 -36.9008
L-148.4499 -38.9008
" />
<path d="M-147.4618 -36.9008
L-147.2952 -38.2341
" />
<path d="M-147.2118 -38.9008
L-147.3190 -38.8056
" />
<path d="M-147.3190 -38.8056
L-147.2357 -38.7103
" />
<path d="M-147.2357 -38.7103
L-147.1285 -38.8056
" />
<path d="M-147.1285 -38.8056
L-147.2118 -38.9008
" />
<path d="M-147.2118 -38.9008
L-147.2357 -38.7103
" />
<path d="M-146.6285 -38.2341
L-145.8666 -38.2341
" />
<path d="M-146.2595 -38.9008
L-146.4737 -37.1865
" />
<path d="M-146.4737 -37.1865
L-146.4023 -36.9960
" />
<path d="M-146.4023 -36.9960
L-146.2237 -36.9008
" />
<path d="M-146.2237 -36.9008
L-146.0333 -36.9008
" />
<path d="M-145.0809 -36.9008
L-145.2595 -36.9960
" />
<path d="M-145.2595 -36.9960
L-145.3309 -37.1865
" />
<path d="M-145.3309 -37.1865
L-145.1166 -38.9008
" />
<path d="M-143.5452 -36.9960
L-143.7476 -36.9008
" />
<path d="M-143.7476 -36.9008
L-144.1285 -36.9008
" />
<path d="M-144.1285 -36.9008
L-144.3071 -36.9960
" />
<path d="M-144.3071 -36.9960
L-144.3785 -37.1865
" />
<path d="M-144.3785 -37.1865
L-144.2833 -37.9484
" />
<path d="M-144.2833 -37.9484
L-144.1642 -38.1389
" />
<path d="M-144.1642 -38.1389
L-143.9618 -38.2341
" />
<path d="M-143.9618 -38.2341
L-143.5809 -38.2341
" />
<path d="M-143.5809 -38.2341
L-143.4023 -38.1389
" />
<path d="M-143.4023 -38.1389
L-143.3309 -37.9484
" />
<path d="M-143.3309 -37.9484
L-143.3547 -37.7580
" />
<path d="M-143.3547 -37.7580
L-144.3309 -37.5675
" />
<path d="M-142.5809 -37.0913
L-142.4976 -36.9960
" />
<path d="M-142.4976 -36.9960
L-142.6047 -36.9008
" />
<path d="M-142.6047 -36.9008
L-142.6880 -36.9960
" />
<path d="M-142.6880 -36.9960
L-142.5809 -37.0913
" />
<path d="M-142.5809 -37.0913
L-142.6047 -36.9008
" />
<path d="M-142.4499 -38.1389
L-142.3666 -38.0437
" />
<path d="M-142.3666 -38.0437
L-142.4737 -37.9484
" />
<path d="M-142.4737 -37.9484
L-142.5571 -38.0437
" />
<path d="M-142.5571 -38.0437
L-142.4499 -38.1389
" />
<path d="M-142.4499 -38.1389
L-142.4737 -37.9484
" />
<path d="M-140.1642 -38.9008
L-139.0214 -38.9008
" />
<path d="M-139.8428 -36.9008
L-139.5928 -38.9008
" />
<path d="M-138.6880 -36.9960
L-138.5095 -36.9008
" />
<path d="M-138.5095 -36.9008
L-138.1285 -36.9008
" />
<path d="M-138.1285 -36.9008
L-137.9261 -36.9960
" />
<path d="M-137.9261 -36.9960
L-137.8071 -37.1865
" />
<path d="M-137.8071 -37.1865
L-137.7952 -37.2818
" />
<path d="M-137.7952 -37.2818
L-137.8666 -37.4722
" />
<path d="M-137.8666 -37.4722
L-138.0452 -37.5675
" />
<path d="M-138.0452 -37.5675
L-138.3309 -37.5675
" />
<path d="M-138.3309 -37.5675
L-138.5095 -37.6627
" />
<path d="M-138.5095 -37.6627
L-138.5809 -37.8532
" />
<path d="M-138.5809 -37.8532
L-138.5690 -37.9484
" />
<path d="M-138.5690 -37.9484
L-138.4499 -38.1389
" />
<path d="M-138.4499 -38.1389
L-138.2476 -38.2341
" />
<path d="M-138.2476 -38.2341
L-137.9618 -38.2341
" />
<path d="M-137.9618 -38.2341
L-137.7833 -38.1389
" />
<path d="M-135.9618 -38.2341
L-136.1285 -36.9008
" />
<path d="M-136.8190 -38.2341
L-136.9499 -37.1865
" />
<path d="M-136.9499 -37.1865
L-136.8785 -36.9960
" />
<path d="M-136.8785 -36.9960
L-136.6999 -36.9008
" />
<path d="M-136.6999 -36.9008
L-136.4142 -36.9008
" />
<path d="M-136.4142 -36.9008
L-136.2118 -36.9960
" />
<path d="M-136.2118 -36.9960
L-136.1047 -37.0913
" />
<path d="M-135.1761 -36.9008
L-135.0095 -38.2341
" />
<path d="M-135.0333 -38.0437
L-134.9261 -38.1389
" />
<path d="M-134.9261 -38.1389
L-134.7237 -38.2341
" />
<path d="M-134.7237 -38.2341
L-134.4380 -38.2341
" />
<path d="M-134.4380 -38.2341
L-134.2595 -38.1389
" />
<path d="M-134.2595 -38.1389
L-134.1880 -37.9484
" />
<path d="M-134.1880 -37.9484
L-134.3190 -36.9008
" />
<path d="M-134.1880 -37.9484
L-134.0690 -38.1389
" />
<path d="M-134.0690 -38.1389
L-133.8666 -38.2341
" />
<path d="M-133.8666 -38.2341
L-133.5809 -38.2341
" />
<path d="M-133.5809 -38.2341
L-133.4023 -38.1389
" />
<path d="M-133.4023 -38.1389
L-133.3309 -37.9484
" />
<path d="M-133.3309 -37.9484
L-133.4618 -36.9008
" />
<path d="M-132.5095 -36.9008
L-132.3428 -38.2341
" />
<path d="M-132.2595 -38.9008
L-132.3666 -38.8056
" />
<path d="M-132.3666 -38.8056
L-132.2833 -38.7103
" />
<path d="M-132.2833 -38.7103
L-132.1761 -38.8056
" />
<path d="M-132.1761 -38.8056
L-132.2595 -38.9008
" />
<path d="M-132.2595 -38.9008
L-132.2833 -38.7103
" />
<path d="M-131.5571 -36.9008
L-131.3071 -38.9008
" />
<path d="M-131.2714 -37.6627
L-130.7952 -36.9008
" />
<path d="M-130.6285 -38.2341
L-131.4857 -37.4722
" />
<path d="M-129.6523 -36.9008
L-129.8309 -36.9960
" />
<path d="M-129.8309 -36.9960
L-129.9142 -37.0913
" />
<path d="M-129.9142 -37.0913
L-129.9857 -37.2818
" />
<path d="M-129.9857 -37.2818
L-129.9142 -37.8532
" />
<path d="M-129.9142 -37.8532
L-129.7952 -38.0437
" />
<path d="M-129.7952 -38.0437
L-129.6880 -38.1389
" />
<path d="M-129.6880 -38.1389
L-129.4857 -38.2341
" />
<path d="M-129.4857 -38.2341
L-129.1999 -38.2341
" />
<path d="M-129.1999 -38.2341
L-129.0214 -38.1389
" />
<path d="M-129.0214 -38.1389
L-128.9380 -38.0437
" />
<path d="M-128.9380 -38.0437
L-128.8666 -37.8532
" />
<path d="M-128.8666 -37.8532
L-128.9380 -37.2818
" />
<path d="M-128.9380 -37.2818
L-129.0571 -37.0913
" />
<path d="M-129.0571 -37.0913
L-129.1642 -36.9960
" />
<path d="M-129.1642 -36.9960
L-129.3666 -36.9008
" />
<path d="M-129.3666 -36.9008
L-129.6523 -36.9008
" />
<path d="M-128.1285 -36.9008
L-127.9618 -38.2341
" />
<path d="M-128.0095 -37.8532
L-127.8904 -38.0437
" />
<path d="M-127.8904 -38.0437
L-127.7833 -38.1389
" />
<path d="M-127.7833 -38.1389
L-127.5809 -38.2341
" />
<path d="M-127.5809 -38.2341
L-127.3904 -38.2341
" />
<path d="M-126.6047 -36.9008
L-126.7833 -36.9960
" />
<path d="M-126.7833 -36.9960
L-126.8666 -37.0913
" />
<path d="M-126.8666 -37.0913
L-126.9380 -37.2818
" />
<path d="M-126.9380 -37.2818
L-126.8666 -37.8532
" />
<path d="M-126.8666 -37.8532
L-126.7476 -38.0437
" />
<path d="M-126.7476 -38.0437
L-126.6404 -38.1389
" />
<path d="M-126.6404 -38.1389
L-126.4380 -38.2341
" />
<path d="M-126.4380 -38.2341
L-126.1523 -38.2341
" />
<path d="M-126.1523 -38.2341
L-125.9737 -38.1389
" />
<path d="M-125.9737 -38.1389
L-125.8904 -38.0437
" />
<path d="M-125.8904 -38.0437
L-125.8190 -37.8532
" />
<path d="M-125.8190 -37.8532
L-125.8904 -37.2818
" />
<path d="M-125.8904 -37.2818
L-126.0095 -37.0913
" />
<path d="M-126.0095 -37.0913
L-126.1166 -36.9960
" />
<path d="M-126.1166 -36.9960
L-126.3190 -36.9008
" />
<path d="M-126.3190 -36.9008
L-126.6047 -36.9008
" />
<path d="M-123.5928 -38.9008
L-122.4499 -38.9008
" />
<path d="M-123.2714 -36.9008
L-123.0214 -38.9008
" />
<path d="M-122.0333 -36.9008
L-121.7833 -38.9008
" />
<path d="M-121.7833 -38.9008
L-121.2952 -37.4722
" />
<path d="M-121.2952 -37.4722
L-120.4499 -38.9008
" />
<path d="M-120.4499 -38.9008
L-120.6999 -36.9008
" />
<path d="M-118.5809 -37.0913
L-118.6880 -36.9960
" />
<path d="M-118.6880 -36.9960
L-118.9857 -36.9008
" />
<path d="M-118.9857 -36.9008
L-119.1761 -36.9008
" />
<path d="M-119.1761 -36.9008
L-119.4499 -36.9960
" />
<path d="M-119.4499 -36.9960
L-119.6166 -37.1865
" />
<path d="M-119.6166 -37.1865
L-119.6880 -37.3770
" />
<path d="M-119.6880 -37.3770
L-119.7357 -37.7580
" />
<path d="M-119.7357 -37.7580
L-119.6999 -38.0437
" />
<path d="M-119.6999 -38.0437
L-119.5571 -38.4246
" />
<path d="M-119.5571 -38.4246
L-119.4380 -38.6151
" />
<path d="M-119.4380 -38.6151
L-119.2237 -38.8056
" />
<path d="M-119.2237 -38.8056
L-118.9261 -38.9008
" />
<path d="M-118.9261 -38.9008
L-118.7357 -38.9008
" />
<path d="M-118.7357 -38.9008
L-118.4618 -38.8056
" />
<path d="M-118.4618 -38.8056
L-118.3785 -38.7103
" />
<path d="M-117.6166 -38.7103
L-117.5095 -38.8056
" />
<path d="M-117.5095 -38.8056
L-117.3071 -38.9008
" />
<path d="M-117.3071 -38.9008
L-116.8309 -38.9008
" />
<path d="M-116.8309 -38.9008
L-116.6523 -38.8056
" />
<path d="M-116.6523 -38.8056
L-116.5690 -38.7103
" />
<path d="M-116.5690 -38.7103
L-116.4976 -38.5199
" />
<path d="M-116.4976 -38.5199
L-116.5214 -38.3294
" />
<path d="M-116.5214 -38.3294
L-116.6523 -38.0437
" />
<path d="M-116.6523 -38.0437
L-117.9380 -36.9008
" />
<path d="M-117.9380 -36.9008
L-116.6999 -36.9008
" />
<path d="M-114.7952 -36.9008
L-115.9380 -36.9008
" />
<path d="M-115.3666 -36.9008
L-115.1166 -38.9008
" />
<path d="M-115.1166 -38.9008
L-115.3428 -38.6151
" />
<path d="M-115.3428 -38.6151
L-115.5571 -38.4246
" />
<path d="M-115.5571 -38.4246
L-115.7595 -38.3294
" />
<path d="M-113.8785 -38.9008
L-112.6404 -38.9008
" />
<path d="M-112.6404 -38.9008
L-113.4023 -38.1389
" />
<path d="M-113.4023 -38.1389
L-113.1166 -38.1389
" />
<path d="M-113.1166 -38.1389
L-112.9380 -38.0437
" />
<path d="M-112.9380 -38.0437
L-112.8547 -37.9484
" />
<path d="M-112.8547 -37.9484
L-112.7833 -37.7580
" />
<path d="M-112.7833 -37.7580
L-112.8428 -37.2818
" />
<path d="M-112.8428 -37.2818
L-112.9618 -37.0913
" />
<path d="M-112.9618 -37.0913
L-113.0690 -36.9960
" />
<path d="M-113.0690 -36.9960
L-113.2714 -36.9008
" />
<path d="M-113.2714 -36.9008
L-113.8428 -36.9008
" />
<path d="M-113.8428 -36.9008
L-114.0214 -36.9960
" />
<path d="M-114.0214 -36.9960
L-114.1047 -37.0913
" />
<path d="M-111.4023 -38.9008
L-111.2118 -38.9008
" />
<path d="M-111.2118 -38.9008
L-111.0333 -38.8056
" />
<path d="M-111.0333 -38.8056
L-110.9499 -38.7103
" />
<path d="M-110.9499 -38.7103
L-110.8785 -38.5199
" />
<path d="M-110.8785 -38.5199
L-110.8309 -38.1389
" />
<path d="M-110.8309 -38.1389
L-110.8904 -37.6627
" />
<path d="M-110.8904 -37.6627
L-111.0333 -37.2818
" />
<path d="M-111.0333 -37.2818
L-111.1523 -37.0913
" />
<path d="M-111.1523 -37.0913
L-111.2595 -36.9960
" />
<path d="M-111.2595 -36.9960
L-111.4618 -36.9008
" />
<path d="M-111.4618 -36.9008
L-111.6523 -36.9008
" />
<path d="M-111.6523 -36.9008
L-111.8309 -36.9960
" />
<path d="M-111.8309 -36.9960
L-111.9142 -37.0913
" />
<path d="M-111.9142 -37.0913
L-111.9857 -37.2818
" />
<path d="M-111.9857 -37.2818
L-112.0333 -37.6627
" />
<path d="M-112.0333 -37.6627
L-111.9737 -38.1389
" />
<path d="M-111.9737 -38.1389
L-111.8309 -38.5199
" />
<path d="M-111.8309 -38.5199
L-111.7118 -38.7103
" />
<path d="M-111.7118 -38.7103
L-111.6047 -38.8056
" />
<path d="M-111.6047 -38.8056
L-111.4023 -38.9008
" />
<path d="M-108.6047 -36.9008
L-108.3547 -38.9008
" />
<path d="M-108.3547 -38.9008
L-107.8785 -38.9008
" />
<path d="M-107.8785 -38.9008
L-107.6047 -38.8056
" />
<path d="M-107.6047 -38.8056
L-107.4380 -38.6151
" />
<path d="M-107.4380 -38.6151
L-107.3666 -38.4246
" />
<path d="M-107.3666 -38.4246
L-107.3190 -38.0437
" />
<path d="M-107.3190 -38.0437
L-107.3547 -37.7580
" />
<path d="M-107.3547 -37.7580
L-107.4976 -37.3770
" />
<path d="M-107.4976 -37.3770
L-107.6166 -37.1865
" />
<path d="M-107.6166 -37.1865
L-107.8309 -36.9960
" />
<path d="M-107.8309 -36.9960
L-108.1285 -36.9008
" />
<path d="M-108.1285 -36.9008
L-108.6047 -36.9008
" />
<path d="M-105.5809 -38.2341
L-105.7476 -36.9008
" />
<path d="M-106.4380 -38.2341
L-106.5690 -37.1865
" />
<path d="M-106.5690 -37.1865
L-106.4976 -36.9960
" />
<path d="M-106.4976 -36.9960
L-106.3190 -36.9008
" />
<path d="M-106.3190 -36.9008
L-106.0333 -36.9008
" />
<path d="M-106.0333 -36.9008
L-105.8309 -36.9960
" />
<path d="M-105.8309 -36.9960
L-105.7237 -37.0913
" />
<path d="M-103.9380 -36.9008
L-103.8071 -37.9484
" />
<path d="M-103.8071 -37.9484
L-103.8785 -38.1389
" />
<path d="M-103.8785 -38.1389
L-104.0571 -38.2341
" />
<path d="M-104.0571 -38.2341
L-104.4380 -38.2341
" />
<path d="M-104.4380 -38.2341
L-104.6404 -38.1389
" />
<path d="M-103.9261 -36.9960
L-104.1285 -36.9008
" />
<path d="M-104.1285 -36.9008
L-104.6047 -36.9008
" />
<path d="M-104.6047 -36.9008
L-104.7833 -36.9960
" />
<path d="M-104.7833 -36.9960
L-104.8547 -37.1865
" />
<path d="M-104.8547 -37.1865
L-104.8309 -37.3770
" />
<path d="M-104.8309 -37.3770
L-104.7118 -37.5675
" />
<path d="M-104.7118 -37.5675
L-104.5095 -37.6627
" />
<path d="M-104.5095 -37.6627
L-104.0333 -37.6627
" />
<path d="M-104.0333 -37.6627
L-103.8309 -37.7580
" />
<path d="M-102.6999 -36.9008
L-102.8785 -36.9960
" />
<path d="M-102.8785 -36.9960
L-102.9499 -37.1865
" />
<path d="M-102.9499 -37.1865
L-102.7357 -38.9008
" />
<path d="M-100.4976 -36.9960
L-100.2237 -36.9008
" />
<path d="M-100.2237 -36.9008
L-99.7476 -36.9008
" />
<path d="M-99.7476 -36.9008
L-99.5452 -36.9960
" />
<path d="M-99.5452 -36.9960
L-99.4380 -37.0913
" />
<path d="M-99.4380 -37.0913
L-99.3190 -37.2818
" />
<path d="M-99.3190 -37.2818
L-99.2952 -37.4722
" />
<path d="M-99.2952 -37.4722
L-99.3666 -37.6627
" />
<path d="M-99.3666 -37.6627
L-99.4499 -37.7580
" />
<path d="M-99.4499 -37.7580
L-99.6285 -37.8532
" />
<path d="M-99.6285 -37.8532
L-99.9976 -37.9484
" />
<path d="M-99.9976 -37.9484
L-100.1761 -38.0437
" />
<path d="M-100.1761 -38.0437
L-100.2595 -38.1389
" />
<path d="M-100.2595 -38.1389
L-100.3309 -38.3294
" />
<path d="M-100.3309 -38.3294
L-100.3071 -38.5199
" />
<path d="M-100.3071 -38.5199
L-100.1880 -38.7103
" />
<path d="M-100.1880 -38.7103
L-100.0809 -38.8056
" />
<path d="M-100.0809 -38.8056
L-99.8785 -38.9008
" />
<path d="M-99.8785 -38.9008
L-99.4023 -38.9008
" />
<path d="M-99.4023 -38.9008
L-99.1285 -38.8056
" />
<path d="M-98.6285 -38.2341
L-97.8666 -38.2341
" />
<path d="M-98.2595 -38.9008
L-98.4737 -37.1865
" />
<path d="M-98.4737 -37.1865
L-98.4023 -36.9960
" />
<path d="M-98.4023 -36.9960
L-98.2237 -36.9008
" />
<path d="M-98.2237 -36.9008
L-98.0333 -36.9008
" />
<path d="M-96.5928 -36.9960
L-96.7952 -36.9008
" />
<path d="M-96.7952 -36.9008
L-97.1761 -36.9008
" />
<path d="M-97.1761 -36.9008
L-97.3547 -36.9960
" />
<path d="M-97.3547 -36.9960
L-97.4261 -37.1865
" />
<path d="M-97.4261 -37.1865
L-97.3309 -37.9484
" />
<path d="M-97.3309 -37.9484
L-97.2118 -38.1389
" />
<path d="M-97.2118 -38.1389
L-97.0095 -38.2341
" />
<path d="M-97.0095 -38.2341
L-96.6285 -38.2341
" />
<path d="M-96.6285 -38.2341
L-96.4499 -38.1389
" />
<path d="M-96.4499 -38.1389
L-96.3785 -37.9484
" />
<path d="M-96.3785 -37.9484
L-96.4023 -37.7580
" />
<path d="M-96.4023 -37.7580
L-97.3785 -37.5675
" />
<path d="M-95.4856 -38.2341
L-95.7356 -36.2341
" />
<path d="M-95.4976 -38.1389
L-95.2952 -38.2341
" />
<path d="M-95.2952 -38.2341
L-94.9142 -38.2341
" />
<path d="M-94.9142 -38.2341
L-94.7356 -38.1389
" />
<path d="M-94.7356 -38.1389
L-94.6523 -38.0437
" />
<path d="M-94.6523 -38.0437
L-94.5809 -37.8532
" />
<path d="M-94.5809 -37.8532
L-94.6523 -37.2818
" />
<path d="M-94.6523 -37.2818
L-94.7714 -37.0913
" />
<path d="M-94.7714 -37.0913
L-94.8785 -36.9960
" />
<path d="M-94.8785 -36.9960
L-95.0809 -36.9008
" />
<path d="M-95.0809 -36.9008
L-95.4618 -36.9008
" />
<path d="M-95.4618 -36.9008
L-95.6404 -36.9960
" />
<path d="M-93.6761 -38.2341
L-93.9261 -36.2341
" />
<path d="M-93.6880 -38.1389
L-93.4856 -38.2341
" />
<path d="M-93.4856 -38.2341
L-93.1047 -38.2341
" />
<path d="M-93.1047 -38.2341
L-92.9261 -38.1389
" />
<path d="M-92.9261 -38.1389
L-92.8428 -38.0437
" />
<path d="M-92.8428 -38.0437
L-92.7714 -37.8532
" />
<path d="M-92.7714 -37.8532
L-92.8428 -37.2818
" />
<path d="M-92.8428 -37.2818
L-92.9618 -37.0913
" />
<path d="M-92.9618 -37.0913
L-93.0690 -36.9960
" />
<path d="M-93.0690 -36.9960
L-93.2714 -36.9008
" />
<path d="M-93.2714 -36.9008
L-93.6523 -36.9008
" />
<path d="M-93.6523 -36.9008
L-93.8309 -36.9960
" />
<path d="M-91.2595 -36.9960
L-91.4618 -36.9008
" />
<path d="M-91.4618 -36.9008
L-91.8428 -36.9008
" />
<path d="M-91.8428 -36.9008
L-92.0214 -36.9960
" />
<path d="M-92.0214 -36.9960
L-92.0928 -37.1865
" />
<path d="M-92.0928 -37.1865
L-91.9976 -37.9484
" />
<path d="M-91.9976 -37.9484
L-91.8785 -38.1389
" />
<path d="M-91.8785 -38.1389
L-91.6761 -38.2341
" />
<path d="M-91.6761 -38.2341
L-91.2952 -38.2341
" />
<path d="M-91.2952 -38.2341
L-91.1166 -38.1389
" />
<path d="M-91.1166 -38.1389
L-91.0452 -37.9484
" />
<path d="M-91.0452 -37.9484
L-91.0690 -37.7580
" />
<path d="M-91.0690 -37.7580
L-92.0452 -37.5675
" />
<path d="M-90.3190 -36.9008
L-90.1523 -38.2341
" />
<path d="M-90.1999 -37.8532
L-90.0809 -38.0437
" />
<path d="M-90.0809 -38.0437
L-89.9737 -38.1389
" />
<path d="M-89.9737 -38.1389
L-89.7714 -38.2341
" />
<path d="M-89.7714 -38.2341
L-89.5809 -38.2341
" />
</g></g>
<g style="fill:none; 
stroke:#C872AB; stroke-width:0.1500; stroke-opacity:1; 
stroke-linecap:round; stroke-linejoin:round;">
<text x="-149.7131" y="-40.6552"
textLength="30.9357" font-size="2.0000" lengthAdjust="spacingAndGlyphs"
text-anchor="start" opacity="0" stroke-opacity="0">File: ministepper.kicad_pcb</text>
<g class="stroked-text"><desc>File: ministepper.kicad_pcb</desc>
<path d="M-148.7573 -41.5048
L-149.2573 -41.5048
" />
<path d="M-149.2573 -40.7191
L-149.2573 -42.2191
" />
<path d="M-149.2573 -42.2191
L-148.5430 -42.2191
" />
<path d="M-147.9716 -40.7191
L-147.9716 -41.7191
" />
<path d="M-147.9716 -42.2191
L-148.0430 -42.1477
" />
<path d="M-148.0430 -42.1477
L-147.9716 -42.0763
" />
<path d="M-147.9716 -42.0763
L-147.9001 -42.1477
" />
<path d="M-147.9001 -42.1477
L-147.9716 -42.2191
" />
<path d="M-147.9716 -42.2191
L-147.9716 -42.0763
" />
<path d="M-147.0430 -40.7191
L-147.1858 -40.7905
" />
<path d="M-147.1858 -40.7905
L-147.2573 -40.9334
" />
<path d="M-147.2573 -40.9334
L-147.2573 -42.2191
" />
<path d="M-145.9001 -40.7905
L-146.0430 -40.7191
" />
<path d="M-146.0430 -40.7191
L-146.3287 -40.7191
" />
<path d="M-146.3287 -40.7191
L-146.4716 -40.7905
" />
<path d="M-146.4716 -40.7905
L-146.5430 -40.9334
" />
<path d="M-146.5430 -40.9334
L-146.5430 -41.5048
" />
<path d="M-146.5430 -41.5048
L-146.4716 -41.6477
" />
<path d="M-146.4716 -41.6477
L-146.3287 -41.7191
" />
<path d="M-146.3287 -41.7191
L-146.0430 -41.7191
" />
<path d="M-146.0430 -41.7191
L-145.9001 -41.6477
" />
<path d="M-145.9001 -41.6477
L-145.8287 -41.5048
" />
<path d="M-145.8287 -41.5048
L-145.8287 -41.3620
" />
<path d="M-145.8287 -41.3620
L-146.5430 -41.2191
" />
<path d="M-145.1858 -40.8620
L-145.1144 -40.7905
" />
<path d="M-145.1144 -40.7905
L-145.1858 -40.7191
" />
<path d="M-145.1858 -40.7191
L-145.2573 -40.7905
" />
<path d="M-145.2573 -40.7905
L-145.1858 -40.8620
" />
<path d="M-145.1858 -40.8620
L-145.1858 -40.7191
" />
<path d="M-145.1858 -41.6477
L-145.1144 -41.5763
" />
<path d="M-145.1144 -41.5763
L-145.1858 -41.5048
" />
<path d="M-145.1858 -41.5048
L-145.2573 -41.5763
" />
<path d="M-145.2573 -41.5763
L-145.1858 -41.6477
" />
<path d="M-145.1858 -41.6477
L-145.1858 -41.5048
" />
<path d="M-143.3287 -40.7191
L-143.3287 -41.7191
" />
<path d="M-143.3287 -41.5763
L-143.2573 -41.6477
" />
<path d="M-143.2573 -41.6477
L-143.1144 -41.7191
" />
<path d="M-143.1144 -41.7191
L-142.9001 -41.7191
" />
<path d="M-142.9001 -41.7191
L-142.7573 -41.6477
" />
<path d="M-142.7573 -41.6477
L-142.6858 -41.5048
" />
<path d="M-142.6858 -41.5048
L-142.6858 -40.7191
" />
<path d="M-142.6858 -41.5048
L-142.6144 -41.6477
" />
<path d="M-142.6144 -41.6477
L-142.4716 -41.7191
" />
<path d="M-142.4716 -41.7191
L-142.2573 -41.7191
" />
<path d="M-142.2573 -41.7191
L-142.1144 -41.6477
" />
<path d="M-142.1144 -41.6477
L-142.0430 -41.5048
" />
<path d="M-142.0430 -41.5048
L-142.0430 -40.7191
" />
<path d="M-141.3287 -40.7191
L-141.3287 -41.7191
" />
<path d="M-141.3287 -42.2191
L-141.4001 -42.1477
" />
<path d="M-141.4001 -42.1477
L-141.3287 -42.0763
" />
<path d="M-141.3287 -42.0763
L-141.2573 -42.1477
" />
<path d="M-141.2573 -42.1477
L-141.3287 -42.2191
" />
<path d="M-141.3287 -42.2191
L-141.3287 -42.0763
" />
<path d="M-140.6144 -41.7191
L-140.6144 -40.7191
" />
<path d="M-140.6144 -41.5763
L-140.5430 -41.6477
" />
<path d="M-140.5430 -41.6477
L-140.4001 -41.7191
" />
<path d="M-140.4001 -41.7191
L-140.1858 -41.7191
" />
<path d="M-140.1858 -41.7191
L-140.0430 -41.6477
" />
<path d="M-140.0430 -41.6477
L-139.9716 -41.5048
" />
<path d="M-139.9716 -41.5048
L-139.9716 -40.7191
" />
<path d="M-139.2573 -40.7191
L-139.2573 -41.7191
" />
<path d="M-139.2573 -42.2191
L-139.3287 -42.1477
" />
<path d="M-139.3287 -42.1477
L-139.2573 -42.0763
" />
<path d="M-139.2573 -42.0763
L-139.1858 -42.1477
" />
<path d="M-139.1858 -42.1477
L-139.2573 -42.2191
" />
<path d="M-139.2573 -42.2191
L-139.2573 -42.0763
" />
<path d="M-138.6144 -40.7905
L-138.4716 -40.7191
" />
<path d="M-138.4716 -40.7191
L-138.1858 -40.7191
" />
<path d="M-138.1858 -40.7191
L-138.0430 -40.7905
" />
<path d="M-138.0430 -40.7905
L-137.9716 -40.9334
" />
<path d="M-137.9716 -40.9334
L-137.9716 -41.0048
" />
<path d="M-137.9716 -41.0048
L-138.0430 -41.1477
" />
<path d="M-138.0430 -41.1477
L-138.1858 -41.2191
" />
<path d="M-138.1858 -41.2191
L-138.4001 -41.2191
" />
<path d="M-138.4001 -41.2191
L-138.5430 -41.2905
" />
<path d="M-138.5430 -41.2905
L-138.6144 -41.4334
" />
<path d="M-138.6144 -41.4334
L-138.6144 -41.5048
" />
<path d="M-138.6144 -41.5048
L-138.5430 -41.6477
" />
<path d="M-138.5430 -41.6477
L-138.4001 -41.7191
" />
<path d="M-138.4001 -41.7191
L-138.1858 -41.7191
" />
<path d="M-138.1858 -41.7191
L-138.0430 -41.6477
" />
<path d="M-137.5430 -41.7191
L-136.9716 -41.7191
" />
<path d="M-137.3287 -42.2191
L-137.3287 -40.9334
" />
<path d="M-137.3287 -40.9334
L-137.2573 -40.7905
" />
<path d="M-137.2573 -40.7905
L-137.1144 -40.7191
" />
<path d="M-137.1144 -40.7191
L-136.9716 -40.7191
" />
<path d="M-135.9001 -40.7905
L-136.0430 -40.7191
" />
<path d="M-136.0430 -40.7191
L-136.3287 -40.7191
" />
<path d="M-136.3287 -40.7191
L-136.4716 -40.7905
" />
<path d="M-136.4716 -40.7905
L-136.5430 -40.9334
" />
<path d="M-136.5430 -40.9334
L-136.5430 -41.5048
" />
<path d="M-136.5430 -41.5048
L-136.4716 -41.6477
" />
<path d="M-136.4716 -41.6477
L-136.3287 -41.7191
" />
<path d="M-136.3287 -41.7191
L-136.0430 -41.7191
" />
<path d="M-136.0430 -41.7191
L-135.9001 -41.6477
" />
<path d="M-135.9001 -41.6477
L-135.8287 -41.5048
" />
<path d="M-135.8287 -41.5048
L-135.8287 -41.3620
" />
<path d="M-135.8287 -41.3620
L-136.5430 -41.2191
" />
<path d="M-135.1858 -41.7191
L-135.1858 -40.2191
" />
<path d="M-135.1858 -41.6477
L-135.0430 -41.7191
" />
<path d="M-135.0430 -41.7191
L-134.7573 -41.7191
" />
<path d="M-134.7573 -41.7191
L-134.6144 -41.6477
" />
<path d="M-134.6144 -41.6477
L-134.5430 -41.5763
" />
<path d="M-134.5430 -41.5763
L-134.4716 -41.4334
" />
<path d="M-134.4716 -41.4334
L-134.4716 -41.0048
" />
<path d="M-134.4716 -41.0048
L-134.5430 -40.8620
" />
<path d="M-134.5430 -40.8620
L-134.6144 -40.7905
" />
<path d="M-134.6144 -40.7905
L-134.7573 -40.7191
" />
<path d="M-134.7573 -40.7191
L-135.0430 -40.7191
" />
<path d="M-135.0430 -40.7191
L-135.1858 -40.7905
" />
<path d="M-133.8287 -41.7191
L-133.8287 -40.2191
" />
<path d="M-133.8287 -41.6477
L-133.6858 -41.7191
" />
<path d="M-133.6858 -41.7191
L-133.4001 -41.7191
" />
<path d="M-133.4001 -41.7191
L-133.2573 -41.6477
" />
<path d="M-133.2573 -41.6477
L-133.1858 -41.5763
" />
<path d="M-133.1858 -41.5763
L-133.1144 -41.4334
" />
<path d="M-133.1144 -41.4334
L-133.1144 -41.0048
" />
<path d="M-133.1144 -41.0048
L-133.1858 -40.8620
" />
<path d="M-133.1858 -40.8620
L-133.2573 -40.7905
" />
<path d="M-133.2573 -40.7905
L-133.4001 -40.7191
" />
<path d="M-133.4001 -40.7191
L-133.6858 -40.7191
" />
<path d="M-133.6858 -40.7191
L-133.8287 -40.7905
" />
<path d="M-131.9001 -40.7905
L-132.0430 -40.7191
" />
<path d="M-132.0430 -40.7191
L-132.3287 -40.7191
" />
<path d="M-132.3287 -40.7191
L-132.4716 -40.7905
" />
<path d="M-132.4716 -40.7905
L-132.5430 -40.9334
" />
<path d="M-132.5430 -40.9334
L-132.5430 -41.5048
" />
<path d="M-132.5430 -41.5048
L-132.4716 -41.6477
" />
<path d="M-132.4716 -41.6477
L-132.3287 -41.7191
" />
<path d="M-132.3287 -41.7191
L-132.0430 -41.7191
" />
<path d="M-132.0430 -41.7191
L-131.9001 -41.6477
" />
<path d="M-131.9001 -41.6477
L-131.8287 -41.5048
" />
<path d="M-131.8287 -41.5048
L-131.8287 -41.3620
" />
<path d="M-131.8287 -41.3620
L-132.5430 -41.2191
" />
<path d="M-131.1858 -40.7191
L-131.1858 -41.7191
" />
<path d="M-131.1858 -41.4334
L-131.1144 -41.5763
" />
<path d="M-131.1144 -41.5763
L-131.0430 -41.6477
" />
<path d="M-131.0430 -41.6477
L-130.9001 -41.7191
" />
<path d="M-130.9001 -41.7191
L-130.7573 -41.7191
" />
<path d="M-130.2573 -40.8620
L-130.1858 -40.7905
" />
<path d="M-130.1858 -40.7905
L-130.2573 -40.7191
" />
<path d="M-130.2573 -40.7191
L-130.3287 -40.7905
" />
<path d="M-130.3287 -40.7905
L-130.2573 -40.8620
" />
<path d="M-130.2573 -40.8620
L-130.2573 -40.7191
" />
<path d="M-129.5430 -40.7191
L-129.5430 -42.2191
" />
<path d="M-129.4001 -41.2905
L-128.9716 -40.7191
" />
<path d="M-128.9716 -41.7191
L-129.5430 -41.1477
" />
<path d="M-128.3287 -40.7191
L-128.3287 -41.7191
" />
<path d="M-128.3287 -42.2191
L-128.4001 -42.1477
" />
<path d="M-128.4001 -42.1477
L-128.3287 -42.0763
" />
<path d="M-128.3287 -42.0763
L-128.2573 -42.1477
" />
<path d="M-128.2573 -42.1477
L-128.3287 -42.2191
" />
<path d="M-128.3287 -42.2191
L-128.3287 -42.0763
" />
<path d="M-126.9716 -40.7905
L-127.1144 -40.7191
" />
<path d="M-127.1144 -40.7191
L-127.4001 -40.7191
" />
<path d="M-127.4001 -40.7191
L-127.5430 -40.7905
" />
<path d="M-127.5430 -40.7905
L-127.6144 -40.8620
" />
<path d="M-127.6144 -40.8620
L-127.6858 -41.0048
" />
<path d="M-127.6858 -41.0048
L-127.6858 -41.4334
" />
<path d="M-127.6858 -41.4334
L-127.6144 -41.5763
" />
<path d="M-127.6144 -41.5763
L-127.5430 -41.6477
" />
<path d="M-127.5430 -41.6477
L-127.4001 -41.7191
" />
<path d="M-127.4001 -41.7191
L-127.1144 -41.7191
" />
<path d="M-127.1144 -41.7191
L-126.9716 -41.6477
" />
<path d="M-125.6858 -40.7191
L-125.6858 -41.5048
" />
<path d="M-125.6858 -41.5048
L-125.7573 -41.6477
" />
<path d="M-125.7573 -41.6477
L-125.9001 -41.7191
" />
<path d="M-125.9001 -41.7191
L-126.1858 -41.7191
" />
<path d="M-126.1858 -41.7191
L-126.3287 -41.6477
" />
<path d="M-125.6858 -40.7905
L-125.8287 -40.7191
" />
<path d="M-125.8287 -40.7191
L-126.1858 -40.7191
" />
<path d="M-126.1858 -40.7191
L-126.3287 -40.7905
" />
<path d="M-126.3287 -40.7905
L-126.4001 -40.9334
" />
<path d="M-126.4001 -40.9334
L-126.4001 -41.0763
" />
<path d="M-126.4001 -41.0763
L-126.3287 -41.2191
" />
<path d="M-126.3287 -41.2191
L-126.1858 -41.2905
" />
<path d="M-126.1858 -41.2905
L-125.8287 -41.2905
" />
<path d="M-125.8287 -41.2905
L-125.6858 -41.3620
" />
<path d="M-124.3287 -40.7191
L-124.3287 -42.2191
" />
<path d="M-124.3287 -40.7905
L-124.4716 -40.7191
" />
<path d="M-124.4716 -40.7191
L-124.7573 -40.7191
" />
<path d="M-124.7573 -40.7191
L-124.9001 -40.7905
" />
<path d="M-124.9001 -40.7905
L-124.9716 -40.8620
" />
<path d="M-124.9716 -40.8620
L-125.0430 -41.0048
" />
<path d="M-125.0430 -41.0048
L-125.0430 -41.4334
" />
<path d="M-125.0430 -41.4334
L-124.9716 -41.5763
" />
<path d="M-124.9716 -41.5763
L-124.9001 -41.6477
" />
<path d="M-124.9001 -41.6477
L-124.7573 -41.7191
" />
<path d="M-124.7573 -41.7191
L-124.4716 -41.7191
" />
<path d="M-124.4716 -41.7191
L-124.3287 -41.6477
" />
<path d="M-123.9716 -40.5763
L-122.8287 -40.5763
" />
<path d="M-122.4716 -41.7191
L-122.4716 -40.2191
" />
<path d="M-122.4716 -41.6477
L-122.3287 -41.7191
" />
<path d="M-122.3287 -41.7191
L-122.0430 -41.7191
" />
<path d="M-122.0430 -41.7191
L-121.9001 -41.6477
" />
<path d="M-121.9001 -41.6477
L-121.8287 -41.5763
" />
<path d="M-121.8287 -41.5763
L-121.7573 -41.4334
" />
<path d="M-121.7573 -41.4334
L-121.7573 -41.0048
" />
<path d="M-121.7573 -41.0048
L-121.8287 -40.8620
" />
<path d="M-121.8287 -40.8620
L-121.9001 -40.7905
" />
<path d="M-121.9001 -40.7905
L-122.0430 -40.7191
" />
<path d="M-122.0430 -40.7191
L-122.3287 -40.7191
" />
<path d="M-122.3287 -40.7191
L-122.4716 -40.7905
" />
<path d="M-120.4716 -40.7905
L-120.6144 -40.7191
" />
<path d="M-120.6144 -40.7191
L-120.9001 -40.7191
" />
<path d="M-120.9001 -40.7191
L-121.0430 -40.7905
" />
<path d="M-121.0430 -40.7905
L-121.1144 -40.8620
" />
<path d="M-121.1144 -40.8620
L-121.1858 -41.0048
" />
<path d="M-121.1858 -41.0048
L-121.1858 -41.4334
" />
<path d="M-121.1858 -41.4334
L-121.1144 -41.5763
" />
<path d="M-121.1144 -41.5763
L-121.0430 -41.6477
" />
<path d="M-121.0430 -41.6477
L-120.9001 -41.7191
" />
<path d="M-120.9001 -41.7191
L-120.6144 -41.7191
" />
<path d="M-120.6144 -41.7191
L-120.4716 -41.6477
" />
<path d="M-119.8287 -40.7191
L-119.8287 -42.2191
" />
<path d="M-119.8287 -41.6477
L-119.6858 -41.7191
" />
<path d="M-119.6858 -41.7191
L-119.4001 -41.7191
" />
<path d="M-119.4001 -41.7191
L-119.2573 -41.6477
" />
<path d="M-119.2573 -41.6477
L-119.1858 -41.5763
" />
<path d="M-119.1858 -41.5763
L-119.1144 -41.4334
" />
<path d="M-119.1144 -41.4334
L-119.1144 -41.0048
" />
<path d="M-119.1144 -41.0048
L-119.1858 -40.8620
" />
<path d="M-119.1858 -40.8620
L-119.2573 -40.7905
" />
<path d="M-119.2573 -40.7905
L-119.4001 -40.7191
" />
<path d="M-119.4001 -40.7191
L-119.6858 -40.7191
" />
<path d="M-119.6858 -40.7191
L-119.8287 -40.7905
" />
</g><path d="M-150.7131 -45.6052
L-42.7131 -45.6052
" />
<text x="-149.7131" y="-43.3552"
textLength="8.2214" font-size="2.0000" lengthAdjust="spacingAndGlyphs"
text-anchor="start" opacity="0" stroke-opacity="0">Sheet: </text>
<g class="stroked-text"><desc>Sheet: </desc>
<path d="M-149.3287 -43.4905
L-149.1144 -43.4191
" />
<path d="M-149.1144 -43.4191
L-148.7573 -43.4191
" />
<path d="M-148.7573 -43.4191
L-148.6144 -43.4905
" />
<path d="M-148.6144 -43.4905
L-148.5430 -43.5620
" />
<path d="M-148.5430 -43.5620
L-148.4716 -43.7048
" />
<path d="M-148.4716 -43.7048
L-148.4716 -43.8477
" />
<path d="M-148.4716 -43.8477
L-148.5430 -43.9905
" />
<path d="M-148.5430 -43.9905
L-148.6144 -44.0620
" />
<path d="M-148.6144 -44.0620
L-148.7573 -44.1334
" />
<path d="M-148.7573 -44.1334
L-149.0430 -44.2048
" />
<path d="M-149.0430 -44.2048
L-149.1858 -44.2763
" />
<path d="M-149.1858 -44.2763
L-149.2573 -44.3477
" />
<path d="M-149.2573 -44.3477
L-149.3287 -44.4905
" />
<path d="M-149.3287 -44.4905
L-149.3287 -44.6334
" />
<path d="M-149.3287 -44.6334
L-149.2573 -44.7763
" />
<path d="M-149.2573 -44.7763
L-149.1858 -44.8477
" />
<path d="M-149.1858 -44.8477
L-149.0430 -44.9191
" />
<path d="M-149.0430 -44.9191
L-148.6858 -44.9191
" />
<path d="M-148.6858 -44.9191
L-148.4716 -44.8477
" />
<path d="M-147.8287 -43.4191
L-147.8287 -44.9191
" />
<path d="M-147.1858 -43.4191
L-147.1858 -44.2048
" />
<path d="M-147.1858 -44.2048
L-147.2573 -44.3477
" />
<path d="M-147.2573 -44.3477
L-147.4001 -44.4191
" />
<path d="M-147.4001 -44.4191
L-147.6144 -44.4191
" />
<path d="M-147.6144 -44.4191
L-147.7573 -44.3477
" />
<path d="M-147.7573 -44.3477
L-147.8287 -44.2763
" />
<path d="M-145.9001 -43.4905
L-146.0430 -43.4191
" />
<path d="M-146.0430 -43.4191
L-146.3287 -43.4191
" />
<path d="M-146.3287 -43.4191
L-146.4716 -43.4905
" />
<path d="M-146.4716 -43.4905
L-146.5430 -43.6334
" />
<path d="M-146.5430 -43.6334
L-146.5430 -44.2048
" />
<path d="M-146.5430 -44.2048
L-146.4716 -44.3477
" />
<path d="M-146.4716 -44.3477
L-146.3287 -44.4191
" />
<path d="M-146.3287 -44.4191
L-146.0430 -44.4191
" />
<path d="M-146.0430 -44.4191
L-145.9001 -44.3477
" />
<path d="M-145.9001 -44.3477
L-145.8287 -44.2048
" />
<path d="M-145.8287 -44.2048
L-145.8287 -44.0620
" />
<path d="M-145.8287 -44.0620
L-146.5430 -43.9191
" />
<path d="M-144.6144 -43.4905
L-144.7573 -43.4191
" />
<path d="M-144.7573 -43.4191
L-145.0430 -43.4191
" />
<path d="M-145.0430 -43.4191
L-145.1858 -43.4905
" />
<path d="M-145.1858 -43.4905
L-145.2573 -43.6334
" />
<path d="M-145.2573 -43.6334
L-145.2573 -44.2048
" />
<path d="M-145.2573 -44.2048
L-145.1858 -44.3477
" />
<path d="M-145.1858 -44.3477
L-145.0430 -44.4191
" />
<path d="M-145.0430 -44.4191
L-144.7573 -44.4191
" />
<path d="M-144.7573 -44.4191
L-144.6144 -44.3477
" />
<path d="M-144.6144 -44.3477
L-144.5430 -44.2048
" />
<path d="M-144.5430 -44.2048
L-144.5430 -44.0620
" />
<path d="M-144.5430 -44.0620
L-145.2573 -43.9191
" />
<path d="M-144.1144 -44.4191
L-143.5430 -44.4191
" />
<path d="M-143.9001 -44.9191
L-143.9001 -43.6334
" />
<path d="M-143.9001 -43.6334
L-143.8287 -43.4905
" />
<path d="M-143.8287 -43.4905
L-143.6858 -43.4191
" />
<path d="M-143.6858 -43.4191
L-143.5430 -43.4191
" />
<path d="M-143.0430 -43.5620
L-142.9716 -43.4905
" />
<path d="M-142.9716 -43.4905
L-143.0430 -43.4191
" />
<path d="M-143.0430 -43.4191
L-143.1144 -43.4905
" />
<path d="M-143.1144 -43.4905
L-143.0430 -43.5620
" />
<path d="M-143.0430 -43.5620
L-143.0430 -43.4191
" />
<path d="M-143.0430 -44.3477
L-142.9716 -44.2763
" />
<path d="M-142.9716 -44.2763
L-143.0430 -44.2048
" />
<path d="M-143.0430 -44.2048
L-143.1144 -44.2763
" />
<path d="M-143.1144 -44.2763
L-143.0430 -44.3477
" />
<path d="M-143.0430 -44.3477
L-143.0430 -44.2048
" />
</g></g>
<g style="fill:none; 
stroke:#C872AB; stroke-width:0.3000; stroke-opacity:1; 
stroke-linecap:round; stroke-linejoin:round;">
<text x="-149.7131" y="-46.3552"
textLength="0.9000" font-size="2.0000" lengthAdjust="spacingAndGlyphs"
text-anchor="start" opacity="0" stroke-opacity="0"></text>
<g class="stroked-text"><desc></desc>
</g></g>
<g style="fill:none; 
stroke:#C872AB; stroke-width:0.1500; stroke-opacity:1; 
stroke-linecap:round; stroke-linejoin:round;">
<text x="-149.7131" y="-49.3552"
textLength="0.4500" font-size="2.0000" lengthAdjust="spacingAndGlyphs"
text-anchor="start" opacity="0" stroke-opacity="0"></text>
<g class="stroked-text"><desc></desc>
</g><text x="-149.7131" y="-52.3552"
textLength="0.4500" font-size="2.0000" lengthAdjust="spacingAndGlyphs"
text-anchor="start" opacity="0" stroke-opacity="0"></text>
<g class="stroked-text"><desc></desc>
</g><text x="-149.7131" y="-55.3552"
textLength="0.4500" font-size="2.0000" lengthAdjust="spacingAndGlyphs"
text-anchor="start" opacity="0" stroke-opacity="0"></text>
<g class="stroked-text"><desc></desc>
</g><text x="-149.7131" y="-58.3552"
textLength="0.4500" font-size="2.0000" lengthAdjust="spacingAndGlyphs"
text-anchor="start" opacity="0" stroke-opacity="0"></text>
<g class="stroked-text"><desc></desc>
</g><path d="M-130.7131 -35.6052
L-130.7131 -32.6052
" />
<path d="M-66.7131 -35.6052
L-66.7131 -29.1052
" />
<path style="fill:#4D7FC4; fill-opacity:1.0000; stroke:none;fill-rule:evenodd;"
d="M 78.6456,4.3483
78.6456,2.3482
74.0456,2.3482
74.0456,4.3483
Z" /> 
</g>
<g style="fill:none; 
stroke:#4D7FC4; stroke-width:2.0000; stroke-opacity:1; 
stroke-linecap:round; stroke-linejoin:round;">
<path d="M77.4456 9.6482
L75.2456 9.6482
" />
<path d="M71.5456 5.1482
L71.5456 7.3482
" />
<path style="fill:#4D7FC4; fill-opacity:1.0000; stroke:none;fill-rule:evenodd;"
d="M 66.2956,4.3483
66.2956,2.3482
61.6956,2.3482
61.6956,4.3483
Z" /> 
</g>
<g style="fill:none; 
stroke:#4D7FC4; stroke-width:2.0000; stroke-opacity:1; 
stroke-linecap:round; stroke-linejoin:round;">
<path d="M65.0956 9.6482
L62.8956 9.6482
" />
<path d="M59.1956 5.1482
L59.1956 7.3482
" />
<path style="fill:#4D7FC4; fill-opacity:1.0000; stroke:none;fill-rule:evenodd;"
d="M 62.1256,34.2432
62.1066,34.1476
62.0524,34.0665
61.9713,34.0123
61.8756,33.9932
60.6756,33.9932
60.5799,34.0123
60.4988,34.0665
60.4446,34.1476
60.4256,34.2432
60.4256,35.6932
60.4446,35.7889
60.4988,35.8700
60.5799,35.9242
60.6756,35.9432
61.8756,35.9432
61.9713,35.9242
62.0524,35.8700
62.1066,35.7889
62.1256,35.6932
Z" /> 
</g>
<g style="fill:none; 
stroke:#4D7FC4; stroke-width:1.7000; stroke-opacity:1; 
stroke-linecap:round; stroke-linejoin:round;">
<path d="M58.7756 34.8432
L58.7756 35.0932
" />
<path d="M56.2756 34.8432
L56.2756 35.0932
" />
<path d="M53.7756 34.8432
L53.7756 35.0932
" />
<path style="fill:#4D7FC4; fill-opacity:1.0000; stroke:none;fill-rule:evenodd;"
d="M 62.1256,20.6832
62.1066,20.5876
62.0524,20.5065
61.9713,20.4523
61.8756,20.4332
60.6756,20.4332
60.5799,20.4523
60.4988,20.5065
60.4446,20.5876
60.4256,20.6832
60.4256,22.1333
60.4446,22.2289
60.4988,22.3100
60.5799,22.3642
60.6756,22.3833
61.8756,22.3833
61.9713,22.3642
62.0524,22.3100
62.1066,22.2289
62.1256,22.1333
Z" /> 
</g>
<g style="fill:none; 
stroke:#4D7FC4; stroke-width:1.7000; stroke-opacity:1; 
stroke-linecap:round; stroke-linejoin:round;">
<path d="M58.7756 21.2832
L58.7756 21.5332
" />
<path d="M56.2756 21.2832
L56.2756 21.5332
" />
<path d="M53.7756 21.2832
L53.7756 21.5332
" />
</g>
<g style="fill:none; 
stroke:#4D7FC4; stroke-width:1.0000; stroke-opacity:1; 
stroke-linecap:round; stroke-linejoin:round;">
<path d="M48.7756 36.0932
L48.7756 37.1932
" />
<path d="M48.7756 40.4232
L48.7756 41.2233
" />
<path d="M40.1356 36.0932
L40.1356 37.1932
" />
<path d="M40.1356 40.4232
L40.1356 41.2233
" />
<path style="fill:#02FFEE; fill-opacity:0.4000; stroke:none;fill-rule:evenodd;"
d="M 78.6456,4.3483
78.6456,2.3482
74.0456,2.3482
74.0456,4.3483
Z" /> 
</g>
<g style="fill:none; 
stroke:#02FFEE; stroke-width:2.0000; stroke-opacity:1; 
stroke-linecap:round; stroke-linejoin:round;">
<path d="M77.4456 9.6482
L75.2456 9.6482
" />
<path d="M71.5456 5.1482
L71.5456 7.3482
" />
<path style="fill:#02FFEE; fill-opacity:0.4000; stroke:none;fill-rule:evenodd;"
d="M 66.2956,4.3483
66.2956,2.3482
61.6956,2.3482
61.6956,4.3483
Z" /> 
</g>
<g style="fill:none; 
stroke:#02FFEE; stroke-width:2.0000; stroke-opacity:1; 
stroke-linecap:round; stroke-linejoin:round;">
<path d="M65.0956 9.6482
L62.8956 9.6482
" />
<path d="M59.1956 5.1482
L59.1956 7.3482
" />
<path style="fill:#02FFEE; fill-opacity:0.4000; stroke:none;fill-rule:evenodd;"
d="M 62.1256,34.2432
62.1066,34.1476
62.0524,34.0665
61.9713,34.0123
61.8756,33.9932
60.6756,33.9932
60.5799,34.0123
60.4988,34.0665
60.4446,34.1476
60.4256,34.2432
60.4256,35.6932
60.4446,35.7889
60.4988,35.8700
60.5799,35.9242
60.6756,35.9432
61.8756,35.9432
61.9713,35.9242
62.0524,35.8700
62.1066,35.7889
62.1256,35.6932
Z" /> 
</g>
<g style="fill:none; 
stroke:#02FFEE; stroke-width:1.7000; stroke-opacity:1; 
stroke-linecap:round; stroke-linejoin:round;">
<path d="M58.7756 34.8432
L58.7756 35.0932
" />
<path d="M56.2756 34.8432
L56.2756 35.0932
" />
<path d="M53.7756 34.8432
L53.7756 35.0932
" />
<path style="fill:#02FFEE; fill-opacity:0.4000; stroke:none;fill-rule:evenodd;"
d="M 62.1256,20.6832
62.1066,20.5876
62.0524,20.5065
61.9713,20.4523
61.8756,20.4332
60.6756,20.4332
60.5799,20.4523
60.4988,20.5065
60.4446,20.5876
60.4256,20.6832
60.4256,22.1333
60.4446,22.2289
60.4988,22.3100
60.5799,22.3642
60.6756,22.3833
61.8756,22.3833
61.9713,22.3642
62.0524,22.3100
62.1066,22.2289
62.1256,22.1333
Z" /> 
</g>
<g style="fill:none; 
stroke:#02FFEE; stroke-width:1.7000; stroke-opacity:1; 
stroke-linecap:round; stroke-linejoin:round;">
<path d="M58.7756 21.2832
L58.7756 21.5332
" />
<path d="M56.2756 21.2832
L56.2756 21.5332
" />
<path d="M53.7756 21.2832
L53.7756 21.5332
" />
</g>
<g style="fill:#02FFEE; fill-opacity:0.4000; stroke:none;">
<circle cx="47.3456" cy="37.1432" r="0.3250" /> 
<circle cx="41.5656" cy="37.1432" r="0.3250" /> 
</g>
<g style="fill:none; 
stroke:#02FFEE; stroke-width:1.0000; stroke-opacity:1; 
stroke-linecap:round; stroke-linejoin:round;">
<path d="M48.7756 36.0932
L48.7756 37.1932
" />
<path d="M48.7756 40.4232
L48.7756 41.2233
" />
<path d="M40.1356 36.0932
L40.1356 37.1932
" />
<path d="M40.1356 40.4232
L40.1356 41.2233
" />
</g>
<g style="fill:none; 
stroke:#FFFFFF; stroke-width:1.0000; stroke-opacity:1; 
stroke-linecap:round; stroke-linejoin:round;">
<path d="M77.6456 3.3482
L75.0456 3.3482
" />
</g>
<g style="fill:none; 
stroke:#FFFFFF; stroke-width:1.0000; stroke-opacity:1; 
stroke-linecap:round; stroke-linejoin:round;">
<path d="M77.4456 9.6482
L75.2456 9.6482
" />
</g>
<g style="fill:none; 
stroke:#FFFFFF; stroke-width:1.0000; stroke-opacity:1; 
stroke-linecap:round; stroke-linejoin:round;">
<path d="M71.5456 5.1482
L71.5456 7.3482
" />
</g>
<g style="fill:none; 
stroke:#FFFFFF; stroke-width:1.0000; stroke-opacity:1; 
stroke-linecap:round; stroke-linejoin:round;">
<path d="M65.2956 3.3482
L62.6956 3.3482
" />
</g>
<g style="fill:none; 
stroke:#FFFFFF; stroke-width:1.0000; stroke-opacity:1; 
stroke-linecap:round; stroke-linejoin:round;">
<path d="M65.0956 9.6482
L62.8956 9.6482
" />
</g>
<g style="fill:none; 
stroke:#FFFFFF; stroke-width:1.0000; stroke-opacity:1; 
stroke-linecap:round; stroke-linejoin:round;">
<path d="M59.1956 5.1482
L59.1956 7.3482
" />
</g>
<g style="fill:#FFFFFF; fill-opacity:1.0000; stroke:none;">
<circle cx="61.2756" cy="34.9682" r="0.4750" /> 
</g>
<g style="fill:#FFFFFF; fill-opacity:1.0000; stroke:none;">
<circle cx="58.7756" cy="34.9682" r="0.4750" /> 
</g>
<g style="fill:#FFFFFF; fill-opacity:1.0000; stroke:none;">
<circle cx="56.2756" cy="34.9682" r="0.4750" /> 
</g>
<g style="fill:#FFFFFF; fill-opacity:1.0000; stroke:none;">
<circle cx="53.7756" cy="34.9682" r="0.4750" /> 
</g>
<g style="fill:#FFFFFF; fill-opacity:1.0000; stroke:none;">
<circle cx="61.2756" cy="21.4082" r="0.4750" /> 
</g>
<g style="fill:#FFFFFF; fill-opacity:1.0000; stroke:none;">
<circle cx="58.7756" cy="21.4082" r="0.4750" /> 
</g>
<g style="fill:#FFFFFF; fill-opacity:1.0000; stroke:none;">
<circle cx="56.2756" cy="21.4082" r="0.4750" /> 
</g>
<g style="fill:#FFFFFF; fill-opacity:1.0000; stroke:none;">
<circle cx="53.7756" cy="21.4082" r="0.4750" /> 
</g>
<g style="fill:#000000; fill-opacity:1.0000; stroke:none;">
<circle cx="47.3456" cy="37.1432" r="0.3250" /> 
<circle cx="41.5656" cy="37.1432" r="0.3250" /> 
</g>
<g style="fill:none; 
stroke:#FFFFFF; stroke-width:0.6000; stroke-opacity:1; 
stroke-linecap:round; stroke-linejoin:round;">
<path d="M48.7756 36.0932
L48.7756 37.1932
" />
</g>
<g style="fill:none; 
stroke:#FFFFFF; stroke-width:0.6000; stroke-opacity:1; 
stroke-linecap:round; stroke-linejoin:round;">
<path d="M48.7756 40.4232
L48.7756 41.2233
" />
</g>
<g style="fill:none; 
stroke:#FFFFFF; stroke-width:0.6000; stroke-opacity:1; 
stroke-linecap:round; stroke-linejoin:round;">
<path d="M40.1356 36.0932
L40.1356 37.1932
" />
</g>
<g style="fill:none; 
stroke:#FFFFFF; stroke-width:0.6000; stroke-opacity:1; 
stroke-linecap:round; stroke-linejoin:round;">
<path d="M40.1356 40.4232
L40.1356 41.2233
" />
</g> 
</svg>
