<?xml version="1.0" standalone="no"?>
 <!DOCTYPE svg PUBLIC "-//W3C//DTD SVG 1.1//EN" 
 "http://www.w3.org/Graphics/SVG/1.1/DTD/svg11.dtd"> 
<svg
  xmlns:svg="http://www.w3.org/2000/svg"
  xmlns="http://www.w3.org/2000/svg"
  xmlns:xlink="http://www.w3.org/1999/xlink"
  xmlns:inkscape="http://www.inkscape.org/namespaces/inkscape"
  version="1.1"
  width="45.4660mm" height="56.2864mm" viewBox="0.0000 0.0000 45.4660 56.2864">
<title>SVG Image created as pcb-bottom.svg date 2026-04-14T20:38:52 </title>
  <desc>Image generated by PCBNEW </desc>
<g style="fill:#000000; fill-opacity:1.0000;stroke:#000000; stroke-opacity:1.0000;
stroke-linecap:round; stroke-linejoin:round;"
 transform="translate(0 0) scale(1 1)">
</g>
<g style="fill:none; 
stroke:#C872AB; stroke-width:0.1500; stroke-opacity:1; 
stroke-linecap:round; stroke-linejoin:round;">
<path d="M-178.7310 -48.1902
L-70.7310 -48.1902
L-70.7310 -16.1902
L-178.7310 -16.1902
L-178.7310 -48.1902
" />
<path d="M-94.2000 -50.4767
L-68.7310 -50.4767
L-68.7310 -14.1902
L-94.2000 -14.1902
L-94.2000 -50.4767
" />
<path d="M-92.2000 -48.4767
L-70.7310 -48.4767
L-70.7310 -16.1902
L-92.2000 -16.1902
L-92.2000 -48.4767
" />
<path d="M-44.2000 -48.4767
L-44.2000 -50.4767
" />
<text x="-69.2000" y="-48.8267"
textLength="1.4281" font-size="1.7333" lengthAdjust="spacingAndGlyphs"
text-anchor="start" opacity="0" stroke-opacity="0">1</text>
<g class="stroked-text"><desc>1</desc>
<path d="M-68.1108 -48.8831
L-68.8537 -48.8831
" />
<path d="M-68.4823 -48.8831
L-68.4823 -50.1831
" />
<path d="M-68.4823 -50.1831
L-68.6061 -49.9974
" />
<path d="M-68.6061 -49.9974
L-68.7299 -49.8736
" />
<path d="M-68.7299 -49.8736
L-68.8537 -49.8117
" />
</g><path d="M-44.2000 -16.1902
L-44.2000 -14.1902
" />
<text x="-69.2000" y="-14.5402"
textLength="1.4281" font-size="1.7333" lengthAdjust="spacingAndGlyphs"
text-anchor="start" opacity="0" stroke-opacity="0">1</text>
<g class="stroked-text"><desc>1</desc>
<path d="M-68.1108 -14.5966
L-68.8537 -14.5966
" />
<path d="M-68.4823 -14.5966
L-68.4823 -15.8966
" />
<path d="M-68.4823 -15.8966
L-68.6061 -15.7109
" />
<path d="M-68.6061 -15.7109
L-68.7299 -15.5871
" />
<path d="M-68.7299 -15.5871
L-68.8537 -15.5252
" />
</g><path d="M-94.2000 -0.4767
L-92.2000 -0.4767
" />
<text x="-93.2000" y="-24.8268"
textLength="1.3043" font-size="1.7333" lengthAdjust="spacingAndGlyphs"
text-anchor="middle" opacity="0" stroke-opacity="0">A</text>
<g class="stroked-text"><desc>A</desc>
<path d="M-93.5095 -25.2546
L-92.8905 -25.2546
" />
<path d="M-93.6333 -24.8831
L-93.2000 -26.1831
" />
<path d="M-93.2000 -26.1831
L-92.7667 -24.8831
" />
</g><path d="M-68.7310 -0.4767
L-70.7310 -0.4767
" />
<text x="-69.7310" y="-24.8268"
textLength="1.3043" font-size="1.7333" lengthAdjust="spacingAndGlyphs"
text-anchor="middle" opacity="0" stroke-opacity="0">A</text>
<g class="stroked-text"><desc>A</desc>
<path d="M-70.0405 -25.2546
L-69.4214 -25.2546
" />
<path d="M-70.1643 -24.8831
L-69.7310 -26.1831
" />
<path d="M-69.7310 -26.1831
L-69.2976 -24.8831
" />
</g><text x="-155.7310" y="-20.3402"
textLength="22.1500" font-size="2.0000" lengthAdjust="spacingAndGlyphs"
text-anchor="start" opacity="0" stroke-opacity="0">Date: 2026-04-14</text>
<g class="stroked-text"><desc>Date: 2026-04-14</desc>
<path d="M-155.2751 -20.4041
L-155.2751 -21.9041
" />
<path d="M-155.2751 -21.9041
L-154.9180 -21.9041
" />
<path d="M-154.9180 -21.9041
L-154.7037 -21.8327
" />
<path d="M-154.7037 -21.8327
L-154.5608 -21.6898
" />
<path d="M-154.5608 -21.6898
L-154.4894 -21.5470
" />
<path d="M-154.4894 -21.5470
L-154.4180 -21.2613
" />
<path d="M-154.4180 -21.2613
L-154.4180 -21.0470
" />
<path d="M-154.4180 -21.0470
L-154.4894 -20.7613
" />
<path d="M-154.4894 -20.7613
L-154.5608 -20.6184
" />
<path d="M-154.5608 -20.6184
L-154.7037 -20.4755
" />
<path d="M-154.7037 -20.4755
L-154.9180 -20.4041
" />
<path d="M-154.9180 -20.4041
L-155.2751 -20.4041
" />
<path d="M-153.1323 -20.4041
L-153.1323 -21.1898
" />
<path d="M-153.1323 -21.1898
L-153.2037 -21.3327
" />
<path d="M-153.2037 -21.3327
L-153.3466 -21.4041
" />
<path d="M-153.3466 -21.4041
L-153.6323 -21.4041
" />
<path d="M-153.6323 -21.4041
L-153.7751 -21.3327
" />
<path d="M-153.1323 -20.4755
L-153.2751 -20.4041
" />
<path d="M-153.2751 -20.4041
L-153.6323 -20.4041
" />
<path d="M-153.6323 -20.4041
L-153.7751 -20.4755
" />
<path d="M-153.7751 -20.4755
L-153.8466 -20.6184
" />
<path d="M-153.8466 -20.6184
L-153.8466 -20.7613
" />
<path d="M-153.8466 -20.7613
L-153.7751 -20.9041
" />
<path d="M-153.7751 -20.9041
L-153.6323 -20.9755
" />
<path d="M-153.6323 -20.9755
L-153.2751 -20.9755
" />
<path d="M-153.2751 -20.9755
L-153.1323 -21.0470
" />
<path d="M-152.6323 -21.4041
L-152.0608 -21.4041
" />
<path d="M-152.4180 -21.9041
L-152.4180 -20.6184
" />
<path d="M-152.4180 -20.6184
L-152.3466 -20.4755
" />
<path d="M-152.3466 -20.4755
L-152.2037 -20.4041
" />
<path d="M-152.2037 -20.4041
L-152.0608 -20.4041
" />
<path d="M-150.9894 -20.4755
L-151.1323 -20.4041
" />
<path d="M-151.1323 -20.4041
L-151.4180 -20.4041
" />
<path d="M-151.4180 -20.4041
L-151.5608 -20.4755
" />
<path d="M-151.5608 -20.4755
L-151.6323 -20.6184
" />
<path d="M-151.6323 -20.6184
L-151.6323 -21.1898
" />
<path d="M-151.6323 -21.1898
L-151.5608 -21.3327
" />
<path d="M-151.5608 -21.3327
L-151.4180 -21.4041
" />
<path d="M-151.4180 -21.4041
L-151.1323 -21.4041
" />
<path d="M-151.1323 -21.4041
L-150.9894 -21.3327
" />
<path d="M-150.9894 -21.3327
L-150.9180 -21.1898
" />
<path d="M-150.9180 -21.1898
L-150.9180 -21.0470
" />
<path d="M-150.9180 -21.0470
L-151.6323 -20.9041
" />
<path d="M-150.2751 -20.5470
L-150.2037 -20.4755
" />
<path d="M-150.2037 -20.4755
L-150.2751 -20.4041
" />
<path d="M-150.2751 -20.4041
L-150.3466 -20.4755
" />
<path d="M-150.3466 -20.4755
L-150.2751 -20.5470
" />
<path d="M-150.2751 -20.5470
L-150.2751 -20.4041
" />
<path d="M-150.2751 -21.3327
L-150.2037 -21.2613
" />
<path d="M-150.2037 -21.2613
L-150.2751 -21.1898
" />
<path d="M-150.2751 -21.1898
L-150.3466 -21.2613
" />
<path d="M-150.3466 -21.2613
L-150.2751 -21.3327
" />
<path d="M-150.2751 -21.3327
L-150.2751 -21.1898
" />
<path d="M-148.4894 -21.7613
L-148.4180 -21.8327
" />
<path d="M-148.4180 -21.8327
L-148.2751 -21.9041
" />
<path d="M-148.2751 -21.9041
L-147.9180 -21.9041
" />
<path d="M-147.9180 -21.9041
L-147.7751 -21.8327
" />
<path d="M-147.7751 -21.8327
L-147.7037 -21.7613
" />
<path d="M-147.7037 -21.7613
L-147.6323 -21.6184
" />
<path d="M-147.6323 -21.6184
L-147.6323 -21.4755
" />
<path d="M-147.6323 -21.4755
L-147.7037 -21.2613
" />
<path d="M-147.7037 -21.2613
L-148.5608 -20.4041
" />
<path d="M-148.5608 -20.4041
L-147.6323 -20.4041
" />
<path d="M-146.7037 -21.9041
L-146.5608 -21.9041
" />
<path d="M-146.5608 -21.9041
L-146.4180 -21.8327
" />
<path d="M-146.4180 -21.8327
L-146.3466 -21.7613
" />
<path d="M-146.3466 -21.7613
L-146.2751 -21.6184
" />
<path d="M-146.2751 -21.6184
L-146.2037 -21.3327
" />
<path d="M-146.2037 -21.3327
L-146.2037 -20.9755
" />
<path d="M-146.2037 -20.9755
L-146.2751 -20.6898
" />
<path d="M-146.2751 -20.6898
L-146.3466 -20.5470
" />
<path d="M-146.3466 -20.5470
L-146.4180 -20.4755
" />
<path d="M-146.4180 -20.4755
L-146.5608 -20.4041
" />
<path d="M-146.5608 -20.4041
L-146.7037 -20.4041
" />
<path d="M-146.7037 -20.4041
L-146.8466 -20.4755
" />
<path d="M-146.8466 -20.4755
L-146.9180 -20.5470
" />
<path d="M-146.9180 -20.5470
L-146.9894 -20.6898
" />
<path d="M-146.9894 -20.6898
L-147.0608 -20.9755
" />
<path d="M-147.0608 -20.9755
L-147.0608 -21.3327
" />
<path d="M-147.0608 -21.3327
L-146.9894 -21.6184
" />
<path d="M-146.9894 -21.6184
L-146.9180 -21.7613
" />
<path d="M-146.9180 -21.7613
L-146.8466 -21.8327
" />
<path d="M-146.8466 -21.8327
L-146.7037 -21.9041
" />
<path d="M-145.6323 -21.7613
L-145.5608 -21.8327
" />
<path d="M-145.5608 -21.8327
L-145.4180 -21.9041
" />
<path d="M-145.4180 -21.9041
L-145.0608 -21.9041
" />
<path d="M-145.0608 -21.9041
L-144.9180 -21.8327
" />
<path d="M-144.9180 -21.8327
L-144.8466 -21.7613
" />
<path d="M-144.8466 -21.7613
L-144.7751 -21.6184
" />
<path d="M-144.7751 -21.6184
L-144.7751 -21.4755
" />
<path d="M-144.7751 -21.4755
L-144.8466 -21.2613
" />
<path d="M-144.8466 -21.2613
L-145.7037 -20.4041
" />
<path d="M-145.7037 -20.4041
L-144.7751 -20.4041
" />
<path d="M-143.4894 -21.9041
L-143.7751 -21.9041
" />
<path d="M-143.7751 -21.9041
L-143.9180 -21.8327
" />
<path d="M-143.9180 -21.8327
L-143.9894 -21.7613
" />
<path d="M-143.9894 -21.7613
L-144.1323 -21.5470
" />
<path d="M-144.1323 -21.5470
L-144.2037 -21.2613
" />
<path d="M-144.2037 -21.2613
L-144.2037 -20.6898
" />
<path d="M-144.2037 -20.6898
L-144.1323 -20.5470
" />
<path d="M-144.1323 -20.5470
L-144.0608 -20.4755
" />
<path d="M-144.0608 -20.4755
L-143.9180 -20.4041
" />
<path d="M-143.9180 -20.4041
L-143.6323 -20.4041
" />
<path d="M-143.6323 -20.4041
L-143.4894 -20.4755
" />
<path d="M-143.4894 -20.4755
L-143.4180 -20.5470
" />
<path d="M-143.4180 -20.5470
L-143.3466 -20.6898
" />
<path d="M-143.3466 -20.6898
L-143.3466 -21.0470
" />
<path d="M-143.3466 -21.0470
L-143.4180 -21.1898
" />
<path d="M-143.4180 -21.1898
L-143.4894 -21.2613
" />
<path d="M-143.4894 -21.2613
L-143.6323 -21.3327
" />
<path d="M-143.6323 -21.3327
L-143.9180 -21.3327
" />
<path d="M-143.9180 -21.3327
L-144.0608 -21.2613
" />
<path d="M-144.0608 -21.2613
L-144.1323 -21.1898
" />
<path d="M-144.1323 -21.1898
L-144.2037 -21.0470
" />
<path d="M-142.7037 -20.9755
L-141.5608 -20.9755
" />
<path d="M-140.5608 -21.9041
L-140.4180 -21.9041
" />
<path d="M-140.4180 -21.9041
L-140.2751 -21.8327
" />
<path d="M-140.2751 -21.8327
L-140.2037 -21.7613
" />
<path d="M-140.2037 -21.7613
L-140.1323 -21.6184
" />
<path d="M-140.1323 -21.6184
L-140.0608 -21.3327
" />
<path d="M-140.0608 -21.3327
L-140.0608 -20.9755
" />
<path d="M-140.0608 -20.9755
L-140.1323 -20.6898
" />
<path d="M-140.1323 -20.6898
L-140.2037 -20.5470
" />
<path d="M-140.2037 -20.5470
L-140.2751 -20.4755
" />
<path d="M-140.2751 -20.4755
L-140.4180 -20.4041
" />
<path d="M-140.4180 -20.4041
L-140.5608 -20.4041
" />
<path d="M-140.5608 -20.4041
L-140.7037 -20.4755
" />
<path d="M-140.7037 -20.4755
L-140.7751 -20.5470
" />
<path d="M-140.7751 -20.5470
L-140.8466 -20.6898
" />
<path d="M-140.8466 -20.6898
L-140.9180 -20.9755
" />
<path d="M-140.9180 -20.9755
L-140.9180 -21.3327
" />
<path d="M-140.9180 -21.3327
L-140.8466 -21.6184
" />
<path d="M-140.8466 -21.6184
L-140.7751 -21.7613
" />
<path d="M-140.7751 -21.7613
L-140.7037 -21.8327
" />
<path d="M-140.7037 -21.8327
L-140.5608 -21.9041
" />
<path d="M-138.7751 -21.4041
L-138.7751 -20.4041
" />
<path d="M-139.1323 -21.9755
L-139.4894 -20.9041
" />
<path d="M-139.4894 -20.9041
L-138.5608 -20.9041
" />
<path d="M-137.9894 -20.9755
L-136.8466 -20.9755
" />
<path d="M-135.3466 -20.4041
L-136.2037 -20.4041
" />
<path d="M-135.7751 -20.4041
L-135.7751 -21.9041
" />
<path d="M-135.7751 -21.9041
L-135.9180 -21.6898
" />
<path d="M-135.9180 -21.6898
L-136.0608 -21.5470
" />
<path d="M-136.0608 -21.5470
L-136.2037 -21.4755
" />
<path d="M-134.0608 -21.4041
L-134.0608 -20.4041
" />
<path d="M-134.4180 -21.9755
L-134.7751 -20.9041
" />
<path d="M-134.7751 -20.9041
L-133.8466 -20.9041
" />
</g><path d="M-178.7310 -19.6902
L-70.7310 -19.6902
" />
<text x="-177.7310" y="-17.5403"
textLength="22.2929" font-size="2.0000" lengthAdjust="spacingAndGlyphs"
text-anchor="start" opacity="0" stroke-opacity="0">KiCad E.D.A. 10.0.0</text>
<g class="stroked-text"><desc>KiCad E.D.A. 10.0.0</desc>
<path d="M-177.2751 -17.6041
L-177.2751 -19.1041
" />
<path d="M-176.4180 -17.6041
L-177.0608 -18.4613
" />
<path d="M-176.4180 -19.1041
L-177.2751 -18.2470
" />
<path d="M-175.7751 -17.6041
L-175.7751 -18.6041
" />
<path d="M-175.7751 -19.1041
L-175.8466 -19.0327
" />
<path d="M-175.8466 -19.0327
L-175.7751 -18.9613
" />
<path d="M-175.7751 -18.9613
L-175.7037 -19.0327
" />
<path d="M-175.7037 -19.0327
L-175.7751 -19.1041
" />
<path d="M-175.7751 -19.1041
L-175.7751 -18.9613
" />
<path d="M-174.2037 -17.7470
L-174.2751 -17.6755
" />
<path d="M-174.2751 -17.6755
L-174.4894 -17.6041
" />
<path d="M-174.4894 -17.6041
L-174.6323 -17.6041
" />
<path d="M-174.6323 -17.6041
L-174.8466 -17.6755
" />
<path d="M-174.8466 -17.6755
L-174.9894 -17.8184
" />
<path d="M-174.9894 -17.8184
L-175.0608 -17.9613
" />
<path d="M-175.0608 -17.9613
L-175.1323 -18.2470
" />
<path d="M-175.1323 -18.2470
L-175.1323 -18.4613
" />
<path d="M-175.1323 -18.4613
L-175.0608 -18.7470
" />
<path d="M-175.0608 -18.7470
L-174.9894 -18.8898
" />
<path d="M-174.9894 -18.8898
L-174.8466 -19.0327
" />
<path d="M-174.8466 -19.0327
L-174.6323 -19.1041
" />
<path d="M-174.6323 -19.1041
L-174.4894 -19.1041
" />
<path d="M-174.4894 -19.1041
L-174.2751 -19.0327
" />
<path d="M-174.2751 -19.0327
L-174.2037 -18.9613
" />
<path d="M-172.9180 -17.6041
L-172.9180 -18.3898
" />
<path d="M-172.9180 -18.3898
L-172.9894 -18.5327
" />
<path d="M-172.9894 -18.5327
L-173.1323 -18.6041
" />
<path d="M-173.1323 -18.6041
L-173.4180 -18.6041
" />
<path d="M-173.4180 -18.6041
L-173.5608 -18.5327
" />
<path d="M-172.9180 -17.6755
L-173.0608 -17.6041
" />
<path d="M-173.0608 -17.6041
L-173.4180 -17.6041
" />
<path d="M-173.4180 -17.6041
L-173.5608 -17.6755
" />
<path d="M-173.5608 -17.6755
L-173.6323 -17.8184
" />
<path d="M-173.6323 -17.8184
L-173.6323 -17.9613
" />
<path d="M-173.6323 -17.9613
L-173.5608 -18.1041
" />
<path d="M-173.5608 -18.1041
L-173.4180 -18.1755
" />
<path d="M-173.4180 -18.1755
L-173.0608 -18.1755
" />
<path d="M-173.0608 -18.1755
L-172.9180 -18.2470
" />
<path d="M-171.5608 -17.6041
L-171.5608 -19.1041
" />
<path d="M-171.5608 -17.6755
L-171.7037 -17.6041
" />
<path d="M-171.7037 -17.6041
L-171.9894 -17.6041
" />
<path d="M-171.9894 -17.6041
L-172.1323 -17.6755
" />
<path d="M-172.1323 -17.6755
L-172.2037 -17.7470
" />
<path d="M-172.2037 -17.7470
L-172.2751 -17.8898
" />
<path d="M-172.2751 -17.8898
L-172.2751 -18.3184
" />
<path d="M-172.2751 -18.3184
L-172.2037 -18.4613
" />
<path d="M-172.2037 -18.4613
L-172.1323 -18.5327
" />
<path d="M-172.1323 -18.5327
L-171.9894 -18.6041
" />
<path d="M-171.9894 -18.6041
L-171.7037 -18.6041
" />
<path d="M-171.7037 -18.6041
L-171.5608 -18.5327
" />
<path d="M-169.7037 -18.3898
L-169.2037 -18.3898
" />
<path d="M-168.9894 -17.6041
L-169.7037 -17.6041
" />
<path d="M-169.7037 -17.6041
L-169.7037 -19.1041
" />
<path d="M-169.7037 -19.1041
L-168.9894 -19.1041
" />
<path d="M-168.3466 -17.7470
L-168.2751 -17.6755
" />
<path d="M-168.2751 -17.6755
L-168.3466 -17.6041
" />
<path d="M-168.3466 -17.6041
L-168.4180 -17.6755
" />
<path d="M-168.4180 -17.6755
L-168.3466 -17.7470
" />
<path d="M-168.3466 -17.7470
L-168.3466 -17.6041
" />
<path d="M-167.6323 -17.6041
L-167.6323 -19.1041
" />
<path d="M-167.6323 -19.1041
L-167.2751 -19.1041
" />
<path d="M-167.2751 -19.1041
L-167.0608 -19.0327
" />
<path d="M-167.0608 -19.0327
L-166.9180 -18.8898
" />
<path d="M-166.9180 -18.8898
L-166.8466 -18.7470
" />
<path d="M-166.8466 -18.7470
L-166.7751 -18.4613
" />
<path d="M-166.7751 -18.4613
L-166.7751 -18.2470
" />
<path d="M-166.7751 -18.2470
L-166.8466 -17.9613
" />
<path d="M-166.8466 -17.9613
L-166.9180 -17.8184
" />
<path d="M-166.9180 -17.8184
L-167.0608 -17.6755
" />
<path d="M-167.0608 -17.6755
L-167.2751 -17.6041
" />
<path d="M-167.2751 -17.6041
L-167.6323 -17.6041
" />
<path d="M-166.1323 -17.7470
L-166.0608 -17.6755
" />
<path d="M-166.0608 -17.6755
L-166.1323 -17.6041
" />
<path d="M-166.1323 -17.6041
L-166.2037 -17.6755
" />
<path d="M-166.2037 -17.6755
L-166.1323 -17.7470
" />
<path d="M-166.1323 -17.7470
L-166.1323 -17.6041
" />
<path d="M-165.4894 -18.0327
L-164.7751 -18.0327
" />
<path d="M-165.6323 -17.6041
L-165.1323 -19.1041
" />
<path d="M-165.1323 -19.1041
L-164.6323 -17.6041
" />
<path d="M-164.1323 -17.7470
L-164.0608 -17.6755
" />
<path d="M-164.0608 -17.6755
L-164.1323 -17.6041
" />
<path d="M-164.1323 -17.6041
L-164.2037 -17.6755
" />
<path d="M-164.2037 -17.6755
L-164.1323 -17.7470
" />
<path d="M-164.1323 -17.7470
L-164.1323 -17.6041
" />
<path d="M-161.4894 -17.6041
L-162.3466 -17.6041
" />
<path d="M-161.9180 -17.6041
L-161.9180 -19.1041
" />
<path d="M-161.9180 -19.1041
L-162.0608 -18.8898
" />
<path d="M-162.0608 -18.8898
L-162.2037 -18.7470
" />
<path d="M-162.2037 -18.7470
L-162.3466 -18.6755
" />
<path d="M-160.5608 -19.1041
L-160.4180 -19.1041
" />
<path d="M-160.4180 -19.1041
L-160.2751 -19.0327
" />
<path d="M-160.2751 -19.0327
L-160.2037 -18.9613
" />
<path d="M-160.2037 -18.9613
L-160.1323 -18.8184
" />
<path d="M-160.1323 -18.8184
L-160.0608 -18.5327
" />
<path d="M-160.0608 -18.5327
L-160.0608 -18.1755
" />
<path d="M-160.0608 -18.1755
L-160.1323 -17.8898
" />
<path d="M-160.1323 -17.8898
L-160.2037 -17.7470
" />
<path d="M-160.2037 -17.7470
L-160.2751 -17.6755
" />
<path d="M-160.2751 -17.6755
L-160.4180 -17.6041
" />
<path d="M-160.4180 -17.6041
L-160.5608 -17.6041
" />
<path d="M-160.5608 -17.6041
L-160.7037 -17.6755
" />
<path d="M-160.7037 -17.6755
L-160.7751 -17.7470
" />
<path d="M-160.7751 -17.7470
L-160.8466 -17.8898
" />
<path d="M-160.8466 -17.8898
L-160.9180 -18.1755
" />
<path d="M-160.9180 -18.1755
L-160.9180 -18.5327
" />
<path d="M-160.9180 -18.5327
L-160.8466 -18.8184
" />
<path d="M-160.8466 -18.8184
L-160.7751 -18.9613
" />
<path d="M-160.7751 -18.9613
L-160.7037 -19.0327
" />
<path d="M-160.7037 -19.0327
L-160.5608 -19.1041
" />
<path d="M-159.4180 -17.7470
L-159.3466 -17.6755
" />
<path d="M-159.3466 -17.6755
L-159.4180 -17.6041
" />
<path d="M-159.4180 -17.6041
L-159.4894 -17.6755
" />
<path d="M-159.4894 -17.6755
L-159.4180 -17.7470
" />
<path d="M-159.4180 -17.7470
L-159.4180 -17.6041
" />
<path d="M-158.4180 -19.1041
L-158.2751 -19.1041
" />
<path d="M-158.2751 -19.1041
L-158.1323 -19.0327
" />
<path d="M-158.1323 -19.0327
L-158.0608 -18.9613
" />
<path d="M-158.0608 -18.9613
L-157.9894 -18.8184
" />
<path d="M-157.9894 -18.8184
L-157.9180 -18.5327
" />
<path d="M-157.9180 -18.5327
L-157.9180 -18.1755
" />
<path d="M-157.9180 -18.1755
L-157.9894 -17.8898
" />
<path d="M-157.9894 -17.8898
L-158.0608 -17.7470
" />
<path d="M-158.0608 -17.7470
L-158.1323 -17.6755
" />
<path d="M-158.1323 -17.6755
L-158.2751 -17.6041
" />
<path d="M-158.2751 -17.6041
L-158.4180 -17.6041
" />
<path d="M-158.4180 -17.6041
L-158.5608 -17.6755
" />
<path d="M-158.5608 -17.6755
L-158.6323 -17.7470
" />
<path d="M-158.6323 -17.7470
L-158.7037 -17.8898
" />
<path d="M-158.7037 -17.8898
L-158.7751 -18.1755
" />
<path d="M-158.7751 -18.1755
L-158.7751 -18.5327
" />
<path d="M-158.7751 -18.5327
L-158.7037 -18.8184
" />
<path d="M-158.7037 -18.8184
L-158.6323 -18.9613
" />
<path d="M-158.6323 -18.9613
L-158.5608 -19.0327
" />
<path d="M-158.5608 -19.0327
L-158.4180 -19.1041
" />
<path d="M-157.2751 -17.7470
L-157.2037 -17.6755
" />
<path d="M-157.2037 -17.6755
L-157.2751 -17.6041
" />
<path d="M-157.2751 -17.6041
L-157.3466 -17.6755
" />
<path d="M-157.3466 -17.6755
L-157.2751 -17.7470
" />
<path d="M-157.2751 -17.7470
L-157.2751 -17.6041
" />
<path d="M-156.2751 -19.1041
L-156.1323 -19.1041
" />
<path d="M-156.1323 -19.1041
L-155.9894 -19.0327
" />
<path d="M-155.9894 -19.0327
L-155.9180 -18.9613
" />
<path d="M-155.9180 -18.9613
L-155.8466 -18.8184
" />
<path d="M-155.8466 -18.8184
L-155.7751 -18.5327
" />
<path d="M-155.7751 -18.5327
L-155.7751 -18.1755
" />
<path d="M-155.7751 -18.1755
L-155.8466 -17.8898
" />
<path d="M-155.8466 -17.8898
L-155.9180 -17.7470
" />
<path d="M-155.9180 -17.7470
L-155.9894 -17.6755
" />
<path d="M-155.9894 -17.6755
L-156.1323 -17.6041
" />
<path d="M-156.1323 -17.6041
L-156.2751 -17.6041
" />
<path d="M-156.2751 -17.6041
L-156.4180 -17.6755
" />
<path d="M-156.4180 -17.6755
L-156.4894 -17.7470
" />
<path d="M-156.4894 -17.7470
L-156.5608 -17.8898
" />
<path d="M-156.5608 -17.8898
L-156.6323 -18.1755
" />
<path d="M-156.6323 -18.1755
L-156.6323 -18.5327
" />
<path d="M-156.6323 -18.5327
L-156.5608 -18.8184
" />
<path d="M-156.5608 -18.8184
L-156.4894 -18.9613
" />
<path d="M-156.4894 -18.9613
L-156.4180 -19.0327
" />
<path d="M-156.4180 -19.0327
L-156.2751 -19.1041
" />
</g><path d="M-178.7310 -22.6902
L-70.7310 -22.6902
" />
</g>
<g style="fill:none; 
stroke:#C872AB; stroke-width:0.3000; stroke-opacity:1; 
stroke-linecap:round; stroke-linejoin:round;">
<text x="-92.7310" y="-20.3402"
textLength="9.9571" font-size="2.0000" lengthAdjust="spacingAndGlyphs"
text-anchor="start" opacity="0" stroke-opacity="0">Rev: 0.1</text>
<g class="stroked-text"><desc>Rev: 0.1</desc>
<path d="M-91.3193 -20.4119
L-91.8193 -21.1262
" />
<path d="M-92.1764 -20.4119
L-92.1764 -21.9119
" />
<path d="M-92.1764 -21.9119
L-91.6050 -21.9119
" />
<path d="M-91.6050 -21.9119
L-91.4622 -21.8405
" />
<path d="M-91.4622 -21.8405
L-91.3907 -21.7691
" />
<path d="M-91.3907 -21.7691
L-91.3193 -21.6262
" />
<path d="M-91.3193 -21.6262
L-91.3193 -21.4119
" />
<path d="M-91.3193 -21.4119
L-91.3907 -21.2691
" />
<path d="M-91.3907 -21.2691
L-91.4622 -21.1976
" />
<path d="M-91.4622 -21.1976
L-91.6050 -21.1262
" />
<path d="M-91.6050 -21.1262
L-92.1764 -21.1262
" />
<path d="M-90.1050 -20.4833
L-90.2479 -20.4119
" />
<path d="M-90.2479 -20.4119
L-90.5336 -20.4119
" />
<path d="M-90.5336 -20.4119
L-90.6764 -20.4833
" />
<path d="M-90.6764 -20.4833
L-90.7479 -20.6262
" />
<path d="M-90.7479 -20.6262
L-90.7479 -21.1976
" />
<path d="M-90.7479 -21.1976
L-90.6764 -21.3405
" />
<path d="M-90.6764 -21.3405
L-90.5336 -21.4119
" />
<path d="M-90.5336 -21.4119
L-90.2479 -21.4119
" />
<path d="M-90.2479 -21.4119
L-90.1050 -21.3405
" />
<path d="M-90.1050 -21.3405
L-90.0336 -21.1976
" />
<path d="M-90.0336 -21.1976
L-90.0336 -21.0548
" />
<path d="M-90.0336 -21.0548
L-90.7479 -20.9119
" />
<path d="M-89.5336 -21.4119
L-89.1764 -20.4119
" />
<path d="M-89.1764 -20.4119
L-88.8193 -21.4119
" />
<path d="M-88.2479 -20.5548
L-88.1764 -20.4833
" />
<path d="M-88.1764 -20.4833
L-88.2479 -20.4119
" />
<path d="M-88.2479 -20.4119
L-88.3193 -20.4833
" />
<path d="M-88.3193 -20.4833
L-88.2479 -20.5548
" />
<path d="M-88.2479 -20.5548
L-88.2479 -20.4119
" />
<path d="M-88.2479 -21.3405
L-88.1764 -21.2691
" />
<path d="M-88.1764 -21.2691
L-88.2479 -21.1976
" />
<path d="M-88.2479 -21.1976
L-88.3193 -21.2691
" />
<path d="M-88.3193 -21.2691
L-88.2479 -21.3405
" />
<path d="M-88.2479 -21.3405
L-88.2479 -21.1976
" />
<path d="M-86.1050 -21.9119
L-85.9622 -21.9119
" />
<path d="M-85.9622 -21.9119
L-85.8193 -21.8405
" />
<path d="M-85.8193 -21.8405
L-85.7479 -21.7691
" />
<path d="M-85.7479 -21.7691
L-85.6764 -21.6262
" />
<path d="M-85.6764 -21.6262
L-85.6050 -21.3405
" />
<path d="M-85.6050 -21.3405
L-85.6050 -20.9833
" />
<path d="M-85.6050 -20.9833
L-85.6764 -20.6976
" />
<path d="M-85.6764 -20.6976
L-85.7479 -20.5548
" />
<path d="M-85.7479 -20.5548
L-85.8193 -20.4833
" />
<path d="M-85.8193 -20.4833
L-85.9622 -20.4119
" />
<path d="M-85.9622 -20.4119
L-86.1050 -20.4119
" />
<path d="M-86.1050 -20.4119
L-86.2479 -20.4833
" />
<path d="M-86.2479 -20.4833
L-86.3193 -20.5548
" />
<path d="M-86.3193 -20.5548
L-86.3907 -20.6976
" />
<path d="M-86.3907 -20.6976
L-86.4622 -20.9833
" />
<path d="M-86.4622 -20.9833
L-86.4622 -21.3405
" />
<path d="M-86.4622 -21.3405
L-86.3907 -21.6262
" />
<path d="M-86.3907 -21.6262
L-86.3193 -21.7691
" />
<path d="M-86.3193 -21.7691
L-86.2479 -21.8405
" />
<path d="M-86.2479 -21.8405
L-86.1050 -21.9119
" />
<path d="M-84.9622 -20.5548
L-84.8907 -20.4833
" />
<path d="M-84.8907 -20.4833
L-84.9622 -20.4119
" />
<path d="M-84.9622 -20.4119
L-85.0336 -20.4833
" />
<path d="M-85.0336 -20.4833
L-84.9622 -20.5548
" />
<path d="M-84.9622 -20.5548
L-84.9622 -20.4119
" />
<path d="M-83.4622 -20.4119
L-84.3193 -20.4119
" />
<path d="M-83.8907 -20.4119
L-83.8907 -21.9119
" />
<path d="M-83.8907 -21.9119
L-84.0336 -21.6976
" />
<path d="M-84.0336 -21.6976
L-84.1764 -21.5548
" />
<path d="M-84.1764 -21.5548
L-84.3193 -21.4833
" />
</g></g>
<g style="fill:none; 
stroke:#C872AB; stroke-width:0.1500; stroke-opacity:1; 
stroke-linecap:round; stroke-linejoin:round;">
<text x="-177.7310" y="-20.3402"
textLength="11.6500" font-size="2.0000" lengthAdjust="spacingAndGlyphs"
text-anchor="start" opacity="0" stroke-opacity="0">Size: User</text>
<g class="stroked-text"><desc>Size: User</desc>
<path d="M-177.3466 -20.4755
L-177.1323 -20.4041
" />
<path d="M-177.1323 -20.4041
L-176.7751 -20.4041
" />
<path d="M-176.7751 -20.4041
L-176.6323 -20.4755
" />
<path d="M-176.6323 -20.4755
L-176.5608 -20.5470
" />
<path d="M-176.5608 -20.5470
L-176.4894 -20.6898
" />
<path d="M-176.4894 -20.6898
L-176.4894 -20.8327
" />
<path d="M-176.4894 -20.8327
L-176.5608 -20.9755
" />
<path d="M-176.5608 -20.9755
L-176.6323 -21.0470
" />
<path d="M-176.6323 -21.0470
L-176.7751 -21.1184
" />
<path d="M-176.7751 -21.1184
L-177.0608 -21.1898
" />
<path d="M-177.0608 -21.1898
L-177.2037 -21.2613
" />
<path d="M-177.2037 -21.2613
L-177.2751 -21.3327
" />
<path d="M-177.2751 -21.3327
L-177.3466 -21.4755
" />
<path d="M-177.3466 -21.4755
L-177.3466 -21.6184
" />
<path d="M-177.3466 -21.6184
L-177.2751 -21.7613
" />
<path d="M-177.2751 -21.7613
L-177.2037 -21.8327
" />
<path d="M-177.2037 -21.8327
L-177.0608 -21.9041
" />
<path d="M-177.0608 -21.9041
L-176.7037 -21.9041
" />
<path d="M-176.7037 -21.9041
L-176.4894 -21.8327
" />
<path d="M-175.8466 -20.4041
L-175.8466 -21.4041
" />
<path d="M-175.8466 -21.9041
L-175.9180 -21.8327
" />
<path d="M-175.9180 -21.8327
L-175.8466 -21.7613
" />
<path d="M-175.8466 -21.7613
L-175.7751 -21.8327
" />
<path d="M-175.7751 -21.8327
L-175.8466 -21.9041
" />
<path d="M-175.8466 -21.9041
L-175.8466 -21.7613
" />
<path d="M-175.2751 -21.4041
L-174.4894 -21.4041
" />
<path d="M-174.4894 -21.4041
L-175.2751 -20.4041
" />
<path d="M-175.2751 -20.4041
L-174.4894 -20.4041
" />
<path d="M-173.3466 -20.4755
L-173.4894 -20.4041
" />
<path d="M-173.4894 -20.4041
L-173.7751 -20.4041
" />
<path d="M-173.7751 -20.4041
L-173.9180 -20.4755
" />
<path d="M-173.9180 -20.4755
L-173.9894 -20.6184
" />
<path d="M-173.9894 -20.6184
L-173.9894 -21.1898
" />
<path d="M-173.9894 -21.1898
L-173.9180 -21.3327
" />
<path d="M-173.9180 -21.3327
L-173.7751 -21.4041
" />
<path d="M-173.7751 -21.4041
L-173.4894 -21.4041
" />
<path d="M-173.4894 -21.4041
L-173.3466 -21.3327
" />
<path d="M-173.3466 -21.3327
L-173.2751 -21.1898
" />
<path d="M-173.2751 -21.1898
L-173.2751 -21.0470
" />
<path d="M-173.2751 -21.0470
L-173.9894 -20.9041
" />
<path d="M-172.6323 -20.5470
L-172.5608 -20.4755
" />
<path d="M-172.5608 -20.4755
L-172.6323 -20.4041
" />
<path d="M-172.6323 -20.4041
L-172.7037 -20.4755
" />
<path d="M-172.7037 -20.4755
L-172.6323 -20.5470
" />
<path d="M-172.6323 -20.5470
L-172.6323 -20.4041
" />
<path d="M-172.6323 -21.3327
L-172.5608 -21.2613
" />
<path d="M-172.5608 -21.2613
L-172.6323 -21.1898
" />
<path d="M-172.6323 -21.1898
L-172.7037 -21.2613
" />
<path d="M-172.7037 -21.2613
L-172.6323 -21.3327
" />
<path d="M-172.6323 -21.3327
L-172.6323 -21.1898
" />
<path d="M-170.7751 -21.9041
L-170.7751 -20.6898
" />
<path d="M-170.7751 -20.6898
L-170.7037 -20.5470
" />
<path d="M-170.7037 -20.5470
L-170.6323 -20.4755
" />
<path d="M-170.6323 -20.4755
L-170.4894 -20.4041
" />
<path d="M-170.4894 -20.4041
L-170.2037 -20.4041
" />
<path d="M-170.2037 -20.4041
L-170.0608 -20.4755
" />
<path d="M-170.0608 -20.4755
L-169.9894 -20.5470
" />
<path d="M-169.9894 -20.5470
L-169.9180 -20.6898
" />
<path d="M-169.9180 -20.6898
L-169.9180 -21.9041
" />
<path d="M-169.2751 -20.4755
L-169.1323 -20.4041
" />
<path d="M-169.1323 -20.4041
L-168.8466 -20.4041
" />
<path d="M-168.8466 -20.4041
L-168.7037 -20.4755
" />
<path d="M-168.7037 -20.4755
L-168.6323 -20.6184
" />
<path d="M-168.6323 -20.6184
L-168.6323 -20.6898
" />
<path d="M-168.6323 -20.6898
L-168.7037 -20.8327
" />
<path d="M-168.7037 -20.8327
L-168.8466 -20.9041
" />
<path d="M-168.8466 -20.9041
L-169.0608 -20.9041
" />
<path d="M-169.0608 -20.9041
L-169.2037 -20.9755
" />
<path d="M-169.2037 -20.9755
L-169.2751 -21.1184
" />
<path d="M-169.2751 -21.1184
L-169.2751 -21.1898
" />
<path d="M-169.2751 -21.1898
L-169.2037 -21.3327
" />
<path d="M-169.2037 -21.3327
L-169.0608 -21.4041
" />
<path d="M-169.0608 -21.4041
L-168.8466 -21.4041
" />
<path d="M-168.8466 -21.4041
L-168.7037 -21.3327
" />
<path d="M-167.4180 -20.4755
L-167.5608 -20.4041
" />
<path d="M-167.5608 -20.4041
L-167.8466 -20.4041
" />
<path d="M-167.8466 -20.4041
L-167.9894 -20.4755
" />
<path d="M-167.9894 -20.4755
L-168.0608 -20.6184
" />
<path d="M-168.0608 -20.6184
L-168.0608 -21.1898
" />
<path d="M-168.0608 -21.1898
L-167.9894 -21.3327
" />
<path d="M-167.9894 -21.3327
L-167.8466 -21.4041
" />
<path d="M-167.8466 -21.4041
L-167.5608 -21.4041
" />
<path d="M-167.5608 -21.4041
L-167.4180 -21.3327
" />
<path d="M-167.4180 -21.3327
L-167.3466 -21.1898
" />
<path d="M-167.3466 -21.1898
L-167.3466 -21.0470
" />
<path d="M-167.3466 -21.0470
L-168.0608 -20.9041
" />
<path d="M-166.7037 -20.4041
L-166.7037 -21.4041
" />
<path d="M-166.7037 -21.1184
L-166.6323 -21.2613
" />
<path d="M-166.6323 -21.2613
L-166.5608 -21.3327
" />
<path d="M-166.5608 -21.3327
L-166.4180 -21.4041
" />
<path d="M-166.4180 -21.4041
L-166.2751 -21.4041
" />
</g><text x="-92.7310" y="-17.5403"
textLength="8.5071" font-size="2.0000" lengthAdjust="spacingAndGlyphs"
text-anchor="start" opacity="0" stroke-opacity="0">Id: 1/1</text>
<g class="stroked-text"><desc>Id: 1/1</desc>
<path d="M-92.2751 -17.6041
L-92.2751 -19.1041
" />
<path d="M-90.9180 -17.6041
L-90.9180 -19.1041
" />
<path d="M-90.9180 -17.6755
L-91.0608 -17.6041
" />
<path d="M-91.0608 -17.6041
L-91.3466 -17.6041
" />
<path d="M-91.3466 -17.6041
L-91.4894 -17.6755
" />
<path d="M-91.4894 -17.6755
L-91.5608 -17.7470
" />
<path d="M-91.5608 -17.7470
L-91.6323 -17.8898
" />
<path d="M-91.6323 -17.8898
L-91.6323 -18.3184
" />
<path d="M-91.6323 -18.3184
L-91.5608 -18.4613
" />
<path d="M-91.5608 -18.4613
L-91.4894 -18.5327
" />
<path d="M-91.4894 -18.5327
L-91.3466 -18.6041
" />
<path d="M-91.3466 -18.6041
L-91.0608 -18.6041
" />
<path d="M-91.0608 -18.6041
L-90.9180 -18.5327
" />
<path d="M-90.2037 -17.7470
L-90.1323 -17.6755
" />
<path d="M-90.1323 -17.6755
L-90.2037 -17.6041
" />
<path d="M-90.2037 -17.6041
L-90.2751 -17.6755
" />
<path d="M-90.2751 -17.6755
L-90.2037 -17.7470
" />
<path d="M-90.2037 -17.7470
L-90.2037 -17.6041
" />
<path d="M-90.2037 -18.5327
L-90.1323 -18.4613
" />
<path d="M-90.1323 -18.4613
L-90.2037 -18.3898
" />
<path d="M-90.2037 -18.3898
L-90.2751 -18.4613
" />
<path d="M-90.2751 -18.4613
L-90.2037 -18.5327
" />
<path d="M-90.2037 -18.5327
L-90.2037 -18.3898
" />
<path d="M-87.5608 -17.6041
L-88.4180 -17.6041
" />
<path d="M-87.9894 -17.6041
L-87.9894 -19.1041
" />
<path d="M-87.9894 -19.1041
L-88.1323 -18.8898
" />
<path d="M-88.1323 -18.8898
L-88.2751 -18.7470
" />
<path d="M-88.2751 -18.7470
L-88.4180 -18.6755
" />
<path d="M-85.8466 -19.1755
L-87.1323 -17.2470
" />
<path d="M-84.5608 -17.6041
L-85.4180 -17.6041
" />
<path d="M-84.9894 -17.6041
L-84.9894 -19.1041
" />
<path d="M-84.9894 -19.1041
L-85.1323 -18.8898
" />
<path d="M-85.1323 -18.8898
L-85.2751 -18.7470
" />
<path d="M-85.2751 -18.7470
L-85.4180 -18.6755
" />
</g><path d="M-178.7310 -26.6902
L-70.7310 -26.6902
" />
</g>
<g style="fill:none; 
stroke:#C872AB; stroke-width:0.4000; stroke-opacity:1; 
stroke-linecap:round; stroke-linejoin:round;">
<text x="-177.7310" y="-23.8902"
textLength="60.7048" font-size="2.6667" lengthAdjust="spacingAndGlyphs"
text-anchor="start" opacity="0" stroke-opacity="0">Title: Tsumikoro TMC2130 Dual Stepper</text>
<g class="stroked-text"><desc>Title: Tsumikoro TMC2130 Dual Stepper</desc>
<path d="M-177.0392 -25.9858
L-175.8964 -25.9858
" />
<path d="M-176.7178 -23.9858
L-176.4678 -25.9858
" />
<path d="M-175.4797 -23.9858
L-175.3130 -25.3191
" />
<path d="M-175.2297 -25.9858
L-175.3368 -25.8906
" />
<path d="M-175.3368 -25.8906
L-175.2535 -25.7953
" />
<path d="M-175.2535 -25.7953
L-175.1464 -25.8906
" />
<path d="M-175.1464 -25.8906
L-175.2297 -25.9858
" />
<path d="M-175.2297 -25.9858
L-175.2535 -25.7953
" />
<path d="M-174.6464 -25.3191
L-173.8845 -25.3191
" />
<path d="M-174.2773 -25.9858
L-174.4916 -24.2715
" />
<path d="M-174.4916 -24.2715
L-174.4202 -24.0810
" />
<path d="M-174.4202 -24.0810
L-174.2416 -23.9858
" />
<path d="M-174.2416 -23.9858
L-174.0511 -23.9858
" />
<path d="M-173.0987 -23.9858
L-173.2773 -24.0810
" />
<path d="M-173.2773 -24.0810
L-173.3487 -24.2715
" />
<path d="M-173.3487 -24.2715
L-173.1345 -25.9858
" />
<path d="M-171.5630 -24.0810
L-171.7654 -23.9858
" />
<path d="M-171.7654 -23.9858
L-172.1464 -23.9858
" />
<path d="M-172.1464 -23.9858
L-172.3249 -24.0810
" />
<path d="M-172.3249 -24.0810
L-172.3964 -24.2715
" />
<path d="M-172.3964 -24.2715
L-172.3011 -25.0334
" />
<path d="M-172.3011 -25.0334
L-172.1821 -25.2239
" />
<path d="M-172.1821 -25.2239
L-171.9797 -25.3191
" />
<path d="M-171.9797 -25.3191
L-171.5987 -25.3191
" />
<path d="M-171.5987 -25.3191
L-171.4202 -25.2239
" />
<path d="M-171.4202 -25.2239
L-171.3487 -25.0334
" />
<path d="M-171.3487 -25.0334
L-171.3726 -24.8430
" />
<path d="M-171.3726 -24.8430
L-172.3487 -24.6525
" />
<path d="M-170.5987 -24.1763
L-170.5154 -24.0810
" />
<path d="M-170.5154 -24.0810
L-170.6226 -23.9858
" />
<path d="M-170.6226 -23.9858
L-170.7059 -24.0810
" />
<path d="M-170.7059 -24.0810
L-170.5987 -24.1763
" />
<path d="M-170.5987 -24.1763
L-170.6226 -23.9858
" />
<path d="M-170.4678 -25.2239
L-170.3845 -25.1287
" />
<path d="M-170.3845 -25.1287
L-170.4916 -25.0334
" />
<path d="M-170.4916 -25.0334
L-170.5749 -25.1287
" />
<path d="M-170.5749 -25.1287
L-170.4678 -25.2239
" />
<path d="M-170.4678 -25.2239
L-170.4916 -25.0334
" />
<path d="M-168.1821 -25.9858
L-167.0392 -25.9858
" />
<path d="M-167.8607 -23.9858
L-167.6107 -25.9858
" />
<path d="M-166.7059 -24.0810
L-166.5273 -23.9858
" />
<path d="M-166.5273 -23.9858
L-166.1464 -23.9858
" />
<path d="M-166.1464 -23.9858
L-165.9440 -24.0810
" />
<path d="M-165.9440 -24.0810
L-165.8249 -24.2715
" />
<path d="M-165.8249 -24.2715
L-165.8130 -24.3668
" />
<path d="M-165.8130 -24.3668
L-165.8845 -24.5572
" />
<path d="M-165.8845 -24.5572
L-166.0630 -24.6525
" />
<path d="M-166.0630 -24.6525
L-166.3487 -24.6525
" />
<path d="M-166.3487 -24.6525
L-166.5273 -24.7477
" />
<path d="M-166.5273 -24.7477
L-166.5987 -24.9382
" />
<path d="M-166.5987 -24.9382
L-166.5868 -25.0334
" />
<path d="M-166.5868 -25.0334
L-166.4678 -25.2239
" />
<path d="M-166.4678 -25.2239
L-166.2654 -25.3191
" />
<path d="M-166.2654 -25.3191
L-165.9797 -25.3191
" />
<path d="M-165.9797 -25.3191
L-165.8011 -25.2239
" />
<path d="M-163.9797 -25.3191
L-164.1464 -23.9858
" />
<path d="M-164.8368 -25.3191
L-164.9678 -24.2715
" />
<path d="M-164.9678 -24.2715
L-164.8964 -24.0810
" />
<path d="M-164.8964 -24.0810
L-164.7178 -23.9858
" />
<path d="M-164.7178 -23.9858
L-164.4321 -23.9858
" />
<path d="M-164.4321 -23.9858
L-164.2297 -24.0810
" />
<path d="M-164.2297 -24.0810
L-164.1226 -24.1763
" />
<path d="M-163.1940 -23.9858
L-163.0273 -25.3191
" />
<path d="M-163.0511 -25.1287
L-162.9440 -25.2239
" />
<path d="M-162.9440 -25.2239
L-162.7416 -25.3191
" />
<path d="M-162.7416 -25.3191
L-162.4559 -25.3191
" />
<path d="M-162.4559 -25.3191
L-162.2773 -25.2239
" />
<path d="M-162.2773 -25.2239
L-162.2059 -25.0334
" />
<path d="M-162.2059 -25.0334
L-162.3368 -23.9858
" />
<path d="M-162.2059 -25.0334
L-162.0868 -25.2239
" />
<path d="M-162.0868 -25.2239
L-161.8845 -25.3191
" />
<path d="M-161.8845 -25.3191
L-161.5987 -25.3191
" />
<path d="M-161.5987 -25.3191
L-161.4202 -25.2239
" />
<path d="M-161.4202 -25.2239
L-161.3487 -25.0334
" />
<path d="M-161.3487 -25.0334
L-161.4797 -23.9858
" />
<path d="M-160.5273 -23.9858
L-160.3606 -25.3191
" />
<path d="M-160.2773 -25.9858
L-160.3845 -25.8906
" />
<path d="M-160.3845 -25.8906
L-160.3011 -25.7953
" />
<path d="M-160.3011 -25.7953
L-160.1940 -25.8906
" />
<path d="M-160.1940 -25.8906
L-160.2773 -25.9858
" />
<path d="M-160.2773 -25.9858
L-160.3011 -25.7953
" />
<path d="M-159.5749 -23.9858
L-159.3249 -25.9858
" />
<path d="M-159.2892 -24.7477
L-158.8130 -23.9858
" />
<path d="M-158.6464 -25.3191
L-159.5035 -24.5572
" />
<path d="M-157.6702 -23.9858
L-157.8487 -24.0810
" />
<path d="M-157.8487 -24.0810
L-157.9321 -24.1763
" />
<path d="M-157.9321 -24.1763
L-158.0035 -24.3668
" />
<path d="M-158.0035 -24.3668
L-157.9321 -24.9382
" />
<path d="M-157.9321 -24.9382
L-157.8130 -25.1287
" />
<path d="M-157.8130 -25.1287
L-157.7059 -25.2239
" />
<path d="M-157.7059 -25.2239
L-157.5035 -25.3191
" />
<path d="M-157.5035 -25.3191
L-157.2178 -25.3191
" />
<path d="M-157.2178 -25.3191
L-157.0392 -25.2239
" />
<path d="M-157.0392 -25.2239
L-156.9559 -25.1287
" />
<path d="M-156.9559 -25.1287
L-156.8845 -24.9382
" />
<path d="M-156.8845 -24.9382
L-156.9559 -24.3668
" />
<path d="M-156.9559 -24.3668
L-157.0749 -24.1763
" />
<path d="M-157.0749 -24.1763
L-157.1821 -24.0810
" />
<path d="M-157.1821 -24.0810
L-157.3845 -23.9858
" />
<path d="M-157.3845 -23.9858
L-157.6702 -23.9858
" />
<path d="M-156.1464 -23.9858
L-155.9797 -25.3191
" />
<path d="M-156.0273 -24.9382
L-155.9083 -25.1287
" />
<path d="M-155.9083 -25.1287
L-155.8011 -25.2239
" />
<path d="M-155.8011 -25.2239
L-155.5987 -25.3191
" />
<path d="M-155.5987 -25.3191
L-155.4083 -25.3191
" />
<path d="M-154.6226 -23.9858
L-154.8011 -24.0810
" />
<path d="M-154.8011 -24.0810
L-154.8845 -24.1763
" />
<path d="M-154.8845 -24.1763
L-154.9559 -24.3668
" />
<path d="M-154.9559 -24.3668
L-154.8845 -24.9382
" />
<path d="M-154.8845 -24.9382
L-154.7654 -25.1287
" />
<path d="M-154.7654 -25.1287
L-154.6583 -25.2239
" />
<path d="M-154.6583 -25.2239
L-154.4559 -25.3191
" />
<path d="M-154.4559 -25.3191
L-154.1702 -25.3191
" />
<path d="M-154.1702 -25.3191
L-153.9916 -25.2239
" />
<path d="M-153.9916 -25.2239
L-153.9083 -25.1287
" />
<path d="M-153.9083 -25.1287
L-153.8368 -24.9382
" />
<path d="M-153.8368 -24.9382
L-153.9083 -24.3668
" />
<path d="M-153.9083 -24.3668
L-154.0273 -24.1763
" />
<path d="M-154.0273 -24.1763
L-154.1345 -24.0810
" />
<path d="M-154.1345 -24.0810
L-154.3368 -23.9858
" />
<path d="M-154.3368 -23.9858
L-154.6226 -23.9858
" />
<path d="M-151.6106 -25.9858
L-150.4678 -25.9858
" />
<path d="M-151.2892 -23.9858
L-151.0392 -25.9858
" />
<path d="M-150.0511 -23.9858
L-149.8011 -25.9858
" />
<path d="M-149.8011 -25.9858
L-149.3130 -24.5572
" />
<path d="M-149.3130 -24.5572
L-148.4678 -25.9858
" />
<path d="M-148.4678 -25.9858
L-148.7178 -23.9858
" />
<path d="M-146.5987 -24.1763
L-146.7059 -24.0810
" />
<path d="M-146.7059 -24.0810
L-147.0035 -23.9858
" />
<path d="M-147.0035 -23.9858
L-147.1940 -23.9858
" />
<path d="M-147.1940 -23.9858
L-147.4678 -24.0810
" />
<path d="M-147.4678 -24.0810
L-147.6345 -24.2715
" />
<path d="M-147.6345 -24.2715
L-147.7059 -24.4620
" />
<path d="M-147.7059 -24.4620
L-147.7535 -24.8430
" />
<path d="M-147.7535 -24.8430
L-147.7178 -25.1287
" />
<path d="M-147.7178 -25.1287
L-147.5749 -25.5096
" />
<path d="M-147.5749 -25.5096
L-147.4559 -25.7001
" />
<path d="M-147.4559 -25.7001
L-147.2416 -25.8906
" />
<path d="M-147.2416 -25.8906
L-146.9440 -25.9858
" />
<path d="M-146.9440 -25.9858
L-146.7535 -25.9858
" />
<path d="M-146.7535 -25.9858
L-146.4797 -25.8906
" />
<path d="M-146.4797 -25.8906
L-146.3964 -25.7953
" />
<path d="M-145.6345 -25.7953
L-145.5273 -25.8906
" />
<path d="M-145.5273 -25.8906
L-145.3249 -25.9858
" />
<path d="M-145.3249 -25.9858
L-144.8487 -25.9858
" />
<path d="M-144.8487 -25.9858
L-144.6702 -25.8906
" />
<path d="M-144.6702 -25.8906
L-144.5868 -25.7953
" />
<path d="M-144.5868 -25.7953
L-144.5154 -25.6049
" />
<path d="M-144.5154 -25.6049
L-144.5392 -25.4144
" />
<path d="M-144.5392 -25.4144
L-144.6702 -25.1287
" />
<path d="M-144.6702 -25.1287
L-145.9559 -23.9858
" />
<path d="M-145.9559 -23.9858
L-144.7178 -23.9858
" />
<path d="M-142.8130 -23.9858
L-143.9559 -23.9858
" />
<path d="M-143.3845 -23.9858
L-143.1345 -25.9858
" />
<path d="M-143.1345 -25.9858
L-143.3606 -25.7001
" />
<path d="M-143.3606 -25.7001
L-143.5749 -25.5096
" />
<path d="M-143.5749 -25.5096
L-143.7773 -25.4144
" />
<path d="M-141.8964 -25.9858
L-140.6583 -25.9858
" />
<path d="M-140.6583 -25.9858
L-141.4202 -25.2239
" />
<path d="M-141.4202 -25.2239
L-141.1345 -25.2239
" />
<path d="M-141.1345 -25.2239
L-140.9559 -25.1287
" />
<path d="M-140.9559 -25.1287
L-140.8726 -25.0334
" />
<path d="M-140.8726 -25.0334
L-140.8011 -24.8430
" />
<path d="M-140.8011 -24.8430
L-140.8606 -24.3668
" />
<path d="M-140.8606 -24.3668
L-140.9797 -24.1763
" />
<path d="M-140.9797 -24.1763
L-141.0868 -24.0810
" />
<path d="M-141.0868 -24.0810
L-141.2892 -23.9858
" />
<path d="M-141.2892 -23.9858
L-141.8606 -23.9858
" />
<path d="M-141.8606 -23.9858
L-142.0392 -24.0810
" />
<path d="M-142.0392 -24.0810
L-142.1226 -24.1763
" />
<path d="M-139.4202 -25.9858
L-139.2297 -25.9858
" />
<path d="M-139.2297 -25.9858
L-139.0511 -25.8906
" />
<path d="M-139.0511 -25.8906
L-138.9678 -25.7953
" />
<path d="M-138.9678 -25.7953
L-138.8964 -25.6049
" />
<path d="M-138.8964 -25.6049
L-138.8487 -25.2239
" />
<path d="M-138.8487 -25.2239
L-138.9083 -24.7477
" />
<path d="M-138.9083 -24.7477
L-139.0511 -24.3668
" />
<path d="M-139.0511 -24.3668
L-139.1702 -24.1763
" />
<path d="M-139.1702 -24.1763
L-139.2773 -24.0810
" />
<path d="M-139.2773 -24.0810
L-139.4797 -23.9858
" />
<path d="M-139.4797 -23.9858
L-139.6702 -23.9858
" />
<path d="M-139.6702 -23.9858
L-139.8487 -24.0810
" />
<path d="M-139.8487 -24.0810
L-139.9321 -24.1763
" />
<path d="M-139.9321 -24.1763
L-140.0035 -24.3668
" />
<path d="M-140.0035 -24.3668
L-140.0511 -24.7477
" />
<path d="M-140.0511 -24.7477
L-139.9916 -25.2239
" />
<path d="M-139.9916 -25.2239
L-139.8487 -25.6049
" />
<path d="M-139.8487 -25.6049
L-139.7297 -25.7953
" />
<path d="M-139.7297 -25.7953
L-139.6226 -25.8906
" />
<path d="M-139.6226 -25.8906
L-139.4202 -25.9858
" />
<path d="M-136.6226 -23.9858
L-136.3726 -25.9858
" />
<path d="M-136.3726 -25.9858
L-135.8964 -25.9858
" />
<path d="M-135.8964 -25.9858
L-135.6226 -25.8906
" />
<path d="M-135.6226 -25.8906
L-135.4559 -25.7001
" />
<path d="M-135.4559 -25.7001
L-135.3845 -25.5096
" />
<path d="M-135.3845 -25.5096
L-135.3368 -25.1287
" />
<path d="M-135.3368 -25.1287
L-135.3726 -24.8430
" />
<path d="M-135.3726 -24.8430
L-135.5154 -24.4620
" />
<path d="M-135.5154 -24.4620
L-135.6345 -24.2715
" />
<path d="M-135.6345 -24.2715
L-135.8487 -24.0810
" />
<path d="M-135.8487 -24.0810
L-136.1464 -23.9858
" />
<path d="M-136.1464 -23.9858
L-136.6226 -23.9858
" />
<path d="M-133.5987 -25.3191
L-133.7654 -23.9858
" />
<path d="M-134.4559 -25.3191
L-134.5868 -24.2715
" />
<path d="M-134.5868 -24.2715
L-134.5154 -24.0810
" />
<path d="M-134.5154 -24.0810
L-134.3368 -23.9858
" />
<path d="M-134.3368 -23.9858
L-134.0511 -23.9858
" />
<path d="M-134.0511 -23.9858
L-133.8487 -24.0810
" />
<path d="M-133.8487 -24.0810
L-133.7416 -24.1763
" />
<path d="M-131.9559 -23.9858
L-131.8249 -25.0334
" />
<path d="M-131.8249 -25.0334
L-131.8964 -25.2239
" />
<path d="M-131.8964 -25.2239
L-132.0749 -25.3191
" />
<path d="M-132.0749 -25.3191
L-132.4559 -25.3191
" />
<path d="M-132.4559 -25.3191
L-132.6583 -25.2239
" />
<path d="M-131.9440 -24.0810
L-132.1464 -23.9858
" />
<path d="M-132.1464 -23.9858
L-132.6226 -23.9858
" />
<path d="M-132.6226 -23.9858
L-132.8011 -24.0810
" />
<path d="M-132.8011 -24.0810
L-132.8726 -24.2715
" />
<path d="M-132.8726 -24.2715
L-132.8487 -24.4620
" />
<path d="M-132.8487 -24.4620
L-132.7297 -24.6525
" />
<path d="M-132.7297 -24.6525
L-132.5273 -24.7477
" />
<path d="M-132.5273 -24.7477
L-132.0511 -24.7477
" />
<path d="M-132.0511 -24.7477
L-131.8487 -24.8430
" />
<path d="M-130.7178 -23.9858
L-130.8964 -24.0810
" />
<path d="M-130.8964 -24.0810
L-130.9678 -24.2715
" />
<path d="M-130.9678 -24.2715
L-130.7535 -25.9858
" />
<path d="M-128.5154 -24.0810
L-128.2416 -23.9858
" />
<path d="M-128.2416 -23.9858
L-127.7654 -23.9858
" />
<path d="M-127.7654 -23.9858
L-127.5630 -24.0810
" />
<path d="M-127.5630 -24.0810
L-127.4559 -24.1763
" />
<path d="M-127.4559 -24.1763
L-127.3368 -24.3668
" />
<path d="M-127.3368 -24.3668
L-127.3130 -24.5572
" />
<path d="M-127.3130 -24.5572
L-127.3845 -24.7477
" />
<path d="M-127.3845 -24.7477
L-127.4678 -24.8430
" />
<path d="M-127.4678 -24.8430
L-127.6464 -24.9382
" />
<path d="M-127.6464 -24.9382
L-128.0154 -25.0334
" />
<path d="M-128.0154 -25.0334
L-128.1940 -25.1287
" />
<path d="M-128.1940 -25.1287
L-128.2773 -25.2239
" />
<path d="M-128.2773 -25.2239
L-128.3487 -25.4144
" />
<path d="M-128.3487 -25.4144
L-128.3249 -25.6049
" />
<path d="M-128.3249 -25.6049
L-128.2059 -25.7953
" />
<path d="M-128.2059 -25.7953
L-128.0987 -25.8906
" />
<path d="M-128.0987 -25.8906
L-127.8964 -25.9858
" />
<path d="M-127.8964 -25.9858
L-127.4202 -25.9858
" />
<path d="M-127.4202 -25.9858
L-127.1464 -25.8906
" />
<path d="M-126.6464 -25.3191
L-125.8845 -25.3191
" />
<path d="M-126.2773 -25.9858
L-126.4916 -24.2715
" />
<path d="M-126.4916 -24.2715
L-126.4202 -24.0810
" />
<path d="M-126.4202 -24.0810
L-126.2416 -23.9858
" />
<path d="M-126.2416 -23.9858
L-126.0511 -23.9858
" />
<path d="M-124.6106 -24.0810
L-124.8130 -23.9858
" />
<path d="M-124.8130 -23.9858
L-125.1940 -23.9858
" />
<path d="M-125.1940 -23.9858
L-125.3726 -24.0810
" />
<path d="M-125.3726 -24.0810
L-125.4440 -24.2715
" />
<path d="M-125.4440 -24.2715
L-125.3487 -25.0334
" />
<path d="M-125.3487 -25.0334
L-125.2297 -25.2239
" />
<path d="M-125.2297 -25.2239
L-125.0273 -25.3191
" />
<path d="M-125.0273 -25.3191
L-124.6464 -25.3191
" />
<path d="M-124.6464 -25.3191
L-124.4678 -25.2239
" />
<path d="M-124.4678 -25.2239
L-124.3964 -25.0334
" />
<path d="M-124.3964 -25.0334
L-124.4202 -24.8430
" />
<path d="M-124.4202 -24.8430
L-125.3964 -24.6525
" />
<path d="M-123.5035 -25.3191
L-123.7535 -23.3191
" />
<path d="M-123.5154 -25.2239
L-123.3130 -25.3191
" />
<path d="M-123.3130 -25.3191
L-122.9321 -25.3191
" />
<path d="M-122.9321 -25.3191
L-122.7535 -25.2239
" />
<path d="M-122.7535 -25.2239
L-122.6702 -25.1287
" />
<path d="M-122.6702 -25.1287
L-122.5987 -24.9382
" />
<path d="M-122.5987 -24.9382
L-122.6702 -24.3668
" />
<path d="M-122.6702 -24.3668
L-122.7892 -24.1763
" />
<path d="M-122.7892 -24.1763
L-122.8964 -24.0810
" />
<path d="M-122.8964 -24.0810
L-123.0987 -23.9858
" />
<path d="M-123.0987 -23.9858
L-123.4797 -23.9858
" />
<path d="M-123.4797 -23.9858
L-123.6583 -24.0810
" />
<path d="M-121.6940 -25.3191
L-121.9440 -23.3191
" />
<path d="M-121.7059 -25.2239
L-121.5035 -25.3191
" />
<path d="M-121.5035 -25.3191
L-121.1226 -25.3191
" />
<path d="M-121.1226 -25.3191
L-120.9440 -25.2239
" />
<path d="M-120.9440 -25.2239
L-120.8606 -25.1287
" />
<path d="M-120.8606 -25.1287
L-120.7892 -24.9382
" />
<path d="M-120.7892 -24.9382
L-120.8606 -24.3668
" />
<path d="M-120.8606 -24.3668
L-120.9797 -24.1763
" />
<path d="M-120.9797 -24.1763
L-121.0868 -24.0810
" />
<path d="M-121.0868 -24.0810
L-121.2892 -23.9858
" />
<path d="M-121.2892 -23.9858
L-121.6702 -23.9858
" />
<path d="M-121.6702 -23.9858
L-121.8487 -24.0810
" />
<path d="M-119.2773 -24.0810
L-119.4797 -23.9858
" />
<path d="M-119.4797 -23.9858
L-119.8606 -23.9858
" />
<path d="M-119.8606 -23.9858
L-120.0392 -24.0810
" />
<path d="M-120.0392 -24.0810
L-120.1106 -24.2715
" />
<path d="M-120.1106 -24.2715
L-120.0154 -25.0334
" />
<path d="M-120.0154 -25.0334
L-119.8964 -25.2239
" />
<path d="M-119.8964 -25.2239
L-119.6940 -25.3191
" />
<path d="M-119.6940 -25.3191
L-119.3130 -25.3191
" />
<path d="M-119.3130 -25.3191
L-119.1345 -25.2239
" />
<path d="M-119.1345 -25.2239
L-119.0630 -25.0334
" />
<path d="M-119.0630 -25.0334
L-119.0868 -24.8430
" />
<path d="M-119.0868 -24.8430
L-120.0630 -24.6525
" />
<path d="M-118.3368 -23.9858
L-118.1702 -25.3191
" />
<path d="M-118.2178 -24.9382
L-118.0987 -25.1287
" />
<path d="M-118.0987 -25.1287
L-117.9916 -25.2239
" />
<path d="M-117.9916 -25.2239
L-117.7892 -25.3191
" />
<path d="M-117.7892 -25.3191
L-117.5987 -25.3191
" />
</g></g>
<g style="fill:none; 
stroke:#C872AB; stroke-width:0.1500; stroke-opacity:1; 
stroke-linecap:round; stroke-linejoin:round;">
<text x="-177.7310" y="-27.7402"
textLength="30.9357" font-size="2.0000" lengthAdjust="spacingAndGlyphs"
text-anchor="start" opacity="0" stroke-opacity="0">File: ministepper.kicad_pcb</text>
<g class="stroked-text"><desc>File: ministepper.kicad_pcb</desc>
<path d="M-176.7751 -28.5898
L-177.2751 -28.5898
" />
<path d="M-177.2751 -27.8041
L-177.2751 -29.3041
" />
<path d="M-177.2751 -29.3041
L-176.5608 -29.3041
" />
<path d="M-175.9894 -27.8041
L-175.9894 -28.8041
" />
<path d="M-175.9894 -29.3041
L-176.0608 -29.2327
" />
<path d="M-176.0608 -29.2327
L-175.9894 -29.1613
" />
<path d="M-175.9894 -29.1613
L-175.9180 -29.2327
" />
<path d="M-175.9180 -29.2327
L-175.9894 -29.3041
" />
<path d="M-175.9894 -29.3041
L-175.9894 -29.1613
" />
<path d="M-175.0608 -27.8041
L-175.2037 -27.8756
" />
<path d="M-175.2037 -27.8756
L-175.2751 -28.0184
" />
<path d="M-175.2751 -28.0184
L-175.2751 -29.3041
" />
<path d="M-173.9180 -27.8756
L-174.0608 -27.8041
" />
<path d="M-174.0608 -27.8041
L-174.3466 -27.8041
" />
<path d="M-174.3466 -27.8041
L-174.4894 -27.8756
" />
<path d="M-174.4894 -27.8756
L-174.5608 -28.0184
" />
<path d="M-174.5608 -28.0184
L-174.5608 -28.5898
" />
<path d="M-174.5608 -28.5898
L-174.4894 -28.7327
" />
<path d="M-174.4894 -28.7327
L-174.3466 -28.8041
" />
<path d="M-174.3466 -28.8041
L-174.0608 -28.8041
" />
<path d="M-174.0608 -28.8041
L-173.9180 -28.7327
" />
<path d="M-173.9180 -28.7327
L-173.8466 -28.5898
" />
<path d="M-173.8466 -28.5898
L-173.8466 -28.4470
" />
<path d="M-173.8466 -28.4470
L-174.5608 -28.3041
" />
<path d="M-173.2037 -27.9470
L-173.1323 -27.8756
" />
<path d="M-173.1323 -27.8756
L-173.2037 -27.8041
" />
<path d="M-173.2037 -27.8041
L-173.2751 -27.8756
" />
<path d="M-173.2751 -27.8756
L-173.2037 -27.9470
" />
<path d="M-173.2037 -27.9470
L-173.2037 -27.8041
" />
<path d="M-173.2037 -28.7327
L-173.1323 -28.6613
" />
<path d="M-173.1323 -28.6613
L-173.2037 -28.5898
" />
<path d="M-173.2037 -28.5898
L-173.2751 -28.6613
" />
<path d="M-173.2751 -28.6613
L-173.2037 -28.7327
" />
<path d="M-173.2037 -28.7327
L-173.2037 -28.5898
" />
<path d="M-171.3466 -27.8041
L-171.3466 -28.8041
" />
<path d="M-171.3466 -28.6613
L-171.2751 -28.7327
" />
<path d="M-171.2751 -28.7327
L-171.1323 -28.8041
" />
<path d="M-171.1323 -28.8041
L-170.9180 -28.8041
" />
<path d="M-170.9180 -28.8041
L-170.7751 -28.7327
" />
<path d="M-170.7751 -28.7327
L-170.7037 -28.5898
" />
<path d="M-170.7037 -28.5898
L-170.7037 -27.8041
" />
<path d="M-170.7037 -28.5898
L-170.6323 -28.7327
" />
<path d="M-170.6323 -28.7327
L-170.4894 -28.8041
" />
<path d="M-170.4894 -28.8041
L-170.2751 -28.8041
" />
<path d="M-170.2751 -28.8041
L-170.1323 -28.7327
" />
<path d="M-170.1323 -28.7327
L-170.0608 -28.5898
" />
<path d="M-170.0608 -28.5898
L-170.0608 -27.8041
" />
<path d="M-169.3466 -27.8041
L-169.3466 -28.8041
" />
<path d="M-169.3466 -29.3041
L-169.4180 -29.2327
" />
<path d="M-169.4180 -29.2327
L-169.3466 -29.1613
" />
<path d="M-169.3466 -29.1613
L-169.2751 -29.2327
" />
<path d="M-169.2751 -29.2327
L-169.3466 -29.3041
" />
<path d="M-169.3466 -29.3041
L-169.3466 -29.1613
" />
<path d="M-168.6323 -28.8041
L-168.6323 -27.8041
" />
<path d="M-168.6323 -28.6613
L-168.5608 -28.7327
" />
<path d="M-168.5608 -28.7327
L-168.4180 -28.8041
" />
<path d="M-168.4180 -28.8041
L-168.2037 -28.8041
" />
<path d="M-168.2037 -28.8041
L-168.0608 -28.7327
" />
<path d="M-168.0608 -28.7327
L-167.9894 -28.5898
" />
<path d="M-167.9894 -28.5898
L-167.9894 -27.8041
" />
<path d="M-167.2751 -27.8041
L-167.2751 -28.8041
" />
<path d="M-167.2751 -29.3041
L-167.3466 -29.2327
" />
<path d="M-167.3466 -29.2327
L-167.2751 -29.1613
" />
<path d="M-167.2751 -29.1613
L-167.2037 -29.2327
" />
<path d="M-167.2037 -29.2327
L-167.2751 -29.3041
" />
<path d="M-167.2751 -29.3041
L-167.2751 -29.1613
" />
<path d="M-166.6323 -27.8756
L-166.4894 -27.8041
" />
<path d="M-166.4894 -27.8041
L-166.2037 -27.8041
" />
<path d="M-166.2037 -27.8041
L-166.0608 -27.8756
" />
<path d="M-166.0608 -27.8756
L-165.9894 -28.0184
" />
<path d="M-165.9894 -28.0184
L-165.9894 -28.0898
" />
<path d="M-165.9894 -28.0898
L-166.0608 -28.2327
" />
<path d="M-166.0608 -28.2327
L-166.2037 -28.3041
" />
<path d="M-166.2037 -28.3041
L-166.4180 -28.3041
" />
<path d="M-166.4180 -28.3041
L-166.5608 -28.3755
" />
<path d="M-166.5608 -28.3755
L-166.6323 -28.5184
" />
<path d="M-166.6323 -28.5184
L-166.6323 -28.5898
" />
<path d="M-166.6323 -28.5898
L-166.5608 -28.7327
" />
<path d="M-166.5608 -28.7327
L-166.4180 -28.8041
" />
<path d="M-166.4180 -28.8041
L-166.2037 -28.8041
" />
<path d="M-166.2037 -28.8041
L-166.0608 -28.7327
" />
<path d="M-165.5608 -28.8041
L-164.9894 -28.8041
" />
<path d="M-165.3466 -29.3041
L-165.3466 -28.0184
" />
<path d="M-165.3466 -28.0184
L-165.2751 -27.8756
" />
<path d="M-165.2751 -27.8756
L-165.1323 -27.8041
" />
<path d="M-165.1323 -27.8041
L-164.9894 -27.8041
" />
<path d="M-163.9180 -27.8756
L-164.0608 -27.8041
" />
<path d="M-164.0608 -27.8041
L-164.3466 -27.8041
" />
<path d="M-164.3466 -27.8041
L-164.4894 -27.8756
" />
<path d="M-164.4894 -27.8756
L-164.5608 -28.0184
" />
<path d="M-164.5608 -28.0184
L-164.5608 -28.5898
" />
<path d="M-164.5608 -28.5898
L-164.4894 -28.7327
" />
<path d="M-164.4894 -28.7327
L-164.3466 -28.8041
" />
<path d="M-164.3466 -28.8041
L-164.0608 -28.8041
" />
<path d="M-164.0608 -28.8041
L-163.9180 -28.7327
" />
<path d="M-163.9180 -28.7327
L-163.8466 -28.5898
" />
<path d="M-163.8466 -28.5898
L-163.8466 -28.4470
" />
<path d="M-163.8466 -28.4470
L-164.5608 -28.3041
" />
<path d="M-163.2037 -28.8041
L-163.2037 -27.3041
" />
<path d="M-163.2037 -28.7327
L-163.0608 -28.8041
" />
<path d="M-163.0608 -28.8041
L-162.7751 -28.8041
" />
<path d="M-162.7751 -28.8041
L-162.6323 -28.7327
" />
<path d="M-162.6323 -28.7327
L-162.5608 -28.6613
" />
<path d="M-162.5608 -28.6613
L-162.4894 -28.5184
" />
<path d="M-162.4894 -28.5184
L-162.4894 -28.0898
" />
<path d="M-162.4894 -28.0898
L-162.5608 -27.9470
" />
<path d="M-162.5608 -27.9470
L-162.6323 -27.8756
" />
<path d="M-162.6323 -27.8756
L-162.7751 -27.8041
" />
<path d="M-162.7751 -27.8041
L-163.0608 -27.8041
" />
<path d="M-163.0608 -27.8041
L-163.2037 -27.8756
" />
<path d="M-161.8466 -28.8041
L-161.8466 -27.3041
" />
<path d="M-161.8466 -28.7327
L-161.7037 -28.8041
" />
<path d="M-161.7037 -28.8041
L-161.4180 -28.8041
" />
<path d="M-161.4180 -28.8041
L-161.2751 -28.7327
" />
<path d="M-161.2751 -28.7327
L-161.2037 -28.6613
" />
<path d="M-161.2037 -28.6613
L-161.1323 -28.5184
" />
<path d="M-161.1323 -28.5184
L-161.1323 -28.0898
" />
<path d="M-161.1323 -28.0898
L-161.2037 -27.9470
" />
<path d="M-161.2037 -27.9470
L-161.2751 -27.8756
" />
<path d="M-161.2751 -27.8756
L-161.4180 -27.8041
" />
<path d="M-161.4180 -27.8041
L-161.7037 -27.8041
" />
<path d="M-161.7037 -27.8041
L-161.8466 -27.8756
" />
<path d="M-159.9180 -27.8756
L-160.0608 -27.8041
" />
<path d="M-160.0608 -27.8041
L-160.3466 -27.8041
" />
<path d="M-160.3466 -27.8041
L-160.4894 -27.8756
" />
<path d="M-160.4894 -27.8756
L-160.5608 -28.0184
" />
<path d="M-160.5608 -28.0184
L-160.5608 -28.5898
" />
<path d="M-160.5608 -28.5898
L-160.4894 -28.7327
" />
<path d="M-160.4894 -28.7327
L-160.3466 -28.8041
" />
<path d="M-160.3466 -28.8041
L-160.0608 -28.8041
" />
<path d="M-160.0608 -28.8041
L-159.9180 -28.7327
" />
<path d="M-159.9180 -28.7327
L-159.8466 -28.5898
" />
<path d="M-159.8466 -28.5898
L-159.8466 -28.4470
" />
<path d="M-159.8466 -28.4470
L-160.5608 -28.3041
" />
<path d="M-159.2037 -27.8041
L-159.2037 -28.8041
" />
<path d="M-159.2037 -28.5184
L-159.1323 -28.6613
" />
<path d="M-159.1323 -28.6613
L-159.0608 -28.7327
" />
<path d="M-159.0608 -28.7327
L-158.9180 -28.8041
" />
<path d="M-158.9180 -28.8041
L-158.7751 -28.8041
" />
<path d="M-158.2751 -27.9470
L-158.2037 -27.8756
" />
<path d="M-158.2037 -27.8756
L-158.2751 -27.8041
" />
<path d="M-158.2751 -27.8041
L-158.3466 -27.8756
" />
<path d="M-158.3466 -27.8756
L-158.2751 -27.9470
" />
<path d="M-158.2751 -27.9470
L-158.2751 -27.8041
" />
<path d="M-157.5608 -27.8041
L-157.5608 -29.3041
" />
<path d="M-157.4180 -28.3755
L-156.9894 -27.8041
" />
<path d="M-156.9894 -28.8041
L-157.5608 -28.2327
" />
<path d="M-156.3466 -27.8041
L-156.3466 -28.8041
" />
<path d="M-156.3466 -29.3041
L-156.4180 -29.2327
" />
<path d="M-156.4180 -29.2327
L-156.3466 -29.1613
" />
<path d="M-156.3466 -29.1613
L-156.2751 -29.2327
" />
<path d="M-156.2751 -29.2327
L-156.3466 -29.3041
" />
<path d="M-156.3466 -29.3041
L-156.3466 -29.1613
" />
<path d="M-154.9894 -27.8756
L-155.1323 -27.8041
" />
<path d="M-155.1323 -27.8041
L-155.4180 -27.8041
" />
<path d="M-155.4180 -27.8041
L-155.5608 -27.8756
" />
<path d="M-155.5608 -27.8756
L-155.6323 -27.9470
" />
<path d="M-155.6323 -27.9470
L-155.7037 -28.0898
" />
<path d="M-155.7037 -28.0898
L-155.7037 -28.5184
" />
<path d="M-155.7037 -28.5184
L-155.6323 -28.6613
" />
<path d="M-155.6323 -28.6613
L-155.5608 -28.7327
" />
<path d="M-155.5608 -28.7327
L-155.4180 -28.8041
" />
<path d="M-155.4180 -28.8041
L-155.1323 -28.8041
" />
<path d="M-155.1323 -28.8041
L-154.9894 -28.7327
" />
<path d="M-153.7037 -27.8041
L-153.7037 -28.5898
" />
<path d="M-153.7037 -28.5898
L-153.7751 -28.7327
" />
<path d="M-153.7751 -28.7327
L-153.9180 -28.8041
" />
<path d="M-153.9180 -28.8041
L-154.2037 -28.8041
" />
<path d="M-154.2037 -28.8041
L-154.3466 -28.7327
" />
<path d="M-153.7037 -27.8756
L-153.8466 -27.8041
" />
<path d="M-153.8466 -27.8041
L-154.2037 -27.8041
" />
<path d="M-154.2037 -27.8041
L-154.3466 -27.8756
" />
<path d="M-154.3466 -27.8756
L-154.4180 -28.0184
" />
<path d="M-154.4180 -28.0184
L-154.4180 -28.1613
" />
<path d="M-154.4180 -28.1613
L-154.3466 -28.3041
" />
<path d="M-154.3466 -28.3041
L-154.2037 -28.3755
" />
<path d="M-154.2037 -28.3755
L-153.8466 -28.3755
" />
<path d="M-153.8466 -28.3755
L-153.7037 -28.4470
" />
<path d="M-152.3466 -27.8041
L-152.3466 -29.3041
" />
<path d="M-152.3466 -27.8756
L-152.4894 -27.8041
" />
<path d="M-152.4894 -27.8041
L-152.7751 -27.8041
" />
<path d="M-152.7751 -27.8041
L-152.9180 -27.8756
" />
<path d="M-152.9180 -27.8756
L-152.9894 -27.9470
" />
<path d="M-152.9894 -27.9470
L-153.0608 -28.0898
" />
<path d="M-153.0608 -28.0898
L-153.0608 -28.5184
" />
<path d="M-153.0608 -28.5184
L-152.9894 -28.6613
" />
<path d="M-152.9894 -28.6613
L-152.9180 -28.7327
" />
<path d="M-152.9180 -28.7327
L-152.7751 -28.8041
" />
<path d="M-152.7751 -28.8041
L-152.4894 -28.8041
" />
<path d="M-152.4894 -28.8041
L-152.3466 -28.7327
" />
<path d="M-151.9894 -27.6613
L-150.8466 -27.6613
" />
<path d="M-150.4894 -28.8041
L-150.4894 -27.3041
" />
<path d="M-150.4894 -28.7327
L-150.3466 -28.8041
" />
<path d="M-150.3466 -28.8041
L-150.0608 -28.8041
" />
<path d="M-150.0608 -28.8041
L-149.9180 -28.7327
" />
<path d="M-149.9180 -28.7327
L-149.8466 -28.6613
" />
<path d="M-149.8466 -28.6613
L-149.7751 -28.5184
" />
<path d="M-149.7751 -28.5184
L-149.7751 -28.0898
" />
<path d="M-149.7751 -28.0898
L-149.8466 -27.9470
" />
<path d="M-149.8466 -27.9470
L-149.9180 -27.8756
" />
<path d="M-149.9180 -27.8756
L-150.0608 -27.8041
" />
<path d="M-150.0608 -27.8041
L-150.3466 -27.8041
" />
<path d="M-150.3466 -27.8041
L-150.4894 -27.8756
" />
<path d="M-148.4894 -27.8756
L-148.6323 -27.8041
" />
<path d="M-148.6323 -27.8041
L-148.9180 -27.8041
" />
<path d="M-148.9180 -27.8041
L-149.0608 -27.8756
" />
<path d="M-149.0608 -27.8756
L-149.1323 -27.9470
" />
<path d="M-149.1323 -27.9470
L-149.2037 -28.0898
" />
<path d="M-149.2037 -28.0898
L-149.2037 -28.5184
" />
<path d="M-149.2037 -28.5184
L-149.1323 -28.6613
" />
<path d="M-149.1323 -28.6613
L-149.0608 -28.7327
" />
<path d="M-149.0608 -28.7327
L-148.9180 -28.8041
" />
<path d="M-148.9180 -28.8041
L-148.6323 -28.8041
" />
<path d="M-148.6323 -28.8041
L-148.4894 -28.7327
" />
<path d="M-147.8466 -27.8041
L-147.8466 -29.3041
" />
<path d="M-147.8466 -28.7327
L-147.7037 -28.8041
" />
<path d="M-147.7037 -28.8041
L-147.4180 -28.8041
" />
<path d="M-147.4180 -28.8041
L-147.2751 -28.7327
" />
<path d="M-147.2751 -28.7327
L-147.2037 -28.6613
" />
<path d="M-147.2037 -28.6613
L-147.1323 -28.5184
" />
<path d="M-147.1323 -28.5184
L-147.1323 -28.0898
" />
<path d="M-147.1323 -28.0898
L-147.2037 -27.9470
" />
<path d="M-147.2037 -27.9470
L-147.2751 -27.8756
" />
<path d="M-147.2751 -27.8756
L-147.4180 -27.8041
" />
<path d="M-147.4180 -27.8041
L-147.7037 -27.8041
" />
<path d="M-147.7037 -27.8041
L-147.8466 -27.8756
" />
</g><path d="M-178.7310 -32.6902
L-70.7310 -32.6902
" />
<text x="-177.7310" y="-30.4402"
textLength="8.2214" font-size="2.0000" lengthAdjust="spacingAndGlyphs"
text-anchor="start" opacity="0" stroke-opacity="0">Sheet: </text>
<g class="stroked-text"><desc>Sheet: </desc>
<path d="M-177.3466 -30.5755
L-177.1323 -30.5041
" />
<path d="M-177.1323 -30.5041
L-176.7751 -30.5041
" />
<path d="M-176.7751 -30.5041
L-176.6323 -30.5755
" />
<path d="M-176.6323 -30.5755
L-176.5608 -30.6470
" />
<path d="M-176.5608 -30.6470
L-176.4894 -30.7898
" />
<path d="M-176.4894 -30.7898
L-176.4894 -30.9327
" />
<path d="M-176.4894 -30.9327
L-176.5608 -31.0755
" />
<path d="M-176.5608 -31.0755
L-176.6323 -31.1470
" />
<path d="M-176.6323 -31.1470
L-176.7751 -31.2184
" />
<path d="M-176.7751 -31.2184
L-177.0608 -31.2898
" />
<path d="M-177.0608 -31.2898
L-177.2037 -31.3613
" />
<path d="M-177.2037 -31.3613
L-177.2751 -31.4327
" />
<path d="M-177.2751 -31.4327
L-177.3466 -31.5755
" />
<path d="M-177.3466 -31.5755
L-177.3466 -31.7184
" />
<path d="M-177.3466 -31.7184
L-177.2751 -31.8613
" />
<path d="M-177.2751 -31.8613
L-177.2037 -31.9327
" />
<path d="M-177.2037 -31.9327
L-177.0608 -32.0041
" />
<path d="M-177.0608 -32.0041
L-176.7037 -32.0041
" />
<path d="M-176.7037 -32.0041
L-176.4894 -31.9327
" />
<path d="M-175.8466 -30.5041
L-175.8466 -32.0041
" />
<path d="M-175.2037 -30.5041
L-175.2037 -31.2898
" />
<path d="M-175.2037 -31.2898
L-175.2751 -31.4327
" />
<path d="M-175.2751 -31.4327
L-175.4180 -31.5041
" />
<path d="M-175.4180 -31.5041
L-175.6323 -31.5041
" />
<path d="M-175.6323 -31.5041
L-175.7751 -31.4327
" />
<path d="M-175.7751 -31.4327
L-175.8466 -31.3613
" />
<path d="M-173.9180 -30.5755
L-174.0608 -30.5041
" />
<path d="M-174.0608 -30.5041
L-174.3466 -30.5041
" />
<path d="M-174.3466 -30.5041
L-174.4894 -30.5755
" />
<path d="M-174.4894 -30.5755
L-174.5608 -30.7184
" />
<path d="M-174.5608 -30.7184
L-174.5608 -31.2898
" />
<path d="M-174.5608 -31.2898
L-174.4894 -31.4327
" />
<path d="M-174.4894 -31.4327
L-174.3466 -31.5041
" />
<path d="M-174.3466 -31.5041
L-174.0608 -31.5041
" />
<path d="M-174.0608 -31.5041
L-173.9180 -31.4327
" />
<path d="M-173.9180 -31.4327
L-173.8466 -31.2898
" />
<path d="M-173.8466 -31.2898
L-173.8466 -31.1470
" />
<path d="M-173.8466 -31.1470
L-174.5608 -31.0041
" />
<path d="M-172.6323 -30.5755
L-172.7751 -30.5041
" />
<path d="M-172.7751 -30.5041
L-173.0608 -30.5041
" />
<path d="M-173.0608 -30.5041
L-173.2037 -30.5755
" />
<path d="M-173.2037 -30.5755
L-173.2751 -30.7184
" />
<path d="M-173.2751 -30.7184
L-173.2751 -31.2898
" />
<path d="M-173.2751 -31.2898
L-173.2037 -31.4327
" />
<path d="M-173.2037 -31.4327
L-173.0608 -31.5041
" />
<path d="M-173.0608 -31.5041
L-172.7751 -31.5041
" />
<path d="M-172.7751 -31.5041
L-172.6323 -31.4327
" />
<path d="M-172.6323 -31.4327
L-172.5608 -31.2898
" />
<path d="M-172.5608 -31.2898
L-172.5608 -31.1470
" />
<path d="M-172.5608 -31.1470
L-173.2751 -31.0041
" />
<path d="M-172.1323 -31.5041
L-171.5608 -31.5041
" />
<path d="M-171.9180 -32.0041
L-171.9180 -30.7184
" />
<path d="M-171.9180 -30.7184
L-171.8466 -30.5755
" />
<path d="M-171.8466 -30.5755
L-171.7037 -30.5041
" />
<path d="M-171.7037 -30.5041
L-171.5608 -30.5041
" />
<path d="M-171.0608 -30.6470
L-170.9894 -30.5755
" />
<path d="M-170.9894 -30.5755
L-171.0608 -30.5041
" />
<path d="M-171.0608 -30.5041
L-171.1323 -30.5755
" />
<path d="M-171.1323 -30.5755
L-171.0608 -30.6470
" />
<path d="M-171.0608 -30.6470
L-171.0608 -30.5041
" />
<path d="M-171.0608 -31.4327
L-170.9894 -31.3613
" />
<path d="M-170.9894 -31.3613
L-171.0608 -31.2898
" />
<path d="M-171.0608 -31.2898
L-171.1323 -31.3613
" />
<path d="M-171.1323 -31.3613
L-171.0608 -31.4327
" />
<path d="M-171.0608 -31.4327
L-171.0608 -31.2898
" />
</g></g>
<g style="fill:none; 
stroke:#C872AB; stroke-width:0.3000; stroke-opacity:1; 
stroke-linecap:round; stroke-linejoin:round;">
<text x="-177.7310" y="-33.4402"
textLength="0.9000" font-size="2.0000" lengthAdjust="spacingAndGlyphs"
text-anchor="start" opacity="0" stroke-opacity="0"></text>
<g class="stroked-text"><desc></desc>
</g></g>
<g style="fill:none; 
stroke:#C872AB; stroke-width:0.1500; stroke-opacity:1; 
stroke-linecap:round; stroke-linejoin:round;">
<text x="-177.7310" y="-36.4402"
textLength="0.4500" font-size="2.0000" lengthAdjust="spacingAndGlyphs"
text-anchor="start" opacity="0" stroke-opacity="0"></text>
<g class="stroked-text"><desc></desc>
</g><text x="-177.7310" y="-39.4402"
textLength="0.4500" font-size="2.0000" lengthAdjust="spacingAndGlyphs"
text-anchor="start" opacity="0" stroke-opacity="0"></text>
<g class="stroked-text"><desc></desc>
</g><text x="-177.7310" y="-42.4402"
textLength="0.4500" font-size="2.0000" lengthAdjust="spacingAndGlyphs"
text-anchor="start" opacity="0" stroke-opacity="0"></text>
<g class="stroked-text"><desc></desc>
</g><text x="-177.7310" y="-45.4402"
textLength="0.4500" font-size="2.0000" lengthAdjust="spacingAndGlyphs"
text-anchor="start" opacity="0" stroke-opacity="0"></text>
<g class="stroked-text"><desc></desc>
</g><path d="M-158.7310 -22.6902
L-158.7310 -19.6902
" />
<path d="M-94.7310 -22.6902
L-94.7310 -16.1902
" />
<path style="fill:#4D7FC4; fill-opacity:1.0000; stroke:none;fill-rule:evenodd;"
d="M 43.3410,17.1932
43.3220,17.0976
43.2678,17.0165
43.1867,16.9623
43.0910,16.9432
41.8910,16.9432
41.7953,16.9623
41.7142,17.0165
41.6600,17.0976
41.6410,17.1932
41.6410,18.6432
41.6600,18.7389
41.7142,18.8200
41.7953,18.8742
41.8910,18.8932
43.0910,18.8932
43.1867,18.8742
43.2678,18.8200
43.3220,18.7389
43.3410,18.6432
Z" /> 
</g>
<g style="fill:none; 
stroke:#4D7FC4; stroke-width:1.7000; stroke-opacity:1; 
stroke-linecap:round; stroke-linejoin:round;">
<path d="M39.9910 17.7933
L39.9910 18.0433
" />
<path d="M37.4910 17.7933
L37.4910 18.0433
" />
<path d="M34.9910 17.7933
L34.9910 18.0433
" />
<path style="fill:#4D7FC4; fill-opacity:1.0000; stroke:none;fill-rule:evenodd;"
d="M 43.3410,30.7532
43.3220,30.6576
43.2678,30.5765
43.1867,30.5223
43.0910,30.5032
41.8910,30.5032
41.7953,30.5223
41.7142,30.5765
41.6600,30.6576
41.6410,30.7532
41.6410,32.2032
41.6600,32.2989
41.7142,32.3800
41.7953,32.4342
41.8910,32.4532
43.0910,32.4532
43.1867,32.4342
43.2678,32.3800
43.3220,32.2989
43.3410,32.2032
Z" /> 
</g>
<g style="fill:none; 
stroke:#4D7FC4; stroke-width:1.7000; stroke-opacity:1; 
stroke-linecap:round; stroke-linejoin:round;">
<path d="M39.9910 31.3532
L39.9910 31.6032
" />
<path d="M37.4910 31.3532
L37.4910 31.6032
" />
<path d="M34.9910 31.3532
L34.9910 31.6032
" />
<path style="fill:#4D7FC4; fill-opacity:1.0000; stroke:none;fill-rule:evenodd;"
d="M 43.3410,44.3132
43.3220,44.2176
43.2678,44.1365
43.1867,44.0823
43.0910,44.0632
41.8910,44.0632
41.7953,44.0823
41.7142,44.1365
41.6600,44.2176
41.6410,44.3132
41.6410,45.7632
41.6600,45.8589
41.7142,45.9400
41.7953,45.9942
41.8910,46.0132
43.0910,46.0132
43.1867,45.9942
43.2678,45.9400
43.3220,45.8589
43.3410,45.7632
Z" /> 
</g>
<g style="fill:none; 
stroke:#4D7FC4; stroke-width:1.7000; stroke-opacity:1; 
stroke-linecap:round; stroke-linejoin:round;">
<path d="M39.9910 44.9132
L39.9910 45.1632
" />
<path d="M37.4910 44.9132
L37.4910 45.1632
" />
<path d="M34.9910 44.9132
L34.9910 45.1632
" />
<path style="fill:#4D7FC4; fill-opacity:1.0000; stroke:none;fill-rule:evenodd;"
d="M 28.8910,11.9182
28.8720,11.8226
28.8178,11.7415
28.7367,11.6873
28.6410,11.6682
27.4410,11.6682
27.3453,11.6873
27.2642,11.7415
27.2100,11.8226
27.1910,11.9182
27.1910,13.4182
27.2100,13.5139
27.2642,13.5950
27.3453,13.6492
27.4410,13.6682
28.6410,13.6682
28.7367,13.6492
28.8178,13.5950
28.8720,13.5139
28.8910,13.4182
Z" /> 
</g>
<g style="fill:none; 
stroke:#4D7FC4; stroke-width:1.7000; stroke-opacity:1; 
stroke-linecap:round; stroke-linejoin:round;">
<path d="M25.5410 12.5183
L25.5410 12.8182
" />
<path style="fill:#4D7FC4; fill-opacity:1.0000; stroke:none;fill-rule:evenodd;"
d="M 43.3410,3.6332
43.3220,3.5376
43.2678,3.4565
43.1867,3.4023
43.0910,3.3832
41.8910,3.3832
41.7953,3.4023
41.7142,3.4565
41.6600,3.5376
41.6410,3.6332
41.6410,5.0832
41.6600,5.1789
41.7142,5.2600
41.7953,5.3142
41.8910,5.3332
43.0910,5.3332
43.1867,5.3142
43.2678,5.2600
43.3220,5.1789
43.3410,5.0832
Z" /> 
</g>
<g style="fill:none; 
stroke:#4D7FC4; stroke-width:1.7000; stroke-opacity:1; 
stroke-linecap:round; stroke-linejoin:round;">
<path d="M39.9910 4.2332
L39.9910 4.4832
" />
<path d="M37.4910 4.2332
L37.4910 4.4832
" />
<path d="M34.9910 4.2332
L34.9910 4.4832
" />
<path style="fill:#02FFEE; fill-opacity:0.4000; stroke:none;fill-rule:evenodd;"
d="M 43.3410,17.1932
43.3220,17.0976
43.2678,17.0165
43.1867,16.9623
43.0910,16.9432
41.8910,16.9432
41.7953,16.9623
41.7142,17.0165
41.6600,17.0976
41.6410,17.1932
41.6410,18.6432
41.6600,18.7389
41.7142,18.8200
41.7953,18.8742
41.8910,18.8932
43.0910,18.8932
43.1867,18.8742
43.2678,18.8200
43.3220,18.7389
43.3410,18.6432
Z" /> 
</g>
<g style="fill:none; 
stroke:#02FFEE; stroke-width:1.7000; stroke-opacity:1; 
stroke-linecap:round; stroke-linejoin:round;">
<path d="M39.9910 17.7933
L39.9910 18.0433
" />
<path d="M37.4910 17.7933
L37.4910 18.0433
" />
<path d="M34.9910 17.7933
L34.9910 18.0433
" />
<path style="fill:#02FFEE; fill-opacity:0.4000; stroke:none;fill-rule:evenodd;"
d="M 43.3410,30.7532
43.3220,30.6576
43.2678,30.5765
43.1867,30.5223
43.0910,30.5032
41.8910,30.5032
41.7953,30.5223
41.7142,30.5765
41.6600,30.6576
41.6410,30.7532
41.6410,32.2032
41.6600,32.2989
41.7142,32.3800
41.7953,32.4342
41.8910,32.4532
43.0910,32.4532
43.1867,32.4342
43.2678,32.3800
43.3220,32.2989
43.3410,32.2032
Z" /> 
</g>
<g style="fill:none; 
stroke:#02FFEE; stroke-width:1.7000; stroke-opacity:1; 
stroke-linecap:round; stroke-linejoin:round;">
<path d="M39.9910 31.3532
L39.9910 31.6032
" />
<path d="M37.4910 31.3532
L37.4910 31.6032
" />
<path d="M34.9910 31.3532
L34.9910 31.6032
" />
<path style="fill:#02FFEE; fill-opacity:0.4000; stroke:none;fill-rule:evenodd;"
d="M 43.3410,44.3132
43.3220,44.2176
43.2678,44.1365
43.1867,44.0823
43.0910,44.0632
41.8910,44.0632
41.7953,44.0823
41.7142,44.1365
41.6600,44.2176
41.6410,44.3132
41.6410,45.7632
41.6600,45.8589
41.7142,45.9400
41.7953,45.9942
41.8910,46.0132
43.0910,46.0132
43.1867,45.9942
43.2678,45.9400
43.3220,45.8589
43.3410,45.7632
Z" /> 
</g>
<g style="fill:none; 
stroke:#02FFEE; stroke-width:1.7000; stroke-opacity:1; 
stroke-linecap:round; stroke-linejoin:round;">
<path d="M39.9910 44.9132
L39.9910 45.1632
" />
<path d="M37.4910 44.9132
L37.4910 45.1632
" />
<path d="M34.9910 44.9132
L34.9910 45.1632
" />
<path style="fill:#02FFEE; fill-opacity:0.4000; stroke:none;fill-rule:evenodd;"
d="M 28.8910,11.9182
28.8720,11.8226
28.8178,11.7415
28.7367,11.6873
28.6410,11.6682
27.4410,11.6682
27.3453,11.6873
27.2642,11.7415
27.2100,11.8226
27.1910,11.9182
27.1910,13.4182
27.2100,13.5139
27.2642,13.5950
27.3453,13.6492
27.4410,13.6682
28.6410,13.6682
28.7367,13.6492
28.8178,13.5950
28.8720,13.5139
28.8910,13.4182
Z" /> 
</g>
<g style="fill:none; 
stroke:#02FFEE; stroke-width:1.7000; stroke-opacity:1; 
stroke-linecap:round; stroke-linejoin:round;">
<path d="M25.5410 12.5183
L25.5410 12.8182
" />
<path style="fill:#02FFEE; fill-opacity:0.4000; stroke:none;fill-rule:evenodd;"
d="M 43.3410,3.6332
43.3220,3.5376
43.2678,3.4565
43.1867,3.4023
43.0910,3.3832
41.8910,3.3832
41.7953,3.4023
41.7142,3.4565
41.6600,3.5376
41.6410,3.6332
41.6410,5.0832
41.6600,5.1789
41.7142,5.2600
41.7953,5.3142
41.8910,5.3332
43.0910,5.3332
43.1867,5.3142
43.2678,5.2600
43.3220,5.1789
43.3410,5.0832
Z" /> 
</g>
<g style="fill:none; 
stroke:#02FFEE; stroke-width:1.7000; stroke-opacity:1; 
stroke-linecap:round; stroke-linejoin:round;">
<path d="M39.9910 4.2332
L39.9910 4.4832
" />
<path d="M37.4910 4.2332
L37.4910 4.4832
" />
<path d="M34.9910 4.2332
L34.9910 4.4832
" />
</g>
<g style="fill:#FFFFFF; fill-opacity:1.0000; stroke:none;">
<circle cx="42.4910" cy="17.9183" r="0.4750" /> 
</g>
<g style="fill:#FFFFFF; fill-opacity:1.0000; stroke:none;">
<circle cx="39.9910" cy="17.9183" r="0.4750" /> 
</g>
<g style="fill:#FFFFFF; fill-opacity:1.0000; stroke:none;">
<circle cx="37.4910" cy="17.9183" r="0.4750" /> 
</g>
<g style="fill:#FFFFFF; fill-opacity:1.0000; stroke:none;">
<circle cx="34.9910" cy="17.9183" r="0.4750" /> 
</g>
<g style="fill:#FFFFFF; fill-opacity:1.0000; stroke:none;">
<circle cx="42.4910" cy="31.4782" r="0.4750" /> 
</g>
<g style="fill:#FFFFFF; fill-opacity:1.0000; stroke:none;">
<circle cx="39.9910" cy="31.4782" r="0.4750" /> 
</g>
<g style="fill:#FFFFFF; fill-opacity:1.0000; stroke:none;">
<circle cx="37.4910" cy="31.4782" r="0.4750" /> 
</g>
<g style="fill:#FFFFFF; fill-opacity:1.0000; stroke:none;">
<circle cx="34.9910" cy="31.4782" r="0.4750" /> 
</g>
<g style="fill:#FFFFFF; fill-opacity:1.0000; stroke:none;">
<circle cx="42.4910" cy="45.0382" r="0.4750" /> 
</g>
<g style="fill:#FFFFFF; fill-opacity:1.0000; stroke:none;">
<circle cx="39.9910" cy="45.0382" r="0.4750" /> 
</g>
<g style="fill:#FFFFFF; fill-opacity:1.0000; stroke:none;">
<circle cx="37.4910" cy="45.0382" r="0.4750" /> 
</g>
<g style="fill:#FFFFFF; fill-opacity:1.0000; stroke:none;">
<circle cx="34.9910" cy="45.0382" r="0.4750" /> 
</g>
<g style="fill:#FFFFFF; fill-opacity:1.0000; stroke:none;">
<circle cx="28.0410" cy="12.6682" r="0.5000" /> 
</g>
<g style="fill:#FFFFFF; fill-opacity:1.0000; stroke:none;">
<circle cx="25.5410" cy="12.6682" r="0.5000" /> 
</g>
<g style="fill:#FFFFFF; fill-opacity:1.0000; stroke:none;">
<circle cx="42.4910" cy="4.3582" r="0.4750" /> 
</g>
<g style="fill:#FFFFFF; fill-opacity:1.0000; stroke:none;">
<circle cx="39.9910" cy="4.3582" r="0.4750" /> 
</g>
<g style="fill:#FFFFFF; fill-opacity:1.0000; stroke:none;">
<circle cx="37.4910" cy="4.3582" r="0.4750" /> 
</g>
<g style="fill:#FFFFFF; fill-opacity:1.0000; stroke:none;">
<circle cx="34.9910" cy="4.3582" r="0.4750" /> 
</g> 
</svg>
