G04 #@! TF.GenerationSoftware,KiCad,Pcbnew,10.0.4*
G04 #@! TF.CreationDate,2026-07-01T20:35:10-07:00*
G04 #@! TF.ProjectId,ministepper,6d696e69-7374-4657-9070-65722e6b6963,0.1*
G04 #@! TF.SameCoordinates,Original*
G04 #@! TF.FileFunction,Copper,L2,Inr*
G04 #@! TF.FilePolarity,Positive*
%FSLAX46Y46*%
G04 Gerber Fmt 4.6, Leading zero omitted, Abs format (unit mm)*
G04 Created by KiCad (PCBNEW 10.0.4) date 2026-07-01 20:35:10*
%MOMM*%
%LPD*%
G01*
G04 APERTURE LIST*
G04 Aperture macros list*
%AMRoundRect*
0 Rectangle with rounded corners*
0 $1 Rounding radius*
0 $2 $3 $4 $5 $6 $7 $8 $9 X,Y pos of 4 corners*
0 Add a 4 corners polygon primitive as box body*
4,1,4,$2,$3,$4,$5,$6,$7,$8,$9,$2,$3,0*
0 Add four circle primitives for the rounded corners*
1,1,$1+$1,$2,$3*
1,1,$1+$1,$4,$5*
1,1,$1+$1,$6,$7*
1,1,$1+$1,$8,$9*
0 Add four rect primitives between the rounded corners*
20,1,$1+$1,$2,$3,$4,$5,0*
20,1,$1+$1,$4,$5,$6,$7,0*
20,1,$1+$1,$6,$7,$8,$9,0*
20,1,$1+$1,$8,$9,$2,$3,0*%
G04 Aperture macros list end*
G04 #@! TA.AperFunction,ComponentPad*
%ADD10RoundRect,0.250000X0.725000X-0.600000X0.725000X0.600000X-0.725000X0.600000X-0.725000X-0.600000X0*%
G04 #@! TD*
G04 #@! TA.AperFunction,ComponentPad*
%ADD11O,1.950000X1.700000*%
G04 #@! TD*
G04 #@! TA.AperFunction,ComponentPad*
%ADD12RoundRect,0.250000X-0.725000X0.600000X-0.725000X-0.600000X0.725000X-0.600000X0.725000X0.600000X0*%
G04 #@! TD*
G04 #@! TA.AperFunction,ComponentPad*
%ADD13RoundRect,0.250000X-0.600000X-0.750000X0.600000X-0.750000X0.600000X0.750000X-0.600000X0.750000X0*%
G04 #@! TD*
G04 #@! TA.AperFunction,ComponentPad*
%ADD14O,1.700000X2.000000*%
G04 #@! TD*
G04 #@! TA.AperFunction,ComponentPad*
%ADD15O,1.000000X2.100000*%
G04 #@! TD*
G04 #@! TA.AperFunction,ComponentPad*
%ADD16O,1.000000X1.800000*%
G04 #@! TD*
G04 #@! TA.AperFunction,ViaPad*
%ADD17C,0.600000*%
G04 #@! TD*
G04 APERTURE END LIST*
D10*
X165000000Y-100000000D03*
D11*
X165000000Y-97500000D03*
X165000000Y-95000000D03*
X165000000Y-92500000D03*
D12*
X68250000Y-79170000D03*
D11*
X68250000Y-81670000D03*
X68250000Y-84170000D03*
X68250000Y-86670000D03*
D12*
X68245000Y-105315739D03*
D11*
X68245000Y-107815739D03*
X68245000Y-110315739D03*
X68245000Y-112815739D03*
D13*
X121625000Y-73145000D03*
D14*
X124125000Y-73145000D03*
D10*
X165000000Y-85500000D03*
D11*
X165000000Y-83000000D03*
X165000000Y-80500000D03*
X165000000Y-78000000D03*
D15*
X120225000Y-114480000D03*
D16*
X120225000Y-118660000D03*
D15*
X128865000Y-114480000D03*
D16*
X128865000Y-118660000D03*
D17*
X80100000Y-107670000D03*
X80700000Y-113470000D03*
X79850000Y-81670000D03*
X77600000Y-107670000D03*
X82500000Y-111670000D03*
X82380009Y-83428505D03*
X83100000Y-93170000D03*
X78850000Y-110420000D03*
X81350000Y-73670000D03*
X75954115Y-78900000D03*
X79600000Y-119170000D03*
X80100000Y-109420000D03*
X78600000Y-81670000D03*
X80100000Y-111170000D03*
X81350000Y-87170000D03*
X75452418Y-79470000D03*
X75850000Y-92170000D03*
X82630009Y-109428505D03*
X77600000Y-109420000D03*
X76350000Y-73670000D03*
X79850000Y-83420000D03*
X87300000Y-107670000D03*
X76850000Y-93170000D03*
X82250000Y-85670000D03*
X80850000Y-119170000D03*
X77573375Y-105530414D03*
X82100000Y-112670000D03*
X78850000Y-108420000D03*
X75350000Y-80170000D03*
X77600000Y-111170000D03*
X81600000Y-113170000D03*
X84600000Y-119170000D03*
X74830431Y-80357824D03*
X76100000Y-118170000D03*
X74300000Y-112470000D03*
X87300000Y-108470000D03*
X78499999Y-119170000D03*
X78600000Y-85170000D03*
X86700380Y-82019620D03*
X76956827Y-87336826D03*
X74450000Y-79470000D03*
X77350000Y-81670000D03*
X80600000Y-93170000D03*
X78600000Y-82420000D03*
X77350000Y-85170000D03*
X78249999Y-93170000D03*
X78850000Y-107670000D03*
X78850000Y-111170000D03*
X78600000Y-83420000D03*
X82100000Y-119170000D03*
X77350000Y-83420000D03*
X81850000Y-86670000D03*
X76600000Y-99670000D03*
X87050000Y-83270000D03*
X81850000Y-93170000D03*
X74700000Y-105470000D03*
X80450000Y-87470000D03*
X79850000Y-85170000D03*
X79100000Y-98670000D03*
X81600000Y-99670000D03*
X75100000Y-106870000D03*
X83350000Y-119170000D03*
X75600000Y-106170000D03*
X77100000Y-119170000D03*
X84350000Y-93170000D03*
X78850000Y-72670000D03*
X78850000Y-109420000D03*
X87050000Y-82470000D03*
X77206827Y-113336826D03*
X78600000Y-84420000D03*
X87300000Y-109270000D03*
X76488814Y-105805005D03*
X74050000Y-86470000D03*
X79350000Y-93170000D03*
X73300000Y-84900000D03*
X78950000Y-88170000D03*
X79687654Y-78300000D03*
X79200000Y-114170000D03*
X79850000Y-104670000D03*
X91600000Y-96000000D03*
X91400000Y-94400000D03*
X74373073Y-82962244D03*
X73179791Y-84058540D03*
X92107245Y-93928504D03*
X74186868Y-81956110D03*
X90800000Y-94900000D03*
X75155559Y-82825489D03*
X94500000Y-97900000D03*
X73602548Y-83321125D03*
X91900000Y-92500000D03*
X74461770Y-81024016D03*
X82250000Y-84270000D03*
X82500000Y-110270000D03*
M02*
