M48
METRIC
T1C0.300
T2C0.600
T3C0.950
T4C1.000
T5C0.650
T6C0.991
%
G90
G05
T1
X73.18Y-84.059
X73.3Y-84.9
X73.603Y-83.321
X74.05Y-86.47
X74.187Y-81.956
X74.3Y-112.47
X74.373Y-82.962
X74.45Y-79.47
X74.462Y-81.024
X74.7Y-105.47
X74.83Y-80.358
X75.1Y-106.87
X75.156Y-82.825
X75.35Y-80.17
X75.452Y-79.47
X75.6Y-106.17
X75.85Y-92.17
X75.954Y-78.9
X76.1Y-118.17
X76.35Y-73.67
X76.489Y-105.805
X76.6Y-99.67
X76.85Y-93.17
X76.957Y-87.337
X77.1Y-119.17
X77.207Y-113.337
X77.35Y-81.67
X77.35Y-83.42
X77.35Y-85.17
X77.573Y-105.53
X77.6Y-107.67
X77.6Y-109.42
X77.6Y-111.17
X78.25Y-93.17
X78.5Y-119.17
X78.6Y-81.67
X78.6Y-82.42
X78.6Y-83.42
X78.6Y-84.42
X78.6Y-85.17
X78.85Y-72.67
X78.85Y-107.67
X78.85Y-108.42
X78.85Y-109.42
X78.85Y-110.42
X78.85Y-111.17
X78.95Y-88.17
X79.1Y-98.67
X79.2Y-114.17
X79.35Y-93.17
X79.6Y-119.17
X79.688Y-78.3
X79.85Y-81.67
X79.85Y-83.42
X79.85Y-85.17
X79.85Y-104.67
X80.1Y-107.67
X80.1Y-109.42
X80.1Y-111.17
X80.45Y-87.47
X80.6Y-93.17
X80.7Y-113.47
X80.85Y-119.17
X81.35Y-73.67
X81.35Y-87.17
X81.6Y-99.67
X81.6Y-113.17
X81.85Y-86.67
X81.85Y-93.17
X82.1Y-112.67
X82.1Y-119.17
X82.25Y-84.27
X82.25Y-85.67
X82.38Y-83.429
X82.5Y-110.27
X82.5Y-111.67
X82.63Y-109.429
X83.1Y-93.17
X83.35Y-119.17
X84.35Y-93.17
X84.6Y-119.17
X86.7Y-82.02
X87.05Y-82.47
X87.05Y-83.27
X87.3Y-107.67
X87.3Y-108.47
X87.3Y-109.27
X90.8Y-94.9
X91.4Y-94.4
X91.6Y-96.0
X91.9Y-92.5
X92.107Y-93.929
X94.5Y-97.9
T3
X68.245Y-105.316
X68.245Y-107.816
X68.245Y-110.316
X68.245Y-112.816
X68.25Y-79.17
X68.25Y-81.67
X68.25Y-84.17
X68.25Y-86.67
X165.0Y-78.0
X165.0Y-80.5
X165.0Y-83.0
X165.0Y-85.5
X165.0Y-92.5
X165.0Y-95.0
X165.0Y-97.5
X165.0Y-100.0
T4
X121.625Y-73.145
X124.125Y-73.145
T5
X121.655Y-114.98
X127.435Y-114.98
T6
X120.185Y-124.815
X125.265Y-123.799
X125.265Y-125.831
T2
X120.225Y-113.93G85X120.225Y-115.03
G05
X120.225Y-118.26G85X120.225Y-119.06
G05
X128.865Y-113.93G85X128.865Y-115.03
G05
X128.865Y-118.26G85X128.865Y-119.06
G05
M30
