G04 #@! TF.GenerationSoftware,KiCad,Pcbnew,10.0.0*
G04 #@! TF.CreationDate,2026-04-14T20:45:59-07:00*
G04 #@! TF.ProjectId,ministepper,6d696e69-7374-4657-9070-65722e6b6963,0.1*
G04 #@! TF.SameCoordinates,Original*
G04 #@! TF.FileFunction,Copper,L1,Top*
G04 #@! TF.FilePolarity,Positive*
%FSLAX46Y46*%
G04 Gerber Fmt 4.6, Leading zero omitted, Abs format (unit mm)*
G04 Created by KiCad (PCBNEW 10.0.0) date 2026-04-14 20:45:59*
%MOMM*%
%LPD*%
G01*
G04 APERTURE LIST*
G04 Aperture macros list*
%AMRoundRect*
0 Rectangle with rounded corners*
0 $1 Rounding radius*
0 $2 $3 $4 $5 $6 $7 $8 $9 X,Y pos of 4 corners*
0 Add a 4 corners polygon primitive as box body*
4,1,4,$2,$3,$4,$5,$6,$7,$8,$9,$2,$3,0*
0 Add four circle primitives for the rounded corners*
1,1,$1+$1,$2,$3*
1,1,$1+$1,$4,$5*
1,1,$1+$1,$6,$7*
1,1,$1+$1,$8,$9*
0 Add four rect primitives between the rounded corners*
20,1,$1+$1,$2,$3,$4,$5,0*
20,1,$1+$1,$4,$5,$6,$7,0*
20,1,$1+$1,$6,$7,$8,$9,0*
20,1,$1+$1,$8,$9,$2,$3,0*%
G04 Aperture macros list end*
G04 #@! TA.AperFunction,SMDPad,CuDef*
%ADD10RoundRect,0.062500X-0.375000X-0.062500X0.375000X-0.062500X0.375000X0.062500X-0.375000X0.062500X0*%
G04 #@! TD*
G04 #@! TA.AperFunction,SMDPad,CuDef*
%ADD11RoundRect,0.062500X-0.062500X-0.375000X0.062500X-0.375000X0.062500X0.375000X-0.062500X0.375000X0*%
G04 #@! TD*
G04 #@! TA.AperFunction,HeatsinkPad*
%ADD12R,3.600000X4.600000*%
G04 #@! TD*
G04 #@! TA.AperFunction,ComponentPad*
%ADD13RoundRect,0.250000X-0.600000X-0.725000X0.600000X-0.725000X0.600000X0.725000X-0.600000X0.725000X0*%
G04 #@! TD*
G04 #@! TA.AperFunction,ComponentPad*
%ADD14O,1.700000X1.950000*%
G04 #@! TD*
G04 #@! TA.AperFunction,SMDPad,CuDef*
%ADD15R,0.300000X0.400000*%
G04 #@! TD*
G04 #@! TA.AperFunction,SMDPad,CuDef*
%ADD16O,0.650000X0.400000*%
G04 #@! TD*
G04 #@! TA.AperFunction,SMDPad,CuDef*
%ADD17R,0.650000X1.000000*%
G04 #@! TD*
G04 #@! TA.AperFunction,SMDPad,CuDef*
%ADD18R,1.650000X2.400000*%
G04 #@! TD*
G04 #@! TA.AperFunction,SMDPad,CuDef*
%ADD19RoundRect,0.140000X-0.140000X-0.170000X0.140000X-0.170000X0.140000X0.170000X-0.140000X0.170000X0*%
G04 #@! TD*
G04 #@! TA.AperFunction,SMDPad,CuDef*
%ADD20RoundRect,0.250000X-1.000000X-0.650000X1.000000X-0.650000X1.000000X0.650000X-1.000000X0.650000X0*%
G04 #@! TD*
G04 #@! TA.AperFunction,SMDPad,CuDef*
%ADD21RoundRect,0.100000X-0.712500X-0.100000X0.712500X-0.100000X0.712500X0.100000X-0.712500X0.100000X0*%
G04 #@! TD*
G04 #@! TA.AperFunction,ComponentPad*
%ADD22RoundRect,0.250000X-0.600000X-0.750000X0.600000X-0.750000X0.600000X0.750000X-0.600000X0.750000X0*%
G04 #@! TD*
G04 #@! TA.AperFunction,ComponentPad*
%ADD23O,1.700000X2.000000*%
G04 #@! TD*
G04 #@! TA.AperFunction,SMDPad,CuDef*
%ADD24RoundRect,0.250000X-0.325000X-0.650000X0.325000X-0.650000X0.325000X0.650000X-0.325000X0.650000X0*%
G04 #@! TD*
G04 #@! TA.AperFunction,SMDPad,CuDef*
%ADD25RoundRect,0.135000X-0.135000X-0.185000X0.135000X-0.185000X0.135000X0.185000X-0.135000X0.185000X0*%
G04 #@! TD*
G04 #@! TA.AperFunction,SMDPad,CuDef*
%ADD26RoundRect,0.225000X-0.225000X-0.250000X0.225000X-0.250000X0.225000X0.250000X-0.225000X0.250000X0*%
G04 #@! TD*
G04 #@! TA.AperFunction,SMDPad,CuDef*
%ADD27RoundRect,0.250000X-0.300000X-1.600000X0.300000X-1.600000X0.300000X1.600000X-0.300000X1.600000X0*%
G04 #@! TD*
G04 #@! TA.AperFunction,SMDPad,CuDef*
%ADD28R,0.700000X0.300000*%
G04 #@! TD*
G04 #@! TA.AperFunction,SMDPad,CuDef*
%ADD29R,0.300000X0.700000*%
G04 #@! TD*
G04 #@! TA.AperFunction,SMDPad,CuDef*
%ADD30R,2.700000X2.700000*%
G04 #@! TD*
G04 APERTURE END LIST*
D10*
X119742500Y-63405000D03*
X119742500Y-63905000D03*
X119742500Y-64405000D03*
X119742500Y-64905000D03*
X119742500Y-65405000D03*
X119742500Y-65905000D03*
X119742500Y-66405000D03*
X119742500Y-66905000D03*
X119742500Y-67405000D03*
X119742500Y-67905000D03*
D11*
X120430000Y-68592500D03*
X120930000Y-68592500D03*
X121430000Y-68592500D03*
X121930000Y-68592500D03*
X122430000Y-68592500D03*
X122930000Y-68592500D03*
X123430000Y-68592500D03*
X123930000Y-68592500D03*
D10*
X124617500Y-67905000D03*
X124617500Y-67405000D03*
X124617500Y-66905000D03*
X124617500Y-66405000D03*
X124617500Y-65905000D03*
X124617500Y-65405000D03*
X124617500Y-64905000D03*
X124617500Y-64405000D03*
X124617500Y-63905000D03*
X124617500Y-63405000D03*
D11*
X123930000Y-62717500D03*
X123430000Y-62717500D03*
X122930000Y-62717500D03*
X122430000Y-62717500D03*
X121930000Y-62717500D03*
X121430000Y-62717500D03*
X120930000Y-62717500D03*
X120430000Y-62717500D03*
D12*
X122180000Y-65655000D03*
D13*
X107175000Y-78395000D03*
D14*
X109675000Y-78395000D03*
X112175000Y-78395000D03*
X114675000Y-78395000D03*
D13*
X107175000Y-91955000D03*
D14*
X109675000Y-91955000D03*
X112175000Y-91955000D03*
X114675000Y-91955000D03*
D13*
X107175000Y-105515000D03*
D14*
X109675000Y-105515000D03*
X112175000Y-105515000D03*
X114675000Y-105515000D03*
D15*
X142175000Y-68465000D03*
D16*
X142375000Y-68465000D03*
D15*
X142175000Y-69115000D03*
D16*
X142375000Y-69115000D03*
D15*
X142175000Y-69765000D03*
D16*
X142375000Y-69765000D03*
D15*
X142175000Y-70415000D03*
D16*
X142375000Y-70415000D03*
X145475000Y-70415000D03*
D15*
X145675000Y-70415000D03*
D16*
X145475000Y-69765000D03*
D15*
X145675000Y-69765000D03*
D16*
X145475000Y-69115000D03*
D15*
X145675000Y-69115000D03*
D16*
X145475000Y-68465000D03*
D15*
X145675000Y-68465000D03*
D17*
X143475000Y-68815000D03*
X143475000Y-70065000D03*
D18*
X143925000Y-69440000D03*
D17*
X144375000Y-68815000D03*
X144375000Y-70065000D03*
D19*
X136475000Y-62485000D03*
X137435000Y-62485000D03*
D20*
X120220000Y-85645000D03*
X124220000Y-85645000D03*
D21*
X119742500Y-93825000D03*
X119742500Y-94475000D03*
X119742500Y-95125000D03*
X119742500Y-95775000D03*
X123967500Y-95775000D03*
X123967500Y-95125000D03*
X123967500Y-94475000D03*
X123967500Y-93825000D03*
D19*
X136475000Y-64455000D03*
X137435000Y-64455000D03*
D22*
X121625000Y-73145000D03*
D23*
X124125000Y-73145000D03*
D24*
X142650000Y-73435000D03*
X145600000Y-73435000D03*
D13*
X107175000Y-64835000D03*
D14*
X109675000Y-64835000D03*
X112175000Y-64835000D03*
X114675000Y-64835000D03*
D19*
X136475000Y-70365000D03*
X137435000Y-70365000D03*
D25*
X139335000Y-72025000D03*
X140355000Y-72025000D03*
X139335000Y-74015000D03*
X140355000Y-74015000D03*
D20*
X120220000Y-90195000D03*
X124220000Y-90195000D03*
D25*
X139335000Y-68045000D03*
X140355000Y-68045000D03*
D26*
X145270000Y-62755000D03*
X146820000Y-62755000D03*
D19*
X136475000Y-66425000D03*
X137435000Y-66425000D03*
D27*
X139715000Y-64275000D03*
X142715000Y-64275000D03*
D25*
X139335000Y-70035000D03*
X140355000Y-70035000D03*
D28*
X119810000Y-98845000D03*
X119810000Y-99345000D03*
X119810000Y-99845000D03*
X119810000Y-100345000D03*
X119810000Y-100845000D03*
X119810000Y-101345000D03*
X119810000Y-101845000D03*
D29*
X120410000Y-102445000D03*
X120910000Y-102445000D03*
X121410000Y-102445000D03*
X121910000Y-102445000D03*
X122410000Y-102445000D03*
X122910000Y-102445000D03*
X123410000Y-102445000D03*
D28*
X124010000Y-101845000D03*
X124010000Y-101345000D03*
X124010000Y-100845000D03*
X124010000Y-100345000D03*
X124010000Y-99845000D03*
X124010000Y-99345000D03*
X124010000Y-98845000D03*
D29*
X123410000Y-98245000D03*
X122910000Y-98245000D03*
X122410000Y-98245000D03*
X121910000Y-98245000D03*
X121410000Y-98245000D03*
X120910000Y-98245000D03*
X120410000Y-98245000D03*
D30*
X121910000Y-100345000D03*
D19*
X136475000Y-68395000D03*
X137435000Y-68395000D03*
D10*
X127427500Y-63405000D03*
X127427500Y-63905000D03*
X127427500Y-64405000D03*
X127427500Y-64905000D03*
X127427500Y-65405000D03*
X127427500Y-65905000D03*
X127427500Y-66405000D03*
X127427500Y-66905000D03*
X127427500Y-67405000D03*
X127427500Y-67905000D03*
D11*
X128115000Y-68592500D03*
X128615000Y-68592500D03*
X129115000Y-68592500D03*
X129615000Y-68592500D03*
X130115000Y-68592500D03*
X130615000Y-68592500D03*
X131115000Y-68592500D03*
X131615000Y-68592500D03*
D10*
X132302500Y-67905000D03*
X132302500Y-67405000D03*
X132302500Y-66905000D03*
X132302500Y-66405000D03*
X132302500Y-65905000D03*
X132302500Y-65405000D03*
X132302500Y-64905000D03*
X132302500Y-64405000D03*
X132302500Y-63905000D03*
X132302500Y-63405000D03*
D11*
X131615000Y-62717500D03*
X131115000Y-62717500D03*
X130615000Y-62717500D03*
X130115000Y-62717500D03*
X129615000Y-62717500D03*
X129115000Y-62717500D03*
X128615000Y-62717500D03*
X128115000Y-62717500D03*
D12*
X129865000Y-65655000D03*
M02*
