M48
METRIC
T1C0.600
T2C0.950
T3C1.000
T4C0.650
%
G90
G05
T2
X134.295Y-93.985
X134.295Y-107.545
X136.795Y-93.985
X136.795Y-107.545
X139.295Y-93.985
X139.295Y-107.545
X141.795Y-93.985
X141.795Y-107.545
T4
X148.225Y-109.72
X154.005Y-109.72
T1
X146.795Y-108.67G85X146.795Y-109.77
G05
X146.795Y-113.0G85X146.795Y-113.8
G05
X155.435Y-108.67G85X155.435Y-109.77
G05
X155.435Y-113.0G85X155.435Y-113.8
G05
T3
X117.925Y-75.925G85X120.525Y-75.925
G05
X118.125Y-82.225G85X120.325Y-82.225
G05
X124.025Y-77.725G85X124.025Y-79.925
G05
X130.275Y-75.925G85X132.875Y-75.925
G05
X130.475Y-82.225G85X132.675Y-82.225
G05
X136.375Y-77.725G85X136.375Y-79.925
G05
M30
