%TF.GenerationSoftware,KiCad,Pcbnew,10.0.0*%
%TF.CreationDate,2026-04-18T15:08:56-07:00*%
%TF.ProjectId,ministepper,6d696e69-7374-4657-9070-65722e6b6963,0.1*%
%TF.SameCoordinates,Original*%
%TF.FileFunction,Drillmap*%
%TF.FilePolarity,Positive*%
%FSLAX45Y45*%
G04 Gerber Fmt 4.5, Leading zero omitted, Abs format (unit mm)*
G04 Created by KiCad (PCBNEW 10.0.0) date 2026-04-18 15:08:56*
%MOMM*%
%LPD*%
G01*
G04 APERTURE LIST*
%ADD10C,0.200000*%
%ADD11C,0.100000*%
G04 APERTURE END LIST*
D10*
D11*
X19025000Y-7145000D02*
X19055000Y-7175000D01*
X19055000Y-7145000D02*
X19025000Y-7175000D01*
X19038001Y-7060850D02*
X19068001Y-7090850D01*
X19068001Y-7060850D02*
X19038001Y-7090850D01*
X10765000Y-6483500D02*
G75*
G02*
X10670000Y-6483500I-47500J0D01*
G01*
X10670000Y-6483500D02*
G75*
G02*
X10765000Y-6483500I47500J0D01*
G01*
X10765000Y-7839500D02*
G75*
G02*
X10670000Y-7839500I-47500J0D01*
G01*
X10670000Y-7839500D02*
G75*
G02*
X10765000Y-7839500I47500J0D01*
G01*
X10765000Y-9195500D02*
G75*
G02*
X10670000Y-9195500I-47500J0D01*
G01*
X10670000Y-9195500D02*
G75*
G02*
X10765000Y-9195500I47500J0D01*
G01*
X10765000Y-10551500D02*
G75*
G02*
X10670000Y-10551500I-47500J0D01*
G01*
X10670000Y-10551500D02*
G75*
G02*
X10765000Y-10551500I47500J0D01*
G01*
X11015000Y-6483500D02*
G75*
G02*
X10920000Y-6483500I-47500J0D01*
G01*
X10920000Y-6483500D02*
G75*
G02*
X11015000Y-6483500I47500J0D01*
G01*
X11015000Y-7839500D02*
G75*
G02*
X10920000Y-7839500I-47500J0D01*
G01*
X10920000Y-7839500D02*
G75*
G02*
X11015000Y-7839500I47500J0D01*
G01*
X11015000Y-9195500D02*
G75*
G02*
X10920000Y-9195500I-47500J0D01*
G01*
X10920000Y-9195500D02*
G75*
G02*
X11015000Y-9195500I47500J0D01*
G01*
X11015000Y-10551500D02*
G75*
G02*
X10920000Y-10551500I-47500J0D01*
G01*
X10920000Y-10551500D02*
G75*
G02*
X11015000Y-10551500I47500J0D01*
G01*
X11265000Y-6483500D02*
G75*
G02*
X11170000Y-6483500I-47500J0D01*
G01*
X11170000Y-6483500D02*
G75*
G02*
X11265000Y-6483500I47500J0D01*
G01*
X11265000Y-7839500D02*
G75*
G02*
X11170000Y-7839500I-47500J0D01*
G01*
X11170000Y-7839500D02*
G75*
G02*
X11265000Y-7839500I47500J0D01*
G01*
X11265000Y-9195500D02*
G75*
G02*
X11170000Y-9195500I-47500J0D01*
G01*
X11170000Y-9195500D02*
G75*
G02*
X11265000Y-9195500I47500J0D01*
G01*
X11265000Y-10551500D02*
G75*
G02*
X11170000Y-10551500I-47500J0D01*
G01*
X11170000Y-10551500D02*
G75*
G02*
X11265000Y-10551500I47500J0D01*
G01*
X11515000Y-6483500D02*
G75*
G02*
X11420000Y-6483500I-47500J0D01*
G01*
X11420000Y-6483500D02*
G75*
G02*
X11515000Y-6483500I47500J0D01*
G01*
X11515000Y-7839500D02*
G75*
G02*
X11420000Y-7839500I-47500J0D01*
G01*
X11420000Y-7839500D02*
G75*
G02*
X11515000Y-7839500I47500J0D01*
G01*
X11515000Y-9195500D02*
G75*
G02*
X11420000Y-9195500I-47500J0D01*
G01*
X11420000Y-9195500D02*
G75*
G02*
X11515000Y-9195500I47500J0D01*
G01*
X11515000Y-10551500D02*
G75*
G02*
X11420000Y-10551500I-47500J0D01*
G01*
X11420000Y-10551500D02*
G75*
G02*
X11515000Y-10551500I47500J0D01*
G01*
X12162500Y-7264500D02*
X12162500Y-7364500D01*
X12112500Y-7314500D02*
X12212500Y-7314500D01*
X12412500Y-7264500D02*
X12412500Y-7364500D01*
X12362500Y-7314500D02*
X12462500Y-7314500D01*
D10*
X260777Y-311484D02*
X260777Y-111484D01*
X260777Y-111484D02*
X308396Y-111484D01*
X308396Y-111484D02*
X336967Y-121008D01*
X336967Y-121008D02*
X356015Y-140055D01*
X356015Y-140055D02*
X365539Y-159103D01*
X365539Y-159103D02*
X375062Y-197198D01*
X375062Y-197198D02*
X375062Y-225769D01*
X375062Y-225769D02*
X365539Y-263865D01*
X365539Y-263865D02*
X356015Y-282912D01*
X356015Y-282912D02*
X336967Y-301960D01*
X336967Y-301960D02*
X308396Y-311484D01*
X308396Y-311484D02*
X260777Y-311484D01*
X460777Y-311484D02*
X460777Y-178150D01*
X460777Y-216246D02*
X470301Y-197198D01*
X470301Y-197198D02*
X479824Y-187674D01*
X479824Y-187674D02*
X498872Y-178150D01*
X498872Y-178150D02*
X517920Y-178150D01*
X584586Y-311484D02*
X584586Y-178150D01*
X584586Y-111484D02*
X575063Y-121008D01*
X575063Y-121008D02*
X584586Y-130531D01*
X584586Y-130531D02*
X594110Y-121008D01*
X594110Y-121008D02*
X584586Y-111484D01*
X584586Y-111484D02*
X584586Y-130531D01*
X708396Y-311484D02*
X689348Y-301960D01*
X689348Y-301960D02*
X679824Y-282912D01*
X679824Y-282912D02*
X679824Y-111484D01*
X813158Y-311484D02*
X794110Y-301960D01*
X794110Y-301960D02*
X784586Y-282912D01*
X784586Y-282912D02*
X784586Y-111484D01*
X1041729Y-311484D02*
X1041729Y-111484D01*
X1041729Y-111484D02*
X1108396Y-254341D01*
X1108396Y-254341D02*
X1175063Y-111484D01*
X1175063Y-111484D02*
X1175063Y-311484D01*
X1356015Y-311484D02*
X1356015Y-206722D01*
X1356015Y-206722D02*
X1346491Y-187674D01*
X1346491Y-187674D02*
X1327444Y-178150D01*
X1327444Y-178150D02*
X1289348Y-178150D01*
X1289348Y-178150D02*
X1270301Y-187674D01*
X1356015Y-301960D02*
X1336967Y-311484D01*
X1336967Y-311484D02*
X1289348Y-311484D01*
X1289348Y-311484D02*
X1270301Y-301960D01*
X1270301Y-301960D02*
X1260777Y-282912D01*
X1260777Y-282912D02*
X1260777Y-263865D01*
X1260777Y-263865D02*
X1270301Y-244817D01*
X1270301Y-244817D02*
X1289348Y-235293D01*
X1289348Y-235293D02*
X1336967Y-235293D01*
X1336967Y-235293D02*
X1356015Y-225769D01*
X1451253Y-178150D02*
X1451253Y-378150D01*
X1451253Y-187674D02*
X1470301Y-178150D01*
X1470301Y-178150D02*
X1508396Y-178150D01*
X1508396Y-178150D02*
X1527443Y-187674D01*
X1527443Y-187674D02*
X1536967Y-197198D01*
X1536967Y-197198D02*
X1546491Y-216246D01*
X1546491Y-216246D02*
X1546491Y-273389D01*
X1546491Y-273389D02*
X1536967Y-292436D01*
X1536967Y-292436D02*
X1527443Y-301960D01*
X1527443Y-301960D02*
X1508396Y-311484D01*
X1508396Y-311484D02*
X1470301Y-311484D01*
X1470301Y-311484D02*
X1451253Y-301960D01*
X1632205Y-292436D02*
X1641729Y-301960D01*
X1641729Y-301960D02*
X1632205Y-311484D01*
X1632205Y-311484D02*
X1622682Y-301960D01*
X1622682Y-301960D02*
X1632205Y-292436D01*
X1632205Y-292436D02*
X1632205Y-311484D01*
X1632205Y-187674D02*
X1641729Y-197198D01*
X1641729Y-197198D02*
X1632205Y-206722D01*
X1632205Y-206722D02*
X1622682Y-197198D01*
X1622682Y-197198D02*
X1632205Y-187674D01*
X1632205Y-187674D02*
X1632205Y-206722D01*
D11*
X-30000Y-625000D02*
X0Y-655000D01*
X0Y-625000D02*
X-30000Y-655000D01*
D10*
X298872Y-531484D02*
X317920Y-531484D01*
X317920Y-531484D02*
X336967Y-541008D01*
X336967Y-541008D02*
X346491Y-550531D01*
X346491Y-550531D02*
X356015Y-569579D01*
X356015Y-569579D02*
X365539Y-607674D01*
X365539Y-607674D02*
X365539Y-655293D01*
X365539Y-655293D02*
X356015Y-693389D01*
X356015Y-693389D02*
X346491Y-712436D01*
X346491Y-712436D02*
X336967Y-721960D01*
X336967Y-721960D02*
X317920Y-731484D01*
X317920Y-731484D02*
X298872Y-731484D01*
X298872Y-731484D02*
X279824Y-721960D01*
X279824Y-721960D02*
X270301Y-712436D01*
X270301Y-712436D02*
X260777Y-693389D01*
X260777Y-693389D02*
X251253Y-655293D01*
X251253Y-655293D02*
X251253Y-607674D01*
X251253Y-607674D02*
X260777Y-569579D01*
X260777Y-569579D02*
X270301Y-550531D01*
X270301Y-550531D02*
X279824Y-541008D01*
X279824Y-541008D02*
X298872Y-531484D01*
X451253Y-712436D02*
X460777Y-721960D01*
X460777Y-721960D02*
X451253Y-731484D01*
X451253Y-731484D02*
X441729Y-721960D01*
X441729Y-721960D02*
X451253Y-712436D01*
X451253Y-712436D02*
X451253Y-731484D01*
X527444Y-531484D02*
X651253Y-531484D01*
X651253Y-531484D02*
X584586Y-607674D01*
X584586Y-607674D02*
X613158Y-607674D01*
X613158Y-607674D02*
X632205Y-617198D01*
X632205Y-617198D02*
X641729Y-626722D01*
X641729Y-626722D02*
X651253Y-645770D01*
X651253Y-645770D02*
X651253Y-693389D01*
X651253Y-693389D02*
X641729Y-712436D01*
X641729Y-712436D02*
X632205Y-721960D01*
X632205Y-721960D02*
X613158Y-731484D01*
X613158Y-731484D02*
X556015Y-731484D01*
X556015Y-731484D02*
X536967Y-721960D01*
X536967Y-721960D02*
X527444Y-712436D01*
X775062Y-531484D02*
X794110Y-531484D01*
X794110Y-531484D02*
X813158Y-541008D01*
X813158Y-541008D02*
X822682Y-550531D01*
X822682Y-550531D02*
X832205Y-569579D01*
X832205Y-569579D02*
X841729Y-607674D01*
X841729Y-607674D02*
X841729Y-655293D01*
X841729Y-655293D02*
X832205Y-693389D01*
X832205Y-693389D02*
X822682Y-712436D01*
X822682Y-712436D02*
X813158Y-721960D01*
X813158Y-721960D02*
X794110Y-731484D01*
X794110Y-731484D02*
X775062Y-731484D01*
X775062Y-731484D02*
X756015Y-721960D01*
X756015Y-721960D02*
X746491Y-712436D01*
X746491Y-712436D02*
X736967Y-693389D01*
X736967Y-693389D02*
X727443Y-655293D01*
X727443Y-655293D02*
X727443Y-607674D01*
X727443Y-607674D02*
X736967Y-569579D01*
X736967Y-569579D02*
X746491Y-550531D01*
X746491Y-550531D02*
X756015Y-541008D01*
X756015Y-541008D02*
X775062Y-531484D01*
X965539Y-531484D02*
X984586Y-531484D01*
X984586Y-531484D02*
X1003634Y-541008D01*
X1003634Y-541008D02*
X1013158Y-550531D01*
X1013158Y-550531D02*
X1022682Y-569579D01*
X1022682Y-569579D02*
X1032205Y-607674D01*
X1032205Y-607674D02*
X1032205Y-655293D01*
X1032205Y-655293D02*
X1022682Y-693389D01*
X1022682Y-693389D02*
X1013158Y-712436D01*
X1013158Y-712436D02*
X1003634Y-721960D01*
X1003634Y-721960D02*
X984586Y-731484D01*
X984586Y-731484D02*
X965539Y-731484D01*
X965539Y-731484D02*
X946491Y-721960D01*
X946491Y-721960D02*
X936967Y-712436D01*
X936967Y-712436D02*
X927443Y-693389D01*
X927443Y-693389D02*
X917920Y-655293D01*
X917920Y-655293D02*
X917920Y-607674D01*
X917920Y-607674D02*
X927443Y-569579D01*
X927443Y-569579D02*
X936967Y-550531D01*
X936967Y-550531D02*
X946491Y-541008D01*
X946491Y-541008D02*
X965539Y-531484D01*
X1117920Y-731484D02*
X1117920Y-598150D01*
X1117920Y-617198D02*
X1127444Y-607674D01*
X1127444Y-607674D02*
X1146491Y-598150D01*
X1146491Y-598150D02*
X1175063Y-598150D01*
X1175063Y-598150D02*
X1194110Y-607674D01*
X1194110Y-607674D02*
X1203634Y-626722D01*
X1203634Y-626722D02*
X1203634Y-731484D01*
X1203634Y-626722D02*
X1213158Y-607674D01*
X1213158Y-607674D02*
X1232205Y-598150D01*
X1232205Y-598150D02*
X1260777Y-598150D01*
X1260777Y-598150D02*
X1279825Y-607674D01*
X1279825Y-607674D02*
X1289348Y-626722D01*
X1289348Y-626722D02*
X1289348Y-731484D01*
X1384586Y-731484D02*
X1384586Y-598150D01*
X1384586Y-617198D02*
X1394110Y-607674D01*
X1394110Y-607674D02*
X1413158Y-598150D01*
X1413158Y-598150D02*
X1441729Y-598150D01*
X1441729Y-598150D02*
X1460777Y-607674D01*
X1460777Y-607674D02*
X1470301Y-626722D01*
X1470301Y-626722D02*
X1470301Y-731484D01*
X1470301Y-626722D02*
X1479824Y-607674D01*
X1479824Y-607674D02*
X1498872Y-598150D01*
X1498872Y-598150D02*
X1527443Y-598150D01*
X1527443Y-598150D02*
X1546491Y-607674D01*
X1546491Y-607674D02*
X1556015Y-626722D01*
X1556015Y-626722D02*
X1556015Y-731484D01*
X1946491Y-521960D02*
X1775063Y-779103D01*
X2203634Y-531484D02*
X2222682Y-531484D01*
X2222682Y-531484D02*
X2241729Y-541008D01*
X2241729Y-541008D02*
X2251253Y-550531D01*
X2251253Y-550531D02*
X2260777Y-569579D01*
X2260777Y-569579D02*
X2270301Y-607674D01*
X2270301Y-607674D02*
X2270301Y-655293D01*
X2270301Y-655293D02*
X2260777Y-693389D01*
X2260777Y-693389D02*
X2251253Y-712436D01*
X2251253Y-712436D02*
X2241729Y-721960D01*
X2241729Y-721960D02*
X2222682Y-731484D01*
X2222682Y-731484D02*
X2203634Y-731484D01*
X2203634Y-731484D02*
X2184587Y-721960D01*
X2184587Y-721960D02*
X2175063Y-712436D01*
X2175063Y-712436D02*
X2165539Y-693389D01*
X2165539Y-693389D02*
X2156015Y-655293D01*
X2156015Y-655293D02*
X2156015Y-607674D01*
X2156015Y-607674D02*
X2165539Y-569579D01*
X2165539Y-569579D02*
X2175063Y-550531D01*
X2175063Y-550531D02*
X2184587Y-541008D01*
X2184587Y-541008D02*
X2203634Y-531484D01*
X2356015Y-712436D02*
X2365539Y-721960D01*
X2365539Y-721960D02*
X2356015Y-731484D01*
X2356015Y-731484D02*
X2346491Y-721960D01*
X2346491Y-721960D02*
X2356015Y-712436D01*
X2356015Y-712436D02*
X2356015Y-731484D01*
X2489348Y-531484D02*
X2508396Y-531484D01*
X2508396Y-531484D02*
X2527444Y-541008D01*
X2527444Y-541008D02*
X2536968Y-550531D01*
X2536968Y-550531D02*
X2546491Y-569579D01*
X2546491Y-569579D02*
X2556015Y-607674D01*
X2556015Y-607674D02*
X2556015Y-655293D01*
X2556015Y-655293D02*
X2546491Y-693389D01*
X2546491Y-693389D02*
X2536968Y-712436D01*
X2536968Y-712436D02*
X2527444Y-721960D01*
X2527444Y-721960D02*
X2508396Y-731484D01*
X2508396Y-731484D02*
X2489348Y-731484D01*
X2489348Y-731484D02*
X2470301Y-721960D01*
X2470301Y-721960D02*
X2460777Y-712436D01*
X2460777Y-712436D02*
X2451253Y-693389D01*
X2451253Y-693389D02*
X2441729Y-655293D01*
X2441729Y-655293D02*
X2441729Y-607674D01*
X2441729Y-607674D02*
X2451253Y-569579D01*
X2451253Y-569579D02*
X2460777Y-550531D01*
X2460777Y-550531D02*
X2470301Y-541008D01*
X2470301Y-541008D02*
X2489348Y-531484D01*
X2746491Y-731484D02*
X2632206Y-731484D01*
X2689348Y-731484D02*
X2689348Y-531484D01*
X2689348Y-531484D02*
X2670301Y-560055D01*
X2670301Y-560055D02*
X2651253Y-579103D01*
X2651253Y-579103D02*
X2632206Y-588627D01*
X2936967Y-731484D02*
X2822682Y-731484D01*
X2879825Y-731484D02*
X2879825Y-531484D01*
X2879825Y-531484D02*
X2860777Y-560055D01*
X2860777Y-560055D02*
X2841729Y-579103D01*
X2841729Y-579103D02*
X2822682Y-588627D01*
X3051253Y-617198D02*
X3032206Y-607674D01*
X3032206Y-607674D02*
X3022682Y-598150D01*
X3022682Y-598150D02*
X3013158Y-579103D01*
X3013158Y-579103D02*
X3013158Y-569579D01*
X3013158Y-569579D02*
X3022682Y-550531D01*
X3022682Y-550531D02*
X3032206Y-541008D01*
X3032206Y-541008D02*
X3051253Y-531484D01*
X3051253Y-531484D02*
X3089348Y-531484D01*
X3089348Y-531484D02*
X3108396Y-541008D01*
X3108396Y-541008D02*
X3117920Y-550531D01*
X3117920Y-550531D02*
X3127444Y-569579D01*
X3127444Y-569579D02*
X3127444Y-579103D01*
X3127444Y-579103D02*
X3117920Y-598150D01*
X3117920Y-598150D02*
X3108396Y-607674D01*
X3108396Y-607674D02*
X3089348Y-617198D01*
X3089348Y-617198D02*
X3051253Y-617198D01*
X3051253Y-617198D02*
X3032206Y-626722D01*
X3032206Y-626722D02*
X3022682Y-636246D01*
X3022682Y-636246D02*
X3013158Y-655293D01*
X3013158Y-655293D02*
X3013158Y-693389D01*
X3013158Y-693389D02*
X3022682Y-712436D01*
X3022682Y-712436D02*
X3032206Y-721960D01*
X3032206Y-721960D02*
X3051253Y-731484D01*
X3051253Y-731484D02*
X3089348Y-731484D01*
X3089348Y-731484D02*
X3108396Y-721960D01*
X3108396Y-721960D02*
X3117920Y-712436D01*
X3117920Y-712436D02*
X3127444Y-693389D01*
X3127444Y-693389D02*
X3127444Y-655293D01*
X3127444Y-655293D02*
X3117920Y-636246D01*
X3117920Y-636246D02*
X3108396Y-626722D01*
X3108396Y-626722D02*
X3089348Y-617198D01*
X3203634Y-531484D02*
X3203634Y-569579D01*
X3279825Y-531484D02*
X3279825Y-569579D01*
X3575063Y-807674D02*
X3565539Y-798150D01*
X3565539Y-798150D02*
X3546491Y-769579D01*
X3546491Y-769579D02*
X3536968Y-750531D01*
X3536968Y-750531D02*
X3527444Y-721960D01*
X3527444Y-721960D02*
X3517920Y-674341D01*
X3517920Y-674341D02*
X3517920Y-636246D01*
X3517920Y-636246D02*
X3527444Y-588627D01*
X3527444Y-588627D02*
X3536968Y-560055D01*
X3536968Y-560055D02*
X3546491Y-541008D01*
X3546491Y-541008D02*
X3565539Y-512436D01*
X3565539Y-512436D02*
X3575063Y-502912D01*
X3641729Y-550531D02*
X3651253Y-541008D01*
X3651253Y-541008D02*
X3670301Y-531484D01*
X3670301Y-531484D02*
X3717920Y-531484D01*
X3717920Y-531484D02*
X3736968Y-541008D01*
X3736968Y-541008D02*
X3746491Y-550531D01*
X3746491Y-550531D02*
X3756015Y-569579D01*
X3756015Y-569579D02*
X3756015Y-588627D01*
X3756015Y-588627D02*
X3746491Y-617198D01*
X3746491Y-617198D02*
X3632206Y-731484D01*
X3632206Y-731484D02*
X3756015Y-731484D01*
X3994110Y-731484D02*
X3994110Y-531484D01*
X4079825Y-731484D02*
X4079825Y-626722D01*
X4079825Y-626722D02*
X4070301Y-607674D01*
X4070301Y-607674D02*
X4051253Y-598150D01*
X4051253Y-598150D02*
X4022682Y-598150D01*
X4022682Y-598150D02*
X4003634Y-607674D01*
X4003634Y-607674D02*
X3994110Y-617198D01*
X4203634Y-731484D02*
X4184587Y-721960D01*
X4184587Y-721960D02*
X4175063Y-712436D01*
X4175063Y-712436D02*
X4165539Y-693389D01*
X4165539Y-693389D02*
X4165539Y-636246D01*
X4165539Y-636246D02*
X4175063Y-617198D01*
X4175063Y-617198D02*
X4184587Y-607674D01*
X4184587Y-607674D02*
X4203634Y-598150D01*
X4203634Y-598150D02*
X4232206Y-598150D01*
X4232206Y-598150D02*
X4251253Y-607674D01*
X4251253Y-607674D02*
X4260777Y-617198D01*
X4260777Y-617198D02*
X4270301Y-636246D01*
X4270301Y-636246D02*
X4270301Y-693389D01*
X4270301Y-693389D02*
X4260777Y-712436D01*
X4260777Y-712436D02*
X4251253Y-721960D01*
X4251253Y-721960D02*
X4232206Y-731484D01*
X4232206Y-731484D02*
X4203634Y-731484D01*
X4384587Y-731484D02*
X4365539Y-721960D01*
X4365539Y-721960D02*
X4356015Y-702912D01*
X4356015Y-702912D02*
X4356015Y-531484D01*
X4536968Y-721960D02*
X4517920Y-731484D01*
X4517920Y-731484D02*
X4479825Y-731484D01*
X4479825Y-731484D02*
X4460777Y-721960D01*
X4460777Y-721960D02*
X4451253Y-702912D01*
X4451253Y-702912D02*
X4451253Y-626722D01*
X4451253Y-626722D02*
X4460777Y-607674D01*
X4460777Y-607674D02*
X4479825Y-598150D01*
X4479825Y-598150D02*
X4517920Y-598150D01*
X4517920Y-598150D02*
X4536968Y-607674D01*
X4536968Y-607674D02*
X4546492Y-626722D01*
X4546492Y-626722D02*
X4546492Y-645770D01*
X4546492Y-645770D02*
X4451253Y-664817D01*
X4622682Y-721960D02*
X4641730Y-731484D01*
X4641730Y-731484D02*
X4679825Y-731484D01*
X4679825Y-731484D02*
X4698873Y-721960D01*
X4698873Y-721960D02*
X4708396Y-702912D01*
X4708396Y-702912D02*
X4708396Y-693389D01*
X4708396Y-693389D02*
X4698873Y-674341D01*
X4698873Y-674341D02*
X4679825Y-664817D01*
X4679825Y-664817D02*
X4651253Y-664817D01*
X4651253Y-664817D02*
X4632206Y-655293D01*
X4632206Y-655293D02*
X4622682Y-636246D01*
X4622682Y-636246D02*
X4622682Y-626722D01*
X4622682Y-626722D02*
X4632206Y-607674D01*
X4632206Y-607674D02*
X4651253Y-598150D01*
X4651253Y-598150D02*
X4679825Y-598150D01*
X4679825Y-598150D02*
X4698873Y-607674D01*
X4775063Y-807674D02*
X4784587Y-798150D01*
X4784587Y-798150D02*
X4803634Y-769579D01*
X4803634Y-769579D02*
X4813158Y-750531D01*
X4813158Y-750531D02*
X4822682Y-721960D01*
X4822682Y-721960D02*
X4832206Y-674341D01*
X4832206Y-674341D02*
X4832206Y-636246D01*
X4832206Y-636246D02*
X4822682Y-588627D01*
X4822682Y-588627D02*
X4813158Y-560055D01*
X4813158Y-560055D02*
X4803634Y-541008D01*
X4803634Y-541008D02*
X4784587Y-512436D01*
X4784587Y-512436D02*
X4775063Y-502912D01*
D11*
X0Y-904000D02*
G75*
G02*
X-95000Y-904000I-47500J0D01*
G01*
X-95000Y-904000D02*
G75*
G02*
X0Y-904000I47500J0D01*
G01*
D10*
X298872Y-795484D02*
X317920Y-795484D01*
X317920Y-795484D02*
X336967Y-805008D01*
X336967Y-805008D02*
X346491Y-814531D01*
X346491Y-814531D02*
X356015Y-833579D01*
X356015Y-833579D02*
X365539Y-871674D01*
X365539Y-871674D02*
X365539Y-919293D01*
X365539Y-919293D02*
X356015Y-957388D01*
X356015Y-957388D02*
X346491Y-976436D01*
X346491Y-976436D02*
X336967Y-985960D01*
X336967Y-985960D02*
X317920Y-995484D01*
X317920Y-995484D02*
X298872Y-995484D01*
X298872Y-995484D02*
X279824Y-985960D01*
X279824Y-985960D02*
X270301Y-976436D01*
X270301Y-976436D02*
X260777Y-957388D01*
X260777Y-957388D02*
X251253Y-919293D01*
X251253Y-919293D02*
X251253Y-871674D01*
X251253Y-871674D02*
X260777Y-833579D01*
X260777Y-833579D02*
X270301Y-814531D01*
X270301Y-814531D02*
X279824Y-805008D01*
X279824Y-805008D02*
X298872Y-795484D01*
X451253Y-976436D02*
X460777Y-985960D01*
X460777Y-985960D02*
X451253Y-995484D01*
X451253Y-995484D02*
X441729Y-985960D01*
X441729Y-985960D02*
X451253Y-976436D01*
X451253Y-976436D02*
X451253Y-995484D01*
X556015Y-995484D02*
X594110Y-995484D01*
X594110Y-995484D02*
X613158Y-985960D01*
X613158Y-985960D02*
X622682Y-976436D01*
X622682Y-976436D02*
X641729Y-947865D01*
X641729Y-947865D02*
X651253Y-909769D01*
X651253Y-909769D02*
X651253Y-833579D01*
X651253Y-833579D02*
X641729Y-814531D01*
X641729Y-814531D02*
X632205Y-805008D01*
X632205Y-805008D02*
X613158Y-795484D01*
X613158Y-795484D02*
X575063Y-795484D01*
X575063Y-795484D02*
X556015Y-805008D01*
X556015Y-805008D02*
X546491Y-814531D01*
X546491Y-814531D02*
X536967Y-833579D01*
X536967Y-833579D02*
X536967Y-881198D01*
X536967Y-881198D02*
X546491Y-900246D01*
X546491Y-900246D02*
X556015Y-909769D01*
X556015Y-909769D02*
X575063Y-919293D01*
X575063Y-919293D02*
X613158Y-919293D01*
X613158Y-919293D02*
X632205Y-909769D01*
X632205Y-909769D02*
X641729Y-900246D01*
X641729Y-900246D02*
X651253Y-881198D01*
X832205Y-795484D02*
X736967Y-795484D01*
X736967Y-795484D02*
X727443Y-890722D01*
X727443Y-890722D02*
X736967Y-881198D01*
X736967Y-881198D02*
X756015Y-871674D01*
X756015Y-871674D02*
X803634Y-871674D01*
X803634Y-871674D02*
X822682Y-881198D01*
X822682Y-881198D02*
X832205Y-890722D01*
X832205Y-890722D02*
X841729Y-909769D01*
X841729Y-909769D02*
X841729Y-957388D01*
X841729Y-957388D02*
X832205Y-976436D01*
X832205Y-976436D02*
X822682Y-985960D01*
X822682Y-985960D02*
X803634Y-995484D01*
X803634Y-995484D02*
X756015Y-995484D01*
X756015Y-995484D02*
X736967Y-985960D01*
X736967Y-985960D02*
X727443Y-976436D01*
X965539Y-795484D02*
X984586Y-795484D01*
X984586Y-795484D02*
X1003634Y-805008D01*
X1003634Y-805008D02*
X1013158Y-814531D01*
X1013158Y-814531D02*
X1022682Y-833579D01*
X1022682Y-833579D02*
X1032205Y-871674D01*
X1032205Y-871674D02*
X1032205Y-919293D01*
X1032205Y-919293D02*
X1022682Y-957388D01*
X1022682Y-957388D02*
X1013158Y-976436D01*
X1013158Y-976436D02*
X1003634Y-985960D01*
X1003634Y-985960D02*
X984586Y-995484D01*
X984586Y-995484D02*
X965539Y-995484D01*
X965539Y-995484D02*
X946491Y-985960D01*
X946491Y-985960D02*
X936967Y-976436D01*
X936967Y-976436D02*
X927443Y-957388D01*
X927443Y-957388D02*
X917920Y-919293D01*
X917920Y-919293D02*
X917920Y-871674D01*
X917920Y-871674D02*
X927443Y-833579D01*
X927443Y-833579D02*
X936967Y-814531D01*
X936967Y-814531D02*
X946491Y-805008D01*
X946491Y-805008D02*
X965539Y-795484D01*
X1117920Y-995484D02*
X1117920Y-862150D01*
X1117920Y-881198D02*
X1127444Y-871674D01*
X1127444Y-871674D02*
X1146491Y-862150D01*
X1146491Y-862150D02*
X1175063Y-862150D01*
X1175063Y-862150D02*
X1194110Y-871674D01*
X1194110Y-871674D02*
X1203634Y-890722D01*
X1203634Y-890722D02*
X1203634Y-995484D01*
X1203634Y-890722D02*
X1213158Y-871674D01*
X1213158Y-871674D02*
X1232205Y-862150D01*
X1232205Y-862150D02*
X1260777Y-862150D01*
X1260777Y-862150D02*
X1279825Y-871674D01*
X1279825Y-871674D02*
X1289348Y-890722D01*
X1289348Y-890722D02*
X1289348Y-995484D01*
X1384586Y-995484D02*
X1384586Y-862150D01*
X1384586Y-881198D02*
X1394110Y-871674D01*
X1394110Y-871674D02*
X1413158Y-862150D01*
X1413158Y-862150D02*
X1441729Y-862150D01*
X1441729Y-862150D02*
X1460777Y-871674D01*
X1460777Y-871674D02*
X1470301Y-890722D01*
X1470301Y-890722D02*
X1470301Y-995484D01*
X1470301Y-890722D02*
X1479824Y-871674D01*
X1479824Y-871674D02*
X1498872Y-862150D01*
X1498872Y-862150D02*
X1527443Y-862150D01*
X1527443Y-862150D02*
X1546491Y-871674D01*
X1546491Y-871674D02*
X1556015Y-890722D01*
X1556015Y-890722D02*
X1556015Y-995484D01*
X1946491Y-785960D02*
X1775063Y-1043103D01*
X2203634Y-795484D02*
X2222682Y-795484D01*
X2222682Y-795484D02*
X2241729Y-805008D01*
X2241729Y-805008D02*
X2251253Y-814531D01*
X2251253Y-814531D02*
X2260777Y-833579D01*
X2260777Y-833579D02*
X2270301Y-871674D01*
X2270301Y-871674D02*
X2270301Y-919293D01*
X2270301Y-919293D02*
X2260777Y-957388D01*
X2260777Y-957388D02*
X2251253Y-976436D01*
X2251253Y-976436D02*
X2241729Y-985960D01*
X2241729Y-985960D02*
X2222682Y-995484D01*
X2222682Y-995484D02*
X2203634Y-995484D01*
X2203634Y-995484D02*
X2184587Y-985960D01*
X2184587Y-985960D02*
X2175063Y-976436D01*
X2175063Y-976436D02*
X2165539Y-957388D01*
X2165539Y-957388D02*
X2156015Y-919293D01*
X2156015Y-919293D02*
X2156015Y-871674D01*
X2156015Y-871674D02*
X2165539Y-833579D01*
X2165539Y-833579D02*
X2175063Y-814531D01*
X2175063Y-814531D02*
X2184587Y-805008D01*
X2184587Y-805008D02*
X2203634Y-795484D01*
X2356015Y-976436D02*
X2365539Y-985960D01*
X2365539Y-985960D02*
X2356015Y-995484D01*
X2356015Y-995484D02*
X2346491Y-985960D01*
X2346491Y-985960D02*
X2356015Y-976436D01*
X2356015Y-976436D02*
X2356015Y-995484D01*
X2489348Y-795484D02*
X2508396Y-795484D01*
X2508396Y-795484D02*
X2527444Y-805008D01*
X2527444Y-805008D02*
X2536968Y-814531D01*
X2536968Y-814531D02*
X2546491Y-833579D01*
X2546491Y-833579D02*
X2556015Y-871674D01*
X2556015Y-871674D02*
X2556015Y-919293D01*
X2556015Y-919293D02*
X2546491Y-957388D01*
X2546491Y-957388D02*
X2536968Y-976436D01*
X2536968Y-976436D02*
X2527444Y-985960D01*
X2527444Y-985960D02*
X2508396Y-995484D01*
X2508396Y-995484D02*
X2489348Y-995484D01*
X2489348Y-995484D02*
X2470301Y-985960D01*
X2470301Y-985960D02*
X2460777Y-976436D01*
X2460777Y-976436D02*
X2451253Y-957388D01*
X2451253Y-957388D02*
X2441729Y-919293D01*
X2441729Y-919293D02*
X2441729Y-871674D01*
X2441729Y-871674D02*
X2451253Y-833579D01*
X2451253Y-833579D02*
X2460777Y-814531D01*
X2460777Y-814531D02*
X2470301Y-805008D01*
X2470301Y-805008D02*
X2489348Y-795484D01*
X2622682Y-795484D02*
X2746491Y-795484D01*
X2746491Y-795484D02*
X2679825Y-871674D01*
X2679825Y-871674D02*
X2708396Y-871674D01*
X2708396Y-871674D02*
X2727444Y-881198D01*
X2727444Y-881198D02*
X2736968Y-890722D01*
X2736968Y-890722D02*
X2746491Y-909769D01*
X2746491Y-909769D02*
X2746491Y-957388D01*
X2746491Y-957388D02*
X2736968Y-976436D01*
X2736968Y-976436D02*
X2727444Y-985960D01*
X2727444Y-985960D02*
X2708396Y-995484D01*
X2708396Y-995484D02*
X2651253Y-995484D01*
X2651253Y-995484D02*
X2632206Y-985960D01*
X2632206Y-985960D02*
X2622682Y-976436D01*
X2813158Y-795484D02*
X2946491Y-795484D01*
X2946491Y-795484D02*
X2860777Y-995484D01*
X3108396Y-862150D02*
X3108396Y-995484D01*
X3060777Y-785960D02*
X3013158Y-928817D01*
X3013158Y-928817D02*
X3136967Y-928817D01*
X3203634Y-795484D02*
X3203634Y-833579D01*
X3279825Y-795484D02*
X3279825Y-833579D01*
X3575063Y-1071674D02*
X3565539Y-1062150D01*
X3565539Y-1062150D02*
X3546491Y-1033579D01*
X3546491Y-1033579D02*
X3536968Y-1014531D01*
X3536968Y-1014531D02*
X3527444Y-985960D01*
X3527444Y-985960D02*
X3517920Y-938341D01*
X3517920Y-938341D02*
X3517920Y-900246D01*
X3517920Y-900246D02*
X3527444Y-852627D01*
X3527444Y-852627D02*
X3536968Y-824055D01*
X3536968Y-824055D02*
X3546491Y-805008D01*
X3546491Y-805008D02*
X3565539Y-776436D01*
X3565539Y-776436D02*
X3575063Y-766912D01*
X3756015Y-995484D02*
X3641729Y-995484D01*
X3698872Y-995484D02*
X3698872Y-795484D01*
X3698872Y-795484D02*
X3679825Y-824055D01*
X3679825Y-824055D02*
X3660777Y-843103D01*
X3660777Y-843103D02*
X3641729Y-852627D01*
X3927444Y-795484D02*
X3889348Y-795484D01*
X3889348Y-795484D02*
X3870301Y-805008D01*
X3870301Y-805008D02*
X3860777Y-814531D01*
X3860777Y-814531D02*
X3841729Y-843103D01*
X3841729Y-843103D02*
X3832206Y-881198D01*
X3832206Y-881198D02*
X3832206Y-957388D01*
X3832206Y-957388D02*
X3841729Y-976436D01*
X3841729Y-976436D02*
X3851253Y-985960D01*
X3851253Y-985960D02*
X3870301Y-995484D01*
X3870301Y-995484D02*
X3908396Y-995484D01*
X3908396Y-995484D02*
X3927444Y-985960D01*
X3927444Y-985960D02*
X3936968Y-976436D01*
X3936968Y-976436D02*
X3946491Y-957388D01*
X3946491Y-957388D02*
X3946491Y-909769D01*
X3946491Y-909769D02*
X3936968Y-890722D01*
X3936968Y-890722D02*
X3927444Y-881198D01*
X3927444Y-881198D02*
X3908396Y-871674D01*
X3908396Y-871674D02*
X3870301Y-871674D01*
X3870301Y-871674D02*
X3851253Y-881198D01*
X3851253Y-881198D02*
X3841729Y-890722D01*
X3841729Y-890722D02*
X3832206Y-909769D01*
X4184587Y-995484D02*
X4184587Y-795484D01*
X4270301Y-995484D02*
X4270301Y-890722D01*
X4270301Y-890722D02*
X4260777Y-871674D01*
X4260777Y-871674D02*
X4241730Y-862150D01*
X4241730Y-862150D02*
X4213158Y-862150D01*
X4213158Y-862150D02*
X4194110Y-871674D01*
X4194110Y-871674D02*
X4184587Y-881198D01*
X4394111Y-995484D02*
X4375063Y-985960D01*
X4375063Y-985960D02*
X4365539Y-976436D01*
X4365539Y-976436D02*
X4356015Y-957388D01*
X4356015Y-957388D02*
X4356015Y-900246D01*
X4356015Y-900246D02*
X4365539Y-881198D01*
X4365539Y-881198D02*
X4375063Y-871674D01*
X4375063Y-871674D02*
X4394111Y-862150D01*
X4394111Y-862150D02*
X4422682Y-862150D01*
X4422682Y-862150D02*
X4441730Y-871674D01*
X4441730Y-871674D02*
X4451253Y-881198D01*
X4451253Y-881198D02*
X4460777Y-900246D01*
X4460777Y-900246D02*
X4460777Y-957388D01*
X4460777Y-957388D02*
X4451253Y-976436D01*
X4451253Y-976436D02*
X4441730Y-985960D01*
X4441730Y-985960D02*
X4422682Y-995484D01*
X4422682Y-995484D02*
X4394111Y-995484D01*
X4575063Y-995484D02*
X4556015Y-985960D01*
X4556015Y-985960D02*
X4546492Y-966912D01*
X4546492Y-966912D02*
X4546492Y-795484D01*
X4727444Y-985960D02*
X4708396Y-995484D01*
X4708396Y-995484D02*
X4670301Y-995484D01*
X4670301Y-995484D02*
X4651253Y-985960D01*
X4651253Y-985960D02*
X4641730Y-966912D01*
X4641730Y-966912D02*
X4641730Y-890722D01*
X4641730Y-890722D02*
X4651253Y-871674D01*
X4651253Y-871674D02*
X4670301Y-862150D01*
X4670301Y-862150D02*
X4708396Y-862150D01*
X4708396Y-862150D02*
X4727444Y-871674D01*
X4727444Y-871674D02*
X4736968Y-890722D01*
X4736968Y-890722D02*
X4736968Y-909769D01*
X4736968Y-909769D02*
X4641730Y-928817D01*
X4813158Y-985960D02*
X4832206Y-995484D01*
X4832206Y-995484D02*
X4870301Y-995484D01*
X4870301Y-995484D02*
X4889349Y-985960D01*
X4889349Y-985960D02*
X4898873Y-966912D01*
X4898873Y-966912D02*
X4898873Y-957388D01*
X4898873Y-957388D02*
X4889349Y-938341D01*
X4889349Y-938341D02*
X4870301Y-928817D01*
X4870301Y-928817D02*
X4841730Y-928817D01*
X4841730Y-928817D02*
X4822682Y-919293D01*
X4822682Y-919293D02*
X4813158Y-900246D01*
X4813158Y-900246D02*
X4813158Y-890722D01*
X4813158Y-890722D02*
X4822682Y-871674D01*
X4822682Y-871674D02*
X4841730Y-862150D01*
X4841730Y-862150D02*
X4870301Y-862150D01*
X4870301Y-862150D02*
X4889349Y-871674D01*
X4965539Y-1071674D02*
X4975063Y-1062150D01*
X4975063Y-1062150D02*
X4994111Y-1033579D01*
X4994111Y-1033579D02*
X5003634Y-1014531D01*
X5003634Y-1014531D02*
X5013158Y-985960D01*
X5013158Y-985960D02*
X5022682Y-938341D01*
X5022682Y-938341D02*
X5022682Y-900246D01*
X5022682Y-900246D02*
X5013158Y-852627D01*
X5013158Y-852627D02*
X5003634Y-824055D01*
X5003634Y-824055D02*
X4994111Y-805008D01*
X4994111Y-805008D02*
X4975063Y-776436D01*
X4975063Y-776436D02*
X4965539Y-766912D01*
D11*
X-50000Y-1118000D02*
X-50000Y-1218000D01*
X-100000Y-1168000D02*
X0Y-1168000D01*
D10*
X365539Y-1259484D02*
X251253Y-1259484D01*
X308396Y-1259484D02*
X308396Y-1059484D01*
X308396Y-1059484D02*
X289348Y-1088055D01*
X289348Y-1088055D02*
X270301Y-1107103D01*
X270301Y-1107103D02*
X251253Y-1116627D01*
X451253Y-1240436D02*
X460777Y-1249960D01*
X460777Y-1249960D02*
X451253Y-1259484D01*
X451253Y-1259484D02*
X441729Y-1249960D01*
X441729Y-1249960D02*
X451253Y-1240436D01*
X451253Y-1240436D02*
X451253Y-1259484D01*
X584586Y-1059484D02*
X603634Y-1059484D01*
X603634Y-1059484D02*
X622682Y-1069008D01*
X622682Y-1069008D02*
X632205Y-1078531D01*
X632205Y-1078531D02*
X641729Y-1097579D01*
X641729Y-1097579D02*
X651253Y-1135674D01*
X651253Y-1135674D02*
X651253Y-1183293D01*
X651253Y-1183293D02*
X641729Y-1221389D01*
X641729Y-1221389D02*
X632205Y-1240436D01*
X632205Y-1240436D02*
X622682Y-1249960D01*
X622682Y-1249960D02*
X603634Y-1259484D01*
X603634Y-1259484D02*
X584586Y-1259484D01*
X584586Y-1259484D02*
X565539Y-1249960D01*
X565539Y-1249960D02*
X556015Y-1240436D01*
X556015Y-1240436D02*
X546491Y-1221389D01*
X546491Y-1221389D02*
X536967Y-1183293D01*
X536967Y-1183293D02*
X536967Y-1135674D01*
X536967Y-1135674D02*
X546491Y-1097579D01*
X546491Y-1097579D02*
X556015Y-1078531D01*
X556015Y-1078531D02*
X565539Y-1069008D01*
X565539Y-1069008D02*
X584586Y-1059484D01*
X775062Y-1059484D02*
X794110Y-1059484D01*
X794110Y-1059484D02*
X813158Y-1069008D01*
X813158Y-1069008D02*
X822682Y-1078531D01*
X822682Y-1078531D02*
X832205Y-1097579D01*
X832205Y-1097579D02*
X841729Y-1135674D01*
X841729Y-1135674D02*
X841729Y-1183293D01*
X841729Y-1183293D02*
X832205Y-1221389D01*
X832205Y-1221389D02*
X822682Y-1240436D01*
X822682Y-1240436D02*
X813158Y-1249960D01*
X813158Y-1249960D02*
X794110Y-1259484D01*
X794110Y-1259484D02*
X775062Y-1259484D01*
X775062Y-1259484D02*
X756015Y-1249960D01*
X756015Y-1249960D02*
X746491Y-1240436D01*
X746491Y-1240436D02*
X736967Y-1221389D01*
X736967Y-1221389D02*
X727443Y-1183293D01*
X727443Y-1183293D02*
X727443Y-1135674D01*
X727443Y-1135674D02*
X736967Y-1097579D01*
X736967Y-1097579D02*
X746491Y-1078531D01*
X746491Y-1078531D02*
X756015Y-1069008D01*
X756015Y-1069008D02*
X775062Y-1059484D01*
X965539Y-1059484D02*
X984586Y-1059484D01*
X984586Y-1059484D02*
X1003634Y-1069008D01*
X1003634Y-1069008D02*
X1013158Y-1078531D01*
X1013158Y-1078531D02*
X1022682Y-1097579D01*
X1022682Y-1097579D02*
X1032205Y-1135674D01*
X1032205Y-1135674D02*
X1032205Y-1183293D01*
X1032205Y-1183293D02*
X1022682Y-1221389D01*
X1022682Y-1221389D02*
X1013158Y-1240436D01*
X1013158Y-1240436D02*
X1003634Y-1249960D01*
X1003634Y-1249960D02*
X984586Y-1259484D01*
X984586Y-1259484D02*
X965539Y-1259484D01*
X965539Y-1259484D02*
X946491Y-1249960D01*
X946491Y-1249960D02*
X936967Y-1240436D01*
X936967Y-1240436D02*
X927443Y-1221389D01*
X927443Y-1221389D02*
X917920Y-1183293D01*
X917920Y-1183293D02*
X917920Y-1135674D01*
X917920Y-1135674D02*
X927443Y-1097579D01*
X927443Y-1097579D02*
X936967Y-1078531D01*
X936967Y-1078531D02*
X946491Y-1069008D01*
X946491Y-1069008D02*
X965539Y-1059484D01*
X1117920Y-1259484D02*
X1117920Y-1126150D01*
X1117920Y-1145198D02*
X1127444Y-1135674D01*
X1127444Y-1135674D02*
X1146491Y-1126150D01*
X1146491Y-1126150D02*
X1175063Y-1126150D01*
X1175063Y-1126150D02*
X1194110Y-1135674D01*
X1194110Y-1135674D02*
X1203634Y-1154722D01*
X1203634Y-1154722D02*
X1203634Y-1259484D01*
X1203634Y-1154722D02*
X1213158Y-1135674D01*
X1213158Y-1135674D02*
X1232205Y-1126150D01*
X1232205Y-1126150D02*
X1260777Y-1126150D01*
X1260777Y-1126150D02*
X1279825Y-1135674D01*
X1279825Y-1135674D02*
X1289348Y-1154722D01*
X1289348Y-1154722D02*
X1289348Y-1259484D01*
X1384586Y-1259484D02*
X1384586Y-1126150D01*
X1384586Y-1145198D02*
X1394110Y-1135674D01*
X1394110Y-1135674D02*
X1413158Y-1126150D01*
X1413158Y-1126150D02*
X1441729Y-1126150D01*
X1441729Y-1126150D02*
X1460777Y-1135674D01*
X1460777Y-1135674D02*
X1470301Y-1154722D01*
X1470301Y-1154722D02*
X1470301Y-1259484D01*
X1470301Y-1154722D02*
X1479824Y-1135674D01*
X1479824Y-1135674D02*
X1498872Y-1126150D01*
X1498872Y-1126150D02*
X1527443Y-1126150D01*
X1527443Y-1126150D02*
X1546491Y-1135674D01*
X1546491Y-1135674D02*
X1556015Y-1154722D01*
X1556015Y-1154722D02*
X1556015Y-1259484D01*
X1946491Y-1049960D02*
X1775063Y-1307103D01*
X2203634Y-1059484D02*
X2222682Y-1059484D01*
X2222682Y-1059484D02*
X2241729Y-1069008D01*
X2241729Y-1069008D02*
X2251253Y-1078531D01*
X2251253Y-1078531D02*
X2260777Y-1097579D01*
X2260777Y-1097579D02*
X2270301Y-1135674D01*
X2270301Y-1135674D02*
X2270301Y-1183293D01*
X2270301Y-1183293D02*
X2260777Y-1221389D01*
X2260777Y-1221389D02*
X2251253Y-1240436D01*
X2251253Y-1240436D02*
X2241729Y-1249960D01*
X2241729Y-1249960D02*
X2222682Y-1259484D01*
X2222682Y-1259484D02*
X2203634Y-1259484D01*
X2203634Y-1259484D02*
X2184587Y-1249960D01*
X2184587Y-1249960D02*
X2175063Y-1240436D01*
X2175063Y-1240436D02*
X2165539Y-1221389D01*
X2165539Y-1221389D02*
X2156015Y-1183293D01*
X2156015Y-1183293D02*
X2156015Y-1135674D01*
X2156015Y-1135674D02*
X2165539Y-1097579D01*
X2165539Y-1097579D02*
X2175063Y-1078531D01*
X2175063Y-1078531D02*
X2184587Y-1069008D01*
X2184587Y-1069008D02*
X2203634Y-1059484D01*
X2356015Y-1240436D02*
X2365539Y-1249960D01*
X2365539Y-1249960D02*
X2356015Y-1259484D01*
X2356015Y-1259484D02*
X2346491Y-1249960D01*
X2346491Y-1249960D02*
X2356015Y-1240436D01*
X2356015Y-1240436D02*
X2356015Y-1259484D01*
X2489348Y-1059484D02*
X2508396Y-1059484D01*
X2508396Y-1059484D02*
X2527444Y-1069008D01*
X2527444Y-1069008D02*
X2536968Y-1078531D01*
X2536968Y-1078531D02*
X2546491Y-1097579D01*
X2546491Y-1097579D02*
X2556015Y-1135674D01*
X2556015Y-1135674D02*
X2556015Y-1183293D01*
X2556015Y-1183293D02*
X2546491Y-1221389D01*
X2546491Y-1221389D02*
X2536968Y-1240436D01*
X2536968Y-1240436D02*
X2527444Y-1249960D01*
X2527444Y-1249960D02*
X2508396Y-1259484D01*
X2508396Y-1259484D02*
X2489348Y-1259484D01*
X2489348Y-1259484D02*
X2470301Y-1249960D01*
X2470301Y-1249960D02*
X2460777Y-1240436D01*
X2460777Y-1240436D02*
X2451253Y-1221389D01*
X2451253Y-1221389D02*
X2441729Y-1183293D01*
X2441729Y-1183293D02*
X2441729Y-1135674D01*
X2441729Y-1135674D02*
X2451253Y-1097579D01*
X2451253Y-1097579D02*
X2460777Y-1078531D01*
X2460777Y-1078531D02*
X2470301Y-1069008D01*
X2470301Y-1069008D02*
X2489348Y-1059484D01*
X2622682Y-1059484D02*
X2746491Y-1059484D01*
X2746491Y-1059484D02*
X2679825Y-1135674D01*
X2679825Y-1135674D02*
X2708396Y-1135674D01*
X2708396Y-1135674D02*
X2727444Y-1145198D01*
X2727444Y-1145198D02*
X2736968Y-1154722D01*
X2736968Y-1154722D02*
X2746491Y-1173770D01*
X2746491Y-1173770D02*
X2746491Y-1221389D01*
X2746491Y-1221389D02*
X2736968Y-1240436D01*
X2736968Y-1240436D02*
X2727444Y-1249960D01*
X2727444Y-1249960D02*
X2708396Y-1259484D01*
X2708396Y-1259484D02*
X2651253Y-1259484D01*
X2651253Y-1259484D02*
X2632206Y-1249960D01*
X2632206Y-1249960D02*
X2622682Y-1240436D01*
X2841729Y-1259484D02*
X2879825Y-1259484D01*
X2879825Y-1259484D02*
X2898872Y-1249960D01*
X2898872Y-1249960D02*
X2908396Y-1240436D01*
X2908396Y-1240436D02*
X2927444Y-1211865D01*
X2927444Y-1211865D02*
X2936967Y-1173770D01*
X2936967Y-1173770D02*
X2936967Y-1097579D01*
X2936967Y-1097579D02*
X2927444Y-1078531D01*
X2927444Y-1078531D02*
X2917920Y-1069008D01*
X2917920Y-1069008D02*
X2898872Y-1059484D01*
X2898872Y-1059484D02*
X2860777Y-1059484D01*
X2860777Y-1059484D02*
X2841729Y-1069008D01*
X2841729Y-1069008D02*
X2832206Y-1078531D01*
X2832206Y-1078531D02*
X2822682Y-1097579D01*
X2822682Y-1097579D02*
X2822682Y-1145198D01*
X2822682Y-1145198D02*
X2832206Y-1164246D01*
X2832206Y-1164246D02*
X2841729Y-1173770D01*
X2841729Y-1173770D02*
X2860777Y-1183293D01*
X2860777Y-1183293D02*
X2898872Y-1183293D01*
X2898872Y-1183293D02*
X2917920Y-1173770D01*
X2917920Y-1173770D02*
X2927444Y-1164246D01*
X2927444Y-1164246D02*
X2936967Y-1145198D01*
X3108396Y-1126150D02*
X3108396Y-1259484D01*
X3060777Y-1049960D02*
X3013158Y-1192817D01*
X3013158Y-1192817D02*
X3136967Y-1192817D01*
X3203634Y-1059484D02*
X3203634Y-1097579D01*
X3279825Y-1059484D02*
X3279825Y-1097579D01*
X3575063Y-1335674D02*
X3565539Y-1326150D01*
X3565539Y-1326150D02*
X3546491Y-1297579D01*
X3546491Y-1297579D02*
X3536968Y-1278531D01*
X3536968Y-1278531D02*
X3527444Y-1249960D01*
X3527444Y-1249960D02*
X3517920Y-1202341D01*
X3517920Y-1202341D02*
X3517920Y-1164246D01*
X3517920Y-1164246D02*
X3527444Y-1116627D01*
X3527444Y-1116627D02*
X3536968Y-1088055D01*
X3536968Y-1088055D02*
X3546491Y-1069008D01*
X3546491Y-1069008D02*
X3565539Y-1040436D01*
X3565539Y-1040436D02*
X3575063Y-1030912D01*
X3641729Y-1078531D02*
X3651253Y-1069008D01*
X3651253Y-1069008D02*
X3670301Y-1059484D01*
X3670301Y-1059484D02*
X3717920Y-1059484D01*
X3717920Y-1059484D02*
X3736968Y-1069008D01*
X3736968Y-1069008D02*
X3746491Y-1078531D01*
X3746491Y-1078531D02*
X3756015Y-1097579D01*
X3756015Y-1097579D02*
X3756015Y-1116627D01*
X3756015Y-1116627D02*
X3746491Y-1145198D01*
X3746491Y-1145198D02*
X3632206Y-1259484D01*
X3632206Y-1259484D02*
X3756015Y-1259484D01*
X3994110Y-1259484D02*
X3994110Y-1059484D01*
X4079825Y-1259484D02*
X4079825Y-1154722D01*
X4079825Y-1154722D02*
X4070301Y-1135674D01*
X4070301Y-1135674D02*
X4051253Y-1126150D01*
X4051253Y-1126150D02*
X4022682Y-1126150D01*
X4022682Y-1126150D02*
X4003634Y-1135674D01*
X4003634Y-1135674D02*
X3994110Y-1145198D01*
X4203634Y-1259484D02*
X4184587Y-1249960D01*
X4184587Y-1249960D02*
X4175063Y-1240436D01*
X4175063Y-1240436D02*
X4165539Y-1221389D01*
X4165539Y-1221389D02*
X4165539Y-1164246D01*
X4165539Y-1164246D02*
X4175063Y-1145198D01*
X4175063Y-1145198D02*
X4184587Y-1135674D01*
X4184587Y-1135674D02*
X4203634Y-1126150D01*
X4203634Y-1126150D02*
X4232206Y-1126150D01*
X4232206Y-1126150D02*
X4251253Y-1135674D01*
X4251253Y-1135674D02*
X4260777Y-1145198D01*
X4260777Y-1145198D02*
X4270301Y-1164246D01*
X4270301Y-1164246D02*
X4270301Y-1221389D01*
X4270301Y-1221389D02*
X4260777Y-1240436D01*
X4260777Y-1240436D02*
X4251253Y-1249960D01*
X4251253Y-1249960D02*
X4232206Y-1259484D01*
X4232206Y-1259484D02*
X4203634Y-1259484D01*
X4384587Y-1259484D02*
X4365539Y-1249960D01*
X4365539Y-1249960D02*
X4356015Y-1230912D01*
X4356015Y-1230912D02*
X4356015Y-1059484D01*
X4536968Y-1249960D02*
X4517920Y-1259484D01*
X4517920Y-1259484D02*
X4479825Y-1259484D01*
X4479825Y-1259484D02*
X4460777Y-1249960D01*
X4460777Y-1249960D02*
X4451253Y-1230912D01*
X4451253Y-1230912D02*
X4451253Y-1154722D01*
X4451253Y-1154722D02*
X4460777Y-1135674D01*
X4460777Y-1135674D02*
X4479825Y-1126150D01*
X4479825Y-1126150D02*
X4517920Y-1126150D01*
X4517920Y-1126150D02*
X4536968Y-1135674D01*
X4536968Y-1135674D02*
X4546492Y-1154722D01*
X4546492Y-1154722D02*
X4546492Y-1173770D01*
X4546492Y-1173770D02*
X4451253Y-1192817D01*
X4622682Y-1249960D02*
X4641730Y-1259484D01*
X4641730Y-1259484D02*
X4679825Y-1259484D01*
X4679825Y-1259484D02*
X4698873Y-1249960D01*
X4698873Y-1249960D02*
X4708396Y-1230912D01*
X4708396Y-1230912D02*
X4708396Y-1221389D01*
X4708396Y-1221389D02*
X4698873Y-1202341D01*
X4698873Y-1202341D02*
X4679825Y-1192817D01*
X4679825Y-1192817D02*
X4651253Y-1192817D01*
X4651253Y-1192817D02*
X4632206Y-1183293D01*
X4632206Y-1183293D02*
X4622682Y-1164246D01*
X4622682Y-1164246D02*
X4622682Y-1154722D01*
X4622682Y-1154722D02*
X4632206Y-1135674D01*
X4632206Y-1135674D02*
X4651253Y-1126150D01*
X4651253Y-1126150D02*
X4679825Y-1126150D01*
X4679825Y-1126150D02*
X4698873Y-1135674D01*
X4775063Y-1335674D02*
X4784587Y-1326150D01*
X4784587Y-1326150D02*
X4803634Y-1297579D01*
X4803634Y-1297579D02*
X4813158Y-1278531D01*
X4813158Y-1278531D02*
X4822682Y-1249960D01*
X4822682Y-1249960D02*
X4832206Y-1202341D01*
X4832206Y-1202341D02*
X4832206Y-1164246D01*
X4832206Y-1164246D02*
X4822682Y-1116627D01*
X4822682Y-1116627D02*
X4813158Y-1088055D01*
X4813158Y-1088055D02*
X4803634Y-1069008D01*
X4803634Y-1069008D02*
X4784587Y-1040436D01*
X4784587Y-1040436D02*
X4775063Y-1030912D01*
M02*
