G04 #@! TF.GenerationSoftware,KiCad,Pcbnew,10.0.4*
G04 #@! TF.CreationDate,2026-07-01T20:35:10-07:00*
G04 #@! TF.ProjectId,ministepper,6d696e69-7374-4657-9070-65722e6b6963,0.1*
G04 #@! TF.SameCoordinates,Original*
G04 #@! TF.FileFunction,Copper,L1,Top*
G04 #@! TF.FilePolarity,Positive*
%FSLAX46Y46*%
G04 Gerber Fmt 4.6, Leading zero omitted, Abs format (unit mm)*
G04 Created by KiCad (PCBNEW 10.0.4) date 2026-07-01 20:35:10*
%MOMM*%
%LPD*%
G01*
G04 APERTURE LIST*
G04 Aperture macros list*
%AMRoundRect*
0 Rectangle with rounded corners*
0 $1 Rounding radius*
0 $2 $3 $4 $5 $6 $7 $8 $9 X,Y pos of 4 corners*
0 Add a 4 corners polygon primitive as box body*
4,1,4,$2,$3,$4,$5,$6,$7,$8,$9,$2,$3,0*
0 Add four circle primitives for the rounded corners*
1,1,$1+$1,$2,$3*
1,1,$1+$1,$4,$5*
1,1,$1+$1,$6,$7*
1,1,$1+$1,$8,$9*
0 Add four rect primitives between the rounded corners*
20,1,$1+$1,$2,$3,$4,$5,0*
20,1,$1+$1,$4,$5,$6,$7,0*
20,1,$1+$1,$6,$7,$8,$9,0*
20,1,$1+$1,$8,$9,$2,$3,0*%
G04 Aperture macros list end*
G04 #@! TA.AperFunction,SMDPad,CuDef*
%ADD10RoundRect,0.140000X-0.170000X0.140000X-0.170000X-0.140000X0.170000X-0.140000X0.170000X0.140000X0*%
G04 #@! TD*
G04 #@! TA.AperFunction,ComponentPad*
%ADD11RoundRect,0.250000X0.725000X-0.600000X0.725000X0.600000X-0.725000X0.600000X-0.725000X-0.600000X0*%
G04 #@! TD*
G04 #@! TA.AperFunction,ComponentPad*
%ADD12O,1.950000X1.700000*%
G04 #@! TD*
G04 #@! TA.AperFunction,SMDPad,CuDef*
%ADD13RoundRect,0.140000X-0.140000X-0.170000X0.140000X-0.170000X0.140000X0.170000X-0.140000X0.170000X0*%
G04 #@! TD*
G04 #@! TA.AperFunction,SMDPad,CuDef*
%ADD14RoundRect,0.140000X0.170000X-0.140000X0.170000X0.140000X-0.170000X0.140000X-0.170000X-0.140000X0*%
G04 #@! TD*
G04 #@! TA.AperFunction,ComponentPad*
%ADD15RoundRect,0.250000X-0.725000X0.600000X-0.725000X-0.600000X0.725000X-0.600000X0.725000X0.600000X0*%
G04 #@! TD*
G04 #@! TA.AperFunction,SMDPad,CuDef*
%ADD16RoundRect,0.135000X-0.135000X-0.185000X0.135000X-0.185000X0.135000X0.185000X-0.135000X0.185000X0*%
G04 #@! TD*
G04 #@! TA.AperFunction,SMDPad,CuDef*
%ADD17RoundRect,0.062500X-0.375000X-0.062500X0.375000X-0.062500X0.375000X0.062500X-0.375000X0.062500X0*%
G04 #@! TD*
G04 #@! TA.AperFunction,SMDPad,CuDef*
%ADD18RoundRect,0.062500X-0.062500X-0.375000X0.062500X-0.375000X0.062500X0.375000X-0.062500X0.375000X0*%
G04 #@! TD*
G04 #@! TA.AperFunction,HeatsinkPad*
%ADD19R,3.600000X4.600000*%
G04 #@! TD*
G04 #@! TA.AperFunction,SMDPad,CuDef*
%ADD20R,1.000000X0.750000*%
G04 #@! TD*
G04 #@! TA.AperFunction,SMDPad,CuDef*
%ADD21R,0.300000X0.400000*%
G04 #@! TD*
G04 #@! TA.AperFunction,SMDPad,CuDef*
%ADD22O,0.650000X0.400000*%
G04 #@! TD*
G04 #@! TA.AperFunction,SMDPad,CuDef*
%ADD23R,0.650000X1.000000*%
G04 #@! TD*
G04 #@! TA.AperFunction,SMDPad,CuDef*
%ADD24R,1.650000X2.400000*%
G04 #@! TD*
G04 #@! TA.AperFunction,SMDPad,CuDef*
%ADD25RoundRect,0.225000X-0.225000X-0.250000X0.225000X-0.250000X0.225000X0.250000X-0.225000X0.250000X0*%
G04 #@! TD*
G04 #@! TA.AperFunction,SMDPad,CuDef*
%ADD26RoundRect,0.250000X-1.075000X0.312500X-1.075000X-0.312500X1.075000X-0.312500X1.075000X0.312500X0*%
G04 #@! TD*
G04 #@! TA.AperFunction,SMDPad,CuDef*
%ADD27RoundRect,0.250000X-1.000000X-0.650000X1.000000X-0.650000X1.000000X0.650000X-1.000000X0.650000X0*%
G04 #@! TD*
G04 #@! TA.AperFunction,SMDPad,CuDef*
%ADD28RoundRect,0.100000X-0.712500X-0.100000X0.712500X-0.100000X0.712500X0.100000X-0.712500X0.100000X0*%
G04 #@! TD*
G04 #@! TA.AperFunction,ComponentPad*
%ADD29RoundRect,0.250000X-0.600000X-0.750000X0.600000X-0.750000X0.600000X0.750000X-0.600000X0.750000X0*%
G04 #@! TD*
G04 #@! TA.AperFunction,ComponentPad*
%ADD30O,1.700000X2.000000*%
G04 #@! TD*
G04 #@! TA.AperFunction,SMDPad,CuDef*
%ADD31RoundRect,0.250000X-0.325000X-0.650000X0.325000X-0.650000X0.325000X0.650000X-0.325000X0.650000X0*%
G04 #@! TD*
G04 #@! TA.AperFunction,SMDPad,CuDef*
%ADD32RoundRect,0.250000X1.075000X-0.312500X1.075000X0.312500X-1.075000X0.312500X-1.075000X-0.312500X0*%
G04 #@! TD*
G04 #@! TA.AperFunction,SMDPad,CuDef*
%ADD33RoundRect,0.225000X0.225000X0.250000X-0.225000X0.250000X-0.225000X-0.250000X0.225000X-0.250000X0*%
G04 #@! TD*
G04 #@! TA.AperFunction,SMDPad,CuDef*
%ADD34RoundRect,0.135000X0.185000X-0.135000X0.185000X0.135000X-0.185000X0.135000X-0.185000X-0.135000X0*%
G04 #@! TD*
G04 #@! TA.AperFunction,SMDPad,CuDef*
%ADD35RoundRect,0.250000X-1.100000X0.325000X-1.100000X-0.325000X1.100000X-0.325000X1.100000X0.325000X0*%
G04 #@! TD*
G04 #@! TA.AperFunction,ConnectorPad*
%ADD36C,0.787400*%
G04 #@! TD*
G04 #@! TA.AperFunction,SMDPad,CuDef*
%ADD37RoundRect,0.135000X0.135000X0.185000X-0.135000X0.185000X-0.135000X-0.185000X0.135000X-0.185000X0*%
G04 #@! TD*
G04 #@! TA.AperFunction,SMDPad,CuDef*
%ADD38RoundRect,0.250000X-0.300000X-1.600000X0.300000X-1.600000X0.300000X1.600000X-0.300000X1.600000X0*%
G04 #@! TD*
G04 #@! TA.AperFunction,SMDPad,CuDef*
%ADD39R,0.280000X0.700000*%
G04 #@! TD*
G04 #@! TA.AperFunction,SMDPad,CuDef*
%ADD40RoundRect,0.070000X-0.070000X0.280000X-0.070000X-0.280000X0.070000X-0.280000X0.070000X0.280000X0*%
G04 #@! TD*
G04 #@! TA.AperFunction,SMDPad,CuDef*
%ADD41RoundRect,0.070000X-0.280000X0.070000X-0.280000X-0.070000X0.280000X-0.070000X0.280000X0.070000X0*%
G04 #@! TD*
G04 #@! TA.AperFunction,SMDPad,CuDef*
%ADD42R,3.500000X3.500000*%
G04 #@! TD*
G04 #@! TA.AperFunction,SMDPad,CuDef*
%ADD43RoundRect,0.150000X-0.150000X-0.425000X0.150000X-0.425000X0.150000X0.425000X-0.150000X0.425000X0*%
G04 #@! TD*
G04 #@! TA.AperFunction,SMDPad,CuDef*
%ADD44RoundRect,0.075000X-0.075000X-0.500000X0.075000X-0.500000X0.075000X0.500000X-0.075000X0.500000X0*%
G04 #@! TD*
G04 #@! TA.AperFunction,ComponentPad*
%ADD45O,1.000000X2.100000*%
G04 #@! TD*
G04 #@! TA.AperFunction,ComponentPad*
%ADD46O,1.000000X1.800000*%
G04 #@! TD*
G04 #@! TA.AperFunction,ViaPad*
%ADD47C,0.600000*%
G04 #@! TD*
G04 #@! TA.AperFunction,Conductor*
%ADD48C,0.200000*%
G04 #@! TD*
G04 #@! TA.AperFunction,Conductor*
%ADD49C,0.500000*%
G04 #@! TD*
G04 APERTURE END LIST*
D10*
X75650000Y-90190000D03*
X75650000Y-91150000D03*
X80970000Y-88790000D03*
X80970000Y-89750000D03*
D11*
X165000000Y-100000000D03*
D12*
X165000000Y-97500000D03*
X165000000Y-95000000D03*
X165000000Y-92500000D03*
D13*
X81220000Y-104870000D03*
X82180000Y-104870000D03*
D14*
X81500000Y-101750000D03*
X81500000Y-100790000D03*
D10*
X75900000Y-116190000D03*
X75900000Y-117150000D03*
X83250000Y-80710000D03*
X83250000Y-81670000D03*
X83500000Y-106710000D03*
X83500000Y-107670000D03*
D15*
X68250000Y-79170000D03*
D12*
X68250000Y-81670000D03*
X68250000Y-84170000D03*
X68250000Y-86670000D03*
D15*
X68245000Y-105315739D03*
D12*
X68245000Y-107815739D03*
X68245000Y-110315739D03*
X68245000Y-112815739D03*
D10*
X81220000Y-114790000D03*
X81220000Y-115750000D03*
D16*
X131335000Y-117275000D03*
X132355000Y-117275000D03*
D17*
X76177500Y-81155000D03*
X76177500Y-81655000D03*
X76177500Y-82155000D03*
X76177500Y-82655000D03*
X76177500Y-83155000D03*
X76177500Y-83655000D03*
X76177500Y-84155000D03*
X76177500Y-84655000D03*
X76177500Y-85155000D03*
X76177500Y-85655000D03*
D18*
X76865000Y-86342500D03*
X77365000Y-86342500D03*
X77865000Y-86342500D03*
X78365000Y-86342500D03*
X78865000Y-86342500D03*
X79365000Y-86342500D03*
X79865000Y-86342500D03*
X80365000Y-86342500D03*
D17*
X81052500Y-85655000D03*
X81052500Y-85155000D03*
X81052500Y-84655000D03*
X81052500Y-84155000D03*
X81052500Y-83655000D03*
X81052500Y-83155000D03*
X81052500Y-82655000D03*
X81052500Y-82155000D03*
X81052500Y-81655000D03*
X81052500Y-81155000D03*
D18*
X80365000Y-80467500D03*
X79865000Y-80467500D03*
X79365000Y-80467500D03*
X78865000Y-80467500D03*
X78365000Y-80467500D03*
X77865000Y-80467500D03*
X77365000Y-80467500D03*
X76865000Y-80467500D03*
D19*
X78615000Y-83405000D03*
D20*
X146375000Y-123750000D03*
X152375000Y-123750000D03*
X146375000Y-127500000D03*
X152375000Y-127500000D03*
D21*
X142175000Y-68465000D03*
D22*
X142375000Y-68465000D03*
D21*
X142175000Y-69115000D03*
D22*
X142375000Y-69115000D03*
D21*
X142175000Y-69765000D03*
D22*
X142375000Y-69765000D03*
D21*
X142175000Y-70415000D03*
D22*
X142375000Y-70415000D03*
X145475000Y-70415000D03*
D21*
X145675000Y-70415000D03*
D22*
X145475000Y-69765000D03*
D21*
X145675000Y-69765000D03*
D22*
X145475000Y-69115000D03*
D21*
X145675000Y-69115000D03*
D22*
X145475000Y-68465000D03*
D21*
X145675000Y-68465000D03*
D23*
X143475000Y-68815000D03*
X143475000Y-70065000D03*
D24*
X143925000Y-69440000D03*
D23*
X144375000Y-68815000D03*
X144375000Y-70065000D03*
D25*
X127980000Y-127095000D03*
X129530000Y-127095000D03*
X84475000Y-83270000D03*
X86025000Y-83270000D03*
D13*
X136475000Y-62485000D03*
X137435000Y-62485000D03*
D26*
X78500000Y-115207500D03*
X78500000Y-118132500D03*
D17*
X76427500Y-107155000D03*
X76427500Y-107655000D03*
X76427500Y-108155000D03*
X76427500Y-108655000D03*
X76427500Y-109155000D03*
X76427500Y-109655000D03*
X76427500Y-110155000D03*
X76427500Y-110655000D03*
X76427500Y-111155000D03*
X76427500Y-111655000D03*
D18*
X77115000Y-112342500D03*
X77615000Y-112342500D03*
X78115000Y-112342500D03*
X78615000Y-112342500D03*
X79115000Y-112342500D03*
X79615000Y-112342500D03*
X80115000Y-112342500D03*
X80615000Y-112342500D03*
D17*
X81302500Y-111655000D03*
X81302500Y-111155000D03*
X81302500Y-110655000D03*
X81302500Y-110155000D03*
X81302500Y-109655000D03*
X81302500Y-109155000D03*
X81302500Y-108655000D03*
X81302500Y-108155000D03*
X81302500Y-107655000D03*
X81302500Y-107155000D03*
D18*
X80615000Y-106467500D03*
X80115000Y-106467500D03*
X79615000Y-106467500D03*
X79115000Y-106467500D03*
X78615000Y-106467500D03*
X78115000Y-106467500D03*
X77615000Y-106467500D03*
X77115000Y-106467500D03*
D19*
X78865000Y-109405000D03*
D27*
X120220000Y-85645000D03*
X124220000Y-85645000D03*
D28*
X150025000Y-89450000D03*
X150025000Y-90100000D03*
X150025000Y-90750000D03*
X150025000Y-91400000D03*
X154250000Y-91400000D03*
X154250000Y-90750000D03*
X154250000Y-90100000D03*
X154250000Y-89450000D03*
D13*
X136475000Y-64455000D03*
X137435000Y-64455000D03*
D29*
X121625000Y-73145000D03*
D30*
X124125000Y-73145000D03*
D31*
X142650000Y-73435000D03*
X145600000Y-73435000D03*
D32*
X78850000Y-76732500D03*
X78850000Y-73807500D03*
D16*
X131335000Y-119265000D03*
X132355000Y-119265000D03*
D33*
X86275000Y-107670000D03*
X84725000Y-107670000D03*
D34*
X83250000Y-83580000D03*
X83250000Y-82560000D03*
D13*
X132055000Y-125245000D03*
X133015000Y-125245000D03*
D11*
X165000000Y-85500000D03*
D12*
X165000000Y-83000000D03*
X165000000Y-80500000D03*
X165000000Y-78000000D03*
D34*
X83500000Y-109580000D03*
X83500000Y-108560000D03*
D13*
X136475000Y-70365000D03*
X137435000Y-70365000D03*
X132055000Y-123275000D03*
X133015000Y-123275000D03*
D16*
X139335000Y-72025000D03*
X140355000Y-72025000D03*
D26*
X78250000Y-89207500D03*
X78250000Y-92132500D03*
D33*
X86025000Y-81670000D03*
X84475000Y-81670000D03*
D16*
X131335000Y-115285000D03*
X132355000Y-115285000D03*
D25*
X84725000Y-109270000D03*
X86275000Y-109270000D03*
D35*
X83300000Y-115195000D03*
X83300000Y-118145000D03*
D10*
X74050000Y-84710000D03*
X74050000Y-85670000D03*
D14*
X81250000Y-75750000D03*
X81250000Y-74790000D03*
D16*
X139335000Y-74015000D03*
X140355000Y-74015000D03*
D10*
X74300000Y-110710000D03*
X74300000Y-111670000D03*
D27*
X120220000Y-90195000D03*
X124220000Y-90195000D03*
D16*
X139335000Y-68045000D03*
X140355000Y-68045000D03*
D25*
X145270000Y-62755000D03*
X146820000Y-62755000D03*
D36*
X121455000Y-125450000D03*
X121455000Y-124180000D03*
X122725000Y-125450000D03*
X122725000Y-124180000D03*
X123995000Y-125450000D03*
X123995000Y-124180000D03*
D37*
X84560000Y-84470000D03*
X83540000Y-84470000D03*
D35*
X83050000Y-89195000D03*
X83050000Y-92145000D03*
D13*
X136475000Y-66425000D03*
X137435000Y-66425000D03*
D38*
X139715000Y-64275000D03*
X142715000Y-64275000D03*
D32*
X79100000Y-102732500D03*
X79100000Y-99807500D03*
D13*
X81220000Y-103870000D03*
X82180000Y-103870000D03*
D37*
X84810000Y-110470000D03*
X83790000Y-110470000D03*
D13*
X80970000Y-78870000D03*
X81930000Y-78870000D03*
D16*
X131335000Y-113295000D03*
X132355000Y-113295000D03*
X139335000Y-70035000D03*
X140355000Y-70035000D03*
D39*
X97750000Y-91750000D03*
D40*
X97250000Y-91750000D03*
X96750000Y-91750000D03*
X96250000Y-91750000D03*
X95750000Y-91750000D03*
X95250000Y-91750000D03*
X94750000Y-91750000D03*
X94250000Y-91750000D03*
D41*
X93500000Y-92500000D03*
X93500000Y-93000000D03*
X93500000Y-93500000D03*
X93500000Y-94000000D03*
X93500000Y-94500000D03*
X93500000Y-95000000D03*
X93500000Y-95500000D03*
X93500000Y-96000000D03*
D40*
X94250000Y-96750000D03*
X94750000Y-96750000D03*
X95250000Y-96750000D03*
X95750000Y-96750000D03*
X96250000Y-96750000D03*
X96750000Y-96750000D03*
X97250000Y-96750000D03*
X97750000Y-96750000D03*
D41*
X98500000Y-96000000D03*
X98500000Y-95500000D03*
X98500000Y-95000000D03*
X98500000Y-94500000D03*
X98500000Y-94000000D03*
X98500000Y-93500000D03*
X98500000Y-93000000D03*
X98500000Y-92500000D03*
D42*
X96000000Y-94250000D03*
D43*
X121345000Y-113905000D03*
X122145000Y-113905000D03*
D44*
X123295000Y-113905000D03*
X124295000Y-113905000D03*
X124795000Y-113905000D03*
X125795000Y-113905000D03*
D43*
X126945000Y-113905000D03*
X127745000Y-113905000D03*
X127745000Y-113905000D03*
X126945000Y-113905000D03*
D44*
X126295000Y-113905000D03*
X125295000Y-113905000D03*
X123795000Y-113905000D03*
X122795000Y-113905000D03*
D43*
X122145000Y-113905000D03*
X121345000Y-113905000D03*
D45*
X120225000Y-114480000D03*
D46*
X120225000Y-118660000D03*
D45*
X128865000Y-114480000D03*
D46*
X128865000Y-118660000D03*
D13*
X80970000Y-77870000D03*
X81930000Y-77870000D03*
X136475000Y-68395000D03*
X137435000Y-68395000D03*
D47*
X80100000Y-107670000D03*
X80700000Y-113470000D03*
X79850000Y-81670000D03*
X77600000Y-107670000D03*
X82500000Y-111670000D03*
X82380009Y-83428505D03*
X83100000Y-93170000D03*
X78850000Y-110420000D03*
X81350000Y-73670000D03*
X75954115Y-78900000D03*
X79600000Y-119170000D03*
X80100000Y-109420000D03*
X78600000Y-81670000D03*
X80100000Y-111170000D03*
X81350000Y-87170000D03*
X75452418Y-79470000D03*
X75850000Y-92170000D03*
X82630009Y-109428505D03*
X77600000Y-109420000D03*
X76350000Y-73670000D03*
X79850000Y-83420000D03*
X87300000Y-107670000D03*
X76850000Y-93170000D03*
X82250000Y-85670000D03*
X80850000Y-119170000D03*
X77573375Y-105530414D03*
X82100000Y-112670000D03*
X78850000Y-108420000D03*
X75350000Y-80170000D03*
X77600000Y-111170000D03*
X81600000Y-113170000D03*
X84600000Y-119170000D03*
X74830431Y-80357824D03*
X76100000Y-118170000D03*
X74300000Y-112470000D03*
X87300000Y-108470000D03*
X78499999Y-119170000D03*
X78600000Y-85170000D03*
X86700380Y-82019620D03*
X76956827Y-87336826D03*
X74450000Y-79470000D03*
X77350000Y-81670000D03*
X80600000Y-93170000D03*
X78600000Y-82420000D03*
X77350000Y-85170000D03*
X78249999Y-93170000D03*
X78850000Y-107670000D03*
X78850000Y-111170000D03*
X78600000Y-83420000D03*
X82100000Y-119170000D03*
X77350000Y-83420000D03*
X81850000Y-86670000D03*
X76600000Y-99670000D03*
X87050000Y-83270000D03*
X81850000Y-93170000D03*
X74700000Y-105470000D03*
X80450000Y-87470000D03*
X79850000Y-85170000D03*
X79100000Y-98670000D03*
X81600000Y-99670000D03*
X75100000Y-106870000D03*
X83350000Y-119170000D03*
X75600000Y-106170000D03*
X77100000Y-119170000D03*
X84350000Y-93170000D03*
X78850000Y-72670000D03*
X78850000Y-109420000D03*
X87050000Y-82470000D03*
X77206827Y-113336826D03*
X78600000Y-84420000D03*
X87300000Y-109270000D03*
X76488814Y-105805005D03*
X74050000Y-86470000D03*
X79350000Y-93170000D03*
X73300000Y-84900000D03*
X78950000Y-88170000D03*
X79687654Y-78300000D03*
X79200000Y-114170000D03*
X79850000Y-104670000D03*
X91600000Y-96000000D03*
X91400000Y-94400000D03*
X74373073Y-82962244D03*
X73179791Y-84058540D03*
X92107245Y-93928504D03*
X74186868Y-81956110D03*
X90800000Y-94900000D03*
X75155559Y-82825489D03*
X94500000Y-97900000D03*
X73602548Y-83321125D03*
X91900000Y-92500000D03*
X74461770Y-81024016D03*
X82250000Y-84270000D03*
X82500000Y-110270000D03*
D48*
X77267500Y-90190000D02*
X78250000Y-89207500D01*
X78365000Y-87555000D02*
X78250000Y-87670000D01*
X78365000Y-86342500D02*
X78365000Y-87555000D01*
D49*
X78250000Y-89207500D02*
X78250000Y-87670000D01*
D48*
X75650000Y-90190000D02*
X77267500Y-90190000D01*
X81302500Y-111655000D02*
X82485000Y-111655000D01*
X76488814Y-105841314D02*
X76488814Y-105805005D01*
D49*
X78250000Y-92132500D02*
X78249999Y-93170000D01*
X80600000Y-92132500D02*
X83037500Y-92132500D01*
D48*
X77365000Y-80467500D02*
X75954115Y-79056615D01*
X75954115Y-79056615D02*
X75954115Y-78900000D01*
X80082500Y-100790000D02*
X81500000Y-100790000D01*
X82485000Y-111655000D02*
X82500000Y-111670000D01*
X81302500Y-109155000D02*
X82356504Y-109155000D01*
D49*
X80850000Y-118132500D02*
X80850000Y-119170000D01*
D48*
X82235000Y-85655000D02*
X82250000Y-85670000D01*
X76427500Y-107155000D02*
X75385000Y-107155000D01*
X76177500Y-81155000D02*
X75627607Y-81155000D01*
D49*
X83287500Y-118132500D02*
X83300000Y-118145000D01*
D48*
X82106504Y-83155000D02*
X82380009Y-83428505D01*
X74050000Y-85670000D02*
X74050000Y-86470000D01*
D49*
X83050000Y-93120000D02*
X83100000Y-93170000D01*
X86025000Y-82470000D02*
X87050000Y-82470000D01*
D48*
X75900000Y-117150000D02*
X77517500Y-117150000D01*
X75627607Y-81155000D02*
X74830431Y-80357824D01*
X75385000Y-107155000D02*
X75100000Y-106870000D01*
X77615000Y-106467500D02*
X77615000Y-105572039D01*
D49*
X86700380Y-81819620D02*
X86700380Y-82019620D01*
X86025000Y-81670000D02*
X86025000Y-82470000D01*
X86550760Y-81670000D02*
X86700380Y-81819620D01*
D48*
X75867500Y-79470000D02*
X75452418Y-79470000D01*
X80365000Y-86342500D02*
X80365000Y-87385000D01*
X74300000Y-111670000D02*
X74300000Y-112470000D01*
D49*
X86025000Y-81670000D02*
X86550760Y-81670000D01*
D48*
X77115000Y-106467500D02*
X76488814Y-105841314D01*
X77615000Y-112342500D02*
X77615000Y-112928653D01*
X82356504Y-109155000D02*
X82630009Y-109428505D01*
D49*
X86275000Y-108470000D02*
X86275000Y-109270000D01*
X86275000Y-107670000D02*
X87300000Y-107670000D01*
X78500000Y-118132500D02*
X78499999Y-119170000D01*
X86025000Y-82470000D02*
X86025000Y-83270000D01*
X80600000Y-92132500D02*
X80600000Y-93170000D01*
D48*
X77365000Y-86342500D02*
X77365000Y-86928653D01*
X76865000Y-80467500D02*
X75867500Y-79470000D01*
X81052500Y-85655000D02*
X82235000Y-85655000D01*
X75650000Y-91150000D02*
X77267500Y-91150000D01*
D49*
X83300000Y-119120000D02*
X83350000Y-119170000D01*
X86275000Y-108470000D02*
X87300000Y-108470000D01*
D48*
X80615000Y-112342500D02*
X80615000Y-113385000D01*
D49*
X86025000Y-83270000D02*
X87050000Y-83270000D01*
X78250000Y-92132500D02*
X80600000Y-92132500D01*
D48*
X80365000Y-87385000D02*
X80450000Y-87470000D01*
X77517500Y-117150000D02*
X78500000Y-118132500D01*
D49*
X83037500Y-92132500D02*
X83050000Y-92145000D01*
X83050000Y-92145000D02*
X83050000Y-93120000D01*
D48*
X77615000Y-105572039D02*
X77573375Y-105530414D01*
D49*
X80850000Y-118132500D02*
X83287500Y-118132500D01*
X86275000Y-109270000D02*
X87300000Y-109270000D01*
X83300000Y-118145000D02*
X83300000Y-119120000D01*
X78500000Y-118132500D02*
X80850000Y-118132500D01*
X86275000Y-107670000D02*
X86275000Y-108470000D01*
D48*
X78850000Y-73807500D02*
X79832500Y-74790000D01*
X79100000Y-99807500D02*
X80082500Y-100790000D01*
X77615000Y-112928653D02*
X77206827Y-113336826D01*
X81052500Y-83155000D02*
X82106504Y-83155000D01*
X77365000Y-86928653D02*
X76956827Y-87336826D01*
X77267500Y-91150000D02*
X78250000Y-92132500D01*
X79832500Y-74790000D02*
X81250000Y-74790000D01*
X80615000Y-113385000D02*
X80700000Y-113470000D01*
X79615000Y-112342500D02*
X79615000Y-113385000D01*
X81220000Y-104425001D02*
X81220000Y-103870000D01*
X79365000Y-80467500D02*
X79365000Y-80030001D01*
D49*
X82895000Y-114790000D02*
X83300000Y-115195000D01*
D48*
X80690001Y-78870000D02*
X80970000Y-78870000D01*
X79865000Y-79695001D02*
X80690001Y-78870000D01*
X79615000Y-106467500D02*
X79615000Y-106030001D01*
D49*
X79450000Y-87470000D02*
X80770000Y-88790000D01*
D48*
X79615000Y-106030001D02*
X81220000Y-104425001D01*
X80115000Y-105695001D02*
X80940001Y-104870000D01*
X80115000Y-106467500D02*
X80115000Y-105695001D01*
X79365000Y-87385000D02*
X79450000Y-87470000D01*
D49*
X80970000Y-88790000D02*
X82645000Y-88790000D01*
X82645000Y-88790000D02*
X83050000Y-89195000D01*
X81020000Y-114790000D02*
X81220000Y-114790000D01*
X79700000Y-113470000D02*
X81020000Y-114790000D01*
X81220000Y-114790000D02*
X82895000Y-114790000D01*
D48*
X80940001Y-104870000D02*
X81220000Y-104870000D01*
X79365000Y-86342500D02*
X79365000Y-87385000D01*
D49*
X80770000Y-88790000D02*
X80970000Y-88790000D01*
D48*
X79865000Y-80467500D02*
X79865000Y-79695001D01*
X79615000Y-113385000D02*
X79700000Y-113470000D01*
X79365000Y-80030001D02*
X80970000Y-78425001D01*
X80970000Y-78425001D02*
X80970000Y-77870000D01*
X82180000Y-105190000D02*
X82180000Y-104870000D01*
X80615000Y-105955000D02*
X81100000Y-105470000D01*
X81900000Y-105470000D02*
X82180000Y-105190000D01*
X80615000Y-106467500D02*
X80615000Y-105955000D01*
X81100000Y-105470000D02*
X81900000Y-105470000D01*
X80082500Y-101750000D02*
X79100000Y-102732500D01*
X81500000Y-101750000D02*
X80082500Y-101750000D01*
X78615000Y-106467500D02*
X78615000Y-105505010D01*
X78615000Y-105505010D02*
X78950010Y-105170000D01*
D49*
X79100000Y-105020010D02*
X78950010Y-105170000D01*
X79100000Y-102732500D02*
X79100000Y-105020010D01*
D48*
X78615000Y-113555000D02*
X78500000Y-113670000D01*
D49*
X78500000Y-115207500D02*
X78500000Y-113670000D01*
D48*
X75900000Y-116190000D02*
X77517500Y-116190000D01*
X78615000Y-112342500D02*
X78615000Y-113555000D01*
X77517500Y-116190000D02*
X78500000Y-115207500D01*
X82805000Y-81155000D02*
X83250000Y-80710000D01*
X81052500Y-81155000D02*
X82805000Y-81155000D01*
X82620000Y-81670000D02*
X82635000Y-81655000D01*
X82650000Y-81670000D02*
X83250000Y-81670000D01*
X83235000Y-81655000D02*
X83250000Y-81670000D01*
X81067500Y-81670000D02*
X82620000Y-81670000D01*
X82635000Y-81655000D02*
X82650000Y-81670000D01*
X81052500Y-81655000D02*
X81067500Y-81670000D01*
X81302500Y-107155000D02*
X83055000Y-107155000D01*
X83055000Y-107155000D02*
X83500000Y-106710000D01*
X83485000Y-107655000D02*
X83500000Y-107670000D01*
X81317500Y-107670000D02*
X82870000Y-107670000D01*
X81302500Y-107655000D02*
X81317500Y-107670000D01*
X82870000Y-107670000D02*
X82885000Y-107655000D01*
X82900000Y-107670000D02*
X83500000Y-107670000D01*
X82885000Y-107655000D02*
X82900000Y-107670000D01*
X74050000Y-84670000D02*
X74065000Y-84655000D01*
X75300000Y-111470000D02*
X75300000Y-110655000D01*
X74050000Y-84710000D02*
X73490000Y-84710000D01*
X74300000Y-110710000D02*
X74300000Y-110670000D01*
X74315000Y-110655000D02*
X75300000Y-110655000D01*
X74300000Y-110670000D02*
X74315000Y-110655000D01*
X75235000Y-85655000D02*
X75050000Y-85470000D01*
X73490000Y-84710000D02*
X73300000Y-84900000D01*
X74050000Y-84710000D02*
X74050000Y-84670000D01*
X75050000Y-84655000D02*
X76177500Y-84655000D01*
X75300000Y-110655000D02*
X76427500Y-110655000D01*
X75050000Y-85470000D02*
X75050000Y-84655000D01*
X76427500Y-111655000D02*
X75485000Y-111655000D01*
X75485000Y-111655000D02*
X75300000Y-111470000D01*
X76177500Y-85655000D02*
X75235000Y-85655000D01*
X74065000Y-84655000D02*
X75050000Y-84655000D01*
D49*
X69350000Y-84170000D02*
X73350000Y-88170000D01*
X68250000Y-84170000D02*
X69350000Y-84170000D01*
X73350000Y-88170000D02*
X77100000Y-88170000D01*
D48*
X77865000Y-87347893D02*
X77100000Y-88112893D01*
X77865000Y-86342500D02*
X77865000Y-87347893D01*
X77100000Y-88112893D02*
X77100000Y-88170000D01*
X78865000Y-86342500D02*
X78865000Y-88085000D01*
X78865000Y-88085000D02*
X78950000Y-88170000D01*
X83250000Y-83428214D02*
X83250000Y-83580000D01*
X84475000Y-83270000D02*
X83560000Y-83270000D01*
X82476786Y-82655000D02*
X83250000Y-83428214D01*
X81052500Y-82655000D02*
X82476786Y-82655000D01*
X83560000Y-83270000D02*
X83250000Y-83580000D01*
X81052500Y-82155000D02*
X82845000Y-82155000D01*
X84475000Y-81670000D02*
X84140000Y-81670000D01*
X84140000Y-81670000D02*
X83250000Y-82560000D01*
X82845000Y-82155000D02*
X83250000Y-82560000D01*
X81650000Y-79470000D02*
X81930000Y-79190000D01*
X80850000Y-79470000D02*
X81650000Y-79470000D01*
X80365000Y-79955000D02*
X80850000Y-79470000D01*
X80365000Y-80467500D02*
X80365000Y-79955000D01*
X81930000Y-79190000D02*
X81930000Y-78870000D01*
X78865000Y-80467500D02*
X78865000Y-79712116D01*
X78865000Y-79712116D02*
X79687654Y-78889462D01*
X79687654Y-78889462D02*
X79687654Y-78300000D01*
D49*
X78850000Y-79020010D02*
X78700010Y-79170000D01*
X78850000Y-76732500D02*
X78850000Y-79020010D01*
D48*
X79832500Y-75750000D02*
X78850000Y-76732500D01*
X78365000Y-80467500D02*
X78365000Y-79505010D01*
X78365000Y-79505010D02*
X78700010Y-79170000D01*
X81250000Y-75750000D02*
X79832500Y-75750000D01*
X77865000Y-80467500D02*
X77989999Y-80342501D01*
X77989999Y-80342501D02*
X77989999Y-79059999D01*
D49*
X77350000Y-78420000D02*
X77350000Y-77564514D01*
D48*
X77989999Y-79059999D02*
X77350000Y-78420000D01*
D49*
X72952744Y-79170000D02*
X68250000Y-79170000D01*
X77350000Y-77564514D02*
X76285486Y-76500000D01*
X76285486Y-76500000D02*
X75622744Y-76500000D01*
X75622744Y-76500000D02*
X72952744Y-79170000D01*
D48*
X78115000Y-113347893D02*
X77350000Y-114112893D01*
D49*
X68245000Y-110315739D02*
X69745739Y-110315739D01*
X69745739Y-110315739D02*
X73600000Y-114170000D01*
D48*
X77350000Y-114112893D02*
X77350000Y-114170000D01*
X78115000Y-112342500D02*
X78115000Y-113347893D01*
D49*
X73600000Y-114170000D02*
X77350000Y-114170000D01*
D48*
X79115000Y-114085000D02*
X79200000Y-114170000D01*
X79115000Y-112342500D02*
X79115000Y-114085000D01*
X83500000Y-109428214D02*
X83500000Y-109580000D01*
X82726786Y-108655000D02*
X83500000Y-109428214D01*
X81302500Y-108655000D02*
X82726786Y-108655000D01*
X84725000Y-109270000D02*
X83810000Y-109270000D01*
X83810000Y-109270000D02*
X83500000Y-109580000D01*
X83095000Y-108155000D02*
X83500000Y-108560000D01*
X81302500Y-108155000D02*
X83095000Y-108155000D01*
X84390000Y-107670000D02*
X83500000Y-108560000D01*
X84725000Y-107670000D02*
X84390000Y-107670000D01*
X79650010Y-105170000D02*
X79850000Y-104970010D01*
X79600000Y-105170000D02*
X79650010Y-105170000D01*
X79850000Y-104970010D02*
X79850000Y-104670000D01*
X79115000Y-105712116D02*
X79600000Y-105227116D01*
X79600000Y-105227116D02*
X79600000Y-105170000D01*
X79115000Y-106467500D02*
X79115000Y-105712116D01*
X78115000Y-106467500D02*
X78239999Y-106342501D01*
D49*
X68245000Y-105275000D02*
X69350000Y-104170000D01*
D48*
X78239999Y-105059999D02*
X77600000Y-104420000D01*
D49*
X77600000Y-104420000D02*
X77350000Y-104170000D01*
D48*
X78239999Y-106342501D02*
X78239999Y-105059999D01*
D49*
X68245000Y-105315739D02*
X68245000Y-105275000D01*
X69350000Y-104170000D02*
X77350000Y-104170000D01*
D48*
X83540000Y-84789999D02*
X83409999Y-84920000D01*
X81715761Y-84655000D02*
X81052500Y-84655000D01*
X83540000Y-84470000D02*
X83355000Y-84655000D01*
X83540000Y-84470000D02*
X83540000Y-84789999D01*
X81980761Y-84920000D02*
X81715761Y-84655000D01*
X83409999Y-84920000D02*
X81980761Y-84920000D01*
X93500000Y-96000000D02*
X91600000Y-96000000D01*
X83790000Y-110470000D02*
X83605000Y-110655000D01*
X81965761Y-110655000D02*
X81302500Y-110655000D01*
X83790000Y-110470000D02*
X83790000Y-110789999D01*
X83790000Y-110789999D02*
X83659999Y-110920000D01*
X83659999Y-110920000D02*
X82230761Y-110920000D01*
X82230761Y-110920000D02*
X81965761Y-110655000D01*
X93500000Y-94500000D02*
X91500000Y-94500000D01*
X75740001Y-83155000D02*
X75395001Y-83500000D01*
X74910831Y-83500000D02*
X74373073Y-82962244D01*
X75395001Y-83500000D02*
X74910831Y-83500000D01*
X76177500Y-83155000D02*
X75740001Y-83155000D01*
X91500000Y-94500000D02*
X91400000Y-94400000D01*
X101600000Y-94200000D02*
X101600000Y-89000000D01*
X99400000Y-86800000D02*
X90100000Y-86800000D01*
X76052500Y-84280000D02*
X74672339Y-84280000D01*
X76177500Y-84155000D02*
X76052500Y-84280000D01*
X74672339Y-84280000D02*
X74547339Y-84155000D01*
X100300000Y-95500000D02*
X101600000Y-94200000D01*
X98500000Y-95500000D02*
X100300000Y-95500000D01*
X73276251Y-84155000D02*
X73179791Y-84058540D01*
X74547339Y-84155000D02*
X73276251Y-84155000D01*
X101600000Y-89000000D02*
X99400000Y-86800000D01*
X93500000Y-94000000D02*
X92178741Y-94000000D01*
X92178741Y-94000000D02*
X92107245Y-93928504D01*
X74385758Y-82155000D02*
X74186868Y-81956110D01*
X76177500Y-82155000D02*
X74385758Y-82155000D01*
X93500000Y-95000000D02*
X90900000Y-95000000D01*
X76177500Y-82655000D02*
X75326048Y-82655000D01*
X75326048Y-82655000D02*
X75155559Y-82825489D01*
X90900000Y-95000000D02*
X90800000Y-94900000D01*
X74542313Y-83655000D02*
X73936423Y-83655000D01*
X75545001Y-83850000D02*
X74737314Y-83850000D01*
X75740001Y-83655000D02*
X75545001Y-83850000D01*
X76177500Y-83655000D02*
X75740001Y-83655000D01*
X94750000Y-96750000D02*
X94750000Y-97650000D01*
X73936423Y-83655000D02*
X73602548Y-83321125D01*
X94750000Y-97650000D02*
X94500000Y-97900000D01*
X74737314Y-83850000D02*
X74542313Y-83655000D01*
X74700000Y-81262246D02*
X74461770Y-81024016D01*
X76177500Y-81655000D02*
X75092754Y-81655000D01*
X92500000Y-93500000D02*
X91900000Y-92900000D01*
X74700000Y-81500000D02*
X74700000Y-81262246D01*
X91900000Y-92900000D02*
X91900000Y-92500000D01*
X75092754Y-81655000D02*
X74461770Y-81024016D01*
X93500000Y-93500000D02*
X92500000Y-93500000D01*
X81302500Y-110155000D02*
X82385000Y-110155000D01*
X81052500Y-84155000D02*
X82135000Y-84155000D01*
X82135000Y-84155000D02*
X82250000Y-84270000D01*
X82385000Y-110155000D02*
X82500000Y-110270000D01*
G04 #@! TA.AperFunction,Conductor*
G36*
X86356061Y-72170597D02*
G01*
X86532941Y-72188018D01*
X86556769Y-72192757D01*
X86721001Y-72242576D01*
X86743453Y-72251877D01*
X86894798Y-72332772D01*
X86915010Y-72346277D01*
X87047666Y-72455145D01*
X87064854Y-72472333D01*
X87173722Y-72604989D01*
X87187227Y-72625201D01*
X87268121Y-72776543D01*
X87277424Y-72799001D01*
X87327240Y-72963224D01*
X87331982Y-72987065D01*
X87349403Y-73163938D01*
X87350000Y-73176092D01*
X87350000Y-93663907D01*
X87349403Y-93676061D01*
X87331982Y-93852934D01*
X87327240Y-93876775D01*
X87277424Y-94040998D01*
X87268121Y-94063456D01*
X87187227Y-94214798D01*
X87173722Y-94235010D01*
X87064854Y-94367666D01*
X87047666Y-94384854D01*
X86915010Y-94493722D01*
X86894798Y-94507227D01*
X86743456Y-94588121D01*
X86720998Y-94597424D01*
X86556775Y-94647240D01*
X86532934Y-94651982D01*
X86356061Y-94669403D01*
X86343907Y-94670000D01*
X73356093Y-94670000D01*
X73343939Y-94669403D01*
X73167065Y-94651982D01*
X73143224Y-94647240D01*
X72979001Y-94597424D01*
X72956543Y-94588121D01*
X72805201Y-94507227D01*
X72784989Y-94493722D01*
X72652333Y-94384854D01*
X72635145Y-94367666D01*
X72526277Y-94235010D01*
X72512772Y-94214798D01*
X72431878Y-94063456D01*
X72422575Y-94040998D01*
X72372757Y-93876769D01*
X72368018Y-93852941D01*
X72350597Y-93676061D01*
X72350000Y-93663907D01*
X72350000Y-90006625D01*
X75189500Y-90006625D01*
X75189500Y-90373365D01*
X75189502Y-90373388D01*
X75192317Y-90397659D01*
X75192318Y-90397662D01*
X75236186Y-90497015D01*
X75236187Y-90497016D01*
X75312984Y-90573813D01*
X75412338Y-90617682D01*
X75436627Y-90620500D01*
X75863372Y-90620499D01*
X75887662Y-90617682D01*
X75987016Y-90573813D01*
X76063813Y-90497016D01*
X76063816Y-90497008D01*
X76065586Y-90494426D01*
X76070034Y-90490794D01*
X76071938Y-90488891D01*
X76072130Y-90489083D01*
X76119711Y-90450242D01*
X76167888Y-90440500D01*
X77317326Y-90440500D01*
X77317328Y-90440500D01*
X77409397Y-90402364D01*
X77854941Y-89956817D01*
X77916264Y-89923333D01*
X77942622Y-89920499D01*
X79356517Y-89920499D01*
X79356518Y-89920499D01*
X79450304Y-89905646D01*
X79563342Y-89848050D01*
X79653050Y-89758342D01*
X79710646Y-89645304D01*
X79710646Y-89645302D01*
X79710647Y-89645301D01*
X79725499Y-89551524D01*
X79725500Y-89551519D01*
X79725499Y-88863482D01*
X79710646Y-88769696D01*
X79653050Y-88656658D01*
X79653046Y-88656654D01*
X79653045Y-88656652D01*
X79563347Y-88566954D01*
X79563344Y-88566952D01*
X79563342Y-88566950D01*
X79486517Y-88527805D01*
X79450301Y-88509352D01*
X79356524Y-88494500D01*
X79356519Y-88494500D01*
X78774500Y-88494500D01*
X78707461Y-88474815D01*
X78661706Y-88422011D01*
X78650500Y-88370500D01*
X78650500Y-87617275D01*
X78650500Y-87617273D01*
X78623207Y-87515413D01*
X78623206Y-87515411D01*
X78621103Y-87507562D01*
X78622472Y-87507195D01*
X78615500Y-87472142D01*
X78615500Y-87048571D01*
X78635185Y-86981532D01*
X78687989Y-86935777D01*
X78757147Y-86925833D01*
X78763692Y-86926954D01*
X78767145Y-86927640D01*
X78781518Y-86930499D01*
X78781519Y-86930500D01*
X78781520Y-86930500D01*
X78948481Y-86930500D01*
X78948481Y-86930499D01*
X78963580Y-86927496D01*
X78966308Y-86926954D01*
X78987292Y-86928831D01*
X79008147Y-86925833D01*
X79021394Y-86931883D01*
X79035900Y-86933181D01*
X79052537Y-86946105D01*
X79071703Y-86954858D01*
X79079577Y-86967110D01*
X79091077Y-86976044D01*
X79098085Y-86995910D01*
X79109477Y-87013636D01*
X79113011Y-87038219D01*
X79114322Y-87041934D01*
X79114500Y-87048571D01*
X79114500Y-87216875D01*
X79097887Y-87278875D01*
X79076794Y-87315408D01*
X79049500Y-87417273D01*
X79049500Y-87522726D01*
X79076793Y-87624589D01*
X79103156Y-87670250D01*
X79129520Y-87715913D01*
X80524087Y-89110480D01*
X80615412Y-89163207D01*
X80622453Y-89167272D01*
X80622187Y-89167731D01*
X80631371Y-89172707D01*
X80632980Y-89173809D01*
X80632984Y-89173813D01*
X80732338Y-89217682D01*
X80756627Y-89220500D01*
X81183372Y-89220499D01*
X81207662Y-89217682D01*
X81245293Y-89201065D01*
X81255009Y-89199016D01*
X81260445Y-89195523D01*
X81295380Y-89190500D01*
X81425500Y-89190500D01*
X81492539Y-89210185D01*
X81538294Y-89262989D01*
X81549500Y-89314499D01*
X81549500Y-89551517D01*
X81560292Y-89619657D01*
X81564354Y-89645304D01*
X81621950Y-89758342D01*
X81621952Y-89758344D01*
X81621954Y-89758347D01*
X81711652Y-89848045D01*
X81711654Y-89848046D01*
X81711658Y-89848050D01*
X81824694Y-89905645D01*
X81824698Y-89905647D01*
X81918475Y-89920499D01*
X81918481Y-89920500D01*
X84181518Y-89920499D01*
X84275304Y-89905646D01*
X84388342Y-89848050D01*
X84478050Y-89758342D01*
X84535646Y-89645304D01*
X84535646Y-89645302D01*
X84535647Y-89645301D01*
X84550499Y-89551524D01*
X84550500Y-89551519D01*
X84550499Y-88838482D01*
X84535646Y-88744696D01*
X84478050Y-88631658D01*
X84478046Y-88631654D01*
X84478045Y-88631652D01*
X84388347Y-88541954D01*
X84388344Y-88541952D01*
X84388342Y-88541950D01*
X84295217Y-88494500D01*
X84275301Y-88484352D01*
X84181524Y-88469500D01*
X84181519Y-88469500D01*
X82924105Y-88469500D01*
X82862105Y-88452887D01*
X82799590Y-88416794D01*
X82799589Y-88416793D01*
X82799588Y-88416793D01*
X82697727Y-88389500D01*
X82697726Y-88389500D01*
X81295380Y-88389500D01*
X81245293Y-88378934D01*
X81207663Y-88362318D01*
X81183374Y-88359500D01*
X81183373Y-88359500D01*
X80957255Y-88359500D01*
X80890216Y-88339815D01*
X80869574Y-88323181D01*
X79690166Y-87143773D01*
X79692174Y-87141764D01*
X79659085Y-87096455D01*
X79654926Y-87026709D01*
X79689135Y-86965787D01*
X79750850Y-86933030D01*
X79775772Y-86930500D01*
X79948481Y-86930500D01*
X79948482Y-86930499D01*
X80010609Y-86918142D01*
X80081065Y-86871065D01*
X80128142Y-86800609D01*
X80140500Y-86738480D01*
X80140500Y-85946520D01*
X80140169Y-85944856D01*
X80128142Y-85884390D01*
X80109285Y-85856169D01*
X80081065Y-85813935D01*
X80036535Y-85784181D01*
X80010609Y-85766857D01*
X79948484Y-85754500D01*
X79948480Y-85754500D01*
X79781520Y-85754500D01*
X79781515Y-85754500D01*
X79719390Y-85766857D01*
X79683891Y-85790578D01*
X79617214Y-85811456D01*
X79549834Y-85792972D01*
X79546109Y-85790578D01*
X79510609Y-85766857D01*
X79448484Y-85754500D01*
X79448480Y-85754500D01*
X79281520Y-85754500D01*
X79281515Y-85754500D01*
X79219390Y-85766857D01*
X79183891Y-85790578D01*
X79117214Y-85811456D01*
X79049834Y-85792972D01*
X79046109Y-85790578D01*
X79010609Y-85766857D01*
X78948484Y-85754500D01*
X78948480Y-85754500D01*
X78781520Y-85754500D01*
X78781515Y-85754500D01*
X78719390Y-85766857D01*
X78683891Y-85790578D01*
X78617214Y-85811456D01*
X78549834Y-85792972D01*
X78546109Y-85790578D01*
X78510609Y-85766857D01*
X78448484Y-85754500D01*
X78448480Y-85754500D01*
X78281520Y-85754500D01*
X78281515Y-85754500D01*
X78219390Y-85766857D01*
X78183891Y-85790578D01*
X78117214Y-85811456D01*
X78049834Y-85792972D01*
X78046109Y-85790578D01*
X78010609Y-85766857D01*
X77948484Y-85754500D01*
X77948480Y-85754500D01*
X77781520Y-85754500D01*
X77781515Y-85754500D01*
X77719390Y-85766857D01*
X77648935Y-85813935D01*
X77601857Y-85884390D01*
X77589500Y-85946515D01*
X77589500Y-86738484D01*
X77601857Y-86800609D01*
X77615499Y-86821025D01*
X77648935Y-86871065D01*
X77691169Y-86899285D01*
X77719390Y-86918142D01*
X77781515Y-86930499D01*
X77781519Y-86930500D01*
X77781520Y-86930500D01*
X77948481Y-86930500D01*
X77948481Y-86930499D01*
X77963580Y-86927496D01*
X77966308Y-86926954D01*
X77987292Y-86928831D01*
X78008147Y-86925833D01*
X78021394Y-86931883D01*
X78035900Y-86933181D01*
X78052537Y-86946105D01*
X78071703Y-86954858D01*
X78079577Y-86967110D01*
X78091077Y-86976044D01*
X78098085Y-86995910D01*
X78109477Y-87013636D01*
X78113011Y-87038219D01*
X78114322Y-87041934D01*
X78114500Y-87048571D01*
X78114500Y-87214182D01*
X78094815Y-87281221D01*
X78052503Y-87321567D01*
X78004087Y-87349520D01*
X78004084Y-87349522D01*
X77929521Y-87424085D01*
X77876794Y-87515410D01*
X77876793Y-87515413D01*
X77849500Y-87617273D01*
X77849500Y-88370500D01*
X77829815Y-88437539D01*
X77777011Y-88483294D01*
X77725500Y-88494500D01*
X77143482Y-88494500D01*
X77062519Y-88507323D01*
X77049696Y-88509354D01*
X76936658Y-88566950D01*
X76936657Y-88566951D01*
X76936652Y-88566954D01*
X76846954Y-88656652D01*
X76846951Y-88656657D01*
X76789352Y-88769698D01*
X76774500Y-88863475D01*
X76774500Y-89551517D01*
X76785292Y-89619657D01*
X76789354Y-89645304D01*
X76846950Y-89758342D01*
X76847390Y-89759205D01*
X76860286Y-89827875D01*
X76834009Y-89892615D01*
X76776903Y-89932872D01*
X76736905Y-89939500D01*
X76167888Y-89939500D01*
X76100849Y-89919815D01*
X76065586Y-89885574D01*
X76063815Y-89882989D01*
X76063813Y-89882984D01*
X75987016Y-89806187D01*
X75987014Y-89806186D01*
X75887663Y-89762318D01*
X75863373Y-89759500D01*
X75436634Y-89759500D01*
X75436611Y-89759502D01*
X75412340Y-89762317D01*
X75412337Y-89762318D01*
X75312984Y-89806186D01*
X75236187Y-89882983D01*
X75192318Y-89982335D01*
X75192318Y-89982337D01*
X75189500Y-90006625D01*
X72350000Y-90006625D01*
X72350000Y-84526625D01*
X73589500Y-84526625D01*
X73589500Y-84893365D01*
X73589502Y-84893388D01*
X73592317Y-84917659D01*
X73592318Y-84917662D01*
X73636186Y-85017015D01*
X73636187Y-85017016D01*
X73712984Y-85093813D01*
X73812338Y-85137682D01*
X73836627Y-85140500D01*
X74263372Y-85140499D01*
X74287662Y-85137682D01*
X74387016Y-85093813D01*
X74463813Y-85017016D01*
X74480416Y-84979414D01*
X74492412Y-84965211D01*
X74500137Y-84948297D01*
X74514491Y-84939071D01*
X74525502Y-84926037D01*
X74543274Y-84920574D01*
X74558915Y-84910523D01*
X74590976Y-84905913D01*
X74592288Y-84905510D01*
X74593850Y-84905500D01*
X74675500Y-84905500D01*
X74742539Y-84925185D01*
X74788294Y-84977989D01*
X74799500Y-85029500D01*
X74799500Y-85420172D01*
X74799500Y-85519828D01*
X74837636Y-85611897D01*
X75022635Y-85796895D01*
X75022636Y-85796897D01*
X75093103Y-85867364D01*
X75131240Y-85883160D01*
X75185173Y-85905501D01*
X75185174Y-85905501D01*
X75299262Y-85905501D01*
X75299270Y-85905500D01*
X75664206Y-85905500D01*
X75711660Y-85914940D01*
X75719391Y-85918142D01*
X75781515Y-85930499D01*
X75781519Y-85930500D01*
X76465500Y-85930500D01*
X76532539Y-85950185D01*
X76578294Y-86002989D01*
X76589500Y-86054500D01*
X76589500Y-86738484D01*
X76601857Y-86800609D01*
X76615499Y-86821025D01*
X76648935Y-86871065D01*
X76691169Y-86899285D01*
X76719390Y-86918142D01*
X76781515Y-86930499D01*
X76781519Y-86930500D01*
X76781520Y-86930500D01*
X76948481Y-86930500D01*
X76948482Y-86930499D01*
X77010609Y-86918142D01*
X77081065Y-86871065D01*
X77128142Y-86800609D01*
X77140500Y-86738480D01*
X77140500Y-85946520D01*
X77140169Y-85944856D01*
X77128142Y-85884390D01*
X77109285Y-85856169D01*
X77081065Y-85813935D01*
X77036535Y-85784181D01*
X77010609Y-85766857D01*
X76948484Y-85754500D01*
X76948480Y-85754500D01*
X76889500Y-85754500D01*
X76822461Y-85734815D01*
X76776706Y-85682011D01*
X76769278Y-85660876D01*
X76765500Y-85645923D01*
X76765500Y-85571520D01*
X76753142Y-85509391D01*
X76717539Y-85456107D01*
X76712301Y-85435376D01*
X76712850Y-85420971D01*
X76708543Y-85407216D01*
X76714154Y-85386758D01*
X76714963Y-85365557D01*
X76723212Y-85353736D01*
X76727026Y-85339835D01*
X76729394Y-85336149D01*
X76753142Y-85300609D01*
X76765500Y-85238480D01*
X76765500Y-85071520D01*
X76753142Y-85009391D01*
X76729421Y-84973889D01*
X76708543Y-84907216D01*
X76727026Y-84839835D01*
X76729394Y-84836149D01*
X76753142Y-84800609D01*
X76765500Y-84738480D01*
X76765500Y-84571520D01*
X76753142Y-84509391D01*
X76729421Y-84473889D01*
X76708543Y-84407216D01*
X76727026Y-84339835D01*
X76729394Y-84336149D01*
X76753142Y-84300609D01*
X76765500Y-84238480D01*
X76765500Y-84071520D01*
X76753142Y-84009391D01*
X76729421Y-83973889D01*
X76708543Y-83907216D01*
X76727026Y-83839835D01*
X76729394Y-83836149D01*
X76753142Y-83800609D01*
X76765500Y-83738480D01*
X76765500Y-83571520D01*
X76753142Y-83509391D01*
X76729421Y-83473889D01*
X76708543Y-83407216D01*
X76727026Y-83339835D01*
X76729394Y-83336149D01*
X76753142Y-83300609D01*
X76765500Y-83238480D01*
X76765500Y-83071520D01*
X76753142Y-83009391D01*
X76729421Y-82973889D01*
X76708543Y-82907216D01*
X76727026Y-82839835D01*
X76729394Y-82836149D01*
X76753142Y-82800609D01*
X76765500Y-82738480D01*
X76765500Y-82571520D01*
X76753142Y-82509391D01*
X76729421Y-82473889D01*
X76708543Y-82407216D01*
X76727026Y-82339835D01*
X76729394Y-82336149D01*
X76753142Y-82300609D01*
X76765500Y-82238480D01*
X76765500Y-82071520D01*
X76753142Y-82009391D01*
X76729421Y-81973889D01*
X76708543Y-81907216D01*
X76727026Y-81839835D01*
X76729394Y-81836149D01*
X76753142Y-81800609D01*
X76765500Y-81738480D01*
X76765500Y-81571520D01*
X76753142Y-81509391D01*
X76753142Y-81509390D01*
X76721702Y-81462338D01*
X76706065Y-81438935D01*
X76676978Y-81419500D01*
X76635609Y-81391857D01*
X76573484Y-81379500D01*
X76573480Y-81379500D01*
X75781520Y-81379500D01*
X75781515Y-81379500D01*
X75719390Y-81391857D01*
X75648935Y-81438935D01*
X75601857Y-81509390D01*
X75589500Y-81571515D01*
X75589500Y-81738484D01*
X75601857Y-81800609D01*
X75625578Y-81836109D01*
X75646456Y-81902786D01*
X75627972Y-81970166D01*
X75625578Y-81973891D01*
X75601857Y-82009390D01*
X75589500Y-82071515D01*
X75589500Y-82238484D01*
X75601857Y-82300609D01*
X75625578Y-82336109D01*
X75646456Y-82402786D01*
X75627972Y-82470166D01*
X75625578Y-82473891D01*
X75601857Y-82509390D01*
X75589500Y-82571515D01*
X75589500Y-82738484D01*
X75601857Y-82800609D01*
X75625578Y-82836109D01*
X75646456Y-82902786D01*
X75627972Y-82970166D01*
X75625578Y-82973891D01*
X75601857Y-83009390D01*
X75589500Y-83071515D01*
X75589500Y-83238484D01*
X75601857Y-83300609D01*
X75625578Y-83336109D01*
X75646456Y-83402786D01*
X75627972Y-83470166D01*
X75625578Y-83473891D01*
X75601857Y-83509390D01*
X75589500Y-83571515D01*
X75589500Y-83738484D01*
X75601857Y-83800609D01*
X75625578Y-83836109D01*
X75646456Y-83902786D01*
X75627972Y-83970166D01*
X75625578Y-83973891D01*
X75601857Y-84009390D01*
X75589500Y-84071515D01*
X75589500Y-84238481D01*
X75593046Y-84256308D01*
X75586819Y-84325900D01*
X75543956Y-84381077D01*
X75478066Y-84404322D01*
X75471429Y-84404500D01*
X74516692Y-84404500D01*
X74449653Y-84384815D01*
X74429012Y-84368182D01*
X74387016Y-84326187D01*
X74287663Y-84282318D01*
X74263373Y-84279500D01*
X73836634Y-84279500D01*
X73836611Y-84279502D01*
X73812340Y-84282317D01*
X73812337Y-84282318D01*
X73712984Y-84326186D01*
X73636187Y-84402983D01*
X73592318Y-84502335D01*
X73592318Y-84502337D01*
X73589500Y-84526625D01*
X72350000Y-84526625D01*
X72350000Y-76388475D01*
X77374500Y-76388475D01*
X77374500Y-77076517D01*
X77385292Y-77144657D01*
X77389354Y-77170304D01*
X77446950Y-77283342D01*
X77446952Y-77283344D01*
X77446954Y-77283347D01*
X77536652Y-77373045D01*
X77536654Y-77373046D01*
X77536658Y-77373050D01*
X77649694Y-77430645D01*
X77649698Y-77430647D01*
X77743475Y-77445499D01*
X77743481Y-77445500D01*
X78325500Y-77445499D01*
X78392539Y-77465183D01*
X78438294Y-77517987D01*
X78449500Y-77569499D01*
X78449500Y-78452745D01*
X78429815Y-78519784D01*
X78413181Y-78540426D01*
X78029522Y-78924084D01*
X78029520Y-78924087D01*
X77976793Y-79015410D01*
X77949500Y-79117273D01*
X77949500Y-79222726D01*
X77976793Y-79324589D01*
X77981709Y-79333103D01*
X78029520Y-79415913D01*
X78029522Y-79415915D01*
X78078181Y-79464574D01*
X78092884Y-79491501D01*
X78109477Y-79517320D01*
X78110368Y-79523520D01*
X78111666Y-79525897D01*
X78114500Y-79552255D01*
X78114500Y-79761428D01*
X78094815Y-79828467D01*
X78042011Y-79874222D01*
X77972853Y-79884166D01*
X77966313Y-79883046D01*
X77948484Y-79879500D01*
X77948480Y-79879500D01*
X77781520Y-79879500D01*
X77781515Y-79879500D01*
X77719390Y-79891857D01*
X77648935Y-79938935D01*
X77601857Y-80009390D01*
X77589500Y-80071515D01*
X77589500Y-80863484D01*
X77601857Y-80925609D01*
X77630078Y-80967843D01*
X77648935Y-80996065D01*
X77691169Y-81024285D01*
X77719390Y-81043142D01*
X77781515Y-81055499D01*
X77781519Y-81055500D01*
X77781520Y-81055500D01*
X77948481Y-81055500D01*
X77948482Y-81055499D01*
X78010609Y-81043142D01*
X78046110Y-81019421D01*
X78112784Y-80998543D01*
X78180165Y-81017026D01*
X78183850Y-81019394D01*
X78219391Y-81043142D01*
X78261521Y-81051522D01*
X78281515Y-81055499D01*
X78281519Y-81055500D01*
X78281520Y-81055500D01*
X78448481Y-81055500D01*
X78448482Y-81055499D01*
X78510609Y-81043142D01*
X78546110Y-81019421D01*
X78612784Y-80998543D01*
X78680165Y-81017026D01*
X78683850Y-81019394D01*
X78719391Y-81043142D01*
X78761521Y-81051522D01*
X78781515Y-81055499D01*
X78781519Y-81055500D01*
X78781520Y-81055500D01*
X78948481Y-81055500D01*
X78948482Y-81055499D01*
X79010609Y-81043142D01*
X79046110Y-81019421D01*
X79112784Y-80998543D01*
X79180165Y-81017026D01*
X79183850Y-81019394D01*
X79219391Y-81043142D01*
X79261521Y-81051522D01*
X79281515Y-81055499D01*
X79281519Y-81055500D01*
X79281520Y-81055500D01*
X79448481Y-81055500D01*
X79448482Y-81055499D01*
X79510609Y-81043142D01*
X79546110Y-81019421D01*
X79612784Y-80998543D01*
X79680165Y-81017026D01*
X79683850Y-81019394D01*
X79719391Y-81043142D01*
X79761521Y-81051522D01*
X79781515Y-81055499D01*
X79781519Y-81055500D01*
X79781520Y-81055500D01*
X79948481Y-81055500D01*
X79948482Y-81055499D01*
X80010609Y-81043142D01*
X80046110Y-81019421D01*
X80112784Y-80998543D01*
X80145376Y-81002301D01*
X80166107Y-81007539D01*
X80219391Y-81043142D01*
X80281520Y-81055500D01*
X80355924Y-81055500D01*
X80370876Y-81059278D01*
X80388219Y-81069512D01*
X80407539Y-81075185D01*
X80417693Y-81086904D01*
X80431051Y-81094786D01*
X80440108Y-81112772D01*
X80453294Y-81127989D01*
X80457494Y-81147296D01*
X80462476Y-81157189D01*
X80461554Y-81165960D01*
X80464500Y-81179500D01*
X80464500Y-81238484D01*
X80476857Y-81300609D01*
X80500578Y-81336109D01*
X80521456Y-81402786D01*
X80502972Y-81470166D01*
X80500578Y-81473891D01*
X80476857Y-81509390D01*
X80464500Y-81571515D01*
X80464500Y-81738484D01*
X80476857Y-81800609D01*
X80500578Y-81836109D01*
X80521456Y-81902786D01*
X80502972Y-81970166D01*
X80500578Y-81973891D01*
X80476857Y-82009390D01*
X80464500Y-82071515D01*
X80464500Y-82238484D01*
X80476857Y-82300609D01*
X80500578Y-82336109D01*
X80521456Y-82402786D01*
X80502972Y-82470166D01*
X80500578Y-82473891D01*
X80476857Y-82509390D01*
X80464500Y-82571515D01*
X80464500Y-82738484D01*
X80476857Y-82800609D01*
X80500577Y-82836107D01*
X80523935Y-82871065D01*
X80566169Y-82899285D01*
X80594390Y-82918142D01*
X80656515Y-82930499D01*
X80656519Y-82930500D01*
X80656520Y-82930500D01*
X81448481Y-82930500D01*
X81448482Y-82930499D01*
X81510609Y-82918142D01*
X81510610Y-82918140D01*
X81518340Y-82914940D01*
X81565794Y-82905500D01*
X82321663Y-82905500D01*
X82388702Y-82925185D01*
X82409344Y-82941819D01*
X82746494Y-83278968D01*
X82779979Y-83340291D01*
X82781987Y-83380940D01*
X82779500Y-83402373D01*
X82779500Y-83757615D01*
X82779502Y-83757638D01*
X82782268Y-83781494D01*
X82810180Y-83844708D01*
X82825384Y-83879141D01*
X82900859Y-83954616D01*
X82900862Y-83954617D01*
X82900863Y-83954618D01*
X82998499Y-83997729D01*
X82998500Y-83997729D01*
X82998502Y-83997730D01*
X83022377Y-84000500D01*
X83028216Y-84000499D01*
X83095254Y-84020176D01*
X83141015Y-84072976D01*
X83150966Y-84142133D01*
X83141660Y-84174585D01*
X83122271Y-84218496D01*
X83122270Y-84218498D01*
X83119500Y-84242375D01*
X83119500Y-84544293D01*
X83117872Y-84552472D01*
X83118789Y-84557552D01*
X83110060Y-84591749D01*
X83109560Y-84592956D01*
X83065717Y-84647358D01*
X82999422Y-84669421D01*
X82995000Y-84669500D01*
X82754315Y-84669500D01*
X82687276Y-84649815D01*
X82641521Y-84597011D01*
X82631577Y-84527853D01*
X82646928Y-84483499D01*
X82652475Y-84473891D01*
X82669799Y-84443886D01*
X82700500Y-84329309D01*
X82700500Y-84210691D01*
X82669799Y-84096114D01*
X82669797Y-84096111D01*
X82669797Y-84096109D01*
X82669796Y-84096108D01*
X82632774Y-84031986D01*
X82610489Y-83993387D01*
X82526613Y-83909511D01*
X82423886Y-83850201D01*
X82309309Y-83819500D01*
X82190691Y-83819500D01*
X82076114Y-83850201D01*
X82076112Y-83850201D01*
X82076112Y-83850202D01*
X82056671Y-83861426D01*
X82010839Y-83887887D01*
X81995351Y-83892037D01*
X81983775Y-83899477D01*
X81948840Y-83904500D01*
X81758571Y-83904500D01*
X81691532Y-83884815D01*
X81645777Y-83832011D01*
X81635833Y-83762853D01*
X81636954Y-83756308D01*
X81639956Y-83741214D01*
X81640500Y-83738480D01*
X81640500Y-83571520D01*
X81628142Y-83509391D01*
X81628142Y-83509390D01*
X81601933Y-83470166D01*
X81581065Y-83438935D01*
X81552843Y-83420078D01*
X81510609Y-83391857D01*
X81448484Y-83379500D01*
X81448480Y-83379500D01*
X80656520Y-83379500D01*
X80656515Y-83379500D01*
X80594390Y-83391857D01*
X80523935Y-83438935D01*
X80476857Y-83509390D01*
X80464500Y-83571515D01*
X80464500Y-83738484D01*
X80476857Y-83800609D01*
X80500578Y-83836109D01*
X80521456Y-83902786D01*
X80502972Y-83970166D01*
X80500578Y-83973891D01*
X80476857Y-84009390D01*
X80464500Y-84071515D01*
X80464500Y-84238484D01*
X80476857Y-84300609D01*
X80500578Y-84336109D01*
X80521456Y-84402786D01*
X80502972Y-84470166D01*
X80500578Y-84473891D01*
X80476857Y-84509390D01*
X80464500Y-84571515D01*
X80464500Y-84738484D01*
X80476857Y-84800609D01*
X80500578Y-84836109D01*
X80521456Y-84902786D01*
X80502972Y-84970166D01*
X80500578Y-84973891D01*
X80476857Y-85009390D01*
X80464500Y-85071515D01*
X80464500Y-85238484D01*
X80476857Y-85300609D01*
X80497840Y-85332011D01*
X80523935Y-85371065D01*
X80566169Y-85399285D01*
X80594390Y-85418142D01*
X80656515Y-85430499D01*
X80656519Y-85430500D01*
X80656520Y-85430500D01*
X81448481Y-85430500D01*
X81448482Y-85430499D01*
X81510609Y-85418142D01*
X81581065Y-85371065D01*
X81628142Y-85300609D01*
X81640500Y-85238480D01*
X81640500Y-85231809D01*
X81660185Y-85164770D01*
X81712989Y-85119015D01*
X81782147Y-85109071D01*
X81817722Y-85119811D01*
X81834088Y-85127588D01*
X81838864Y-85132364D01*
X81877001Y-85148160D01*
X81930934Y-85170501D01*
X81930935Y-85170501D01*
X82045023Y-85170501D01*
X82045031Y-85170500D01*
X83459825Y-85170500D01*
X83459827Y-85170500D01*
X83551896Y-85132364D01*
X83734121Y-84950137D01*
X83771706Y-84924390D01*
X83839141Y-84894616D01*
X83914616Y-84819141D01*
X83936566Y-84769430D01*
X83981651Y-84716054D01*
X84048438Y-84695526D01*
X84115720Y-84714364D01*
X84162136Y-84766587D01*
X84163434Y-84769430D01*
X84185384Y-84819141D01*
X84260859Y-84894616D01*
X84260862Y-84894617D01*
X84260863Y-84894618D01*
X84358499Y-84937729D01*
X84358500Y-84937729D01*
X84358502Y-84937730D01*
X84382377Y-84940500D01*
X84737622Y-84940499D01*
X84761498Y-84937730D01*
X84859135Y-84894619D01*
X84859136Y-84894618D01*
X84859141Y-84894616D01*
X84934616Y-84819141D01*
X84977730Y-84721498D01*
X84980500Y-84697623D01*
X84980499Y-84242378D01*
X84977730Y-84218502D01*
X84977730Y-84218501D01*
X84934619Y-84120864D01*
X84934617Y-84120861D01*
X84934616Y-84120859D01*
X84859141Y-84045384D01*
X84857547Y-84043790D01*
X84824062Y-83982467D01*
X84829046Y-83912775D01*
X84870918Y-83856842D01*
X84890769Y-83844708D01*
X84900737Y-83839835D01*
X84921211Y-83829826D01*
X85009826Y-83741211D01*
X85009827Y-83741210D01*
X85036759Y-83686118D01*
X85064866Y-83628625D01*
X85075500Y-83555636D01*
X85075500Y-82984364D01*
X85064866Y-82911375D01*
X85045159Y-82871064D01*
X85009827Y-82798789D01*
X84921210Y-82710172D01*
X84808628Y-82655135D01*
X84808626Y-82655134D01*
X84808625Y-82655134D01*
X84735636Y-82644500D01*
X84214364Y-82644500D01*
X84141375Y-82655134D01*
X84141373Y-82655134D01*
X84141371Y-82655135D01*
X84028789Y-82710172D01*
X84028787Y-82710174D01*
X83932908Y-82806054D01*
X83930227Y-82803373D01*
X83920168Y-82811251D01*
X83896010Y-82832185D01*
X83892860Y-82832637D01*
X83890354Y-82834601D01*
X83858504Y-82837577D01*
X83826852Y-82842129D01*
X83823956Y-82840806D01*
X83820787Y-82841103D01*
X83792387Y-82826389D01*
X83763296Y-82813104D01*
X83761575Y-82810426D01*
X83758749Y-82808962D01*
X83742814Y-82781233D01*
X83725522Y-82754326D01*
X83724911Y-82750080D01*
X83723936Y-82748383D01*
X83720499Y-82719398D01*
X83720499Y-82495121D01*
X83740184Y-82428083D01*
X83756809Y-82407451D01*
X83902815Y-82261444D01*
X83964135Y-82227963D01*
X84033827Y-82232947D01*
X84044951Y-82237727D01*
X84141375Y-82284866D01*
X84214364Y-82295500D01*
X84214370Y-82295500D01*
X84735630Y-82295500D01*
X84735636Y-82295500D01*
X84808625Y-82284866D01*
X84866118Y-82256759D01*
X84921210Y-82229827D01*
X85009827Y-82141210D01*
X85043898Y-82071515D01*
X85064866Y-82028625D01*
X85075500Y-81955636D01*
X85075500Y-81384364D01*
X85064866Y-81311375D01*
X85059603Y-81300609D01*
X85009827Y-81198789D01*
X84921210Y-81110172D01*
X84808628Y-81055135D01*
X84808626Y-81055134D01*
X84808625Y-81055134D01*
X84735636Y-81044500D01*
X84214364Y-81044500D01*
X84141375Y-81055134D01*
X84141373Y-81055134D01*
X84141371Y-81055135D01*
X84028789Y-81110172D01*
X83940172Y-81198789D01*
X83885134Y-81311372D01*
X83882291Y-81320575D01*
X83879734Y-81319785D01*
X83856698Y-81369965D01*
X83797845Y-81407623D01*
X83727975Y-81407485D01*
X83674819Y-81375608D01*
X83664976Y-81365618D01*
X83663813Y-81362984D01*
X83587016Y-81286187D01*
X83586473Y-81285947D01*
X83577688Y-81277031D01*
X83566612Y-81256387D01*
X83551788Y-81238251D01*
X83550404Y-81226175D01*
X83544657Y-81215462D01*
X83546501Y-81192106D01*
X83543835Y-81168835D01*
X83549200Y-81157927D01*
X83550157Y-81145809D01*
X83564333Y-81127160D01*
X83574673Y-81106139D01*
X83579183Y-81102230D01*
X83578891Y-81101938D01*
X83611317Y-81069512D01*
X83663813Y-81017016D01*
X83707682Y-80917662D01*
X83710500Y-80893373D01*
X83710499Y-80526628D01*
X83707682Y-80502338D01*
X83663813Y-80402984D01*
X83587016Y-80326187D01*
X83587014Y-80326186D01*
X83487663Y-80282318D01*
X83463373Y-80279500D01*
X83036634Y-80279500D01*
X83036611Y-80279502D01*
X83012340Y-80282317D01*
X83012337Y-80282318D01*
X82912984Y-80326186D01*
X82836187Y-80402983D01*
X82792318Y-80502335D01*
X82792318Y-80502337D01*
X82789500Y-80526625D01*
X82789500Y-80764875D01*
X82780856Y-80794312D01*
X82774334Y-80824298D01*
X82770577Y-80829315D01*
X82769815Y-80831914D01*
X82753184Y-80852553D01*
X82737560Y-80868178D01*
X82676238Y-80901665D01*
X82649876Y-80904500D01*
X81565794Y-80904500D01*
X81518340Y-80895060D01*
X81510608Y-80891857D01*
X81448484Y-80879500D01*
X81448480Y-80879500D01*
X80764500Y-80879500D01*
X80697461Y-80859815D01*
X80651706Y-80807011D01*
X80640500Y-80755500D01*
X80640500Y-80085122D01*
X80660185Y-80018083D01*
X80676819Y-79997441D01*
X80917441Y-79756819D01*
X80978764Y-79723334D01*
X81005122Y-79720500D01*
X81699826Y-79720500D01*
X81699828Y-79720500D01*
X81791897Y-79682364D01*
X82071895Y-79402364D01*
X82071897Y-79402364D01*
X82137246Y-79337014D01*
X82174835Y-79311268D01*
X82237016Y-79283813D01*
X82313813Y-79207016D01*
X82357682Y-79107662D01*
X82360500Y-79083373D01*
X82360499Y-78656628D01*
X82357682Y-78632338D01*
X82313813Y-78532984D01*
X82237016Y-78456187D01*
X82169451Y-78426354D01*
X82137663Y-78412318D01*
X82113373Y-78409500D01*
X81746634Y-78409500D01*
X81746611Y-78409502D01*
X81722340Y-78412317D01*
X81722337Y-78412318D01*
X81622984Y-78456186D01*
X81622983Y-78456187D01*
X81538062Y-78541109D01*
X81535075Y-78538122D01*
X81498155Y-78568252D01*
X81428733Y-78576147D01*
X81366063Y-78545256D01*
X81362227Y-78541574D01*
X81353938Y-78533268D01*
X81353813Y-78532984D01*
X81278416Y-78457587D01*
X81261404Y-78426354D01*
X81245025Y-78396358D01*
X81245029Y-78396292D01*
X81244997Y-78396232D01*
X81247548Y-78361073D01*
X81250009Y-78326666D01*
X81250049Y-78326602D01*
X81250054Y-78326545D01*
X81250282Y-78326240D01*
X81278510Y-78282319D01*
X81353813Y-78207016D01*
X81397682Y-78107662D01*
X81400500Y-78083373D01*
X81400499Y-77656628D01*
X81397682Y-77632338D01*
X81353813Y-77532984D01*
X81277016Y-77456187D01*
X81252810Y-77445499D01*
X81177663Y-77412318D01*
X81153373Y-77409500D01*
X80786634Y-77409500D01*
X80786611Y-77409502D01*
X80762340Y-77412317D01*
X80762337Y-77412318D01*
X80662984Y-77456186D01*
X80586187Y-77532983D01*
X80542318Y-77632335D01*
X80542318Y-77632337D01*
X80539500Y-77656625D01*
X80539500Y-77894876D01*
X80519815Y-77961915D01*
X80503181Y-77982557D01*
X79205661Y-79280076D01*
X79205662Y-79280077D01*
X79152636Y-79333103D01*
X79114500Y-79425170D01*
X79114500Y-79761428D01*
X79094815Y-79828467D01*
X79042011Y-79874222D01*
X78972853Y-79884166D01*
X78966313Y-79883046D01*
X78948484Y-79879500D01*
X78948480Y-79879500D01*
X78781520Y-79879500D01*
X78781515Y-79879500D01*
X78763687Y-79883046D01*
X78694095Y-79876816D01*
X78638920Y-79833951D01*
X78615678Y-79768060D01*
X78615500Y-79761428D01*
X78615500Y-79522253D01*
X78635185Y-79455214D01*
X78651815Y-79434576D01*
X79095910Y-78990481D01*
X79095913Y-78990480D01*
X79170480Y-78915913D01*
X79196843Y-78870250D01*
X79223207Y-78824588D01*
X79250500Y-78722727D01*
X79250500Y-78617273D01*
X79250500Y-77569499D01*
X79270185Y-77502460D01*
X79322989Y-77456705D01*
X79374500Y-77445499D01*
X79956517Y-77445499D01*
X79956518Y-77445499D01*
X80050304Y-77430646D01*
X80163342Y-77373050D01*
X80253050Y-77283342D01*
X80310646Y-77170304D01*
X80310646Y-77170302D01*
X80310647Y-77170301D01*
X80325499Y-77076524D01*
X80325500Y-77076519D01*
X80325499Y-76388482D01*
X80310646Y-76294696D01*
X80253050Y-76181658D01*
X80253049Y-76181657D01*
X80252610Y-76180795D01*
X80239714Y-76112125D01*
X80265991Y-76047385D01*
X80323097Y-76007128D01*
X80363095Y-76000500D01*
X80732112Y-76000500D01*
X80799151Y-76020185D01*
X80834414Y-76054426D01*
X80836185Y-76057012D01*
X80836187Y-76057016D01*
X80912984Y-76133813D01*
X81012338Y-76177682D01*
X81036627Y-76180500D01*
X81463372Y-76180499D01*
X81487662Y-76177682D01*
X81587016Y-76133813D01*
X81663813Y-76057016D01*
X81707682Y-75957662D01*
X81710500Y-75933373D01*
X81710499Y-75566628D01*
X81707682Y-75542338D01*
X81663813Y-75442984D01*
X81587016Y-75366187D01*
X81587014Y-75366186D01*
X81487663Y-75322318D01*
X81463373Y-75319500D01*
X81036634Y-75319500D01*
X81036611Y-75319502D01*
X81012340Y-75322317D01*
X81012337Y-75322318D01*
X80912984Y-75366186D01*
X80836190Y-75442980D01*
X80834414Y-75445574D01*
X80829965Y-75449205D01*
X80828062Y-75451109D01*
X80827869Y-75450916D01*
X80780289Y-75489758D01*
X80732112Y-75499500D01*
X79782670Y-75499500D01*
X79690602Y-75537636D01*
X79690601Y-75537637D01*
X79620135Y-75608104D01*
X79245057Y-75983181D01*
X79183734Y-76016666D01*
X79157376Y-76019500D01*
X77743482Y-76019500D01*
X77662519Y-76032323D01*
X77649696Y-76034354D01*
X77536658Y-76091950D01*
X77536657Y-76091951D01*
X77536652Y-76091954D01*
X77446954Y-76181652D01*
X77446951Y-76181657D01*
X77389352Y-76294698D01*
X77374500Y-76388475D01*
X72350000Y-76388475D01*
X72350000Y-73176092D01*
X72350597Y-73163938D01*
X72368018Y-72987056D01*
X72372757Y-72963232D01*
X72422577Y-72798994D01*
X72431875Y-72776549D01*
X72512775Y-72625195D01*
X72526272Y-72604995D01*
X72635149Y-72472328D01*
X72652328Y-72455149D01*
X72784995Y-72346272D01*
X72805195Y-72332775D01*
X72956549Y-72251875D01*
X72978994Y-72242577D01*
X73143232Y-72192757D01*
X73167056Y-72188018D01*
X73343939Y-72170597D01*
X73356093Y-72170000D01*
X86343907Y-72170000D01*
X86356061Y-72170597D01*
G37*
G04 #@! TD.AperFunction*
G04 #@! TA.AperFunction,Conductor*
G36*
X86606061Y-98170597D02*
G01*
X86782941Y-98188018D01*
X86806769Y-98192757D01*
X86971001Y-98242576D01*
X86993453Y-98251877D01*
X87144798Y-98332772D01*
X87165010Y-98346277D01*
X87297666Y-98455145D01*
X87314854Y-98472333D01*
X87423722Y-98604989D01*
X87437227Y-98625201D01*
X87518121Y-98776543D01*
X87527424Y-98799001D01*
X87577240Y-98963224D01*
X87581982Y-98987065D01*
X87599403Y-99163938D01*
X87600000Y-99176092D01*
X87600000Y-119663907D01*
X87599403Y-119676061D01*
X87581982Y-119852934D01*
X87577240Y-119876775D01*
X87527424Y-120040998D01*
X87518121Y-120063456D01*
X87437227Y-120214798D01*
X87423722Y-120235010D01*
X87314854Y-120367666D01*
X87297666Y-120384854D01*
X87165010Y-120493722D01*
X87144798Y-120507227D01*
X86993456Y-120588121D01*
X86970998Y-120597424D01*
X86806775Y-120647240D01*
X86782934Y-120651982D01*
X86606061Y-120669403D01*
X86593907Y-120670000D01*
X73606093Y-120670000D01*
X73593939Y-120669403D01*
X73417065Y-120651982D01*
X73393224Y-120647240D01*
X73229001Y-120597424D01*
X73206543Y-120588121D01*
X73055201Y-120507227D01*
X73034989Y-120493722D01*
X72902333Y-120384854D01*
X72885145Y-120367666D01*
X72776277Y-120235010D01*
X72762772Y-120214798D01*
X72681878Y-120063456D01*
X72672575Y-120040998D01*
X72622757Y-119876769D01*
X72618018Y-119852941D01*
X72600597Y-119676061D01*
X72600000Y-119663907D01*
X72600000Y-116006625D01*
X75439500Y-116006625D01*
X75439500Y-116373365D01*
X75439502Y-116373388D01*
X75442317Y-116397659D01*
X75442318Y-116397662D01*
X75486186Y-116497015D01*
X75486187Y-116497016D01*
X75562984Y-116573813D01*
X75662338Y-116617682D01*
X75686627Y-116620500D01*
X76113372Y-116620499D01*
X76137662Y-116617682D01*
X76237016Y-116573813D01*
X76313813Y-116497016D01*
X76313816Y-116497008D01*
X76315586Y-116494426D01*
X76320034Y-116490794D01*
X76321938Y-116488891D01*
X76322130Y-116489083D01*
X76369711Y-116450242D01*
X76417888Y-116440500D01*
X77567326Y-116440500D01*
X77567328Y-116440500D01*
X77659397Y-116402364D01*
X78104941Y-115956817D01*
X78166264Y-115923333D01*
X78192622Y-115920499D01*
X79606517Y-115920499D01*
X79606518Y-115920499D01*
X79700304Y-115905646D01*
X79813342Y-115848050D01*
X79903050Y-115758342D01*
X79960646Y-115645304D01*
X79960646Y-115645302D01*
X79960647Y-115645301D01*
X79975499Y-115551524D01*
X79975500Y-115551519D01*
X79975499Y-114863482D01*
X79960646Y-114769696D01*
X79903050Y-114656658D01*
X79903046Y-114656654D01*
X79903045Y-114656652D01*
X79813347Y-114566954D01*
X79813344Y-114566952D01*
X79813342Y-114566950D01*
X79736517Y-114527805D01*
X79700301Y-114509352D01*
X79606524Y-114494500D01*
X79606519Y-114494500D01*
X79024500Y-114494500D01*
X78957461Y-114474815D01*
X78911706Y-114422011D01*
X78900500Y-114370500D01*
X78900500Y-113617275D01*
X78900500Y-113617273D01*
X78873207Y-113515413D01*
X78873206Y-113515411D01*
X78871103Y-113507562D01*
X78872472Y-113507195D01*
X78865500Y-113472142D01*
X78865500Y-113048571D01*
X78885185Y-112981532D01*
X78937989Y-112935777D01*
X79007147Y-112925833D01*
X79013692Y-112926954D01*
X79017145Y-112927640D01*
X79031518Y-112930499D01*
X79031519Y-112930500D01*
X79031520Y-112930500D01*
X79198481Y-112930500D01*
X79198481Y-112930499D01*
X79213580Y-112927496D01*
X79216308Y-112926954D01*
X79237292Y-112928831D01*
X79258147Y-112925833D01*
X79271394Y-112931883D01*
X79285900Y-112933181D01*
X79302537Y-112946105D01*
X79321703Y-112954858D01*
X79329577Y-112967110D01*
X79341077Y-112976044D01*
X79348085Y-112995910D01*
X79359477Y-113013636D01*
X79363011Y-113038219D01*
X79364322Y-113041934D01*
X79364500Y-113048571D01*
X79364500Y-113216875D01*
X79347887Y-113278875D01*
X79326794Y-113315408D01*
X79299500Y-113417273D01*
X79299500Y-113522726D01*
X79326793Y-113624589D01*
X79353156Y-113670250D01*
X79379520Y-113715913D01*
X80774087Y-115110480D01*
X80865412Y-115163207D01*
X80872453Y-115167272D01*
X80872187Y-115167731D01*
X80881371Y-115172707D01*
X80882980Y-115173809D01*
X80882984Y-115173813D01*
X80982338Y-115217682D01*
X81006627Y-115220500D01*
X81433372Y-115220499D01*
X81457662Y-115217682D01*
X81495293Y-115201065D01*
X81505009Y-115199016D01*
X81510445Y-115195523D01*
X81545380Y-115190500D01*
X81675500Y-115190500D01*
X81742539Y-115210185D01*
X81788294Y-115262989D01*
X81799500Y-115314499D01*
X81799500Y-115551517D01*
X81810292Y-115619657D01*
X81814354Y-115645304D01*
X81871950Y-115758342D01*
X81871952Y-115758344D01*
X81871954Y-115758347D01*
X81961652Y-115848045D01*
X81961654Y-115848046D01*
X81961658Y-115848050D01*
X82074694Y-115905645D01*
X82074698Y-115905647D01*
X82168475Y-115920499D01*
X82168481Y-115920500D01*
X84431518Y-115920499D01*
X84525304Y-115905646D01*
X84638342Y-115848050D01*
X84728050Y-115758342D01*
X84785646Y-115645304D01*
X84785646Y-115645302D01*
X84785647Y-115645301D01*
X84800499Y-115551524D01*
X84800500Y-115551519D01*
X84800499Y-114838482D01*
X84785646Y-114744696D01*
X84728050Y-114631658D01*
X84728046Y-114631654D01*
X84728045Y-114631652D01*
X84638347Y-114541954D01*
X84638344Y-114541952D01*
X84638342Y-114541950D01*
X84545217Y-114494500D01*
X84525301Y-114484352D01*
X84431524Y-114469500D01*
X84431519Y-114469500D01*
X83174105Y-114469500D01*
X83112105Y-114452887D01*
X83049590Y-114416794D01*
X83049589Y-114416793D01*
X83049588Y-114416793D01*
X82947727Y-114389500D01*
X82947726Y-114389500D01*
X81545380Y-114389500D01*
X81495293Y-114378934D01*
X81457663Y-114362318D01*
X81433374Y-114359500D01*
X81433373Y-114359500D01*
X81207255Y-114359500D01*
X81140216Y-114339815D01*
X81119574Y-114323181D01*
X79940166Y-113143773D01*
X79942174Y-113141764D01*
X79909085Y-113096455D01*
X79904926Y-113026709D01*
X79939135Y-112965787D01*
X80000850Y-112933030D01*
X80025772Y-112930500D01*
X80198481Y-112930500D01*
X80198482Y-112930499D01*
X80260609Y-112918142D01*
X80331065Y-112871065D01*
X80378142Y-112800609D01*
X80390500Y-112738480D01*
X80390500Y-111946520D01*
X80390169Y-111944856D01*
X80378142Y-111884390D01*
X80359285Y-111856169D01*
X80331065Y-111813935D01*
X80286535Y-111784181D01*
X80260609Y-111766857D01*
X80198484Y-111754500D01*
X80198480Y-111754500D01*
X80031520Y-111754500D01*
X80031515Y-111754500D01*
X79969390Y-111766857D01*
X79933891Y-111790578D01*
X79867214Y-111811456D01*
X79799834Y-111792972D01*
X79796109Y-111790578D01*
X79760609Y-111766857D01*
X79698484Y-111754500D01*
X79698480Y-111754500D01*
X79531520Y-111754500D01*
X79531515Y-111754500D01*
X79469390Y-111766857D01*
X79433891Y-111790578D01*
X79367214Y-111811456D01*
X79299834Y-111792972D01*
X79296109Y-111790578D01*
X79260609Y-111766857D01*
X79198484Y-111754500D01*
X79198480Y-111754500D01*
X79031520Y-111754500D01*
X79031515Y-111754500D01*
X78969390Y-111766857D01*
X78933891Y-111790578D01*
X78867214Y-111811456D01*
X78799834Y-111792972D01*
X78796109Y-111790578D01*
X78760609Y-111766857D01*
X78698484Y-111754500D01*
X78698480Y-111754500D01*
X78531520Y-111754500D01*
X78531515Y-111754500D01*
X78469390Y-111766857D01*
X78433891Y-111790578D01*
X78367214Y-111811456D01*
X78299834Y-111792972D01*
X78296109Y-111790578D01*
X78260609Y-111766857D01*
X78198484Y-111754500D01*
X78198480Y-111754500D01*
X78031520Y-111754500D01*
X78031515Y-111754500D01*
X77969390Y-111766857D01*
X77898935Y-111813935D01*
X77851857Y-111884390D01*
X77839500Y-111946515D01*
X77839500Y-112738484D01*
X77851857Y-112800609D01*
X77865499Y-112821025D01*
X77898935Y-112871065D01*
X77941169Y-112899285D01*
X77969390Y-112918142D01*
X78031515Y-112930499D01*
X78031519Y-112930500D01*
X78031520Y-112930500D01*
X78198481Y-112930500D01*
X78198481Y-112930499D01*
X78213580Y-112927496D01*
X78216308Y-112926954D01*
X78237292Y-112928831D01*
X78258147Y-112925833D01*
X78271394Y-112931883D01*
X78285900Y-112933181D01*
X78302537Y-112946105D01*
X78321703Y-112954858D01*
X78329577Y-112967110D01*
X78341077Y-112976044D01*
X78348085Y-112995910D01*
X78359477Y-113013636D01*
X78363011Y-113038219D01*
X78364322Y-113041934D01*
X78364500Y-113048571D01*
X78364500Y-113214182D01*
X78344815Y-113281221D01*
X78302503Y-113321567D01*
X78254087Y-113349520D01*
X78254084Y-113349522D01*
X78179521Y-113424085D01*
X78126794Y-113515410D01*
X78126793Y-113515413D01*
X78099500Y-113617273D01*
X78099500Y-114370500D01*
X78079815Y-114437539D01*
X78027011Y-114483294D01*
X77975500Y-114494500D01*
X77393482Y-114494500D01*
X77312519Y-114507323D01*
X77299696Y-114509354D01*
X77186658Y-114566950D01*
X77186657Y-114566951D01*
X77186652Y-114566954D01*
X77096954Y-114656652D01*
X77096951Y-114656657D01*
X77039352Y-114769698D01*
X77024500Y-114863475D01*
X77024500Y-115551517D01*
X77035292Y-115619657D01*
X77039354Y-115645304D01*
X77096950Y-115758342D01*
X77097390Y-115759205D01*
X77110286Y-115827875D01*
X77084009Y-115892615D01*
X77026903Y-115932872D01*
X76986905Y-115939500D01*
X76417888Y-115939500D01*
X76350849Y-115919815D01*
X76315586Y-115885574D01*
X76313815Y-115882989D01*
X76313813Y-115882984D01*
X76237016Y-115806187D01*
X76237014Y-115806186D01*
X76137663Y-115762318D01*
X76113373Y-115759500D01*
X75686634Y-115759500D01*
X75686611Y-115759502D01*
X75662340Y-115762317D01*
X75662337Y-115762318D01*
X75562984Y-115806186D01*
X75486187Y-115882983D01*
X75442318Y-115982335D01*
X75442318Y-115982337D01*
X75439500Y-116006625D01*
X72600000Y-116006625D01*
X72600000Y-110526625D01*
X73839500Y-110526625D01*
X73839500Y-110893365D01*
X73839502Y-110893388D01*
X73842317Y-110917659D01*
X73842318Y-110917662D01*
X73886186Y-111017015D01*
X73886187Y-111017016D01*
X73962984Y-111093813D01*
X74062338Y-111137682D01*
X74086627Y-111140500D01*
X74513372Y-111140499D01*
X74537662Y-111137682D01*
X74637016Y-111093813D01*
X74713813Y-111017016D01*
X74730416Y-110979414D01*
X74742412Y-110965211D01*
X74750137Y-110948297D01*
X74764491Y-110939071D01*
X74775502Y-110926037D01*
X74793274Y-110920574D01*
X74808915Y-110910523D01*
X74840976Y-110905913D01*
X74842288Y-110905510D01*
X74843850Y-110905500D01*
X74925500Y-110905500D01*
X74992539Y-110925185D01*
X75038294Y-110977989D01*
X75049500Y-111029500D01*
X75049500Y-111420172D01*
X75049500Y-111519828D01*
X75087636Y-111611897D01*
X75272635Y-111796895D01*
X75272636Y-111796897D01*
X75343103Y-111867364D01*
X75381240Y-111883160D01*
X75435173Y-111905501D01*
X75435174Y-111905501D01*
X75549262Y-111905501D01*
X75549270Y-111905500D01*
X75914206Y-111905500D01*
X75961660Y-111914940D01*
X75969391Y-111918142D01*
X76031515Y-111930499D01*
X76031519Y-111930500D01*
X76715500Y-111930500D01*
X76782539Y-111950185D01*
X76828294Y-112002989D01*
X76839500Y-112054500D01*
X76839500Y-112738484D01*
X76851857Y-112800609D01*
X76865499Y-112821025D01*
X76898935Y-112871065D01*
X76941169Y-112899285D01*
X76969390Y-112918142D01*
X77031515Y-112930499D01*
X77031519Y-112930500D01*
X77031520Y-112930500D01*
X77198481Y-112930500D01*
X77198482Y-112930499D01*
X77260609Y-112918142D01*
X77331065Y-112871065D01*
X77378142Y-112800609D01*
X77390500Y-112738480D01*
X77390500Y-111946520D01*
X77390169Y-111944856D01*
X77378142Y-111884390D01*
X77359285Y-111856169D01*
X77331065Y-111813935D01*
X77286535Y-111784181D01*
X77260609Y-111766857D01*
X77198484Y-111754500D01*
X77198480Y-111754500D01*
X77139500Y-111754500D01*
X77072461Y-111734815D01*
X77026706Y-111682011D01*
X77019278Y-111660876D01*
X77015500Y-111645923D01*
X77015500Y-111571520D01*
X77003142Y-111509391D01*
X76967539Y-111456107D01*
X76962301Y-111435376D01*
X76962850Y-111420971D01*
X76958543Y-111407216D01*
X76964154Y-111386758D01*
X76964963Y-111365557D01*
X76973212Y-111353736D01*
X76977026Y-111339835D01*
X76979394Y-111336149D01*
X77003142Y-111300609D01*
X77015500Y-111238480D01*
X77015500Y-111071520D01*
X77003142Y-111009391D01*
X76979421Y-110973889D01*
X76958543Y-110907216D01*
X76977026Y-110839835D01*
X76979394Y-110836149D01*
X77003142Y-110800609D01*
X77015500Y-110738480D01*
X77015500Y-110571520D01*
X77003142Y-110509391D01*
X76979421Y-110473889D01*
X76958543Y-110407216D01*
X76977026Y-110339835D01*
X76979394Y-110336149D01*
X77003142Y-110300609D01*
X77015500Y-110238480D01*
X77015500Y-110071520D01*
X77003142Y-110009391D01*
X76979421Y-109973889D01*
X76958543Y-109907216D01*
X76977026Y-109839835D01*
X76979394Y-109836149D01*
X77003142Y-109800609D01*
X77015500Y-109738480D01*
X77015500Y-109571520D01*
X77003142Y-109509391D01*
X76979421Y-109473889D01*
X76958543Y-109407216D01*
X76977026Y-109339835D01*
X76979394Y-109336149D01*
X77003142Y-109300609D01*
X77015500Y-109238480D01*
X77015500Y-109071520D01*
X77003142Y-109009391D01*
X76979421Y-108973889D01*
X76958543Y-108907216D01*
X76977026Y-108839835D01*
X76979394Y-108836149D01*
X77003142Y-108800609D01*
X77015500Y-108738480D01*
X77015500Y-108571520D01*
X77003142Y-108509391D01*
X76979421Y-108473889D01*
X76958543Y-108407216D01*
X76977026Y-108339835D01*
X76979394Y-108336149D01*
X77003142Y-108300609D01*
X77015500Y-108238480D01*
X77015500Y-108071520D01*
X77003142Y-108009391D01*
X76979421Y-107973889D01*
X76958543Y-107907216D01*
X76977026Y-107839835D01*
X76979394Y-107836149D01*
X77003142Y-107800609D01*
X77015500Y-107738480D01*
X77015500Y-107571520D01*
X77003142Y-107509391D01*
X77003142Y-107509390D01*
X76971702Y-107462338D01*
X76956065Y-107438935D01*
X76926978Y-107419500D01*
X76885609Y-107391857D01*
X76823484Y-107379500D01*
X76823480Y-107379500D01*
X76031520Y-107379500D01*
X76031515Y-107379500D01*
X75969390Y-107391857D01*
X75898935Y-107438935D01*
X75851857Y-107509390D01*
X75839500Y-107571515D01*
X75839500Y-107738484D01*
X75851857Y-107800609D01*
X75875578Y-107836109D01*
X75896456Y-107902786D01*
X75877972Y-107970166D01*
X75875578Y-107973891D01*
X75851857Y-108009390D01*
X75839500Y-108071515D01*
X75839500Y-108238484D01*
X75851857Y-108300609D01*
X75875578Y-108336109D01*
X75896456Y-108402786D01*
X75877972Y-108470166D01*
X75875578Y-108473891D01*
X75851857Y-108509390D01*
X75839500Y-108571515D01*
X75839500Y-108738484D01*
X75851857Y-108800609D01*
X75875578Y-108836109D01*
X75896456Y-108902786D01*
X75877972Y-108970166D01*
X75875578Y-108973891D01*
X75851857Y-109009390D01*
X75839500Y-109071515D01*
X75839500Y-109238484D01*
X75851857Y-109300609D01*
X75875578Y-109336109D01*
X75896456Y-109402786D01*
X75877972Y-109470166D01*
X75875578Y-109473891D01*
X75851857Y-109509390D01*
X75839500Y-109571515D01*
X75839500Y-109738484D01*
X75851857Y-109800609D01*
X75875578Y-109836109D01*
X75896456Y-109902786D01*
X75877972Y-109970166D01*
X75875578Y-109973891D01*
X75851857Y-110009390D01*
X75839500Y-110071515D01*
X75839500Y-110238481D01*
X75843046Y-110256308D01*
X75836819Y-110325900D01*
X75793956Y-110381077D01*
X75728066Y-110404322D01*
X75721429Y-110404500D01*
X74766692Y-110404500D01*
X74699653Y-110384815D01*
X74679012Y-110368182D01*
X74637016Y-110326187D01*
X74537663Y-110282318D01*
X74513373Y-110279500D01*
X74086634Y-110279500D01*
X74086611Y-110279502D01*
X74062340Y-110282317D01*
X74062337Y-110282318D01*
X73962984Y-110326186D01*
X73886187Y-110402983D01*
X73842318Y-110502335D01*
X73842318Y-110502337D01*
X73839500Y-110526625D01*
X72600000Y-110526625D01*
X72600000Y-102388475D01*
X77624500Y-102388475D01*
X77624500Y-103076517D01*
X77635292Y-103144657D01*
X77639354Y-103170304D01*
X77696950Y-103283342D01*
X77696952Y-103283344D01*
X77696954Y-103283347D01*
X77786652Y-103373045D01*
X77786654Y-103373046D01*
X77786658Y-103373050D01*
X77899694Y-103430645D01*
X77899698Y-103430647D01*
X77993475Y-103445499D01*
X77993481Y-103445500D01*
X78575500Y-103445499D01*
X78642539Y-103465183D01*
X78688294Y-103517987D01*
X78699500Y-103569499D01*
X78699500Y-104452745D01*
X78679815Y-104519784D01*
X78663181Y-104540426D01*
X78279522Y-104924084D01*
X78279520Y-104924087D01*
X78226793Y-105015410D01*
X78199500Y-105117273D01*
X78199500Y-105222726D01*
X78226793Y-105324589D01*
X78231709Y-105333103D01*
X78279520Y-105415913D01*
X78279522Y-105415915D01*
X78328181Y-105464574D01*
X78342884Y-105491501D01*
X78359477Y-105517320D01*
X78360368Y-105523520D01*
X78361666Y-105525897D01*
X78364500Y-105552255D01*
X78364500Y-105761428D01*
X78344815Y-105828467D01*
X78292011Y-105874222D01*
X78222853Y-105884166D01*
X78216313Y-105883046D01*
X78198484Y-105879500D01*
X78198480Y-105879500D01*
X78031520Y-105879500D01*
X78031515Y-105879500D01*
X77969390Y-105891857D01*
X77898935Y-105938935D01*
X77851857Y-106009390D01*
X77839500Y-106071515D01*
X77839500Y-106863484D01*
X77851857Y-106925609D01*
X77880078Y-106967843D01*
X77898935Y-106996065D01*
X77941169Y-107024285D01*
X77969390Y-107043142D01*
X78031515Y-107055499D01*
X78031519Y-107055500D01*
X78031520Y-107055500D01*
X78198481Y-107055500D01*
X78198482Y-107055499D01*
X78260609Y-107043142D01*
X78296110Y-107019421D01*
X78362784Y-106998543D01*
X78430165Y-107017026D01*
X78433850Y-107019394D01*
X78469391Y-107043142D01*
X78511521Y-107051522D01*
X78531515Y-107055499D01*
X78531519Y-107055500D01*
X78531520Y-107055500D01*
X78698481Y-107055500D01*
X78698482Y-107055499D01*
X78760609Y-107043142D01*
X78796110Y-107019421D01*
X78862784Y-106998543D01*
X78930165Y-107017026D01*
X78933850Y-107019394D01*
X78969391Y-107043142D01*
X79011521Y-107051522D01*
X79031515Y-107055499D01*
X79031519Y-107055500D01*
X79031520Y-107055500D01*
X79198481Y-107055500D01*
X79198482Y-107055499D01*
X79260609Y-107043142D01*
X79296110Y-107019421D01*
X79362784Y-106998543D01*
X79430165Y-107017026D01*
X79433850Y-107019394D01*
X79469391Y-107043142D01*
X79511521Y-107051522D01*
X79531515Y-107055499D01*
X79531519Y-107055500D01*
X79531520Y-107055500D01*
X79698481Y-107055500D01*
X79698482Y-107055499D01*
X79760609Y-107043142D01*
X79796110Y-107019421D01*
X79862784Y-106998543D01*
X79930165Y-107017026D01*
X79933850Y-107019394D01*
X79969391Y-107043142D01*
X80011521Y-107051522D01*
X80031515Y-107055499D01*
X80031519Y-107055500D01*
X80031520Y-107055500D01*
X80198481Y-107055500D01*
X80198482Y-107055499D01*
X80260609Y-107043142D01*
X80296110Y-107019421D01*
X80362784Y-106998543D01*
X80395376Y-107002301D01*
X80416107Y-107007539D01*
X80469391Y-107043142D01*
X80531520Y-107055500D01*
X80605924Y-107055500D01*
X80620876Y-107059278D01*
X80638219Y-107069512D01*
X80657539Y-107075185D01*
X80667693Y-107086904D01*
X80681051Y-107094786D01*
X80690108Y-107112772D01*
X80703294Y-107127989D01*
X80707494Y-107147296D01*
X80712476Y-107157189D01*
X80711554Y-107165960D01*
X80714500Y-107179500D01*
X80714500Y-107238484D01*
X80726857Y-107300609D01*
X80750578Y-107336109D01*
X80771456Y-107402786D01*
X80752972Y-107470166D01*
X80750578Y-107473891D01*
X80726857Y-107509390D01*
X80714500Y-107571515D01*
X80714500Y-107738484D01*
X80726857Y-107800609D01*
X80750578Y-107836109D01*
X80771456Y-107902786D01*
X80752972Y-107970166D01*
X80750578Y-107973891D01*
X80726857Y-108009390D01*
X80714500Y-108071515D01*
X80714500Y-108238484D01*
X80726857Y-108300609D01*
X80750578Y-108336109D01*
X80771456Y-108402786D01*
X80752972Y-108470166D01*
X80750578Y-108473891D01*
X80726857Y-108509390D01*
X80714500Y-108571515D01*
X80714500Y-108738484D01*
X80726857Y-108800609D01*
X80750577Y-108836107D01*
X80773935Y-108871065D01*
X80816169Y-108899285D01*
X80844390Y-108918142D01*
X80906515Y-108930499D01*
X80906519Y-108930500D01*
X80906520Y-108930500D01*
X81698481Y-108930500D01*
X81698482Y-108930499D01*
X81760609Y-108918142D01*
X81760610Y-108918140D01*
X81768340Y-108914940D01*
X81815794Y-108905500D01*
X82571663Y-108905500D01*
X82638702Y-108925185D01*
X82659344Y-108941819D01*
X82996494Y-109278968D01*
X83029979Y-109340291D01*
X83031987Y-109380940D01*
X83029500Y-109402373D01*
X83029500Y-109757615D01*
X83029502Y-109757638D01*
X83032268Y-109781494D01*
X83060180Y-109844708D01*
X83075384Y-109879141D01*
X83150859Y-109954616D01*
X83150862Y-109954617D01*
X83150863Y-109954618D01*
X83248499Y-109997729D01*
X83248500Y-109997729D01*
X83248502Y-109997730D01*
X83272377Y-110000500D01*
X83278216Y-110000499D01*
X83345254Y-110020176D01*
X83391015Y-110072976D01*
X83400966Y-110142133D01*
X83391660Y-110174585D01*
X83372271Y-110218496D01*
X83372270Y-110218498D01*
X83369500Y-110242375D01*
X83369500Y-110544293D01*
X83367872Y-110552472D01*
X83368789Y-110557552D01*
X83360060Y-110591749D01*
X83359560Y-110592956D01*
X83315717Y-110647358D01*
X83249422Y-110669421D01*
X83245000Y-110669500D01*
X83004315Y-110669500D01*
X82937276Y-110649815D01*
X82891521Y-110597011D01*
X82881577Y-110527853D01*
X82896928Y-110483499D01*
X82902475Y-110473891D01*
X82919799Y-110443886D01*
X82950500Y-110329309D01*
X82950500Y-110210691D01*
X82919799Y-110096114D01*
X82919797Y-110096111D01*
X82919797Y-110096109D01*
X82919796Y-110096108D01*
X82882774Y-110031986D01*
X82860489Y-109993387D01*
X82776613Y-109909511D01*
X82673886Y-109850201D01*
X82559309Y-109819500D01*
X82440691Y-109819500D01*
X82326114Y-109850201D01*
X82326112Y-109850201D01*
X82326112Y-109850202D01*
X82306671Y-109861426D01*
X82260839Y-109887887D01*
X82245351Y-109892037D01*
X82233775Y-109899477D01*
X82198840Y-109904500D01*
X82008571Y-109904500D01*
X81941532Y-109884815D01*
X81895777Y-109832011D01*
X81885833Y-109762853D01*
X81886954Y-109756308D01*
X81889956Y-109741214D01*
X81890500Y-109738480D01*
X81890500Y-109571520D01*
X81878142Y-109509391D01*
X81878142Y-109509390D01*
X81851933Y-109470166D01*
X81831065Y-109438935D01*
X81802843Y-109420078D01*
X81760609Y-109391857D01*
X81698484Y-109379500D01*
X81698480Y-109379500D01*
X80906520Y-109379500D01*
X80906515Y-109379500D01*
X80844390Y-109391857D01*
X80773935Y-109438935D01*
X80726857Y-109509390D01*
X80714500Y-109571515D01*
X80714500Y-109738484D01*
X80726857Y-109800609D01*
X80750578Y-109836109D01*
X80771456Y-109902786D01*
X80752972Y-109970166D01*
X80750578Y-109973891D01*
X80726857Y-110009390D01*
X80714500Y-110071515D01*
X80714500Y-110238484D01*
X80726857Y-110300609D01*
X80750578Y-110336109D01*
X80771456Y-110402786D01*
X80752972Y-110470166D01*
X80750578Y-110473891D01*
X80726857Y-110509390D01*
X80714500Y-110571515D01*
X80714500Y-110738484D01*
X80726857Y-110800609D01*
X80750578Y-110836109D01*
X80771456Y-110902786D01*
X80752972Y-110970166D01*
X80750578Y-110973891D01*
X80726857Y-111009390D01*
X80714500Y-111071515D01*
X80714500Y-111238484D01*
X80726857Y-111300609D01*
X80747840Y-111332011D01*
X80773935Y-111371065D01*
X80816169Y-111399285D01*
X80844390Y-111418142D01*
X80906515Y-111430499D01*
X80906519Y-111430500D01*
X80906520Y-111430500D01*
X81698481Y-111430500D01*
X81698482Y-111430499D01*
X81760609Y-111418142D01*
X81831065Y-111371065D01*
X81878142Y-111300609D01*
X81890500Y-111238480D01*
X81890500Y-111231809D01*
X81910185Y-111164770D01*
X81962989Y-111119015D01*
X82032147Y-111109071D01*
X82067722Y-111119811D01*
X82084088Y-111127588D01*
X82088864Y-111132364D01*
X82127001Y-111148160D01*
X82180934Y-111170501D01*
X82180935Y-111170501D01*
X82295023Y-111170501D01*
X82295031Y-111170500D01*
X83709825Y-111170500D01*
X83709827Y-111170500D01*
X83801896Y-111132364D01*
X83984121Y-110950137D01*
X84021706Y-110924390D01*
X84089141Y-110894616D01*
X84164616Y-110819141D01*
X84186566Y-110769430D01*
X84231651Y-110716054D01*
X84298438Y-110695526D01*
X84365720Y-110714364D01*
X84412136Y-110766587D01*
X84413434Y-110769430D01*
X84435384Y-110819141D01*
X84510859Y-110894616D01*
X84510862Y-110894617D01*
X84510863Y-110894618D01*
X84608499Y-110937729D01*
X84608500Y-110937729D01*
X84608502Y-110937730D01*
X84632377Y-110940500D01*
X84987622Y-110940499D01*
X85011498Y-110937730D01*
X85109135Y-110894619D01*
X85109136Y-110894618D01*
X85109141Y-110894616D01*
X85184616Y-110819141D01*
X85227730Y-110721498D01*
X85230500Y-110697623D01*
X85230499Y-110242378D01*
X85227730Y-110218502D01*
X85227730Y-110218501D01*
X85184619Y-110120864D01*
X85184617Y-110120861D01*
X85184616Y-110120859D01*
X85109141Y-110045384D01*
X85107547Y-110043790D01*
X85074062Y-109982467D01*
X85079046Y-109912775D01*
X85120918Y-109856842D01*
X85140769Y-109844708D01*
X85150737Y-109839835D01*
X85171211Y-109829826D01*
X85259826Y-109741211D01*
X85259827Y-109741210D01*
X85286759Y-109686118D01*
X85314866Y-109628625D01*
X85325500Y-109555636D01*
X85325500Y-108984364D01*
X85314866Y-108911375D01*
X85295159Y-108871064D01*
X85259827Y-108798789D01*
X85171210Y-108710172D01*
X85058628Y-108655135D01*
X85058626Y-108655134D01*
X85058625Y-108655134D01*
X84985636Y-108644500D01*
X84464364Y-108644500D01*
X84391375Y-108655134D01*
X84391373Y-108655134D01*
X84391371Y-108655135D01*
X84278789Y-108710172D01*
X84278787Y-108710174D01*
X84182908Y-108806054D01*
X84180227Y-108803373D01*
X84170168Y-108811251D01*
X84146010Y-108832185D01*
X84142860Y-108832637D01*
X84140354Y-108834601D01*
X84108504Y-108837577D01*
X84076852Y-108842129D01*
X84073956Y-108840806D01*
X84070787Y-108841103D01*
X84042387Y-108826389D01*
X84013296Y-108813104D01*
X84011575Y-108810426D01*
X84008749Y-108808962D01*
X83992814Y-108781233D01*
X83975522Y-108754326D01*
X83974911Y-108750080D01*
X83973936Y-108748383D01*
X83970499Y-108719398D01*
X83970499Y-108495121D01*
X83990184Y-108428083D01*
X84006809Y-108407451D01*
X84152815Y-108261444D01*
X84214135Y-108227963D01*
X84283827Y-108232947D01*
X84294951Y-108237727D01*
X84391375Y-108284866D01*
X84464364Y-108295500D01*
X84464370Y-108295500D01*
X84985630Y-108295500D01*
X84985636Y-108295500D01*
X85058625Y-108284866D01*
X85116118Y-108256759D01*
X85171210Y-108229827D01*
X85259827Y-108141210D01*
X85293898Y-108071515D01*
X85314866Y-108028625D01*
X85325500Y-107955636D01*
X85325500Y-107384364D01*
X85314866Y-107311375D01*
X85309603Y-107300609D01*
X85259827Y-107198789D01*
X85171210Y-107110172D01*
X85058628Y-107055135D01*
X85058626Y-107055134D01*
X85058625Y-107055134D01*
X84985636Y-107044500D01*
X84464364Y-107044500D01*
X84391375Y-107055134D01*
X84391373Y-107055134D01*
X84391371Y-107055135D01*
X84278789Y-107110172D01*
X84190172Y-107198789D01*
X84135134Y-107311372D01*
X84132291Y-107320575D01*
X84129734Y-107319785D01*
X84106698Y-107369965D01*
X84047845Y-107407623D01*
X83977975Y-107407485D01*
X83924819Y-107375608D01*
X83914976Y-107365618D01*
X83913813Y-107362984D01*
X83837016Y-107286187D01*
X83836473Y-107285947D01*
X83827688Y-107277031D01*
X83816612Y-107256387D01*
X83801788Y-107238251D01*
X83800404Y-107226175D01*
X83794657Y-107215462D01*
X83796501Y-107192106D01*
X83793835Y-107168835D01*
X83799200Y-107157927D01*
X83800157Y-107145809D01*
X83814333Y-107127160D01*
X83824673Y-107106139D01*
X83829183Y-107102230D01*
X83828891Y-107101938D01*
X83861317Y-107069512D01*
X83913813Y-107017016D01*
X83957682Y-106917662D01*
X83960500Y-106893373D01*
X83960499Y-106526628D01*
X83957682Y-106502338D01*
X83913813Y-106402984D01*
X83837016Y-106326187D01*
X83837014Y-106326186D01*
X83737663Y-106282318D01*
X83713373Y-106279500D01*
X83286634Y-106279500D01*
X83286611Y-106279502D01*
X83262340Y-106282317D01*
X83262337Y-106282318D01*
X83162984Y-106326186D01*
X83086187Y-106402983D01*
X83042318Y-106502335D01*
X83042318Y-106502337D01*
X83039500Y-106526625D01*
X83039500Y-106764875D01*
X83030856Y-106794312D01*
X83024334Y-106824298D01*
X83020577Y-106829315D01*
X83019815Y-106831914D01*
X83003184Y-106852553D01*
X82987560Y-106868178D01*
X82926238Y-106901665D01*
X82899876Y-106904500D01*
X81815794Y-106904500D01*
X81768340Y-106895060D01*
X81760608Y-106891857D01*
X81698484Y-106879500D01*
X81698480Y-106879500D01*
X81014500Y-106879500D01*
X80947461Y-106859815D01*
X80901706Y-106807011D01*
X80890500Y-106755500D01*
X80890500Y-106085122D01*
X80910185Y-106018083D01*
X80926819Y-105997441D01*
X81167441Y-105756819D01*
X81228764Y-105723334D01*
X81255122Y-105720500D01*
X81949826Y-105720500D01*
X81949828Y-105720500D01*
X82041897Y-105682364D01*
X82321895Y-105402364D01*
X82321897Y-105402364D01*
X82387246Y-105337014D01*
X82424835Y-105311268D01*
X82487016Y-105283813D01*
X82563813Y-105207016D01*
X82607682Y-105107662D01*
X82610500Y-105083373D01*
X82610499Y-104656628D01*
X82607682Y-104632338D01*
X82563813Y-104532984D01*
X82487016Y-104456187D01*
X82419451Y-104426354D01*
X82387663Y-104412318D01*
X82363373Y-104409500D01*
X81996634Y-104409500D01*
X81996611Y-104409502D01*
X81972340Y-104412317D01*
X81972337Y-104412318D01*
X81872984Y-104456186D01*
X81872983Y-104456187D01*
X81788062Y-104541109D01*
X81785075Y-104538122D01*
X81748155Y-104568252D01*
X81678733Y-104576147D01*
X81616063Y-104545256D01*
X81612227Y-104541574D01*
X81603938Y-104533268D01*
X81603813Y-104532984D01*
X81528416Y-104457587D01*
X81511404Y-104426354D01*
X81495025Y-104396358D01*
X81495029Y-104396292D01*
X81494997Y-104396232D01*
X81497548Y-104361073D01*
X81500009Y-104326666D01*
X81500049Y-104326602D01*
X81500054Y-104326545D01*
X81500282Y-104326240D01*
X81528510Y-104282319D01*
X81603813Y-104207016D01*
X81647682Y-104107662D01*
X81650500Y-104083373D01*
X81650499Y-103656628D01*
X81647682Y-103632338D01*
X81603813Y-103532984D01*
X81527016Y-103456187D01*
X81502810Y-103445499D01*
X81427663Y-103412318D01*
X81403373Y-103409500D01*
X81036634Y-103409500D01*
X81036611Y-103409502D01*
X81012340Y-103412317D01*
X81012337Y-103412318D01*
X80912984Y-103456186D01*
X80836187Y-103532983D01*
X80792318Y-103632335D01*
X80792318Y-103632337D01*
X80789500Y-103656625D01*
X80789500Y-103894876D01*
X80769815Y-103961915D01*
X80753181Y-103982557D01*
X79455661Y-105280076D01*
X79455662Y-105280077D01*
X79402636Y-105333103D01*
X79364500Y-105425170D01*
X79364500Y-105761428D01*
X79344815Y-105828467D01*
X79292011Y-105874222D01*
X79222853Y-105884166D01*
X79216313Y-105883046D01*
X79198484Y-105879500D01*
X79198480Y-105879500D01*
X79031520Y-105879500D01*
X79031515Y-105879500D01*
X79013687Y-105883046D01*
X78944095Y-105876816D01*
X78888920Y-105833951D01*
X78865678Y-105768060D01*
X78865500Y-105761428D01*
X78865500Y-105522253D01*
X78885185Y-105455214D01*
X78901815Y-105434576D01*
X79345910Y-104990481D01*
X79345913Y-104990480D01*
X79420480Y-104915913D01*
X79446843Y-104870250D01*
X79473207Y-104824588D01*
X79500500Y-104722727D01*
X79500500Y-104617273D01*
X79500500Y-103569499D01*
X79520185Y-103502460D01*
X79572989Y-103456705D01*
X79624500Y-103445499D01*
X80206517Y-103445499D01*
X80206518Y-103445499D01*
X80300304Y-103430646D01*
X80413342Y-103373050D01*
X80503050Y-103283342D01*
X80560646Y-103170304D01*
X80560646Y-103170302D01*
X80560647Y-103170301D01*
X80575499Y-103076524D01*
X80575500Y-103076519D01*
X80575499Y-102388482D01*
X80560646Y-102294696D01*
X80503050Y-102181658D01*
X80503049Y-102181657D01*
X80502610Y-102180795D01*
X80489714Y-102112125D01*
X80515991Y-102047385D01*
X80573097Y-102007128D01*
X80613095Y-102000500D01*
X80982112Y-102000500D01*
X81049151Y-102020185D01*
X81084414Y-102054426D01*
X81086185Y-102057012D01*
X81086187Y-102057016D01*
X81162984Y-102133813D01*
X81262338Y-102177682D01*
X81286627Y-102180500D01*
X81713372Y-102180499D01*
X81737662Y-102177682D01*
X81837016Y-102133813D01*
X81913813Y-102057016D01*
X81957682Y-101957662D01*
X81960500Y-101933373D01*
X81960499Y-101566628D01*
X81957682Y-101542338D01*
X81913813Y-101442984D01*
X81837016Y-101366187D01*
X81837014Y-101366186D01*
X81737663Y-101322318D01*
X81713373Y-101319500D01*
X81286634Y-101319500D01*
X81286611Y-101319502D01*
X81262340Y-101322317D01*
X81262337Y-101322318D01*
X81162984Y-101366186D01*
X81086190Y-101442980D01*
X81084414Y-101445574D01*
X81079965Y-101449205D01*
X81078062Y-101451109D01*
X81077869Y-101450916D01*
X81030289Y-101489758D01*
X80982112Y-101499500D01*
X80032670Y-101499500D01*
X79940602Y-101537636D01*
X79940601Y-101537637D01*
X79870135Y-101608104D01*
X79495057Y-101983181D01*
X79433734Y-102016666D01*
X79407376Y-102019500D01*
X77993482Y-102019500D01*
X77912519Y-102032323D01*
X77899696Y-102034354D01*
X77786658Y-102091950D01*
X77786657Y-102091951D01*
X77786652Y-102091954D01*
X77696954Y-102181652D01*
X77696951Y-102181657D01*
X77639352Y-102294698D01*
X77624500Y-102388475D01*
X72600000Y-102388475D01*
X72600000Y-99176092D01*
X72600597Y-99163938D01*
X72618018Y-98987056D01*
X72622757Y-98963232D01*
X72672577Y-98798994D01*
X72681875Y-98776549D01*
X72762775Y-98625195D01*
X72776272Y-98604995D01*
X72885149Y-98472328D01*
X72902328Y-98455149D01*
X73034995Y-98346272D01*
X73055195Y-98332775D01*
X73206549Y-98251875D01*
X73228994Y-98242577D01*
X73393232Y-98192757D01*
X73417056Y-98188018D01*
X73593939Y-98170597D01*
X73606093Y-98170000D01*
X86593907Y-98170000D01*
X86606061Y-98170597D01*
G37*
G04 #@! TD.AperFunction*
M02*
