G04 #@! TF.GenerationSoftware,KiCad,Pcbnew,10.0.0*
G04 #@! TF.CreationDate,2026-04-15T10:06:29-07:00*
G04 #@! TF.ProjectId,ministepper,6d696e69-7374-4657-9070-65722e6b6963,0.1*
G04 #@! TF.SameCoordinates,Original*
G04 #@! TF.FileFunction,Paste,Top*
G04 #@! TF.FilePolarity,Positive*
%FSLAX46Y46*%
G04 Gerber Fmt 4.6, Leading zero omitted, Abs format (unit mm)*
G04 Created by KiCad (PCBNEW 10.0.0) date 2026-04-15 10:06:29*
%MOMM*%
%LPD*%
G01*
G04 APERTURE LIST*
G04 Aperture macros list*
%AMRoundRect*
0 Rectangle with rounded corners*
0 $1 Rounding radius*
0 $2 $3 $4 $5 $6 $7 $8 $9 X,Y pos of 4 corners*
0 Add a 4 corners polygon primitive as box body*
4,1,4,$2,$3,$4,$5,$6,$7,$8,$9,$2,$3,0*
0 Add four circle primitives for the rounded corners*
1,1,$1+$1,$2,$3*
1,1,$1+$1,$4,$5*
1,1,$1+$1,$6,$7*
1,1,$1+$1,$8,$9*
0 Add four rect primitives between the rounded corners*
20,1,$1+$1,$2,$3,$4,$5,0*
20,1,$1+$1,$4,$5,$6,$7,0*
20,1,$1+$1,$6,$7,$8,$9,0*
20,1,$1+$1,$8,$9,$2,$3,0*%
G04 Aperture macros list end*
%ADD10RoundRect,0.140000X-0.170000X0.140000X-0.170000X-0.140000X0.170000X-0.140000X0.170000X0.140000X0*%
%ADD11RoundRect,0.140000X-0.140000X-0.170000X0.140000X-0.170000X0.140000X0.170000X-0.140000X0.170000X0*%
%ADD12RoundRect,0.232500X-0.252500X-0.232500X0.252500X-0.232500X0.252500X0.232500X-0.252500X0.232500X0*%
%ADD13RoundRect,0.062500X-0.375000X-0.062500X0.375000X-0.062500X0.375000X0.062500X-0.375000X0.062500X0*%
%ADD14RoundRect,0.062500X-0.062500X-0.375000X0.062500X-0.375000X0.062500X0.375000X-0.062500X0.375000X0*%
%ADD15R,0.200000X0.300000*%
%ADD16O,0.550000X0.300000*%
%ADD17R,0.650000X1.000000*%
%ADD18RoundRect,0.225000X-0.225000X-0.250000X0.225000X-0.250000X0.225000X0.250000X-0.225000X0.250000X0*%
%ADD19RoundRect,0.250000X-0.312500X-1.075000X0.312500X-1.075000X0.312500X1.075000X-0.312500X1.075000X0*%
%ADD20RoundRect,0.250000X-1.000000X-0.650000X1.000000X-0.650000X1.000000X0.650000X-1.000000X0.650000X0*%
%ADD21RoundRect,0.100000X-0.712500X-0.100000X0.712500X-0.100000X0.712500X0.100000X-0.712500X0.100000X0*%
%ADD22RoundRect,0.250000X-0.325000X-0.650000X0.325000X-0.650000X0.325000X0.650000X-0.325000X0.650000X0*%
%ADD23RoundRect,0.250000X1.075000X-0.312500X1.075000X0.312500X-1.075000X0.312500X-1.075000X-0.312500X0*%
%ADD24RoundRect,0.135000X0.185000X-0.135000X0.185000X0.135000X-0.185000X0.135000X-0.185000X-0.135000X0*%
%ADD25RoundRect,0.135000X-0.135000X-0.185000X0.135000X-0.185000X0.135000X0.185000X-0.135000X0.185000X0*%
%ADD26RoundRect,0.250000X-1.075000X0.312500X-1.075000X-0.312500X1.075000X-0.312500X1.075000X0.312500X0*%
%ADD27RoundRect,0.225000X0.225000X0.250000X-0.225000X0.250000X-0.225000X-0.250000X0.225000X-0.250000X0*%
%ADD28RoundRect,0.250000X-0.325000X-1.100000X0.325000X-1.100000X0.325000X1.100000X-0.325000X1.100000X0*%
%ADD29RoundRect,0.140000X0.170000X-0.140000X0.170000X0.140000X-0.170000X0.140000X-0.170000X-0.140000X0*%
%ADD30RoundRect,0.135000X0.135000X0.185000X-0.135000X0.185000X-0.135000X-0.185000X0.135000X-0.185000X0*%
%ADD31RoundRect,0.250000X-1.100000X0.325000X-1.100000X-0.325000X1.100000X-0.325000X1.100000X0.325000X0*%
%ADD32RoundRect,0.250000X-0.300000X-1.600000X0.300000X-1.600000X0.300000X1.600000X-0.300000X1.600000X0*%
%ADD33R,0.700000X0.300000*%
%ADD34R,0.300000X0.700000*%
%ADD35R,2.700000X2.700000*%
G04 APERTURE END LIST*
D10*
X183800000Y-77520000D03*
X183800000Y-78480000D03*
X189120000Y-76120000D03*
X189120000Y-77080000D03*
D11*
X186800000Y-120065000D03*
X187760000Y-120065000D03*
X186800000Y-112185000D03*
X187760000Y-112185000D03*
X186800000Y-114155000D03*
X187760000Y-114155000D03*
D10*
X191400000Y-68040000D03*
X191400000Y-69000000D03*
D11*
X186800000Y-116125000D03*
X187760000Y-116125000D03*
X186800000Y-122035000D03*
X187760000Y-122035000D03*
D12*
X185565000Y-69010000D03*
X185565000Y-70160000D03*
X185565000Y-71310000D03*
X185565000Y-72460000D03*
X186765000Y-69010000D03*
X186765000Y-70160000D03*
X186765000Y-71310000D03*
X186765000Y-72460000D03*
X187965000Y-69010000D03*
X187965000Y-70160000D03*
X187965000Y-71310000D03*
X187965000Y-72460000D03*
D13*
X184327500Y-68485000D03*
X184327500Y-68985000D03*
X184327500Y-69485000D03*
X184327500Y-69985000D03*
X184327500Y-70485000D03*
X184327500Y-70985000D03*
X184327500Y-71485000D03*
X184327500Y-71985000D03*
X184327500Y-72485000D03*
X184327500Y-72985000D03*
D14*
X185015000Y-73672500D03*
X185515000Y-73672500D03*
X186015000Y-73672500D03*
X186515000Y-73672500D03*
X187015000Y-73672500D03*
X187515000Y-73672500D03*
X188015000Y-73672500D03*
X188515000Y-73672500D03*
D13*
X189202500Y-72985000D03*
X189202500Y-72485000D03*
X189202500Y-71985000D03*
X189202500Y-71485000D03*
X189202500Y-70985000D03*
X189202500Y-70485000D03*
X189202500Y-69985000D03*
X189202500Y-69485000D03*
X189202500Y-68985000D03*
X189202500Y-68485000D03*
D14*
X188515000Y-67797500D03*
X188015000Y-67797500D03*
X187515000Y-67797500D03*
X187015000Y-67797500D03*
X186515000Y-67797500D03*
X186015000Y-67797500D03*
X185515000Y-67797500D03*
X185015000Y-67797500D03*
D15*
X142175000Y-68465000D03*
D16*
X142375000Y-68465000D03*
D15*
X142175000Y-69115000D03*
D16*
X142375000Y-69115000D03*
D15*
X142175000Y-69765000D03*
D16*
X142375000Y-69765000D03*
D15*
X142175000Y-70415000D03*
D16*
X142375000Y-70415000D03*
X145475000Y-70415000D03*
D15*
X145675000Y-70415000D03*
D16*
X145475000Y-69765000D03*
D15*
X145675000Y-69765000D03*
D16*
X145475000Y-69115000D03*
D15*
X145675000Y-69115000D03*
D16*
X145475000Y-68465000D03*
D15*
X145675000Y-68465000D03*
D17*
X143475000Y-68815000D03*
X143475000Y-70065000D03*
X144375000Y-68815000D03*
X144375000Y-70065000D03*
D18*
X192625000Y-70600000D03*
X194175000Y-70600000D03*
D11*
X136475000Y-62485000D03*
X137435000Y-62485000D03*
D19*
X181577500Y-121725000D03*
X184502500Y-121725000D03*
D12*
X191545000Y-113630000D03*
X191545000Y-114780000D03*
X191545000Y-115930000D03*
X191545000Y-117080000D03*
X192745000Y-113630000D03*
X192745000Y-114780000D03*
X192745000Y-115930000D03*
X192745000Y-117080000D03*
X193945000Y-113630000D03*
X193945000Y-114780000D03*
X193945000Y-115930000D03*
X193945000Y-117080000D03*
D13*
X190307500Y-113105000D03*
X190307500Y-113605000D03*
X190307500Y-114105000D03*
X190307500Y-114605000D03*
X190307500Y-115105000D03*
X190307500Y-115605000D03*
X190307500Y-116105000D03*
X190307500Y-116605000D03*
X190307500Y-117105000D03*
X190307500Y-117605000D03*
D14*
X190995000Y-118292500D03*
X191495000Y-118292500D03*
X191995000Y-118292500D03*
X192495000Y-118292500D03*
X192995000Y-118292500D03*
X193495000Y-118292500D03*
X193995000Y-118292500D03*
X194495000Y-118292500D03*
D13*
X195182500Y-117605000D03*
X195182500Y-117105000D03*
X195182500Y-116605000D03*
X195182500Y-116105000D03*
X195182500Y-115605000D03*
X195182500Y-115105000D03*
X195182500Y-114605000D03*
X195182500Y-114105000D03*
X195182500Y-113605000D03*
X195182500Y-113105000D03*
D14*
X194495000Y-112417500D03*
X193995000Y-112417500D03*
X193495000Y-112417500D03*
X192995000Y-112417500D03*
X192495000Y-112417500D03*
X191995000Y-112417500D03*
X191495000Y-112417500D03*
X190995000Y-112417500D03*
D20*
X120220000Y-85645000D03*
X124220000Y-85645000D03*
D21*
X119742500Y-93825000D03*
X119742500Y-94475000D03*
X119742500Y-95125000D03*
X119742500Y-95775000D03*
X123967500Y-95775000D03*
X123967500Y-95125000D03*
X123967500Y-94475000D03*
X123967500Y-93825000D03*
D11*
X136475000Y-64455000D03*
X137435000Y-64455000D03*
D22*
X142650000Y-73435000D03*
X145600000Y-73435000D03*
D23*
X187000000Y-64062500D03*
X187000000Y-61137500D03*
D18*
X189945000Y-127525000D03*
X191495000Y-127525000D03*
D24*
X191400000Y-70910000D03*
X191400000Y-69890000D03*
D25*
X193670000Y-126745000D03*
X194690000Y-126745000D03*
D11*
X136475000Y-70365000D03*
X137435000Y-70365000D03*
D25*
X139335000Y-72025000D03*
X140355000Y-72025000D03*
D26*
X186400000Y-76537500D03*
X186400000Y-79462500D03*
D27*
X194175000Y-69000000D03*
X192625000Y-69000000D03*
D18*
X189945000Y-125015000D03*
X191495000Y-125015000D03*
D28*
X190065000Y-121635000D03*
X193015000Y-121635000D03*
D10*
X182200000Y-72040000D03*
X182200000Y-73000000D03*
D29*
X189400000Y-63080000D03*
X189400000Y-62120000D03*
D25*
X139335000Y-74015000D03*
X140355000Y-74015000D03*
D11*
X186800000Y-118095000D03*
X187760000Y-118095000D03*
D20*
X120220000Y-90195000D03*
X124220000Y-90195000D03*
D25*
X139335000Y-68045000D03*
X140355000Y-68045000D03*
D18*
X145270000Y-62755000D03*
X146820000Y-62755000D03*
D30*
X192710000Y-71800000D03*
X191690000Y-71800000D03*
D31*
X191200000Y-76525000D03*
X191200000Y-79475000D03*
D11*
X136475000Y-66425000D03*
X137435000Y-66425000D03*
D32*
X139715000Y-64275000D03*
X142715000Y-64275000D03*
D19*
X181577500Y-113305000D03*
X184502500Y-113305000D03*
D11*
X186800000Y-124005000D03*
X187760000Y-124005000D03*
D25*
X193670000Y-124755000D03*
X194690000Y-124755000D03*
D11*
X189120000Y-66200000D03*
X190080000Y-66200000D03*
D25*
X139335000Y-70035000D03*
X140355000Y-70035000D03*
D33*
X119810000Y-98845000D03*
X119810000Y-99345000D03*
X119810000Y-99845000D03*
X119810000Y-100345000D03*
X119810000Y-100845000D03*
X119810000Y-101345000D03*
X119810000Y-101845000D03*
D34*
X120410000Y-102445000D03*
X120910000Y-102445000D03*
X121410000Y-102445000D03*
X121910000Y-102445000D03*
X122410000Y-102445000D03*
X122910000Y-102445000D03*
X123410000Y-102445000D03*
D33*
X124010000Y-101845000D03*
X124010000Y-101345000D03*
X124010000Y-100845000D03*
X124010000Y-100345000D03*
X124010000Y-99845000D03*
X124010000Y-99345000D03*
X124010000Y-98845000D03*
D34*
X123410000Y-98245000D03*
X122910000Y-98245000D03*
X122410000Y-98245000D03*
X121910000Y-98245000D03*
X121410000Y-98245000D03*
X120910000Y-98245000D03*
X120410000Y-98245000D03*
D35*
X121910000Y-100345000D03*
D11*
X189120000Y-65200000D03*
X190080000Y-65200000D03*
X136475000Y-68395000D03*
X137435000Y-68395000D03*
M02*
