G04 #@! TF.GenerationSoftware,KiCad,Pcbnew,10.0.0*
G04 #@! TF.CreationDate,2026-04-14T17:35:31-07:00*
G04 #@! TF.ProjectId,ministepper,6d696e69-7374-4657-9070-65722e6b6963,0.1*
G04 #@! TF.SameCoordinates,Original*
G04 #@! TF.FileFunction,Paste,Top*
G04 #@! TF.FilePolarity,Positive*
%FSLAX46Y46*%
G04 Gerber Fmt 4.6, Leading zero omitted, Abs format (unit mm)*
G04 Created by KiCad (PCBNEW 10.0.0) date 2026-04-14 17:35:31*
%MOMM*%
%LPD*%
G01*
G04 APERTURE LIST*
G04 Aperture macros list*
%AMRoundRect*
0 Rectangle with rounded corners*
0 $1 Rounding radius*
0 $2 $3 $4 $5 $6 $7 $8 $9 X,Y pos of 4 corners*
0 Add a 4 corners polygon primitive as box body*
4,1,4,$2,$3,$4,$5,$6,$7,$8,$9,$2,$3,0*
0 Add four circle primitives for the rounded corners*
1,1,$1+$1,$2,$3*
1,1,$1+$1,$4,$5*
1,1,$1+$1,$6,$7*
1,1,$1+$1,$8,$9*
0 Add four rect primitives between the rounded corners*
20,1,$1+$1,$2,$3,$4,$5,0*
20,1,$1+$1,$4,$5,$6,$7,0*
20,1,$1+$1,$6,$7,$8,$9,0*
20,1,$1+$1,$8,$9,$2,$3,0*%
%AMFreePoly0*
4,1,6,0.600000,-0.600000,-0.600000,-0.600000,-0.600000,0.000000,0.000000,0.600000,0.600000,0.600000,0.600000,-0.600000,0.600000,-0.600000,$1*%
G04 Aperture macros list end*
%ADD10RoundRect,0.250000X-0.250000X-0.475000X0.250000X-0.475000X0.250000X0.475000X-0.250000X0.475000X0*%
%ADD11RoundRect,0.250000X-1.275000X-1.125000X1.275000X-1.125000X1.275000X1.125000X-1.275000X1.125000X0*%
%ADD12RoundRect,0.250000X-0.850000X-0.350000X0.850000X-0.350000X0.850000X0.350000X-0.850000X0.350000X0*%
%ADD13RoundRect,0.225000X-0.225000X-0.250000X0.225000X-0.250000X0.225000X0.250000X-0.225000X0.250000X0*%
%ADD14RoundRect,0.100000X-0.712500X-0.100000X0.712500X-0.100000X0.712500X0.100000X-0.712500X0.100000X0*%
%ADD15RoundRect,0.140000X-0.140000X-0.170000X0.140000X-0.170000X0.140000X0.170000X-0.140000X0.170000X0*%
%ADD16RoundRect,0.230000X-0.230000X-0.375000X0.230000X-0.375000X0.230000X0.375000X-0.230000X0.375000X0*%
%ADD17RoundRect,0.150000X-0.825000X-0.150000X0.825000X-0.150000X0.825000X0.150000X-0.825000X0.150000X0*%
%ADD18RoundRect,0.135000X-0.135000X-0.185000X0.135000X-0.185000X0.135000X0.185000X-0.135000X0.185000X0*%
%ADD19RoundRect,0.150000X-0.150000X-0.425000X0.150000X-0.425000X0.150000X0.425000X-0.150000X0.425000X0*%
%ADD20RoundRect,0.075000X-0.075000X-0.500000X0.075000X-0.500000X0.075000X0.500000X-0.075000X0.500000X0*%
%ADD21O,1.000000X2.100000*%
%ADD22O,1.000000X1.800000*%
%ADD23RoundRect,0.250000X-0.300000X-1.600000X0.300000X-1.600000X0.300000X1.600000X-0.300000X1.600000X0*%
%ADD24RoundRect,0.250000X-0.325000X-0.650000X0.325000X-0.650000X0.325000X0.650000X-0.325000X0.650000X0*%
%ADD25RoundRect,0.250000X-0.312500X-0.625000X0.312500X-0.625000X0.312500X0.625000X-0.312500X0.625000X0*%
%ADD26R,1.000000X0.750000*%
%ADD27R,0.800000X0.400000*%
%ADD28R,0.400000X0.800000*%
%ADD29FreePoly0,0.000000*%
%ADD30R,1.200000X1.200000*%
%ADD31R,0.800000X0.800000*%
G04 APERTURE END LIST*
D10*
X166345000Y-81985000D03*
X168245000Y-81985000D03*
D11*
X151770000Y-93295000D03*
X151770000Y-96345000D03*
X155120000Y-93295000D03*
X155120000Y-96345000D03*
D12*
X147145000Y-92540000D03*
X147145000Y-97100000D03*
D13*
X169100000Y-78505000D03*
X170650000Y-78505000D03*
D14*
X148542500Y-79860000D03*
X148542500Y-80510000D03*
X148542500Y-81160000D03*
X148542500Y-81810000D03*
X152767500Y-81810000D03*
X152767500Y-81160000D03*
X152767500Y-80510000D03*
X152767500Y-79860000D03*
D10*
X166345000Y-84995000D03*
X168245000Y-84995000D03*
D15*
X160375000Y-87015000D03*
X161335000Y-87015000D03*
D16*
X163075000Y-76510000D03*
X163075000Y-78010000D03*
X164215000Y-76510000D03*
X164215000Y-78010000D03*
D17*
X161170000Y-75355000D03*
X161170000Y-76625000D03*
X161170000Y-77895000D03*
X161170000Y-79165000D03*
X166120000Y-79165000D03*
X166120000Y-77895000D03*
X166120000Y-76625000D03*
X166120000Y-75355000D03*
D18*
X155305000Y-80865000D03*
X156325000Y-80865000D03*
D19*
X147915000Y-108645000D03*
X148715000Y-108645000D03*
D20*
X149865000Y-108645000D03*
X150865000Y-108645000D03*
X151365000Y-108645000D03*
X152365000Y-108645000D03*
D19*
X153515000Y-108645000D03*
X154315000Y-108645000D03*
X154315000Y-108645000D03*
X153515000Y-108645000D03*
D20*
X152865000Y-108645000D03*
X151865000Y-108645000D03*
X150365000Y-108645000D03*
X149365000Y-108645000D03*
D19*
X148715000Y-108645000D03*
X147915000Y-108645000D03*
D21*
X146795000Y-109220000D03*
D22*
X146795000Y-113400000D03*
D21*
X155435000Y-109220000D03*
D22*
X155435000Y-113400000D03*
D18*
X170465000Y-81475000D03*
X171485000Y-81475000D03*
D23*
X160745000Y-83255000D03*
X163745000Y-83255000D03*
D18*
X170465000Y-85455000D03*
X171485000Y-85455000D03*
D24*
X169220000Y-75575000D03*
X172170000Y-75575000D03*
D18*
X155305000Y-74895000D03*
X156325000Y-74895000D03*
D25*
X148292500Y-88075000D03*
X151217500Y-88075000D03*
D11*
X151770000Y-101490000D03*
X151770000Y-104540000D03*
X155120000Y-101490000D03*
X155120000Y-104540000D03*
D12*
X147145000Y-100735000D03*
X147145000Y-105295000D03*
D18*
X170465000Y-83465000D03*
X171485000Y-83465000D03*
X155305000Y-76885000D03*
X156325000Y-76885000D03*
D26*
X139675000Y-75350000D03*
X145675000Y-75350000D03*
X139675000Y-79100000D03*
X145675000Y-79100000D03*
D25*
X148292500Y-84765000D03*
X151217500Y-84765000D03*
D18*
X155305000Y-78875000D03*
X156325000Y-78875000D03*
D26*
X139675000Y-82000000D03*
X145675000Y-82000000D03*
X139675000Y-85750000D03*
X145675000Y-85750000D03*
D27*
X179600000Y-111850000D03*
X179600000Y-112700000D03*
X179600000Y-113550000D03*
X179600000Y-114400000D03*
X179600000Y-115250000D03*
X179600000Y-116100000D03*
X179600000Y-116950000D03*
X179600000Y-117800000D03*
X179600000Y-118650000D03*
X179600000Y-119500000D03*
X179600000Y-120350000D03*
X179600000Y-121200000D03*
X179600000Y-122050000D03*
X179600000Y-122900000D03*
X179600000Y-123750000D03*
D28*
X180650000Y-124800000D03*
X181500000Y-124800000D03*
X182350000Y-124800000D03*
X183200000Y-124800000D03*
X184050000Y-124800000D03*
X184900000Y-124800000D03*
X185750000Y-124800000D03*
X186600000Y-124800000D03*
X187450000Y-124800000D03*
X188300000Y-124800000D03*
X189150000Y-124800000D03*
X190000000Y-124800000D03*
X190850000Y-124800000D03*
X191700000Y-124800000D03*
X192550000Y-124800000D03*
D27*
X193600000Y-123750000D03*
X193600000Y-122900000D03*
X193600000Y-122050000D03*
X193600000Y-121200000D03*
X193600000Y-120350000D03*
X193600000Y-119500000D03*
X193600000Y-118650000D03*
X193600000Y-117800000D03*
X193600000Y-116950000D03*
X193600000Y-116100000D03*
X193600000Y-115250000D03*
X193600000Y-114400000D03*
X193600000Y-113550000D03*
X193600000Y-112700000D03*
X193600000Y-111850000D03*
D28*
X192550000Y-110800000D03*
X191700000Y-110800000D03*
X190850000Y-110800000D03*
X190000000Y-110800000D03*
X189150000Y-110800000D03*
X188300000Y-110800000D03*
X187450000Y-110800000D03*
X186600000Y-110800000D03*
X185750000Y-110800000D03*
X184900000Y-110800000D03*
X184050000Y-110800000D03*
X183200000Y-110800000D03*
X182350000Y-110800000D03*
X181500000Y-110800000D03*
X180650000Y-110800000D03*
D29*
X184950000Y-116150000D03*
D30*
X184950000Y-117800000D03*
X184950000Y-119450000D03*
X186600000Y-116150000D03*
X186600000Y-117800000D03*
X186600000Y-119450000D03*
X188250000Y-116150000D03*
X188250000Y-117800000D03*
X188250000Y-119450000D03*
D31*
X179600000Y-110800000D03*
X179600000Y-124800000D03*
X193600000Y-124800000D03*
X193600000Y-110800000D03*
D14*
X148542500Y-75255000D03*
X148542500Y-75905000D03*
X148542500Y-76555000D03*
X148542500Y-77205000D03*
X152767500Y-77205000D03*
X152767500Y-76555000D03*
X152767500Y-75905000D03*
X152767500Y-75255000D03*
M02*
