G04 #@! TF.GenerationSoftware,KiCad,Pcbnew,10.0.4*
G04 #@! TF.CreationDate,2026-07-01T20:35:11-07:00*
G04 #@! TF.ProjectId,ministepper,6d696e69-7374-4657-9070-65722e6b6963,0.1*
G04 #@! TF.SameCoordinates,Original*
G04 #@! TF.FileFunction,Legend,Top*
G04 #@! TF.FilePolarity,Positive*
%FSLAX46Y46*%
G04 Gerber Fmt 4.6, Leading zero omitted, Abs format (unit mm)*
G04 Created by KiCad (PCBNEW 10.0.4) date 2026-07-01 20:35:11*
%MOMM*%
%LPD*%
G01*
G04 APERTURE LIST*
%ADD10C,0.150000*%
%ADD11C,0.120000*%
G04 APERTURE END LIST*
D10*
X82850000Y-85670000D02*
X82850000Y-84270000D01*
X74736104Y-93774761D02*
X74774200Y-93812857D01*
X74774200Y-93812857D02*
X74812295Y-93927142D01*
X74812295Y-93927142D02*
X74812295Y-94003333D01*
X74812295Y-94003333D02*
X74774200Y-94117619D01*
X74774200Y-94117619D02*
X74698009Y-94193809D01*
X74698009Y-94193809D02*
X74621819Y-94231904D01*
X74621819Y-94231904D02*
X74469438Y-94270000D01*
X74469438Y-94270000D02*
X74355152Y-94270000D01*
X74355152Y-94270000D02*
X74202771Y-94231904D01*
X74202771Y-94231904D02*
X74126580Y-94193809D01*
X74126580Y-94193809D02*
X74050390Y-94117619D01*
X74050390Y-94117619D02*
X74012295Y-94003333D01*
X74012295Y-94003333D02*
X74012295Y-93927142D01*
X74012295Y-93927142D02*
X74050390Y-93812857D01*
X74050390Y-93812857D02*
X74088485Y-93774761D01*
X74888485Y-93622381D02*
X74888485Y-93012857D01*
X74393247Y-92555714D02*
X74431342Y-92441428D01*
X74431342Y-92441428D02*
X74469438Y-92403333D01*
X74469438Y-92403333D02*
X74545628Y-92365237D01*
X74545628Y-92365237D02*
X74659914Y-92365237D01*
X74659914Y-92365237D02*
X74736104Y-92403333D01*
X74736104Y-92403333D02*
X74774200Y-92441428D01*
X74774200Y-92441428D02*
X74812295Y-92517618D01*
X74812295Y-92517618D02*
X74812295Y-92822380D01*
X74812295Y-92822380D02*
X74012295Y-92822380D01*
X74012295Y-92822380D02*
X74012295Y-92555714D01*
X74012295Y-92555714D02*
X74050390Y-92479523D01*
X74050390Y-92479523D02*
X74088485Y-92441428D01*
X74088485Y-92441428D02*
X74164676Y-92403333D01*
X74164676Y-92403333D02*
X74240866Y-92403333D01*
X74240866Y-92403333D02*
X74317057Y-92441428D01*
X74317057Y-92441428D02*
X74355152Y-92479523D01*
X74355152Y-92479523D02*
X74393247Y-92555714D01*
X74393247Y-92555714D02*
X74393247Y-92822380D01*
X74812295Y-91565237D02*
X74431342Y-91831904D01*
X74812295Y-92022380D02*
X74012295Y-92022380D01*
X74012295Y-92022380D02*
X74012295Y-91717618D01*
X74012295Y-91717618D02*
X74050390Y-91641428D01*
X74050390Y-91641428D02*
X74088485Y-91603333D01*
X74088485Y-91603333D02*
X74164676Y-91565237D01*
X74164676Y-91565237D02*
X74278961Y-91565237D01*
X74278961Y-91565237D02*
X74355152Y-91603333D01*
X74355152Y-91603333D02*
X74393247Y-91641428D01*
X74393247Y-91641428D02*
X74431342Y-91717618D01*
X74431342Y-91717618D02*
X74431342Y-92022380D01*
X74393247Y-90955714D02*
X74431342Y-90841428D01*
X74431342Y-90841428D02*
X74469438Y-90803333D01*
X74469438Y-90803333D02*
X74545628Y-90765237D01*
X74545628Y-90765237D02*
X74659914Y-90765237D01*
X74659914Y-90765237D02*
X74736104Y-90803333D01*
X74736104Y-90803333D02*
X74774200Y-90841428D01*
X74774200Y-90841428D02*
X74812295Y-90917618D01*
X74812295Y-90917618D02*
X74812295Y-91222380D01*
X74812295Y-91222380D02*
X74012295Y-91222380D01*
X74012295Y-91222380D02*
X74012295Y-90955714D01*
X74012295Y-90955714D02*
X74050390Y-90879523D01*
X74050390Y-90879523D02*
X74088485Y-90841428D01*
X74088485Y-90841428D02*
X74164676Y-90803333D01*
X74164676Y-90803333D02*
X74240866Y-90803333D01*
X74240866Y-90803333D02*
X74317057Y-90841428D01*
X74317057Y-90841428D02*
X74355152Y-90879523D01*
X74355152Y-90879523D02*
X74393247Y-90955714D01*
X74393247Y-90955714D02*
X74393247Y-91222380D01*
X74888485Y-90612857D02*
X74888485Y-90003333D01*
X74393247Y-89546190D02*
X74393247Y-89812856D01*
X74812295Y-89812856D02*
X74012295Y-89812856D01*
X74012295Y-89812856D02*
X74012295Y-89431904D01*
X74812295Y-89127142D02*
X74012295Y-89127142D01*
X74812295Y-88365238D02*
X74812295Y-88746190D01*
X74812295Y-88746190D02*
X74012295Y-88746190D01*
X74012295Y-88212857D02*
X74012295Y-87755714D01*
X74812295Y-87984286D02*
X74012295Y-87984286D01*
X74088485Y-87527143D02*
X74050390Y-87489047D01*
X74050390Y-87489047D02*
X74012295Y-87412857D01*
X74012295Y-87412857D02*
X74012295Y-87222381D01*
X74012295Y-87222381D02*
X74050390Y-87146190D01*
X74050390Y-87146190D02*
X74088485Y-87108095D01*
X74088485Y-87108095D02*
X74164676Y-87070000D01*
X74164676Y-87070000D02*
X74240866Y-87070000D01*
X74240866Y-87070000D02*
X74355152Y-87108095D01*
X74355152Y-87108095D02*
X74812295Y-87565238D01*
X74812295Y-87565238D02*
X74812295Y-87070000D01*
X81136104Y-93231904D02*
X81174200Y-93270000D01*
X81174200Y-93270000D02*
X81212295Y-93384285D01*
X81212295Y-93384285D02*
X81212295Y-93460476D01*
X81212295Y-93460476D02*
X81174200Y-93574762D01*
X81174200Y-93574762D02*
X81098009Y-93650952D01*
X81098009Y-93650952D02*
X81021819Y-93689047D01*
X81021819Y-93689047D02*
X80869438Y-93727143D01*
X80869438Y-93727143D02*
X80755152Y-93727143D01*
X80755152Y-93727143D02*
X80602771Y-93689047D01*
X80602771Y-93689047D02*
X80526580Y-93650952D01*
X80526580Y-93650952D02*
X80450390Y-93574762D01*
X80450390Y-93574762D02*
X80412295Y-93460476D01*
X80412295Y-93460476D02*
X80412295Y-93384285D01*
X80412295Y-93384285D02*
X80450390Y-93270000D01*
X80450390Y-93270000D02*
X80488485Y-93231904D01*
X81288485Y-93079524D02*
X81288485Y-92470000D01*
X80412295Y-92393809D02*
X81212295Y-92127142D01*
X81212295Y-92127142D02*
X80412295Y-91860476D01*
X81174200Y-91631905D02*
X81212295Y-91517619D01*
X81212295Y-91517619D02*
X81212295Y-91327143D01*
X81212295Y-91327143D02*
X81174200Y-91250952D01*
X81174200Y-91250952D02*
X81136104Y-91212857D01*
X81136104Y-91212857D02*
X81059914Y-91174762D01*
X81059914Y-91174762D02*
X80983723Y-91174762D01*
X80983723Y-91174762D02*
X80907533Y-91212857D01*
X80907533Y-91212857D02*
X80869438Y-91250952D01*
X80869438Y-91250952D02*
X80831342Y-91327143D01*
X80831342Y-91327143D02*
X80793247Y-91479524D01*
X80793247Y-91479524D02*
X80755152Y-91555714D01*
X80755152Y-91555714D02*
X80717057Y-91593809D01*
X80717057Y-91593809D02*
X80640866Y-91631905D01*
X80640866Y-91631905D02*
X80564676Y-91631905D01*
X80564676Y-91631905D02*
X80488485Y-91593809D01*
X80488485Y-91593809D02*
X80450390Y-91555714D01*
X80450390Y-91555714D02*
X80412295Y-91479524D01*
X80412295Y-91479524D02*
X80412295Y-91289047D01*
X80412295Y-91289047D02*
X80450390Y-91174762D01*
X80488485Y-90870000D02*
X80450390Y-90831904D01*
X80450390Y-90831904D02*
X80412295Y-90755714D01*
X80412295Y-90755714D02*
X80412295Y-90565238D01*
X80412295Y-90565238D02*
X80450390Y-90489047D01*
X80450390Y-90489047D02*
X80488485Y-90450952D01*
X80488485Y-90450952D02*
X80564676Y-90412857D01*
X80564676Y-90412857D02*
X80640866Y-90412857D01*
X80640866Y-90412857D02*
X80755152Y-90450952D01*
X80755152Y-90450952D02*
X81212295Y-90908095D01*
X81212295Y-90908095D02*
X81212295Y-90412857D01*
X161052295Y-97716666D02*
X161623723Y-97716666D01*
X161623723Y-97716666D02*
X161738009Y-97754761D01*
X161738009Y-97754761D02*
X161814200Y-97830952D01*
X161814200Y-97830952D02*
X161852295Y-97945237D01*
X161852295Y-97945237D02*
X161852295Y-98021428D01*
X161433247Y-97069047D02*
X161471342Y-96954761D01*
X161471342Y-96954761D02*
X161509438Y-96916666D01*
X161509438Y-96916666D02*
X161585628Y-96878570D01*
X161585628Y-96878570D02*
X161699914Y-96878570D01*
X161699914Y-96878570D02*
X161776104Y-96916666D01*
X161776104Y-96916666D02*
X161814200Y-96954761D01*
X161814200Y-96954761D02*
X161852295Y-97030951D01*
X161852295Y-97030951D02*
X161852295Y-97335713D01*
X161852295Y-97335713D02*
X161052295Y-97335713D01*
X161052295Y-97335713D02*
X161052295Y-97069047D01*
X161052295Y-97069047D02*
X161090390Y-96992856D01*
X161090390Y-96992856D02*
X161128485Y-96954761D01*
X161128485Y-96954761D02*
X161204676Y-96916666D01*
X161204676Y-96916666D02*
X161280866Y-96916666D01*
X161280866Y-96916666D02*
X161357057Y-96954761D01*
X161357057Y-96954761D02*
X161395152Y-96992856D01*
X161395152Y-96992856D02*
X161433247Y-97069047D01*
X161433247Y-97069047D02*
X161433247Y-97335713D01*
X161052295Y-96535713D02*
X161699914Y-96535713D01*
X161699914Y-96535713D02*
X161776104Y-96497618D01*
X161776104Y-96497618D02*
X161814200Y-96459523D01*
X161814200Y-96459523D02*
X161852295Y-96383332D01*
X161852295Y-96383332D02*
X161852295Y-96230951D01*
X161852295Y-96230951D02*
X161814200Y-96154761D01*
X161814200Y-96154761D02*
X161776104Y-96116666D01*
X161776104Y-96116666D02*
X161699914Y-96078570D01*
X161699914Y-96078570D02*
X161052295Y-96078570D01*
X161814200Y-95735714D02*
X161852295Y-95621428D01*
X161852295Y-95621428D02*
X161852295Y-95430952D01*
X161852295Y-95430952D02*
X161814200Y-95354761D01*
X161814200Y-95354761D02*
X161776104Y-95316666D01*
X161776104Y-95316666D02*
X161699914Y-95278571D01*
X161699914Y-95278571D02*
X161623723Y-95278571D01*
X161623723Y-95278571D02*
X161547533Y-95316666D01*
X161547533Y-95316666D02*
X161509438Y-95354761D01*
X161509438Y-95354761D02*
X161471342Y-95430952D01*
X161471342Y-95430952D02*
X161433247Y-95583333D01*
X161433247Y-95583333D02*
X161395152Y-95659523D01*
X161395152Y-95659523D02*
X161357057Y-95697618D01*
X161357057Y-95697618D02*
X161280866Y-95735714D01*
X161280866Y-95735714D02*
X161204676Y-95735714D01*
X161204676Y-95735714D02*
X161128485Y-95697618D01*
X161128485Y-95697618D02*
X161090390Y-95659523D01*
X161090390Y-95659523D02*
X161052295Y-95583333D01*
X161052295Y-95583333D02*
X161052295Y-95392856D01*
X161052295Y-95392856D02*
X161090390Y-95278571D01*
X161128485Y-94973809D02*
X161090390Y-94935713D01*
X161090390Y-94935713D02*
X161052295Y-94859523D01*
X161052295Y-94859523D02*
X161052295Y-94669047D01*
X161052295Y-94669047D02*
X161090390Y-94592856D01*
X161090390Y-94592856D02*
X161128485Y-94554761D01*
X161128485Y-94554761D02*
X161204676Y-94516666D01*
X161204676Y-94516666D02*
X161280866Y-94516666D01*
X161280866Y-94516666D02*
X161395152Y-94554761D01*
X161395152Y-94554761D02*
X161852295Y-95011904D01*
X161852295Y-95011904D02*
X161852295Y-94516666D01*
X83319048Y-105156104D02*
X83280952Y-105194200D01*
X83280952Y-105194200D02*
X83166667Y-105232295D01*
X83166667Y-105232295D02*
X83090476Y-105232295D01*
X83090476Y-105232295D02*
X82976190Y-105194200D01*
X82976190Y-105194200D02*
X82900000Y-105118009D01*
X82900000Y-105118009D02*
X82861905Y-105041819D01*
X82861905Y-105041819D02*
X82823809Y-104889438D01*
X82823809Y-104889438D02*
X82823809Y-104775152D01*
X82823809Y-104775152D02*
X82861905Y-104622771D01*
X82861905Y-104622771D02*
X82900000Y-104546580D01*
X82900000Y-104546580D02*
X82976190Y-104470390D01*
X82976190Y-104470390D02*
X83090476Y-104432295D01*
X83090476Y-104432295D02*
X83166667Y-104432295D01*
X83166667Y-104432295D02*
X83280952Y-104470390D01*
X83280952Y-104470390D02*
X83319048Y-104508485D01*
X83471429Y-105308485D02*
X84080952Y-105308485D01*
X84157143Y-104432295D02*
X84423810Y-105232295D01*
X84423810Y-105232295D02*
X84690476Y-104432295D01*
X85414286Y-105156104D02*
X85376190Y-105194200D01*
X85376190Y-105194200D02*
X85261905Y-105232295D01*
X85261905Y-105232295D02*
X85185714Y-105232295D01*
X85185714Y-105232295D02*
X85071428Y-105194200D01*
X85071428Y-105194200D02*
X84995238Y-105118009D01*
X84995238Y-105118009D02*
X84957143Y-105041819D01*
X84957143Y-105041819D02*
X84919047Y-104889438D01*
X84919047Y-104889438D02*
X84919047Y-104775152D01*
X84919047Y-104775152D02*
X84957143Y-104622771D01*
X84957143Y-104622771D02*
X84995238Y-104546580D01*
X84995238Y-104546580D02*
X85071428Y-104470390D01*
X85071428Y-104470390D02*
X85185714Y-104432295D01*
X85185714Y-104432295D02*
X85261905Y-104432295D01*
X85261905Y-104432295D02*
X85376190Y-104470390D01*
X85376190Y-104470390D02*
X85414286Y-104508485D01*
X85757143Y-105232295D02*
X85757143Y-104432295D01*
X85757143Y-104432295D02*
X86061905Y-104432295D01*
X86061905Y-104432295D02*
X86138095Y-104470390D01*
X86138095Y-104470390D02*
X86176190Y-104508485D01*
X86176190Y-104508485D02*
X86214286Y-104584676D01*
X86214286Y-104584676D02*
X86214286Y-104698961D01*
X86214286Y-104698961D02*
X86176190Y-104775152D01*
X86176190Y-104775152D02*
X86138095Y-104813247D01*
X86138095Y-104813247D02*
X86061905Y-104851342D01*
X86061905Y-104851342D02*
X85757143Y-104851342D01*
X86480952Y-104432295D02*
X86976190Y-104432295D01*
X86976190Y-104432295D02*
X86709524Y-104737057D01*
X86709524Y-104737057D02*
X86823809Y-104737057D01*
X86823809Y-104737057D02*
X86900000Y-104775152D01*
X86900000Y-104775152D02*
X86938095Y-104813247D01*
X86938095Y-104813247D02*
X86976190Y-104889438D01*
X86976190Y-104889438D02*
X86976190Y-105079914D01*
X86976190Y-105079914D02*
X86938095Y-105156104D01*
X86938095Y-105156104D02*
X86900000Y-105194200D01*
X86900000Y-105194200D02*
X86823809Y-105232295D01*
X86823809Y-105232295D02*
X86595238Y-105232295D01*
X86595238Y-105232295D02*
X86519047Y-105194200D01*
X86519047Y-105194200D02*
X86480952Y-105156104D01*
X82986104Y-102317618D02*
X83024200Y-102355714D01*
X83024200Y-102355714D02*
X83062295Y-102469999D01*
X83062295Y-102469999D02*
X83062295Y-102546190D01*
X83062295Y-102546190D02*
X83024200Y-102660476D01*
X83024200Y-102660476D02*
X82948009Y-102736666D01*
X82948009Y-102736666D02*
X82871819Y-102774761D01*
X82871819Y-102774761D02*
X82719438Y-102812857D01*
X82719438Y-102812857D02*
X82605152Y-102812857D01*
X82605152Y-102812857D02*
X82452771Y-102774761D01*
X82452771Y-102774761D02*
X82376580Y-102736666D01*
X82376580Y-102736666D02*
X82300390Y-102660476D01*
X82300390Y-102660476D02*
X82262295Y-102546190D01*
X82262295Y-102546190D02*
X82262295Y-102469999D01*
X82262295Y-102469999D02*
X82300390Y-102355714D01*
X82300390Y-102355714D02*
X82338485Y-102317618D01*
X83138485Y-102165238D02*
X83138485Y-101555714D01*
X82643247Y-101098571D02*
X82681342Y-100984285D01*
X82681342Y-100984285D02*
X82719438Y-100946190D01*
X82719438Y-100946190D02*
X82795628Y-100908094D01*
X82795628Y-100908094D02*
X82909914Y-100908094D01*
X82909914Y-100908094D02*
X82986104Y-100946190D01*
X82986104Y-100946190D02*
X83024200Y-100984285D01*
X83024200Y-100984285D02*
X83062295Y-101060475D01*
X83062295Y-101060475D02*
X83062295Y-101365237D01*
X83062295Y-101365237D02*
X82262295Y-101365237D01*
X82262295Y-101365237D02*
X82262295Y-101098571D01*
X82262295Y-101098571D02*
X82300390Y-101022380D01*
X82300390Y-101022380D02*
X82338485Y-100984285D01*
X82338485Y-100984285D02*
X82414676Y-100946190D01*
X82414676Y-100946190D02*
X82490866Y-100946190D01*
X82490866Y-100946190D02*
X82567057Y-100984285D01*
X82567057Y-100984285D02*
X82605152Y-101022380D01*
X82605152Y-101022380D02*
X82643247Y-101098571D01*
X82643247Y-101098571D02*
X82643247Y-101365237D01*
X83062295Y-100108094D02*
X82681342Y-100374761D01*
X83062295Y-100565237D02*
X82262295Y-100565237D01*
X82262295Y-100565237D02*
X82262295Y-100260475D01*
X82262295Y-100260475D02*
X82300390Y-100184285D01*
X82300390Y-100184285D02*
X82338485Y-100146190D01*
X82338485Y-100146190D02*
X82414676Y-100108094D01*
X82414676Y-100108094D02*
X82528961Y-100108094D01*
X82528961Y-100108094D02*
X82605152Y-100146190D01*
X82605152Y-100146190D02*
X82643247Y-100184285D01*
X82643247Y-100184285D02*
X82681342Y-100260475D01*
X82681342Y-100260475D02*
X82681342Y-100565237D01*
X82833723Y-99803333D02*
X82833723Y-99422380D01*
X83062295Y-99879523D02*
X82262295Y-99612856D01*
X82262295Y-99612856D02*
X83062295Y-99346190D01*
X83138485Y-99270000D02*
X83138485Y-98660476D01*
X82643247Y-98203333D02*
X82643247Y-98469999D01*
X83062295Y-98469999D02*
X82262295Y-98469999D01*
X82262295Y-98469999D02*
X82262295Y-98089047D01*
X83062295Y-97784285D02*
X82262295Y-97784285D01*
X83062295Y-97022381D02*
X83062295Y-97403333D01*
X83062295Y-97403333D02*
X82262295Y-97403333D01*
X82262295Y-96870000D02*
X82262295Y-96412857D01*
X83062295Y-96641429D02*
X82262295Y-96641429D01*
X82262295Y-96222381D02*
X82262295Y-95727143D01*
X82262295Y-95727143D02*
X82567057Y-95993809D01*
X82567057Y-95993809D02*
X82567057Y-95879524D01*
X82567057Y-95879524D02*
X82605152Y-95803333D01*
X82605152Y-95803333D02*
X82643247Y-95765238D01*
X82643247Y-95765238D02*
X82719438Y-95727143D01*
X82719438Y-95727143D02*
X82909914Y-95727143D01*
X82909914Y-95727143D02*
X82986104Y-95765238D01*
X82986104Y-95765238D02*
X83024200Y-95803333D01*
X83024200Y-95803333D02*
X83062295Y-95879524D01*
X83062295Y-95879524D02*
X83062295Y-96108095D01*
X83062295Y-96108095D02*
X83024200Y-96184286D01*
X83024200Y-96184286D02*
X82986104Y-96222381D01*
X74986104Y-119774761D02*
X75024200Y-119812857D01*
X75024200Y-119812857D02*
X75062295Y-119927142D01*
X75062295Y-119927142D02*
X75062295Y-120003333D01*
X75062295Y-120003333D02*
X75024200Y-120117619D01*
X75024200Y-120117619D02*
X74948009Y-120193809D01*
X74948009Y-120193809D02*
X74871819Y-120231904D01*
X74871819Y-120231904D02*
X74719438Y-120270000D01*
X74719438Y-120270000D02*
X74605152Y-120270000D01*
X74605152Y-120270000D02*
X74452771Y-120231904D01*
X74452771Y-120231904D02*
X74376580Y-120193809D01*
X74376580Y-120193809D02*
X74300390Y-120117619D01*
X74300390Y-120117619D02*
X74262295Y-120003333D01*
X74262295Y-120003333D02*
X74262295Y-119927142D01*
X74262295Y-119927142D02*
X74300390Y-119812857D01*
X74300390Y-119812857D02*
X74338485Y-119774761D01*
X75138485Y-119622381D02*
X75138485Y-119012857D01*
X74643247Y-118555714D02*
X74681342Y-118441428D01*
X74681342Y-118441428D02*
X74719438Y-118403333D01*
X74719438Y-118403333D02*
X74795628Y-118365237D01*
X74795628Y-118365237D02*
X74909914Y-118365237D01*
X74909914Y-118365237D02*
X74986104Y-118403333D01*
X74986104Y-118403333D02*
X75024200Y-118441428D01*
X75024200Y-118441428D02*
X75062295Y-118517618D01*
X75062295Y-118517618D02*
X75062295Y-118822380D01*
X75062295Y-118822380D02*
X74262295Y-118822380D01*
X74262295Y-118822380D02*
X74262295Y-118555714D01*
X74262295Y-118555714D02*
X74300390Y-118479523D01*
X74300390Y-118479523D02*
X74338485Y-118441428D01*
X74338485Y-118441428D02*
X74414676Y-118403333D01*
X74414676Y-118403333D02*
X74490866Y-118403333D01*
X74490866Y-118403333D02*
X74567057Y-118441428D01*
X74567057Y-118441428D02*
X74605152Y-118479523D01*
X74605152Y-118479523D02*
X74643247Y-118555714D01*
X74643247Y-118555714D02*
X74643247Y-118822380D01*
X75062295Y-117565237D02*
X74681342Y-117831904D01*
X75062295Y-118022380D02*
X74262295Y-118022380D01*
X74262295Y-118022380D02*
X74262295Y-117717618D01*
X74262295Y-117717618D02*
X74300390Y-117641428D01*
X74300390Y-117641428D02*
X74338485Y-117603333D01*
X74338485Y-117603333D02*
X74414676Y-117565237D01*
X74414676Y-117565237D02*
X74528961Y-117565237D01*
X74528961Y-117565237D02*
X74605152Y-117603333D01*
X74605152Y-117603333D02*
X74643247Y-117641428D01*
X74643247Y-117641428D02*
X74681342Y-117717618D01*
X74681342Y-117717618D02*
X74681342Y-118022380D01*
X74643247Y-116955714D02*
X74681342Y-116841428D01*
X74681342Y-116841428D02*
X74719438Y-116803333D01*
X74719438Y-116803333D02*
X74795628Y-116765237D01*
X74795628Y-116765237D02*
X74909914Y-116765237D01*
X74909914Y-116765237D02*
X74986104Y-116803333D01*
X74986104Y-116803333D02*
X75024200Y-116841428D01*
X75024200Y-116841428D02*
X75062295Y-116917618D01*
X75062295Y-116917618D02*
X75062295Y-117222380D01*
X75062295Y-117222380D02*
X74262295Y-117222380D01*
X74262295Y-117222380D02*
X74262295Y-116955714D01*
X74262295Y-116955714D02*
X74300390Y-116879523D01*
X74300390Y-116879523D02*
X74338485Y-116841428D01*
X74338485Y-116841428D02*
X74414676Y-116803333D01*
X74414676Y-116803333D02*
X74490866Y-116803333D01*
X74490866Y-116803333D02*
X74567057Y-116841428D01*
X74567057Y-116841428D02*
X74605152Y-116879523D01*
X74605152Y-116879523D02*
X74643247Y-116955714D01*
X74643247Y-116955714D02*
X74643247Y-117222380D01*
X75138485Y-116612857D02*
X75138485Y-116003333D01*
X74643247Y-115546190D02*
X74643247Y-115812856D01*
X75062295Y-115812856D02*
X74262295Y-115812856D01*
X74262295Y-115812856D02*
X74262295Y-115431904D01*
X75062295Y-115127142D02*
X74262295Y-115127142D01*
X75062295Y-114365238D02*
X75062295Y-114746190D01*
X75062295Y-114746190D02*
X74262295Y-114746190D01*
X74262295Y-114212857D02*
X74262295Y-113755714D01*
X75062295Y-113984286D02*
X74262295Y-113984286D01*
X74262295Y-113565238D02*
X74262295Y-113070000D01*
X74262295Y-113070000D02*
X74567057Y-113336666D01*
X74567057Y-113336666D02*
X74567057Y-113222381D01*
X74567057Y-113222381D02*
X74605152Y-113146190D01*
X74605152Y-113146190D02*
X74643247Y-113108095D01*
X74643247Y-113108095D02*
X74719438Y-113070000D01*
X74719438Y-113070000D02*
X74909914Y-113070000D01*
X74909914Y-113070000D02*
X74986104Y-113108095D01*
X74986104Y-113108095D02*
X75024200Y-113146190D01*
X75024200Y-113146190D02*
X75062295Y-113222381D01*
X75062295Y-113222381D02*
X75062295Y-113450952D01*
X75062295Y-113450952D02*
X75024200Y-113527143D01*
X75024200Y-113527143D02*
X74986104Y-113565238D01*
X84411905Y-80556104D02*
X84373809Y-80594200D01*
X84373809Y-80594200D02*
X84259524Y-80632295D01*
X84259524Y-80632295D02*
X84183333Y-80632295D01*
X84183333Y-80632295D02*
X84069047Y-80594200D01*
X84069047Y-80594200D02*
X83992857Y-80518009D01*
X83992857Y-80518009D02*
X83954762Y-80441819D01*
X83954762Y-80441819D02*
X83916666Y-80289438D01*
X83916666Y-80289438D02*
X83916666Y-80175152D01*
X83916666Y-80175152D02*
X83954762Y-80022771D01*
X83954762Y-80022771D02*
X83992857Y-79946580D01*
X83992857Y-79946580D02*
X84069047Y-79870390D01*
X84069047Y-79870390D02*
X84183333Y-79832295D01*
X84183333Y-79832295D02*
X84259524Y-79832295D01*
X84259524Y-79832295D02*
X84373809Y-79870390D01*
X84373809Y-79870390D02*
X84411905Y-79908485D01*
X84564286Y-80708485D02*
X85173809Y-80708485D01*
X85821429Y-80556104D02*
X85783333Y-80594200D01*
X85783333Y-80594200D02*
X85669048Y-80632295D01*
X85669048Y-80632295D02*
X85592857Y-80632295D01*
X85592857Y-80632295D02*
X85478571Y-80594200D01*
X85478571Y-80594200D02*
X85402381Y-80518009D01*
X85402381Y-80518009D02*
X85364286Y-80441819D01*
X85364286Y-80441819D02*
X85326190Y-80289438D01*
X85326190Y-80289438D02*
X85326190Y-80175152D01*
X85326190Y-80175152D02*
X85364286Y-80022771D01*
X85364286Y-80022771D02*
X85402381Y-79946580D01*
X85402381Y-79946580D02*
X85478571Y-79870390D01*
X85478571Y-79870390D02*
X85592857Y-79832295D01*
X85592857Y-79832295D02*
X85669048Y-79832295D01*
X85669048Y-79832295D02*
X85783333Y-79870390D01*
X85783333Y-79870390D02*
X85821429Y-79908485D01*
X86164286Y-80632295D02*
X86164286Y-79832295D01*
X86164286Y-79832295D02*
X86469048Y-79832295D01*
X86469048Y-79832295D02*
X86545238Y-79870390D01*
X86545238Y-79870390D02*
X86583333Y-79908485D01*
X86583333Y-79908485D02*
X86621429Y-79984676D01*
X86621429Y-79984676D02*
X86621429Y-80098961D01*
X86621429Y-80098961D02*
X86583333Y-80175152D01*
X86583333Y-80175152D02*
X86545238Y-80213247D01*
X86545238Y-80213247D02*
X86469048Y-80251342D01*
X86469048Y-80251342D02*
X86164286Y-80251342D01*
X86926190Y-79908485D02*
X86964286Y-79870390D01*
X86964286Y-79870390D02*
X87040476Y-79832295D01*
X87040476Y-79832295D02*
X87230952Y-79832295D01*
X87230952Y-79832295D02*
X87307143Y-79870390D01*
X87307143Y-79870390D02*
X87345238Y-79908485D01*
X87345238Y-79908485D02*
X87383333Y-79984676D01*
X87383333Y-79984676D02*
X87383333Y-80060866D01*
X87383333Y-80060866D02*
X87345238Y-80175152D01*
X87345238Y-80175152D02*
X86888095Y-80632295D01*
X86888095Y-80632295D02*
X87383333Y-80632295D01*
X84661905Y-106556104D02*
X84623809Y-106594200D01*
X84623809Y-106594200D02*
X84509524Y-106632295D01*
X84509524Y-106632295D02*
X84433333Y-106632295D01*
X84433333Y-106632295D02*
X84319047Y-106594200D01*
X84319047Y-106594200D02*
X84242857Y-106518009D01*
X84242857Y-106518009D02*
X84204762Y-106441819D01*
X84204762Y-106441819D02*
X84166666Y-106289438D01*
X84166666Y-106289438D02*
X84166666Y-106175152D01*
X84166666Y-106175152D02*
X84204762Y-106022771D01*
X84204762Y-106022771D02*
X84242857Y-105946580D01*
X84242857Y-105946580D02*
X84319047Y-105870390D01*
X84319047Y-105870390D02*
X84433333Y-105832295D01*
X84433333Y-105832295D02*
X84509524Y-105832295D01*
X84509524Y-105832295D02*
X84623809Y-105870390D01*
X84623809Y-105870390D02*
X84661905Y-105908485D01*
X84814286Y-106708485D02*
X85423809Y-106708485D01*
X86071429Y-106556104D02*
X86033333Y-106594200D01*
X86033333Y-106594200D02*
X85919048Y-106632295D01*
X85919048Y-106632295D02*
X85842857Y-106632295D01*
X85842857Y-106632295D02*
X85728571Y-106594200D01*
X85728571Y-106594200D02*
X85652381Y-106518009D01*
X85652381Y-106518009D02*
X85614286Y-106441819D01*
X85614286Y-106441819D02*
X85576190Y-106289438D01*
X85576190Y-106289438D02*
X85576190Y-106175152D01*
X85576190Y-106175152D02*
X85614286Y-106022771D01*
X85614286Y-106022771D02*
X85652381Y-105946580D01*
X85652381Y-105946580D02*
X85728571Y-105870390D01*
X85728571Y-105870390D02*
X85842857Y-105832295D01*
X85842857Y-105832295D02*
X85919048Y-105832295D01*
X85919048Y-105832295D02*
X86033333Y-105870390D01*
X86033333Y-105870390D02*
X86071429Y-105908485D01*
X86414286Y-106632295D02*
X86414286Y-105832295D01*
X86414286Y-105832295D02*
X86719048Y-105832295D01*
X86719048Y-105832295D02*
X86795238Y-105870390D01*
X86795238Y-105870390D02*
X86833333Y-105908485D01*
X86833333Y-105908485D02*
X86871429Y-105984676D01*
X86871429Y-105984676D02*
X86871429Y-106098961D01*
X86871429Y-106098961D02*
X86833333Y-106175152D01*
X86833333Y-106175152D02*
X86795238Y-106213247D01*
X86795238Y-106213247D02*
X86719048Y-106251342D01*
X86719048Y-106251342D02*
X86414286Y-106251342D01*
X87138095Y-105832295D02*
X87633333Y-105832295D01*
X87633333Y-105832295D02*
X87366667Y-106137057D01*
X87366667Y-106137057D02*
X87480952Y-106137057D01*
X87480952Y-106137057D02*
X87557143Y-106175152D01*
X87557143Y-106175152D02*
X87595238Y-106213247D01*
X87595238Y-106213247D02*
X87633333Y-106289438D01*
X87633333Y-106289438D02*
X87633333Y-106479914D01*
X87633333Y-106479914D02*
X87595238Y-106556104D01*
X87595238Y-106556104D02*
X87557143Y-106594200D01*
X87557143Y-106594200D02*
X87480952Y-106632295D01*
X87480952Y-106632295D02*
X87252381Y-106632295D01*
X87252381Y-106632295D02*
X87176190Y-106594200D01*
X87176190Y-106594200D02*
X87138095Y-106556104D01*
X71362295Y-84367619D02*
X71933723Y-84367619D01*
X71933723Y-84367619D02*
X72048009Y-84405714D01*
X72048009Y-84405714D02*
X72124200Y-84481905D01*
X72124200Y-84481905D02*
X72162295Y-84596190D01*
X72162295Y-84596190D02*
X72162295Y-84672381D01*
X72162295Y-83986666D02*
X71362295Y-83986666D01*
X71362295Y-83986666D02*
X71933723Y-83720000D01*
X71933723Y-83720000D02*
X71362295Y-83453333D01*
X71362295Y-83453333D02*
X72162295Y-83453333D01*
X71362295Y-82919999D02*
X71362295Y-82767618D01*
X71362295Y-82767618D02*
X71400390Y-82691428D01*
X71400390Y-82691428D02*
X71476580Y-82615237D01*
X71476580Y-82615237D02*
X71628961Y-82577142D01*
X71628961Y-82577142D02*
X71895628Y-82577142D01*
X71895628Y-82577142D02*
X72048009Y-82615237D01*
X72048009Y-82615237D02*
X72124200Y-82691428D01*
X72124200Y-82691428D02*
X72162295Y-82767618D01*
X72162295Y-82767618D02*
X72162295Y-82919999D01*
X72162295Y-82919999D02*
X72124200Y-82996190D01*
X72124200Y-82996190D02*
X72048009Y-83072380D01*
X72048009Y-83072380D02*
X71895628Y-83110476D01*
X71895628Y-83110476D02*
X71628961Y-83110476D01*
X71628961Y-83110476D02*
X71476580Y-83072380D01*
X71476580Y-83072380D02*
X71400390Y-82996190D01*
X71400390Y-82996190D02*
X71362295Y-82919999D01*
X71362295Y-82348571D02*
X71362295Y-81891428D01*
X72162295Y-82120000D02*
X71362295Y-82120000D01*
X72162295Y-81205714D02*
X72162295Y-81662857D01*
X72162295Y-81434285D02*
X71362295Y-81434285D01*
X71362295Y-81434285D02*
X71476580Y-81510476D01*
X71476580Y-81510476D02*
X71552771Y-81586666D01*
X71552771Y-81586666D02*
X71590866Y-81662857D01*
X71357295Y-110513358D02*
X71928723Y-110513358D01*
X71928723Y-110513358D02*
X72043009Y-110551453D01*
X72043009Y-110551453D02*
X72119200Y-110627644D01*
X72119200Y-110627644D02*
X72157295Y-110741929D01*
X72157295Y-110741929D02*
X72157295Y-110818120D01*
X72157295Y-110132405D02*
X71357295Y-110132405D01*
X71357295Y-110132405D02*
X71928723Y-109865739D01*
X71928723Y-109865739D02*
X71357295Y-109599072D01*
X71357295Y-109599072D02*
X72157295Y-109599072D01*
X71357295Y-109065738D02*
X71357295Y-108913357D01*
X71357295Y-108913357D02*
X71395390Y-108837167D01*
X71395390Y-108837167D02*
X71471580Y-108760976D01*
X71471580Y-108760976D02*
X71623961Y-108722881D01*
X71623961Y-108722881D02*
X71890628Y-108722881D01*
X71890628Y-108722881D02*
X72043009Y-108760976D01*
X72043009Y-108760976D02*
X72119200Y-108837167D01*
X72119200Y-108837167D02*
X72157295Y-108913357D01*
X72157295Y-108913357D02*
X72157295Y-109065738D01*
X72157295Y-109065738D02*
X72119200Y-109141929D01*
X72119200Y-109141929D02*
X72043009Y-109218119D01*
X72043009Y-109218119D02*
X71890628Y-109256215D01*
X71890628Y-109256215D02*
X71623961Y-109256215D01*
X71623961Y-109256215D02*
X71471580Y-109218119D01*
X71471580Y-109218119D02*
X71395390Y-109141929D01*
X71395390Y-109141929D02*
X71357295Y-109065738D01*
X71357295Y-108494310D02*
X71357295Y-108037167D01*
X72157295Y-108265739D02*
X71357295Y-108265739D01*
X71433485Y-107808596D02*
X71395390Y-107770500D01*
X71395390Y-107770500D02*
X71357295Y-107694310D01*
X71357295Y-107694310D02*
X71357295Y-107503834D01*
X71357295Y-107503834D02*
X71395390Y-107427643D01*
X71395390Y-107427643D02*
X71433485Y-107389548D01*
X71433485Y-107389548D02*
X71509676Y-107351453D01*
X71509676Y-107351453D02*
X71585866Y-107351453D01*
X71585866Y-107351453D02*
X71700152Y-107389548D01*
X71700152Y-107389548D02*
X72157295Y-107846691D01*
X72157295Y-107846691D02*
X72157295Y-107351453D01*
X81386104Y-119231904D02*
X81424200Y-119270000D01*
X81424200Y-119270000D02*
X81462295Y-119384285D01*
X81462295Y-119384285D02*
X81462295Y-119460476D01*
X81462295Y-119460476D02*
X81424200Y-119574762D01*
X81424200Y-119574762D02*
X81348009Y-119650952D01*
X81348009Y-119650952D02*
X81271819Y-119689047D01*
X81271819Y-119689047D02*
X81119438Y-119727143D01*
X81119438Y-119727143D02*
X81005152Y-119727143D01*
X81005152Y-119727143D02*
X80852771Y-119689047D01*
X80852771Y-119689047D02*
X80776580Y-119650952D01*
X80776580Y-119650952D02*
X80700390Y-119574762D01*
X80700390Y-119574762D02*
X80662295Y-119460476D01*
X80662295Y-119460476D02*
X80662295Y-119384285D01*
X80662295Y-119384285D02*
X80700390Y-119270000D01*
X80700390Y-119270000D02*
X80738485Y-119231904D01*
X81538485Y-119079524D02*
X81538485Y-118470000D01*
X80662295Y-118393809D02*
X81462295Y-118127142D01*
X81462295Y-118127142D02*
X80662295Y-117860476D01*
X81424200Y-117631905D02*
X81462295Y-117517619D01*
X81462295Y-117517619D02*
X81462295Y-117327143D01*
X81462295Y-117327143D02*
X81424200Y-117250952D01*
X81424200Y-117250952D02*
X81386104Y-117212857D01*
X81386104Y-117212857D02*
X81309914Y-117174762D01*
X81309914Y-117174762D02*
X81233723Y-117174762D01*
X81233723Y-117174762D02*
X81157533Y-117212857D01*
X81157533Y-117212857D02*
X81119438Y-117250952D01*
X81119438Y-117250952D02*
X81081342Y-117327143D01*
X81081342Y-117327143D02*
X81043247Y-117479524D01*
X81043247Y-117479524D02*
X81005152Y-117555714D01*
X81005152Y-117555714D02*
X80967057Y-117593809D01*
X80967057Y-117593809D02*
X80890866Y-117631905D01*
X80890866Y-117631905D02*
X80814676Y-117631905D01*
X80814676Y-117631905D02*
X80738485Y-117593809D01*
X80738485Y-117593809D02*
X80700390Y-117555714D01*
X80700390Y-117555714D02*
X80662295Y-117479524D01*
X80662295Y-117479524D02*
X80662295Y-117289047D01*
X80662295Y-117289047D02*
X80700390Y-117174762D01*
X80662295Y-116908095D02*
X80662295Y-116412857D01*
X80662295Y-116412857D02*
X80967057Y-116679523D01*
X80967057Y-116679523D02*
X80967057Y-116565238D01*
X80967057Y-116565238D02*
X81005152Y-116489047D01*
X81005152Y-116489047D02*
X81043247Y-116450952D01*
X81043247Y-116450952D02*
X81119438Y-116412857D01*
X81119438Y-116412857D02*
X81309914Y-116412857D01*
X81309914Y-116412857D02*
X81386104Y-116450952D01*
X81386104Y-116450952D02*
X81424200Y-116489047D01*
X81424200Y-116489047D02*
X81462295Y-116565238D01*
X81462295Y-116565238D02*
X81462295Y-116793809D01*
X81462295Y-116793809D02*
X81424200Y-116870000D01*
X81424200Y-116870000D02*
X81386104Y-116908095D01*
X130297380Y-116559819D02*
X129964047Y-116083628D01*
X129725952Y-116559819D02*
X129725952Y-115559819D01*
X129725952Y-115559819D02*
X130106904Y-115559819D01*
X130106904Y-115559819D02*
X130202142Y-115607438D01*
X130202142Y-115607438D02*
X130249761Y-115655057D01*
X130249761Y-115655057D02*
X130297380Y-115750295D01*
X130297380Y-115750295D02*
X130297380Y-115893152D01*
X130297380Y-115893152D02*
X130249761Y-115988390D01*
X130249761Y-115988390D02*
X130202142Y-116036009D01*
X130202142Y-116036009D02*
X130106904Y-116083628D01*
X130106904Y-116083628D02*
X129725952Y-116083628D01*
X130487857Y-116655057D02*
X131249761Y-116655057D01*
X132059285Y-116464580D02*
X132011666Y-116512200D01*
X132011666Y-116512200D02*
X131868809Y-116559819D01*
X131868809Y-116559819D02*
X131773571Y-116559819D01*
X131773571Y-116559819D02*
X131630714Y-116512200D01*
X131630714Y-116512200D02*
X131535476Y-116416961D01*
X131535476Y-116416961D02*
X131487857Y-116321723D01*
X131487857Y-116321723D02*
X131440238Y-116131247D01*
X131440238Y-116131247D02*
X131440238Y-115988390D01*
X131440238Y-115988390D02*
X131487857Y-115797914D01*
X131487857Y-115797914D02*
X131535476Y-115702676D01*
X131535476Y-115702676D02*
X131630714Y-115607438D01*
X131630714Y-115607438D02*
X131773571Y-115559819D01*
X131773571Y-115559819D02*
X131868809Y-115559819D01*
X131868809Y-115559819D02*
X132011666Y-115607438D01*
X132011666Y-115607438D02*
X132059285Y-115655057D01*
X133059285Y-116464580D02*
X133011666Y-116512200D01*
X133011666Y-116512200D02*
X132868809Y-116559819D01*
X132868809Y-116559819D02*
X132773571Y-116559819D01*
X132773571Y-116559819D02*
X132630714Y-116512200D01*
X132630714Y-116512200D02*
X132535476Y-116416961D01*
X132535476Y-116416961D02*
X132487857Y-116321723D01*
X132487857Y-116321723D02*
X132440238Y-116131247D01*
X132440238Y-116131247D02*
X132440238Y-115988390D01*
X132440238Y-115988390D02*
X132487857Y-115797914D01*
X132487857Y-115797914D02*
X132535476Y-115702676D01*
X132535476Y-115702676D02*
X132630714Y-115607438D01*
X132630714Y-115607438D02*
X132773571Y-115559819D01*
X132773571Y-115559819D02*
X132868809Y-115559819D01*
X132868809Y-115559819D02*
X133011666Y-115607438D01*
X133011666Y-115607438D02*
X133059285Y-115655057D01*
X134011666Y-116559819D02*
X133440238Y-116559819D01*
X133725952Y-116559819D02*
X133725952Y-115559819D01*
X133725952Y-115559819D02*
X133630714Y-115702676D01*
X133630714Y-115702676D02*
X133535476Y-115797914D01*
X133535476Y-115797914D02*
X133440238Y-115845533D01*
X78005476Y-78637295D02*
X78005476Y-79284914D01*
X78005476Y-79284914D02*
X78043571Y-79361104D01*
X78043571Y-79361104D02*
X78081666Y-79399200D01*
X78081666Y-79399200D02*
X78157857Y-79437295D01*
X78157857Y-79437295D02*
X78310238Y-79437295D01*
X78310238Y-79437295D02*
X78386428Y-79399200D01*
X78386428Y-79399200D02*
X78424523Y-79361104D01*
X78424523Y-79361104D02*
X78462619Y-79284914D01*
X78462619Y-79284914D02*
X78462619Y-78637295D01*
X78805475Y-78713485D02*
X78843571Y-78675390D01*
X78843571Y-78675390D02*
X78919761Y-78637295D01*
X78919761Y-78637295D02*
X79110237Y-78637295D01*
X79110237Y-78637295D02*
X79186428Y-78675390D01*
X79186428Y-78675390D02*
X79224523Y-78713485D01*
X79224523Y-78713485D02*
X79262618Y-78789676D01*
X79262618Y-78789676D02*
X79262618Y-78865866D01*
X79262618Y-78865866D02*
X79224523Y-78980152D01*
X79224523Y-78980152D02*
X78767380Y-79437295D01*
X78767380Y-79437295D02*
X79262618Y-79437295D01*
X145732143Y-122282200D02*
X145875000Y-122329819D01*
X145875000Y-122329819D02*
X146113095Y-122329819D01*
X146113095Y-122329819D02*
X146208333Y-122282200D01*
X146208333Y-122282200D02*
X146255952Y-122234580D01*
X146255952Y-122234580D02*
X146303571Y-122139342D01*
X146303571Y-122139342D02*
X146303571Y-122044104D01*
X146303571Y-122044104D02*
X146255952Y-121948866D01*
X146255952Y-121948866D02*
X146208333Y-121901247D01*
X146208333Y-121901247D02*
X146113095Y-121853628D01*
X146113095Y-121853628D02*
X145922619Y-121806009D01*
X145922619Y-121806009D02*
X145827381Y-121758390D01*
X145827381Y-121758390D02*
X145779762Y-121710771D01*
X145779762Y-121710771D02*
X145732143Y-121615533D01*
X145732143Y-121615533D02*
X145732143Y-121520295D01*
X145732143Y-121520295D02*
X145779762Y-121425057D01*
X145779762Y-121425057D02*
X145827381Y-121377438D01*
X145827381Y-121377438D02*
X145922619Y-121329819D01*
X145922619Y-121329819D02*
X146160714Y-121329819D01*
X146160714Y-121329819D02*
X146303571Y-121377438D01*
X146636905Y-121329819D02*
X146875000Y-122329819D01*
X146875000Y-122329819D02*
X147065476Y-121615533D01*
X147065476Y-121615533D02*
X147255952Y-122329819D01*
X147255952Y-122329819D02*
X147494048Y-121329819D01*
X147636905Y-122425057D02*
X148398809Y-122425057D01*
X148970238Y-121806009D02*
X149113095Y-121853628D01*
X149113095Y-121853628D02*
X149160714Y-121901247D01*
X149160714Y-121901247D02*
X149208333Y-121996485D01*
X149208333Y-121996485D02*
X149208333Y-122139342D01*
X149208333Y-122139342D02*
X149160714Y-122234580D01*
X149160714Y-122234580D02*
X149113095Y-122282200D01*
X149113095Y-122282200D02*
X149017857Y-122329819D01*
X149017857Y-122329819D02*
X148636905Y-122329819D01*
X148636905Y-122329819D02*
X148636905Y-121329819D01*
X148636905Y-121329819D02*
X148970238Y-121329819D01*
X148970238Y-121329819D02*
X149065476Y-121377438D01*
X149065476Y-121377438D02*
X149113095Y-121425057D01*
X149113095Y-121425057D02*
X149160714Y-121520295D01*
X149160714Y-121520295D02*
X149160714Y-121615533D01*
X149160714Y-121615533D02*
X149113095Y-121710771D01*
X149113095Y-121710771D02*
X149065476Y-121758390D01*
X149065476Y-121758390D02*
X148970238Y-121806009D01*
X148970238Y-121806009D02*
X148636905Y-121806009D01*
X149827381Y-121329819D02*
X150017857Y-121329819D01*
X150017857Y-121329819D02*
X150113095Y-121377438D01*
X150113095Y-121377438D02*
X150208333Y-121472676D01*
X150208333Y-121472676D02*
X150255952Y-121663152D01*
X150255952Y-121663152D02*
X150255952Y-121996485D01*
X150255952Y-121996485D02*
X150208333Y-122186961D01*
X150208333Y-122186961D02*
X150113095Y-122282200D01*
X150113095Y-122282200D02*
X150017857Y-122329819D01*
X150017857Y-122329819D02*
X149827381Y-122329819D01*
X149827381Y-122329819D02*
X149732143Y-122282200D01*
X149732143Y-122282200D02*
X149636905Y-122186961D01*
X149636905Y-122186961D02*
X149589286Y-121996485D01*
X149589286Y-121996485D02*
X149589286Y-121663152D01*
X149589286Y-121663152D02*
X149636905Y-121472676D01*
X149636905Y-121472676D02*
X149732143Y-121377438D01*
X149732143Y-121377438D02*
X149827381Y-121329819D01*
X150875000Y-121329819D02*
X151065476Y-121329819D01*
X151065476Y-121329819D02*
X151160714Y-121377438D01*
X151160714Y-121377438D02*
X151255952Y-121472676D01*
X151255952Y-121472676D02*
X151303571Y-121663152D01*
X151303571Y-121663152D02*
X151303571Y-121996485D01*
X151303571Y-121996485D02*
X151255952Y-122186961D01*
X151255952Y-122186961D02*
X151160714Y-122282200D01*
X151160714Y-122282200D02*
X151065476Y-122329819D01*
X151065476Y-122329819D02*
X150875000Y-122329819D01*
X150875000Y-122329819D02*
X150779762Y-122282200D01*
X150779762Y-122282200D02*
X150684524Y-122186961D01*
X150684524Y-122186961D02*
X150636905Y-121996485D01*
X150636905Y-121996485D02*
X150636905Y-121663152D01*
X150636905Y-121663152D02*
X150684524Y-121472676D01*
X150684524Y-121472676D02*
X150779762Y-121377438D01*
X150779762Y-121377438D02*
X150875000Y-121329819D01*
X151589286Y-121329819D02*
X152160714Y-121329819D01*
X151875000Y-122329819D02*
X151875000Y-121329819D01*
X152446429Y-121425057D02*
X152494048Y-121377438D01*
X152494048Y-121377438D02*
X152589286Y-121329819D01*
X152589286Y-121329819D02*
X152827381Y-121329819D01*
X152827381Y-121329819D02*
X152922619Y-121377438D01*
X152922619Y-121377438D02*
X152970238Y-121425057D01*
X152970238Y-121425057D02*
X153017857Y-121520295D01*
X153017857Y-121520295D02*
X153017857Y-121615533D01*
X153017857Y-121615533D02*
X152970238Y-121758390D01*
X152970238Y-121758390D02*
X152398810Y-122329819D01*
X152398810Y-122329819D02*
X153017857Y-122329819D01*
X143315476Y-66502295D02*
X143315476Y-67149914D01*
X143315476Y-67149914D02*
X143353571Y-67226104D01*
X143353571Y-67226104D02*
X143391666Y-67264200D01*
X143391666Y-67264200D02*
X143467857Y-67302295D01*
X143467857Y-67302295D02*
X143620238Y-67302295D01*
X143620238Y-67302295D02*
X143696428Y-67264200D01*
X143696428Y-67264200D02*
X143734523Y-67226104D01*
X143734523Y-67226104D02*
X143772619Y-67149914D01*
X143772619Y-67149914D02*
X143772619Y-66502295D01*
X144191666Y-67302295D02*
X144344047Y-67302295D01*
X144344047Y-67302295D02*
X144420237Y-67264200D01*
X144420237Y-67264200D02*
X144458333Y-67226104D01*
X144458333Y-67226104D02*
X144534523Y-67111819D01*
X144534523Y-67111819D02*
X144572618Y-66959438D01*
X144572618Y-66959438D02*
X144572618Y-66654676D01*
X144572618Y-66654676D02*
X144534523Y-66578485D01*
X144534523Y-66578485D02*
X144496428Y-66540390D01*
X144496428Y-66540390D02*
X144420237Y-66502295D01*
X144420237Y-66502295D02*
X144267856Y-66502295D01*
X144267856Y-66502295D02*
X144191666Y-66540390D01*
X144191666Y-66540390D02*
X144153571Y-66578485D01*
X144153571Y-66578485D02*
X144115475Y-66654676D01*
X144115475Y-66654676D02*
X144115475Y-66845152D01*
X144115475Y-66845152D02*
X144153571Y-66921342D01*
X144153571Y-66921342D02*
X144191666Y-66959438D01*
X144191666Y-66959438D02*
X144267856Y-66997533D01*
X144267856Y-66997533D02*
X144420237Y-66997533D01*
X144420237Y-66997533D02*
X144496428Y-66959438D01*
X144496428Y-66959438D02*
X144534523Y-66921342D01*
X144534523Y-66921342D02*
X144572618Y-66845152D01*
X124302618Y-126024580D02*
X124254999Y-126072200D01*
X124254999Y-126072200D02*
X124112142Y-126119819D01*
X124112142Y-126119819D02*
X124016904Y-126119819D01*
X124016904Y-126119819D02*
X123874047Y-126072200D01*
X123874047Y-126072200D02*
X123778809Y-125976961D01*
X123778809Y-125976961D02*
X123731190Y-125881723D01*
X123731190Y-125881723D02*
X123683571Y-125691247D01*
X123683571Y-125691247D02*
X123683571Y-125548390D01*
X123683571Y-125548390D02*
X123731190Y-125357914D01*
X123731190Y-125357914D02*
X123778809Y-125262676D01*
X123778809Y-125262676D02*
X123874047Y-125167438D01*
X123874047Y-125167438D02*
X124016904Y-125119819D01*
X124016904Y-125119819D02*
X124112142Y-125119819D01*
X124112142Y-125119819D02*
X124254999Y-125167438D01*
X124254999Y-125167438D02*
X124302618Y-125215057D01*
X124493095Y-126215057D02*
X125254999Y-126215057D01*
X125493095Y-126119819D02*
X125493095Y-125119819D01*
X125493095Y-125119819D02*
X125826428Y-125834104D01*
X125826428Y-125834104D02*
X126159761Y-125119819D01*
X126159761Y-125119819D02*
X126159761Y-126119819D01*
X127207380Y-126024580D02*
X127159761Y-126072200D01*
X127159761Y-126072200D02*
X127016904Y-126119819D01*
X127016904Y-126119819D02*
X126921666Y-126119819D01*
X126921666Y-126119819D02*
X126778809Y-126072200D01*
X126778809Y-126072200D02*
X126683571Y-125976961D01*
X126683571Y-125976961D02*
X126635952Y-125881723D01*
X126635952Y-125881723D02*
X126588333Y-125691247D01*
X126588333Y-125691247D02*
X126588333Y-125548390D01*
X126588333Y-125548390D02*
X126635952Y-125357914D01*
X126635952Y-125357914D02*
X126683571Y-125262676D01*
X126683571Y-125262676D02*
X126778809Y-125167438D01*
X126778809Y-125167438D02*
X126921666Y-125119819D01*
X126921666Y-125119819D02*
X127016904Y-125119819D01*
X127016904Y-125119819D02*
X127159761Y-125167438D01*
X127159761Y-125167438D02*
X127207380Y-125215057D01*
X127635952Y-125119819D02*
X127635952Y-125929342D01*
X127635952Y-125929342D02*
X127683571Y-126024580D01*
X127683571Y-126024580D02*
X127731190Y-126072200D01*
X127731190Y-126072200D02*
X127826428Y-126119819D01*
X127826428Y-126119819D02*
X128016904Y-126119819D01*
X128016904Y-126119819D02*
X128112142Y-126072200D01*
X128112142Y-126072200D02*
X128159761Y-126024580D01*
X128159761Y-126024580D02*
X128207380Y-125929342D01*
X128207380Y-125929342D02*
X128207380Y-125119819D01*
X128445476Y-126215057D02*
X129207380Y-126215057D01*
X129778809Y-125596009D02*
X129921666Y-125643628D01*
X129921666Y-125643628D02*
X129969285Y-125691247D01*
X129969285Y-125691247D02*
X130016904Y-125786485D01*
X130016904Y-125786485D02*
X130016904Y-125929342D01*
X130016904Y-125929342D02*
X129969285Y-126024580D01*
X129969285Y-126024580D02*
X129921666Y-126072200D01*
X129921666Y-126072200D02*
X129826428Y-126119819D01*
X129826428Y-126119819D02*
X129445476Y-126119819D01*
X129445476Y-126119819D02*
X129445476Y-125119819D01*
X129445476Y-125119819D02*
X129778809Y-125119819D01*
X129778809Y-125119819D02*
X129874047Y-125167438D01*
X129874047Y-125167438D02*
X129921666Y-125215057D01*
X129921666Y-125215057D02*
X129969285Y-125310295D01*
X129969285Y-125310295D02*
X129969285Y-125405533D01*
X129969285Y-125405533D02*
X129921666Y-125500771D01*
X129921666Y-125500771D02*
X129874047Y-125548390D01*
X129874047Y-125548390D02*
X129778809Y-125596009D01*
X129778809Y-125596009D02*
X129445476Y-125596009D01*
X130445476Y-125119819D02*
X130445476Y-125929342D01*
X130445476Y-125929342D02*
X130493095Y-126024580D01*
X130493095Y-126024580D02*
X130540714Y-126072200D01*
X130540714Y-126072200D02*
X130635952Y-126119819D01*
X130635952Y-126119819D02*
X130826428Y-126119819D01*
X130826428Y-126119819D02*
X130921666Y-126072200D01*
X130921666Y-126072200D02*
X130969285Y-126024580D01*
X130969285Y-126024580D02*
X131016904Y-125929342D01*
X131016904Y-125929342D02*
X131016904Y-125119819D01*
X131969285Y-126119819D02*
X131493095Y-126119819D01*
X131493095Y-126119819D02*
X131493095Y-125119819D01*
X132302619Y-126119819D02*
X132302619Y-125119819D01*
X132874047Y-126119819D02*
X132445476Y-125548390D01*
X132874047Y-125119819D02*
X132302619Y-125691247D01*
X133255000Y-125215057D02*
X133302619Y-125167438D01*
X133302619Y-125167438D02*
X133397857Y-125119819D01*
X133397857Y-125119819D02*
X133635952Y-125119819D01*
X133635952Y-125119819D02*
X133731190Y-125167438D01*
X133731190Y-125167438D02*
X133778809Y-125215057D01*
X133778809Y-125215057D02*
X133826428Y-125310295D01*
X133826428Y-125310295D02*
X133826428Y-125405533D01*
X133826428Y-125405533D02*
X133778809Y-125548390D01*
X133778809Y-125548390D02*
X133207381Y-126119819D01*
X133207381Y-126119819D02*
X133826428Y-126119819D01*
X87545238Y-83556104D02*
X87507142Y-83594200D01*
X87507142Y-83594200D02*
X87392857Y-83632295D01*
X87392857Y-83632295D02*
X87316666Y-83632295D01*
X87316666Y-83632295D02*
X87202380Y-83594200D01*
X87202380Y-83594200D02*
X87126190Y-83518009D01*
X87126190Y-83518009D02*
X87088095Y-83441819D01*
X87088095Y-83441819D02*
X87049999Y-83289438D01*
X87049999Y-83289438D02*
X87049999Y-83175152D01*
X87049999Y-83175152D02*
X87088095Y-83022771D01*
X87088095Y-83022771D02*
X87126190Y-82946580D01*
X87126190Y-82946580D02*
X87202380Y-82870390D01*
X87202380Y-82870390D02*
X87316666Y-82832295D01*
X87316666Y-82832295D02*
X87392857Y-82832295D01*
X87392857Y-82832295D02*
X87507142Y-82870390D01*
X87507142Y-82870390D02*
X87545238Y-82908485D01*
X87697619Y-83708485D02*
X88307142Y-83708485D01*
X88878571Y-82832295D02*
X88497619Y-82832295D01*
X88497619Y-82832295D02*
X88459523Y-83213247D01*
X88459523Y-83213247D02*
X88497619Y-83175152D01*
X88497619Y-83175152D02*
X88573809Y-83137057D01*
X88573809Y-83137057D02*
X88764285Y-83137057D01*
X88764285Y-83137057D02*
X88840476Y-83175152D01*
X88840476Y-83175152D02*
X88878571Y-83213247D01*
X88878571Y-83213247D02*
X88916666Y-83289438D01*
X88916666Y-83289438D02*
X88916666Y-83479914D01*
X88916666Y-83479914D02*
X88878571Y-83556104D01*
X88878571Y-83556104D02*
X88840476Y-83594200D01*
X88840476Y-83594200D02*
X88764285Y-83632295D01*
X88764285Y-83632295D02*
X88573809Y-83632295D01*
X88573809Y-83632295D02*
X88497619Y-83594200D01*
X88497619Y-83594200D02*
X88459523Y-83556104D01*
X89145238Y-82832295D02*
X89411905Y-83632295D01*
X89411905Y-83632295D02*
X89678571Y-82832295D01*
X90097619Y-82832295D02*
X90250000Y-82832295D01*
X90250000Y-82832295D02*
X90326190Y-82870390D01*
X90326190Y-82870390D02*
X90402381Y-82946580D01*
X90402381Y-82946580D02*
X90440476Y-83098961D01*
X90440476Y-83098961D02*
X90440476Y-83365628D01*
X90440476Y-83365628D02*
X90402381Y-83518009D01*
X90402381Y-83518009D02*
X90326190Y-83594200D01*
X90326190Y-83594200D02*
X90250000Y-83632295D01*
X90250000Y-83632295D02*
X90097619Y-83632295D01*
X90097619Y-83632295D02*
X90021428Y-83594200D01*
X90021428Y-83594200D02*
X89945238Y-83518009D01*
X89945238Y-83518009D02*
X89907142Y-83365628D01*
X89907142Y-83365628D02*
X89907142Y-83098961D01*
X89907142Y-83098961D02*
X89945238Y-82946580D01*
X89945238Y-82946580D02*
X90021428Y-82870390D01*
X90021428Y-82870390D02*
X90097619Y-82832295D01*
X90783333Y-82832295D02*
X90783333Y-83479914D01*
X90783333Y-83479914D02*
X90821428Y-83556104D01*
X90821428Y-83556104D02*
X90859523Y-83594200D01*
X90859523Y-83594200D02*
X90935714Y-83632295D01*
X90935714Y-83632295D02*
X91088095Y-83632295D01*
X91088095Y-83632295D02*
X91164285Y-83594200D01*
X91164285Y-83594200D02*
X91202380Y-83556104D01*
X91202380Y-83556104D02*
X91240476Y-83479914D01*
X91240476Y-83479914D02*
X91240476Y-82832295D01*
X91507142Y-82832295D02*
X91964285Y-82832295D01*
X91735713Y-83632295D02*
X91735713Y-82832295D01*
X92192856Y-82908485D02*
X92230952Y-82870390D01*
X92230952Y-82870390D02*
X92307142Y-82832295D01*
X92307142Y-82832295D02*
X92497618Y-82832295D01*
X92497618Y-82832295D02*
X92573809Y-82870390D01*
X92573809Y-82870390D02*
X92611904Y-82908485D01*
X92611904Y-82908485D02*
X92649999Y-82984676D01*
X92649999Y-82984676D02*
X92649999Y-83060866D01*
X92649999Y-83060866D02*
X92611904Y-83175152D01*
X92611904Y-83175152D02*
X92154761Y-83632295D01*
X92154761Y-83632295D02*
X92649999Y-83632295D01*
X136821667Y-61611104D02*
X136783571Y-61649200D01*
X136783571Y-61649200D02*
X136669286Y-61687295D01*
X136669286Y-61687295D02*
X136593095Y-61687295D01*
X136593095Y-61687295D02*
X136478809Y-61649200D01*
X136478809Y-61649200D02*
X136402619Y-61573009D01*
X136402619Y-61573009D02*
X136364524Y-61496819D01*
X136364524Y-61496819D02*
X136326428Y-61344438D01*
X136326428Y-61344438D02*
X136326428Y-61230152D01*
X136326428Y-61230152D02*
X136364524Y-61077771D01*
X136364524Y-61077771D02*
X136402619Y-61001580D01*
X136402619Y-61001580D02*
X136478809Y-60925390D01*
X136478809Y-60925390D02*
X136593095Y-60887295D01*
X136593095Y-60887295D02*
X136669286Y-60887295D01*
X136669286Y-60887295D02*
X136783571Y-60925390D01*
X136783571Y-60925390D02*
X136821667Y-60963485D01*
X137088333Y-60887295D02*
X137583571Y-60887295D01*
X137583571Y-60887295D02*
X137316905Y-61192057D01*
X137316905Y-61192057D02*
X137431190Y-61192057D01*
X137431190Y-61192057D02*
X137507381Y-61230152D01*
X137507381Y-61230152D02*
X137545476Y-61268247D01*
X137545476Y-61268247D02*
X137583571Y-61344438D01*
X137583571Y-61344438D02*
X137583571Y-61534914D01*
X137583571Y-61534914D02*
X137545476Y-61611104D01*
X137545476Y-61611104D02*
X137507381Y-61649200D01*
X137507381Y-61649200D02*
X137431190Y-61687295D01*
X137431190Y-61687295D02*
X137202619Y-61687295D01*
X137202619Y-61687295D02*
X137126428Y-61649200D01*
X137126428Y-61649200D02*
X137088333Y-61611104D01*
X77585714Y-120032295D02*
X77319047Y-119651342D01*
X77128571Y-120032295D02*
X77128571Y-119232295D01*
X77128571Y-119232295D02*
X77433333Y-119232295D01*
X77433333Y-119232295D02*
X77509523Y-119270390D01*
X77509523Y-119270390D02*
X77547618Y-119308485D01*
X77547618Y-119308485D02*
X77585714Y-119384676D01*
X77585714Y-119384676D02*
X77585714Y-119498961D01*
X77585714Y-119498961D02*
X77547618Y-119575152D01*
X77547618Y-119575152D02*
X77509523Y-119613247D01*
X77509523Y-119613247D02*
X77433333Y-119651342D01*
X77433333Y-119651342D02*
X77128571Y-119651342D01*
X77890475Y-119994200D02*
X78004761Y-120032295D01*
X78004761Y-120032295D02*
X78195237Y-120032295D01*
X78195237Y-120032295D02*
X78271428Y-119994200D01*
X78271428Y-119994200D02*
X78309523Y-119956104D01*
X78309523Y-119956104D02*
X78347618Y-119879914D01*
X78347618Y-119879914D02*
X78347618Y-119803723D01*
X78347618Y-119803723D02*
X78309523Y-119727533D01*
X78309523Y-119727533D02*
X78271428Y-119689438D01*
X78271428Y-119689438D02*
X78195237Y-119651342D01*
X78195237Y-119651342D02*
X78042856Y-119613247D01*
X78042856Y-119613247D02*
X77966666Y-119575152D01*
X77966666Y-119575152D02*
X77928571Y-119537057D01*
X77928571Y-119537057D02*
X77890475Y-119460866D01*
X77890475Y-119460866D02*
X77890475Y-119384676D01*
X77890475Y-119384676D02*
X77928571Y-119308485D01*
X77928571Y-119308485D02*
X77966666Y-119270390D01*
X77966666Y-119270390D02*
X78042856Y-119232295D01*
X78042856Y-119232295D02*
X78233333Y-119232295D01*
X78233333Y-119232295D02*
X78347618Y-119270390D01*
X78957142Y-119613247D02*
X79071428Y-119651342D01*
X79071428Y-119651342D02*
X79109523Y-119689438D01*
X79109523Y-119689438D02*
X79147619Y-119765628D01*
X79147619Y-119765628D02*
X79147619Y-119879914D01*
X79147619Y-119879914D02*
X79109523Y-119956104D01*
X79109523Y-119956104D02*
X79071428Y-119994200D01*
X79071428Y-119994200D02*
X78995238Y-120032295D01*
X78995238Y-120032295D02*
X78690476Y-120032295D01*
X78690476Y-120032295D02*
X78690476Y-119232295D01*
X78690476Y-119232295D02*
X78957142Y-119232295D01*
X78957142Y-119232295D02*
X79033333Y-119270390D01*
X79033333Y-119270390D02*
X79071428Y-119308485D01*
X79071428Y-119308485D02*
X79109523Y-119384676D01*
X79109523Y-119384676D02*
X79109523Y-119460866D01*
X79109523Y-119460866D02*
X79071428Y-119537057D01*
X79071428Y-119537057D02*
X79033333Y-119575152D01*
X79033333Y-119575152D02*
X78957142Y-119613247D01*
X78957142Y-119613247D02*
X78690476Y-119613247D01*
X79414285Y-119232295D02*
X79909523Y-119232295D01*
X79909523Y-119232295D02*
X79642857Y-119537057D01*
X79642857Y-119537057D02*
X79757142Y-119537057D01*
X79757142Y-119537057D02*
X79833333Y-119575152D01*
X79833333Y-119575152D02*
X79871428Y-119613247D01*
X79871428Y-119613247D02*
X79909523Y-119689438D01*
X79909523Y-119689438D02*
X79909523Y-119879914D01*
X79909523Y-119879914D02*
X79871428Y-119956104D01*
X79871428Y-119956104D02*
X79833333Y-119994200D01*
X79833333Y-119994200D02*
X79757142Y-120032295D01*
X79757142Y-120032295D02*
X79528571Y-120032295D01*
X79528571Y-120032295D02*
X79452380Y-119994200D01*
X79452380Y-119994200D02*
X79414285Y-119956104D01*
X78255476Y-104637295D02*
X78255476Y-105284914D01*
X78255476Y-105284914D02*
X78293571Y-105361104D01*
X78293571Y-105361104D02*
X78331666Y-105399200D01*
X78331666Y-105399200D02*
X78407857Y-105437295D01*
X78407857Y-105437295D02*
X78560238Y-105437295D01*
X78560238Y-105437295D02*
X78636428Y-105399200D01*
X78636428Y-105399200D02*
X78674523Y-105361104D01*
X78674523Y-105361104D02*
X78712619Y-105284914D01*
X78712619Y-105284914D02*
X78712619Y-104637295D01*
X79017380Y-104637295D02*
X79512618Y-104637295D01*
X79512618Y-104637295D02*
X79245952Y-104942057D01*
X79245952Y-104942057D02*
X79360237Y-104942057D01*
X79360237Y-104942057D02*
X79436428Y-104980152D01*
X79436428Y-104980152D02*
X79474523Y-105018247D01*
X79474523Y-105018247D02*
X79512618Y-105094438D01*
X79512618Y-105094438D02*
X79512618Y-105284914D01*
X79512618Y-105284914D02*
X79474523Y-105361104D01*
X79474523Y-105361104D02*
X79436428Y-105399200D01*
X79436428Y-105399200D02*
X79360237Y-105437295D01*
X79360237Y-105437295D02*
X79131666Y-105437295D01*
X79131666Y-105437295D02*
X79055475Y-105399200D01*
X79055475Y-105399200D02*
X79017380Y-105361104D01*
X121629524Y-83507295D02*
X121629524Y-82707295D01*
X121629524Y-82707295D02*
X121820000Y-82707295D01*
X121820000Y-82707295D02*
X121934286Y-82745390D01*
X121934286Y-82745390D02*
X122010476Y-82821580D01*
X122010476Y-82821580D02*
X122048571Y-82897771D01*
X122048571Y-82897771D02*
X122086667Y-83050152D01*
X122086667Y-83050152D02*
X122086667Y-83164438D01*
X122086667Y-83164438D02*
X122048571Y-83316819D01*
X122048571Y-83316819D02*
X122010476Y-83393009D01*
X122010476Y-83393009D02*
X121934286Y-83469200D01*
X121934286Y-83469200D02*
X121820000Y-83507295D01*
X121820000Y-83507295D02*
X121629524Y-83507295D01*
X122848571Y-83507295D02*
X122391428Y-83507295D01*
X122620000Y-83507295D02*
X122620000Y-82707295D01*
X122620000Y-82707295D02*
X122543809Y-82821580D01*
X122543809Y-82821580D02*
X122467619Y-82897771D01*
X122467619Y-82897771D02*
X122391428Y-82935866D01*
X151527976Y-87537295D02*
X151527976Y-88184914D01*
X151527976Y-88184914D02*
X151566071Y-88261104D01*
X151566071Y-88261104D02*
X151604166Y-88299200D01*
X151604166Y-88299200D02*
X151680357Y-88337295D01*
X151680357Y-88337295D02*
X151832738Y-88337295D01*
X151832738Y-88337295D02*
X151908928Y-88299200D01*
X151908928Y-88299200D02*
X151947023Y-88261104D01*
X151947023Y-88261104D02*
X151985119Y-88184914D01*
X151985119Y-88184914D02*
X151985119Y-87537295D01*
X152708928Y-87803961D02*
X152708928Y-88337295D01*
X152518452Y-87499200D02*
X152327975Y-88070628D01*
X152327975Y-88070628D02*
X152823214Y-88070628D01*
X136821667Y-63581104D02*
X136783571Y-63619200D01*
X136783571Y-63619200D02*
X136669286Y-63657295D01*
X136669286Y-63657295D02*
X136593095Y-63657295D01*
X136593095Y-63657295D02*
X136478809Y-63619200D01*
X136478809Y-63619200D02*
X136402619Y-63543009D01*
X136402619Y-63543009D02*
X136364524Y-63466819D01*
X136364524Y-63466819D02*
X136326428Y-63314438D01*
X136326428Y-63314438D02*
X136326428Y-63200152D01*
X136326428Y-63200152D02*
X136364524Y-63047771D01*
X136364524Y-63047771D02*
X136402619Y-62971580D01*
X136402619Y-62971580D02*
X136478809Y-62895390D01*
X136478809Y-62895390D02*
X136593095Y-62857295D01*
X136593095Y-62857295D02*
X136669286Y-62857295D01*
X136669286Y-62857295D02*
X136783571Y-62895390D01*
X136783571Y-62895390D02*
X136821667Y-62933485D01*
X137507381Y-63123961D02*
X137507381Y-63657295D01*
X137316905Y-62819200D02*
X137126428Y-63390628D01*
X137126428Y-63390628D02*
X137621667Y-63390628D01*
X121351190Y-69197295D02*
X121351190Y-69768723D01*
X121351190Y-69768723D02*
X121313095Y-69883009D01*
X121313095Y-69883009D02*
X121236904Y-69959200D01*
X121236904Y-69959200D02*
X121122619Y-69997295D01*
X121122619Y-69997295D02*
X121046428Y-69997295D01*
X121732143Y-69997295D02*
X121732143Y-69197295D01*
X121732143Y-69197295D02*
X122036905Y-69197295D01*
X122036905Y-69197295D02*
X122113095Y-69235390D01*
X122113095Y-69235390D02*
X122151190Y-69273485D01*
X122151190Y-69273485D02*
X122189286Y-69349676D01*
X122189286Y-69349676D02*
X122189286Y-69463961D01*
X122189286Y-69463961D02*
X122151190Y-69540152D01*
X122151190Y-69540152D02*
X122113095Y-69578247D01*
X122113095Y-69578247D02*
X122036905Y-69616342D01*
X122036905Y-69616342D02*
X121732143Y-69616342D01*
X122455952Y-69197295D02*
X122646428Y-69997295D01*
X122646428Y-69997295D02*
X122798809Y-69425866D01*
X122798809Y-69425866D02*
X122951190Y-69997295D01*
X122951190Y-69997295D02*
X123141667Y-69197295D01*
X123903572Y-69997295D02*
X123636905Y-69616342D01*
X123446429Y-69997295D02*
X123446429Y-69197295D01*
X123446429Y-69197295D02*
X123751191Y-69197295D01*
X123751191Y-69197295D02*
X123827381Y-69235390D01*
X123827381Y-69235390D02*
X123865476Y-69273485D01*
X123865476Y-69273485D02*
X123903572Y-69349676D01*
X123903572Y-69349676D02*
X123903572Y-69463961D01*
X123903572Y-69463961D02*
X123865476Y-69540152D01*
X123865476Y-69540152D02*
X123827381Y-69578247D01*
X123827381Y-69578247D02*
X123751191Y-69616342D01*
X123751191Y-69616342D02*
X123446429Y-69616342D01*
X124208333Y-69273485D02*
X124246429Y-69235390D01*
X124246429Y-69235390D02*
X124322619Y-69197295D01*
X124322619Y-69197295D02*
X124513095Y-69197295D01*
X124513095Y-69197295D02*
X124589286Y-69235390D01*
X124589286Y-69235390D02*
X124627381Y-69273485D01*
X124627381Y-69273485D02*
X124665476Y-69349676D01*
X124665476Y-69349676D02*
X124665476Y-69425866D01*
X124665476Y-69425866D02*
X124627381Y-69540152D01*
X124627381Y-69540152D02*
X124170238Y-69997295D01*
X124170238Y-69997295D02*
X124665476Y-69997295D01*
X143991667Y-71871104D02*
X143953571Y-71909200D01*
X143953571Y-71909200D02*
X143839286Y-71947295D01*
X143839286Y-71947295D02*
X143763095Y-71947295D01*
X143763095Y-71947295D02*
X143648809Y-71909200D01*
X143648809Y-71909200D02*
X143572619Y-71833009D01*
X143572619Y-71833009D02*
X143534524Y-71756819D01*
X143534524Y-71756819D02*
X143496428Y-71604438D01*
X143496428Y-71604438D02*
X143496428Y-71490152D01*
X143496428Y-71490152D02*
X143534524Y-71337771D01*
X143534524Y-71337771D02*
X143572619Y-71261580D01*
X143572619Y-71261580D02*
X143648809Y-71185390D01*
X143648809Y-71185390D02*
X143763095Y-71147295D01*
X143763095Y-71147295D02*
X143839286Y-71147295D01*
X143839286Y-71147295D02*
X143953571Y-71185390D01*
X143953571Y-71185390D02*
X143991667Y-71223485D01*
X144753571Y-71947295D02*
X144296428Y-71947295D01*
X144525000Y-71947295D02*
X144525000Y-71147295D01*
X144525000Y-71147295D02*
X144448809Y-71261580D01*
X144448809Y-71261580D02*
X144372619Y-71337771D01*
X144372619Y-71337771D02*
X144296428Y-71375866D01*
X76932295Y-76127142D02*
X76551342Y-76393809D01*
X76932295Y-76584285D02*
X76132295Y-76584285D01*
X76132295Y-76584285D02*
X76132295Y-76279523D01*
X76132295Y-76279523D02*
X76170390Y-76203333D01*
X76170390Y-76203333D02*
X76208485Y-76165238D01*
X76208485Y-76165238D02*
X76284676Y-76127142D01*
X76284676Y-76127142D02*
X76398961Y-76127142D01*
X76398961Y-76127142D02*
X76475152Y-76165238D01*
X76475152Y-76165238D02*
X76513247Y-76203333D01*
X76513247Y-76203333D02*
X76551342Y-76279523D01*
X76551342Y-76279523D02*
X76551342Y-76584285D01*
X76894200Y-75822381D02*
X76932295Y-75708095D01*
X76932295Y-75708095D02*
X76932295Y-75517619D01*
X76932295Y-75517619D02*
X76894200Y-75441428D01*
X76894200Y-75441428D02*
X76856104Y-75403333D01*
X76856104Y-75403333D02*
X76779914Y-75365238D01*
X76779914Y-75365238D02*
X76703723Y-75365238D01*
X76703723Y-75365238D02*
X76627533Y-75403333D01*
X76627533Y-75403333D02*
X76589438Y-75441428D01*
X76589438Y-75441428D02*
X76551342Y-75517619D01*
X76551342Y-75517619D02*
X76513247Y-75670000D01*
X76513247Y-75670000D02*
X76475152Y-75746190D01*
X76475152Y-75746190D02*
X76437057Y-75784285D01*
X76437057Y-75784285D02*
X76360866Y-75822381D01*
X76360866Y-75822381D02*
X76284676Y-75822381D01*
X76284676Y-75822381D02*
X76208485Y-75784285D01*
X76208485Y-75784285D02*
X76170390Y-75746190D01*
X76170390Y-75746190D02*
X76132295Y-75670000D01*
X76132295Y-75670000D02*
X76132295Y-75479523D01*
X76132295Y-75479523D02*
X76170390Y-75365238D01*
X76703723Y-75060476D02*
X76703723Y-74679523D01*
X76932295Y-75136666D02*
X76132295Y-74869999D01*
X76132295Y-74869999D02*
X76932295Y-74603333D01*
X76208485Y-74374762D02*
X76170390Y-74336666D01*
X76170390Y-74336666D02*
X76132295Y-74260476D01*
X76132295Y-74260476D02*
X76132295Y-74070000D01*
X76132295Y-74070000D02*
X76170390Y-73993809D01*
X76170390Y-73993809D02*
X76208485Y-73955714D01*
X76208485Y-73955714D02*
X76284676Y-73917619D01*
X76284676Y-73917619D02*
X76360866Y-73917619D01*
X76360866Y-73917619D02*
X76475152Y-73955714D01*
X76475152Y-73955714D02*
X76932295Y-74412857D01*
X76932295Y-74412857D02*
X76932295Y-73917619D01*
X130297380Y-118549819D02*
X129964047Y-118073628D01*
X129725952Y-118549819D02*
X129725952Y-117549819D01*
X129725952Y-117549819D02*
X130106904Y-117549819D01*
X130106904Y-117549819D02*
X130202142Y-117597438D01*
X130202142Y-117597438D02*
X130249761Y-117645057D01*
X130249761Y-117645057D02*
X130297380Y-117740295D01*
X130297380Y-117740295D02*
X130297380Y-117883152D01*
X130297380Y-117883152D02*
X130249761Y-117978390D01*
X130249761Y-117978390D02*
X130202142Y-118026009D01*
X130202142Y-118026009D02*
X130106904Y-118073628D01*
X130106904Y-118073628D02*
X129725952Y-118073628D01*
X130487857Y-118645057D02*
X131249761Y-118645057D01*
X132059285Y-118454580D02*
X132011666Y-118502200D01*
X132011666Y-118502200D02*
X131868809Y-118549819D01*
X131868809Y-118549819D02*
X131773571Y-118549819D01*
X131773571Y-118549819D02*
X131630714Y-118502200D01*
X131630714Y-118502200D02*
X131535476Y-118406961D01*
X131535476Y-118406961D02*
X131487857Y-118311723D01*
X131487857Y-118311723D02*
X131440238Y-118121247D01*
X131440238Y-118121247D02*
X131440238Y-117978390D01*
X131440238Y-117978390D02*
X131487857Y-117787914D01*
X131487857Y-117787914D02*
X131535476Y-117692676D01*
X131535476Y-117692676D02*
X131630714Y-117597438D01*
X131630714Y-117597438D02*
X131773571Y-117549819D01*
X131773571Y-117549819D02*
X131868809Y-117549819D01*
X131868809Y-117549819D02*
X132011666Y-117597438D01*
X132011666Y-117597438D02*
X132059285Y-117645057D01*
X133059285Y-118454580D02*
X133011666Y-118502200D01*
X133011666Y-118502200D02*
X132868809Y-118549819D01*
X132868809Y-118549819D02*
X132773571Y-118549819D01*
X132773571Y-118549819D02*
X132630714Y-118502200D01*
X132630714Y-118502200D02*
X132535476Y-118406961D01*
X132535476Y-118406961D02*
X132487857Y-118311723D01*
X132487857Y-118311723D02*
X132440238Y-118121247D01*
X132440238Y-118121247D02*
X132440238Y-117978390D01*
X132440238Y-117978390D02*
X132487857Y-117787914D01*
X132487857Y-117787914D02*
X132535476Y-117692676D01*
X132535476Y-117692676D02*
X132630714Y-117597438D01*
X132630714Y-117597438D02*
X132773571Y-117549819D01*
X132773571Y-117549819D02*
X132868809Y-117549819D01*
X132868809Y-117549819D02*
X133011666Y-117597438D01*
X133011666Y-117597438D02*
X133059285Y-117645057D01*
X133440238Y-117645057D02*
X133487857Y-117597438D01*
X133487857Y-117597438D02*
X133583095Y-117549819D01*
X133583095Y-117549819D02*
X133821190Y-117549819D01*
X133821190Y-117549819D02*
X133916428Y-117597438D01*
X133916428Y-117597438D02*
X133964047Y-117645057D01*
X133964047Y-117645057D02*
X134011666Y-117740295D01*
X134011666Y-117740295D02*
X134011666Y-117835533D01*
X134011666Y-117835533D02*
X133964047Y-117978390D01*
X133964047Y-117978390D02*
X133392619Y-118549819D01*
X133392619Y-118549819D02*
X134011666Y-118549819D01*
X87719048Y-107956104D02*
X87680952Y-107994200D01*
X87680952Y-107994200D02*
X87566667Y-108032295D01*
X87566667Y-108032295D02*
X87490476Y-108032295D01*
X87490476Y-108032295D02*
X87376190Y-107994200D01*
X87376190Y-107994200D02*
X87300000Y-107918009D01*
X87300000Y-107918009D02*
X87261905Y-107841819D01*
X87261905Y-107841819D02*
X87223809Y-107689438D01*
X87223809Y-107689438D02*
X87223809Y-107575152D01*
X87223809Y-107575152D02*
X87261905Y-107422771D01*
X87261905Y-107422771D02*
X87300000Y-107346580D01*
X87300000Y-107346580D02*
X87376190Y-107270390D01*
X87376190Y-107270390D02*
X87490476Y-107232295D01*
X87490476Y-107232295D02*
X87566667Y-107232295D01*
X87566667Y-107232295D02*
X87680952Y-107270390D01*
X87680952Y-107270390D02*
X87719048Y-107308485D01*
X87871429Y-108108485D02*
X88480952Y-108108485D01*
X88557143Y-107232295D02*
X88823810Y-108032295D01*
X88823810Y-108032295D02*
X89090476Y-107232295D01*
X89814286Y-107956104D02*
X89776190Y-107994200D01*
X89776190Y-107994200D02*
X89661905Y-108032295D01*
X89661905Y-108032295D02*
X89585714Y-108032295D01*
X89585714Y-108032295D02*
X89471428Y-107994200D01*
X89471428Y-107994200D02*
X89395238Y-107918009D01*
X89395238Y-107918009D02*
X89357143Y-107841819D01*
X89357143Y-107841819D02*
X89319047Y-107689438D01*
X89319047Y-107689438D02*
X89319047Y-107575152D01*
X89319047Y-107575152D02*
X89357143Y-107422771D01*
X89357143Y-107422771D02*
X89395238Y-107346580D01*
X89395238Y-107346580D02*
X89471428Y-107270390D01*
X89471428Y-107270390D02*
X89585714Y-107232295D01*
X89585714Y-107232295D02*
X89661905Y-107232295D01*
X89661905Y-107232295D02*
X89776190Y-107270390D01*
X89776190Y-107270390D02*
X89814286Y-107308485D01*
X90614286Y-107956104D02*
X90576190Y-107994200D01*
X90576190Y-107994200D02*
X90461905Y-108032295D01*
X90461905Y-108032295D02*
X90385714Y-108032295D01*
X90385714Y-108032295D02*
X90271428Y-107994200D01*
X90271428Y-107994200D02*
X90195238Y-107918009D01*
X90195238Y-107918009D02*
X90157143Y-107841819D01*
X90157143Y-107841819D02*
X90119047Y-107689438D01*
X90119047Y-107689438D02*
X90119047Y-107575152D01*
X90119047Y-107575152D02*
X90157143Y-107422771D01*
X90157143Y-107422771D02*
X90195238Y-107346580D01*
X90195238Y-107346580D02*
X90271428Y-107270390D01*
X90271428Y-107270390D02*
X90385714Y-107232295D01*
X90385714Y-107232295D02*
X90461905Y-107232295D01*
X90461905Y-107232295D02*
X90576190Y-107270390D01*
X90576190Y-107270390D02*
X90614286Y-107308485D01*
X90880952Y-107232295D02*
X91376190Y-107232295D01*
X91376190Y-107232295D02*
X91109524Y-107537057D01*
X91109524Y-107537057D02*
X91223809Y-107537057D01*
X91223809Y-107537057D02*
X91300000Y-107575152D01*
X91300000Y-107575152D02*
X91338095Y-107613247D01*
X91338095Y-107613247D02*
X91376190Y-107689438D01*
X91376190Y-107689438D02*
X91376190Y-107879914D01*
X91376190Y-107879914D02*
X91338095Y-107956104D01*
X91338095Y-107956104D02*
X91300000Y-107994200D01*
X91300000Y-107994200D02*
X91223809Y-108032295D01*
X91223809Y-108032295D02*
X90995238Y-108032295D01*
X90995238Y-108032295D02*
X90919047Y-107994200D01*
X90919047Y-107994200D02*
X90880952Y-107956104D01*
X83669048Y-86032295D02*
X83402381Y-85651342D01*
X83211905Y-86032295D02*
X83211905Y-85232295D01*
X83211905Y-85232295D02*
X83516667Y-85232295D01*
X83516667Y-85232295D02*
X83592857Y-85270390D01*
X83592857Y-85270390D02*
X83630952Y-85308485D01*
X83630952Y-85308485D02*
X83669048Y-85384676D01*
X83669048Y-85384676D02*
X83669048Y-85498961D01*
X83669048Y-85498961D02*
X83630952Y-85575152D01*
X83630952Y-85575152D02*
X83592857Y-85613247D01*
X83592857Y-85613247D02*
X83516667Y-85651342D01*
X83516667Y-85651342D02*
X83211905Y-85651342D01*
X83821429Y-86108485D02*
X84430952Y-86108485D01*
X84507143Y-85232295D02*
X84773810Y-86032295D01*
X84773810Y-86032295D02*
X85040476Y-85232295D01*
X85764286Y-85956104D02*
X85726190Y-85994200D01*
X85726190Y-85994200D02*
X85611905Y-86032295D01*
X85611905Y-86032295D02*
X85535714Y-86032295D01*
X85535714Y-86032295D02*
X85421428Y-85994200D01*
X85421428Y-85994200D02*
X85345238Y-85918009D01*
X85345238Y-85918009D02*
X85307143Y-85841819D01*
X85307143Y-85841819D02*
X85269047Y-85689438D01*
X85269047Y-85689438D02*
X85269047Y-85575152D01*
X85269047Y-85575152D02*
X85307143Y-85422771D01*
X85307143Y-85422771D02*
X85345238Y-85346580D01*
X85345238Y-85346580D02*
X85421428Y-85270390D01*
X85421428Y-85270390D02*
X85535714Y-85232295D01*
X85535714Y-85232295D02*
X85611905Y-85232295D01*
X85611905Y-85232295D02*
X85726190Y-85270390D01*
X85726190Y-85270390D02*
X85764286Y-85308485D01*
X86564286Y-85956104D02*
X86526190Y-85994200D01*
X86526190Y-85994200D02*
X86411905Y-86032295D01*
X86411905Y-86032295D02*
X86335714Y-86032295D01*
X86335714Y-86032295D02*
X86221428Y-85994200D01*
X86221428Y-85994200D02*
X86145238Y-85918009D01*
X86145238Y-85918009D02*
X86107143Y-85841819D01*
X86107143Y-85841819D02*
X86069047Y-85689438D01*
X86069047Y-85689438D02*
X86069047Y-85575152D01*
X86069047Y-85575152D02*
X86107143Y-85422771D01*
X86107143Y-85422771D02*
X86145238Y-85346580D01*
X86145238Y-85346580D02*
X86221428Y-85270390D01*
X86221428Y-85270390D02*
X86335714Y-85232295D01*
X86335714Y-85232295D02*
X86411905Y-85232295D01*
X86411905Y-85232295D02*
X86526190Y-85270390D01*
X86526190Y-85270390D02*
X86564286Y-85308485D01*
X86869047Y-85308485D02*
X86907143Y-85270390D01*
X86907143Y-85270390D02*
X86983333Y-85232295D01*
X86983333Y-85232295D02*
X87173809Y-85232295D01*
X87173809Y-85232295D02*
X87250000Y-85270390D01*
X87250000Y-85270390D02*
X87288095Y-85308485D01*
X87288095Y-85308485D02*
X87326190Y-85384676D01*
X87326190Y-85384676D02*
X87326190Y-85460866D01*
X87326190Y-85460866D02*
X87288095Y-85575152D01*
X87288095Y-85575152D02*
X86830952Y-86032295D01*
X86830952Y-86032295D02*
X87326190Y-86032295D01*
X130106428Y-124444580D02*
X130058809Y-124492200D01*
X130058809Y-124492200D02*
X129915952Y-124539819D01*
X129915952Y-124539819D02*
X129820714Y-124539819D01*
X129820714Y-124539819D02*
X129677857Y-124492200D01*
X129677857Y-124492200D02*
X129582619Y-124396961D01*
X129582619Y-124396961D02*
X129535000Y-124301723D01*
X129535000Y-124301723D02*
X129487381Y-124111247D01*
X129487381Y-124111247D02*
X129487381Y-123968390D01*
X129487381Y-123968390D02*
X129535000Y-123777914D01*
X129535000Y-123777914D02*
X129582619Y-123682676D01*
X129582619Y-123682676D02*
X129677857Y-123587438D01*
X129677857Y-123587438D02*
X129820714Y-123539819D01*
X129820714Y-123539819D02*
X129915952Y-123539819D01*
X129915952Y-123539819D02*
X130058809Y-123587438D01*
X130058809Y-123587438D02*
X130106428Y-123635057D01*
X130296905Y-124635057D02*
X131058809Y-124635057D01*
X131296905Y-124539819D02*
X131296905Y-123539819D01*
X131296905Y-123539819D02*
X131868333Y-124539819D01*
X131868333Y-124539819D02*
X131868333Y-123539819D01*
X132915952Y-124539819D02*
X132582619Y-124063628D01*
X132344524Y-124539819D02*
X132344524Y-123539819D01*
X132344524Y-123539819D02*
X132725476Y-123539819D01*
X132725476Y-123539819D02*
X132820714Y-123587438D01*
X132820714Y-123587438D02*
X132868333Y-123635057D01*
X132868333Y-123635057D02*
X132915952Y-123730295D01*
X132915952Y-123730295D02*
X132915952Y-123873152D01*
X132915952Y-123873152D02*
X132868333Y-123968390D01*
X132868333Y-123968390D02*
X132820714Y-124016009D01*
X132820714Y-124016009D02*
X132725476Y-124063628D01*
X132725476Y-124063628D02*
X132344524Y-124063628D01*
X133296905Y-124492200D02*
X133439762Y-124539819D01*
X133439762Y-124539819D02*
X133677857Y-124539819D01*
X133677857Y-124539819D02*
X133773095Y-124492200D01*
X133773095Y-124492200D02*
X133820714Y-124444580D01*
X133820714Y-124444580D02*
X133868333Y-124349342D01*
X133868333Y-124349342D02*
X133868333Y-124254104D01*
X133868333Y-124254104D02*
X133820714Y-124158866D01*
X133820714Y-124158866D02*
X133773095Y-124111247D01*
X133773095Y-124111247D02*
X133677857Y-124063628D01*
X133677857Y-124063628D02*
X133487381Y-124016009D01*
X133487381Y-124016009D02*
X133392143Y-123968390D01*
X133392143Y-123968390D02*
X133344524Y-123920771D01*
X133344524Y-123920771D02*
X133296905Y-123825533D01*
X133296905Y-123825533D02*
X133296905Y-123730295D01*
X133296905Y-123730295D02*
X133344524Y-123635057D01*
X133344524Y-123635057D02*
X133392143Y-123587438D01*
X133392143Y-123587438D02*
X133487381Y-123539819D01*
X133487381Y-123539819D02*
X133725476Y-123539819D01*
X133725476Y-123539819D02*
X133868333Y-123587438D01*
X134154048Y-123539819D02*
X134725476Y-123539819D01*
X134439762Y-124539819D02*
X134439762Y-123539819D01*
X135011191Y-123635057D02*
X135058810Y-123587438D01*
X135058810Y-123587438D02*
X135154048Y-123539819D01*
X135154048Y-123539819D02*
X135392143Y-123539819D01*
X135392143Y-123539819D02*
X135487381Y-123587438D01*
X135487381Y-123587438D02*
X135535000Y-123635057D01*
X135535000Y-123635057D02*
X135582619Y-123730295D01*
X135582619Y-123730295D02*
X135582619Y-123825533D01*
X135582619Y-123825533D02*
X135535000Y-123968390D01*
X135535000Y-123968390D02*
X134963572Y-124539819D01*
X134963572Y-124539819D02*
X135582619Y-124539819D01*
X161052295Y-83216666D02*
X161623723Y-83216666D01*
X161623723Y-83216666D02*
X161738009Y-83254761D01*
X161738009Y-83254761D02*
X161814200Y-83330952D01*
X161814200Y-83330952D02*
X161852295Y-83445237D01*
X161852295Y-83445237D02*
X161852295Y-83521428D01*
X161433247Y-82569047D02*
X161471342Y-82454761D01*
X161471342Y-82454761D02*
X161509438Y-82416666D01*
X161509438Y-82416666D02*
X161585628Y-82378570D01*
X161585628Y-82378570D02*
X161699914Y-82378570D01*
X161699914Y-82378570D02*
X161776104Y-82416666D01*
X161776104Y-82416666D02*
X161814200Y-82454761D01*
X161814200Y-82454761D02*
X161852295Y-82530951D01*
X161852295Y-82530951D02*
X161852295Y-82835713D01*
X161852295Y-82835713D02*
X161052295Y-82835713D01*
X161052295Y-82835713D02*
X161052295Y-82569047D01*
X161052295Y-82569047D02*
X161090390Y-82492856D01*
X161090390Y-82492856D02*
X161128485Y-82454761D01*
X161128485Y-82454761D02*
X161204676Y-82416666D01*
X161204676Y-82416666D02*
X161280866Y-82416666D01*
X161280866Y-82416666D02*
X161357057Y-82454761D01*
X161357057Y-82454761D02*
X161395152Y-82492856D01*
X161395152Y-82492856D02*
X161433247Y-82569047D01*
X161433247Y-82569047D02*
X161433247Y-82835713D01*
X161052295Y-82035713D02*
X161699914Y-82035713D01*
X161699914Y-82035713D02*
X161776104Y-81997618D01*
X161776104Y-81997618D02*
X161814200Y-81959523D01*
X161814200Y-81959523D02*
X161852295Y-81883332D01*
X161852295Y-81883332D02*
X161852295Y-81730951D01*
X161852295Y-81730951D02*
X161814200Y-81654761D01*
X161814200Y-81654761D02*
X161776104Y-81616666D01*
X161776104Y-81616666D02*
X161699914Y-81578570D01*
X161699914Y-81578570D02*
X161052295Y-81578570D01*
X161814200Y-81235714D02*
X161852295Y-81121428D01*
X161852295Y-81121428D02*
X161852295Y-80930952D01*
X161852295Y-80930952D02*
X161814200Y-80854761D01*
X161814200Y-80854761D02*
X161776104Y-80816666D01*
X161776104Y-80816666D02*
X161699914Y-80778571D01*
X161699914Y-80778571D02*
X161623723Y-80778571D01*
X161623723Y-80778571D02*
X161547533Y-80816666D01*
X161547533Y-80816666D02*
X161509438Y-80854761D01*
X161509438Y-80854761D02*
X161471342Y-80930952D01*
X161471342Y-80930952D02*
X161433247Y-81083333D01*
X161433247Y-81083333D02*
X161395152Y-81159523D01*
X161395152Y-81159523D02*
X161357057Y-81197618D01*
X161357057Y-81197618D02*
X161280866Y-81235714D01*
X161280866Y-81235714D02*
X161204676Y-81235714D01*
X161204676Y-81235714D02*
X161128485Y-81197618D01*
X161128485Y-81197618D02*
X161090390Y-81159523D01*
X161090390Y-81159523D02*
X161052295Y-81083333D01*
X161052295Y-81083333D02*
X161052295Y-80892856D01*
X161052295Y-80892856D02*
X161090390Y-80778571D01*
X161852295Y-80016666D02*
X161852295Y-80473809D01*
X161852295Y-80245237D02*
X161052295Y-80245237D01*
X161052295Y-80245237D02*
X161166580Y-80321428D01*
X161166580Y-80321428D02*
X161242771Y-80397618D01*
X161242771Y-80397618D02*
X161280866Y-80473809D01*
X83919048Y-112032295D02*
X83652381Y-111651342D01*
X83461905Y-112032295D02*
X83461905Y-111232295D01*
X83461905Y-111232295D02*
X83766667Y-111232295D01*
X83766667Y-111232295D02*
X83842857Y-111270390D01*
X83842857Y-111270390D02*
X83880952Y-111308485D01*
X83880952Y-111308485D02*
X83919048Y-111384676D01*
X83919048Y-111384676D02*
X83919048Y-111498961D01*
X83919048Y-111498961D02*
X83880952Y-111575152D01*
X83880952Y-111575152D02*
X83842857Y-111613247D01*
X83842857Y-111613247D02*
X83766667Y-111651342D01*
X83766667Y-111651342D02*
X83461905Y-111651342D01*
X84071429Y-112108485D02*
X84680952Y-112108485D01*
X84757143Y-111232295D02*
X85023810Y-112032295D01*
X85023810Y-112032295D02*
X85290476Y-111232295D01*
X86014286Y-111956104D02*
X85976190Y-111994200D01*
X85976190Y-111994200D02*
X85861905Y-112032295D01*
X85861905Y-112032295D02*
X85785714Y-112032295D01*
X85785714Y-112032295D02*
X85671428Y-111994200D01*
X85671428Y-111994200D02*
X85595238Y-111918009D01*
X85595238Y-111918009D02*
X85557143Y-111841819D01*
X85557143Y-111841819D02*
X85519047Y-111689438D01*
X85519047Y-111689438D02*
X85519047Y-111575152D01*
X85519047Y-111575152D02*
X85557143Y-111422771D01*
X85557143Y-111422771D02*
X85595238Y-111346580D01*
X85595238Y-111346580D02*
X85671428Y-111270390D01*
X85671428Y-111270390D02*
X85785714Y-111232295D01*
X85785714Y-111232295D02*
X85861905Y-111232295D01*
X85861905Y-111232295D02*
X85976190Y-111270390D01*
X85976190Y-111270390D02*
X86014286Y-111308485D01*
X86814286Y-111956104D02*
X86776190Y-111994200D01*
X86776190Y-111994200D02*
X86661905Y-112032295D01*
X86661905Y-112032295D02*
X86585714Y-112032295D01*
X86585714Y-112032295D02*
X86471428Y-111994200D01*
X86471428Y-111994200D02*
X86395238Y-111918009D01*
X86395238Y-111918009D02*
X86357143Y-111841819D01*
X86357143Y-111841819D02*
X86319047Y-111689438D01*
X86319047Y-111689438D02*
X86319047Y-111575152D01*
X86319047Y-111575152D02*
X86357143Y-111422771D01*
X86357143Y-111422771D02*
X86395238Y-111346580D01*
X86395238Y-111346580D02*
X86471428Y-111270390D01*
X86471428Y-111270390D02*
X86585714Y-111232295D01*
X86585714Y-111232295D02*
X86661905Y-111232295D01*
X86661905Y-111232295D02*
X86776190Y-111270390D01*
X86776190Y-111270390D02*
X86814286Y-111308485D01*
X87080952Y-111232295D02*
X87576190Y-111232295D01*
X87576190Y-111232295D02*
X87309524Y-111537057D01*
X87309524Y-111537057D02*
X87423809Y-111537057D01*
X87423809Y-111537057D02*
X87500000Y-111575152D01*
X87500000Y-111575152D02*
X87538095Y-111613247D01*
X87538095Y-111613247D02*
X87576190Y-111689438D01*
X87576190Y-111689438D02*
X87576190Y-111879914D01*
X87576190Y-111879914D02*
X87538095Y-111956104D01*
X87538095Y-111956104D02*
X87500000Y-111994200D01*
X87500000Y-111994200D02*
X87423809Y-112032295D01*
X87423809Y-112032295D02*
X87195238Y-112032295D01*
X87195238Y-112032295D02*
X87119047Y-111994200D01*
X87119047Y-111994200D02*
X87080952Y-111956104D01*
X136440714Y-69491104D02*
X136402618Y-69529200D01*
X136402618Y-69529200D02*
X136288333Y-69567295D01*
X136288333Y-69567295D02*
X136212142Y-69567295D01*
X136212142Y-69567295D02*
X136097856Y-69529200D01*
X136097856Y-69529200D02*
X136021666Y-69453009D01*
X136021666Y-69453009D02*
X135983571Y-69376819D01*
X135983571Y-69376819D02*
X135945475Y-69224438D01*
X135945475Y-69224438D02*
X135945475Y-69110152D01*
X135945475Y-69110152D02*
X135983571Y-68957771D01*
X135983571Y-68957771D02*
X136021666Y-68881580D01*
X136021666Y-68881580D02*
X136097856Y-68805390D01*
X136097856Y-68805390D02*
X136212142Y-68767295D01*
X136212142Y-68767295D02*
X136288333Y-68767295D01*
X136288333Y-68767295D02*
X136402618Y-68805390D01*
X136402618Y-68805390D02*
X136440714Y-68843485D01*
X137202618Y-69567295D02*
X136745475Y-69567295D01*
X136974047Y-69567295D02*
X136974047Y-68767295D01*
X136974047Y-68767295D02*
X136897856Y-68881580D01*
X136897856Y-68881580D02*
X136821666Y-68957771D01*
X136821666Y-68957771D02*
X136745475Y-68995866D01*
X137888333Y-69033961D02*
X137888333Y-69567295D01*
X137697857Y-68729200D02*
X137507380Y-69300628D01*
X137507380Y-69300628D02*
X138002619Y-69300628D01*
X128582618Y-122474580D02*
X128534999Y-122522200D01*
X128534999Y-122522200D02*
X128392142Y-122569819D01*
X128392142Y-122569819D02*
X128296904Y-122569819D01*
X128296904Y-122569819D02*
X128154047Y-122522200D01*
X128154047Y-122522200D02*
X128058809Y-122426961D01*
X128058809Y-122426961D02*
X128011190Y-122331723D01*
X128011190Y-122331723D02*
X127963571Y-122141247D01*
X127963571Y-122141247D02*
X127963571Y-121998390D01*
X127963571Y-121998390D02*
X128011190Y-121807914D01*
X128011190Y-121807914D02*
X128058809Y-121712676D01*
X128058809Y-121712676D02*
X128154047Y-121617438D01*
X128154047Y-121617438D02*
X128296904Y-121569819D01*
X128296904Y-121569819D02*
X128392142Y-121569819D01*
X128392142Y-121569819D02*
X128534999Y-121617438D01*
X128534999Y-121617438D02*
X128582618Y-121665057D01*
X128773095Y-122665057D02*
X129534999Y-122665057D01*
X129773095Y-122569819D02*
X129773095Y-121569819D01*
X129773095Y-121569819D02*
X130106428Y-122284104D01*
X130106428Y-122284104D02*
X130439761Y-121569819D01*
X130439761Y-121569819D02*
X130439761Y-122569819D01*
X131487380Y-122474580D02*
X131439761Y-122522200D01*
X131439761Y-122522200D02*
X131296904Y-122569819D01*
X131296904Y-122569819D02*
X131201666Y-122569819D01*
X131201666Y-122569819D02*
X131058809Y-122522200D01*
X131058809Y-122522200D02*
X130963571Y-122426961D01*
X130963571Y-122426961D02*
X130915952Y-122331723D01*
X130915952Y-122331723D02*
X130868333Y-122141247D01*
X130868333Y-122141247D02*
X130868333Y-121998390D01*
X130868333Y-121998390D02*
X130915952Y-121807914D01*
X130915952Y-121807914D02*
X130963571Y-121712676D01*
X130963571Y-121712676D02*
X131058809Y-121617438D01*
X131058809Y-121617438D02*
X131201666Y-121569819D01*
X131201666Y-121569819D02*
X131296904Y-121569819D01*
X131296904Y-121569819D02*
X131439761Y-121617438D01*
X131439761Y-121617438D02*
X131487380Y-121665057D01*
X131915952Y-121569819D02*
X131915952Y-122379342D01*
X131915952Y-122379342D02*
X131963571Y-122474580D01*
X131963571Y-122474580D02*
X132011190Y-122522200D01*
X132011190Y-122522200D02*
X132106428Y-122569819D01*
X132106428Y-122569819D02*
X132296904Y-122569819D01*
X132296904Y-122569819D02*
X132392142Y-122522200D01*
X132392142Y-122522200D02*
X132439761Y-122474580D01*
X132439761Y-122474580D02*
X132487380Y-122379342D01*
X132487380Y-122379342D02*
X132487380Y-121569819D01*
X132725476Y-122665057D02*
X133487380Y-122665057D01*
X133582619Y-121569819D02*
X133915952Y-122569819D01*
X133915952Y-122569819D02*
X134249285Y-121569819D01*
X134582619Y-122569819D02*
X134582619Y-121569819D01*
X134582619Y-121569819D02*
X134820714Y-121569819D01*
X134820714Y-121569819D02*
X134963571Y-121617438D01*
X134963571Y-121617438D02*
X135058809Y-121712676D01*
X135058809Y-121712676D02*
X135106428Y-121807914D01*
X135106428Y-121807914D02*
X135154047Y-121998390D01*
X135154047Y-121998390D02*
X135154047Y-122141247D01*
X135154047Y-122141247D02*
X135106428Y-122331723D01*
X135106428Y-122331723D02*
X135058809Y-122426961D01*
X135058809Y-122426961D02*
X134963571Y-122522200D01*
X134963571Y-122522200D02*
X134820714Y-122569819D01*
X134820714Y-122569819D02*
X134582619Y-122569819D01*
X135582619Y-122569819D02*
X135582619Y-121569819D01*
X135582619Y-121569819D02*
X135820714Y-121569819D01*
X135820714Y-121569819D02*
X135963571Y-121617438D01*
X135963571Y-121617438D02*
X136058809Y-121712676D01*
X136058809Y-121712676D02*
X136106428Y-121807914D01*
X136106428Y-121807914D02*
X136154047Y-121998390D01*
X136154047Y-121998390D02*
X136154047Y-122141247D01*
X136154047Y-122141247D02*
X136106428Y-122331723D01*
X136106428Y-122331723D02*
X136058809Y-122426961D01*
X136058809Y-122426961D02*
X135963571Y-122522200D01*
X135963571Y-122522200D02*
X135820714Y-122569819D01*
X135820714Y-122569819D02*
X135582619Y-122569819D01*
X136535000Y-121665057D02*
X136582619Y-121617438D01*
X136582619Y-121617438D02*
X136677857Y-121569819D01*
X136677857Y-121569819D02*
X136915952Y-121569819D01*
X136915952Y-121569819D02*
X137011190Y-121617438D01*
X137011190Y-121617438D02*
X137058809Y-121665057D01*
X137058809Y-121665057D02*
X137106428Y-121760295D01*
X137106428Y-121760295D02*
X137106428Y-121855533D01*
X137106428Y-121855533D02*
X137058809Y-121998390D01*
X137058809Y-121998390D02*
X136487381Y-122569819D01*
X136487381Y-122569819D02*
X137106428Y-122569819D01*
X139711667Y-71217295D02*
X139445000Y-70836342D01*
X139254524Y-71217295D02*
X139254524Y-70417295D01*
X139254524Y-70417295D02*
X139559286Y-70417295D01*
X139559286Y-70417295D02*
X139635476Y-70455390D01*
X139635476Y-70455390D02*
X139673571Y-70493485D01*
X139673571Y-70493485D02*
X139711667Y-70569676D01*
X139711667Y-70569676D02*
X139711667Y-70683961D01*
X139711667Y-70683961D02*
X139673571Y-70760152D01*
X139673571Y-70760152D02*
X139635476Y-70798247D01*
X139635476Y-70798247D02*
X139559286Y-70836342D01*
X139559286Y-70836342D02*
X139254524Y-70836342D01*
X139978333Y-70417295D02*
X140473571Y-70417295D01*
X140473571Y-70417295D02*
X140206905Y-70722057D01*
X140206905Y-70722057D02*
X140321190Y-70722057D01*
X140321190Y-70722057D02*
X140397381Y-70760152D01*
X140397381Y-70760152D02*
X140435476Y-70798247D01*
X140435476Y-70798247D02*
X140473571Y-70874438D01*
X140473571Y-70874438D02*
X140473571Y-71064914D01*
X140473571Y-71064914D02*
X140435476Y-71141104D01*
X140435476Y-71141104D02*
X140397381Y-71179200D01*
X140397381Y-71179200D02*
X140321190Y-71217295D01*
X140321190Y-71217295D02*
X140092619Y-71217295D01*
X140092619Y-71217295D02*
X140016428Y-71179200D01*
X140016428Y-71179200D02*
X139978333Y-71141104D01*
X77335714Y-94032295D02*
X77069047Y-93651342D01*
X76878571Y-94032295D02*
X76878571Y-93232295D01*
X76878571Y-93232295D02*
X77183333Y-93232295D01*
X77183333Y-93232295D02*
X77259523Y-93270390D01*
X77259523Y-93270390D02*
X77297618Y-93308485D01*
X77297618Y-93308485D02*
X77335714Y-93384676D01*
X77335714Y-93384676D02*
X77335714Y-93498961D01*
X77335714Y-93498961D02*
X77297618Y-93575152D01*
X77297618Y-93575152D02*
X77259523Y-93613247D01*
X77259523Y-93613247D02*
X77183333Y-93651342D01*
X77183333Y-93651342D02*
X76878571Y-93651342D01*
X77640475Y-93994200D02*
X77754761Y-94032295D01*
X77754761Y-94032295D02*
X77945237Y-94032295D01*
X77945237Y-94032295D02*
X78021428Y-93994200D01*
X78021428Y-93994200D02*
X78059523Y-93956104D01*
X78059523Y-93956104D02*
X78097618Y-93879914D01*
X78097618Y-93879914D02*
X78097618Y-93803723D01*
X78097618Y-93803723D02*
X78059523Y-93727533D01*
X78059523Y-93727533D02*
X78021428Y-93689438D01*
X78021428Y-93689438D02*
X77945237Y-93651342D01*
X77945237Y-93651342D02*
X77792856Y-93613247D01*
X77792856Y-93613247D02*
X77716666Y-93575152D01*
X77716666Y-93575152D02*
X77678571Y-93537057D01*
X77678571Y-93537057D02*
X77640475Y-93460866D01*
X77640475Y-93460866D02*
X77640475Y-93384676D01*
X77640475Y-93384676D02*
X77678571Y-93308485D01*
X77678571Y-93308485D02*
X77716666Y-93270390D01*
X77716666Y-93270390D02*
X77792856Y-93232295D01*
X77792856Y-93232295D02*
X77983333Y-93232295D01*
X77983333Y-93232295D02*
X78097618Y-93270390D01*
X78707142Y-93613247D02*
X78821428Y-93651342D01*
X78821428Y-93651342D02*
X78859523Y-93689438D01*
X78859523Y-93689438D02*
X78897619Y-93765628D01*
X78897619Y-93765628D02*
X78897619Y-93879914D01*
X78897619Y-93879914D02*
X78859523Y-93956104D01*
X78859523Y-93956104D02*
X78821428Y-93994200D01*
X78821428Y-93994200D02*
X78745238Y-94032295D01*
X78745238Y-94032295D02*
X78440476Y-94032295D01*
X78440476Y-94032295D02*
X78440476Y-93232295D01*
X78440476Y-93232295D02*
X78707142Y-93232295D01*
X78707142Y-93232295D02*
X78783333Y-93270390D01*
X78783333Y-93270390D02*
X78821428Y-93308485D01*
X78821428Y-93308485D02*
X78859523Y-93384676D01*
X78859523Y-93384676D02*
X78859523Y-93460866D01*
X78859523Y-93460866D02*
X78821428Y-93537057D01*
X78821428Y-93537057D02*
X78783333Y-93575152D01*
X78783333Y-93575152D02*
X78707142Y-93613247D01*
X78707142Y-93613247D02*
X78440476Y-93613247D01*
X79202380Y-93308485D02*
X79240476Y-93270390D01*
X79240476Y-93270390D02*
X79316666Y-93232295D01*
X79316666Y-93232295D02*
X79507142Y-93232295D01*
X79507142Y-93232295D02*
X79583333Y-93270390D01*
X79583333Y-93270390D02*
X79621428Y-93308485D01*
X79621428Y-93308485D02*
X79659523Y-93384676D01*
X79659523Y-93384676D02*
X79659523Y-93460866D01*
X79659523Y-93460866D02*
X79621428Y-93575152D01*
X79621428Y-93575152D02*
X79164285Y-94032295D01*
X79164285Y-94032295D02*
X79659523Y-94032295D01*
X87469048Y-81956104D02*
X87430952Y-81994200D01*
X87430952Y-81994200D02*
X87316667Y-82032295D01*
X87316667Y-82032295D02*
X87240476Y-82032295D01*
X87240476Y-82032295D02*
X87126190Y-81994200D01*
X87126190Y-81994200D02*
X87050000Y-81918009D01*
X87050000Y-81918009D02*
X87011905Y-81841819D01*
X87011905Y-81841819D02*
X86973809Y-81689438D01*
X86973809Y-81689438D02*
X86973809Y-81575152D01*
X86973809Y-81575152D02*
X87011905Y-81422771D01*
X87011905Y-81422771D02*
X87050000Y-81346580D01*
X87050000Y-81346580D02*
X87126190Y-81270390D01*
X87126190Y-81270390D02*
X87240476Y-81232295D01*
X87240476Y-81232295D02*
X87316667Y-81232295D01*
X87316667Y-81232295D02*
X87430952Y-81270390D01*
X87430952Y-81270390D02*
X87469048Y-81308485D01*
X87621429Y-82108485D02*
X88230952Y-82108485D01*
X88307143Y-81232295D02*
X88573810Y-82032295D01*
X88573810Y-82032295D02*
X88840476Y-81232295D01*
X89564286Y-81956104D02*
X89526190Y-81994200D01*
X89526190Y-81994200D02*
X89411905Y-82032295D01*
X89411905Y-82032295D02*
X89335714Y-82032295D01*
X89335714Y-82032295D02*
X89221428Y-81994200D01*
X89221428Y-81994200D02*
X89145238Y-81918009D01*
X89145238Y-81918009D02*
X89107143Y-81841819D01*
X89107143Y-81841819D02*
X89069047Y-81689438D01*
X89069047Y-81689438D02*
X89069047Y-81575152D01*
X89069047Y-81575152D02*
X89107143Y-81422771D01*
X89107143Y-81422771D02*
X89145238Y-81346580D01*
X89145238Y-81346580D02*
X89221428Y-81270390D01*
X89221428Y-81270390D02*
X89335714Y-81232295D01*
X89335714Y-81232295D02*
X89411905Y-81232295D01*
X89411905Y-81232295D02*
X89526190Y-81270390D01*
X89526190Y-81270390D02*
X89564286Y-81308485D01*
X90364286Y-81956104D02*
X90326190Y-81994200D01*
X90326190Y-81994200D02*
X90211905Y-82032295D01*
X90211905Y-82032295D02*
X90135714Y-82032295D01*
X90135714Y-82032295D02*
X90021428Y-81994200D01*
X90021428Y-81994200D02*
X89945238Y-81918009D01*
X89945238Y-81918009D02*
X89907143Y-81841819D01*
X89907143Y-81841819D02*
X89869047Y-81689438D01*
X89869047Y-81689438D02*
X89869047Y-81575152D01*
X89869047Y-81575152D02*
X89907143Y-81422771D01*
X89907143Y-81422771D02*
X89945238Y-81346580D01*
X89945238Y-81346580D02*
X90021428Y-81270390D01*
X90021428Y-81270390D02*
X90135714Y-81232295D01*
X90135714Y-81232295D02*
X90211905Y-81232295D01*
X90211905Y-81232295D02*
X90326190Y-81270390D01*
X90326190Y-81270390D02*
X90364286Y-81308485D01*
X90669047Y-81308485D02*
X90707143Y-81270390D01*
X90707143Y-81270390D02*
X90783333Y-81232295D01*
X90783333Y-81232295D02*
X90973809Y-81232295D01*
X90973809Y-81232295D02*
X91050000Y-81270390D01*
X91050000Y-81270390D02*
X91088095Y-81308485D01*
X91088095Y-81308485D02*
X91126190Y-81384676D01*
X91126190Y-81384676D02*
X91126190Y-81460866D01*
X91126190Y-81460866D02*
X91088095Y-81575152D01*
X91088095Y-81575152D02*
X90630952Y-82032295D01*
X90630952Y-82032295D02*
X91126190Y-82032295D01*
X129368809Y-114569819D02*
X129035476Y-114093628D01*
X128797381Y-114569819D02*
X128797381Y-113569819D01*
X128797381Y-113569819D02*
X129178333Y-113569819D01*
X129178333Y-113569819D02*
X129273571Y-113617438D01*
X129273571Y-113617438D02*
X129321190Y-113665057D01*
X129321190Y-113665057D02*
X129368809Y-113760295D01*
X129368809Y-113760295D02*
X129368809Y-113903152D01*
X129368809Y-113903152D02*
X129321190Y-113998390D01*
X129321190Y-113998390D02*
X129273571Y-114046009D01*
X129273571Y-114046009D02*
X129178333Y-114093628D01*
X129178333Y-114093628D02*
X128797381Y-114093628D01*
X129559286Y-114665057D02*
X130321190Y-114665057D01*
X130892619Y-114046009D02*
X131035476Y-114093628D01*
X131035476Y-114093628D02*
X131083095Y-114141247D01*
X131083095Y-114141247D02*
X131130714Y-114236485D01*
X131130714Y-114236485D02*
X131130714Y-114379342D01*
X131130714Y-114379342D02*
X131083095Y-114474580D01*
X131083095Y-114474580D02*
X131035476Y-114522200D01*
X131035476Y-114522200D02*
X130940238Y-114569819D01*
X130940238Y-114569819D02*
X130559286Y-114569819D01*
X130559286Y-114569819D02*
X130559286Y-113569819D01*
X130559286Y-113569819D02*
X130892619Y-113569819D01*
X130892619Y-113569819D02*
X130987857Y-113617438D01*
X130987857Y-113617438D02*
X131035476Y-113665057D01*
X131035476Y-113665057D02*
X131083095Y-113760295D01*
X131083095Y-113760295D02*
X131083095Y-113855533D01*
X131083095Y-113855533D02*
X131035476Y-113950771D01*
X131035476Y-113950771D02*
X130987857Y-113998390D01*
X130987857Y-113998390D02*
X130892619Y-114046009D01*
X130892619Y-114046009D02*
X130559286Y-114046009D01*
X131749762Y-113569819D02*
X131940238Y-113569819D01*
X131940238Y-113569819D02*
X132035476Y-113617438D01*
X132035476Y-113617438D02*
X132130714Y-113712676D01*
X132130714Y-113712676D02*
X132178333Y-113903152D01*
X132178333Y-113903152D02*
X132178333Y-114236485D01*
X132178333Y-114236485D02*
X132130714Y-114426961D01*
X132130714Y-114426961D02*
X132035476Y-114522200D01*
X132035476Y-114522200D02*
X131940238Y-114569819D01*
X131940238Y-114569819D02*
X131749762Y-114569819D01*
X131749762Y-114569819D02*
X131654524Y-114522200D01*
X131654524Y-114522200D02*
X131559286Y-114426961D01*
X131559286Y-114426961D02*
X131511667Y-114236485D01*
X131511667Y-114236485D02*
X131511667Y-113903152D01*
X131511667Y-113903152D02*
X131559286Y-113712676D01*
X131559286Y-113712676D02*
X131654524Y-113617438D01*
X131654524Y-113617438D02*
X131749762Y-113569819D01*
X132797381Y-113569819D02*
X132987857Y-113569819D01*
X132987857Y-113569819D02*
X133083095Y-113617438D01*
X133083095Y-113617438D02*
X133178333Y-113712676D01*
X133178333Y-113712676D02*
X133225952Y-113903152D01*
X133225952Y-113903152D02*
X133225952Y-114236485D01*
X133225952Y-114236485D02*
X133178333Y-114426961D01*
X133178333Y-114426961D02*
X133083095Y-114522200D01*
X133083095Y-114522200D02*
X132987857Y-114569819D01*
X132987857Y-114569819D02*
X132797381Y-114569819D01*
X132797381Y-114569819D02*
X132702143Y-114522200D01*
X132702143Y-114522200D02*
X132606905Y-114426961D01*
X132606905Y-114426961D02*
X132559286Y-114236485D01*
X132559286Y-114236485D02*
X132559286Y-113903152D01*
X132559286Y-113903152D02*
X132606905Y-113712676D01*
X132606905Y-113712676D02*
X132702143Y-113617438D01*
X132702143Y-113617438D02*
X132797381Y-113569819D01*
X133511667Y-113569819D02*
X134083095Y-113569819D01*
X133797381Y-114569819D02*
X133797381Y-113569819D01*
X134606905Y-113569819D02*
X134702143Y-113569819D01*
X134702143Y-113569819D02*
X134797381Y-113617438D01*
X134797381Y-113617438D02*
X134845000Y-113665057D01*
X134845000Y-113665057D02*
X134892619Y-113760295D01*
X134892619Y-113760295D02*
X134940238Y-113950771D01*
X134940238Y-113950771D02*
X134940238Y-114188866D01*
X134940238Y-114188866D02*
X134892619Y-114379342D01*
X134892619Y-114379342D02*
X134845000Y-114474580D01*
X134845000Y-114474580D02*
X134797381Y-114522200D01*
X134797381Y-114522200D02*
X134702143Y-114569819D01*
X134702143Y-114569819D02*
X134606905Y-114569819D01*
X134606905Y-114569819D02*
X134511667Y-114522200D01*
X134511667Y-114522200D02*
X134464048Y-114474580D01*
X134464048Y-114474580D02*
X134416429Y-114379342D01*
X134416429Y-114379342D02*
X134368810Y-114188866D01*
X134368810Y-114188866D02*
X134368810Y-113950771D01*
X134368810Y-113950771D02*
X134416429Y-113760295D01*
X134416429Y-113760295D02*
X134464048Y-113665057D01*
X134464048Y-113665057D02*
X134511667Y-113617438D01*
X134511667Y-113617438D02*
X134606905Y-113569819D01*
X87795238Y-109556104D02*
X87757142Y-109594200D01*
X87757142Y-109594200D02*
X87642857Y-109632295D01*
X87642857Y-109632295D02*
X87566666Y-109632295D01*
X87566666Y-109632295D02*
X87452380Y-109594200D01*
X87452380Y-109594200D02*
X87376190Y-109518009D01*
X87376190Y-109518009D02*
X87338095Y-109441819D01*
X87338095Y-109441819D02*
X87299999Y-109289438D01*
X87299999Y-109289438D02*
X87299999Y-109175152D01*
X87299999Y-109175152D02*
X87338095Y-109022771D01*
X87338095Y-109022771D02*
X87376190Y-108946580D01*
X87376190Y-108946580D02*
X87452380Y-108870390D01*
X87452380Y-108870390D02*
X87566666Y-108832295D01*
X87566666Y-108832295D02*
X87642857Y-108832295D01*
X87642857Y-108832295D02*
X87757142Y-108870390D01*
X87757142Y-108870390D02*
X87795238Y-108908485D01*
X87947619Y-109708485D02*
X88557142Y-109708485D01*
X89128571Y-108832295D02*
X88747619Y-108832295D01*
X88747619Y-108832295D02*
X88709523Y-109213247D01*
X88709523Y-109213247D02*
X88747619Y-109175152D01*
X88747619Y-109175152D02*
X88823809Y-109137057D01*
X88823809Y-109137057D02*
X89014285Y-109137057D01*
X89014285Y-109137057D02*
X89090476Y-109175152D01*
X89090476Y-109175152D02*
X89128571Y-109213247D01*
X89128571Y-109213247D02*
X89166666Y-109289438D01*
X89166666Y-109289438D02*
X89166666Y-109479914D01*
X89166666Y-109479914D02*
X89128571Y-109556104D01*
X89128571Y-109556104D02*
X89090476Y-109594200D01*
X89090476Y-109594200D02*
X89014285Y-109632295D01*
X89014285Y-109632295D02*
X88823809Y-109632295D01*
X88823809Y-109632295D02*
X88747619Y-109594200D01*
X88747619Y-109594200D02*
X88709523Y-109556104D01*
X89395238Y-108832295D02*
X89661905Y-109632295D01*
X89661905Y-109632295D02*
X89928571Y-108832295D01*
X90347619Y-108832295D02*
X90500000Y-108832295D01*
X90500000Y-108832295D02*
X90576190Y-108870390D01*
X90576190Y-108870390D02*
X90652381Y-108946580D01*
X90652381Y-108946580D02*
X90690476Y-109098961D01*
X90690476Y-109098961D02*
X90690476Y-109365628D01*
X90690476Y-109365628D02*
X90652381Y-109518009D01*
X90652381Y-109518009D02*
X90576190Y-109594200D01*
X90576190Y-109594200D02*
X90500000Y-109632295D01*
X90500000Y-109632295D02*
X90347619Y-109632295D01*
X90347619Y-109632295D02*
X90271428Y-109594200D01*
X90271428Y-109594200D02*
X90195238Y-109518009D01*
X90195238Y-109518009D02*
X90157142Y-109365628D01*
X90157142Y-109365628D02*
X90157142Y-109098961D01*
X90157142Y-109098961D02*
X90195238Y-108946580D01*
X90195238Y-108946580D02*
X90271428Y-108870390D01*
X90271428Y-108870390D02*
X90347619Y-108832295D01*
X91033333Y-108832295D02*
X91033333Y-109479914D01*
X91033333Y-109479914D02*
X91071428Y-109556104D01*
X91071428Y-109556104D02*
X91109523Y-109594200D01*
X91109523Y-109594200D02*
X91185714Y-109632295D01*
X91185714Y-109632295D02*
X91338095Y-109632295D01*
X91338095Y-109632295D02*
X91414285Y-109594200D01*
X91414285Y-109594200D02*
X91452380Y-109556104D01*
X91452380Y-109556104D02*
X91490476Y-109479914D01*
X91490476Y-109479914D02*
X91490476Y-108832295D01*
X91757142Y-108832295D02*
X92214285Y-108832295D01*
X91985713Y-109632295D02*
X91985713Y-108832295D01*
X92404761Y-108832295D02*
X92899999Y-108832295D01*
X92899999Y-108832295D02*
X92633333Y-109137057D01*
X92633333Y-109137057D02*
X92747618Y-109137057D01*
X92747618Y-109137057D02*
X92823809Y-109175152D01*
X92823809Y-109175152D02*
X92861904Y-109213247D01*
X92861904Y-109213247D02*
X92899999Y-109289438D01*
X92899999Y-109289438D02*
X92899999Y-109479914D01*
X92899999Y-109479914D02*
X92861904Y-109556104D01*
X92861904Y-109556104D02*
X92823809Y-109594200D01*
X92823809Y-109594200D02*
X92747618Y-109632295D01*
X92747618Y-109632295D02*
X92519047Y-109632295D01*
X92519047Y-109632295D02*
X92442856Y-109594200D01*
X92442856Y-109594200D02*
X92404761Y-109556104D01*
X85986104Y-119079523D02*
X86024200Y-119117619D01*
X86024200Y-119117619D02*
X86062295Y-119231904D01*
X86062295Y-119231904D02*
X86062295Y-119308095D01*
X86062295Y-119308095D02*
X86024200Y-119422381D01*
X86024200Y-119422381D02*
X85948009Y-119498571D01*
X85948009Y-119498571D02*
X85871819Y-119536666D01*
X85871819Y-119536666D02*
X85719438Y-119574762D01*
X85719438Y-119574762D02*
X85605152Y-119574762D01*
X85605152Y-119574762D02*
X85452771Y-119536666D01*
X85452771Y-119536666D02*
X85376580Y-119498571D01*
X85376580Y-119498571D02*
X85300390Y-119422381D01*
X85300390Y-119422381D02*
X85262295Y-119308095D01*
X85262295Y-119308095D02*
X85262295Y-119231904D01*
X85262295Y-119231904D02*
X85300390Y-119117619D01*
X85300390Y-119117619D02*
X85338485Y-119079523D01*
X86138485Y-118927143D02*
X86138485Y-118317619D01*
X85262295Y-118241428D02*
X86062295Y-117974761D01*
X86062295Y-117974761D02*
X85262295Y-117708095D01*
X86024200Y-117479524D02*
X86062295Y-117365238D01*
X86062295Y-117365238D02*
X86062295Y-117174762D01*
X86062295Y-117174762D02*
X86024200Y-117098571D01*
X86024200Y-117098571D02*
X85986104Y-117060476D01*
X85986104Y-117060476D02*
X85909914Y-117022381D01*
X85909914Y-117022381D02*
X85833723Y-117022381D01*
X85833723Y-117022381D02*
X85757533Y-117060476D01*
X85757533Y-117060476D02*
X85719438Y-117098571D01*
X85719438Y-117098571D02*
X85681342Y-117174762D01*
X85681342Y-117174762D02*
X85643247Y-117327143D01*
X85643247Y-117327143D02*
X85605152Y-117403333D01*
X85605152Y-117403333D02*
X85567057Y-117441428D01*
X85567057Y-117441428D02*
X85490866Y-117479524D01*
X85490866Y-117479524D02*
X85414676Y-117479524D01*
X85414676Y-117479524D02*
X85338485Y-117441428D01*
X85338485Y-117441428D02*
X85300390Y-117403333D01*
X85300390Y-117403333D02*
X85262295Y-117327143D01*
X85262295Y-117327143D02*
X85262295Y-117136666D01*
X85262295Y-117136666D02*
X85300390Y-117022381D01*
X86138485Y-116870000D02*
X86138485Y-116260476D01*
X85643247Y-115803333D02*
X85681342Y-115689047D01*
X85681342Y-115689047D02*
X85719438Y-115650952D01*
X85719438Y-115650952D02*
X85795628Y-115612856D01*
X85795628Y-115612856D02*
X85909914Y-115612856D01*
X85909914Y-115612856D02*
X85986104Y-115650952D01*
X85986104Y-115650952D02*
X86024200Y-115689047D01*
X86024200Y-115689047D02*
X86062295Y-115765237D01*
X86062295Y-115765237D02*
X86062295Y-116069999D01*
X86062295Y-116069999D02*
X85262295Y-116069999D01*
X85262295Y-116069999D02*
X85262295Y-115803333D01*
X85262295Y-115803333D02*
X85300390Y-115727142D01*
X85300390Y-115727142D02*
X85338485Y-115689047D01*
X85338485Y-115689047D02*
X85414676Y-115650952D01*
X85414676Y-115650952D02*
X85490866Y-115650952D01*
X85490866Y-115650952D02*
X85567057Y-115689047D01*
X85567057Y-115689047D02*
X85605152Y-115727142D01*
X85605152Y-115727142D02*
X85643247Y-115803333D01*
X85643247Y-115803333D02*
X85643247Y-116069999D01*
X85262295Y-115269999D02*
X85909914Y-115269999D01*
X85909914Y-115269999D02*
X85986104Y-115231904D01*
X85986104Y-115231904D02*
X86024200Y-115193809D01*
X86024200Y-115193809D02*
X86062295Y-115117618D01*
X86062295Y-115117618D02*
X86062295Y-114965237D01*
X86062295Y-114965237D02*
X86024200Y-114889047D01*
X86024200Y-114889047D02*
X85986104Y-114850952D01*
X85986104Y-114850952D02*
X85909914Y-114812856D01*
X85909914Y-114812856D02*
X85262295Y-114812856D01*
X86062295Y-114050952D02*
X86062295Y-114431904D01*
X86062295Y-114431904D02*
X85262295Y-114431904D01*
X86062295Y-113784285D02*
X85262295Y-113784285D01*
X86062295Y-113327142D02*
X85605152Y-113670000D01*
X85262295Y-113327142D02*
X85719438Y-113784285D01*
X85262295Y-113060476D02*
X85262295Y-112565238D01*
X85262295Y-112565238D02*
X85567057Y-112831904D01*
X85567057Y-112831904D02*
X85567057Y-112717619D01*
X85567057Y-112717619D02*
X85605152Y-112641428D01*
X85605152Y-112641428D02*
X85643247Y-112603333D01*
X85643247Y-112603333D02*
X85719438Y-112565238D01*
X85719438Y-112565238D02*
X85909914Y-112565238D01*
X85909914Y-112565238D02*
X85986104Y-112603333D01*
X85986104Y-112603333D02*
X86024200Y-112641428D01*
X86024200Y-112641428D02*
X86062295Y-112717619D01*
X86062295Y-112717619D02*
X86062295Y-112946190D01*
X86062295Y-112946190D02*
X86024200Y-113022381D01*
X86024200Y-113022381D02*
X85986104Y-113060476D01*
X73136104Y-85765237D02*
X73174200Y-85803333D01*
X73174200Y-85803333D02*
X73212295Y-85917618D01*
X73212295Y-85917618D02*
X73212295Y-85993809D01*
X73212295Y-85993809D02*
X73174200Y-86108095D01*
X73174200Y-86108095D02*
X73098009Y-86184285D01*
X73098009Y-86184285D02*
X73021819Y-86222380D01*
X73021819Y-86222380D02*
X72869438Y-86260476D01*
X72869438Y-86260476D02*
X72755152Y-86260476D01*
X72755152Y-86260476D02*
X72602771Y-86222380D01*
X72602771Y-86222380D02*
X72526580Y-86184285D01*
X72526580Y-86184285D02*
X72450390Y-86108095D01*
X72450390Y-86108095D02*
X72412295Y-85993809D01*
X72412295Y-85993809D02*
X72412295Y-85917618D01*
X72412295Y-85917618D02*
X72450390Y-85803333D01*
X72450390Y-85803333D02*
X72488485Y-85765237D01*
X73288485Y-85612857D02*
X73288485Y-85003333D01*
X72412295Y-84927142D02*
X73212295Y-84660475D01*
X73212295Y-84660475D02*
X72412295Y-84393809D01*
X73136104Y-83669999D02*
X73174200Y-83708095D01*
X73174200Y-83708095D02*
X73212295Y-83822380D01*
X73212295Y-83822380D02*
X73212295Y-83898571D01*
X73212295Y-83898571D02*
X73174200Y-84012857D01*
X73174200Y-84012857D02*
X73098009Y-84089047D01*
X73098009Y-84089047D02*
X73021819Y-84127142D01*
X73021819Y-84127142D02*
X72869438Y-84165238D01*
X72869438Y-84165238D02*
X72755152Y-84165238D01*
X72755152Y-84165238D02*
X72602771Y-84127142D01*
X72602771Y-84127142D02*
X72526580Y-84089047D01*
X72526580Y-84089047D02*
X72450390Y-84012857D01*
X72450390Y-84012857D02*
X72412295Y-83898571D01*
X72412295Y-83898571D02*
X72412295Y-83822380D01*
X72412295Y-83822380D02*
X72450390Y-83708095D01*
X72450390Y-83708095D02*
X72488485Y-83669999D01*
X73136104Y-82869999D02*
X73174200Y-82908095D01*
X73174200Y-82908095D02*
X73212295Y-83022380D01*
X73212295Y-83022380D02*
X73212295Y-83098571D01*
X73212295Y-83098571D02*
X73174200Y-83212857D01*
X73174200Y-83212857D02*
X73098009Y-83289047D01*
X73098009Y-83289047D02*
X73021819Y-83327142D01*
X73021819Y-83327142D02*
X72869438Y-83365238D01*
X72869438Y-83365238D02*
X72755152Y-83365238D01*
X72755152Y-83365238D02*
X72602771Y-83327142D01*
X72602771Y-83327142D02*
X72526580Y-83289047D01*
X72526580Y-83289047D02*
X72450390Y-83212857D01*
X72450390Y-83212857D02*
X72412295Y-83098571D01*
X72412295Y-83098571D02*
X72412295Y-83022380D01*
X72412295Y-83022380D02*
X72450390Y-82908095D01*
X72450390Y-82908095D02*
X72488485Y-82869999D01*
X73288485Y-82717619D02*
X73288485Y-82108095D01*
X73212295Y-81917618D02*
X72412295Y-81917618D01*
X72412295Y-81384285D02*
X72412295Y-81231904D01*
X72412295Y-81231904D02*
X72450390Y-81155714D01*
X72450390Y-81155714D02*
X72526580Y-81079523D01*
X72526580Y-81079523D02*
X72678961Y-81041428D01*
X72678961Y-81041428D02*
X72945628Y-81041428D01*
X72945628Y-81041428D02*
X73098009Y-81079523D01*
X73098009Y-81079523D02*
X73174200Y-81155714D01*
X73174200Y-81155714D02*
X73212295Y-81231904D01*
X73212295Y-81231904D02*
X73212295Y-81384285D01*
X73212295Y-81384285D02*
X73174200Y-81460476D01*
X73174200Y-81460476D02*
X73098009Y-81536666D01*
X73098009Y-81536666D02*
X72945628Y-81574762D01*
X72945628Y-81574762D02*
X72678961Y-81574762D01*
X72678961Y-81574762D02*
X72526580Y-81536666D01*
X72526580Y-81536666D02*
X72450390Y-81460476D01*
X72450390Y-81460476D02*
X72412295Y-81384285D01*
X72488485Y-80736667D02*
X72450390Y-80698571D01*
X72450390Y-80698571D02*
X72412295Y-80622381D01*
X72412295Y-80622381D02*
X72412295Y-80431905D01*
X72412295Y-80431905D02*
X72450390Y-80355714D01*
X72450390Y-80355714D02*
X72488485Y-80317619D01*
X72488485Y-80317619D02*
X72564676Y-80279524D01*
X72564676Y-80279524D02*
X72640866Y-80279524D01*
X72640866Y-80279524D02*
X72755152Y-80317619D01*
X72755152Y-80317619D02*
X73212295Y-80774762D01*
X73212295Y-80774762D02*
X73212295Y-80279524D01*
X82736104Y-76317618D02*
X82774200Y-76355714D01*
X82774200Y-76355714D02*
X82812295Y-76469999D01*
X82812295Y-76469999D02*
X82812295Y-76546190D01*
X82812295Y-76546190D02*
X82774200Y-76660476D01*
X82774200Y-76660476D02*
X82698009Y-76736666D01*
X82698009Y-76736666D02*
X82621819Y-76774761D01*
X82621819Y-76774761D02*
X82469438Y-76812857D01*
X82469438Y-76812857D02*
X82355152Y-76812857D01*
X82355152Y-76812857D02*
X82202771Y-76774761D01*
X82202771Y-76774761D02*
X82126580Y-76736666D01*
X82126580Y-76736666D02*
X82050390Y-76660476D01*
X82050390Y-76660476D02*
X82012295Y-76546190D01*
X82012295Y-76546190D02*
X82012295Y-76469999D01*
X82012295Y-76469999D02*
X82050390Y-76355714D01*
X82050390Y-76355714D02*
X82088485Y-76317618D01*
X82888485Y-76165238D02*
X82888485Y-75555714D01*
X82393247Y-75098571D02*
X82431342Y-74984285D01*
X82431342Y-74984285D02*
X82469438Y-74946190D01*
X82469438Y-74946190D02*
X82545628Y-74908094D01*
X82545628Y-74908094D02*
X82659914Y-74908094D01*
X82659914Y-74908094D02*
X82736104Y-74946190D01*
X82736104Y-74946190D02*
X82774200Y-74984285D01*
X82774200Y-74984285D02*
X82812295Y-75060475D01*
X82812295Y-75060475D02*
X82812295Y-75365237D01*
X82812295Y-75365237D02*
X82012295Y-75365237D01*
X82012295Y-75365237D02*
X82012295Y-75098571D01*
X82012295Y-75098571D02*
X82050390Y-75022380D01*
X82050390Y-75022380D02*
X82088485Y-74984285D01*
X82088485Y-74984285D02*
X82164676Y-74946190D01*
X82164676Y-74946190D02*
X82240866Y-74946190D01*
X82240866Y-74946190D02*
X82317057Y-74984285D01*
X82317057Y-74984285D02*
X82355152Y-75022380D01*
X82355152Y-75022380D02*
X82393247Y-75098571D01*
X82393247Y-75098571D02*
X82393247Y-75365237D01*
X82812295Y-74108094D02*
X82431342Y-74374761D01*
X82812295Y-74565237D02*
X82012295Y-74565237D01*
X82012295Y-74565237D02*
X82012295Y-74260475D01*
X82012295Y-74260475D02*
X82050390Y-74184285D01*
X82050390Y-74184285D02*
X82088485Y-74146190D01*
X82088485Y-74146190D02*
X82164676Y-74108094D01*
X82164676Y-74108094D02*
X82278961Y-74108094D01*
X82278961Y-74108094D02*
X82355152Y-74146190D01*
X82355152Y-74146190D02*
X82393247Y-74184285D01*
X82393247Y-74184285D02*
X82431342Y-74260475D01*
X82431342Y-74260475D02*
X82431342Y-74565237D01*
X82583723Y-73803333D02*
X82583723Y-73422380D01*
X82812295Y-73879523D02*
X82012295Y-73612856D01*
X82012295Y-73612856D02*
X82812295Y-73346190D01*
X82888485Y-73270000D02*
X82888485Y-72660476D01*
X82393247Y-72203333D02*
X82393247Y-72469999D01*
X82812295Y-72469999D02*
X82012295Y-72469999D01*
X82012295Y-72469999D02*
X82012295Y-72089047D01*
X82812295Y-71784285D02*
X82012295Y-71784285D01*
X82812295Y-71022381D02*
X82812295Y-71403333D01*
X82812295Y-71403333D02*
X82012295Y-71403333D01*
X82012295Y-70870000D02*
X82012295Y-70412857D01*
X82812295Y-70641429D02*
X82012295Y-70641429D01*
X82088485Y-70184286D02*
X82050390Y-70146190D01*
X82050390Y-70146190D02*
X82012295Y-70070000D01*
X82012295Y-70070000D02*
X82012295Y-69879524D01*
X82012295Y-69879524D02*
X82050390Y-69803333D01*
X82050390Y-69803333D02*
X82088485Y-69765238D01*
X82088485Y-69765238D02*
X82164676Y-69727143D01*
X82164676Y-69727143D02*
X82240866Y-69727143D01*
X82240866Y-69727143D02*
X82355152Y-69765238D01*
X82355152Y-69765238D02*
X82812295Y-70222381D01*
X82812295Y-70222381D02*
X82812295Y-69727143D01*
X139711667Y-73207295D02*
X139445000Y-72826342D01*
X139254524Y-73207295D02*
X139254524Y-72407295D01*
X139254524Y-72407295D02*
X139559286Y-72407295D01*
X139559286Y-72407295D02*
X139635476Y-72445390D01*
X139635476Y-72445390D02*
X139673571Y-72483485D01*
X139673571Y-72483485D02*
X139711667Y-72559676D01*
X139711667Y-72559676D02*
X139711667Y-72673961D01*
X139711667Y-72673961D02*
X139673571Y-72750152D01*
X139673571Y-72750152D02*
X139635476Y-72788247D01*
X139635476Y-72788247D02*
X139559286Y-72826342D01*
X139559286Y-72826342D02*
X139254524Y-72826342D01*
X140397381Y-72673961D02*
X140397381Y-73207295D01*
X140206905Y-72369200D02*
X140016428Y-72940628D01*
X140016428Y-72940628D02*
X140511667Y-72940628D01*
X73386104Y-111765237D02*
X73424200Y-111803333D01*
X73424200Y-111803333D02*
X73462295Y-111917618D01*
X73462295Y-111917618D02*
X73462295Y-111993809D01*
X73462295Y-111993809D02*
X73424200Y-112108095D01*
X73424200Y-112108095D02*
X73348009Y-112184285D01*
X73348009Y-112184285D02*
X73271819Y-112222380D01*
X73271819Y-112222380D02*
X73119438Y-112260476D01*
X73119438Y-112260476D02*
X73005152Y-112260476D01*
X73005152Y-112260476D02*
X72852771Y-112222380D01*
X72852771Y-112222380D02*
X72776580Y-112184285D01*
X72776580Y-112184285D02*
X72700390Y-112108095D01*
X72700390Y-112108095D02*
X72662295Y-111993809D01*
X72662295Y-111993809D02*
X72662295Y-111917618D01*
X72662295Y-111917618D02*
X72700390Y-111803333D01*
X72700390Y-111803333D02*
X72738485Y-111765237D01*
X73538485Y-111612857D02*
X73538485Y-111003333D01*
X72662295Y-110927142D02*
X73462295Y-110660475D01*
X73462295Y-110660475D02*
X72662295Y-110393809D01*
X73386104Y-109669999D02*
X73424200Y-109708095D01*
X73424200Y-109708095D02*
X73462295Y-109822380D01*
X73462295Y-109822380D02*
X73462295Y-109898571D01*
X73462295Y-109898571D02*
X73424200Y-110012857D01*
X73424200Y-110012857D02*
X73348009Y-110089047D01*
X73348009Y-110089047D02*
X73271819Y-110127142D01*
X73271819Y-110127142D02*
X73119438Y-110165238D01*
X73119438Y-110165238D02*
X73005152Y-110165238D01*
X73005152Y-110165238D02*
X72852771Y-110127142D01*
X72852771Y-110127142D02*
X72776580Y-110089047D01*
X72776580Y-110089047D02*
X72700390Y-110012857D01*
X72700390Y-110012857D02*
X72662295Y-109898571D01*
X72662295Y-109898571D02*
X72662295Y-109822380D01*
X72662295Y-109822380D02*
X72700390Y-109708095D01*
X72700390Y-109708095D02*
X72738485Y-109669999D01*
X73386104Y-108869999D02*
X73424200Y-108908095D01*
X73424200Y-108908095D02*
X73462295Y-109022380D01*
X73462295Y-109022380D02*
X73462295Y-109098571D01*
X73462295Y-109098571D02*
X73424200Y-109212857D01*
X73424200Y-109212857D02*
X73348009Y-109289047D01*
X73348009Y-109289047D02*
X73271819Y-109327142D01*
X73271819Y-109327142D02*
X73119438Y-109365238D01*
X73119438Y-109365238D02*
X73005152Y-109365238D01*
X73005152Y-109365238D02*
X72852771Y-109327142D01*
X72852771Y-109327142D02*
X72776580Y-109289047D01*
X72776580Y-109289047D02*
X72700390Y-109212857D01*
X72700390Y-109212857D02*
X72662295Y-109098571D01*
X72662295Y-109098571D02*
X72662295Y-109022380D01*
X72662295Y-109022380D02*
X72700390Y-108908095D01*
X72700390Y-108908095D02*
X72738485Y-108869999D01*
X73538485Y-108717619D02*
X73538485Y-108108095D01*
X73462295Y-107917618D02*
X72662295Y-107917618D01*
X72662295Y-107384285D02*
X72662295Y-107231904D01*
X72662295Y-107231904D02*
X72700390Y-107155714D01*
X72700390Y-107155714D02*
X72776580Y-107079523D01*
X72776580Y-107079523D02*
X72928961Y-107041428D01*
X72928961Y-107041428D02*
X73195628Y-107041428D01*
X73195628Y-107041428D02*
X73348009Y-107079523D01*
X73348009Y-107079523D02*
X73424200Y-107155714D01*
X73424200Y-107155714D02*
X73462295Y-107231904D01*
X73462295Y-107231904D02*
X73462295Y-107384285D01*
X73462295Y-107384285D02*
X73424200Y-107460476D01*
X73424200Y-107460476D02*
X73348009Y-107536666D01*
X73348009Y-107536666D02*
X73195628Y-107574762D01*
X73195628Y-107574762D02*
X72928961Y-107574762D01*
X72928961Y-107574762D02*
X72776580Y-107536666D01*
X72776580Y-107536666D02*
X72700390Y-107460476D01*
X72700390Y-107460476D02*
X72662295Y-107384285D01*
X72662295Y-106774762D02*
X72662295Y-106279524D01*
X72662295Y-106279524D02*
X72967057Y-106546190D01*
X72967057Y-106546190D02*
X72967057Y-106431905D01*
X72967057Y-106431905D02*
X73005152Y-106355714D01*
X73005152Y-106355714D02*
X73043247Y-106317619D01*
X73043247Y-106317619D02*
X73119438Y-106279524D01*
X73119438Y-106279524D02*
X73309914Y-106279524D01*
X73309914Y-106279524D02*
X73386104Y-106317619D01*
X73386104Y-106317619D02*
X73424200Y-106355714D01*
X73424200Y-106355714D02*
X73462295Y-106431905D01*
X73462295Y-106431905D02*
X73462295Y-106660476D01*
X73462295Y-106660476D02*
X73424200Y-106736667D01*
X73424200Y-106736667D02*
X73386104Y-106774762D01*
X121629524Y-88057295D02*
X121629524Y-87257295D01*
X121629524Y-87257295D02*
X121820000Y-87257295D01*
X121820000Y-87257295D02*
X121934286Y-87295390D01*
X121934286Y-87295390D02*
X122010476Y-87371580D01*
X122010476Y-87371580D02*
X122048571Y-87447771D01*
X122048571Y-87447771D02*
X122086667Y-87600152D01*
X122086667Y-87600152D02*
X122086667Y-87714438D01*
X122086667Y-87714438D02*
X122048571Y-87866819D01*
X122048571Y-87866819D02*
X122010476Y-87943009D01*
X122010476Y-87943009D02*
X121934286Y-88019200D01*
X121934286Y-88019200D02*
X121820000Y-88057295D01*
X121820000Y-88057295D02*
X121629524Y-88057295D01*
X122391428Y-87333485D02*
X122429524Y-87295390D01*
X122429524Y-87295390D02*
X122505714Y-87257295D01*
X122505714Y-87257295D02*
X122696190Y-87257295D01*
X122696190Y-87257295D02*
X122772381Y-87295390D01*
X122772381Y-87295390D02*
X122810476Y-87333485D01*
X122810476Y-87333485D02*
X122848571Y-87409676D01*
X122848571Y-87409676D02*
X122848571Y-87485866D01*
X122848571Y-87485866D02*
X122810476Y-87600152D01*
X122810476Y-87600152D02*
X122353333Y-88057295D01*
X122353333Y-88057295D02*
X122848571Y-88057295D01*
X139711667Y-67237295D02*
X139445000Y-66856342D01*
X139254524Y-67237295D02*
X139254524Y-66437295D01*
X139254524Y-66437295D02*
X139559286Y-66437295D01*
X139559286Y-66437295D02*
X139635476Y-66475390D01*
X139635476Y-66475390D02*
X139673571Y-66513485D01*
X139673571Y-66513485D02*
X139711667Y-66589676D01*
X139711667Y-66589676D02*
X139711667Y-66703961D01*
X139711667Y-66703961D02*
X139673571Y-66780152D01*
X139673571Y-66780152D02*
X139635476Y-66818247D01*
X139635476Y-66818247D02*
X139559286Y-66856342D01*
X139559286Y-66856342D02*
X139254524Y-66856342D01*
X140473571Y-67237295D02*
X140016428Y-67237295D01*
X140245000Y-67237295D02*
X140245000Y-66437295D01*
X140245000Y-66437295D02*
X140168809Y-66551580D01*
X140168809Y-66551580D02*
X140092619Y-66627771D01*
X140092619Y-66627771D02*
X140016428Y-66665866D01*
X145911667Y-61611104D02*
X145873571Y-61649200D01*
X145873571Y-61649200D02*
X145759286Y-61687295D01*
X145759286Y-61687295D02*
X145683095Y-61687295D01*
X145683095Y-61687295D02*
X145568809Y-61649200D01*
X145568809Y-61649200D02*
X145492619Y-61573009D01*
X145492619Y-61573009D02*
X145454524Y-61496819D01*
X145454524Y-61496819D02*
X145416428Y-61344438D01*
X145416428Y-61344438D02*
X145416428Y-61230152D01*
X145416428Y-61230152D02*
X145454524Y-61077771D01*
X145454524Y-61077771D02*
X145492619Y-61001580D01*
X145492619Y-61001580D02*
X145568809Y-60925390D01*
X145568809Y-60925390D02*
X145683095Y-60887295D01*
X145683095Y-60887295D02*
X145759286Y-60887295D01*
X145759286Y-60887295D02*
X145873571Y-60925390D01*
X145873571Y-60925390D02*
X145911667Y-60963485D01*
X146216428Y-60963485D02*
X146254524Y-60925390D01*
X146254524Y-60925390D02*
X146330714Y-60887295D01*
X146330714Y-60887295D02*
X146521190Y-60887295D01*
X146521190Y-60887295D02*
X146597381Y-60925390D01*
X146597381Y-60925390D02*
X146635476Y-60963485D01*
X146635476Y-60963485D02*
X146673571Y-61039676D01*
X146673571Y-61039676D02*
X146673571Y-61115866D01*
X146673571Y-61115866D02*
X146635476Y-61230152D01*
X146635476Y-61230152D02*
X146178333Y-61687295D01*
X146178333Y-61687295D02*
X146673571Y-61687295D01*
X122391666Y-126969819D02*
X122391666Y-127684104D01*
X122391666Y-127684104D02*
X122344047Y-127826961D01*
X122344047Y-127826961D02*
X122248809Y-127922200D01*
X122248809Y-127922200D02*
X122105952Y-127969819D01*
X122105952Y-127969819D02*
X122010714Y-127969819D01*
X122820238Y-127065057D02*
X122867857Y-127017438D01*
X122867857Y-127017438D02*
X122963095Y-126969819D01*
X122963095Y-126969819D02*
X123201190Y-126969819D01*
X123201190Y-126969819D02*
X123296428Y-127017438D01*
X123296428Y-127017438D02*
X123344047Y-127065057D01*
X123344047Y-127065057D02*
X123391666Y-127160295D01*
X123391666Y-127160295D02*
X123391666Y-127255533D01*
X123391666Y-127255533D02*
X123344047Y-127398390D01*
X123344047Y-127398390D02*
X122772619Y-127969819D01*
X122772619Y-127969819D02*
X123391666Y-127969819D01*
X85678572Y-85032295D02*
X85411905Y-84651342D01*
X85221429Y-85032295D02*
X85221429Y-84232295D01*
X85221429Y-84232295D02*
X85526191Y-84232295D01*
X85526191Y-84232295D02*
X85602381Y-84270390D01*
X85602381Y-84270390D02*
X85640476Y-84308485D01*
X85640476Y-84308485D02*
X85678572Y-84384676D01*
X85678572Y-84384676D02*
X85678572Y-84498961D01*
X85678572Y-84498961D02*
X85640476Y-84575152D01*
X85640476Y-84575152D02*
X85602381Y-84613247D01*
X85602381Y-84613247D02*
X85526191Y-84651342D01*
X85526191Y-84651342D02*
X85221429Y-84651342D01*
X85830953Y-85108485D02*
X86440476Y-85108485D01*
X86630953Y-85032295D02*
X86630953Y-84232295D01*
X86630953Y-84232295D02*
X86821429Y-84232295D01*
X86821429Y-84232295D02*
X86935715Y-84270390D01*
X86935715Y-84270390D02*
X87011905Y-84346580D01*
X87011905Y-84346580D02*
X87050000Y-84422771D01*
X87050000Y-84422771D02*
X87088096Y-84575152D01*
X87088096Y-84575152D02*
X87088096Y-84689438D01*
X87088096Y-84689438D02*
X87050000Y-84841819D01*
X87050000Y-84841819D02*
X87011905Y-84918009D01*
X87011905Y-84918009D02*
X86935715Y-84994200D01*
X86935715Y-84994200D02*
X86821429Y-85032295D01*
X86821429Y-85032295D02*
X86630953Y-85032295D01*
X87430953Y-85032295D02*
X87430953Y-84232295D01*
X87773809Y-84803723D02*
X88154762Y-84803723D01*
X87697619Y-85032295D02*
X87964286Y-84232295D01*
X87964286Y-84232295D02*
X88230952Y-85032295D01*
X88916666Y-84270390D02*
X88840476Y-84232295D01*
X88840476Y-84232295D02*
X88726190Y-84232295D01*
X88726190Y-84232295D02*
X88611904Y-84270390D01*
X88611904Y-84270390D02*
X88535714Y-84346580D01*
X88535714Y-84346580D02*
X88497619Y-84422771D01*
X88497619Y-84422771D02*
X88459523Y-84575152D01*
X88459523Y-84575152D02*
X88459523Y-84689438D01*
X88459523Y-84689438D02*
X88497619Y-84841819D01*
X88497619Y-84841819D02*
X88535714Y-84918009D01*
X88535714Y-84918009D02*
X88611904Y-84994200D01*
X88611904Y-84994200D02*
X88726190Y-85032295D01*
X88726190Y-85032295D02*
X88802381Y-85032295D01*
X88802381Y-85032295D02*
X88916666Y-84994200D01*
X88916666Y-84994200D02*
X88954762Y-84956104D01*
X88954762Y-84956104D02*
X88954762Y-84689438D01*
X88954762Y-84689438D02*
X88802381Y-84689438D01*
X89716666Y-85032295D02*
X89259523Y-85032295D01*
X89488095Y-85032295D02*
X89488095Y-84232295D01*
X89488095Y-84232295D02*
X89411904Y-84346580D01*
X89411904Y-84346580D02*
X89335714Y-84422771D01*
X89335714Y-84422771D02*
X89259523Y-84460866D01*
X85736104Y-93079523D02*
X85774200Y-93117619D01*
X85774200Y-93117619D02*
X85812295Y-93231904D01*
X85812295Y-93231904D02*
X85812295Y-93308095D01*
X85812295Y-93308095D02*
X85774200Y-93422381D01*
X85774200Y-93422381D02*
X85698009Y-93498571D01*
X85698009Y-93498571D02*
X85621819Y-93536666D01*
X85621819Y-93536666D02*
X85469438Y-93574762D01*
X85469438Y-93574762D02*
X85355152Y-93574762D01*
X85355152Y-93574762D02*
X85202771Y-93536666D01*
X85202771Y-93536666D02*
X85126580Y-93498571D01*
X85126580Y-93498571D02*
X85050390Y-93422381D01*
X85050390Y-93422381D02*
X85012295Y-93308095D01*
X85012295Y-93308095D02*
X85012295Y-93231904D01*
X85012295Y-93231904D02*
X85050390Y-93117619D01*
X85050390Y-93117619D02*
X85088485Y-93079523D01*
X85888485Y-92927143D02*
X85888485Y-92317619D01*
X85012295Y-92241428D02*
X85812295Y-91974761D01*
X85812295Y-91974761D02*
X85012295Y-91708095D01*
X85774200Y-91479524D02*
X85812295Y-91365238D01*
X85812295Y-91365238D02*
X85812295Y-91174762D01*
X85812295Y-91174762D02*
X85774200Y-91098571D01*
X85774200Y-91098571D02*
X85736104Y-91060476D01*
X85736104Y-91060476D02*
X85659914Y-91022381D01*
X85659914Y-91022381D02*
X85583723Y-91022381D01*
X85583723Y-91022381D02*
X85507533Y-91060476D01*
X85507533Y-91060476D02*
X85469438Y-91098571D01*
X85469438Y-91098571D02*
X85431342Y-91174762D01*
X85431342Y-91174762D02*
X85393247Y-91327143D01*
X85393247Y-91327143D02*
X85355152Y-91403333D01*
X85355152Y-91403333D02*
X85317057Y-91441428D01*
X85317057Y-91441428D02*
X85240866Y-91479524D01*
X85240866Y-91479524D02*
X85164676Y-91479524D01*
X85164676Y-91479524D02*
X85088485Y-91441428D01*
X85088485Y-91441428D02*
X85050390Y-91403333D01*
X85050390Y-91403333D02*
X85012295Y-91327143D01*
X85012295Y-91327143D02*
X85012295Y-91136666D01*
X85012295Y-91136666D02*
X85050390Y-91022381D01*
X85888485Y-90870000D02*
X85888485Y-90260476D01*
X85393247Y-89803333D02*
X85431342Y-89689047D01*
X85431342Y-89689047D02*
X85469438Y-89650952D01*
X85469438Y-89650952D02*
X85545628Y-89612856D01*
X85545628Y-89612856D02*
X85659914Y-89612856D01*
X85659914Y-89612856D02*
X85736104Y-89650952D01*
X85736104Y-89650952D02*
X85774200Y-89689047D01*
X85774200Y-89689047D02*
X85812295Y-89765237D01*
X85812295Y-89765237D02*
X85812295Y-90069999D01*
X85812295Y-90069999D02*
X85012295Y-90069999D01*
X85012295Y-90069999D02*
X85012295Y-89803333D01*
X85012295Y-89803333D02*
X85050390Y-89727142D01*
X85050390Y-89727142D02*
X85088485Y-89689047D01*
X85088485Y-89689047D02*
X85164676Y-89650952D01*
X85164676Y-89650952D02*
X85240866Y-89650952D01*
X85240866Y-89650952D02*
X85317057Y-89689047D01*
X85317057Y-89689047D02*
X85355152Y-89727142D01*
X85355152Y-89727142D02*
X85393247Y-89803333D01*
X85393247Y-89803333D02*
X85393247Y-90069999D01*
X85012295Y-89269999D02*
X85659914Y-89269999D01*
X85659914Y-89269999D02*
X85736104Y-89231904D01*
X85736104Y-89231904D02*
X85774200Y-89193809D01*
X85774200Y-89193809D02*
X85812295Y-89117618D01*
X85812295Y-89117618D02*
X85812295Y-88965237D01*
X85812295Y-88965237D02*
X85774200Y-88889047D01*
X85774200Y-88889047D02*
X85736104Y-88850952D01*
X85736104Y-88850952D02*
X85659914Y-88812856D01*
X85659914Y-88812856D02*
X85012295Y-88812856D01*
X85812295Y-88050952D02*
X85812295Y-88431904D01*
X85812295Y-88431904D02*
X85012295Y-88431904D01*
X85812295Y-87784285D02*
X85012295Y-87784285D01*
X85812295Y-87327142D02*
X85355152Y-87670000D01*
X85012295Y-87327142D02*
X85469438Y-87784285D01*
X85088485Y-87022381D02*
X85050390Y-86984285D01*
X85050390Y-86984285D02*
X85012295Y-86908095D01*
X85012295Y-86908095D02*
X85012295Y-86717619D01*
X85012295Y-86717619D02*
X85050390Y-86641428D01*
X85050390Y-86641428D02*
X85088485Y-86603333D01*
X85088485Y-86603333D02*
X85164676Y-86565238D01*
X85164676Y-86565238D02*
X85240866Y-86565238D01*
X85240866Y-86565238D02*
X85355152Y-86603333D01*
X85355152Y-86603333D02*
X85812295Y-87060476D01*
X85812295Y-87060476D02*
X85812295Y-86565238D01*
X136821667Y-65551104D02*
X136783571Y-65589200D01*
X136783571Y-65589200D02*
X136669286Y-65627295D01*
X136669286Y-65627295D02*
X136593095Y-65627295D01*
X136593095Y-65627295D02*
X136478809Y-65589200D01*
X136478809Y-65589200D02*
X136402619Y-65513009D01*
X136402619Y-65513009D02*
X136364524Y-65436819D01*
X136364524Y-65436819D02*
X136326428Y-65284438D01*
X136326428Y-65284438D02*
X136326428Y-65170152D01*
X136326428Y-65170152D02*
X136364524Y-65017771D01*
X136364524Y-65017771D02*
X136402619Y-64941580D01*
X136402619Y-64941580D02*
X136478809Y-64865390D01*
X136478809Y-64865390D02*
X136593095Y-64827295D01*
X136593095Y-64827295D02*
X136669286Y-64827295D01*
X136669286Y-64827295D02*
X136783571Y-64865390D01*
X136783571Y-64865390D02*
X136821667Y-64903485D01*
X137545476Y-64827295D02*
X137164524Y-64827295D01*
X137164524Y-64827295D02*
X137126428Y-65208247D01*
X137126428Y-65208247D02*
X137164524Y-65170152D01*
X137164524Y-65170152D02*
X137240714Y-65132057D01*
X137240714Y-65132057D02*
X137431190Y-65132057D01*
X137431190Y-65132057D02*
X137507381Y-65170152D01*
X137507381Y-65170152D02*
X137545476Y-65208247D01*
X137545476Y-65208247D02*
X137583571Y-65284438D01*
X137583571Y-65284438D02*
X137583571Y-65474914D01*
X137583571Y-65474914D02*
X137545476Y-65551104D01*
X137545476Y-65551104D02*
X137507381Y-65589200D01*
X137507381Y-65589200D02*
X137431190Y-65627295D01*
X137431190Y-65627295D02*
X137240714Y-65627295D01*
X137240714Y-65627295D02*
X137164524Y-65589200D01*
X137164524Y-65589200D02*
X137126428Y-65551104D01*
X141081666Y-61687295D02*
X140700714Y-61687295D01*
X140700714Y-61687295D02*
X140700714Y-60887295D01*
X141767380Y-61687295D02*
X141310237Y-61687295D01*
X141538809Y-61687295D02*
X141538809Y-60887295D01*
X141538809Y-60887295D02*
X141462618Y-61001580D01*
X141462618Y-61001580D02*
X141386428Y-61077771D01*
X141386428Y-61077771D02*
X141310237Y-61115866D01*
X77182295Y-102127142D02*
X76801342Y-102393809D01*
X77182295Y-102584285D02*
X76382295Y-102584285D01*
X76382295Y-102584285D02*
X76382295Y-102279523D01*
X76382295Y-102279523D02*
X76420390Y-102203333D01*
X76420390Y-102203333D02*
X76458485Y-102165238D01*
X76458485Y-102165238D02*
X76534676Y-102127142D01*
X76534676Y-102127142D02*
X76648961Y-102127142D01*
X76648961Y-102127142D02*
X76725152Y-102165238D01*
X76725152Y-102165238D02*
X76763247Y-102203333D01*
X76763247Y-102203333D02*
X76801342Y-102279523D01*
X76801342Y-102279523D02*
X76801342Y-102584285D01*
X77144200Y-101822381D02*
X77182295Y-101708095D01*
X77182295Y-101708095D02*
X77182295Y-101517619D01*
X77182295Y-101517619D02*
X77144200Y-101441428D01*
X77144200Y-101441428D02*
X77106104Y-101403333D01*
X77106104Y-101403333D02*
X77029914Y-101365238D01*
X77029914Y-101365238D02*
X76953723Y-101365238D01*
X76953723Y-101365238D02*
X76877533Y-101403333D01*
X76877533Y-101403333D02*
X76839438Y-101441428D01*
X76839438Y-101441428D02*
X76801342Y-101517619D01*
X76801342Y-101517619D02*
X76763247Y-101670000D01*
X76763247Y-101670000D02*
X76725152Y-101746190D01*
X76725152Y-101746190D02*
X76687057Y-101784285D01*
X76687057Y-101784285D02*
X76610866Y-101822381D01*
X76610866Y-101822381D02*
X76534676Y-101822381D01*
X76534676Y-101822381D02*
X76458485Y-101784285D01*
X76458485Y-101784285D02*
X76420390Y-101746190D01*
X76420390Y-101746190D02*
X76382295Y-101670000D01*
X76382295Y-101670000D02*
X76382295Y-101479523D01*
X76382295Y-101479523D02*
X76420390Y-101365238D01*
X76953723Y-101060476D02*
X76953723Y-100679523D01*
X77182295Y-101136666D02*
X76382295Y-100869999D01*
X76382295Y-100869999D02*
X77182295Y-100603333D01*
X76382295Y-100412857D02*
X76382295Y-99917619D01*
X76382295Y-99917619D02*
X76687057Y-100184285D01*
X76687057Y-100184285D02*
X76687057Y-100070000D01*
X76687057Y-100070000D02*
X76725152Y-99993809D01*
X76725152Y-99993809D02*
X76763247Y-99955714D01*
X76763247Y-99955714D02*
X76839438Y-99917619D01*
X76839438Y-99917619D02*
X77029914Y-99917619D01*
X77029914Y-99917619D02*
X77106104Y-99955714D01*
X77106104Y-99955714D02*
X77144200Y-99993809D01*
X77144200Y-99993809D02*
X77182295Y-100070000D01*
X77182295Y-100070000D02*
X77182295Y-100298571D01*
X77182295Y-100298571D02*
X77144200Y-100374762D01*
X77144200Y-100374762D02*
X77106104Y-100412857D01*
X83395238Y-104156104D02*
X83357142Y-104194200D01*
X83357142Y-104194200D02*
X83242857Y-104232295D01*
X83242857Y-104232295D02*
X83166666Y-104232295D01*
X83166666Y-104232295D02*
X83052380Y-104194200D01*
X83052380Y-104194200D02*
X82976190Y-104118009D01*
X82976190Y-104118009D02*
X82938095Y-104041819D01*
X82938095Y-104041819D02*
X82899999Y-103889438D01*
X82899999Y-103889438D02*
X82899999Y-103775152D01*
X82899999Y-103775152D02*
X82938095Y-103622771D01*
X82938095Y-103622771D02*
X82976190Y-103546580D01*
X82976190Y-103546580D02*
X83052380Y-103470390D01*
X83052380Y-103470390D02*
X83166666Y-103432295D01*
X83166666Y-103432295D02*
X83242857Y-103432295D01*
X83242857Y-103432295D02*
X83357142Y-103470390D01*
X83357142Y-103470390D02*
X83395238Y-103508485D01*
X83547619Y-104308485D02*
X84157142Y-104308485D01*
X84233333Y-103432295D02*
X84500000Y-104232295D01*
X84500000Y-104232295D02*
X84766666Y-103432295D01*
X84995237Y-104194200D02*
X85109523Y-104232295D01*
X85109523Y-104232295D02*
X85299999Y-104232295D01*
X85299999Y-104232295D02*
X85376190Y-104194200D01*
X85376190Y-104194200D02*
X85414285Y-104156104D01*
X85414285Y-104156104D02*
X85452380Y-104079914D01*
X85452380Y-104079914D02*
X85452380Y-104003723D01*
X85452380Y-104003723D02*
X85414285Y-103927533D01*
X85414285Y-103927533D02*
X85376190Y-103889438D01*
X85376190Y-103889438D02*
X85299999Y-103851342D01*
X85299999Y-103851342D02*
X85147618Y-103813247D01*
X85147618Y-103813247D02*
X85071428Y-103775152D01*
X85071428Y-103775152D02*
X85033333Y-103737057D01*
X85033333Y-103737057D02*
X84995237Y-103660866D01*
X84995237Y-103660866D02*
X84995237Y-103584676D01*
X84995237Y-103584676D02*
X85033333Y-103508485D01*
X85033333Y-103508485D02*
X85071428Y-103470390D01*
X85071428Y-103470390D02*
X85147618Y-103432295D01*
X85147618Y-103432295D02*
X85338095Y-103432295D01*
X85338095Y-103432295D02*
X85452380Y-103470390D01*
X85757142Y-104003723D02*
X86138095Y-104003723D01*
X85680952Y-104232295D02*
X85947619Y-103432295D01*
X85947619Y-103432295D02*
X86214285Y-104232295D01*
X86404761Y-103432295D02*
X86899999Y-103432295D01*
X86899999Y-103432295D02*
X86633333Y-103737057D01*
X86633333Y-103737057D02*
X86747618Y-103737057D01*
X86747618Y-103737057D02*
X86823809Y-103775152D01*
X86823809Y-103775152D02*
X86861904Y-103813247D01*
X86861904Y-103813247D02*
X86899999Y-103889438D01*
X86899999Y-103889438D02*
X86899999Y-104079914D01*
X86899999Y-104079914D02*
X86861904Y-104156104D01*
X86861904Y-104156104D02*
X86823809Y-104194200D01*
X86823809Y-104194200D02*
X86747618Y-104232295D01*
X86747618Y-104232295D02*
X86519047Y-104232295D01*
X86519047Y-104232295D02*
X86442856Y-104194200D01*
X86442856Y-104194200D02*
X86404761Y-104156104D01*
X85928572Y-111032295D02*
X85661905Y-110651342D01*
X85471429Y-111032295D02*
X85471429Y-110232295D01*
X85471429Y-110232295D02*
X85776191Y-110232295D01*
X85776191Y-110232295D02*
X85852381Y-110270390D01*
X85852381Y-110270390D02*
X85890476Y-110308485D01*
X85890476Y-110308485D02*
X85928572Y-110384676D01*
X85928572Y-110384676D02*
X85928572Y-110498961D01*
X85928572Y-110498961D02*
X85890476Y-110575152D01*
X85890476Y-110575152D02*
X85852381Y-110613247D01*
X85852381Y-110613247D02*
X85776191Y-110651342D01*
X85776191Y-110651342D02*
X85471429Y-110651342D01*
X86080953Y-111108485D02*
X86690476Y-111108485D01*
X86880953Y-111032295D02*
X86880953Y-110232295D01*
X86880953Y-110232295D02*
X87071429Y-110232295D01*
X87071429Y-110232295D02*
X87185715Y-110270390D01*
X87185715Y-110270390D02*
X87261905Y-110346580D01*
X87261905Y-110346580D02*
X87300000Y-110422771D01*
X87300000Y-110422771D02*
X87338096Y-110575152D01*
X87338096Y-110575152D02*
X87338096Y-110689438D01*
X87338096Y-110689438D02*
X87300000Y-110841819D01*
X87300000Y-110841819D02*
X87261905Y-110918009D01*
X87261905Y-110918009D02*
X87185715Y-110994200D01*
X87185715Y-110994200D02*
X87071429Y-111032295D01*
X87071429Y-111032295D02*
X86880953Y-111032295D01*
X87680953Y-111032295D02*
X87680953Y-110232295D01*
X88023809Y-110803723D02*
X88404762Y-110803723D01*
X87947619Y-111032295D02*
X88214286Y-110232295D01*
X88214286Y-110232295D02*
X88480952Y-111032295D01*
X89166666Y-110270390D02*
X89090476Y-110232295D01*
X89090476Y-110232295D02*
X88976190Y-110232295D01*
X88976190Y-110232295D02*
X88861904Y-110270390D01*
X88861904Y-110270390D02*
X88785714Y-110346580D01*
X88785714Y-110346580D02*
X88747619Y-110422771D01*
X88747619Y-110422771D02*
X88709523Y-110575152D01*
X88709523Y-110575152D02*
X88709523Y-110689438D01*
X88709523Y-110689438D02*
X88747619Y-110841819D01*
X88747619Y-110841819D02*
X88785714Y-110918009D01*
X88785714Y-110918009D02*
X88861904Y-110994200D01*
X88861904Y-110994200D02*
X88976190Y-111032295D01*
X88976190Y-111032295D02*
X89052381Y-111032295D01*
X89052381Y-111032295D02*
X89166666Y-110994200D01*
X89166666Y-110994200D02*
X89204762Y-110956104D01*
X89204762Y-110956104D02*
X89204762Y-110689438D01*
X89204762Y-110689438D02*
X89052381Y-110689438D01*
X89509523Y-110308485D02*
X89547619Y-110270390D01*
X89547619Y-110270390D02*
X89623809Y-110232295D01*
X89623809Y-110232295D02*
X89814285Y-110232295D01*
X89814285Y-110232295D02*
X89890476Y-110270390D01*
X89890476Y-110270390D02*
X89928571Y-110308485D01*
X89928571Y-110308485D02*
X89966666Y-110384676D01*
X89966666Y-110384676D02*
X89966666Y-110460866D01*
X89966666Y-110460866D02*
X89928571Y-110575152D01*
X89928571Y-110575152D02*
X89471428Y-111032295D01*
X89471428Y-111032295D02*
X89966666Y-111032295D01*
X83069048Y-79156104D02*
X83030952Y-79194200D01*
X83030952Y-79194200D02*
X82916667Y-79232295D01*
X82916667Y-79232295D02*
X82840476Y-79232295D01*
X82840476Y-79232295D02*
X82726190Y-79194200D01*
X82726190Y-79194200D02*
X82650000Y-79118009D01*
X82650000Y-79118009D02*
X82611905Y-79041819D01*
X82611905Y-79041819D02*
X82573809Y-78889438D01*
X82573809Y-78889438D02*
X82573809Y-78775152D01*
X82573809Y-78775152D02*
X82611905Y-78622771D01*
X82611905Y-78622771D02*
X82650000Y-78546580D01*
X82650000Y-78546580D02*
X82726190Y-78470390D01*
X82726190Y-78470390D02*
X82840476Y-78432295D01*
X82840476Y-78432295D02*
X82916667Y-78432295D01*
X82916667Y-78432295D02*
X83030952Y-78470390D01*
X83030952Y-78470390D02*
X83069048Y-78508485D01*
X83221429Y-79308485D02*
X83830952Y-79308485D01*
X83907143Y-78432295D02*
X84173810Y-79232295D01*
X84173810Y-79232295D02*
X84440476Y-78432295D01*
X85164286Y-79156104D02*
X85126190Y-79194200D01*
X85126190Y-79194200D02*
X85011905Y-79232295D01*
X85011905Y-79232295D02*
X84935714Y-79232295D01*
X84935714Y-79232295D02*
X84821428Y-79194200D01*
X84821428Y-79194200D02*
X84745238Y-79118009D01*
X84745238Y-79118009D02*
X84707143Y-79041819D01*
X84707143Y-79041819D02*
X84669047Y-78889438D01*
X84669047Y-78889438D02*
X84669047Y-78775152D01*
X84669047Y-78775152D02*
X84707143Y-78622771D01*
X84707143Y-78622771D02*
X84745238Y-78546580D01*
X84745238Y-78546580D02*
X84821428Y-78470390D01*
X84821428Y-78470390D02*
X84935714Y-78432295D01*
X84935714Y-78432295D02*
X85011905Y-78432295D01*
X85011905Y-78432295D02*
X85126190Y-78470390D01*
X85126190Y-78470390D02*
X85164286Y-78508485D01*
X85507143Y-79232295D02*
X85507143Y-78432295D01*
X85507143Y-78432295D02*
X85811905Y-78432295D01*
X85811905Y-78432295D02*
X85888095Y-78470390D01*
X85888095Y-78470390D02*
X85926190Y-78508485D01*
X85926190Y-78508485D02*
X85964286Y-78584676D01*
X85964286Y-78584676D02*
X85964286Y-78698961D01*
X85964286Y-78698961D02*
X85926190Y-78775152D01*
X85926190Y-78775152D02*
X85888095Y-78813247D01*
X85888095Y-78813247D02*
X85811905Y-78851342D01*
X85811905Y-78851342D02*
X85507143Y-78851342D01*
X86269047Y-78508485D02*
X86307143Y-78470390D01*
X86307143Y-78470390D02*
X86383333Y-78432295D01*
X86383333Y-78432295D02*
X86573809Y-78432295D01*
X86573809Y-78432295D02*
X86650000Y-78470390D01*
X86650000Y-78470390D02*
X86688095Y-78508485D01*
X86688095Y-78508485D02*
X86726190Y-78584676D01*
X86726190Y-78584676D02*
X86726190Y-78660866D01*
X86726190Y-78660866D02*
X86688095Y-78775152D01*
X86688095Y-78775152D02*
X86230952Y-79232295D01*
X86230952Y-79232295D02*
X86726190Y-79232295D01*
X131678333Y-112579819D02*
X131345000Y-112103628D01*
X131106905Y-112579819D02*
X131106905Y-111579819D01*
X131106905Y-111579819D02*
X131487857Y-111579819D01*
X131487857Y-111579819D02*
X131583095Y-111627438D01*
X131583095Y-111627438D02*
X131630714Y-111675057D01*
X131630714Y-111675057D02*
X131678333Y-111770295D01*
X131678333Y-111770295D02*
X131678333Y-111913152D01*
X131678333Y-111913152D02*
X131630714Y-112008390D01*
X131630714Y-112008390D02*
X131583095Y-112056009D01*
X131583095Y-112056009D02*
X131487857Y-112103628D01*
X131487857Y-112103628D02*
X131106905Y-112103628D01*
X132583095Y-111579819D02*
X132106905Y-111579819D01*
X132106905Y-111579819D02*
X132059286Y-112056009D01*
X132059286Y-112056009D02*
X132106905Y-112008390D01*
X132106905Y-112008390D02*
X132202143Y-111960771D01*
X132202143Y-111960771D02*
X132440238Y-111960771D01*
X132440238Y-111960771D02*
X132535476Y-112008390D01*
X132535476Y-112008390D02*
X132583095Y-112056009D01*
X132583095Y-112056009D02*
X132630714Y-112151247D01*
X132630714Y-112151247D02*
X132630714Y-112389342D01*
X132630714Y-112389342D02*
X132583095Y-112484580D01*
X132583095Y-112484580D02*
X132535476Y-112532200D01*
X132535476Y-112532200D02*
X132440238Y-112579819D01*
X132440238Y-112579819D02*
X132202143Y-112579819D01*
X132202143Y-112579819D02*
X132106905Y-112532200D01*
X132106905Y-112532200D02*
X132059286Y-112484580D01*
X139711667Y-69227295D02*
X139445000Y-68846342D01*
X139254524Y-69227295D02*
X139254524Y-68427295D01*
X139254524Y-68427295D02*
X139559286Y-68427295D01*
X139559286Y-68427295D02*
X139635476Y-68465390D01*
X139635476Y-68465390D02*
X139673571Y-68503485D01*
X139673571Y-68503485D02*
X139711667Y-68579676D01*
X139711667Y-68579676D02*
X139711667Y-68693961D01*
X139711667Y-68693961D02*
X139673571Y-68770152D01*
X139673571Y-68770152D02*
X139635476Y-68808247D01*
X139635476Y-68808247D02*
X139559286Y-68846342D01*
X139559286Y-68846342D02*
X139254524Y-68846342D01*
X140016428Y-68503485D02*
X140054524Y-68465390D01*
X140054524Y-68465390D02*
X140130714Y-68427295D01*
X140130714Y-68427295D02*
X140321190Y-68427295D01*
X140321190Y-68427295D02*
X140397381Y-68465390D01*
X140397381Y-68465390D02*
X140435476Y-68503485D01*
X140435476Y-68503485D02*
X140473571Y-68579676D01*
X140473571Y-68579676D02*
X140473571Y-68655866D01*
X140473571Y-68655866D02*
X140435476Y-68770152D01*
X140435476Y-68770152D02*
X139978333Y-69227295D01*
X139978333Y-69227295D02*
X140473571Y-69227295D01*
X99954819Y-95011904D02*
X100764342Y-95011904D01*
X100764342Y-95011904D02*
X100859580Y-94964285D01*
X100859580Y-94964285D02*
X100907200Y-94916666D01*
X100907200Y-94916666D02*
X100954819Y-94821428D01*
X100954819Y-94821428D02*
X100954819Y-94630952D01*
X100954819Y-94630952D02*
X100907200Y-94535714D01*
X100907200Y-94535714D02*
X100859580Y-94488095D01*
X100859580Y-94488095D02*
X100764342Y-94440476D01*
X100764342Y-94440476D02*
X99954819Y-94440476D01*
X100954819Y-93440476D02*
X100954819Y-94011904D01*
X100954819Y-93726190D02*
X99954819Y-93726190D01*
X99954819Y-93726190D02*
X100097676Y-93821428D01*
X100097676Y-93821428D02*
X100192914Y-93916666D01*
X100192914Y-93916666D02*
X100240533Y-94011904D01*
X122330714Y-111539819D02*
X122330714Y-112254104D01*
X122330714Y-112254104D02*
X122283095Y-112396961D01*
X122283095Y-112396961D02*
X122187857Y-112492200D01*
X122187857Y-112492200D02*
X122045000Y-112539819D01*
X122045000Y-112539819D02*
X121949762Y-112539819D01*
X122568810Y-112635057D02*
X123330714Y-112635057D01*
X123568810Y-111539819D02*
X123568810Y-112349342D01*
X123568810Y-112349342D02*
X123616429Y-112444580D01*
X123616429Y-112444580D02*
X123664048Y-112492200D01*
X123664048Y-112492200D02*
X123759286Y-112539819D01*
X123759286Y-112539819D02*
X123949762Y-112539819D01*
X123949762Y-112539819D02*
X124045000Y-112492200D01*
X124045000Y-112492200D02*
X124092619Y-112444580D01*
X124092619Y-112444580D02*
X124140238Y-112349342D01*
X124140238Y-112349342D02*
X124140238Y-111539819D01*
X124568810Y-112492200D02*
X124711667Y-112539819D01*
X124711667Y-112539819D02*
X124949762Y-112539819D01*
X124949762Y-112539819D02*
X125045000Y-112492200D01*
X125045000Y-112492200D02*
X125092619Y-112444580D01*
X125092619Y-112444580D02*
X125140238Y-112349342D01*
X125140238Y-112349342D02*
X125140238Y-112254104D01*
X125140238Y-112254104D02*
X125092619Y-112158866D01*
X125092619Y-112158866D02*
X125045000Y-112111247D01*
X125045000Y-112111247D02*
X124949762Y-112063628D01*
X124949762Y-112063628D02*
X124759286Y-112016009D01*
X124759286Y-112016009D02*
X124664048Y-111968390D01*
X124664048Y-111968390D02*
X124616429Y-111920771D01*
X124616429Y-111920771D02*
X124568810Y-111825533D01*
X124568810Y-111825533D02*
X124568810Y-111730295D01*
X124568810Y-111730295D02*
X124616429Y-111635057D01*
X124616429Y-111635057D02*
X124664048Y-111587438D01*
X124664048Y-111587438D02*
X124759286Y-111539819D01*
X124759286Y-111539819D02*
X124997381Y-111539819D01*
X124997381Y-111539819D02*
X125140238Y-111587438D01*
X125902143Y-112016009D02*
X126045000Y-112063628D01*
X126045000Y-112063628D02*
X126092619Y-112111247D01*
X126092619Y-112111247D02*
X126140238Y-112206485D01*
X126140238Y-112206485D02*
X126140238Y-112349342D01*
X126140238Y-112349342D02*
X126092619Y-112444580D01*
X126092619Y-112444580D02*
X126045000Y-112492200D01*
X126045000Y-112492200D02*
X125949762Y-112539819D01*
X125949762Y-112539819D02*
X125568810Y-112539819D01*
X125568810Y-112539819D02*
X125568810Y-111539819D01*
X125568810Y-111539819D02*
X125902143Y-111539819D01*
X125902143Y-111539819D02*
X125997381Y-111587438D01*
X125997381Y-111587438D02*
X126045000Y-111635057D01*
X126045000Y-111635057D02*
X126092619Y-111730295D01*
X126092619Y-111730295D02*
X126092619Y-111825533D01*
X126092619Y-111825533D02*
X126045000Y-111920771D01*
X126045000Y-111920771D02*
X125997381Y-111968390D01*
X125997381Y-111968390D02*
X125902143Y-112016009D01*
X125902143Y-112016009D02*
X125568810Y-112016009D01*
X126521191Y-111635057D02*
X126568810Y-111587438D01*
X126568810Y-111587438D02*
X126664048Y-111539819D01*
X126664048Y-111539819D02*
X126902143Y-111539819D01*
X126902143Y-111539819D02*
X126997381Y-111587438D01*
X126997381Y-111587438D02*
X127045000Y-111635057D01*
X127045000Y-111635057D02*
X127092619Y-111730295D01*
X127092619Y-111730295D02*
X127092619Y-111825533D01*
X127092619Y-111825533D02*
X127045000Y-111968390D01*
X127045000Y-111968390D02*
X126473572Y-112539819D01*
X126473572Y-112539819D02*
X127092619Y-112539819D01*
X83145238Y-78156104D02*
X83107142Y-78194200D01*
X83107142Y-78194200D02*
X82992857Y-78232295D01*
X82992857Y-78232295D02*
X82916666Y-78232295D01*
X82916666Y-78232295D02*
X82802380Y-78194200D01*
X82802380Y-78194200D02*
X82726190Y-78118009D01*
X82726190Y-78118009D02*
X82688095Y-78041819D01*
X82688095Y-78041819D02*
X82649999Y-77889438D01*
X82649999Y-77889438D02*
X82649999Y-77775152D01*
X82649999Y-77775152D02*
X82688095Y-77622771D01*
X82688095Y-77622771D02*
X82726190Y-77546580D01*
X82726190Y-77546580D02*
X82802380Y-77470390D01*
X82802380Y-77470390D02*
X82916666Y-77432295D01*
X82916666Y-77432295D02*
X82992857Y-77432295D01*
X82992857Y-77432295D02*
X83107142Y-77470390D01*
X83107142Y-77470390D02*
X83145238Y-77508485D01*
X83297619Y-78308485D02*
X83907142Y-78308485D01*
X83983333Y-77432295D02*
X84250000Y-78232295D01*
X84250000Y-78232295D02*
X84516666Y-77432295D01*
X84745237Y-78194200D02*
X84859523Y-78232295D01*
X84859523Y-78232295D02*
X85049999Y-78232295D01*
X85049999Y-78232295D02*
X85126190Y-78194200D01*
X85126190Y-78194200D02*
X85164285Y-78156104D01*
X85164285Y-78156104D02*
X85202380Y-78079914D01*
X85202380Y-78079914D02*
X85202380Y-78003723D01*
X85202380Y-78003723D02*
X85164285Y-77927533D01*
X85164285Y-77927533D02*
X85126190Y-77889438D01*
X85126190Y-77889438D02*
X85049999Y-77851342D01*
X85049999Y-77851342D02*
X84897618Y-77813247D01*
X84897618Y-77813247D02*
X84821428Y-77775152D01*
X84821428Y-77775152D02*
X84783333Y-77737057D01*
X84783333Y-77737057D02*
X84745237Y-77660866D01*
X84745237Y-77660866D02*
X84745237Y-77584676D01*
X84745237Y-77584676D02*
X84783333Y-77508485D01*
X84783333Y-77508485D02*
X84821428Y-77470390D01*
X84821428Y-77470390D02*
X84897618Y-77432295D01*
X84897618Y-77432295D02*
X85088095Y-77432295D01*
X85088095Y-77432295D02*
X85202380Y-77470390D01*
X85507142Y-78003723D02*
X85888095Y-78003723D01*
X85430952Y-78232295D02*
X85697619Y-77432295D01*
X85697619Y-77432295D02*
X85964285Y-78232295D01*
X86192856Y-77508485D02*
X86230952Y-77470390D01*
X86230952Y-77470390D02*
X86307142Y-77432295D01*
X86307142Y-77432295D02*
X86497618Y-77432295D01*
X86497618Y-77432295D02*
X86573809Y-77470390D01*
X86573809Y-77470390D02*
X86611904Y-77508485D01*
X86611904Y-77508485D02*
X86649999Y-77584676D01*
X86649999Y-77584676D02*
X86649999Y-77660866D01*
X86649999Y-77660866D02*
X86611904Y-77775152D01*
X86611904Y-77775152D02*
X86154761Y-78232295D01*
X86154761Y-78232295D02*
X86649999Y-78232295D01*
X136821667Y-67521104D02*
X136783571Y-67559200D01*
X136783571Y-67559200D02*
X136669286Y-67597295D01*
X136669286Y-67597295D02*
X136593095Y-67597295D01*
X136593095Y-67597295D02*
X136478809Y-67559200D01*
X136478809Y-67559200D02*
X136402619Y-67483009D01*
X136402619Y-67483009D02*
X136364524Y-67406819D01*
X136364524Y-67406819D02*
X136326428Y-67254438D01*
X136326428Y-67254438D02*
X136326428Y-67140152D01*
X136326428Y-67140152D02*
X136364524Y-66987771D01*
X136364524Y-66987771D02*
X136402619Y-66911580D01*
X136402619Y-66911580D02*
X136478809Y-66835390D01*
X136478809Y-66835390D02*
X136593095Y-66797295D01*
X136593095Y-66797295D02*
X136669286Y-66797295D01*
X136669286Y-66797295D02*
X136783571Y-66835390D01*
X136783571Y-66835390D02*
X136821667Y-66873485D01*
X137507381Y-66797295D02*
X137355000Y-66797295D01*
X137355000Y-66797295D02*
X137278809Y-66835390D01*
X137278809Y-66835390D02*
X137240714Y-66873485D01*
X137240714Y-66873485D02*
X137164524Y-66987771D01*
X137164524Y-66987771D02*
X137126428Y-67140152D01*
X137126428Y-67140152D02*
X137126428Y-67444914D01*
X137126428Y-67444914D02*
X137164524Y-67521104D01*
X137164524Y-67521104D02*
X137202619Y-67559200D01*
X137202619Y-67559200D02*
X137278809Y-67597295D01*
X137278809Y-67597295D02*
X137431190Y-67597295D01*
X137431190Y-67597295D02*
X137507381Y-67559200D01*
X137507381Y-67559200D02*
X137545476Y-67521104D01*
X137545476Y-67521104D02*
X137583571Y-67444914D01*
X137583571Y-67444914D02*
X137583571Y-67254438D01*
X137583571Y-67254438D02*
X137545476Y-67178247D01*
X137545476Y-67178247D02*
X137507381Y-67140152D01*
X137507381Y-67140152D02*
X137431190Y-67102057D01*
X137431190Y-67102057D02*
X137278809Y-67102057D01*
X137278809Y-67102057D02*
X137202619Y-67140152D01*
X137202619Y-67140152D02*
X137164524Y-67178247D01*
X137164524Y-67178247D02*
X137126428Y-67254438D01*
D11*
X75290000Y-90562164D02*
X75290000Y-90777836D01*
X76010000Y-90562164D02*
X76010000Y-90777836D01*
X80610000Y-89162164D02*
X80610000Y-89377836D01*
X81330000Y-89162164D02*
X81330000Y-89377836D01*
X162590000Y-89940000D02*
X162590000Y-91360000D01*
X162590000Y-91360000D02*
X167090000Y-91360000D01*
X162590000Y-101140000D02*
X167090000Y-101140000D01*
X162590000Y-102560000D02*
X162590000Y-101140000D01*
X162900000Y-99700000D02*
X163500000Y-100000000D01*
X162900000Y-100300000D02*
X162900000Y-99700000D01*
X163500000Y-100000000D02*
X162900000Y-100300000D01*
X167090000Y-91360000D02*
X167090000Y-96250000D01*
X167090000Y-101140000D02*
X167090000Y-96250000D01*
X174310000Y-89940000D02*
X162590000Y-89940000D01*
X174310000Y-96250000D02*
X174310000Y-89940000D01*
X174310000Y-96250000D02*
X174310000Y-102560000D01*
X174310000Y-102560000D02*
X162590000Y-102560000D01*
X168200000Y-92250000D02*
X173700000Y-92250000D01*
X173700000Y-92750000D01*
X168200000Y-92750000D01*
X168200000Y-92250000D01*
X168200000Y-94750000D02*
X173700000Y-94750000D01*
X173700000Y-95250000D01*
X168200000Y-95250000D01*
X168200000Y-94750000D01*
X168200000Y-97250000D02*
X173700000Y-97250000D01*
X173700000Y-97750000D01*
X168200000Y-97750000D01*
X168200000Y-97250000D01*
X168200000Y-99750000D02*
X173700000Y-99750000D01*
X173700000Y-100250000D01*
X168200000Y-100250000D01*
X168200000Y-99750000D01*
X81592164Y-104510000D02*
X81807836Y-104510000D01*
X81592164Y-105230000D02*
X81807836Y-105230000D01*
X81140000Y-101377836D02*
X81140000Y-101162164D01*
X81860000Y-101377836D02*
X81860000Y-101162164D01*
X75540000Y-116562164D02*
X75540000Y-116777836D01*
X76260000Y-116562164D02*
X76260000Y-116777836D01*
X82890000Y-81082164D02*
X82890000Y-81297836D01*
X83610000Y-81082164D02*
X83610000Y-81297836D01*
X83140000Y-107082164D02*
X83140000Y-107297836D01*
X83860000Y-107082164D02*
X83860000Y-107297836D01*
X65500000Y-77370000D02*
X65500000Y-82920000D01*
X65500000Y-88470000D02*
X65500000Y-82920000D01*
X68450000Y-76620000D02*
X68450000Y-77370000D01*
X68450000Y-77370000D02*
X65500000Y-77370000D01*
X68450000Y-88470000D02*
X65500000Y-88470000D01*
X68450000Y-89220000D02*
X68450000Y-88470000D01*
X71000000Y-76320000D02*
X69750000Y-76320000D01*
X71000000Y-77570000D02*
X71000000Y-76320000D01*
X69950000Y-76620000D02*
X70700000Y-76620000D01*
X70700000Y-78420000D01*
X69950000Y-78420000D01*
X69950000Y-76620000D01*
X69950000Y-79920000D02*
X70700000Y-79920000D01*
X70700000Y-85920000D01*
X69950000Y-85920000D01*
X69950000Y-79920000D01*
X69950000Y-87420000D02*
X70700000Y-87420000D01*
X70700000Y-89220000D01*
X69950000Y-89220000D01*
X69950000Y-87420000D01*
X64740000Y-76610000D02*
X70710000Y-76610000D01*
X70710000Y-89230000D01*
X64740000Y-89230000D01*
X64740000Y-76610000D01*
X65495000Y-103515739D02*
X65495000Y-109065739D01*
X65495000Y-114615739D02*
X65495000Y-109065739D01*
X68445000Y-102765739D02*
X68445000Y-103515739D01*
X68445000Y-103515739D02*
X65495000Y-103515739D01*
X68445000Y-114615739D02*
X65495000Y-114615739D01*
X68445000Y-115365739D02*
X68445000Y-114615739D01*
X70995000Y-102465739D02*
X69745000Y-102465739D01*
X70995000Y-103715739D02*
X70995000Y-102465739D01*
X69945000Y-102765739D02*
X70695000Y-102765739D01*
X70695000Y-104565739D01*
X69945000Y-104565739D01*
X69945000Y-102765739D01*
X69945000Y-106065739D02*
X70695000Y-106065739D01*
X70695000Y-112065739D01*
X69945000Y-112065739D01*
X69945000Y-106065739D01*
X69945000Y-113565739D02*
X70695000Y-113565739D01*
X70695000Y-115365739D01*
X69945000Y-115365739D01*
X69945000Y-113565739D01*
X64735000Y-102755739D02*
X70705000Y-102755739D01*
X70705000Y-115375739D01*
X64735000Y-115375739D01*
X64735000Y-102755739D01*
X80860000Y-115162164D02*
X80860000Y-115377836D01*
X81580000Y-115162164D02*
X81580000Y-115377836D01*
X131691359Y-116895000D02*
X131998641Y-116895000D01*
X131691359Y-117655000D02*
X131998641Y-117655000D01*
X76005000Y-80295000D02*
X76480000Y-80295000D01*
X76005000Y-80770000D02*
X76005000Y-80295000D01*
X76005000Y-86515000D02*
X76005000Y-86040000D01*
X76480000Y-86515000D02*
X76005000Y-86515000D01*
X80750000Y-80295000D02*
X81225000Y-80295000D01*
X81225000Y-80295000D02*
X81225000Y-80770000D01*
X81225000Y-86040000D02*
X81225000Y-86515000D01*
X81225000Y-86515000D02*
X80750000Y-86515000D01*
X75475000Y-81155000D02*
X75145000Y-81395000D01*
X75145000Y-80915000D01*
X75475000Y-81155000D01*
G36*
X75475000Y-81155000D02*
G01*
X75145000Y-81395000D01*
X75145000Y-80915000D01*
X75475000Y-81155000D01*
G37*
X146625000Y-124625000D02*
X146625000Y-126625000D01*
X147625000Y-123325000D02*
X148075000Y-122875000D01*
X147625000Y-127925000D02*
X148075000Y-128375000D01*
X148075000Y-122875000D02*
X150675000Y-122875000D01*
X148075000Y-128375000D02*
X150675000Y-128375000D01*
X151125000Y-123325000D02*
X150675000Y-122875000D01*
X151125000Y-127925000D02*
X150675000Y-128375000D01*
X152125000Y-124625000D02*
X152125000Y-126625000D01*
X142275000Y-71090000D02*
X142275000Y-70890000D01*
X142275000Y-71090000D02*
X143225000Y-71090000D01*
X144625000Y-71090000D02*
X145575000Y-71090000D01*
X145575000Y-67790000D02*
X142640000Y-67790000D01*
X145575000Y-67990000D02*
X145575000Y-67790000D01*
X145575000Y-70890000D02*
X145575000Y-71090000D01*
X142115000Y-67940000D02*
X141875000Y-67610000D01*
X142355000Y-67610000D01*
X142115000Y-67940000D01*
G36*
X142115000Y-67940000D02*
G01*
X141875000Y-67610000D01*
X142355000Y-67610000D01*
X142115000Y-67940000D01*
G37*
X128614420Y-126585000D02*
X128895580Y-126585000D01*
X128614420Y-127605000D02*
X128895580Y-127605000D01*
X85109420Y-82760000D02*
X85390580Y-82760000D01*
X85109420Y-83780000D02*
X85390580Y-83780000D01*
X136847164Y-62125000D02*
X137062836Y-62125000D01*
X136847164Y-62845000D02*
X137062836Y-62845000D01*
X77145000Y-115946263D02*
X77145000Y-117393737D01*
X79855000Y-115946263D02*
X79855000Y-117393737D01*
X76255000Y-106295000D02*
X76730000Y-106295000D01*
X76255000Y-106770000D02*
X76255000Y-106295000D01*
X76255000Y-112515000D02*
X76255000Y-112040000D01*
X76730000Y-112515000D02*
X76255000Y-112515000D01*
X81000000Y-106295000D02*
X81475000Y-106295000D01*
X81475000Y-106295000D02*
X81475000Y-106770000D01*
X81475000Y-112040000D02*
X81475000Y-112515000D01*
X81475000Y-112515000D02*
X81000000Y-112515000D01*
X75725000Y-107155000D02*
X75395000Y-107395000D01*
X75395000Y-106915000D01*
X75725000Y-107155000D01*
G36*
X75725000Y-107155000D02*
G01*
X75395000Y-107395000D01*
X75395000Y-106915000D01*
X75725000Y-107155000D01*
G37*
X118710000Y-83995000D02*
X118710000Y-87295000D01*
X118710000Y-83995000D02*
X124220000Y-83995000D01*
X118710000Y-87295000D02*
X124220000Y-87295000D01*
X150527500Y-88815000D02*
X153747500Y-88815000D01*
X150527500Y-88990000D02*
X150527500Y-88815000D01*
X150527500Y-92035000D02*
X150527500Y-91860000D01*
X153747500Y-88815000D02*
X153747500Y-88990000D01*
X153747500Y-91860000D02*
X153747500Y-92035000D01*
X153747500Y-92035000D02*
X150527500Y-92035000D01*
X149977500Y-88985000D02*
X149737500Y-88655000D01*
X150217500Y-88655000D01*
X149977500Y-88985000D01*
G36*
X149977500Y-88985000D02*
G01*
X149737500Y-88655000D01*
X150217500Y-88655000D01*
X149977500Y-88985000D01*
G37*
X136847164Y-64095000D02*
X137062836Y-64095000D01*
X136847164Y-64815000D02*
X137062836Y-64815000D01*
X119065000Y-70735000D02*
X120485000Y-70735000D01*
X119065000Y-82455000D02*
X119065000Y-70735000D01*
X120485000Y-70735000D02*
X120485000Y-75235000D01*
X120485000Y-75235000D02*
X122875000Y-75235000D01*
X121325000Y-71045000D02*
X121925000Y-71045000D01*
X121625000Y-71645000D02*
X121325000Y-71045000D01*
X121925000Y-71045000D02*
X121625000Y-71645000D01*
X122875000Y-82455000D02*
X119065000Y-82455000D01*
X122875000Y-82455000D02*
X126685000Y-82455000D01*
X125265000Y-70735000D02*
X125265000Y-75235000D01*
X125265000Y-75235000D02*
X122875000Y-75235000D01*
X126685000Y-70735000D02*
X125265000Y-70735000D01*
X126685000Y-82455000D02*
X126685000Y-70735000D01*
X121375000Y-76345000D02*
X121875000Y-76345000D01*
X121875000Y-81845000D01*
X121375000Y-81845000D01*
X121375000Y-76345000D01*
X123875000Y-76345000D02*
X124375000Y-76345000D01*
X124375000Y-81845000D01*
X123875000Y-81845000D01*
X123875000Y-76345000D01*
X143413748Y-72525000D02*
X144836252Y-72525000D01*
X143413748Y-74345000D02*
X144836252Y-74345000D01*
X77495000Y-75993737D02*
X77495000Y-74546263D01*
X80205000Y-75993737D02*
X80205000Y-74546263D01*
X131691359Y-118885000D02*
X131998641Y-118885000D01*
X131691359Y-119645000D02*
X131998641Y-119645000D01*
X85640580Y-107160000D02*
X85359420Y-107160000D01*
X85640580Y-108180000D02*
X85359420Y-108180000D01*
X82870000Y-83223641D02*
X82870000Y-82916359D01*
X83630000Y-83223641D02*
X83630000Y-82916359D01*
X132427164Y-124885000D02*
X132642836Y-124885000D01*
X132427164Y-125605000D02*
X132642836Y-125605000D01*
X162590000Y-75440000D02*
X162590000Y-76860000D01*
X162590000Y-76860000D02*
X167090000Y-76860000D01*
X162590000Y-86640000D02*
X167090000Y-86640000D01*
X162590000Y-88060000D02*
X162590000Y-86640000D01*
X162900000Y-85200000D02*
X163500000Y-85500000D01*
X162900000Y-85800000D02*
X162900000Y-85200000D01*
X163500000Y-85500000D02*
X162900000Y-85800000D01*
X167090000Y-76860000D02*
X167090000Y-81750000D01*
X167090000Y-86640000D02*
X167090000Y-81750000D01*
X174310000Y-75440000D02*
X162590000Y-75440000D01*
X174310000Y-81750000D02*
X174310000Y-75440000D01*
X174310000Y-81750000D02*
X174310000Y-88060000D01*
X174310000Y-88060000D02*
X162590000Y-88060000D01*
X168200000Y-77750000D02*
X173700000Y-77750000D01*
X173700000Y-78250000D01*
X168200000Y-78250000D01*
X168200000Y-77750000D01*
X168200000Y-80250000D02*
X173700000Y-80250000D01*
X173700000Y-80750000D01*
X168200000Y-80750000D01*
X168200000Y-80250000D01*
X168200000Y-82750000D02*
X173700000Y-82750000D01*
X173700000Y-83250000D01*
X168200000Y-83250000D01*
X168200000Y-82750000D01*
X168200000Y-85250000D02*
X173700000Y-85250000D01*
X173700000Y-85750000D01*
X168200000Y-85750000D01*
X168200000Y-85250000D01*
X83120000Y-109223641D02*
X83120000Y-108916359D01*
X83880000Y-109223641D02*
X83880000Y-108916359D01*
X136847164Y-70005000D02*
X137062836Y-70005000D01*
X136847164Y-70725000D02*
X137062836Y-70725000D01*
X132427164Y-122915000D02*
X132642836Y-122915000D01*
X132427164Y-123635000D02*
X132642836Y-123635000D01*
X139691359Y-71645000D02*
X139998641Y-71645000D01*
X139691359Y-72405000D02*
X139998641Y-72405000D01*
X76895000Y-89946263D02*
X76895000Y-91393737D01*
X79605000Y-89946263D02*
X79605000Y-91393737D01*
X85390580Y-81160000D02*
X85109420Y-81160000D01*
X85390580Y-82180000D02*
X85109420Y-82180000D01*
X131691359Y-114905000D02*
X131998641Y-114905000D01*
X131691359Y-115665000D02*
X131998641Y-115665000D01*
X85359420Y-108760000D02*
X85640580Y-108760000D01*
X85359420Y-109780000D02*
X85640580Y-109780000D01*
X81940000Y-115958748D02*
X81940000Y-117381252D01*
X84660000Y-115958748D02*
X84660000Y-117381252D01*
X73690000Y-85082164D02*
X73690000Y-85297836D01*
X74410000Y-85082164D02*
X74410000Y-85297836D01*
X80890000Y-75377836D02*
X80890000Y-75162164D01*
X81610000Y-75377836D02*
X81610000Y-75162164D01*
X139691359Y-73635000D02*
X139998641Y-73635000D01*
X139691359Y-74395000D02*
X139998641Y-74395000D01*
X73940000Y-111082164D02*
X73940000Y-111297836D01*
X74660000Y-111082164D02*
X74660000Y-111297836D01*
X118710000Y-88545000D02*
X118710000Y-91845000D01*
X118710000Y-88545000D02*
X124220000Y-88545000D01*
X118710000Y-91845000D02*
X124220000Y-91845000D01*
X139691359Y-67665000D02*
X139998641Y-67665000D01*
X139691359Y-68425000D02*
X139998641Y-68425000D01*
X145904420Y-62245000D02*
X146185580Y-62245000D01*
X145904420Y-63265000D02*
X146185580Y-63265000D01*
X120820000Y-126085000D02*
X120820000Y-125450000D01*
X121455000Y-126085000D02*
X120820000Y-126085000D01*
X84203641Y-84090000D02*
X83896359Y-84090000D01*
X84203641Y-84850000D02*
X83896359Y-84850000D01*
X81690000Y-89958748D02*
X81690000Y-91381252D01*
X84410000Y-89958748D02*
X84410000Y-91381252D01*
X136847164Y-66065000D02*
X137062836Y-66065000D01*
X136847164Y-66785000D02*
X137062836Y-66785000D01*
X139105000Y-62165000D02*
X143325000Y-62165000D01*
X143325000Y-66385000D02*
X139105000Y-66385000D01*
X77745000Y-101993737D02*
X77745000Y-100546263D01*
X80455000Y-101993737D02*
X80455000Y-100546263D01*
X81592164Y-103510000D02*
X81807836Y-103510000D01*
X81592164Y-104230000D02*
X81807836Y-104230000D01*
X84453641Y-110090000D02*
X84146359Y-110090000D01*
X84453641Y-110850000D02*
X84146359Y-110850000D01*
X81342164Y-78510000D02*
X81557836Y-78510000D01*
X81342164Y-79230000D02*
X81557836Y-79230000D01*
X131691359Y-112915000D02*
X131998641Y-112915000D01*
X131691359Y-113675000D02*
X131998641Y-113675000D01*
X139691359Y-69655000D02*
X139998641Y-69655000D01*
X139691359Y-70415000D02*
X139998641Y-70415000D01*
X93400000Y-91650000D02*
X98600000Y-91650000D01*
X93400000Y-96850000D02*
X93400000Y-91650000D01*
X98600000Y-91650000D02*
X98600000Y-96850000D01*
X98600000Y-96850000D02*
X93400000Y-96850000D01*
X99000000Y-90950000D02*
G75*
G02*
X98600000Y-90950000I-200000J0D01*
G01*
X98600000Y-90950000D02*
G75*
G02*
X99000000Y-90950000I200000J0D01*
G01*
X119875000Y-117485000D02*
X119875000Y-115785000D01*
X129215000Y-117485000D02*
X129215000Y-115785000D01*
X81342164Y-77510000D02*
X81557836Y-77510000D01*
X81342164Y-78230000D02*
X81557836Y-78230000D01*
X136847164Y-68035000D02*
X137062836Y-68035000D01*
X136847164Y-68755000D02*
X137062836Y-68755000D01*
M02*
