G04 #@! TF.GenerationSoftware,KiCad,Pcbnew,10.0.0*
G04 #@! TF.CreationDate,2026-04-14T20:38:54-07:00*
G04 #@! TF.ProjectId,ministepper,6d696e69-7374-4657-9070-65722e6b6963,0.1*
G04 #@! TF.SameCoordinates,Original*
G04 #@! TF.FileFunction,Legend,Top*
G04 #@! TF.FilePolarity,Positive*
%FSLAX46Y46*%
G04 Gerber Fmt 4.6, Leading zero omitted, Abs format (unit mm)*
G04 Created by KiCad (PCBNEW 10.0.0) date 2026-04-14 20:38:54*
%MOMM*%
%LPD*%
G01*
G04 APERTURE LIST*
%ADD10C,0.150000*%
%ADD11C,0.120000*%
G04 APERTURE END LIST*
D10*
X121418095Y-60779819D02*
X121418095Y-61589342D01*
X121418095Y-61589342D02*
X121465714Y-61684580D01*
X121465714Y-61684580D02*
X121513333Y-61732200D01*
X121513333Y-61732200D02*
X121608571Y-61779819D01*
X121608571Y-61779819D02*
X121799047Y-61779819D01*
X121799047Y-61779819D02*
X121894285Y-61732200D01*
X121894285Y-61732200D02*
X121941904Y-61684580D01*
X121941904Y-61684580D02*
X121989523Y-61589342D01*
X121989523Y-61589342D02*
X121989523Y-60779819D01*
X122418095Y-60875057D02*
X122465714Y-60827438D01*
X122465714Y-60827438D02*
X122560952Y-60779819D01*
X122560952Y-60779819D02*
X122799047Y-60779819D01*
X122799047Y-60779819D02*
X122894285Y-60827438D01*
X122894285Y-60827438D02*
X122941904Y-60875057D01*
X122941904Y-60875057D02*
X122989523Y-60970295D01*
X122989523Y-60970295D02*
X122989523Y-61065533D01*
X122989523Y-61065533D02*
X122941904Y-61208390D01*
X122941904Y-61208390D02*
X122370476Y-61779819D01*
X122370476Y-61779819D02*
X122989523Y-61779819D01*
X109091666Y-74339819D02*
X109091666Y-75054104D01*
X109091666Y-75054104D02*
X109044047Y-75196961D01*
X109044047Y-75196961D02*
X108948809Y-75292200D01*
X108948809Y-75292200D02*
X108805952Y-75339819D01*
X108805952Y-75339819D02*
X108710714Y-75339819D01*
X109901190Y-74816009D02*
X110044047Y-74863628D01*
X110044047Y-74863628D02*
X110091666Y-74911247D01*
X110091666Y-74911247D02*
X110139285Y-75006485D01*
X110139285Y-75006485D02*
X110139285Y-75149342D01*
X110139285Y-75149342D02*
X110091666Y-75244580D01*
X110091666Y-75244580D02*
X110044047Y-75292200D01*
X110044047Y-75292200D02*
X109948809Y-75339819D01*
X109948809Y-75339819D02*
X109567857Y-75339819D01*
X109567857Y-75339819D02*
X109567857Y-74339819D01*
X109567857Y-74339819D02*
X109901190Y-74339819D01*
X109901190Y-74339819D02*
X109996428Y-74387438D01*
X109996428Y-74387438D02*
X110044047Y-74435057D01*
X110044047Y-74435057D02*
X110091666Y-74530295D01*
X110091666Y-74530295D02*
X110091666Y-74625533D01*
X110091666Y-74625533D02*
X110044047Y-74720771D01*
X110044047Y-74720771D02*
X109996428Y-74768390D01*
X109996428Y-74768390D02*
X109901190Y-74816009D01*
X109901190Y-74816009D02*
X109567857Y-74816009D01*
X110567857Y-74339819D02*
X110567857Y-75149342D01*
X110567857Y-75149342D02*
X110615476Y-75244580D01*
X110615476Y-75244580D02*
X110663095Y-75292200D01*
X110663095Y-75292200D02*
X110758333Y-75339819D01*
X110758333Y-75339819D02*
X110948809Y-75339819D01*
X110948809Y-75339819D02*
X111044047Y-75292200D01*
X111044047Y-75292200D02*
X111091666Y-75244580D01*
X111091666Y-75244580D02*
X111139285Y-75149342D01*
X111139285Y-75149342D02*
X111139285Y-74339819D01*
X111567857Y-75292200D02*
X111710714Y-75339819D01*
X111710714Y-75339819D02*
X111948809Y-75339819D01*
X111948809Y-75339819D02*
X112044047Y-75292200D01*
X112044047Y-75292200D02*
X112091666Y-75244580D01*
X112091666Y-75244580D02*
X112139285Y-75149342D01*
X112139285Y-75149342D02*
X112139285Y-75054104D01*
X112139285Y-75054104D02*
X112091666Y-74958866D01*
X112091666Y-74958866D02*
X112044047Y-74911247D01*
X112044047Y-74911247D02*
X111948809Y-74863628D01*
X111948809Y-74863628D02*
X111758333Y-74816009D01*
X111758333Y-74816009D02*
X111663095Y-74768390D01*
X111663095Y-74768390D02*
X111615476Y-74720771D01*
X111615476Y-74720771D02*
X111567857Y-74625533D01*
X111567857Y-74625533D02*
X111567857Y-74530295D01*
X111567857Y-74530295D02*
X111615476Y-74435057D01*
X111615476Y-74435057D02*
X111663095Y-74387438D01*
X111663095Y-74387438D02*
X111758333Y-74339819D01*
X111758333Y-74339819D02*
X111996428Y-74339819D01*
X111996428Y-74339819D02*
X112139285Y-74387438D01*
X112520238Y-74435057D02*
X112567857Y-74387438D01*
X112567857Y-74387438D02*
X112663095Y-74339819D01*
X112663095Y-74339819D02*
X112901190Y-74339819D01*
X112901190Y-74339819D02*
X112996428Y-74387438D01*
X112996428Y-74387438D02*
X113044047Y-74435057D01*
X113044047Y-74435057D02*
X113091666Y-74530295D01*
X113091666Y-74530295D02*
X113091666Y-74625533D01*
X113091666Y-74625533D02*
X113044047Y-74768390D01*
X113044047Y-74768390D02*
X112472619Y-75339819D01*
X112472619Y-75339819D02*
X113091666Y-75339819D01*
X109115476Y-87899819D02*
X109115476Y-88614104D01*
X109115476Y-88614104D02*
X109067857Y-88756961D01*
X109067857Y-88756961D02*
X108972619Y-88852200D01*
X108972619Y-88852200D02*
X108829762Y-88899819D01*
X108829762Y-88899819D02*
X108734524Y-88899819D01*
X109591667Y-88899819D02*
X109591667Y-87899819D01*
X109591667Y-87899819D02*
X109925000Y-88614104D01*
X109925000Y-88614104D02*
X110258333Y-87899819D01*
X110258333Y-87899819D02*
X110258333Y-88899819D01*
X110925000Y-87899819D02*
X111115476Y-87899819D01*
X111115476Y-87899819D02*
X111210714Y-87947438D01*
X111210714Y-87947438D02*
X111305952Y-88042676D01*
X111305952Y-88042676D02*
X111353571Y-88233152D01*
X111353571Y-88233152D02*
X111353571Y-88566485D01*
X111353571Y-88566485D02*
X111305952Y-88756961D01*
X111305952Y-88756961D02*
X111210714Y-88852200D01*
X111210714Y-88852200D02*
X111115476Y-88899819D01*
X111115476Y-88899819D02*
X110925000Y-88899819D01*
X110925000Y-88899819D02*
X110829762Y-88852200D01*
X110829762Y-88852200D02*
X110734524Y-88756961D01*
X110734524Y-88756961D02*
X110686905Y-88566485D01*
X110686905Y-88566485D02*
X110686905Y-88233152D01*
X110686905Y-88233152D02*
X110734524Y-88042676D01*
X110734524Y-88042676D02*
X110829762Y-87947438D01*
X110829762Y-87947438D02*
X110925000Y-87899819D01*
X111639286Y-87899819D02*
X112210714Y-87899819D01*
X111925000Y-88899819D02*
X111925000Y-87899819D01*
X113067857Y-88899819D02*
X112496429Y-88899819D01*
X112782143Y-88899819D02*
X112782143Y-87899819D01*
X112782143Y-87899819D02*
X112686905Y-88042676D01*
X112686905Y-88042676D02*
X112591667Y-88137914D01*
X112591667Y-88137914D02*
X112496429Y-88185533D01*
X109115476Y-101459819D02*
X109115476Y-102174104D01*
X109115476Y-102174104D02*
X109067857Y-102316961D01*
X109067857Y-102316961D02*
X108972619Y-102412200D01*
X108972619Y-102412200D02*
X108829762Y-102459819D01*
X108829762Y-102459819D02*
X108734524Y-102459819D01*
X109591667Y-102459819D02*
X109591667Y-101459819D01*
X109591667Y-101459819D02*
X109925000Y-102174104D01*
X109925000Y-102174104D02*
X110258333Y-101459819D01*
X110258333Y-101459819D02*
X110258333Y-102459819D01*
X110925000Y-101459819D02*
X111115476Y-101459819D01*
X111115476Y-101459819D02*
X111210714Y-101507438D01*
X111210714Y-101507438D02*
X111305952Y-101602676D01*
X111305952Y-101602676D02*
X111353571Y-101793152D01*
X111353571Y-101793152D02*
X111353571Y-102126485D01*
X111353571Y-102126485D02*
X111305952Y-102316961D01*
X111305952Y-102316961D02*
X111210714Y-102412200D01*
X111210714Y-102412200D02*
X111115476Y-102459819D01*
X111115476Y-102459819D02*
X110925000Y-102459819D01*
X110925000Y-102459819D02*
X110829762Y-102412200D01*
X110829762Y-102412200D02*
X110734524Y-102316961D01*
X110734524Y-102316961D02*
X110686905Y-102126485D01*
X110686905Y-102126485D02*
X110686905Y-101793152D01*
X110686905Y-101793152D02*
X110734524Y-101602676D01*
X110734524Y-101602676D02*
X110829762Y-101507438D01*
X110829762Y-101507438D02*
X110925000Y-101459819D01*
X111639286Y-101459819D02*
X112210714Y-101459819D01*
X111925000Y-102459819D02*
X111925000Y-101459819D01*
X112496429Y-101555057D02*
X112544048Y-101507438D01*
X112544048Y-101507438D02*
X112639286Y-101459819D01*
X112639286Y-101459819D02*
X112877381Y-101459819D01*
X112877381Y-101459819D02*
X112972619Y-101507438D01*
X112972619Y-101507438D02*
X113020238Y-101555057D01*
X113020238Y-101555057D02*
X113067857Y-101650295D01*
X113067857Y-101650295D02*
X113067857Y-101745533D01*
X113067857Y-101745533D02*
X113020238Y-101888390D01*
X113020238Y-101888390D02*
X112448810Y-102459819D01*
X112448810Y-102459819D02*
X113067857Y-102459819D01*
X143163095Y-66394819D02*
X143163095Y-67204342D01*
X143163095Y-67204342D02*
X143210714Y-67299580D01*
X143210714Y-67299580D02*
X143258333Y-67347200D01*
X143258333Y-67347200D02*
X143353571Y-67394819D01*
X143353571Y-67394819D02*
X143544047Y-67394819D01*
X143544047Y-67394819D02*
X143639285Y-67347200D01*
X143639285Y-67347200D02*
X143686904Y-67299580D01*
X143686904Y-67299580D02*
X143734523Y-67204342D01*
X143734523Y-67204342D02*
X143734523Y-66394819D01*
X144258333Y-67394819D02*
X144448809Y-67394819D01*
X144448809Y-67394819D02*
X144544047Y-67347200D01*
X144544047Y-67347200D02*
X144591666Y-67299580D01*
X144591666Y-67299580D02*
X144686904Y-67156723D01*
X144686904Y-67156723D02*
X144734523Y-66966247D01*
X144734523Y-66966247D02*
X144734523Y-66585295D01*
X144734523Y-66585295D02*
X144686904Y-66490057D01*
X144686904Y-66490057D02*
X144639285Y-66442438D01*
X144639285Y-66442438D02*
X144544047Y-66394819D01*
X144544047Y-66394819D02*
X144353571Y-66394819D01*
X144353571Y-66394819D02*
X144258333Y-66442438D01*
X144258333Y-66442438D02*
X144210714Y-66490057D01*
X144210714Y-66490057D02*
X144163095Y-66585295D01*
X144163095Y-66585295D02*
X144163095Y-66823390D01*
X144163095Y-66823390D02*
X144210714Y-66918628D01*
X144210714Y-66918628D02*
X144258333Y-66966247D01*
X144258333Y-66966247D02*
X144353571Y-67013866D01*
X144353571Y-67013866D02*
X144544047Y-67013866D01*
X144544047Y-67013866D02*
X144639285Y-66966247D01*
X144639285Y-66966247D02*
X144686904Y-66918628D01*
X144686904Y-66918628D02*
X144734523Y-66823390D01*
X136788333Y-61684580D02*
X136740714Y-61732200D01*
X136740714Y-61732200D02*
X136597857Y-61779819D01*
X136597857Y-61779819D02*
X136502619Y-61779819D01*
X136502619Y-61779819D02*
X136359762Y-61732200D01*
X136359762Y-61732200D02*
X136264524Y-61636961D01*
X136264524Y-61636961D02*
X136216905Y-61541723D01*
X136216905Y-61541723D02*
X136169286Y-61351247D01*
X136169286Y-61351247D02*
X136169286Y-61208390D01*
X136169286Y-61208390D02*
X136216905Y-61017914D01*
X136216905Y-61017914D02*
X136264524Y-60922676D01*
X136264524Y-60922676D02*
X136359762Y-60827438D01*
X136359762Y-60827438D02*
X136502619Y-60779819D01*
X136502619Y-60779819D02*
X136597857Y-60779819D01*
X136597857Y-60779819D02*
X136740714Y-60827438D01*
X136740714Y-60827438D02*
X136788333Y-60875057D01*
X137121667Y-60779819D02*
X137740714Y-60779819D01*
X137740714Y-60779819D02*
X137407381Y-61160771D01*
X137407381Y-61160771D02*
X137550238Y-61160771D01*
X137550238Y-61160771D02*
X137645476Y-61208390D01*
X137645476Y-61208390D02*
X137693095Y-61256009D01*
X137693095Y-61256009D02*
X137740714Y-61351247D01*
X137740714Y-61351247D02*
X137740714Y-61589342D01*
X137740714Y-61589342D02*
X137693095Y-61684580D01*
X137693095Y-61684580D02*
X137645476Y-61732200D01*
X137645476Y-61732200D02*
X137550238Y-61779819D01*
X137550238Y-61779819D02*
X137264524Y-61779819D01*
X137264524Y-61779819D02*
X137169286Y-61732200D01*
X137169286Y-61732200D02*
X137121667Y-61684580D01*
X121481905Y-83599819D02*
X121481905Y-82599819D01*
X121481905Y-82599819D02*
X121720000Y-82599819D01*
X121720000Y-82599819D02*
X121862857Y-82647438D01*
X121862857Y-82647438D02*
X121958095Y-82742676D01*
X121958095Y-82742676D02*
X122005714Y-82837914D01*
X122005714Y-82837914D02*
X122053333Y-83028390D01*
X122053333Y-83028390D02*
X122053333Y-83171247D01*
X122053333Y-83171247D02*
X122005714Y-83361723D01*
X122005714Y-83361723D02*
X121958095Y-83456961D01*
X121958095Y-83456961D02*
X121862857Y-83552200D01*
X121862857Y-83552200D02*
X121720000Y-83599819D01*
X121720000Y-83599819D02*
X121481905Y-83599819D01*
X123005714Y-83599819D02*
X122434286Y-83599819D01*
X122720000Y-83599819D02*
X122720000Y-82599819D01*
X122720000Y-82599819D02*
X122624762Y-82742676D01*
X122624762Y-82742676D02*
X122529524Y-82837914D01*
X122529524Y-82837914D02*
X122434286Y-82885533D01*
X121093095Y-91804819D02*
X121093095Y-92614342D01*
X121093095Y-92614342D02*
X121140714Y-92709580D01*
X121140714Y-92709580D02*
X121188333Y-92757200D01*
X121188333Y-92757200D02*
X121283571Y-92804819D01*
X121283571Y-92804819D02*
X121474047Y-92804819D01*
X121474047Y-92804819D02*
X121569285Y-92757200D01*
X121569285Y-92757200D02*
X121616904Y-92709580D01*
X121616904Y-92709580D02*
X121664523Y-92614342D01*
X121664523Y-92614342D02*
X121664523Y-91804819D01*
X122569285Y-92138152D02*
X122569285Y-92804819D01*
X122331190Y-91757200D02*
X122093095Y-92471485D01*
X122093095Y-92471485D02*
X122712142Y-92471485D01*
X136788333Y-63654580D02*
X136740714Y-63702200D01*
X136740714Y-63702200D02*
X136597857Y-63749819D01*
X136597857Y-63749819D02*
X136502619Y-63749819D01*
X136502619Y-63749819D02*
X136359762Y-63702200D01*
X136359762Y-63702200D02*
X136264524Y-63606961D01*
X136264524Y-63606961D02*
X136216905Y-63511723D01*
X136216905Y-63511723D02*
X136169286Y-63321247D01*
X136169286Y-63321247D02*
X136169286Y-63178390D01*
X136169286Y-63178390D02*
X136216905Y-62987914D01*
X136216905Y-62987914D02*
X136264524Y-62892676D01*
X136264524Y-62892676D02*
X136359762Y-62797438D01*
X136359762Y-62797438D02*
X136502619Y-62749819D01*
X136502619Y-62749819D02*
X136597857Y-62749819D01*
X136597857Y-62749819D02*
X136740714Y-62797438D01*
X136740714Y-62797438D02*
X136788333Y-62845057D01*
X137645476Y-63083152D02*
X137645476Y-63749819D01*
X137407381Y-62702200D02*
X137169286Y-63416485D01*
X137169286Y-63416485D02*
X137788333Y-63416485D01*
X120970238Y-69089819D02*
X120970238Y-69804104D01*
X120970238Y-69804104D02*
X120922619Y-69946961D01*
X120922619Y-69946961D02*
X120827381Y-70042200D01*
X120827381Y-70042200D02*
X120684524Y-70089819D01*
X120684524Y-70089819D02*
X120589286Y-70089819D01*
X121446429Y-70089819D02*
X121446429Y-69089819D01*
X121446429Y-69089819D02*
X121827381Y-69089819D01*
X121827381Y-69089819D02*
X121922619Y-69137438D01*
X121922619Y-69137438D02*
X121970238Y-69185057D01*
X121970238Y-69185057D02*
X122017857Y-69280295D01*
X122017857Y-69280295D02*
X122017857Y-69423152D01*
X122017857Y-69423152D02*
X121970238Y-69518390D01*
X121970238Y-69518390D02*
X121922619Y-69566009D01*
X121922619Y-69566009D02*
X121827381Y-69613628D01*
X121827381Y-69613628D02*
X121446429Y-69613628D01*
X122351191Y-69089819D02*
X122589286Y-70089819D01*
X122589286Y-70089819D02*
X122779762Y-69375533D01*
X122779762Y-69375533D02*
X122970238Y-70089819D01*
X122970238Y-70089819D02*
X123208334Y-69089819D01*
X124160714Y-70089819D02*
X123827381Y-69613628D01*
X123589286Y-70089819D02*
X123589286Y-69089819D01*
X123589286Y-69089819D02*
X123970238Y-69089819D01*
X123970238Y-69089819D02*
X124065476Y-69137438D01*
X124065476Y-69137438D02*
X124113095Y-69185057D01*
X124113095Y-69185057D02*
X124160714Y-69280295D01*
X124160714Y-69280295D02*
X124160714Y-69423152D01*
X124160714Y-69423152D02*
X124113095Y-69518390D01*
X124113095Y-69518390D02*
X124065476Y-69566009D01*
X124065476Y-69566009D02*
X123970238Y-69613628D01*
X123970238Y-69613628D02*
X123589286Y-69613628D01*
X124541667Y-69185057D02*
X124589286Y-69137438D01*
X124589286Y-69137438D02*
X124684524Y-69089819D01*
X124684524Y-69089819D02*
X124922619Y-69089819D01*
X124922619Y-69089819D02*
X125017857Y-69137438D01*
X125017857Y-69137438D02*
X125065476Y-69185057D01*
X125065476Y-69185057D02*
X125113095Y-69280295D01*
X125113095Y-69280295D02*
X125113095Y-69375533D01*
X125113095Y-69375533D02*
X125065476Y-69518390D01*
X125065476Y-69518390D02*
X124494048Y-70089819D01*
X124494048Y-70089819D02*
X125113095Y-70089819D01*
X143958333Y-71944580D02*
X143910714Y-71992200D01*
X143910714Y-71992200D02*
X143767857Y-72039819D01*
X143767857Y-72039819D02*
X143672619Y-72039819D01*
X143672619Y-72039819D02*
X143529762Y-71992200D01*
X143529762Y-71992200D02*
X143434524Y-71896961D01*
X143434524Y-71896961D02*
X143386905Y-71801723D01*
X143386905Y-71801723D02*
X143339286Y-71611247D01*
X143339286Y-71611247D02*
X143339286Y-71468390D01*
X143339286Y-71468390D02*
X143386905Y-71277914D01*
X143386905Y-71277914D02*
X143434524Y-71182676D01*
X143434524Y-71182676D02*
X143529762Y-71087438D01*
X143529762Y-71087438D02*
X143672619Y-71039819D01*
X143672619Y-71039819D02*
X143767857Y-71039819D01*
X143767857Y-71039819D02*
X143910714Y-71087438D01*
X143910714Y-71087438D02*
X143958333Y-71135057D01*
X144910714Y-72039819D02*
X144339286Y-72039819D01*
X144625000Y-72039819D02*
X144625000Y-71039819D01*
X144625000Y-71039819D02*
X144529762Y-71182676D01*
X144529762Y-71182676D02*
X144434524Y-71277914D01*
X144434524Y-71277914D02*
X144339286Y-71325533D01*
X109091666Y-60779819D02*
X109091666Y-61494104D01*
X109091666Y-61494104D02*
X109044047Y-61636961D01*
X109044047Y-61636961D02*
X108948809Y-61732200D01*
X108948809Y-61732200D02*
X108805952Y-61779819D01*
X108805952Y-61779819D02*
X108710714Y-61779819D01*
X109901190Y-61256009D02*
X110044047Y-61303628D01*
X110044047Y-61303628D02*
X110091666Y-61351247D01*
X110091666Y-61351247D02*
X110139285Y-61446485D01*
X110139285Y-61446485D02*
X110139285Y-61589342D01*
X110139285Y-61589342D02*
X110091666Y-61684580D01*
X110091666Y-61684580D02*
X110044047Y-61732200D01*
X110044047Y-61732200D02*
X109948809Y-61779819D01*
X109948809Y-61779819D02*
X109567857Y-61779819D01*
X109567857Y-61779819D02*
X109567857Y-60779819D01*
X109567857Y-60779819D02*
X109901190Y-60779819D01*
X109901190Y-60779819D02*
X109996428Y-60827438D01*
X109996428Y-60827438D02*
X110044047Y-60875057D01*
X110044047Y-60875057D02*
X110091666Y-60970295D01*
X110091666Y-60970295D02*
X110091666Y-61065533D01*
X110091666Y-61065533D02*
X110044047Y-61160771D01*
X110044047Y-61160771D02*
X109996428Y-61208390D01*
X109996428Y-61208390D02*
X109901190Y-61256009D01*
X109901190Y-61256009D02*
X109567857Y-61256009D01*
X110567857Y-60779819D02*
X110567857Y-61589342D01*
X110567857Y-61589342D02*
X110615476Y-61684580D01*
X110615476Y-61684580D02*
X110663095Y-61732200D01*
X110663095Y-61732200D02*
X110758333Y-61779819D01*
X110758333Y-61779819D02*
X110948809Y-61779819D01*
X110948809Y-61779819D02*
X111044047Y-61732200D01*
X111044047Y-61732200D02*
X111091666Y-61684580D01*
X111091666Y-61684580D02*
X111139285Y-61589342D01*
X111139285Y-61589342D02*
X111139285Y-60779819D01*
X111567857Y-61732200D02*
X111710714Y-61779819D01*
X111710714Y-61779819D02*
X111948809Y-61779819D01*
X111948809Y-61779819D02*
X112044047Y-61732200D01*
X112044047Y-61732200D02*
X112091666Y-61684580D01*
X112091666Y-61684580D02*
X112139285Y-61589342D01*
X112139285Y-61589342D02*
X112139285Y-61494104D01*
X112139285Y-61494104D02*
X112091666Y-61398866D01*
X112091666Y-61398866D02*
X112044047Y-61351247D01*
X112044047Y-61351247D02*
X111948809Y-61303628D01*
X111948809Y-61303628D02*
X111758333Y-61256009D01*
X111758333Y-61256009D02*
X111663095Y-61208390D01*
X111663095Y-61208390D02*
X111615476Y-61160771D01*
X111615476Y-61160771D02*
X111567857Y-61065533D01*
X111567857Y-61065533D02*
X111567857Y-60970295D01*
X111567857Y-60970295D02*
X111615476Y-60875057D01*
X111615476Y-60875057D02*
X111663095Y-60827438D01*
X111663095Y-60827438D02*
X111758333Y-60779819D01*
X111758333Y-60779819D02*
X111996428Y-60779819D01*
X111996428Y-60779819D02*
X112139285Y-60827438D01*
X113091666Y-61779819D02*
X112520238Y-61779819D01*
X112805952Y-61779819D02*
X112805952Y-60779819D01*
X112805952Y-60779819D02*
X112710714Y-60922676D01*
X112710714Y-60922676D02*
X112615476Y-61017914D01*
X112615476Y-61017914D02*
X112520238Y-61065533D01*
X136312142Y-69564580D02*
X136264523Y-69612200D01*
X136264523Y-69612200D02*
X136121666Y-69659819D01*
X136121666Y-69659819D02*
X136026428Y-69659819D01*
X136026428Y-69659819D02*
X135883571Y-69612200D01*
X135883571Y-69612200D02*
X135788333Y-69516961D01*
X135788333Y-69516961D02*
X135740714Y-69421723D01*
X135740714Y-69421723D02*
X135693095Y-69231247D01*
X135693095Y-69231247D02*
X135693095Y-69088390D01*
X135693095Y-69088390D02*
X135740714Y-68897914D01*
X135740714Y-68897914D02*
X135788333Y-68802676D01*
X135788333Y-68802676D02*
X135883571Y-68707438D01*
X135883571Y-68707438D02*
X136026428Y-68659819D01*
X136026428Y-68659819D02*
X136121666Y-68659819D01*
X136121666Y-68659819D02*
X136264523Y-68707438D01*
X136264523Y-68707438D02*
X136312142Y-68755057D01*
X137264523Y-69659819D02*
X136693095Y-69659819D01*
X136978809Y-69659819D02*
X136978809Y-68659819D01*
X136978809Y-68659819D02*
X136883571Y-68802676D01*
X136883571Y-68802676D02*
X136788333Y-68897914D01*
X136788333Y-68897914D02*
X136693095Y-68945533D01*
X138121666Y-68993152D02*
X138121666Y-69659819D01*
X137883571Y-68612200D02*
X137645476Y-69326485D01*
X137645476Y-69326485D02*
X138264523Y-69326485D01*
X139678333Y-71309819D02*
X139345000Y-70833628D01*
X139106905Y-71309819D02*
X139106905Y-70309819D01*
X139106905Y-70309819D02*
X139487857Y-70309819D01*
X139487857Y-70309819D02*
X139583095Y-70357438D01*
X139583095Y-70357438D02*
X139630714Y-70405057D01*
X139630714Y-70405057D02*
X139678333Y-70500295D01*
X139678333Y-70500295D02*
X139678333Y-70643152D01*
X139678333Y-70643152D02*
X139630714Y-70738390D01*
X139630714Y-70738390D02*
X139583095Y-70786009D01*
X139583095Y-70786009D02*
X139487857Y-70833628D01*
X139487857Y-70833628D02*
X139106905Y-70833628D01*
X140011667Y-70309819D02*
X140630714Y-70309819D01*
X140630714Y-70309819D02*
X140297381Y-70690771D01*
X140297381Y-70690771D02*
X140440238Y-70690771D01*
X140440238Y-70690771D02*
X140535476Y-70738390D01*
X140535476Y-70738390D02*
X140583095Y-70786009D01*
X140583095Y-70786009D02*
X140630714Y-70881247D01*
X140630714Y-70881247D02*
X140630714Y-71119342D01*
X140630714Y-71119342D02*
X140583095Y-71214580D01*
X140583095Y-71214580D02*
X140535476Y-71262200D01*
X140535476Y-71262200D02*
X140440238Y-71309819D01*
X140440238Y-71309819D02*
X140154524Y-71309819D01*
X140154524Y-71309819D02*
X140059286Y-71262200D01*
X140059286Y-71262200D02*
X140011667Y-71214580D01*
X139678333Y-73299819D02*
X139345000Y-72823628D01*
X139106905Y-73299819D02*
X139106905Y-72299819D01*
X139106905Y-72299819D02*
X139487857Y-72299819D01*
X139487857Y-72299819D02*
X139583095Y-72347438D01*
X139583095Y-72347438D02*
X139630714Y-72395057D01*
X139630714Y-72395057D02*
X139678333Y-72490295D01*
X139678333Y-72490295D02*
X139678333Y-72633152D01*
X139678333Y-72633152D02*
X139630714Y-72728390D01*
X139630714Y-72728390D02*
X139583095Y-72776009D01*
X139583095Y-72776009D02*
X139487857Y-72823628D01*
X139487857Y-72823628D02*
X139106905Y-72823628D01*
X140535476Y-72633152D02*
X140535476Y-73299819D01*
X140297381Y-72252200D02*
X140059286Y-72966485D01*
X140059286Y-72966485D02*
X140678333Y-72966485D01*
X121481905Y-88149819D02*
X121481905Y-87149819D01*
X121481905Y-87149819D02*
X121720000Y-87149819D01*
X121720000Y-87149819D02*
X121862857Y-87197438D01*
X121862857Y-87197438D02*
X121958095Y-87292676D01*
X121958095Y-87292676D02*
X122005714Y-87387914D01*
X122005714Y-87387914D02*
X122053333Y-87578390D01*
X122053333Y-87578390D02*
X122053333Y-87721247D01*
X122053333Y-87721247D02*
X122005714Y-87911723D01*
X122005714Y-87911723D02*
X121958095Y-88006961D01*
X121958095Y-88006961D02*
X121862857Y-88102200D01*
X121862857Y-88102200D02*
X121720000Y-88149819D01*
X121720000Y-88149819D02*
X121481905Y-88149819D01*
X122434286Y-87245057D02*
X122481905Y-87197438D01*
X122481905Y-87197438D02*
X122577143Y-87149819D01*
X122577143Y-87149819D02*
X122815238Y-87149819D01*
X122815238Y-87149819D02*
X122910476Y-87197438D01*
X122910476Y-87197438D02*
X122958095Y-87245057D01*
X122958095Y-87245057D02*
X123005714Y-87340295D01*
X123005714Y-87340295D02*
X123005714Y-87435533D01*
X123005714Y-87435533D02*
X122958095Y-87578390D01*
X122958095Y-87578390D02*
X122386667Y-88149819D01*
X122386667Y-88149819D02*
X123005714Y-88149819D01*
X139678333Y-67329819D02*
X139345000Y-66853628D01*
X139106905Y-67329819D02*
X139106905Y-66329819D01*
X139106905Y-66329819D02*
X139487857Y-66329819D01*
X139487857Y-66329819D02*
X139583095Y-66377438D01*
X139583095Y-66377438D02*
X139630714Y-66425057D01*
X139630714Y-66425057D02*
X139678333Y-66520295D01*
X139678333Y-66520295D02*
X139678333Y-66663152D01*
X139678333Y-66663152D02*
X139630714Y-66758390D01*
X139630714Y-66758390D02*
X139583095Y-66806009D01*
X139583095Y-66806009D02*
X139487857Y-66853628D01*
X139487857Y-66853628D02*
X139106905Y-66853628D01*
X140630714Y-67329819D02*
X140059286Y-67329819D01*
X140345000Y-67329819D02*
X140345000Y-66329819D01*
X140345000Y-66329819D02*
X140249762Y-66472676D01*
X140249762Y-66472676D02*
X140154524Y-66567914D01*
X140154524Y-66567914D02*
X140059286Y-66615533D01*
X145878333Y-61684580D02*
X145830714Y-61732200D01*
X145830714Y-61732200D02*
X145687857Y-61779819D01*
X145687857Y-61779819D02*
X145592619Y-61779819D01*
X145592619Y-61779819D02*
X145449762Y-61732200D01*
X145449762Y-61732200D02*
X145354524Y-61636961D01*
X145354524Y-61636961D02*
X145306905Y-61541723D01*
X145306905Y-61541723D02*
X145259286Y-61351247D01*
X145259286Y-61351247D02*
X145259286Y-61208390D01*
X145259286Y-61208390D02*
X145306905Y-61017914D01*
X145306905Y-61017914D02*
X145354524Y-60922676D01*
X145354524Y-60922676D02*
X145449762Y-60827438D01*
X145449762Y-60827438D02*
X145592619Y-60779819D01*
X145592619Y-60779819D02*
X145687857Y-60779819D01*
X145687857Y-60779819D02*
X145830714Y-60827438D01*
X145830714Y-60827438D02*
X145878333Y-60875057D01*
X146259286Y-60875057D02*
X146306905Y-60827438D01*
X146306905Y-60827438D02*
X146402143Y-60779819D01*
X146402143Y-60779819D02*
X146640238Y-60779819D01*
X146640238Y-60779819D02*
X146735476Y-60827438D01*
X146735476Y-60827438D02*
X146783095Y-60875057D01*
X146783095Y-60875057D02*
X146830714Y-60970295D01*
X146830714Y-60970295D02*
X146830714Y-61065533D01*
X146830714Y-61065533D02*
X146783095Y-61208390D01*
X146783095Y-61208390D02*
X146211667Y-61779819D01*
X146211667Y-61779819D02*
X146830714Y-61779819D01*
X136788333Y-65624580D02*
X136740714Y-65672200D01*
X136740714Y-65672200D02*
X136597857Y-65719819D01*
X136597857Y-65719819D02*
X136502619Y-65719819D01*
X136502619Y-65719819D02*
X136359762Y-65672200D01*
X136359762Y-65672200D02*
X136264524Y-65576961D01*
X136264524Y-65576961D02*
X136216905Y-65481723D01*
X136216905Y-65481723D02*
X136169286Y-65291247D01*
X136169286Y-65291247D02*
X136169286Y-65148390D01*
X136169286Y-65148390D02*
X136216905Y-64957914D01*
X136216905Y-64957914D02*
X136264524Y-64862676D01*
X136264524Y-64862676D02*
X136359762Y-64767438D01*
X136359762Y-64767438D02*
X136502619Y-64719819D01*
X136502619Y-64719819D02*
X136597857Y-64719819D01*
X136597857Y-64719819D02*
X136740714Y-64767438D01*
X136740714Y-64767438D02*
X136788333Y-64815057D01*
X137693095Y-64719819D02*
X137216905Y-64719819D01*
X137216905Y-64719819D02*
X137169286Y-65196009D01*
X137169286Y-65196009D02*
X137216905Y-65148390D01*
X137216905Y-65148390D02*
X137312143Y-65100771D01*
X137312143Y-65100771D02*
X137550238Y-65100771D01*
X137550238Y-65100771D02*
X137645476Y-65148390D01*
X137645476Y-65148390D02*
X137693095Y-65196009D01*
X137693095Y-65196009D02*
X137740714Y-65291247D01*
X137740714Y-65291247D02*
X137740714Y-65529342D01*
X137740714Y-65529342D02*
X137693095Y-65624580D01*
X137693095Y-65624580D02*
X137645476Y-65672200D01*
X137645476Y-65672200D02*
X137550238Y-65719819D01*
X137550238Y-65719819D02*
X137312143Y-65719819D01*
X137312143Y-65719819D02*
X137216905Y-65672200D01*
X137216905Y-65672200D02*
X137169286Y-65624580D01*
X141048333Y-61779819D02*
X140572143Y-61779819D01*
X140572143Y-61779819D02*
X140572143Y-60779819D01*
X141905476Y-61779819D02*
X141334048Y-61779819D01*
X141619762Y-61779819D02*
X141619762Y-60779819D01*
X141619762Y-60779819D02*
X141524524Y-60922676D01*
X141524524Y-60922676D02*
X141429286Y-61017914D01*
X141429286Y-61017914D02*
X141334048Y-61065533D01*
X139678333Y-69319819D02*
X139345000Y-68843628D01*
X139106905Y-69319819D02*
X139106905Y-68319819D01*
X139106905Y-68319819D02*
X139487857Y-68319819D01*
X139487857Y-68319819D02*
X139583095Y-68367438D01*
X139583095Y-68367438D02*
X139630714Y-68415057D01*
X139630714Y-68415057D02*
X139678333Y-68510295D01*
X139678333Y-68510295D02*
X139678333Y-68653152D01*
X139678333Y-68653152D02*
X139630714Y-68748390D01*
X139630714Y-68748390D02*
X139583095Y-68796009D01*
X139583095Y-68796009D02*
X139487857Y-68843628D01*
X139487857Y-68843628D02*
X139106905Y-68843628D01*
X140059286Y-68415057D02*
X140106905Y-68367438D01*
X140106905Y-68367438D02*
X140202143Y-68319819D01*
X140202143Y-68319819D02*
X140440238Y-68319819D01*
X140440238Y-68319819D02*
X140535476Y-68367438D01*
X140535476Y-68367438D02*
X140583095Y-68415057D01*
X140583095Y-68415057D02*
X140630714Y-68510295D01*
X140630714Y-68510295D02*
X140630714Y-68605533D01*
X140630714Y-68605533D02*
X140583095Y-68748390D01*
X140583095Y-68748390D02*
X140011667Y-69319819D01*
X140011667Y-69319819D02*
X140630714Y-69319819D01*
X121148095Y-95799819D02*
X121148095Y-96609342D01*
X121148095Y-96609342D02*
X121195714Y-96704580D01*
X121195714Y-96704580D02*
X121243333Y-96752200D01*
X121243333Y-96752200D02*
X121338571Y-96799819D01*
X121338571Y-96799819D02*
X121529047Y-96799819D01*
X121529047Y-96799819D02*
X121624285Y-96752200D01*
X121624285Y-96752200D02*
X121671904Y-96704580D01*
X121671904Y-96704580D02*
X121719523Y-96609342D01*
X121719523Y-96609342D02*
X121719523Y-95799819D01*
X122719523Y-96799819D02*
X122148095Y-96799819D01*
X122433809Y-96799819D02*
X122433809Y-95799819D01*
X122433809Y-95799819D02*
X122338571Y-95942676D01*
X122338571Y-95942676D02*
X122243333Y-96037914D01*
X122243333Y-96037914D02*
X122148095Y-96085533D01*
X136788333Y-67594580D02*
X136740714Y-67642200D01*
X136740714Y-67642200D02*
X136597857Y-67689819D01*
X136597857Y-67689819D02*
X136502619Y-67689819D01*
X136502619Y-67689819D02*
X136359762Y-67642200D01*
X136359762Y-67642200D02*
X136264524Y-67546961D01*
X136264524Y-67546961D02*
X136216905Y-67451723D01*
X136216905Y-67451723D02*
X136169286Y-67261247D01*
X136169286Y-67261247D02*
X136169286Y-67118390D01*
X136169286Y-67118390D02*
X136216905Y-66927914D01*
X136216905Y-66927914D02*
X136264524Y-66832676D01*
X136264524Y-66832676D02*
X136359762Y-66737438D01*
X136359762Y-66737438D02*
X136502619Y-66689819D01*
X136502619Y-66689819D02*
X136597857Y-66689819D01*
X136597857Y-66689819D02*
X136740714Y-66737438D01*
X136740714Y-66737438D02*
X136788333Y-66785057D01*
X137645476Y-66689819D02*
X137455000Y-66689819D01*
X137455000Y-66689819D02*
X137359762Y-66737438D01*
X137359762Y-66737438D02*
X137312143Y-66785057D01*
X137312143Y-66785057D02*
X137216905Y-66927914D01*
X137216905Y-66927914D02*
X137169286Y-67118390D01*
X137169286Y-67118390D02*
X137169286Y-67499342D01*
X137169286Y-67499342D02*
X137216905Y-67594580D01*
X137216905Y-67594580D02*
X137264524Y-67642200D01*
X137264524Y-67642200D02*
X137359762Y-67689819D01*
X137359762Y-67689819D02*
X137550238Y-67689819D01*
X137550238Y-67689819D02*
X137645476Y-67642200D01*
X137645476Y-67642200D02*
X137693095Y-67594580D01*
X137693095Y-67594580D02*
X137740714Y-67499342D01*
X137740714Y-67499342D02*
X137740714Y-67261247D01*
X137740714Y-67261247D02*
X137693095Y-67166009D01*
X137693095Y-67166009D02*
X137645476Y-67118390D01*
X137645476Y-67118390D02*
X137550238Y-67070771D01*
X137550238Y-67070771D02*
X137359762Y-67070771D01*
X137359762Y-67070771D02*
X137264524Y-67118390D01*
X137264524Y-67118390D02*
X137216905Y-67166009D01*
X137216905Y-67166009D02*
X137169286Y-67261247D01*
X129103095Y-60779819D02*
X129103095Y-61589342D01*
X129103095Y-61589342D02*
X129150714Y-61684580D01*
X129150714Y-61684580D02*
X129198333Y-61732200D01*
X129198333Y-61732200D02*
X129293571Y-61779819D01*
X129293571Y-61779819D02*
X129484047Y-61779819D01*
X129484047Y-61779819D02*
X129579285Y-61732200D01*
X129579285Y-61732200D02*
X129626904Y-61684580D01*
X129626904Y-61684580D02*
X129674523Y-61589342D01*
X129674523Y-61589342D02*
X129674523Y-60779819D01*
X130055476Y-60779819D02*
X130674523Y-60779819D01*
X130674523Y-60779819D02*
X130341190Y-61160771D01*
X130341190Y-61160771D02*
X130484047Y-61160771D01*
X130484047Y-61160771D02*
X130579285Y-61208390D01*
X130579285Y-61208390D02*
X130626904Y-61256009D01*
X130626904Y-61256009D02*
X130674523Y-61351247D01*
X130674523Y-61351247D02*
X130674523Y-61589342D01*
X130674523Y-61589342D02*
X130626904Y-61684580D01*
X130626904Y-61684580D02*
X130579285Y-61732200D01*
X130579285Y-61732200D02*
X130484047Y-61779819D01*
X130484047Y-61779819D02*
X130198333Y-61779819D01*
X130198333Y-61779819D02*
X130103095Y-61732200D01*
X130103095Y-61732200D02*
X130055476Y-61684580D01*
D11*
X119570000Y-62545000D02*
X120045000Y-62545000D01*
X119570000Y-63020000D02*
X119570000Y-62545000D01*
X119570000Y-68765000D02*
X119570000Y-68290000D01*
X120045000Y-68765000D02*
X119570000Y-68765000D01*
X124315000Y-62545000D02*
X124790000Y-62545000D01*
X124790000Y-62545000D02*
X124790000Y-63020000D01*
X124790000Y-68290000D02*
X124790000Y-68765000D01*
X124790000Y-68765000D02*
X124315000Y-68765000D01*
X119040000Y-63405000D02*
X118710000Y-63645000D01*
X118710000Y-63165000D01*
X119040000Y-63405000D01*
G36*
X119040000Y-63405000D02*
G01*
X118710000Y-63645000D01*
X118710000Y-63165000D01*
X119040000Y-63405000D01*
G37*
X104615000Y-75985000D02*
X106035000Y-75985000D01*
X104615000Y-87705000D02*
X104615000Y-75985000D01*
X106035000Y-75985000D02*
X106035000Y-80485000D01*
X106035000Y-80485000D02*
X110925000Y-80485000D01*
X106875000Y-76295000D02*
X107475000Y-76295000D01*
X107175000Y-76895000D02*
X106875000Y-76295000D01*
X107475000Y-76295000D02*
X107175000Y-76895000D01*
X110925000Y-87705000D02*
X104615000Y-87705000D01*
X110925000Y-87705000D02*
X117235000Y-87705000D01*
X115815000Y-75985000D02*
X115815000Y-80485000D01*
X115815000Y-80485000D02*
X110925000Y-80485000D01*
X117235000Y-75985000D02*
X115815000Y-75985000D01*
X117235000Y-87705000D02*
X117235000Y-75985000D01*
X106925000Y-81595000D02*
X107425000Y-81595000D01*
X107425000Y-87095000D01*
X106925000Y-87095000D01*
X106925000Y-81595000D01*
X109425000Y-81595000D02*
X109925000Y-81595000D01*
X109925000Y-87095000D01*
X109425000Y-87095000D01*
X109425000Y-81595000D01*
X111925000Y-81595000D02*
X112425000Y-81595000D01*
X112425000Y-87095000D01*
X111925000Y-87095000D01*
X111925000Y-81595000D01*
X114425000Y-81595000D02*
X114925000Y-81595000D01*
X114925000Y-87095000D01*
X114425000Y-87095000D01*
X114425000Y-81595000D01*
X104615000Y-89545000D02*
X106035000Y-89545000D01*
X104615000Y-101265000D02*
X104615000Y-89545000D01*
X106035000Y-89545000D02*
X106035000Y-94045000D01*
X106035000Y-94045000D02*
X110925000Y-94045000D01*
X106875000Y-89855000D02*
X107475000Y-89855000D01*
X107175000Y-90455000D02*
X106875000Y-89855000D01*
X107475000Y-89855000D02*
X107175000Y-90455000D01*
X110925000Y-101265000D02*
X104615000Y-101265000D01*
X110925000Y-101265000D02*
X117235000Y-101265000D01*
X115815000Y-89545000D02*
X115815000Y-94045000D01*
X115815000Y-94045000D02*
X110925000Y-94045000D01*
X117235000Y-89545000D02*
X115815000Y-89545000D01*
X117235000Y-101265000D02*
X117235000Y-89545000D01*
X106925000Y-95155000D02*
X107425000Y-95155000D01*
X107425000Y-100655000D01*
X106925000Y-100655000D01*
X106925000Y-95155000D01*
X109425000Y-95155000D02*
X109925000Y-95155000D01*
X109925000Y-100655000D01*
X109425000Y-100655000D01*
X109425000Y-95155000D01*
X111925000Y-95155000D02*
X112425000Y-95155000D01*
X112425000Y-100655000D01*
X111925000Y-100655000D01*
X111925000Y-95155000D01*
X114425000Y-95155000D02*
X114925000Y-95155000D01*
X114925000Y-100655000D01*
X114425000Y-100655000D01*
X114425000Y-95155000D01*
X104615000Y-103105000D02*
X106035000Y-103105000D01*
X104615000Y-114825000D02*
X104615000Y-103105000D01*
X106035000Y-103105000D02*
X106035000Y-107605000D01*
X106035000Y-107605000D02*
X110925000Y-107605000D01*
X106875000Y-103415000D02*
X107475000Y-103415000D01*
X107175000Y-104015000D02*
X106875000Y-103415000D01*
X107475000Y-103415000D02*
X107175000Y-104015000D01*
X110925000Y-114825000D02*
X104615000Y-114825000D01*
X110925000Y-114825000D02*
X117235000Y-114825000D01*
X115815000Y-103105000D02*
X115815000Y-107605000D01*
X115815000Y-107605000D02*
X110925000Y-107605000D01*
X117235000Y-103105000D02*
X115815000Y-103105000D01*
X117235000Y-114825000D02*
X117235000Y-103105000D01*
X106925000Y-108715000D02*
X107425000Y-108715000D01*
X107425000Y-114215000D01*
X106925000Y-114215000D01*
X106925000Y-108715000D01*
X109425000Y-108715000D02*
X109925000Y-108715000D01*
X109925000Y-114215000D01*
X109425000Y-114215000D01*
X109425000Y-108715000D01*
X111925000Y-108715000D02*
X112425000Y-108715000D01*
X112425000Y-114215000D01*
X111925000Y-114215000D01*
X111925000Y-108715000D01*
X114425000Y-108715000D02*
X114925000Y-108715000D01*
X114925000Y-114215000D01*
X114425000Y-114215000D01*
X114425000Y-108715000D01*
X142275000Y-71090000D02*
X142275000Y-70890000D01*
X142275000Y-71090000D02*
X143225000Y-71090000D01*
X144625000Y-71090000D02*
X145575000Y-71090000D01*
X145575000Y-67790000D02*
X142640000Y-67790000D01*
X145575000Y-67990000D02*
X145575000Y-67790000D01*
X145575000Y-70890000D02*
X145575000Y-71090000D01*
X142115000Y-67940000D02*
X141875000Y-67610000D01*
X142355000Y-67610000D01*
X142115000Y-67940000D01*
G36*
X142115000Y-67940000D02*
G01*
X141875000Y-67610000D01*
X142355000Y-67610000D01*
X142115000Y-67940000D01*
G37*
X136847164Y-62125000D02*
X137062836Y-62125000D01*
X136847164Y-62845000D02*
X137062836Y-62845000D01*
X118710000Y-83995000D02*
X118710000Y-87295000D01*
X118710000Y-83995000D02*
X124220000Y-83995000D01*
X118710000Y-87295000D02*
X124220000Y-87295000D01*
X120245000Y-93190000D02*
X123465000Y-93190000D01*
X120245000Y-93365000D02*
X120245000Y-93190000D01*
X120245000Y-96410000D02*
X120245000Y-96235000D01*
X123465000Y-93190000D02*
X123465000Y-93365000D01*
X123465000Y-96235000D02*
X123465000Y-96410000D01*
X123465000Y-96410000D02*
X120245000Y-96410000D01*
X119695000Y-93360000D02*
X119455000Y-93030000D01*
X119935000Y-93030000D01*
X119695000Y-93360000D01*
G36*
X119695000Y-93360000D02*
G01*
X119455000Y-93030000D01*
X119935000Y-93030000D01*
X119695000Y-93360000D01*
G37*
X136847164Y-64095000D02*
X137062836Y-64095000D01*
X136847164Y-64815000D02*
X137062836Y-64815000D01*
X119065000Y-70735000D02*
X120485000Y-70735000D01*
X119065000Y-82455000D02*
X119065000Y-70735000D01*
X120485000Y-70735000D02*
X120485000Y-75235000D01*
X120485000Y-75235000D02*
X122875000Y-75235000D01*
X121325000Y-71045000D02*
X121925000Y-71045000D01*
X121625000Y-71645000D02*
X121325000Y-71045000D01*
X121925000Y-71045000D02*
X121625000Y-71645000D01*
X122875000Y-82455000D02*
X119065000Y-82455000D01*
X122875000Y-82455000D02*
X126685000Y-82455000D01*
X125265000Y-70735000D02*
X125265000Y-75235000D01*
X125265000Y-75235000D02*
X122875000Y-75235000D01*
X126685000Y-70735000D02*
X125265000Y-70735000D01*
X126685000Y-82455000D02*
X126685000Y-70735000D01*
X121375000Y-76345000D02*
X121875000Y-76345000D01*
X121875000Y-81845000D01*
X121375000Y-81845000D01*
X121375000Y-76345000D01*
X123875000Y-76345000D02*
X124375000Y-76345000D01*
X124375000Y-81845000D01*
X123875000Y-81845000D01*
X123875000Y-76345000D01*
X143413748Y-72525000D02*
X144836252Y-72525000D01*
X143413748Y-74345000D02*
X144836252Y-74345000D01*
X104615000Y-62425000D02*
X106035000Y-62425000D01*
X104615000Y-74145000D02*
X104615000Y-62425000D01*
X106035000Y-62425000D02*
X106035000Y-66925000D01*
X106035000Y-66925000D02*
X110925000Y-66925000D01*
X106875000Y-62735000D02*
X107475000Y-62735000D01*
X107175000Y-63335000D02*
X106875000Y-62735000D01*
X107475000Y-62735000D02*
X107175000Y-63335000D01*
X110925000Y-74145000D02*
X104615000Y-74145000D01*
X110925000Y-74145000D02*
X117235000Y-74145000D01*
X115815000Y-62425000D02*
X115815000Y-66925000D01*
X115815000Y-66925000D02*
X110925000Y-66925000D01*
X117235000Y-62425000D02*
X115815000Y-62425000D01*
X117235000Y-74145000D02*
X117235000Y-62425000D01*
X106925000Y-68035000D02*
X107425000Y-68035000D01*
X107425000Y-73535000D01*
X106925000Y-73535000D01*
X106925000Y-68035000D01*
X109425000Y-68035000D02*
X109925000Y-68035000D01*
X109925000Y-73535000D01*
X109425000Y-73535000D01*
X109425000Y-68035000D01*
X111925000Y-68035000D02*
X112425000Y-68035000D01*
X112425000Y-73535000D01*
X111925000Y-73535000D01*
X111925000Y-68035000D01*
X114425000Y-68035000D02*
X114925000Y-68035000D01*
X114925000Y-73535000D01*
X114425000Y-73535000D01*
X114425000Y-68035000D01*
X136847164Y-70005000D02*
X137062836Y-70005000D01*
X136847164Y-70725000D02*
X137062836Y-70725000D01*
X139691359Y-71645000D02*
X139998641Y-71645000D01*
X139691359Y-72405000D02*
X139998641Y-72405000D01*
X139691359Y-73635000D02*
X139998641Y-73635000D01*
X139691359Y-74395000D02*
X139998641Y-74395000D01*
X118710000Y-88545000D02*
X118710000Y-91845000D01*
X118710000Y-88545000D02*
X124220000Y-88545000D01*
X118710000Y-91845000D02*
X124220000Y-91845000D01*
X139691359Y-67665000D02*
X139998641Y-67665000D01*
X139691359Y-68425000D02*
X139998641Y-68425000D01*
X145904420Y-62245000D02*
X146185580Y-62245000D01*
X145904420Y-63265000D02*
X146185580Y-63265000D01*
X136847164Y-66065000D02*
X137062836Y-66065000D01*
X136847164Y-66785000D02*
X137062836Y-66785000D01*
X139105000Y-62165000D02*
X143325000Y-62165000D01*
X143325000Y-66385000D02*
X139105000Y-66385000D01*
X139691359Y-69655000D02*
X139998641Y-69655000D01*
X139691359Y-70415000D02*
X139998641Y-70415000D01*
X119785000Y-98220000D02*
X119785000Y-102470000D01*
X119785000Y-98220000D02*
X124035000Y-98220000D01*
X119785000Y-102470000D02*
X124035000Y-102470000D01*
X124035000Y-98220000D02*
X124035000Y-102470000D01*
X119110000Y-97845000D02*
G75*
G02*
X118710000Y-97845000I-200000J0D01*
G01*
X118710000Y-97845000D02*
G75*
G02*
X119110000Y-97845000I200000J0D01*
G01*
X136847164Y-68035000D02*
X137062836Y-68035000D01*
X136847164Y-68755000D02*
X137062836Y-68755000D01*
X127255000Y-62545000D02*
X127730000Y-62545000D01*
X127255000Y-63020000D02*
X127255000Y-62545000D01*
X127255000Y-68765000D02*
X127255000Y-68290000D01*
X127730000Y-68765000D02*
X127255000Y-68765000D01*
X132000000Y-62545000D02*
X132475000Y-62545000D01*
X132475000Y-62545000D02*
X132475000Y-63020000D01*
X132475000Y-68290000D02*
X132475000Y-68765000D01*
X132475000Y-68765000D02*
X132000000Y-68765000D01*
X126725000Y-63405000D02*
X126395000Y-63645000D01*
X126395000Y-63165000D01*
X126725000Y-63405000D01*
G36*
X126725000Y-63405000D02*
G01*
X126395000Y-63645000D01*
X126395000Y-63165000D01*
X126725000Y-63405000D01*
G37*
M02*
