G04 #@! TF.GenerationSoftware,KiCad,Pcbnew,10.0.0*
G04 #@! TF.CreationDate,2026-04-15T10:06:29-07:00*
G04 #@! TF.ProjectId,ministepper,6d696e69-7374-4657-9070-65722e6b6963,0.1*
G04 #@! TF.SameCoordinates,Original*
G04 #@! TF.FileFunction,Legend,Top*
G04 #@! TF.FilePolarity,Positive*
%FSLAX46Y46*%
G04 Gerber Fmt 4.6, Leading zero omitted, Abs format (unit mm)*
G04 Created by KiCad (PCBNEW 10.0.0) date 2026-04-15 10:06:29*
%MOMM*%
%LPD*%
G01*
G04 APERTURE LIST*
%ADD10C,0.150000*%
%ADD11C,0.120000*%
G04 APERTURE END LIST*
D10*
X191000000Y-73000000D02*
X191000000Y-71600000D01*
X182886104Y-81104761D02*
X182924200Y-81142857D01*
X182924200Y-81142857D02*
X182962295Y-81257142D01*
X182962295Y-81257142D02*
X182962295Y-81333333D01*
X182962295Y-81333333D02*
X182924200Y-81447619D01*
X182924200Y-81447619D02*
X182848009Y-81523809D01*
X182848009Y-81523809D02*
X182771819Y-81561904D01*
X182771819Y-81561904D02*
X182619438Y-81600000D01*
X182619438Y-81600000D02*
X182505152Y-81600000D01*
X182505152Y-81600000D02*
X182352771Y-81561904D01*
X182352771Y-81561904D02*
X182276580Y-81523809D01*
X182276580Y-81523809D02*
X182200390Y-81447619D01*
X182200390Y-81447619D02*
X182162295Y-81333333D01*
X182162295Y-81333333D02*
X182162295Y-81257142D01*
X182162295Y-81257142D02*
X182200390Y-81142857D01*
X182200390Y-81142857D02*
X182238485Y-81104761D01*
X183038485Y-80952381D02*
X183038485Y-80342857D01*
X182543247Y-79885714D02*
X182581342Y-79771428D01*
X182581342Y-79771428D02*
X182619438Y-79733333D01*
X182619438Y-79733333D02*
X182695628Y-79695237D01*
X182695628Y-79695237D02*
X182809914Y-79695237D01*
X182809914Y-79695237D02*
X182886104Y-79733333D01*
X182886104Y-79733333D02*
X182924200Y-79771428D01*
X182924200Y-79771428D02*
X182962295Y-79847618D01*
X182962295Y-79847618D02*
X182962295Y-80152380D01*
X182962295Y-80152380D02*
X182162295Y-80152380D01*
X182162295Y-80152380D02*
X182162295Y-79885714D01*
X182162295Y-79885714D02*
X182200390Y-79809523D01*
X182200390Y-79809523D02*
X182238485Y-79771428D01*
X182238485Y-79771428D02*
X182314676Y-79733333D01*
X182314676Y-79733333D02*
X182390866Y-79733333D01*
X182390866Y-79733333D02*
X182467057Y-79771428D01*
X182467057Y-79771428D02*
X182505152Y-79809523D01*
X182505152Y-79809523D02*
X182543247Y-79885714D01*
X182543247Y-79885714D02*
X182543247Y-80152380D01*
X182962295Y-78895237D02*
X182581342Y-79161904D01*
X182962295Y-79352380D02*
X182162295Y-79352380D01*
X182162295Y-79352380D02*
X182162295Y-79047618D01*
X182162295Y-79047618D02*
X182200390Y-78971428D01*
X182200390Y-78971428D02*
X182238485Y-78933333D01*
X182238485Y-78933333D02*
X182314676Y-78895237D01*
X182314676Y-78895237D02*
X182428961Y-78895237D01*
X182428961Y-78895237D02*
X182505152Y-78933333D01*
X182505152Y-78933333D02*
X182543247Y-78971428D01*
X182543247Y-78971428D02*
X182581342Y-79047618D01*
X182581342Y-79047618D02*
X182581342Y-79352380D01*
X182543247Y-78285714D02*
X182581342Y-78171428D01*
X182581342Y-78171428D02*
X182619438Y-78133333D01*
X182619438Y-78133333D02*
X182695628Y-78095237D01*
X182695628Y-78095237D02*
X182809914Y-78095237D01*
X182809914Y-78095237D02*
X182886104Y-78133333D01*
X182886104Y-78133333D02*
X182924200Y-78171428D01*
X182924200Y-78171428D02*
X182962295Y-78247618D01*
X182962295Y-78247618D02*
X182962295Y-78552380D01*
X182962295Y-78552380D02*
X182162295Y-78552380D01*
X182162295Y-78552380D02*
X182162295Y-78285714D01*
X182162295Y-78285714D02*
X182200390Y-78209523D01*
X182200390Y-78209523D02*
X182238485Y-78171428D01*
X182238485Y-78171428D02*
X182314676Y-78133333D01*
X182314676Y-78133333D02*
X182390866Y-78133333D01*
X182390866Y-78133333D02*
X182467057Y-78171428D01*
X182467057Y-78171428D02*
X182505152Y-78209523D01*
X182505152Y-78209523D02*
X182543247Y-78285714D01*
X182543247Y-78285714D02*
X182543247Y-78552380D01*
X183038485Y-77942857D02*
X183038485Y-77333333D01*
X182543247Y-76876190D02*
X182543247Y-77142856D01*
X182962295Y-77142856D02*
X182162295Y-77142856D01*
X182162295Y-77142856D02*
X182162295Y-76761904D01*
X182962295Y-76457142D02*
X182162295Y-76457142D01*
X182962295Y-75695238D02*
X182962295Y-76076190D01*
X182962295Y-76076190D02*
X182162295Y-76076190D01*
X182162295Y-75542857D02*
X182162295Y-75085714D01*
X182962295Y-75314286D02*
X182162295Y-75314286D01*
X182238485Y-74857143D02*
X182200390Y-74819047D01*
X182200390Y-74819047D02*
X182162295Y-74742857D01*
X182162295Y-74742857D02*
X182162295Y-74552381D01*
X182162295Y-74552381D02*
X182200390Y-74476190D01*
X182200390Y-74476190D02*
X182238485Y-74438095D01*
X182238485Y-74438095D02*
X182314676Y-74400000D01*
X182314676Y-74400000D02*
X182390866Y-74400000D01*
X182390866Y-74400000D02*
X182505152Y-74438095D01*
X182505152Y-74438095D02*
X182962295Y-74895238D01*
X182962295Y-74895238D02*
X182962295Y-74400000D01*
X189286104Y-80561904D02*
X189324200Y-80600000D01*
X189324200Y-80600000D02*
X189362295Y-80714285D01*
X189362295Y-80714285D02*
X189362295Y-80790476D01*
X189362295Y-80790476D02*
X189324200Y-80904762D01*
X189324200Y-80904762D02*
X189248009Y-80980952D01*
X189248009Y-80980952D02*
X189171819Y-81019047D01*
X189171819Y-81019047D02*
X189019438Y-81057143D01*
X189019438Y-81057143D02*
X188905152Y-81057143D01*
X188905152Y-81057143D02*
X188752771Y-81019047D01*
X188752771Y-81019047D02*
X188676580Y-80980952D01*
X188676580Y-80980952D02*
X188600390Y-80904762D01*
X188600390Y-80904762D02*
X188562295Y-80790476D01*
X188562295Y-80790476D02*
X188562295Y-80714285D01*
X188562295Y-80714285D02*
X188600390Y-80600000D01*
X188600390Y-80600000D02*
X188638485Y-80561904D01*
X189438485Y-80409524D02*
X189438485Y-79800000D01*
X188562295Y-79723809D02*
X189362295Y-79457142D01*
X189362295Y-79457142D02*
X188562295Y-79190476D01*
X189324200Y-78961905D02*
X189362295Y-78847619D01*
X189362295Y-78847619D02*
X189362295Y-78657143D01*
X189362295Y-78657143D02*
X189324200Y-78580952D01*
X189324200Y-78580952D02*
X189286104Y-78542857D01*
X189286104Y-78542857D02*
X189209914Y-78504762D01*
X189209914Y-78504762D02*
X189133723Y-78504762D01*
X189133723Y-78504762D02*
X189057533Y-78542857D01*
X189057533Y-78542857D02*
X189019438Y-78580952D01*
X189019438Y-78580952D02*
X188981342Y-78657143D01*
X188981342Y-78657143D02*
X188943247Y-78809524D01*
X188943247Y-78809524D02*
X188905152Y-78885714D01*
X188905152Y-78885714D02*
X188867057Y-78923809D01*
X188867057Y-78923809D02*
X188790866Y-78961905D01*
X188790866Y-78961905D02*
X188714676Y-78961905D01*
X188714676Y-78961905D02*
X188638485Y-78923809D01*
X188638485Y-78923809D02*
X188600390Y-78885714D01*
X188600390Y-78885714D02*
X188562295Y-78809524D01*
X188562295Y-78809524D02*
X188562295Y-78619047D01*
X188562295Y-78619047D02*
X188600390Y-78504762D01*
X188638485Y-78200000D02*
X188600390Y-78161904D01*
X188600390Y-78161904D02*
X188562295Y-78085714D01*
X188562295Y-78085714D02*
X188562295Y-77895238D01*
X188562295Y-77895238D02*
X188600390Y-77819047D01*
X188600390Y-77819047D02*
X188638485Y-77780952D01*
X188638485Y-77780952D02*
X188714676Y-77742857D01*
X188714676Y-77742857D02*
X188790866Y-77742857D01*
X188790866Y-77742857D02*
X188905152Y-77780952D01*
X188905152Y-77780952D02*
X189362295Y-78238095D01*
X189362295Y-78238095D02*
X189362295Y-77742857D01*
X109458333Y-74447295D02*
X109458333Y-75018723D01*
X109458333Y-75018723D02*
X109420238Y-75133009D01*
X109420238Y-75133009D02*
X109344047Y-75209200D01*
X109344047Y-75209200D02*
X109229762Y-75247295D01*
X109229762Y-75247295D02*
X109153571Y-75247295D01*
X110105952Y-74828247D02*
X110220238Y-74866342D01*
X110220238Y-74866342D02*
X110258333Y-74904438D01*
X110258333Y-74904438D02*
X110296429Y-74980628D01*
X110296429Y-74980628D02*
X110296429Y-75094914D01*
X110296429Y-75094914D02*
X110258333Y-75171104D01*
X110258333Y-75171104D02*
X110220238Y-75209200D01*
X110220238Y-75209200D02*
X110144048Y-75247295D01*
X110144048Y-75247295D02*
X109839286Y-75247295D01*
X109839286Y-75247295D02*
X109839286Y-74447295D01*
X109839286Y-74447295D02*
X110105952Y-74447295D01*
X110105952Y-74447295D02*
X110182143Y-74485390D01*
X110182143Y-74485390D02*
X110220238Y-74523485D01*
X110220238Y-74523485D02*
X110258333Y-74599676D01*
X110258333Y-74599676D02*
X110258333Y-74675866D01*
X110258333Y-74675866D02*
X110220238Y-74752057D01*
X110220238Y-74752057D02*
X110182143Y-74790152D01*
X110182143Y-74790152D02*
X110105952Y-74828247D01*
X110105952Y-74828247D02*
X109839286Y-74828247D01*
X110639286Y-74447295D02*
X110639286Y-75094914D01*
X110639286Y-75094914D02*
X110677381Y-75171104D01*
X110677381Y-75171104D02*
X110715476Y-75209200D01*
X110715476Y-75209200D02*
X110791667Y-75247295D01*
X110791667Y-75247295D02*
X110944048Y-75247295D01*
X110944048Y-75247295D02*
X111020238Y-75209200D01*
X111020238Y-75209200D02*
X111058333Y-75171104D01*
X111058333Y-75171104D02*
X111096429Y-75094914D01*
X111096429Y-75094914D02*
X111096429Y-74447295D01*
X111439285Y-75209200D02*
X111553571Y-75247295D01*
X111553571Y-75247295D02*
X111744047Y-75247295D01*
X111744047Y-75247295D02*
X111820238Y-75209200D01*
X111820238Y-75209200D02*
X111858333Y-75171104D01*
X111858333Y-75171104D02*
X111896428Y-75094914D01*
X111896428Y-75094914D02*
X111896428Y-75018723D01*
X111896428Y-75018723D02*
X111858333Y-74942533D01*
X111858333Y-74942533D02*
X111820238Y-74904438D01*
X111820238Y-74904438D02*
X111744047Y-74866342D01*
X111744047Y-74866342D02*
X111591666Y-74828247D01*
X111591666Y-74828247D02*
X111515476Y-74790152D01*
X111515476Y-74790152D02*
X111477381Y-74752057D01*
X111477381Y-74752057D02*
X111439285Y-74675866D01*
X111439285Y-74675866D02*
X111439285Y-74599676D01*
X111439285Y-74599676D02*
X111477381Y-74523485D01*
X111477381Y-74523485D02*
X111515476Y-74485390D01*
X111515476Y-74485390D02*
X111591666Y-74447295D01*
X111591666Y-74447295D02*
X111782143Y-74447295D01*
X111782143Y-74447295D02*
X111896428Y-74485390D01*
X112201190Y-74523485D02*
X112239286Y-74485390D01*
X112239286Y-74485390D02*
X112315476Y-74447295D01*
X112315476Y-74447295D02*
X112505952Y-74447295D01*
X112505952Y-74447295D02*
X112582143Y-74485390D01*
X112582143Y-74485390D02*
X112620238Y-74523485D01*
X112620238Y-74523485D02*
X112658333Y-74599676D01*
X112658333Y-74599676D02*
X112658333Y-74675866D01*
X112658333Y-74675866D02*
X112620238Y-74790152D01*
X112620238Y-74790152D02*
X112163095Y-75247295D01*
X112163095Y-75247295D02*
X112658333Y-75247295D01*
X185699048Y-119191104D02*
X185660952Y-119229200D01*
X185660952Y-119229200D02*
X185546667Y-119267295D01*
X185546667Y-119267295D02*
X185470476Y-119267295D01*
X185470476Y-119267295D02*
X185356190Y-119229200D01*
X185356190Y-119229200D02*
X185280000Y-119153009D01*
X185280000Y-119153009D02*
X185241905Y-119076819D01*
X185241905Y-119076819D02*
X185203809Y-118924438D01*
X185203809Y-118924438D02*
X185203809Y-118810152D01*
X185203809Y-118810152D02*
X185241905Y-118657771D01*
X185241905Y-118657771D02*
X185280000Y-118581580D01*
X185280000Y-118581580D02*
X185356190Y-118505390D01*
X185356190Y-118505390D02*
X185470476Y-118467295D01*
X185470476Y-118467295D02*
X185546667Y-118467295D01*
X185546667Y-118467295D02*
X185660952Y-118505390D01*
X185660952Y-118505390D02*
X185699048Y-118543485D01*
X185851429Y-119343485D02*
X186460952Y-119343485D01*
X186537143Y-118467295D02*
X186803810Y-119267295D01*
X186803810Y-119267295D02*
X187070476Y-118467295D01*
X187794286Y-119191104D02*
X187756190Y-119229200D01*
X187756190Y-119229200D02*
X187641905Y-119267295D01*
X187641905Y-119267295D02*
X187565714Y-119267295D01*
X187565714Y-119267295D02*
X187451428Y-119229200D01*
X187451428Y-119229200D02*
X187375238Y-119153009D01*
X187375238Y-119153009D02*
X187337143Y-119076819D01*
X187337143Y-119076819D02*
X187299047Y-118924438D01*
X187299047Y-118924438D02*
X187299047Y-118810152D01*
X187299047Y-118810152D02*
X187337143Y-118657771D01*
X187337143Y-118657771D02*
X187375238Y-118581580D01*
X187375238Y-118581580D02*
X187451428Y-118505390D01*
X187451428Y-118505390D02*
X187565714Y-118467295D01*
X187565714Y-118467295D02*
X187641905Y-118467295D01*
X187641905Y-118467295D02*
X187756190Y-118505390D01*
X187756190Y-118505390D02*
X187794286Y-118543485D01*
X188137143Y-119267295D02*
X188137143Y-118467295D01*
X188137143Y-118467295D02*
X188441905Y-118467295D01*
X188441905Y-118467295D02*
X188518095Y-118505390D01*
X188518095Y-118505390D02*
X188556190Y-118543485D01*
X188556190Y-118543485D02*
X188594286Y-118619676D01*
X188594286Y-118619676D02*
X188594286Y-118733961D01*
X188594286Y-118733961D02*
X188556190Y-118810152D01*
X188556190Y-118810152D02*
X188518095Y-118848247D01*
X188518095Y-118848247D02*
X188441905Y-118886342D01*
X188441905Y-118886342D02*
X188137143Y-118886342D01*
X188860952Y-118467295D02*
X189356190Y-118467295D01*
X189356190Y-118467295D02*
X189089524Y-118772057D01*
X189089524Y-118772057D02*
X189203809Y-118772057D01*
X189203809Y-118772057D02*
X189280000Y-118810152D01*
X189280000Y-118810152D02*
X189318095Y-118848247D01*
X189318095Y-118848247D02*
X189356190Y-118924438D01*
X189356190Y-118924438D02*
X189356190Y-119114914D01*
X189356190Y-119114914D02*
X189318095Y-119191104D01*
X189318095Y-119191104D02*
X189280000Y-119229200D01*
X189280000Y-119229200D02*
X189203809Y-119267295D01*
X189203809Y-119267295D02*
X188975238Y-119267295D01*
X188975238Y-119267295D02*
X188899047Y-119229200D01*
X188899047Y-119229200D02*
X188860952Y-119191104D01*
X184232381Y-111311104D02*
X184194285Y-111349200D01*
X184194285Y-111349200D02*
X184080000Y-111387295D01*
X184080000Y-111387295D02*
X184003809Y-111387295D01*
X184003809Y-111387295D02*
X183889523Y-111349200D01*
X183889523Y-111349200D02*
X183813333Y-111273009D01*
X183813333Y-111273009D02*
X183775238Y-111196819D01*
X183775238Y-111196819D02*
X183737142Y-111044438D01*
X183737142Y-111044438D02*
X183737142Y-110930152D01*
X183737142Y-110930152D02*
X183775238Y-110777771D01*
X183775238Y-110777771D02*
X183813333Y-110701580D01*
X183813333Y-110701580D02*
X183889523Y-110625390D01*
X183889523Y-110625390D02*
X184003809Y-110587295D01*
X184003809Y-110587295D02*
X184080000Y-110587295D01*
X184080000Y-110587295D02*
X184194285Y-110625390D01*
X184194285Y-110625390D02*
X184232381Y-110663485D01*
X184384762Y-111463485D02*
X184994285Y-111463485D01*
X185451428Y-110968247D02*
X185565714Y-111006342D01*
X185565714Y-111006342D02*
X185603809Y-111044438D01*
X185603809Y-111044438D02*
X185641905Y-111120628D01*
X185641905Y-111120628D02*
X185641905Y-111234914D01*
X185641905Y-111234914D02*
X185603809Y-111311104D01*
X185603809Y-111311104D02*
X185565714Y-111349200D01*
X185565714Y-111349200D02*
X185489524Y-111387295D01*
X185489524Y-111387295D02*
X185184762Y-111387295D01*
X185184762Y-111387295D02*
X185184762Y-110587295D01*
X185184762Y-110587295D02*
X185451428Y-110587295D01*
X185451428Y-110587295D02*
X185527619Y-110625390D01*
X185527619Y-110625390D02*
X185565714Y-110663485D01*
X185565714Y-110663485D02*
X185603809Y-110739676D01*
X185603809Y-110739676D02*
X185603809Y-110815866D01*
X185603809Y-110815866D02*
X185565714Y-110892057D01*
X185565714Y-110892057D02*
X185527619Y-110930152D01*
X185527619Y-110930152D02*
X185451428Y-110968247D01*
X185451428Y-110968247D02*
X185184762Y-110968247D01*
X186441905Y-111387295D02*
X186175238Y-111006342D01*
X185984762Y-111387295D02*
X185984762Y-110587295D01*
X185984762Y-110587295D02*
X186289524Y-110587295D01*
X186289524Y-110587295D02*
X186365714Y-110625390D01*
X186365714Y-110625390D02*
X186403809Y-110663485D01*
X186403809Y-110663485D02*
X186441905Y-110739676D01*
X186441905Y-110739676D02*
X186441905Y-110853961D01*
X186441905Y-110853961D02*
X186403809Y-110930152D01*
X186403809Y-110930152D02*
X186365714Y-110968247D01*
X186365714Y-110968247D02*
X186289524Y-111006342D01*
X186289524Y-111006342D02*
X185984762Y-111006342D01*
X186746666Y-111158723D02*
X187127619Y-111158723D01*
X186670476Y-111387295D02*
X186937143Y-110587295D01*
X186937143Y-110587295D02*
X187203809Y-111387295D01*
X187280000Y-111463485D02*
X187889523Y-111463485D01*
X188346666Y-110968247D02*
X188080000Y-110968247D01*
X188080000Y-111387295D02*
X188080000Y-110587295D01*
X188080000Y-110587295D02*
X188460952Y-110587295D01*
X188765714Y-111387295D02*
X188765714Y-110587295D01*
X189527618Y-111387295D02*
X189146666Y-111387295D01*
X189146666Y-111387295D02*
X189146666Y-110587295D01*
X189679999Y-110587295D02*
X190137142Y-110587295D01*
X189908570Y-111387295D02*
X189908570Y-110587295D01*
X190327618Y-110587295D02*
X190822856Y-110587295D01*
X190822856Y-110587295D02*
X190556190Y-110892057D01*
X190556190Y-110892057D02*
X190670475Y-110892057D01*
X190670475Y-110892057D02*
X190746666Y-110930152D01*
X190746666Y-110930152D02*
X190784761Y-110968247D01*
X190784761Y-110968247D02*
X190822856Y-111044438D01*
X190822856Y-111044438D02*
X190822856Y-111234914D01*
X190822856Y-111234914D02*
X190784761Y-111311104D01*
X190784761Y-111311104D02*
X190746666Y-111349200D01*
X190746666Y-111349200D02*
X190670475Y-111387295D01*
X190670475Y-111387295D02*
X190441904Y-111387295D01*
X190441904Y-111387295D02*
X190365713Y-111349200D01*
X190365713Y-111349200D02*
X190327618Y-111311104D01*
X184175238Y-113281104D02*
X184137142Y-113319200D01*
X184137142Y-113319200D02*
X184022857Y-113357295D01*
X184022857Y-113357295D02*
X183946666Y-113357295D01*
X183946666Y-113357295D02*
X183832380Y-113319200D01*
X183832380Y-113319200D02*
X183756190Y-113243009D01*
X183756190Y-113243009D02*
X183718095Y-113166819D01*
X183718095Y-113166819D02*
X183679999Y-113014438D01*
X183679999Y-113014438D02*
X183679999Y-112900152D01*
X183679999Y-112900152D02*
X183718095Y-112747771D01*
X183718095Y-112747771D02*
X183756190Y-112671580D01*
X183756190Y-112671580D02*
X183832380Y-112595390D01*
X183832380Y-112595390D02*
X183946666Y-112557295D01*
X183946666Y-112557295D02*
X184022857Y-112557295D01*
X184022857Y-112557295D02*
X184137142Y-112595390D01*
X184137142Y-112595390D02*
X184175238Y-112633485D01*
X184327619Y-113433485D02*
X184937142Y-113433485D01*
X185394285Y-112938247D02*
X185508571Y-112976342D01*
X185508571Y-112976342D02*
X185546666Y-113014438D01*
X185546666Y-113014438D02*
X185584762Y-113090628D01*
X185584762Y-113090628D02*
X185584762Y-113204914D01*
X185584762Y-113204914D02*
X185546666Y-113281104D01*
X185546666Y-113281104D02*
X185508571Y-113319200D01*
X185508571Y-113319200D02*
X185432381Y-113357295D01*
X185432381Y-113357295D02*
X185127619Y-113357295D01*
X185127619Y-113357295D02*
X185127619Y-112557295D01*
X185127619Y-112557295D02*
X185394285Y-112557295D01*
X185394285Y-112557295D02*
X185470476Y-112595390D01*
X185470476Y-112595390D02*
X185508571Y-112633485D01*
X185508571Y-112633485D02*
X185546666Y-112709676D01*
X185546666Y-112709676D02*
X185546666Y-112785866D01*
X185546666Y-112785866D02*
X185508571Y-112862057D01*
X185508571Y-112862057D02*
X185470476Y-112900152D01*
X185470476Y-112900152D02*
X185394285Y-112938247D01*
X185394285Y-112938247D02*
X185127619Y-112938247D01*
X186384762Y-113357295D02*
X186118095Y-112976342D01*
X185927619Y-113357295D02*
X185927619Y-112557295D01*
X185927619Y-112557295D02*
X186232381Y-112557295D01*
X186232381Y-112557295D02*
X186308571Y-112595390D01*
X186308571Y-112595390D02*
X186346666Y-112633485D01*
X186346666Y-112633485D02*
X186384762Y-112709676D01*
X186384762Y-112709676D02*
X186384762Y-112823961D01*
X186384762Y-112823961D02*
X186346666Y-112900152D01*
X186346666Y-112900152D02*
X186308571Y-112938247D01*
X186308571Y-112938247D02*
X186232381Y-112976342D01*
X186232381Y-112976342D02*
X185927619Y-112976342D01*
X186994285Y-112938247D02*
X187108571Y-112976342D01*
X187108571Y-112976342D02*
X187146666Y-113014438D01*
X187146666Y-113014438D02*
X187184762Y-113090628D01*
X187184762Y-113090628D02*
X187184762Y-113204914D01*
X187184762Y-113204914D02*
X187146666Y-113281104D01*
X187146666Y-113281104D02*
X187108571Y-113319200D01*
X187108571Y-113319200D02*
X187032381Y-113357295D01*
X187032381Y-113357295D02*
X186727619Y-113357295D01*
X186727619Y-113357295D02*
X186727619Y-112557295D01*
X186727619Y-112557295D02*
X186994285Y-112557295D01*
X186994285Y-112557295D02*
X187070476Y-112595390D01*
X187070476Y-112595390D02*
X187108571Y-112633485D01*
X187108571Y-112633485D02*
X187146666Y-112709676D01*
X187146666Y-112709676D02*
X187146666Y-112785866D01*
X187146666Y-112785866D02*
X187108571Y-112862057D01*
X187108571Y-112862057D02*
X187070476Y-112900152D01*
X187070476Y-112900152D02*
X186994285Y-112938247D01*
X186994285Y-112938247D02*
X186727619Y-112938247D01*
X187337143Y-113433485D02*
X187946666Y-113433485D01*
X188403809Y-112938247D02*
X188137143Y-112938247D01*
X188137143Y-113357295D02*
X188137143Y-112557295D01*
X188137143Y-112557295D02*
X188518095Y-112557295D01*
X188822857Y-113357295D02*
X188822857Y-112557295D01*
X189584761Y-113357295D02*
X189203809Y-113357295D01*
X189203809Y-113357295D02*
X189203809Y-112557295D01*
X189737142Y-112557295D02*
X190194285Y-112557295D01*
X189965713Y-113357295D02*
X189965713Y-112557295D01*
X190384761Y-112557295D02*
X190879999Y-112557295D01*
X190879999Y-112557295D02*
X190613333Y-112862057D01*
X190613333Y-112862057D02*
X190727618Y-112862057D01*
X190727618Y-112862057D02*
X190803809Y-112900152D01*
X190803809Y-112900152D02*
X190841904Y-112938247D01*
X190841904Y-112938247D02*
X190879999Y-113014438D01*
X190879999Y-113014438D02*
X190879999Y-113204914D01*
X190879999Y-113204914D02*
X190841904Y-113281104D01*
X190841904Y-113281104D02*
X190803809Y-113319200D01*
X190803809Y-113319200D02*
X190727618Y-113357295D01*
X190727618Y-113357295D02*
X190499047Y-113357295D01*
X190499047Y-113357295D02*
X190422856Y-113319200D01*
X190422856Y-113319200D02*
X190384761Y-113281104D01*
X192561905Y-67886104D02*
X192523809Y-67924200D01*
X192523809Y-67924200D02*
X192409524Y-67962295D01*
X192409524Y-67962295D02*
X192333333Y-67962295D01*
X192333333Y-67962295D02*
X192219047Y-67924200D01*
X192219047Y-67924200D02*
X192142857Y-67848009D01*
X192142857Y-67848009D02*
X192104762Y-67771819D01*
X192104762Y-67771819D02*
X192066666Y-67619438D01*
X192066666Y-67619438D02*
X192066666Y-67505152D01*
X192066666Y-67505152D02*
X192104762Y-67352771D01*
X192104762Y-67352771D02*
X192142857Y-67276580D01*
X192142857Y-67276580D02*
X192219047Y-67200390D01*
X192219047Y-67200390D02*
X192333333Y-67162295D01*
X192333333Y-67162295D02*
X192409524Y-67162295D01*
X192409524Y-67162295D02*
X192523809Y-67200390D01*
X192523809Y-67200390D02*
X192561905Y-67238485D01*
X192714286Y-68038485D02*
X193323809Y-68038485D01*
X193971429Y-67886104D02*
X193933333Y-67924200D01*
X193933333Y-67924200D02*
X193819048Y-67962295D01*
X193819048Y-67962295D02*
X193742857Y-67962295D01*
X193742857Y-67962295D02*
X193628571Y-67924200D01*
X193628571Y-67924200D02*
X193552381Y-67848009D01*
X193552381Y-67848009D02*
X193514286Y-67771819D01*
X193514286Y-67771819D02*
X193476190Y-67619438D01*
X193476190Y-67619438D02*
X193476190Y-67505152D01*
X193476190Y-67505152D02*
X193514286Y-67352771D01*
X193514286Y-67352771D02*
X193552381Y-67276580D01*
X193552381Y-67276580D02*
X193628571Y-67200390D01*
X193628571Y-67200390D02*
X193742857Y-67162295D01*
X193742857Y-67162295D02*
X193819048Y-67162295D01*
X193819048Y-67162295D02*
X193933333Y-67200390D01*
X193933333Y-67200390D02*
X193971429Y-67238485D01*
X194314286Y-67962295D02*
X194314286Y-67162295D01*
X194314286Y-67162295D02*
X194619048Y-67162295D01*
X194619048Y-67162295D02*
X194695238Y-67200390D01*
X194695238Y-67200390D02*
X194733333Y-67238485D01*
X194733333Y-67238485D02*
X194771429Y-67314676D01*
X194771429Y-67314676D02*
X194771429Y-67428961D01*
X194771429Y-67428961D02*
X194733333Y-67505152D01*
X194733333Y-67505152D02*
X194695238Y-67543247D01*
X194695238Y-67543247D02*
X194619048Y-67581342D01*
X194619048Y-67581342D02*
X194314286Y-67581342D01*
X195076190Y-67238485D02*
X195114286Y-67200390D01*
X195114286Y-67200390D02*
X195190476Y-67162295D01*
X195190476Y-67162295D02*
X195380952Y-67162295D01*
X195380952Y-67162295D02*
X195457143Y-67200390D01*
X195457143Y-67200390D02*
X195495238Y-67238485D01*
X195495238Y-67238485D02*
X195533333Y-67314676D01*
X195533333Y-67314676D02*
X195533333Y-67390866D01*
X195533333Y-67390866D02*
X195495238Y-67505152D01*
X195495238Y-67505152D02*
X195038095Y-67962295D01*
X195038095Y-67962295D02*
X195533333Y-67962295D01*
X186041905Y-115251104D02*
X186003809Y-115289200D01*
X186003809Y-115289200D02*
X185889524Y-115327295D01*
X185889524Y-115327295D02*
X185813333Y-115327295D01*
X185813333Y-115327295D02*
X185699047Y-115289200D01*
X185699047Y-115289200D02*
X185622857Y-115213009D01*
X185622857Y-115213009D02*
X185584762Y-115136819D01*
X185584762Y-115136819D02*
X185546666Y-114984438D01*
X185546666Y-114984438D02*
X185546666Y-114870152D01*
X185546666Y-114870152D02*
X185584762Y-114717771D01*
X185584762Y-114717771D02*
X185622857Y-114641580D01*
X185622857Y-114641580D02*
X185699047Y-114565390D01*
X185699047Y-114565390D02*
X185813333Y-114527295D01*
X185813333Y-114527295D02*
X185889524Y-114527295D01*
X185889524Y-114527295D02*
X186003809Y-114565390D01*
X186003809Y-114565390D02*
X186041905Y-114603485D01*
X186194286Y-115403485D02*
X186803809Y-115403485D01*
X187451429Y-115251104D02*
X187413333Y-115289200D01*
X187413333Y-115289200D02*
X187299048Y-115327295D01*
X187299048Y-115327295D02*
X187222857Y-115327295D01*
X187222857Y-115327295D02*
X187108571Y-115289200D01*
X187108571Y-115289200D02*
X187032381Y-115213009D01*
X187032381Y-115213009D02*
X186994286Y-115136819D01*
X186994286Y-115136819D02*
X186956190Y-114984438D01*
X186956190Y-114984438D02*
X186956190Y-114870152D01*
X186956190Y-114870152D02*
X186994286Y-114717771D01*
X186994286Y-114717771D02*
X187032381Y-114641580D01*
X187032381Y-114641580D02*
X187108571Y-114565390D01*
X187108571Y-114565390D02*
X187222857Y-114527295D01*
X187222857Y-114527295D02*
X187299048Y-114527295D01*
X187299048Y-114527295D02*
X187413333Y-114565390D01*
X187413333Y-114565390D02*
X187451429Y-114603485D01*
X187794286Y-115327295D02*
X187794286Y-114527295D01*
X187794286Y-114527295D02*
X188099048Y-114527295D01*
X188099048Y-114527295D02*
X188175238Y-114565390D01*
X188175238Y-114565390D02*
X188213333Y-114603485D01*
X188213333Y-114603485D02*
X188251429Y-114679676D01*
X188251429Y-114679676D02*
X188251429Y-114793961D01*
X188251429Y-114793961D02*
X188213333Y-114870152D01*
X188213333Y-114870152D02*
X188175238Y-114908247D01*
X188175238Y-114908247D02*
X188099048Y-114946342D01*
X188099048Y-114946342D02*
X187794286Y-114946342D01*
X188518095Y-114527295D02*
X189013333Y-114527295D01*
X189013333Y-114527295D02*
X188746667Y-114832057D01*
X188746667Y-114832057D02*
X188860952Y-114832057D01*
X188860952Y-114832057D02*
X188937143Y-114870152D01*
X188937143Y-114870152D02*
X188975238Y-114908247D01*
X188975238Y-114908247D02*
X189013333Y-114984438D01*
X189013333Y-114984438D02*
X189013333Y-115174914D01*
X189013333Y-115174914D02*
X188975238Y-115251104D01*
X188975238Y-115251104D02*
X188937143Y-115289200D01*
X188937143Y-115289200D02*
X188860952Y-115327295D01*
X188860952Y-115327295D02*
X188632381Y-115327295D01*
X188632381Y-115327295D02*
X188556190Y-115289200D01*
X188556190Y-115289200D02*
X188518095Y-115251104D01*
X109477380Y-87967295D02*
X109477380Y-88538723D01*
X109477380Y-88538723D02*
X109439285Y-88653009D01*
X109439285Y-88653009D02*
X109363094Y-88729200D01*
X109363094Y-88729200D02*
X109248809Y-88767295D01*
X109248809Y-88767295D02*
X109172618Y-88767295D01*
X109858333Y-88767295D02*
X109858333Y-87967295D01*
X109858333Y-87967295D02*
X110124999Y-88538723D01*
X110124999Y-88538723D02*
X110391666Y-87967295D01*
X110391666Y-87967295D02*
X110391666Y-88767295D01*
X110925000Y-87967295D02*
X111077381Y-87967295D01*
X111077381Y-87967295D02*
X111153571Y-88005390D01*
X111153571Y-88005390D02*
X111229762Y-88081580D01*
X111229762Y-88081580D02*
X111267857Y-88233961D01*
X111267857Y-88233961D02*
X111267857Y-88500628D01*
X111267857Y-88500628D02*
X111229762Y-88653009D01*
X111229762Y-88653009D02*
X111153571Y-88729200D01*
X111153571Y-88729200D02*
X111077381Y-88767295D01*
X111077381Y-88767295D02*
X110925000Y-88767295D01*
X110925000Y-88767295D02*
X110848809Y-88729200D01*
X110848809Y-88729200D02*
X110772619Y-88653009D01*
X110772619Y-88653009D02*
X110734523Y-88500628D01*
X110734523Y-88500628D02*
X110734523Y-88233961D01*
X110734523Y-88233961D02*
X110772619Y-88081580D01*
X110772619Y-88081580D02*
X110848809Y-88005390D01*
X110848809Y-88005390D02*
X110925000Y-87967295D01*
X111496428Y-87967295D02*
X111953571Y-87967295D01*
X111724999Y-88767295D02*
X111724999Y-87967295D01*
X112639285Y-88767295D02*
X112182142Y-88767295D01*
X112410714Y-88767295D02*
X112410714Y-87967295D01*
X112410714Y-87967295D02*
X112334523Y-88081580D01*
X112334523Y-88081580D02*
X112258333Y-88157771D01*
X112258333Y-88157771D02*
X112182142Y-88195866D01*
X109477380Y-101527295D02*
X109477380Y-102098723D01*
X109477380Y-102098723D02*
X109439285Y-102213009D01*
X109439285Y-102213009D02*
X109363094Y-102289200D01*
X109363094Y-102289200D02*
X109248809Y-102327295D01*
X109248809Y-102327295D02*
X109172618Y-102327295D01*
X109858333Y-102327295D02*
X109858333Y-101527295D01*
X109858333Y-101527295D02*
X110124999Y-102098723D01*
X110124999Y-102098723D02*
X110391666Y-101527295D01*
X110391666Y-101527295D02*
X110391666Y-102327295D01*
X110925000Y-101527295D02*
X111077381Y-101527295D01*
X111077381Y-101527295D02*
X111153571Y-101565390D01*
X111153571Y-101565390D02*
X111229762Y-101641580D01*
X111229762Y-101641580D02*
X111267857Y-101793961D01*
X111267857Y-101793961D02*
X111267857Y-102060628D01*
X111267857Y-102060628D02*
X111229762Y-102213009D01*
X111229762Y-102213009D02*
X111153571Y-102289200D01*
X111153571Y-102289200D02*
X111077381Y-102327295D01*
X111077381Y-102327295D02*
X110925000Y-102327295D01*
X110925000Y-102327295D02*
X110848809Y-102289200D01*
X110848809Y-102289200D02*
X110772619Y-102213009D01*
X110772619Y-102213009D02*
X110734523Y-102060628D01*
X110734523Y-102060628D02*
X110734523Y-101793961D01*
X110734523Y-101793961D02*
X110772619Y-101641580D01*
X110772619Y-101641580D02*
X110848809Y-101565390D01*
X110848809Y-101565390D02*
X110925000Y-101527295D01*
X111496428Y-101527295D02*
X111953571Y-101527295D01*
X111724999Y-102327295D02*
X111724999Y-101527295D01*
X112182142Y-101603485D02*
X112220238Y-101565390D01*
X112220238Y-101565390D02*
X112296428Y-101527295D01*
X112296428Y-101527295D02*
X112486904Y-101527295D01*
X112486904Y-101527295D02*
X112563095Y-101565390D01*
X112563095Y-101565390D02*
X112601190Y-101603485D01*
X112601190Y-101603485D02*
X112639285Y-101679676D01*
X112639285Y-101679676D02*
X112639285Y-101755866D01*
X112639285Y-101755866D02*
X112601190Y-101870152D01*
X112601190Y-101870152D02*
X112144047Y-102327295D01*
X112144047Y-102327295D02*
X112639285Y-102327295D01*
X186118095Y-121161104D02*
X186079999Y-121199200D01*
X186079999Y-121199200D02*
X185965714Y-121237295D01*
X185965714Y-121237295D02*
X185889523Y-121237295D01*
X185889523Y-121237295D02*
X185775237Y-121199200D01*
X185775237Y-121199200D02*
X185699047Y-121123009D01*
X185699047Y-121123009D02*
X185660952Y-121046819D01*
X185660952Y-121046819D02*
X185622856Y-120894438D01*
X185622856Y-120894438D02*
X185622856Y-120780152D01*
X185622856Y-120780152D02*
X185660952Y-120627771D01*
X185660952Y-120627771D02*
X185699047Y-120551580D01*
X185699047Y-120551580D02*
X185775237Y-120475390D01*
X185775237Y-120475390D02*
X185889523Y-120437295D01*
X185889523Y-120437295D02*
X185965714Y-120437295D01*
X185965714Y-120437295D02*
X186079999Y-120475390D01*
X186079999Y-120475390D02*
X186118095Y-120513485D01*
X186270476Y-121313485D02*
X186879999Y-121313485D01*
X186956190Y-120437295D02*
X187222857Y-121237295D01*
X187222857Y-121237295D02*
X187489523Y-120437295D01*
X187718094Y-121199200D02*
X187832380Y-121237295D01*
X187832380Y-121237295D02*
X188022856Y-121237295D01*
X188022856Y-121237295D02*
X188099047Y-121199200D01*
X188099047Y-121199200D02*
X188137142Y-121161104D01*
X188137142Y-121161104D02*
X188175237Y-121084914D01*
X188175237Y-121084914D02*
X188175237Y-121008723D01*
X188175237Y-121008723D02*
X188137142Y-120932533D01*
X188137142Y-120932533D02*
X188099047Y-120894438D01*
X188099047Y-120894438D02*
X188022856Y-120856342D01*
X188022856Y-120856342D02*
X187870475Y-120818247D01*
X187870475Y-120818247D02*
X187794285Y-120780152D01*
X187794285Y-120780152D02*
X187756190Y-120742057D01*
X187756190Y-120742057D02*
X187718094Y-120665866D01*
X187718094Y-120665866D02*
X187718094Y-120589676D01*
X187718094Y-120589676D02*
X187756190Y-120513485D01*
X187756190Y-120513485D02*
X187794285Y-120475390D01*
X187794285Y-120475390D02*
X187870475Y-120437295D01*
X187870475Y-120437295D02*
X188060952Y-120437295D01*
X188060952Y-120437295D02*
X188175237Y-120475390D01*
X188441904Y-120437295D02*
X188937142Y-120437295D01*
X188937142Y-120437295D02*
X188670476Y-120742057D01*
X188670476Y-120742057D02*
X188784761Y-120742057D01*
X188784761Y-120742057D02*
X188860952Y-120780152D01*
X188860952Y-120780152D02*
X188899047Y-120818247D01*
X188899047Y-120818247D02*
X188937142Y-120894438D01*
X188937142Y-120894438D02*
X188937142Y-121084914D01*
X188937142Y-121084914D02*
X188899047Y-121161104D01*
X188899047Y-121161104D02*
X188860952Y-121199200D01*
X188860952Y-121199200D02*
X188784761Y-121237295D01*
X188784761Y-121237295D02*
X188556190Y-121237295D01*
X188556190Y-121237295D02*
X188479999Y-121199200D01*
X188479999Y-121199200D02*
X188441904Y-121161104D01*
X186155476Y-65967295D02*
X186155476Y-66614914D01*
X186155476Y-66614914D02*
X186193571Y-66691104D01*
X186193571Y-66691104D02*
X186231666Y-66729200D01*
X186231666Y-66729200D02*
X186307857Y-66767295D01*
X186307857Y-66767295D02*
X186460238Y-66767295D01*
X186460238Y-66767295D02*
X186536428Y-66729200D01*
X186536428Y-66729200D02*
X186574523Y-66691104D01*
X186574523Y-66691104D02*
X186612619Y-66614914D01*
X186612619Y-66614914D02*
X186612619Y-65967295D01*
X186955475Y-66043485D02*
X186993571Y-66005390D01*
X186993571Y-66005390D02*
X187069761Y-65967295D01*
X187069761Y-65967295D02*
X187260237Y-65967295D01*
X187260237Y-65967295D02*
X187336428Y-66005390D01*
X187336428Y-66005390D02*
X187374523Y-66043485D01*
X187374523Y-66043485D02*
X187412618Y-66119676D01*
X187412618Y-66119676D02*
X187412618Y-66195866D01*
X187412618Y-66195866D02*
X187374523Y-66310152D01*
X187374523Y-66310152D02*
X186917380Y-66767295D01*
X186917380Y-66767295D02*
X187412618Y-66767295D01*
X143315476Y-66502295D02*
X143315476Y-67149914D01*
X143315476Y-67149914D02*
X143353571Y-67226104D01*
X143353571Y-67226104D02*
X143391666Y-67264200D01*
X143391666Y-67264200D02*
X143467857Y-67302295D01*
X143467857Y-67302295D02*
X143620238Y-67302295D01*
X143620238Y-67302295D02*
X143696428Y-67264200D01*
X143696428Y-67264200D02*
X143734523Y-67226104D01*
X143734523Y-67226104D02*
X143772619Y-67149914D01*
X143772619Y-67149914D02*
X143772619Y-66502295D01*
X144191666Y-67302295D02*
X144344047Y-67302295D01*
X144344047Y-67302295D02*
X144420237Y-67264200D01*
X144420237Y-67264200D02*
X144458333Y-67226104D01*
X144458333Y-67226104D02*
X144534523Y-67111819D01*
X144534523Y-67111819D02*
X144572618Y-66959438D01*
X144572618Y-66959438D02*
X144572618Y-66654676D01*
X144572618Y-66654676D02*
X144534523Y-66578485D01*
X144534523Y-66578485D02*
X144496428Y-66540390D01*
X144496428Y-66540390D02*
X144420237Y-66502295D01*
X144420237Y-66502295D02*
X144267856Y-66502295D01*
X144267856Y-66502295D02*
X144191666Y-66540390D01*
X144191666Y-66540390D02*
X144153571Y-66578485D01*
X144153571Y-66578485D02*
X144115475Y-66654676D01*
X144115475Y-66654676D02*
X144115475Y-66845152D01*
X144115475Y-66845152D02*
X144153571Y-66921342D01*
X144153571Y-66921342D02*
X144191666Y-66959438D01*
X144191666Y-66959438D02*
X144267856Y-66997533D01*
X144267856Y-66997533D02*
X144420237Y-66997533D01*
X144420237Y-66997533D02*
X144496428Y-66959438D01*
X144496428Y-66959438D02*
X144534523Y-66921342D01*
X144534523Y-66921342D02*
X144572618Y-66845152D01*
X195695238Y-70886104D02*
X195657142Y-70924200D01*
X195657142Y-70924200D02*
X195542857Y-70962295D01*
X195542857Y-70962295D02*
X195466666Y-70962295D01*
X195466666Y-70962295D02*
X195352380Y-70924200D01*
X195352380Y-70924200D02*
X195276190Y-70848009D01*
X195276190Y-70848009D02*
X195238095Y-70771819D01*
X195238095Y-70771819D02*
X195199999Y-70619438D01*
X195199999Y-70619438D02*
X195199999Y-70505152D01*
X195199999Y-70505152D02*
X195238095Y-70352771D01*
X195238095Y-70352771D02*
X195276190Y-70276580D01*
X195276190Y-70276580D02*
X195352380Y-70200390D01*
X195352380Y-70200390D02*
X195466666Y-70162295D01*
X195466666Y-70162295D02*
X195542857Y-70162295D01*
X195542857Y-70162295D02*
X195657142Y-70200390D01*
X195657142Y-70200390D02*
X195695238Y-70238485D01*
X195847619Y-71038485D02*
X196457142Y-71038485D01*
X197028571Y-70162295D02*
X196647619Y-70162295D01*
X196647619Y-70162295D02*
X196609523Y-70543247D01*
X196609523Y-70543247D02*
X196647619Y-70505152D01*
X196647619Y-70505152D02*
X196723809Y-70467057D01*
X196723809Y-70467057D02*
X196914285Y-70467057D01*
X196914285Y-70467057D02*
X196990476Y-70505152D01*
X196990476Y-70505152D02*
X197028571Y-70543247D01*
X197028571Y-70543247D02*
X197066666Y-70619438D01*
X197066666Y-70619438D02*
X197066666Y-70809914D01*
X197066666Y-70809914D02*
X197028571Y-70886104D01*
X197028571Y-70886104D02*
X196990476Y-70924200D01*
X196990476Y-70924200D02*
X196914285Y-70962295D01*
X196914285Y-70962295D02*
X196723809Y-70962295D01*
X196723809Y-70962295D02*
X196647619Y-70924200D01*
X196647619Y-70924200D02*
X196609523Y-70886104D01*
X197295238Y-70162295D02*
X197561905Y-70962295D01*
X197561905Y-70962295D02*
X197828571Y-70162295D01*
X198247619Y-70162295D02*
X198400000Y-70162295D01*
X198400000Y-70162295D02*
X198476190Y-70200390D01*
X198476190Y-70200390D02*
X198552381Y-70276580D01*
X198552381Y-70276580D02*
X198590476Y-70428961D01*
X198590476Y-70428961D02*
X198590476Y-70695628D01*
X198590476Y-70695628D02*
X198552381Y-70848009D01*
X198552381Y-70848009D02*
X198476190Y-70924200D01*
X198476190Y-70924200D02*
X198400000Y-70962295D01*
X198400000Y-70962295D02*
X198247619Y-70962295D01*
X198247619Y-70962295D02*
X198171428Y-70924200D01*
X198171428Y-70924200D02*
X198095238Y-70848009D01*
X198095238Y-70848009D02*
X198057142Y-70695628D01*
X198057142Y-70695628D02*
X198057142Y-70428961D01*
X198057142Y-70428961D02*
X198095238Y-70276580D01*
X198095238Y-70276580D02*
X198171428Y-70200390D01*
X198171428Y-70200390D02*
X198247619Y-70162295D01*
X198933333Y-70162295D02*
X198933333Y-70809914D01*
X198933333Y-70809914D02*
X198971428Y-70886104D01*
X198971428Y-70886104D02*
X199009523Y-70924200D01*
X199009523Y-70924200D02*
X199085714Y-70962295D01*
X199085714Y-70962295D02*
X199238095Y-70962295D01*
X199238095Y-70962295D02*
X199314285Y-70924200D01*
X199314285Y-70924200D02*
X199352380Y-70886104D01*
X199352380Y-70886104D02*
X199390476Y-70809914D01*
X199390476Y-70809914D02*
X199390476Y-70162295D01*
X199657142Y-70162295D02*
X200114285Y-70162295D01*
X199885713Y-70962295D02*
X199885713Y-70162295D01*
X200342856Y-70238485D02*
X200380952Y-70200390D01*
X200380952Y-70200390D02*
X200457142Y-70162295D01*
X200457142Y-70162295D02*
X200647618Y-70162295D01*
X200647618Y-70162295D02*
X200723809Y-70200390D01*
X200723809Y-70200390D02*
X200761904Y-70238485D01*
X200761904Y-70238485D02*
X200799999Y-70314676D01*
X200799999Y-70314676D02*
X200799999Y-70390866D01*
X200799999Y-70390866D02*
X200761904Y-70505152D01*
X200761904Y-70505152D02*
X200304761Y-70962295D01*
X200304761Y-70962295D02*
X200799999Y-70962295D01*
X136821667Y-61611104D02*
X136783571Y-61649200D01*
X136783571Y-61649200D02*
X136669286Y-61687295D01*
X136669286Y-61687295D02*
X136593095Y-61687295D01*
X136593095Y-61687295D02*
X136478809Y-61649200D01*
X136478809Y-61649200D02*
X136402619Y-61573009D01*
X136402619Y-61573009D02*
X136364524Y-61496819D01*
X136364524Y-61496819D02*
X136326428Y-61344438D01*
X136326428Y-61344438D02*
X136326428Y-61230152D01*
X136326428Y-61230152D02*
X136364524Y-61077771D01*
X136364524Y-61077771D02*
X136402619Y-61001580D01*
X136402619Y-61001580D02*
X136478809Y-60925390D01*
X136478809Y-60925390D02*
X136593095Y-60887295D01*
X136593095Y-60887295D02*
X136669286Y-60887295D01*
X136669286Y-60887295D02*
X136783571Y-60925390D01*
X136783571Y-60925390D02*
X136821667Y-60963485D01*
X137088333Y-60887295D02*
X137583571Y-60887295D01*
X137583571Y-60887295D02*
X137316905Y-61192057D01*
X137316905Y-61192057D02*
X137431190Y-61192057D01*
X137431190Y-61192057D02*
X137507381Y-61230152D01*
X137507381Y-61230152D02*
X137545476Y-61268247D01*
X137545476Y-61268247D02*
X137583571Y-61344438D01*
X137583571Y-61344438D02*
X137583571Y-61534914D01*
X137583571Y-61534914D02*
X137545476Y-61611104D01*
X137545476Y-61611104D02*
X137507381Y-61649200D01*
X137507381Y-61649200D02*
X137431190Y-61687295D01*
X137431190Y-61687295D02*
X137202619Y-61687295D01*
X137202619Y-61687295D02*
X137126428Y-61649200D01*
X137126428Y-61649200D02*
X137088333Y-61611104D01*
X182125714Y-119807295D02*
X181859047Y-119426342D01*
X181668571Y-119807295D02*
X181668571Y-119007295D01*
X181668571Y-119007295D02*
X181973333Y-119007295D01*
X181973333Y-119007295D02*
X182049523Y-119045390D01*
X182049523Y-119045390D02*
X182087618Y-119083485D01*
X182087618Y-119083485D02*
X182125714Y-119159676D01*
X182125714Y-119159676D02*
X182125714Y-119273961D01*
X182125714Y-119273961D02*
X182087618Y-119350152D01*
X182087618Y-119350152D02*
X182049523Y-119388247D01*
X182049523Y-119388247D02*
X181973333Y-119426342D01*
X181973333Y-119426342D02*
X181668571Y-119426342D01*
X182430475Y-119769200D02*
X182544761Y-119807295D01*
X182544761Y-119807295D02*
X182735237Y-119807295D01*
X182735237Y-119807295D02*
X182811428Y-119769200D01*
X182811428Y-119769200D02*
X182849523Y-119731104D01*
X182849523Y-119731104D02*
X182887618Y-119654914D01*
X182887618Y-119654914D02*
X182887618Y-119578723D01*
X182887618Y-119578723D02*
X182849523Y-119502533D01*
X182849523Y-119502533D02*
X182811428Y-119464438D01*
X182811428Y-119464438D02*
X182735237Y-119426342D01*
X182735237Y-119426342D02*
X182582856Y-119388247D01*
X182582856Y-119388247D02*
X182506666Y-119350152D01*
X182506666Y-119350152D02*
X182468571Y-119312057D01*
X182468571Y-119312057D02*
X182430475Y-119235866D01*
X182430475Y-119235866D02*
X182430475Y-119159676D01*
X182430475Y-119159676D02*
X182468571Y-119083485D01*
X182468571Y-119083485D02*
X182506666Y-119045390D01*
X182506666Y-119045390D02*
X182582856Y-119007295D01*
X182582856Y-119007295D02*
X182773333Y-119007295D01*
X182773333Y-119007295D02*
X182887618Y-119045390D01*
X183497142Y-119388247D02*
X183611428Y-119426342D01*
X183611428Y-119426342D02*
X183649523Y-119464438D01*
X183649523Y-119464438D02*
X183687619Y-119540628D01*
X183687619Y-119540628D02*
X183687619Y-119654914D01*
X183687619Y-119654914D02*
X183649523Y-119731104D01*
X183649523Y-119731104D02*
X183611428Y-119769200D01*
X183611428Y-119769200D02*
X183535238Y-119807295D01*
X183535238Y-119807295D02*
X183230476Y-119807295D01*
X183230476Y-119807295D02*
X183230476Y-119007295D01*
X183230476Y-119007295D02*
X183497142Y-119007295D01*
X183497142Y-119007295D02*
X183573333Y-119045390D01*
X183573333Y-119045390D02*
X183611428Y-119083485D01*
X183611428Y-119083485D02*
X183649523Y-119159676D01*
X183649523Y-119159676D02*
X183649523Y-119235866D01*
X183649523Y-119235866D02*
X183611428Y-119312057D01*
X183611428Y-119312057D02*
X183573333Y-119350152D01*
X183573333Y-119350152D02*
X183497142Y-119388247D01*
X183497142Y-119388247D02*
X183230476Y-119388247D01*
X183954285Y-119007295D02*
X184449523Y-119007295D01*
X184449523Y-119007295D02*
X184182857Y-119312057D01*
X184182857Y-119312057D02*
X184297142Y-119312057D01*
X184297142Y-119312057D02*
X184373333Y-119350152D01*
X184373333Y-119350152D02*
X184411428Y-119388247D01*
X184411428Y-119388247D02*
X184449523Y-119464438D01*
X184449523Y-119464438D02*
X184449523Y-119654914D01*
X184449523Y-119654914D02*
X184411428Y-119731104D01*
X184411428Y-119731104D02*
X184373333Y-119769200D01*
X184373333Y-119769200D02*
X184297142Y-119807295D01*
X184297142Y-119807295D02*
X184068571Y-119807295D01*
X184068571Y-119807295D02*
X183992380Y-119769200D01*
X183992380Y-119769200D02*
X183954285Y-119731104D01*
X192135476Y-110587295D02*
X192135476Y-111234914D01*
X192135476Y-111234914D02*
X192173571Y-111311104D01*
X192173571Y-111311104D02*
X192211666Y-111349200D01*
X192211666Y-111349200D02*
X192287857Y-111387295D01*
X192287857Y-111387295D02*
X192440238Y-111387295D01*
X192440238Y-111387295D02*
X192516428Y-111349200D01*
X192516428Y-111349200D02*
X192554523Y-111311104D01*
X192554523Y-111311104D02*
X192592619Y-111234914D01*
X192592619Y-111234914D02*
X192592619Y-110587295D01*
X192897380Y-110587295D02*
X193392618Y-110587295D01*
X193392618Y-110587295D02*
X193125952Y-110892057D01*
X193125952Y-110892057D02*
X193240237Y-110892057D01*
X193240237Y-110892057D02*
X193316428Y-110930152D01*
X193316428Y-110930152D02*
X193354523Y-110968247D01*
X193354523Y-110968247D02*
X193392618Y-111044438D01*
X193392618Y-111044438D02*
X193392618Y-111234914D01*
X193392618Y-111234914D02*
X193354523Y-111311104D01*
X193354523Y-111311104D02*
X193316428Y-111349200D01*
X193316428Y-111349200D02*
X193240237Y-111387295D01*
X193240237Y-111387295D02*
X193011666Y-111387295D01*
X193011666Y-111387295D02*
X192935475Y-111349200D01*
X192935475Y-111349200D02*
X192897380Y-111311104D01*
X121629524Y-83507295D02*
X121629524Y-82707295D01*
X121629524Y-82707295D02*
X121820000Y-82707295D01*
X121820000Y-82707295D02*
X121934286Y-82745390D01*
X121934286Y-82745390D02*
X122010476Y-82821580D01*
X122010476Y-82821580D02*
X122048571Y-82897771D01*
X122048571Y-82897771D02*
X122086667Y-83050152D01*
X122086667Y-83050152D02*
X122086667Y-83164438D01*
X122086667Y-83164438D02*
X122048571Y-83316819D01*
X122048571Y-83316819D02*
X122010476Y-83393009D01*
X122010476Y-83393009D02*
X121934286Y-83469200D01*
X121934286Y-83469200D02*
X121820000Y-83507295D01*
X121820000Y-83507295D02*
X121629524Y-83507295D01*
X122848571Y-83507295D02*
X122391428Y-83507295D01*
X122620000Y-83507295D02*
X122620000Y-82707295D01*
X122620000Y-82707295D02*
X122543809Y-82821580D01*
X122543809Y-82821580D02*
X122467619Y-82897771D01*
X122467619Y-82897771D02*
X122391428Y-82935866D01*
X121245476Y-91912295D02*
X121245476Y-92559914D01*
X121245476Y-92559914D02*
X121283571Y-92636104D01*
X121283571Y-92636104D02*
X121321666Y-92674200D01*
X121321666Y-92674200D02*
X121397857Y-92712295D01*
X121397857Y-92712295D02*
X121550238Y-92712295D01*
X121550238Y-92712295D02*
X121626428Y-92674200D01*
X121626428Y-92674200D02*
X121664523Y-92636104D01*
X121664523Y-92636104D02*
X121702619Y-92559914D01*
X121702619Y-92559914D02*
X121702619Y-91912295D01*
X122426428Y-92178961D02*
X122426428Y-92712295D01*
X122235952Y-91874200D02*
X122045475Y-92445628D01*
X122045475Y-92445628D02*
X122540714Y-92445628D01*
X136821667Y-63581104D02*
X136783571Y-63619200D01*
X136783571Y-63619200D02*
X136669286Y-63657295D01*
X136669286Y-63657295D02*
X136593095Y-63657295D01*
X136593095Y-63657295D02*
X136478809Y-63619200D01*
X136478809Y-63619200D02*
X136402619Y-63543009D01*
X136402619Y-63543009D02*
X136364524Y-63466819D01*
X136364524Y-63466819D02*
X136326428Y-63314438D01*
X136326428Y-63314438D02*
X136326428Y-63200152D01*
X136326428Y-63200152D02*
X136364524Y-63047771D01*
X136364524Y-63047771D02*
X136402619Y-62971580D01*
X136402619Y-62971580D02*
X136478809Y-62895390D01*
X136478809Y-62895390D02*
X136593095Y-62857295D01*
X136593095Y-62857295D02*
X136669286Y-62857295D01*
X136669286Y-62857295D02*
X136783571Y-62895390D01*
X136783571Y-62895390D02*
X136821667Y-62933485D01*
X137507381Y-63123961D02*
X137507381Y-63657295D01*
X137316905Y-62819200D02*
X137126428Y-63390628D01*
X137126428Y-63390628D02*
X137621667Y-63390628D01*
X121351190Y-69197295D02*
X121351190Y-69768723D01*
X121351190Y-69768723D02*
X121313095Y-69883009D01*
X121313095Y-69883009D02*
X121236904Y-69959200D01*
X121236904Y-69959200D02*
X121122619Y-69997295D01*
X121122619Y-69997295D02*
X121046428Y-69997295D01*
X121732143Y-69997295D02*
X121732143Y-69197295D01*
X121732143Y-69197295D02*
X122036905Y-69197295D01*
X122036905Y-69197295D02*
X122113095Y-69235390D01*
X122113095Y-69235390D02*
X122151190Y-69273485D01*
X122151190Y-69273485D02*
X122189286Y-69349676D01*
X122189286Y-69349676D02*
X122189286Y-69463961D01*
X122189286Y-69463961D02*
X122151190Y-69540152D01*
X122151190Y-69540152D02*
X122113095Y-69578247D01*
X122113095Y-69578247D02*
X122036905Y-69616342D01*
X122036905Y-69616342D02*
X121732143Y-69616342D01*
X122455952Y-69197295D02*
X122646428Y-69997295D01*
X122646428Y-69997295D02*
X122798809Y-69425866D01*
X122798809Y-69425866D02*
X122951190Y-69997295D01*
X122951190Y-69997295D02*
X123141667Y-69197295D01*
X123903572Y-69997295D02*
X123636905Y-69616342D01*
X123446429Y-69997295D02*
X123446429Y-69197295D01*
X123446429Y-69197295D02*
X123751191Y-69197295D01*
X123751191Y-69197295D02*
X123827381Y-69235390D01*
X123827381Y-69235390D02*
X123865476Y-69273485D01*
X123865476Y-69273485D02*
X123903572Y-69349676D01*
X123903572Y-69349676D02*
X123903572Y-69463961D01*
X123903572Y-69463961D02*
X123865476Y-69540152D01*
X123865476Y-69540152D02*
X123827381Y-69578247D01*
X123827381Y-69578247D02*
X123751191Y-69616342D01*
X123751191Y-69616342D02*
X123446429Y-69616342D01*
X124208333Y-69273485D02*
X124246429Y-69235390D01*
X124246429Y-69235390D02*
X124322619Y-69197295D01*
X124322619Y-69197295D02*
X124513095Y-69197295D01*
X124513095Y-69197295D02*
X124589286Y-69235390D01*
X124589286Y-69235390D02*
X124627381Y-69273485D01*
X124627381Y-69273485D02*
X124665476Y-69349676D01*
X124665476Y-69349676D02*
X124665476Y-69425866D01*
X124665476Y-69425866D02*
X124627381Y-69540152D01*
X124627381Y-69540152D02*
X124170238Y-69997295D01*
X124170238Y-69997295D02*
X124665476Y-69997295D01*
X143991667Y-71871104D02*
X143953571Y-71909200D01*
X143953571Y-71909200D02*
X143839286Y-71947295D01*
X143839286Y-71947295D02*
X143763095Y-71947295D01*
X143763095Y-71947295D02*
X143648809Y-71909200D01*
X143648809Y-71909200D02*
X143572619Y-71833009D01*
X143572619Y-71833009D02*
X143534524Y-71756819D01*
X143534524Y-71756819D02*
X143496428Y-71604438D01*
X143496428Y-71604438D02*
X143496428Y-71490152D01*
X143496428Y-71490152D02*
X143534524Y-71337771D01*
X143534524Y-71337771D02*
X143572619Y-71261580D01*
X143572619Y-71261580D02*
X143648809Y-71185390D01*
X143648809Y-71185390D02*
X143763095Y-71147295D01*
X143763095Y-71147295D02*
X143839286Y-71147295D01*
X143839286Y-71147295D02*
X143953571Y-71185390D01*
X143953571Y-71185390D02*
X143991667Y-71223485D01*
X144753571Y-71947295D02*
X144296428Y-71947295D01*
X144525000Y-71947295D02*
X144525000Y-71147295D01*
X144525000Y-71147295D02*
X144448809Y-71261580D01*
X144448809Y-71261580D02*
X144372619Y-71337771D01*
X144372619Y-71337771D02*
X144296428Y-71375866D01*
X185082295Y-63457142D02*
X184701342Y-63723809D01*
X185082295Y-63914285D02*
X184282295Y-63914285D01*
X184282295Y-63914285D02*
X184282295Y-63609523D01*
X184282295Y-63609523D02*
X184320390Y-63533333D01*
X184320390Y-63533333D02*
X184358485Y-63495238D01*
X184358485Y-63495238D02*
X184434676Y-63457142D01*
X184434676Y-63457142D02*
X184548961Y-63457142D01*
X184548961Y-63457142D02*
X184625152Y-63495238D01*
X184625152Y-63495238D02*
X184663247Y-63533333D01*
X184663247Y-63533333D02*
X184701342Y-63609523D01*
X184701342Y-63609523D02*
X184701342Y-63914285D01*
X185044200Y-63152381D02*
X185082295Y-63038095D01*
X185082295Y-63038095D02*
X185082295Y-62847619D01*
X185082295Y-62847619D02*
X185044200Y-62771428D01*
X185044200Y-62771428D02*
X185006104Y-62733333D01*
X185006104Y-62733333D02*
X184929914Y-62695238D01*
X184929914Y-62695238D02*
X184853723Y-62695238D01*
X184853723Y-62695238D02*
X184777533Y-62733333D01*
X184777533Y-62733333D02*
X184739438Y-62771428D01*
X184739438Y-62771428D02*
X184701342Y-62847619D01*
X184701342Y-62847619D02*
X184663247Y-63000000D01*
X184663247Y-63000000D02*
X184625152Y-63076190D01*
X184625152Y-63076190D02*
X184587057Y-63114285D01*
X184587057Y-63114285D02*
X184510866Y-63152381D01*
X184510866Y-63152381D02*
X184434676Y-63152381D01*
X184434676Y-63152381D02*
X184358485Y-63114285D01*
X184358485Y-63114285D02*
X184320390Y-63076190D01*
X184320390Y-63076190D02*
X184282295Y-63000000D01*
X184282295Y-63000000D02*
X184282295Y-62809523D01*
X184282295Y-62809523D02*
X184320390Y-62695238D01*
X184853723Y-62390476D02*
X184853723Y-62009523D01*
X185082295Y-62466666D02*
X184282295Y-62199999D01*
X184282295Y-62199999D02*
X185082295Y-61933333D01*
X184358485Y-61704762D02*
X184320390Y-61666666D01*
X184320390Y-61666666D02*
X184282295Y-61590476D01*
X184282295Y-61590476D02*
X184282295Y-61400000D01*
X184282295Y-61400000D02*
X184320390Y-61323809D01*
X184320390Y-61323809D02*
X184358485Y-61285714D01*
X184358485Y-61285714D02*
X184434676Y-61247619D01*
X184434676Y-61247619D02*
X184510866Y-61247619D01*
X184510866Y-61247619D02*
X184625152Y-61285714D01*
X184625152Y-61285714D02*
X185082295Y-61742857D01*
X185082295Y-61742857D02*
X185082295Y-61247619D01*
X189139048Y-126381104D02*
X189100952Y-126419200D01*
X189100952Y-126419200D02*
X188986667Y-126457295D01*
X188986667Y-126457295D02*
X188910476Y-126457295D01*
X188910476Y-126457295D02*
X188796190Y-126419200D01*
X188796190Y-126419200D02*
X188720000Y-126343009D01*
X188720000Y-126343009D02*
X188681905Y-126266819D01*
X188681905Y-126266819D02*
X188643809Y-126114438D01*
X188643809Y-126114438D02*
X188643809Y-126000152D01*
X188643809Y-126000152D02*
X188681905Y-125847771D01*
X188681905Y-125847771D02*
X188720000Y-125771580D01*
X188720000Y-125771580D02*
X188796190Y-125695390D01*
X188796190Y-125695390D02*
X188910476Y-125657295D01*
X188910476Y-125657295D02*
X188986667Y-125657295D01*
X188986667Y-125657295D02*
X189100952Y-125695390D01*
X189100952Y-125695390D02*
X189139048Y-125733485D01*
X189291429Y-126533485D02*
X189900952Y-126533485D01*
X189977143Y-125657295D02*
X190243810Y-126457295D01*
X190243810Y-126457295D02*
X190510476Y-125657295D01*
X191234286Y-126381104D02*
X191196190Y-126419200D01*
X191196190Y-126419200D02*
X191081905Y-126457295D01*
X191081905Y-126457295D02*
X191005714Y-126457295D01*
X191005714Y-126457295D02*
X190891428Y-126419200D01*
X190891428Y-126419200D02*
X190815238Y-126343009D01*
X190815238Y-126343009D02*
X190777143Y-126266819D01*
X190777143Y-126266819D02*
X190739047Y-126114438D01*
X190739047Y-126114438D02*
X190739047Y-126000152D01*
X190739047Y-126000152D02*
X190777143Y-125847771D01*
X190777143Y-125847771D02*
X190815238Y-125771580D01*
X190815238Y-125771580D02*
X190891428Y-125695390D01*
X190891428Y-125695390D02*
X191005714Y-125657295D01*
X191005714Y-125657295D02*
X191081905Y-125657295D01*
X191081905Y-125657295D02*
X191196190Y-125695390D01*
X191196190Y-125695390D02*
X191234286Y-125733485D01*
X192034286Y-126381104D02*
X191996190Y-126419200D01*
X191996190Y-126419200D02*
X191881905Y-126457295D01*
X191881905Y-126457295D02*
X191805714Y-126457295D01*
X191805714Y-126457295D02*
X191691428Y-126419200D01*
X191691428Y-126419200D02*
X191615238Y-126343009D01*
X191615238Y-126343009D02*
X191577143Y-126266819D01*
X191577143Y-126266819D02*
X191539047Y-126114438D01*
X191539047Y-126114438D02*
X191539047Y-126000152D01*
X191539047Y-126000152D02*
X191577143Y-125847771D01*
X191577143Y-125847771D02*
X191615238Y-125771580D01*
X191615238Y-125771580D02*
X191691428Y-125695390D01*
X191691428Y-125695390D02*
X191805714Y-125657295D01*
X191805714Y-125657295D02*
X191881905Y-125657295D01*
X191881905Y-125657295D02*
X191996190Y-125695390D01*
X191996190Y-125695390D02*
X192034286Y-125733485D01*
X192300952Y-125657295D02*
X192796190Y-125657295D01*
X192796190Y-125657295D02*
X192529524Y-125962057D01*
X192529524Y-125962057D02*
X192643809Y-125962057D01*
X192643809Y-125962057D02*
X192720000Y-126000152D01*
X192720000Y-126000152D02*
X192758095Y-126038247D01*
X192758095Y-126038247D02*
X192796190Y-126114438D01*
X192796190Y-126114438D02*
X192796190Y-126304914D01*
X192796190Y-126304914D02*
X192758095Y-126381104D01*
X192758095Y-126381104D02*
X192720000Y-126419200D01*
X192720000Y-126419200D02*
X192643809Y-126457295D01*
X192643809Y-126457295D02*
X192415238Y-126457295D01*
X192415238Y-126457295D02*
X192339047Y-126419200D01*
X192339047Y-126419200D02*
X192300952Y-126381104D01*
X191819048Y-73362295D02*
X191552381Y-72981342D01*
X191361905Y-73362295D02*
X191361905Y-72562295D01*
X191361905Y-72562295D02*
X191666667Y-72562295D01*
X191666667Y-72562295D02*
X191742857Y-72600390D01*
X191742857Y-72600390D02*
X191780952Y-72638485D01*
X191780952Y-72638485D02*
X191819048Y-72714676D01*
X191819048Y-72714676D02*
X191819048Y-72828961D01*
X191819048Y-72828961D02*
X191780952Y-72905152D01*
X191780952Y-72905152D02*
X191742857Y-72943247D01*
X191742857Y-72943247D02*
X191666667Y-72981342D01*
X191666667Y-72981342D02*
X191361905Y-72981342D01*
X191971429Y-73438485D02*
X192580952Y-73438485D01*
X192657143Y-72562295D02*
X192923810Y-73362295D01*
X192923810Y-73362295D02*
X193190476Y-72562295D01*
X193914286Y-73286104D02*
X193876190Y-73324200D01*
X193876190Y-73324200D02*
X193761905Y-73362295D01*
X193761905Y-73362295D02*
X193685714Y-73362295D01*
X193685714Y-73362295D02*
X193571428Y-73324200D01*
X193571428Y-73324200D02*
X193495238Y-73248009D01*
X193495238Y-73248009D02*
X193457143Y-73171819D01*
X193457143Y-73171819D02*
X193419047Y-73019438D01*
X193419047Y-73019438D02*
X193419047Y-72905152D01*
X193419047Y-72905152D02*
X193457143Y-72752771D01*
X193457143Y-72752771D02*
X193495238Y-72676580D01*
X193495238Y-72676580D02*
X193571428Y-72600390D01*
X193571428Y-72600390D02*
X193685714Y-72562295D01*
X193685714Y-72562295D02*
X193761905Y-72562295D01*
X193761905Y-72562295D02*
X193876190Y-72600390D01*
X193876190Y-72600390D02*
X193914286Y-72638485D01*
X194714286Y-73286104D02*
X194676190Y-73324200D01*
X194676190Y-73324200D02*
X194561905Y-73362295D01*
X194561905Y-73362295D02*
X194485714Y-73362295D01*
X194485714Y-73362295D02*
X194371428Y-73324200D01*
X194371428Y-73324200D02*
X194295238Y-73248009D01*
X194295238Y-73248009D02*
X194257143Y-73171819D01*
X194257143Y-73171819D02*
X194219047Y-73019438D01*
X194219047Y-73019438D02*
X194219047Y-72905152D01*
X194219047Y-72905152D02*
X194257143Y-72752771D01*
X194257143Y-72752771D02*
X194295238Y-72676580D01*
X194295238Y-72676580D02*
X194371428Y-72600390D01*
X194371428Y-72600390D02*
X194485714Y-72562295D01*
X194485714Y-72562295D02*
X194561905Y-72562295D01*
X194561905Y-72562295D02*
X194676190Y-72600390D01*
X194676190Y-72600390D02*
X194714286Y-72638485D01*
X195019047Y-72638485D02*
X195057143Y-72600390D01*
X195057143Y-72600390D02*
X195133333Y-72562295D01*
X195133333Y-72562295D02*
X195323809Y-72562295D01*
X195323809Y-72562295D02*
X195400000Y-72600390D01*
X195400000Y-72600390D02*
X195438095Y-72638485D01*
X195438095Y-72638485D02*
X195476190Y-72714676D01*
X195476190Y-72714676D02*
X195476190Y-72790866D01*
X195476190Y-72790866D02*
X195438095Y-72905152D01*
X195438095Y-72905152D02*
X194980952Y-73362295D01*
X194980952Y-73362295D02*
X195476190Y-73362295D01*
X109458333Y-60887295D02*
X109458333Y-61458723D01*
X109458333Y-61458723D02*
X109420238Y-61573009D01*
X109420238Y-61573009D02*
X109344047Y-61649200D01*
X109344047Y-61649200D02*
X109229762Y-61687295D01*
X109229762Y-61687295D02*
X109153571Y-61687295D01*
X110105952Y-61268247D02*
X110220238Y-61306342D01*
X110220238Y-61306342D02*
X110258333Y-61344438D01*
X110258333Y-61344438D02*
X110296429Y-61420628D01*
X110296429Y-61420628D02*
X110296429Y-61534914D01*
X110296429Y-61534914D02*
X110258333Y-61611104D01*
X110258333Y-61611104D02*
X110220238Y-61649200D01*
X110220238Y-61649200D02*
X110144048Y-61687295D01*
X110144048Y-61687295D02*
X109839286Y-61687295D01*
X109839286Y-61687295D02*
X109839286Y-60887295D01*
X109839286Y-60887295D02*
X110105952Y-60887295D01*
X110105952Y-60887295D02*
X110182143Y-60925390D01*
X110182143Y-60925390D02*
X110220238Y-60963485D01*
X110220238Y-60963485D02*
X110258333Y-61039676D01*
X110258333Y-61039676D02*
X110258333Y-61115866D01*
X110258333Y-61115866D02*
X110220238Y-61192057D01*
X110220238Y-61192057D02*
X110182143Y-61230152D01*
X110182143Y-61230152D02*
X110105952Y-61268247D01*
X110105952Y-61268247D02*
X109839286Y-61268247D01*
X110639286Y-60887295D02*
X110639286Y-61534914D01*
X110639286Y-61534914D02*
X110677381Y-61611104D01*
X110677381Y-61611104D02*
X110715476Y-61649200D01*
X110715476Y-61649200D02*
X110791667Y-61687295D01*
X110791667Y-61687295D02*
X110944048Y-61687295D01*
X110944048Y-61687295D02*
X111020238Y-61649200D01*
X111020238Y-61649200D02*
X111058333Y-61611104D01*
X111058333Y-61611104D02*
X111096429Y-61534914D01*
X111096429Y-61534914D02*
X111096429Y-60887295D01*
X111439285Y-61649200D02*
X111553571Y-61687295D01*
X111553571Y-61687295D02*
X111744047Y-61687295D01*
X111744047Y-61687295D02*
X111820238Y-61649200D01*
X111820238Y-61649200D02*
X111858333Y-61611104D01*
X111858333Y-61611104D02*
X111896428Y-61534914D01*
X111896428Y-61534914D02*
X111896428Y-61458723D01*
X111896428Y-61458723D02*
X111858333Y-61382533D01*
X111858333Y-61382533D02*
X111820238Y-61344438D01*
X111820238Y-61344438D02*
X111744047Y-61306342D01*
X111744047Y-61306342D02*
X111591666Y-61268247D01*
X111591666Y-61268247D02*
X111515476Y-61230152D01*
X111515476Y-61230152D02*
X111477381Y-61192057D01*
X111477381Y-61192057D02*
X111439285Y-61115866D01*
X111439285Y-61115866D02*
X111439285Y-61039676D01*
X111439285Y-61039676D02*
X111477381Y-60963485D01*
X111477381Y-60963485D02*
X111515476Y-60925390D01*
X111515476Y-60925390D02*
X111591666Y-60887295D01*
X111591666Y-60887295D02*
X111782143Y-60887295D01*
X111782143Y-60887295D02*
X111896428Y-60925390D01*
X112658333Y-61687295D02*
X112201190Y-61687295D01*
X112429762Y-61687295D02*
X112429762Y-60887295D01*
X112429762Y-60887295D02*
X112353571Y-61001580D01*
X112353571Y-61001580D02*
X112277381Y-61077771D01*
X112277381Y-61077771D02*
X112201190Y-61115866D01*
X192599048Y-125937295D02*
X192332381Y-125556342D01*
X192141905Y-125937295D02*
X192141905Y-125137295D01*
X192141905Y-125137295D02*
X192446667Y-125137295D01*
X192446667Y-125137295D02*
X192522857Y-125175390D01*
X192522857Y-125175390D02*
X192560952Y-125213485D01*
X192560952Y-125213485D02*
X192599048Y-125289676D01*
X192599048Y-125289676D02*
X192599048Y-125403961D01*
X192599048Y-125403961D02*
X192560952Y-125480152D01*
X192560952Y-125480152D02*
X192522857Y-125518247D01*
X192522857Y-125518247D02*
X192446667Y-125556342D01*
X192446667Y-125556342D02*
X192141905Y-125556342D01*
X192751429Y-126013485D02*
X193360952Y-126013485D01*
X193437143Y-125137295D02*
X193703810Y-125937295D01*
X193703810Y-125937295D02*
X193970476Y-125137295D01*
X194694286Y-125861104D02*
X194656190Y-125899200D01*
X194656190Y-125899200D02*
X194541905Y-125937295D01*
X194541905Y-125937295D02*
X194465714Y-125937295D01*
X194465714Y-125937295D02*
X194351428Y-125899200D01*
X194351428Y-125899200D02*
X194275238Y-125823009D01*
X194275238Y-125823009D02*
X194237143Y-125746819D01*
X194237143Y-125746819D02*
X194199047Y-125594438D01*
X194199047Y-125594438D02*
X194199047Y-125480152D01*
X194199047Y-125480152D02*
X194237143Y-125327771D01*
X194237143Y-125327771D02*
X194275238Y-125251580D01*
X194275238Y-125251580D02*
X194351428Y-125175390D01*
X194351428Y-125175390D02*
X194465714Y-125137295D01*
X194465714Y-125137295D02*
X194541905Y-125137295D01*
X194541905Y-125137295D02*
X194656190Y-125175390D01*
X194656190Y-125175390D02*
X194694286Y-125213485D01*
X195494286Y-125861104D02*
X195456190Y-125899200D01*
X195456190Y-125899200D02*
X195341905Y-125937295D01*
X195341905Y-125937295D02*
X195265714Y-125937295D01*
X195265714Y-125937295D02*
X195151428Y-125899200D01*
X195151428Y-125899200D02*
X195075238Y-125823009D01*
X195075238Y-125823009D02*
X195037143Y-125746819D01*
X195037143Y-125746819D02*
X194999047Y-125594438D01*
X194999047Y-125594438D02*
X194999047Y-125480152D01*
X194999047Y-125480152D02*
X195037143Y-125327771D01*
X195037143Y-125327771D02*
X195075238Y-125251580D01*
X195075238Y-125251580D02*
X195151428Y-125175390D01*
X195151428Y-125175390D02*
X195265714Y-125137295D01*
X195265714Y-125137295D02*
X195341905Y-125137295D01*
X195341905Y-125137295D02*
X195456190Y-125175390D01*
X195456190Y-125175390D02*
X195494286Y-125213485D01*
X195760952Y-125137295D02*
X196256190Y-125137295D01*
X196256190Y-125137295D02*
X195989524Y-125442057D01*
X195989524Y-125442057D02*
X196103809Y-125442057D01*
X196103809Y-125442057D02*
X196180000Y-125480152D01*
X196180000Y-125480152D02*
X196218095Y-125518247D01*
X196218095Y-125518247D02*
X196256190Y-125594438D01*
X196256190Y-125594438D02*
X196256190Y-125784914D01*
X196256190Y-125784914D02*
X196218095Y-125861104D01*
X196218095Y-125861104D02*
X196180000Y-125899200D01*
X196180000Y-125899200D02*
X196103809Y-125937295D01*
X196103809Y-125937295D02*
X195875238Y-125937295D01*
X195875238Y-125937295D02*
X195799047Y-125899200D01*
X195799047Y-125899200D02*
X195760952Y-125861104D01*
X136440714Y-69491104D02*
X136402618Y-69529200D01*
X136402618Y-69529200D02*
X136288333Y-69567295D01*
X136288333Y-69567295D02*
X136212142Y-69567295D01*
X136212142Y-69567295D02*
X136097856Y-69529200D01*
X136097856Y-69529200D02*
X136021666Y-69453009D01*
X136021666Y-69453009D02*
X135983571Y-69376819D01*
X135983571Y-69376819D02*
X135945475Y-69224438D01*
X135945475Y-69224438D02*
X135945475Y-69110152D01*
X135945475Y-69110152D02*
X135983571Y-68957771D01*
X135983571Y-68957771D02*
X136021666Y-68881580D01*
X136021666Y-68881580D02*
X136097856Y-68805390D01*
X136097856Y-68805390D02*
X136212142Y-68767295D01*
X136212142Y-68767295D02*
X136288333Y-68767295D01*
X136288333Y-68767295D02*
X136402618Y-68805390D01*
X136402618Y-68805390D02*
X136440714Y-68843485D01*
X137202618Y-69567295D02*
X136745475Y-69567295D01*
X136974047Y-69567295D02*
X136974047Y-68767295D01*
X136974047Y-68767295D02*
X136897856Y-68881580D01*
X136897856Y-68881580D02*
X136821666Y-68957771D01*
X136821666Y-68957771D02*
X136745475Y-68995866D01*
X137888333Y-69033961D02*
X137888333Y-69567295D01*
X137697857Y-68729200D02*
X137507380Y-69300628D01*
X137507380Y-69300628D02*
X138002619Y-69300628D01*
X139711667Y-71217295D02*
X139445000Y-70836342D01*
X139254524Y-71217295D02*
X139254524Y-70417295D01*
X139254524Y-70417295D02*
X139559286Y-70417295D01*
X139559286Y-70417295D02*
X139635476Y-70455390D01*
X139635476Y-70455390D02*
X139673571Y-70493485D01*
X139673571Y-70493485D02*
X139711667Y-70569676D01*
X139711667Y-70569676D02*
X139711667Y-70683961D01*
X139711667Y-70683961D02*
X139673571Y-70760152D01*
X139673571Y-70760152D02*
X139635476Y-70798247D01*
X139635476Y-70798247D02*
X139559286Y-70836342D01*
X139559286Y-70836342D02*
X139254524Y-70836342D01*
X139978333Y-70417295D02*
X140473571Y-70417295D01*
X140473571Y-70417295D02*
X140206905Y-70722057D01*
X140206905Y-70722057D02*
X140321190Y-70722057D01*
X140321190Y-70722057D02*
X140397381Y-70760152D01*
X140397381Y-70760152D02*
X140435476Y-70798247D01*
X140435476Y-70798247D02*
X140473571Y-70874438D01*
X140473571Y-70874438D02*
X140473571Y-71064914D01*
X140473571Y-71064914D02*
X140435476Y-71141104D01*
X140435476Y-71141104D02*
X140397381Y-71179200D01*
X140397381Y-71179200D02*
X140321190Y-71217295D01*
X140321190Y-71217295D02*
X140092619Y-71217295D01*
X140092619Y-71217295D02*
X140016428Y-71179200D01*
X140016428Y-71179200D02*
X139978333Y-71141104D01*
X185485714Y-81362295D02*
X185219047Y-80981342D01*
X185028571Y-81362295D02*
X185028571Y-80562295D01*
X185028571Y-80562295D02*
X185333333Y-80562295D01*
X185333333Y-80562295D02*
X185409523Y-80600390D01*
X185409523Y-80600390D02*
X185447618Y-80638485D01*
X185447618Y-80638485D02*
X185485714Y-80714676D01*
X185485714Y-80714676D02*
X185485714Y-80828961D01*
X185485714Y-80828961D02*
X185447618Y-80905152D01*
X185447618Y-80905152D02*
X185409523Y-80943247D01*
X185409523Y-80943247D02*
X185333333Y-80981342D01*
X185333333Y-80981342D02*
X185028571Y-80981342D01*
X185790475Y-81324200D02*
X185904761Y-81362295D01*
X185904761Y-81362295D02*
X186095237Y-81362295D01*
X186095237Y-81362295D02*
X186171428Y-81324200D01*
X186171428Y-81324200D02*
X186209523Y-81286104D01*
X186209523Y-81286104D02*
X186247618Y-81209914D01*
X186247618Y-81209914D02*
X186247618Y-81133723D01*
X186247618Y-81133723D02*
X186209523Y-81057533D01*
X186209523Y-81057533D02*
X186171428Y-81019438D01*
X186171428Y-81019438D02*
X186095237Y-80981342D01*
X186095237Y-80981342D02*
X185942856Y-80943247D01*
X185942856Y-80943247D02*
X185866666Y-80905152D01*
X185866666Y-80905152D02*
X185828571Y-80867057D01*
X185828571Y-80867057D02*
X185790475Y-80790866D01*
X185790475Y-80790866D02*
X185790475Y-80714676D01*
X185790475Y-80714676D02*
X185828571Y-80638485D01*
X185828571Y-80638485D02*
X185866666Y-80600390D01*
X185866666Y-80600390D02*
X185942856Y-80562295D01*
X185942856Y-80562295D02*
X186133333Y-80562295D01*
X186133333Y-80562295D02*
X186247618Y-80600390D01*
X186857142Y-80943247D02*
X186971428Y-80981342D01*
X186971428Y-80981342D02*
X187009523Y-81019438D01*
X187009523Y-81019438D02*
X187047619Y-81095628D01*
X187047619Y-81095628D02*
X187047619Y-81209914D01*
X187047619Y-81209914D02*
X187009523Y-81286104D01*
X187009523Y-81286104D02*
X186971428Y-81324200D01*
X186971428Y-81324200D02*
X186895238Y-81362295D01*
X186895238Y-81362295D02*
X186590476Y-81362295D01*
X186590476Y-81362295D02*
X186590476Y-80562295D01*
X186590476Y-80562295D02*
X186857142Y-80562295D01*
X186857142Y-80562295D02*
X186933333Y-80600390D01*
X186933333Y-80600390D02*
X186971428Y-80638485D01*
X186971428Y-80638485D02*
X187009523Y-80714676D01*
X187009523Y-80714676D02*
X187009523Y-80790866D01*
X187009523Y-80790866D02*
X186971428Y-80867057D01*
X186971428Y-80867057D02*
X186933333Y-80905152D01*
X186933333Y-80905152D02*
X186857142Y-80943247D01*
X186857142Y-80943247D02*
X186590476Y-80943247D01*
X187352380Y-80638485D02*
X187390476Y-80600390D01*
X187390476Y-80600390D02*
X187466666Y-80562295D01*
X187466666Y-80562295D02*
X187657142Y-80562295D01*
X187657142Y-80562295D02*
X187733333Y-80600390D01*
X187733333Y-80600390D02*
X187771428Y-80638485D01*
X187771428Y-80638485D02*
X187809523Y-80714676D01*
X187809523Y-80714676D02*
X187809523Y-80790866D01*
X187809523Y-80790866D02*
X187771428Y-80905152D01*
X187771428Y-80905152D02*
X187314285Y-81362295D01*
X187314285Y-81362295D02*
X187809523Y-81362295D01*
X195619048Y-69286104D02*
X195580952Y-69324200D01*
X195580952Y-69324200D02*
X195466667Y-69362295D01*
X195466667Y-69362295D02*
X195390476Y-69362295D01*
X195390476Y-69362295D02*
X195276190Y-69324200D01*
X195276190Y-69324200D02*
X195200000Y-69248009D01*
X195200000Y-69248009D02*
X195161905Y-69171819D01*
X195161905Y-69171819D02*
X195123809Y-69019438D01*
X195123809Y-69019438D02*
X195123809Y-68905152D01*
X195123809Y-68905152D02*
X195161905Y-68752771D01*
X195161905Y-68752771D02*
X195200000Y-68676580D01*
X195200000Y-68676580D02*
X195276190Y-68600390D01*
X195276190Y-68600390D02*
X195390476Y-68562295D01*
X195390476Y-68562295D02*
X195466667Y-68562295D01*
X195466667Y-68562295D02*
X195580952Y-68600390D01*
X195580952Y-68600390D02*
X195619048Y-68638485D01*
X195771429Y-69438485D02*
X196380952Y-69438485D01*
X196457143Y-68562295D02*
X196723810Y-69362295D01*
X196723810Y-69362295D02*
X196990476Y-68562295D01*
X197714286Y-69286104D02*
X197676190Y-69324200D01*
X197676190Y-69324200D02*
X197561905Y-69362295D01*
X197561905Y-69362295D02*
X197485714Y-69362295D01*
X197485714Y-69362295D02*
X197371428Y-69324200D01*
X197371428Y-69324200D02*
X197295238Y-69248009D01*
X197295238Y-69248009D02*
X197257143Y-69171819D01*
X197257143Y-69171819D02*
X197219047Y-69019438D01*
X197219047Y-69019438D02*
X197219047Y-68905152D01*
X197219047Y-68905152D02*
X197257143Y-68752771D01*
X197257143Y-68752771D02*
X197295238Y-68676580D01*
X197295238Y-68676580D02*
X197371428Y-68600390D01*
X197371428Y-68600390D02*
X197485714Y-68562295D01*
X197485714Y-68562295D02*
X197561905Y-68562295D01*
X197561905Y-68562295D02*
X197676190Y-68600390D01*
X197676190Y-68600390D02*
X197714286Y-68638485D01*
X198514286Y-69286104D02*
X198476190Y-69324200D01*
X198476190Y-69324200D02*
X198361905Y-69362295D01*
X198361905Y-69362295D02*
X198285714Y-69362295D01*
X198285714Y-69362295D02*
X198171428Y-69324200D01*
X198171428Y-69324200D02*
X198095238Y-69248009D01*
X198095238Y-69248009D02*
X198057143Y-69171819D01*
X198057143Y-69171819D02*
X198019047Y-69019438D01*
X198019047Y-69019438D02*
X198019047Y-68905152D01*
X198019047Y-68905152D02*
X198057143Y-68752771D01*
X198057143Y-68752771D02*
X198095238Y-68676580D01*
X198095238Y-68676580D02*
X198171428Y-68600390D01*
X198171428Y-68600390D02*
X198285714Y-68562295D01*
X198285714Y-68562295D02*
X198361905Y-68562295D01*
X198361905Y-68562295D02*
X198476190Y-68600390D01*
X198476190Y-68600390D02*
X198514286Y-68638485D01*
X198819047Y-68638485D02*
X198857143Y-68600390D01*
X198857143Y-68600390D02*
X198933333Y-68562295D01*
X198933333Y-68562295D02*
X199123809Y-68562295D01*
X199123809Y-68562295D02*
X199200000Y-68600390D01*
X199200000Y-68600390D02*
X199238095Y-68638485D01*
X199238095Y-68638485D02*
X199276190Y-68714676D01*
X199276190Y-68714676D02*
X199276190Y-68790866D01*
X199276190Y-68790866D02*
X199238095Y-68905152D01*
X199238095Y-68905152D02*
X198780952Y-69362295D01*
X198780952Y-69362295D02*
X199276190Y-69362295D01*
X188415238Y-123871104D02*
X188377142Y-123909200D01*
X188377142Y-123909200D02*
X188262857Y-123947295D01*
X188262857Y-123947295D02*
X188186666Y-123947295D01*
X188186666Y-123947295D02*
X188072380Y-123909200D01*
X188072380Y-123909200D02*
X187996190Y-123833009D01*
X187996190Y-123833009D02*
X187958095Y-123756819D01*
X187958095Y-123756819D02*
X187919999Y-123604438D01*
X187919999Y-123604438D02*
X187919999Y-123490152D01*
X187919999Y-123490152D02*
X187958095Y-123337771D01*
X187958095Y-123337771D02*
X187996190Y-123261580D01*
X187996190Y-123261580D02*
X188072380Y-123185390D01*
X188072380Y-123185390D02*
X188186666Y-123147295D01*
X188186666Y-123147295D02*
X188262857Y-123147295D01*
X188262857Y-123147295D02*
X188377142Y-123185390D01*
X188377142Y-123185390D02*
X188415238Y-123223485D01*
X188567619Y-124023485D02*
X189177142Y-124023485D01*
X189748571Y-123147295D02*
X189367619Y-123147295D01*
X189367619Y-123147295D02*
X189329523Y-123528247D01*
X189329523Y-123528247D02*
X189367619Y-123490152D01*
X189367619Y-123490152D02*
X189443809Y-123452057D01*
X189443809Y-123452057D02*
X189634285Y-123452057D01*
X189634285Y-123452057D02*
X189710476Y-123490152D01*
X189710476Y-123490152D02*
X189748571Y-123528247D01*
X189748571Y-123528247D02*
X189786666Y-123604438D01*
X189786666Y-123604438D02*
X189786666Y-123794914D01*
X189786666Y-123794914D02*
X189748571Y-123871104D01*
X189748571Y-123871104D02*
X189710476Y-123909200D01*
X189710476Y-123909200D02*
X189634285Y-123947295D01*
X189634285Y-123947295D02*
X189443809Y-123947295D01*
X189443809Y-123947295D02*
X189367619Y-123909200D01*
X189367619Y-123909200D02*
X189329523Y-123871104D01*
X190015238Y-123147295D02*
X190281905Y-123947295D01*
X190281905Y-123947295D02*
X190548571Y-123147295D01*
X190967619Y-123147295D02*
X191120000Y-123147295D01*
X191120000Y-123147295D02*
X191196190Y-123185390D01*
X191196190Y-123185390D02*
X191272381Y-123261580D01*
X191272381Y-123261580D02*
X191310476Y-123413961D01*
X191310476Y-123413961D02*
X191310476Y-123680628D01*
X191310476Y-123680628D02*
X191272381Y-123833009D01*
X191272381Y-123833009D02*
X191196190Y-123909200D01*
X191196190Y-123909200D02*
X191120000Y-123947295D01*
X191120000Y-123947295D02*
X190967619Y-123947295D01*
X190967619Y-123947295D02*
X190891428Y-123909200D01*
X190891428Y-123909200D02*
X190815238Y-123833009D01*
X190815238Y-123833009D02*
X190777142Y-123680628D01*
X190777142Y-123680628D02*
X190777142Y-123413961D01*
X190777142Y-123413961D02*
X190815238Y-123261580D01*
X190815238Y-123261580D02*
X190891428Y-123185390D01*
X190891428Y-123185390D02*
X190967619Y-123147295D01*
X191653333Y-123147295D02*
X191653333Y-123794914D01*
X191653333Y-123794914D02*
X191691428Y-123871104D01*
X191691428Y-123871104D02*
X191729523Y-123909200D01*
X191729523Y-123909200D02*
X191805714Y-123947295D01*
X191805714Y-123947295D02*
X191958095Y-123947295D01*
X191958095Y-123947295D02*
X192034285Y-123909200D01*
X192034285Y-123909200D02*
X192072380Y-123871104D01*
X192072380Y-123871104D02*
X192110476Y-123794914D01*
X192110476Y-123794914D02*
X192110476Y-123147295D01*
X192377142Y-123147295D02*
X192834285Y-123147295D01*
X192605713Y-123947295D02*
X192605713Y-123147295D01*
X193024761Y-123147295D02*
X193519999Y-123147295D01*
X193519999Y-123147295D02*
X193253333Y-123452057D01*
X193253333Y-123452057D02*
X193367618Y-123452057D01*
X193367618Y-123452057D02*
X193443809Y-123490152D01*
X193443809Y-123490152D02*
X193481904Y-123528247D01*
X193481904Y-123528247D02*
X193519999Y-123604438D01*
X193519999Y-123604438D02*
X193519999Y-123794914D01*
X193519999Y-123794914D02*
X193481904Y-123871104D01*
X193481904Y-123871104D02*
X193443809Y-123909200D01*
X193443809Y-123909200D02*
X193367618Y-123947295D01*
X193367618Y-123947295D02*
X193139047Y-123947295D01*
X193139047Y-123947295D02*
X193062856Y-123909200D01*
X193062856Y-123909200D02*
X193024761Y-123871104D01*
X188530476Y-119621104D02*
X188492380Y-119659200D01*
X188492380Y-119659200D02*
X188378095Y-119697295D01*
X188378095Y-119697295D02*
X188301904Y-119697295D01*
X188301904Y-119697295D02*
X188187618Y-119659200D01*
X188187618Y-119659200D02*
X188111428Y-119583009D01*
X188111428Y-119583009D02*
X188073333Y-119506819D01*
X188073333Y-119506819D02*
X188035237Y-119354438D01*
X188035237Y-119354438D02*
X188035237Y-119240152D01*
X188035237Y-119240152D02*
X188073333Y-119087771D01*
X188073333Y-119087771D02*
X188111428Y-119011580D01*
X188111428Y-119011580D02*
X188187618Y-118935390D01*
X188187618Y-118935390D02*
X188301904Y-118897295D01*
X188301904Y-118897295D02*
X188378095Y-118897295D01*
X188378095Y-118897295D02*
X188492380Y-118935390D01*
X188492380Y-118935390D02*
X188530476Y-118973485D01*
X188682857Y-119773485D02*
X189292380Y-119773485D01*
X189368571Y-118897295D02*
X189635238Y-119697295D01*
X189635238Y-119697295D02*
X189901904Y-118897295D01*
X190130475Y-119659200D02*
X190244761Y-119697295D01*
X190244761Y-119697295D02*
X190435237Y-119697295D01*
X190435237Y-119697295D02*
X190511428Y-119659200D01*
X190511428Y-119659200D02*
X190549523Y-119621104D01*
X190549523Y-119621104D02*
X190587618Y-119544914D01*
X190587618Y-119544914D02*
X190587618Y-119468723D01*
X190587618Y-119468723D02*
X190549523Y-119392533D01*
X190549523Y-119392533D02*
X190511428Y-119354438D01*
X190511428Y-119354438D02*
X190435237Y-119316342D01*
X190435237Y-119316342D02*
X190282856Y-119278247D01*
X190282856Y-119278247D02*
X190206666Y-119240152D01*
X190206666Y-119240152D02*
X190168571Y-119202057D01*
X190168571Y-119202057D02*
X190130475Y-119125866D01*
X190130475Y-119125866D02*
X190130475Y-119049676D01*
X190130475Y-119049676D02*
X190168571Y-118973485D01*
X190168571Y-118973485D02*
X190206666Y-118935390D01*
X190206666Y-118935390D02*
X190282856Y-118897295D01*
X190282856Y-118897295D02*
X190473333Y-118897295D01*
X190473333Y-118897295D02*
X190587618Y-118935390D01*
X190740000Y-119773485D02*
X191349523Y-119773485D01*
X191806666Y-119278247D02*
X191920952Y-119316342D01*
X191920952Y-119316342D02*
X191959047Y-119354438D01*
X191959047Y-119354438D02*
X191997143Y-119430628D01*
X191997143Y-119430628D02*
X191997143Y-119544914D01*
X191997143Y-119544914D02*
X191959047Y-119621104D01*
X191959047Y-119621104D02*
X191920952Y-119659200D01*
X191920952Y-119659200D02*
X191844762Y-119697295D01*
X191844762Y-119697295D02*
X191540000Y-119697295D01*
X191540000Y-119697295D02*
X191540000Y-118897295D01*
X191540000Y-118897295D02*
X191806666Y-118897295D01*
X191806666Y-118897295D02*
X191882857Y-118935390D01*
X191882857Y-118935390D02*
X191920952Y-118973485D01*
X191920952Y-118973485D02*
X191959047Y-119049676D01*
X191959047Y-119049676D02*
X191959047Y-119125866D01*
X191959047Y-119125866D02*
X191920952Y-119202057D01*
X191920952Y-119202057D02*
X191882857Y-119240152D01*
X191882857Y-119240152D02*
X191806666Y-119278247D01*
X191806666Y-119278247D02*
X191540000Y-119278247D01*
X192340000Y-118897295D02*
X192340000Y-119544914D01*
X192340000Y-119544914D02*
X192378095Y-119621104D01*
X192378095Y-119621104D02*
X192416190Y-119659200D01*
X192416190Y-119659200D02*
X192492381Y-119697295D01*
X192492381Y-119697295D02*
X192644762Y-119697295D01*
X192644762Y-119697295D02*
X192720952Y-119659200D01*
X192720952Y-119659200D02*
X192759047Y-119621104D01*
X192759047Y-119621104D02*
X192797143Y-119544914D01*
X192797143Y-119544914D02*
X192797143Y-118897295D01*
X193559047Y-119697295D02*
X193178095Y-119697295D01*
X193178095Y-119697295D02*
X193178095Y-118897295D01*
X193825714Y-119697295D02*
X193825714Y-118897295D01*
X194282857Y-119697295D02*
X193939999Y-119240152D01*
X194282857Y-118897295D02*
X193825714Y-119354438D01*
X194549523Y-118897295D02*
X195044761Y-118897295D01*
X195044761Y-118897295D02*
X194778095Y-119202057D01*
X194778095Y-119202057D02*
X194892380Y-119202057D01*
X194892380Y-119202057D02*
X194968571Y-119240152D01*
X194968571Y-119240152D02*
X195006666Y-119278247D01*
X195006666Y-119278247D02*
X195044761Y-119354438D01*
X195044761Y-119354438D02*
X195044761Y-119544914D01*
X195044761Y-119544914D02*
X195006666Y-119621104D01*
X195006666Y-119621104D02*
X194968571Y-119659200D01*
X194968571Y-119659200D02*
X194892380Y-119697295D01*
X194892380Y-119697295D02*
X194663809Y-119697295D01*
X194663809Y-119697295D02*
X194587618Y-119659200D01*
X194587618Y-119659200D02*
X194549523Y-119621104D01*
X181286104Y-73095237D02*
X181324200Y-73133333D01*
X181324200Y-73133333D02*
X181362295Y-73247618D01*
X181362295Y-73247618D02*
X181362295Y-73323809D01*
X181362295Y-73323809D02*
X181324200Y-73438095D01*
X181324200Y-73438095D02*
X181248009Y-73514285D01*
X181248009Y-73514285D02*
X181171819Y-73552380D01*
X181171819Y-73552380D02*
X181019438Y-73590476D01*
X181019438Y-73590476D02*
X180905152Y-73590476D01*
X180905152Y-73590476D02*
X180752771Y-73552380D01*
X180752771Y-73552380D02*
X180676580Y-73514285D01*
X180676580Y-73514285D02*
X180600390Y-73438095D01*
X180600390Y-73438095D02*
X180562295Y-73323809D01*
X180562295Y-73323809D02*
X180562295Y-73247618D01*
X180562295Y-73247618D02*
X180600390Y-73133333D01*
X180600390Y-73133333D02*
X180638485Y-73095237D01*
X181438485Y-72942857D02*
X181438485Y-72333333D01*
X180562295Y-72257142D02*
X181362295Y-71990475D01*
X181362295Y-71990475D02*
X180562295Y-71723809D01*
X181286104Y-70999999D02*
X181324200Y-71038095D01*
X181324200Y-71038095D02*
X181362295Y-71152380D01*
X181362295Y-71152380D02*
X181362295Y-71228571D01*
X181362295Y-71228571D02*
X181324200Y-71342857D01*
X181324200Y-71342857D02*
X181248009Y-71419047D01*
X181248009Y-71419047D02*
X181171819Y-71457142D01*
X181171819Y-71457142D02*
X181019438Y-71495238D01*
X181019438Y-71495238D02*
X180905152Y-71495238D01*
X180905152Y-71495238D02*
X180752771Y-71457142D01*
X180752771Y-71457142D02*
X180676580Y-71419047D01*
X180676580Y-71419047D02*
X180600390Y-71342857D01*
X180600390Y-71342857D02*
X180562295Y-71228571D01*
X180562295Y-71228571D02*
X180562295Y-71152380D01*
X180562295Y-71152380D02*
X180600390Y-71038095D01*
X180600390Y-71038095D02*
X180638485Y-70999999D01*
X181286104Y-70199999D02*
X181324200Y-70238095D01*
X181324200Y-70238095D02*
X181362295Y-70352380D01*
X181362295Y-70352380D02*
X181362295Y-70428571D01*
X181362295Y-70428571D02*
X181324200Y-70542857D01*
X181324200Y-70542857D02*
X181248009Y-70619047D01*
X181248009Y-70619047D02*
X181171819Y-70657142D01*
X181171819Y-70657142D02*
X181019438Y-70695238D01*
X181019438Y-70695238D02*
X180905152Y-70695238D01*
X180905152Y-70695238D02*
X180752771Y-70657142D01*
X180752771Y-70657142D02*
X180676580Y-70619047D01*
X180676580Y-70619047D02*
X180600390Y-70542857D01*
X180600390Y-70542857D02*
X180562295Y-70428571D01*
X180562295Y-70428571D02*
X180562295Y-70352380D01*
X180562295Y-70352380D02*
X180600390Y-70238095D01*
X180600390Y-70238095D02*
X180638485Y-70199999D01*
X181438485Y-70047619D02*
X181438485Y-69438095D01*
X181362295Y-69247618D02*
X180562295Y-69247618D01*
X180562295Y-68714285D02*
X180562295Y-68561904D01*
X180562295Y-68561904D02*
X180600390Y-68485714D01*
X180600390Y-68485714D02*
X180676580Y-68409523D01*
X180676580Y-68409523D02*
X180828961Y-68371428D01*
X180828961Y-68371428D02*
X181095628Y-68371428D01*
X181095628Y-68371428D02*
X181248009Y-68409523D01*
X181248009Y-68409523D02*
X181324200Y-68485714D01*
X181324200Y-68485714D02*
X181362295Y-68561904D01*
X181362295Y-68561904D02*
X181362295Y-68714285D01*
X181362295Y-68714285D02*
X181324200Y-68790476D01*
X181324200Y-68790476D02*
X181248009Y-68866666D01*
X181248009Y-68866666D02*
X181095628Y-68904762D01*
X181095628Y-68904762D02*
X180828961Y-68904762D01*
X180828961Y-68904762D02*
X180676580Y-68866666D01*
X180676580Y-68866666D02*
X180600390Y-68790476D01*
X180600390Y-68790476D02*
X180562295Y-68714285D01*
X180638485Y-68066667D02*
X180600390Y-68028571D01*
X180600390Y-68028571D02*
X180562295Y-67952381D01*
X180562295Y-67952381D02*
X180562295Y-67761905D01*
X180562295Y-67761905D02*
X180600390Y-67685714D01*
X180600390Y-67685714D02*
X180638485Y-67647619D01*
X180638485Y-67647619D02*
X180714676Y-67609524D01*
X180714676Y-67609524D02*
X180790866Y-67609524D01*
X180790866Y-67609524D02*
X180905152Y-67647619D01*
X180905152Y-67647619D02*
X181362295Y-68104762D01*
X181362295Y-68104762D02*
X181362295Y-67609524D01*
X190886104Y-63647618D02*
X190924200Y-63685714D01*
X190924200Y-63685714D02*
X190962295Y-63799999D01*
X190962295Y-63799999D02*
X190962295Y-63876190D01*
X190962295Y-63876190D02*
X190924200Y-63990476D01*
X190924200Y-63990476D02*
X190848009Y-64066666D01*
X190848009Y-64066666D02*
X190771819Y-64104761D01*
X190771819Y-64104761D02*
X190619438Y-64142857D01*
X190619438Y-64142857D02*
X190505152Y-64142857D01*
X190505152Y-64142857D02*
X190352771Y-64104761D01*
X190352771Y-64104761D02*
X190276580Y-64066666D01*
X190276580Y-64066666D02*
X190200390Y-63990476D01*
X190200390Y-63990476D02*
X190162295Y-63876190D01*
X190162295Y-63876190D02*
X190162295Y-63799999D01*
X190162295Y-63799999D02*
X190200390Y-63685714D01*
X190200390Y-63685714D02*
X190238485Y-63647618D01*
X191038485Y-63495238D02*
X191038485Y-62885714D01*
X190543247Y-62428571D02*
X190581342Y-62314285D01*
X190581342Y-62314285D02*
X190619438Y-62276190D01*
X190619438Y-62276190D02*
X190695628Y-62238094D01*
X190695628Y-62238094D02*
X190809914Y-62238094D01*
X190809914Y-62238094D02*
X190886104Y-62276190D01*
X190886104Y-62276190D02*
X190924200Y-62314285D01*
X190924200Y-62314285D02*
X190962295Y-62390475D01*
X190962295Y-62390475D02*
X190962295Y-62695237D01*
X190962295Y-62695237D02*
X190162295Y-62695237D01*
X190162295Y-62695237D02*
X190162295Y-62428571D01*
X190162295Y-62428571D02*
X190200390Y-62352380D01*
X190200390Y-62352380D02*
X190238485Y-62314285D01*
X190238485Y-62314285D02*
X190314676Y-62276190D01*
X190314676Y-62276190D02*
X190390866Y-62276190D01*
X190390866Y-62276190D02*
X190467057Y-62314285D01*
X190467057Y-62314285D02*
X190505152Y-62352380D01*
X190505152Y-62352380D02*
X190543247Y-62428571D01*
X190543247Y-62428571D02*
X190543247Y-62695237D01*
X190962295Y-61438094D02*
X190581342Y-61704761D01*
X190962295Y-61895237D02*
X190162295Y-61895237D01*
X190162295Y-61895237D02*
X190162295Y-61590475D01*
X190162295Y-61590475D02*
X190200390Y-61514285D01*
X190200390Y-61514285D02*
X190238485Y-61476190D01*
X190238485Y-61476190D02*
X190314676Y-61438094D01*
X190314676Y-61438094D02*
X190428961Y-61438094D01*
X190428961Y-61438094D02*
X190505152Y-61476190D01*
X190505152Y-61476190D02*
X190543247Y-61514285D01*
X190543247Y-61514285D02*
X190581342Y-61590475D01*
X190581342Y-61590475D02*
X190581342Y-61895237D01*
X190733723Y-61133333D02*
X190733723Y-60752380D01*
X190962295Y-61209523D02*
X190162295Y-60942856D01*
X190162295Y-60942856D02*
X190962295Y-60676190D01*
X191038485Y-60600000D02*
X191038485Y-59990476D01*
X190543247Y-59533333D02*
X190543247Y-59799999D01*
X190962295Y-59799999D02*
X190162295Y-59799999D01*
X190162295Y-59799999D02*
X190162295Y-59419047D01*
X190962295Y-59114285D02*
X190162295Y-59114285D01*
X190962295Y-58352381D02*
X190962295Y-58733333D01*
X190962295Y-58733333D02*
X190162295Y-58733333D01*
X190162295Y-58200000D02*
X190162295Y-57742857D01*
X190962295Y-57971429D02*
X190162295Y-57971429D01*
X190238485Y-57514286D02*
X190200390Y-57476190D01*
X190200390Y-57476190D02*
X190162295Y-57400000D01*
X190162295Y-57400000D02*
X190162295Y-57209524D01*
X190162295Y-57209524D02*
X190200390Y-57133333D01*
X190200390Y-57133333D02*
X190238485Y-57095238D01*
X190238485Y-57095238D02*
X190314676Y-57057143D01*
X190314676Y-57057143D02*
X190390866Y-57057143D01*
X190390866Y-57057143D02*
X190505152Y-57095238D01*
X190505152Y-57095238D02*
X190962295Y-57552381D01*
X190962295Y-57552381D02*
X190962295Y-57057143D01*
X139711667Y-73207295D02*
X139445000Y-72826342D01*
X139254524Y-73207295D02*
X139254524Y-72407295D01*
X139254524Y-72407295D02*
X139559286Y-72407295D01*
X139559286Y-72407295D02*
X139635476Y-72445390D01*
X139635476Y-72445390D02*
X139673571Y-72483485D01*
X139673571Y-72483485D02*
X139711667Y-72559676D01*
X139711667Y-72559676D02*
X139711667Y-72673961D01*
X139711667Y-72673961D02*
X139673571Y-72750152D01*
X139673571Y-72750152D02*
X139635476Y-72788247D01*
X139635476Y-72788247D02*
X139559286Y-72826342D01*
X139559286Y-72826342D02*
X139254524Y-72826342D01*
X140397381Y-72673961D02*
X140397381Y-73207295D01*
X140206905Y-72369200D02*
X140016428Y-72940628D01*
X140016428Y-72940628D02*
X140511667Y-72940628D01*
X184784762Y-117221104D02*
X184746666Y-117259200D01*
X184746666Y-117259200D02*
X184632381Y-117297295D01*
X184632381Y-117297295D02*
X184556190Y-117297295D01*
X184556190Y-117297295D02*
X184441904Y-117259200D01*
X184441904Y-117259200D02*
X184365714Y-117183009D01*
X184365714Y-117183009D02*
X184327619Y-117106819D01*
X184327619Y-117106819D02*
X184289523Y-116954438D01*
X184289523Y-116954438D02*
X184289523Y-116840152D01*
X184289523Y-116840152D02*
X184327619Y-116687771D01*
X184327619Y-116687771D02*
X184365714Y-116611580D01*
X184365714Y-116611580D02*
X184441904Y-116535390D01*
X184441904Y-116535390D02*
X184556190Y-116497295D01*
X184556190Y-116497295D02*
X184632381Y-116497295D01*
X184632381Y-116497295D02*
X184746666Y-116535390D01*
X184746666Y-116535390D02*
X184784762Y-116573485D01*
X184937143Y-117373485D02*
X185546666Y-117373485D01*
X185622857Y-116497295D02*
X185889524Y-117297295D01*
X185889524Y-117297295D02*
X186156190Y-116497295D01*
X186880000Y-117221104D02*
X186841904Y-117259200D01*
X186841904Y-117259200D02*
X186727619Y-117297295D01*
X186727619Y-117297295D02*
X186651428Y-117297295D01*
X186651428Y-117297295D02*
X186537142Y-117259200D01*
X186537142Y-117259200D02*
X186460952Y-117183009D01*
X186460952Y-117183009D02*
X186422857Y-117106819D01*
X186422857Y-117106819D02*
X186384761Y-116954438D01*
X186384761Y-116954438D02*
X186384761Y-116840152D01*
X186384761Y-116840152D02*
X186422857Y-116687771D01*
X186422857Y-116687771D02*
X186460952Y-116611580D01*
X186460952Y-116611580D02*
X186537142Y-116535390D01*
X186537142Y-116535390D02*
X186651428Y-116497295D01*
X186651428Y-116497295D02*
X186727619Y-116497295D01*
X186727619Y-116497295D02*
X186841904Y-116535390D01*
X186841904Y-116535390D02*
X186880000Y-116573485D01*
X187680000Y-117221104D02*
X187641904Y-117259200D01*
X187641904Y-117259200D02*
X187527619Y-117297295D01*
X187527619Y-117297295D02*
X187451428Y-117297295D01*
X187451428Y-117297295D02*
X187337142Y-117259200D01*
X187337142Y-117259200D02*
X187260952Y-117183009D01*
X187260952Y-117183009D02*
X187222857Y-117106819D01*
X187222857Y-117106819D02*
X187184761Y-116954438D01*
X187184761Y-116954438D02*
X187184761Y-116840152D01*
X187184761Y-116840152D02*
X187222857Y-116687771D01*
X187222857Y-116687771D02*
X187260952Y-116611580D01*
X187260952Y-116611580D02*
X187337142Y-116535390D01*
X187337142Y-116535390D02*
X187451428Y-116497295D01*
X187451428Y-116497295D02*
X187527619Y-116497295D01*
X187527619Y-116497295D02*
X187641904Y-116535390D01*
X187641904Y-116535390D02*
X187680000Y-116573485D01*
X187832381Y-117373485D02*
X188441904Y-117373485D01*
X188632381Y-117297295D02*
X188632381Y-116497295D01*
X189165714Y-116497295D02*
X189318095Y-116497295D01*
X189318095Y-116497295D02*
X189394285Y-116535390D01*
X189394285Y-116535390D02*
X189470476Y-116611580D01*
X189470476Y-116611580D02*
X189508571Y-116763961D01*
X189508571Y-116763961D02*
X189508571Y-117030628D01*
X189508571Y-117030628D02*
X189470476Y-117183009D01*
X189470476Y-117183009D02*
X189394285Y-117259200D01*
X189394285Y-117259200D02*
X189318095Y-117297295D01*
X189318095Y-117297295D02*
X189165714Y-117297295D01*
X189165714Y-117297295D02*
X189089523Y-117259200D01*
X189089523Y-117259200D02*
X189013333Y-117183009D01*
X189013333Y-117183009D02*
X188975237Y-117030628D01*
X188975237Y-117030628D02*
X188975237Y-116763961D01*
X188975237Y-116763961D02*
X189013333Y-116611580D01*
X189013333Y-116611580D02*
X189089523Y-116535390D01*
X189089523Y-116535390D02*
X189165714Y-116497295D01*
X189775237Y-116497295D02*
X190270475Y-116497295D01*
X190270475Y-116497295D02*
X190003809Y-116802057D01*
X190003809Y-116802057D02*
X190118094Y-116802057D01*
X190118094Y-116802057D02*
X190194285Y-116840152D01*
X190194285Y-116840152D02*
X190232380Y-116878247D01*
X190232380Y-116878247D02*
X190270475Y-116954438D01*
X190270475Y-116954438D02*
X190270475Y-117144914D01*
X190270475Y-117144914D02*
X190232380Y-117221104D01*
X190232380Y-117221104D02*
X190194285Y-117259200D01*
X190194285Y-117259200D02*
X190118094Y-117297295D01*
X190118094Y-117297295D02*
X189889523Y-117297295D01*
X189889523Y-117297295D02*
X189813332Y-117259200D01*
X189813332Y-117259200D02*
X189775237Y-117221104D01*
X121629524Y-88057295D02*
X121629524Y-87257295D01*
X121629524Y-87257295D02*
X121820000Y-87257295D01*
X121820000Y-87257295D02*
X121934286Y-87295390D01*
X121934286Y-87295390D02*
X122010476Y-87371580D01*
X122010476Y-87371580D02*
X122048571Y-87447771D01*
X122048571Y-87447771D02*
X122086667Y-87600152D01*
X122086667Y-87600152D02*
X122086667Y-87714438D01*
X122086667Y-87714438D02*
X122048571Y-87866819D01*
X122048571Y-87866819D02*
X122010476Y-87943009D01*
X122010476Y-87943009D02*
X121934286Y-88019200D01*
X121934286Y-88019200D02*
X121820000Y-88057295D01*
X121820000Y-88057295D02*
X121629524Y-88057295D01*
X122391428Y-87333485D02*
X122429524Y-87295390D01*
X122429524Y-87295390D02*
X122505714Y-87257295D01*
X122505714Y-87257295D02*
X122696190Y-87257295D01*
X122696190Y-87257295D02*
X122772381Y-87295390D01*
X122772381Y-87295390D02*
X122810476Y-87333485D01*
X122810476Y-87333485D02*
X122848571Y-87409676D01*
X122848571Y-87409676D02*
X122848571Y-87485866D01*
X122848571Y-87485866D02*
X122810476Y-87600152D01*
X122810476Y-87600152D02*
X122353333Y-88057295D01*
X122353333Y-88057295D02*
X122848571Y-88057295D01*
X139711667Y-67237295D02*
X139445000Y-66856342D01*
X139254524Y-67237295D02*
X139254524Y-66437295D01*
X139254524Y-66437295D02*
X139559286Y-66437295D01*
X139559286Y-66437295D02*
X139635476Y-66475390D01*
X139635476Y-66475390D02*
X139673571Y-66513485D01*
X139673571Y-66513485D02*
X139711667Y-66589676D01*
X139711667Y-66589676D02*
X139711667Y-66703961D01*
X139711667Y-66703961D02*
X139673571Y-66780152D01*
X139673571Y-66780152D02*
X139635476Y-66818247D01*
X139635476Y-66818247D02*
X139559286Y-66856342D01*
X139559286Y-66856342D02*
X139254524Y-66856342D01*
X140473571Y-67237295D02*
X140016428Y-67237295D01*
X140245000Y-67237295D02*
X140245000Y-66437295D01*
X140245000Y-66437295D02*
X140168809Y-66551580D01*
X140168809Y-66551580D02*
X140092619Y-66627771D01*
X140092619Y-66627771D02*
X140016428Y-66665866D01*
X145911667Y-61611104D02*
X145873571Y-61649200D01*
X145873571Y-61649200D02*
X145759286Y-61687295D01*
X145759286Y-61687295D02*
X145683095Y-61687295D01*
X145683095Y-61687295D02*
X145568809Y-61649200D01*
X145568809Y-61649200D02*
X145492619Y-61573009D01*
X145492619Y-61573009D02*
X145454524Y-61496819D01*
X145454524Y-61496819D02*
X145416428Y-61344438D01*
X145416428Y-61344438D02*
X145416428Y-61230152D01*
X145416428Y-61230152D02*
X145454524Y-61077771D01*
X145454524Y-61077771D02*
X145492619Y-61001580D01*
X145492619Y-61001580D02*
X145568809Y-60925390D01*
X145568809Y-60925390D02*
X145683095Y-60887295D01*
X145683095Y-60887295D02*
X145759286Y-60887295D01*
X145759286Y-60887295D02*
X145873571Y-60925390D01*
X145873571Y-60925390D02*
X145911667Y-60963485D01*
X146216428Y-60963485D02*
X146254524Y-60925390D01*
X146254524Y-60925390D02*
X146330714Y-60887295D01*
X146330714Y-60887295D02*
X146521190Y-60887295D01*
X146521190Y-60887295D02*
X146597381Y-60925390D01*
X146597381Y-60925390D02*
X146635476Y-60963485D01*
X146635476Y-60963485D02*
X146673571Y-61039676D01*
X146673571Y-61039676D02*
X146673571Y-61115866D01*
X146673571Y-61115866D02*
X146635476Y-61230152D01*
X146635476Y-61230152D02*
X146178333Y-61687295D01*
X146178333Y-61687295D02*
X146673571Y-61687295D01*
X193828572Y-72362295D02*
X193561905Y-71981342D01*
X193371429Y-72362295D02*
X193371429Y-71562295D01*
X193371429Y-71562295D02*
X193676191Y-71562295D01*
X193676191Y-71562295D02*
X193752381Y-71600390D01*
X193752381Y-71600390D02*
X193790476Y-71638485D01*
X193790476Y-71638485D02*
X193828572Y-71714676D01*
X193828572Y-71714676D02*
X193828572Y-71828961D01*
X193828572Y-71828961D02*
X193790476Y-71905152D01*
X193790476Y-71905152D02*
X193752381Y-71943247D01*
X193752381Y-71943247D02*
X193676191Y-71981342D01*
X193676191Y-71981342D02*
X193371429Y-71981342D01*
X193980953Y-72438485D02*
X194590476Y-72438485D01*
X194780953Y-72362295D02*
X194780953Y-71562295D01*
X194780953Y-71562295D02*
X194971429Y-71562295D01*
X194971429Y-71562295D02*
X195085715Y-71600390D01*
X195085715Y-71600390D02*
X195161905Y-71676580D01*
X195161905Y-71676580D02*
X195200000Y-71752771D01*
X195200000Y-71752771D02*
X195238096Y-71905152D01*
X195238096Y-71905152D02*
X195238096Y-72019438D01*
X195238096Y-72019438D02*
X195200000Y-72171819D01*
X195200000Y-72171819D02*
X195161905Y-72248009D01*
X195161905Y-72248009D02*
X195085715Y-72324200D01*
X195085715Y-72324200D02*
X194971429Y-72362295D01*
X194971429Y-72362295D02*
X194780953Y-72362295D01*
X195580953Y-72362295D02*
X195580953Y-71562295D01*
X195923809Y-72133723D02*
X196304762Y-72133723D01*
X195847619Y-72362295D02*
X196114286Y-71562295D01*
X196114286Y-71562295D02*
X196380952Y-72362295D01*
X197066666Y-71600390D02*
X196990476Y-71562295D01*
X196990476Y-71562295D02*
X196876190Y-71562295D01*
X196876190Y-71562295D02*
X196761904Y-71600390D01*
X196761904Y-71600390D02*
X196685714Y-71676580D01*
X196685714Y-71676580D02*
X196647619Y-71752771D01*
X196647619Y-71752771D02*
X196609523Y-71905152D01*
X196609523Y-71905152D02*
X196609523Y-72019438D01*
X196609523Y-72019438D02*
X196647619Y-72171819D01*
X196647619Y-72171819D02*
X196685714Y-72248009D01*
X196685714Y-72248009D02*
X196761904Y-72324200D01*
X196761904Y-72324200D02*
X196876190Y-72362295D01*
X196876190Y-72362295D02*
X196952381Y-72362295D01*
X196952381Y-72362295D02*
X197066666Y-72324200D01*
X197066666Y-72324200D02*
X197104762Y-72286104D01*
X197104762Y-72286104D02*
X197104762Y-72019438D01*
X197104762Y-72019438D02*
X196952381Y-72019438D01*
X197866666Y-72362295D02*
X197409523Y-72362295D01*
X197638095Y-72362295D02*
X197638095Y-71562295D01*
X197638095Y-71562295D02*
X197561904Y-71676580D01*
X197561904Y-71676580D02*
X197485714Y-71752771D01*
X197485714Y-71752771D02*
X197409523Y-71790866D01*
X193886104Y-80409523D02*
X193924200Y-80447619D01*
X193924200Y-80447619D02*
X193962295Y-80561904D01*
X193962295Y-80561904D02*
X193962295Y-80638095D01*
X193962295Y-80638095D02*
X193924200Y-80752381D01*
X193924200Y-80752381D02*
X193848009Y-80828571D01*
X193848009Y-80828571D02*
X193771819Y-80866666D01*
X193771819Y-80866666D02*
X193619438Y-80904762D01*
X193619438Y-80904762D02*
X193505152Y-80904762D01*
X193505152Y-80904762D02*
X193352771Y-80866666D01*
X193352771Y-80866666D02*
X193276580Y-80828571D01*
X193276580Y-80828571D02*
X193200390Y-80752381D01*
X193200390Y-80752381D02*
X193162295Y-80638095D01*
X193162295Y-80638095D02*
X193162295Y-80561904D01*
X193162295Y-80561904D02*
X193200390Y-80447619D01*
X193200390Y-80447619D02*
X193238485Y-80409523D01*
X194038485Y-80257143D02*
X194038485Y-79647619D01*
X193162295Y-79571428D02*
X193962295Y-79304761D01*
X193962295Y-79304761D02*
X193162295Y-79038095D01*
X193924200Y-78809524D02*
X193962295Y-78695238D01*
X193962295Y-78695238D02*
X193962295Y-78504762D01*
X193962295Y-78504762D02*
X193924200Y-78428571D01*
X193924200Y-78428571D02*
X193886104Y-78390476D01*
X193886104Y-78390476D02*
X193809914Y-78352381D01*
X193809914Y-78352381D02*
X193733723Y-78352381D01*
X193733723Y-78352381D02*
X193657533Y-78390476D01*
X193657533Y-78390476D02*
X193619438Y-78428571D01*
X193619438Y-78428571D02*
X193581342Y-78504762D01*
X193581342Y-78504762D02*
X193543247Y-78657143D01*
X193543247Y-78657143D02*
X193505152Y-78733333D01*
X193505152Y-78733333D02*
X193467057Y-78771428D01*
X193467057Y-78771428D02*
X193390866Y-78809524D01*
X193390866Y-78809524D02*
X193314676Y-78809524D01*
X193314676Y-78809524D02*
X193238485Y-78771428D01*
X193238485Y-78771428D02*
X193200390Y-78733333D01*
X193200390Y-78733333D02*
X193162295Y-78657143D01*
X193162295Y-78657143D02*
X193162295Y-78466666D01*
X193162295Y-78466666D02*
X193200390Y-78352381D01*
X194038485Y-78200000D02*
X194038485Y-77590476D01*
X193543247Y-77133333D02*
X193581342Y-77019047D01*
X193581342Y-77019047D02*
X193619438Y-76980952D01*
X193619438Y-76980952D02*
X193695628Y-76942856D01*
X193695628Y-76942856D02*
X193809914Y-76942856D01*
X193809914Y-76942856D02*
X193886104Y-76980952D01*
X193886104Y-76980952D02*
X193924200Y-77019047D01*
X193924200Y-77019047D02*
X193962295Y-77095237D01*
X193962295Y-77095237D02*
X193962295Y-77399999D01*
X193962295Y-77399999D02*
X193162295Y-77399999D01*
X193162295Y-77399999D02*
X193162295Y-77133333D01*
X193162295Y-77133333D02*
X193200390Y-77057142D01*
X193200390Y-77057142D02*
X193238485Y-77019047D01*
X193238485Y-77019047D02*
X193314676Y-76980952D01*
X193314676Y-76980952D02*
X193390866Y-76980952D01*
X193390866Y-76980952D02*
X193467057Y-77019047D01*
X193467057Y-77019047D02*
X193505152Y-77057142D01*
X193505152Y-77057142D02*
X193543247Y-77133333D01*
X193543247Y-77133333D02*
X193543247Y-77399999D01*
X193162295Y-76599999D02*
X193809914Y-76599999D01*
X193809914Y-76599999D02*
X193886104Y-76561904D01*
X193886104Y-76561904D02*
X193924200Y-76523809D01*
X193924200Y-76523809D02*
X193962295Y-76447618D01*
X193962295Y-76447618D02*
X193962295Y-76295237D01*
X193962295Y-76295237D02*
X193924200Y-76219047D01*
X193924200Y-76219047D02*
X193886104Y-76180952D01*
X193886104Y-76180952D02*
X193809914Y-76142856D01*
X193809914Y-76142856D02*
X193162295Y-76142856D01*
X193962295Y-75380952D02*
X193962295Y-75761904D01*
X193962295Y-75761904D02*
X193162295Y-75761904D01*
X193962295Y-75114285D02*
X193162295Y-75114285D01*
X193962295Y-74657142D02*
X193505152Y-75000000D01*
X193162295Y-74657142D02*
X193619438Y-75114285D01*
X193238485Y-74352381D02*
X193200390Y-74314285D01*
X193200390Y-74314285D02*
X193162295Y-74238095D01*
X193162295Y-74238095D02*
X193162295Y-74047619D01*
X193162295Y-74047619D02*
X193200390Y-73971428D01*
X193200390Y-73971428D02*
X193238485Y-73933333D01*
X193238485Y-73933333D02*
X193314676Y-73895238D01*
X193314676Y-73895238D02*
X193390866Y-73895238D01*
X193390866Y-73895238D02*
X193505152Y-73933333D01*
X193505152Y-73933333D02*
X193962295Y-74390476D01*
X193962295Y-74390476D02*
X193962295Y-73895238D01*
X136821667Y-65551104D02*
X136783571Y-65589200D01*
X136783571Y-65589200D02*
X136669286Y-65627295D01*
X136669286Y-65627295D02*
X136593095Y-65627295D01*
X136593095Y-65627295D02*
X136478809Y-65589200D01*
X136478809Y-65589200D02*
X136402619Y-65513009D01*
X136402619Y-65513009D02*
X136364524Y-65436819D01*
X136364524Y-65436819D02*
X136326428Y-65284438D01*
X136326428Y-65284438D02*
X136326428Y-65170152D01*
X136326428Y-65170152D02*
X136364524Y-65017771D01*
X136364524Y-65017771D02*
X136402619Y-64941580D01*
X136402619Y-64941580D02*
X136478809Y-64865390D01*
X136478809Y-64865390D02*
X136593095Y-64827295D01*
X136593095Y-64827295D02*
X136669286Y-64827295D01*
X136669286Y-64827295D02*
X136783571Y-64865390D01*
X136783571Y-64865390D02*
X136821667Y-64903485D01*
X137545476Y-64827295D02*
X137164524Y-64827295D01*
X137164524Y-64827295D02*
X137126428Y-65208247D01*
X137126428Y-65208247D02*
X137164524Y-65170152D01*
X137164524Y-65170152D02*
X137240714Y-65132057D01*
X137240714Y-65132057D02*
X137431190Y-65132057D01*
X137431190Y-65132057D02*
X137507381Y-65170152D01*
X137507381Y-65170152D02*
X137545476Y-65208247D01*
X137545476Y-65208247D02*
X137583571Y-65284438D01*
X137583571Y-65284438D02*
X137583571Y-65474914D01*
X137583571Y-65474914D02*
X137545476Y-65551104D01*
X137545476Y-65551104D02*
X137507381Y-65589200D01*
X137507381Y-65589200D02*
X137431190Y-65627295D01*
X137431190Y-65627295D02*
X137240714Y-65627295D01*
X137240714Y-65627295D02*
X137164524Y-65589200D01*
X137164524Y-65589200D02*
X137126428Y-65551104D01*
X141081666Y-61687295D02*
X140700714Y-61687295D01*
X140700714Y-61687295D02*
X140700714Y-60887295D01*
X141767380Y-61687295D02*
X141310237Y-61687295D01*
X141538809Y-61687295D02*
X141538809Y-60887295D01*
X141538809Y-60887295D02*
X141462618Y-61001580D01*
X141462618Y-61001580D02*
X141386428Y-61077771D01*
X141386428Y-61077771D02*
X141310237Y-61115866D01*
X182182857Y-111387295D02*
X181916190Y-111006342D01*
X181725714Y-111387295D02*
X181725714Y-110587295D01*
X181725714Y-110587295D02*
X182030476Y-110587295D01*
X182030476Y-110587295D02*
X182106666Y-110625390D01*
X182106666Y-110625390D02*
X182144761Y-110663485D01*
X182144761Y-110663485D02*
X182182857Y-110739676D01*
X182182857Y-110739676D02*
X182182857Y-110853961D01*
X182182857Y-110853961D02*
X182144761Y-110930152D01*
X182144761Y-110930152D02*
X182106666Y-110968247D01*
X182106666Y-110968247D02*
X182030476Y-111006342D01*
X182030476Y-111006342D02*
X181725714Y-111006342D01*
X182487618Y-111349200D02*
X182601904Y-111387295D01*
X182601904Y-111387295D02*
X182792380Y-111387295D01*
X182792380Y-111387295D02*
X182868571Y-111349200D01*
X182868571Y-111349200D02*
X182906666Y-111311104D01*
X182906666Y-111311104D02*
X182944761Y-111234914D01*
X182944761Y-111234914D02*
X182944761Y-111158723D01*
X182944761Y-111158723D02*
X182906666Y-111082533D01*
X182906666Y-111082533D02*
X182868571Y-111044438D01*
X182868571Y-111044438D02*
X182792380Y-111006342D01*
X182792380Y-111006342D02*
X182639999Y-110968247D01*
X182639999Y-110968247D02*
X182563809Y-110930152D01*
X182563809Y-110930152D02*
X182525714Y-110892057D01*
X182525714Y-110892057D02*
X182487618Y-110815866D01*
X182487618Y-110815866D02*
X182487618Y-110739676D01*
X182487618Y-110739676D02*
X182525714Y-110663485D01*
X182525714Y-110663485D02*
X182563809Y-110625390D01*
X182563809Y-110625390D02*
X182639999Y-110587295D01*
X182639999Y-110587295D02*
X182830476Y-110587295D01*
X182830476Y-110587295D02*
X182944761Y-110625390D01*
X183249523Y-111158723D02*
X183630476Y-111158723D01*
X183173333Y-111387295D02*
X183440000Y-110587295D01*
X183440000Y-110587295D02*
X183706666Y-111387295D01*
X183897142Y-110587295D02*
X184392380Y-110587295D01*
X184392380Y-110587295D02*
X184125714Y-110892057D01*
X184125714Y-110892057D02*
X184239999Y-110892057D01*
X184239999Y-110892057D02*
X184316190Y-110930152D01*
X184316190Y-110930152D02*
X184354285Y-110968247D01*
X184354285Y-110968247D02*
X184392380Y-111044438D01*
X184392380Y-111044438D02*
X184392380Y-111234914D01*
X184392380Y-111234914D02*
X184354285Y-111311104D01*
X184354285Y-111311104D02*
X184316190Y-111349200D01*
X184316190Y-111349200D02*
X184239999Y-111387295D01*
X184239999Y-111387295D02*
X184011428Y-111387295D01*
X184011428Y-111387295D02*
X183935237Y-111349200D01*
X183935237Y-111349200D02*
X183897142Y-111311104D01*
X185775238Y-123131104D02*
X185737142Y-123169200D01*
X185737142Y-123169200D02*
X185622857Y-123207295D01*
X185622857Y-123207295D02*
X185546666Y-123207295D01*
X185546666Y-123207295D02*
X185432380Y-123169200D01*
X185432380Y-123169200D02*
X185356190Y-123093009D01*
X185356190Y-123093009D02*
X185318095Y-123016819D01*
X185318095Y-123016819D02*
X185279999Y-122864438D01*
X185279999Y-122864438D02*
X185279999Y-122750152D01*
X185279999Y-122750152D02*
X185318095Y-122597771D01*
X185318095Y-122597771D02*
X185356190Y-122521580D01*
X185356190Y-122521580D02*
X185432380Y-122445390D01*
X185432380Y-122445390D02*
X185546666Y-122407295D01*
X185546666Y-122407295D02*
X185622857Y-122407295D01*
X185622857Y-122407295D02*
X185737142Y-122445390D01*
X185737142Y-122445390D02*
X185775238Y-122483485D01*
X185927619Y-123283485D02*
X186537142Y-123283485D01*
X186613333Y-122407295D02*
X186880000Y-123207295D01*
X186880000Y-123207295D02*
X187146666Y-122407295D01*
X187375237Y-123169200D02*
X187489523Y-123207295D01*
X187489523Y-123207295D02*
X187679999Y-123207295D01*
X187679999Y-123207295D02*
X187756190Y-123169200D01*
X187756190Y-123169200D02*
X187794285Y-123131104D01*
X187794285Y-123131104D02*
X187832380Y-123054914D01*
X187832380Y-123054914D02*
X187832380Y-122978723D01*
X187832380Y-122978723D02*
X187794285Y-122902533D01*
X187794285Y-122902533D02*
X187756190Y-122864438D01*
X187756190Y-122864438D02*
X187679999Y-122826342D01*
X187679999Y-122826342D02*
X187527618Y-122788247D01*
X187527618Y-122788247D02*
X187451428Y-122750152D01*
X187451428Y-122750152D02*
X187413333Y-122712057D01*
X187413333Y-122712057D02*
X187375237Y-122635866D01*
X187375237Y-122635866D02*
X187375237Y-122559676D01*
X187375237Y-122559676D02*
X187413333Y-122483485D01*
X187413333Y-122483485D02*
X187451428Y-122445390D01*
X187451428Y-122445390D02*
X187527618Y-122407295D01*
X187527618Y-122407295D02*
X187718095Y-122407295D01*
X187718095Y-122407295D02*
X187832380Y-122445390D01*
X188137142Y-122978723D02*
X188518095Y-122978723D01*
X188060952Y-123207295D02*
X188327619Y-122407295D01*
X188327619Y-122407295D02*
X188594285Y-123207295D01*
X188784761Y-122407295D02*
X189279999Y-122407295D01*
X189279999Y-122407295D02*
X189013333Y-122712057D01*
X189013333Y-122712057D02*
X189127618Y-122712057D01*
X189127618Y-122712057D02*
X189203809Y-122750152D01*
X189203809Y-122750152D02*
X189241904Y-122788247D01*
X189241904Y-122788247D02*
X189279999Y-122864438D01*
X189279999Y-122864438D02*
X189279999Y-123054914D01*
X189279999Y-123054914D02*
X189241904Y-123131104D01*
X189241904Y-123131104D02*
X189203809Y-123169200D01*
X189203809Y-123169200D02*
X189127618Y-123207295D01*
X189127618Y-123207295D02*
X188899047Y-123207295D01*
X188899047Y-123207295D02*
X188822856Y-123169200D01*
X188822856Y-123169200D02*
X188784761Y-123131104D01*
X192408572Y-123947295D02*
X192141905Y-123566342D01*
X191951429Y-123947295D02*
X191951429Y-123147295D01*
X191951429Y-123147295D02*
X192256191Y-123147295D01*
X192256191Y-123147295D02*
X192332381Y-123185390D01*
X192332381Y-123185390D02*
X192370476Y-123223485D01*
X192370476Y-123223485D02*
X192408572Y-123299676D01*
X192408572Y-123299676D02*
X192408572Y-123413961D01*
X192408572Y-123413961D02*
X192370476Y-123490152D01*
X192370476Y-123490152D02*
X192332381Y-123528247D01*
X192332381Y-123528247D02*
X192256191Y-123566342D01*
X192256191Y-123566342D02*
X191951429Y-123566342D01*
X192560953Y-124023485D02*
X193170476Y-124023485D01*
X193360953Y-123947295D02*
X193360953Y-123147295D01*
X193360953Y-123147295D02*
X193551429Y-123147295D01*
X193551429Y-123147295D02*
X193665715Y-123185390D01*
X193665715Y-123185390D02*
X193741905Y-123261580D01*
X193741905Y-123261580D02*
X193780000Y-123337771D01*
X193780000Y-123337771D02*
X193818096Y-123490152D01*
X193818096Y-123490152D02*
X193818096Y-123604438D01*
X193818096Y-123604438D02*
X193780000Y-123756819D01*
X193780000Y-123756819D02*
X193741905Y-123833009D01*
X193741905Y-123833009D02*
X193665715Y-123909200D01*
X193665715Y-123909200D02*
X193551429Y-123947295D01*
X193551429Y-123947295D02*
X193360953Y-123947295D01*
X194160953Y-123947295D02*
X194160953Y-123147295D01*
X194503809Y-123718723D02*
X194884762Y-123718723D01*
X194427619Y-123947295D02*
X194694286Y-123147295D01*
X194694286Y-123147295D02*
X194960952Y-123947295D01*
X195646666Y-123185390D02*
X195570476Y-123147295D01*
X195570476Y-123147295D02*
X195456190Y-123147295D01*
X195456190Y-123147295D02*
X195341904Y-123185390D01*
X195341904Y-123185390D02*
X195265714Y-123261580D01*
X195265714Y-123261580D02*
X195227619Y-123337771D01*
X195227619Y-123337771D02*
X195189523Y-123490152D01*
X195189523Y-123490152D02*
X195189523Y-123604438D01*
X195189523Y-123604438D02*
X195227619Y-123756819D01*
X195227619Y-123756819D02*
X195265714Y-123833009D01*
X195265714Y-123833009D02*
X195341904Y-123909200D01*
X195341904Y-123909200D02*
X195456190Y-123947295D01*
X195456190Y-123947295D02*
X195532381Y-123947295D01*
X195532381Y-123947295D02*
X195646666Y-123909200D01*
X195646666Y-123909200D02*
X195684762Y-123871104D01*
X195684762Y-123871104D02*
X195684762Y-123604438D01*
X195684762Y-123604438D02*
X195532381Y-123604438D01*
X195989523Y-123223485D02*
X196027619Y-123185390D01*
X196027619Y-123185390D02*
X196103809Y-123147295D01*
X196103809Y-123147295D02*
X196294285Y-123147295D01*
X196294285Y-123147295D02*
X196370476Y-123185390D01*
X196370476Y-123185390D02*
X196408571Y-123223485D01*
X196408571Y-123223485D02*
X196446666Y-123299676D01*
X196446666Y-123299676D02*
X196446666Y-123375866D01*
X196446666Y-123375866D02*
X196408571Y-123490152D01*
X196408571Y-123490152D02*
X195951428Y-123947295D01*
X195951428Y-123947295D02*
X196446666Y-123947295D01*
X191219048Y-66486104D02*
X191180952Y-66524200D01*
X191180952Y-66524200D02*
X191066667Y-66562295D01*
X191066667Y-66562295D02*
X190990476Y-66562295D01*
X190990476Y-66562295D02*
X190876190Y-66524200D01*
X190876190Y-66524200D02*
X190800000Y-66448009D01*
X190800000Y-66448009D02*
X190761905Y-66371819D01*
X190761905Y-66371819D02*
X190723809Y-66219438D01*
X190723809Y-66219438D02*
X190723809Y-66105152D01*
X190723809Y-66105152D02*
X190761905Y-65952771D01*
X190761905Y-65952771D02*
X190800000Y-65876580D01*
X190800000Y-65876580D02*
X190876190Y-65800390D01*
X190876190Y-65800390D02*
X190990476Y-65762295D01*
X190990476Y-65762295D02*
X191066667Y-65762295D01*
X191066667Y-65762295D02*
X191180952Y-65800390D01*
X191180952Y-65800390D02*
X191219048Y-65838485D01*
X191371429Y-66638485D02*
X191980952Y-66638485D01*
X192057143Y-65762295D02*
X192323810Y-66562295D01*
X192323810Y-66562295D02*
X192590476Y-65762295D01*
X193314286Y-66486104D02*
X193276190Y-66524200D01*
X193276190Y-66524200D02*
X193161905Y-66562295D01*
X193161905Y-66562295D02*
X193085714Y-66562295D01*
X193085714Y-66562295D02*
X192971428Y-66524200D01*
X192971428Y-66524200D02*
X192895238Y-66448009D01*
X192895238Y-66448009D02*
X192857143Y-66371819D01*
X192857143Y-66371819D02*
X192819047Y-66219438D01*
X192819047Y-66219438D02*
X192819047Y-66105152D01*
X192819047Y-66105152D02*
X192857143Y-65952771D01*
X192857143Y-65952771D02*
X192895238Y-65876580D01*
X192895238Y-65876580D02*
X192971428Y-65800390D01*
X192971428Y-65800390D02*
X193085714Y-65762295D01*
X193085714Y-65762295D02*
X193161905Y-65762295D01*
X193161905Y-65762295D02*
X193276190Y-65800390D01*
X193276190Y-65800390D02*
X193314286Y-65838485D01*
X193657143Y-66562295D02*
X193657143Y-65762295D01*
X193657143Y-65762295D02*
X193961905Y-65762295D01*
X193961905Y-65762295D02*
X194038095Y-65800390D01*
X194038095Y-65800390D02*
X194076190Y-65838485D01*
X194076190Y-65838485D02*
X194114286Y-65914676D01*
X194114286Y-65914676D02*
X194114286Y-66028961D01*
X194114286Y-66028961D02*
X194076190Y-66105152D01*
X194076190Y-66105152D02*
X194038095Y-66143247D01*
X194038095Y-66143247D02*
X193961905Y-66181342D01*
X193961905Y-66181342D02*
X193657143Y-66181342D01*
X194419047Y-65838485D02*
X194457143Y-65800390D01*
X194457143Y-65800390D02*
X194533333Y-65762295D01*
X194533333Y-65762295D02*
X194723809Y-65762295D01*
X194723809Y-65762295D02*
X194800000Y-65800390D01*
X194800000Y-65800390D02*
X194838095Y-65838485D01*
X194838095Y-65838485D02*
X194876190Y-65914676D01*
X194876190Y-65914676D02*
X194876190Y-65990866D01*
X194876190Y-65990866D02*
X194838095Y-66105152D01*
X194838095Y-66105152D02*
X194380952Y-66562295D01*
X194380952Y-66562295D02*
X194876190Y-66562295D01*
X139711667Y-69227295D02*
X139445000Y-68846342D01*
X139254524Y-69227295D02*
X139254524Y-68427295D01*
X139254524Y-68427295D02*
X139559286Y-68427295D01*
X139559286Y-68427295D02*
X139635476Y-68465390D01*
X139635476Y-68465390D02*
X139673571Y-68503485D01*
X139673571Y-68503485D02*
X139711667Y-68579676D01*
X139711667Y-68579676D02*
X139711667Y-68693961D01*
X139711667Y-68693961D02*
X139673571Y-68770152D01*
X139673571Y-68770152D02*
X139635476Y-68808247D01*
X139635476Y-68808247D02*
X139559286Y-68846342D01*
X139559286Y-68846342D02*
X139254524Y-68846342D01*
X140016428Y-68503485D02*
X140054524Y-68465390D01*
X140054524Y-68465390D02*
X140130714Y-68427295D01*
X140130714Y-68427295D02*
X140321190Y-68427295D01*
X140321190Y-68427295D02*
X140397381Y-68465390D01*
X140397381Y-68465390D02*
X140435476Y-68503485D01*
X140435476Y-68503485D02*
X140473571Y-68579676D01*
X140473571Y-68579676D02*
X140473571Y-68655866D01*
X140473571Y-68655866D02*
X140435476Y-68770152D01*
X140435476Y-68770152D02*
X139978333Y-69227295D01*
X139978333Y-69227295D02*
X140473571Y-69227295D01*
X121300476Y-95907295D02*
X121300476Y-96554914D01*
X121300476Y-96554914D02*
X121338571Y-96631104D01*
X121338571Y-96631104D02*
X121376666Y-96669200D01*
X121376666Y-96669200D02*
X121452857Y-96707295D01*
X121452857Y-96707295D02*
X121605238Y-96707295D01*
X121605238Y-96707295D02*
X121681428Y-96669200D01*
X121681428Y-96669200D02*
X121719523Y-96631104D01*
X121719523Y-96631104D02*
X121757619Y-96554914D01*
X121757619Y-96554914D02*
X121757619Y-95907295D01*
X122557618Y-96707295D02*
X122100475Y-96707295D01*
X122329047Y-96707295D02*
X122329047Y-95907295D01*
X122329047Y-95907295D02*
X122252856Y-96021580D01*
X122252856Y-96021580D02*
X122176666Y-96097771D01*
X122176666Y-96097771D02*
X122100475Y-96135866D01*
X191295238Y-65486104D02*
X191257142Y-65524200D01*
X191257142Y-65524200D02*
X191142857Y-65562295D01*
X191142857Y-65562295D02*
X191066666Y-65562295D01*
X191066666Y-65562295D02*
X190952380Y-65524200D01*
X190952380Y-65524200D02*
X190876190Y-65448009D01*
X190876190Y-65448009D02*
X190838095Y-65371819D01*
X190838095Y-65371819D02*
X190799999Y-65219438D01*
X190799999Y-65219438D02*
X190799999Y-65105152D01*
X190799999Y-65105152D02*
X190838095Y-64952771D01*
X190838095Y-64952771D02*
X190876190Y-64876580D01*
X190876190Y-64876580D02*
X190952380Y-64800390D01*
X190952380Y-64800390D02*
X191066666Y-64762295D01*
X191066666Y-64762295D02*
X191142857Y-64762295D01*
X191142857Y-64762295D02*
X191257142Y-64800390D01*
X191257142Y-64800390D02*
X191295238Y-64838485D01*
X191447619Y-65638485D02*
X192057142Y-65638485D01*
X192133333Y-64762295D02*
X192400000Y-65562295D01*
X192400000Y-65562295D02*
X192666666Y-64762295D01*
X192895237Y-65524200D02*
X193009523Y-65562295D01*
X193009523Y-65562295D02*
X193199999Y-65562295D01*
X193199999Y-65562295D02*
X193276190Y-65524200D01*
X193276190Y-65524200D02*
X193314285Y-65486104D01*
X193314285Y-65486104D02*
X193352380Y-65409914D01*
X193352380Y-65409914D02*
X193352380Y-65333723D01*
X193352380Y-65333723D02*
X193314285Y-65257533D01*
X193314285Y-65257533D02*
X193276190Y-65219438D01*
X193276190Y-65219438D02*
X193199999Y-65181342D01*
X193199999Y-65181342D02*
X193047618Y-65143247D01*
X193047618Y-65143247D02*
X192971428Y-65105152D01*
X192971428Y-65105152D02*
X192933333Y-65067057D01*
X192933333Y-65067057D02*
X192895237Y-64990866D01*
X192895237Y-64990866D02*
X192895237Y-64914676D01*
X192895237Y-64914676D02*
X192933333Y-64838485D01*
X192933333Y-64838485D02*
X192971428Y-64800390D01*
X192971428Y-64800390D02*
X193047618Y-64762295D01*
X193047618Y-64762295D02*
X193238095Y-64762295D01*
X193238095Y-64762295D02*
X193352380Y-64800390D01*
X193657142Y-65333723D02*
X194038095Y-65333723D01*
X193580952Y-65562295D02*
X193847619Y-64762295D01*
X193847619Y-64762295D02*
X194114285Y-65562295D01*
X194342856Y-64838485D02*
X194380952Y-64800390D01*
X194380952Y-64800390D02*
X194457142Y-64762295D01*
X194457142Y-64762295D02*
X194647618Y-64762295D01*
X194647618Y-64762295D02*
X194723809Y-64800390D01*
X194723809Y-64800390D02*
X194761904Y-64838485D01*
X194761904Y-64838485D02*
X194799999Y-64914676D01*
X194799999Y-64914676D02*
X194799999Y-64990866D01*
X194799999Y-64990866D02*
X194761904Y-65105152D01*
X194761904Y-65105152D02*
X194304761Y-65562295D01*
X194304761Y-65562295D02*
X194799999Y-65562295D01*
X136821667Y-67521104D02*
X136783571Y-67559200D01*
X136783571Y-67559200D02*
X136669286Y-67597295D01*
X136669286Y-67597295D02*
X136593095Y-67597295D01*
X136593095Y-67597295D02*
X136478809Y-67559200D01*
X136478809Y-67559200D02*
X136402619Y-67483009D01*
X136402619Y-67483009D02*
X136364524Y-67406819D01*
X136364524Y-67406819D02*
X136326428Y-67254438D01*
X136326428Y-67254438D02*
X136326428Y-67140152D01*
X136326428Y-67140152D02*
X136364524Y-66987771D01*
X136364524Y-66987771D02*
X136402619Y-66911580D01*
X136402619Y-66911580D02*
X136478809Y-66835390D01*
X136478809Y-66835390D02*
X136593095Y-66797295D01*
X136593095Y-66797295D02*
X136669286Y-66797295D01*
X136669286Y-66797295D02*
X136783571Y-66835390D01*
X136783571Y-66835390D02*
X136821667Y-66873485D01*
X137507381Y-66797295D02*
X137355000Y-66797295D01*
X137355000Y-66797295D02*
X137278809Y-66835390D01*
X137278809Y-66835390D02*
X137240714Y-66873485D01*
X137240714Y-66873485D02*
X137164524Y-66987771D01*
X137164524Y-66987771D02*
X137126428Y-67140152D01*
X137126428Y-67140152D02*
X137126428Y-67444914D01*
X137126428Y-67444914D02*
X137164524Y-67521104D01*
X137164524Y-67521104D02*
X137202619Y-67559200D01*
X137202619Y-67559200D02*
X137278809Y-67597295D01*
X137278809Y-67597295D02*
X137431190Y-67597295D01*
X137431190Y-67597295D02*
X137507381Y-67559200D01*
X137507381Y-67559200D02*
X137545476Y-67521104D01*
X137545476Y-67521104D02*
X137583571Y-67444914D01*
X137583571Y-67444914D02*
X137583571Y-67254438D01*
X137583571Y-67254438D02*
X137545476Y-67178247D01*
X137545476Y-67178247D02*
X137507381Y-67140152D01*
X137507381Y-67140152D02*
X137431190Y-67102057D01*
X137431190Y-67102057D02*
X137278809Y-67102057D01*
X137278809Y-67102057D02*
X137202619Y-67140152D01*
X137202619Y-67140152D02*
X137164524Y-67178247D01*
X137164524Y-67178247D02*
X137126428Y-67254438D01*
D11*
X183440000Y-77892164D02*
X183440000Y-78107836D01*
X184160000Y-77892164D02*
X184160000Y-78107836D01*
X188760000Y-76492164D02*
X188760000Y-76707836D01*
X189480000Y-76492164D02*
X189480000Y-76707836D01*
X104615000Y-75985000D02*
X106035000Y-75985000D01*
X104615000Y-87705000D02*
X104615000Y-75985000D01*
X106035000Y-75985000D02*
X106035000Y-80485000D01*
X106035000Y-80485000D02*
X110925000Y-80485000D01*
X106875000Y-76295000D02*
X107475000Y-76295000D01*
X107175000Y-76895000D02*
X106875000Y-76295000D01*
X107475000Y-76295000D02*
X107175000Y-76895000D01*
X110925000Y-87705000D02*
X104615000Y-87705000D01*
X110925000Y-87705000D02*
X117235000Y-87705000D01*
X115815000Y-75985000D02*
X115815000Y-80485000D01*
X115815000Y-80485000D02*
X110925000Y-80485000D01*
X117235000Y-75985000D02*
X115815000Y-75985000D01*
X117235000Y-87705000D02*
X117235000Y-75985000D01*
X106925000Y-81595000D02*
X107425000Y-81595000D01*
X107425000Y-87095000D01*
X106925000Y-87095000D01*
X106925000Y-81595000D01*
X109425000Y-81595000D02*
X109925000Y-81595000D01*
X109925000Y-87095000D01*
X109425000Y-87095000D01*
X109425000Y-81595000D01*
X111925000Y-81595000D02*
X112425000Y-81595000D01*
X112425000Y-87095000D01*
X111925000Y-87095000D01*
X111925000Y-81595000D01*
X114425000Y-81595000D02*
X114925000Y-81595000D01*
X114925000Y-87095000D01*
X114425000Y-87095000D01*
X114425000Y-81595000D01*
X187172164Y-119705000D02*
X187387836Y-119705000D01*
X187172164Y-120425000D02*
X187387836Y-120425000D01*
X187172164Y-111825000D02*
X187387836Y-111825000D01*
X187172164Y-112545000D02*
X187387836Y-112545000D01*
X187172164Y-113795000D02*
X187387836Y-113795000D01*
X187172164Y-114515000D02*
X187387836Y-114515000D01*
X191040000Y-68412164D02*
X191040000Y-68627836D01*
X191760000Y-68412164D02*
X191760000Y-68627836D01*
X187172164Y-115765000D02*
X187387836Y-115765000D01*
X187172164Y-116485000D02*
X187387836Y-116485000D01*
X104325000Y-89205000D02*
X104325000Y-90455000D01*
X104625000Y-91755000D02*
X105375000Y-91755000D01*
X105375000Y-91755000D02*
X105375000Y-94705000D01*
X105375000Y-94705000D02*
X110925000Y-94705000D01*
X105575000Y-89205000D02*
X104325000Y-89205000D01*
X116475000Y-91755000D02*
X116475000Y-94705000D01*
X116475000Y-94705000D02*
X110925000Y-94705000D01*
X117225000Y-91755000D02*
X116475000Y-91755000D01*
X104615000Y-89495000D02*
X117235000Y-89495000D01*
X117235000Y-95465000D01*
X104615000Y-95465000D01*
X104615000Y-89495000D01*
X104625000Y-89505000D02*
X106425000Y-89505000D01*
X106425000Y-90255000D01*
X104625000Y-90255000D01*
X104625000Y-89505000D01*
X107925000Y-89505000D02*
X113925000Y-89505000D01*
X113925000Y-90255000D01*
X107925000Y-90255000D01*
X107925000Y-89505000D01*
X115425000Y-89505000D02*
X117225000Y-89505000D01*
X117225000Y-90255000D01*
X115425000Y-90255000D01*
X115425000Y-89505000D01*
X104325000Y-102765000D02*
X104325000Y-104015000D01*
X104625000Y-105315000D02*
X105375000Y-105315000D01*
X105375000Y-105315000D02*
X105375000Y-108265000D01*
X105375000Y-108265000D02*
X110925000Y-108265000D01*
X105575000Y-102765000D02*
X104325000Y-102765000D01*
X116475000Y-105315000D02*
X116475000Y-108265000D01*
X116475000Y-108265000D02*
X110925000Y-108265000D01*
X117225000Y-105315000D02*
X116475000Y-105315000D01*
X104615000Y-103055000D02*
X117235000Y-103055000D01*
X117235000Y-109025000D01*
X104615000Y-109025000D01*
X104615000Y-103055000D01*
X104625000Y-103065000D02*
X106425000Y-103065000D01*
X106425000Y-103815000D01*
X104625000Y-103815000D01*
X104625000Y-103065000D01*
X107925000Y-103065000D02*
X113925000Y-103065000D01*
X113925000Y-103815000D01*
X107925000Y-103815000D01*
X107925000Y-103065000D01*
X115425000Y-103065000D02*
X117225000Y-103065000D01*
X117225000Y-103815000D01*
X115425000Y-103815000D01*
X115425000Y-103065000D01*
X187172164Y-121675000D02*
X187387836Y-121675000D01*
X187172164Y-122395000D02*
X187387836Y-122395000D01*
X184155000Y-67625000D02*
X184630000Y-67625000D01*
X184155000Y-68100000D02*
X184155000Y-67625000D01*
X184155000Y-73845000D02*
X184155000Y-73370000D01*
X184630000Y-73845000D02*
X184155000Y-73845000D01*
X188900000Y-67625000D02*
X189375000Y-67625000D01*
X189375000Y-67625000D02*
X189375000Y-68100000D01*
X189375000Y-73370000D02*
X189375000Y-73845000D01*
X189375000Y-73845000D02*
X188900000Y-73845000D01*
X183625000Y-68485000D02*
X183295000Y-68725000D01*
X183295000Y-68245000D01*
X183625000Y-68485000D01*
G36*
X183625000Y-68485000D02*
G01*
X183295000Y-68725000D01*
X183295000Y-68245000D01*
X183625000Y-68485000D01*
G37*
X142275000Y-71090000D02*
X142275000Y-70890000D01*
X142275000Y-71090000D02*
X143225000Y-71090000D01*
X144625000Y-71090000D02*
X145575000Y-71090000D01*
X145575000Y-67790000D02*
X142640000Y-67790000D01*
X145575000Y-67990000D02*
X145575000Y-67790000D01*
X145575000Y-70890000D02*
X145575000Y-71090000D01*
X142115000Y-67940000D02*
X141875000Y-67610000D01*
X142355000Y-67610000D01*
X142115000Y-67940000D01*
G36*
X142115000Y-67940000D02*
G01*
X141875000Y-67610000D01*
X142355000Y-67610000D01*
X142115000Y-67940000D01*
G37*
X193259420Y-70090000D02*
X193540580Y-70090000D01*
X193259420Y-71110000D02*
X193540580Y-71110000D01*
X136847164Y-62125000D02*
X137062836Y-62125000D01*
X136847164Y-62845000D02*
X137062836Y-62845000D01*
X182316263Y-120370000D02*
X183763737Y-120370000D01*
X182316263Y-123080000D02*
X183763737Y-123080000D01*
X190135000Y-112245000D02*
X190610000Y-112245000D01*
X190135000Y-112720000D02*
X190135000Y-112245000D01*
X190135000Y-118465000D02*
X190135000Y-117990000D01*
X190610000Y-118465000D02*
X190135000Y-118465000D01*
X194880000Y-112245000D02*
X195355000Y-112245000D01*
X195355000Y-112245000D02*
X195355000Y-112720000D01*
X195355000Y-117990000D02*
X195355000Y-118465000D01*
X195355000Y-118465000D02*
X194880000Y-118465000D01*
X189605000Y-113105000D02*
X189275000Y-113345000D01*
X189275000Y-112865000D01*
X189605000Y-113105000D01*
G36*
X189605000Y-113105000D02*
G01*
X189275000Y-113345000D01*
X189275000Y-112865000D01*
X189605000Y-113105000D01*
G37*
X118710000Y-83995000D02*
X118710000Y-87295000D01*
X118710000Y-83995000D02*
X124220000Y-83995000D01*
X118710000Y-87295000D02*
X124220000Y-87295000D01*
X120245000Y-93190000D02*
X123465000Y-93190000D01*
X120245000Y-93365000D02*
X120245000Y-93190000D01*
X120245000Y-96410000D02*
X120245000Y-96235000D01*
X123465000Y-93190000D02*
X123465000Y-93365000D01*
X123465000Y-96235000D02*
X123465000Y-96410000D01*
X123465000Y-96410000D02*
X120245000Y-96410000D01*
X119695000Y-93360000D02*
X119455000Y-93030000D01*
X119935000Y-93030000D01*
X119695000Y-93360000D01*
G36*
X119695000Y-93360000D02*
G01*
X119455000Y-93030000D01*
X119935000Y-93030000D01*
X119695000Y-93360000D01*
G37*
X136847164Y-64095000D02*
X137062836Y-64095000D01*
X136847164Y-64815000D02*
X137062836Y-64815000D01*
X119065000Y-70735000D02*
X120485000Y-70735000D01*
X119065000Y-82455000D02*
X119065000Y-70735000D01*
X120485000Y-70735000D02*
X120485000Y-75235000D01*
X120485000Y-75235000D02*
X122875000Y-75235000D01*
X121325000Y-71045000D02*
X121925000Y-71045000D01*
X121625000Y-71645000D02*
X121325000Y-71045000D01*
X121925000Y-71045000D02*
X121625000Y-71645000D01*
X122875000Y-82455000D02*
X119065000Y-82455000D01*
X122875000Y-82455000D02*
X126685000Y-82455000D01*
X125265000Y-70735000D02*
X125265000Y-75235000D01*
X125265000Y-75235000D02*
X122875000Y-75235000D01*
X126685000Y-70735000D02*
X125265000Y-70735000D01*
X126685000Y-82455000D02*
X126685000Y-70735000D01*
X121375000Y-76345000D02*
X121875000Y-76345000D01*
X121875000Y-81845000D01*
X121375000Y-81845000D01*
X121375000Y-76345000D01*
X123875000Y-76345000D02*
X124375000Y-76345000D01*
X124375000Y-81845000D01*
X123875000Y-81845000D01*
X123875000Y-76345000D01*
X143413748Y-72525000D02*
X144836252Y-72525000D01*
X143413748Y-74345000D02*
X144836252Y-74345000D01*
X185645000Y-63323737D02*
X185645000Y-61876263D01*
X188355000Y-63323737D02*
X188355000Y-61876263D01*
X190579420Y-127015000D02*
X190860580Y-127015000D01*
X190579420Y-128035000D02*
X190860580Y-128035000D01*
X191020000Y-70553641D02*
X191020000Y-70246359D01*
X191780000Y-70553641D02*
X191780000Y-70246359D01*
X104615000Y-62425000D02*
X106035000Y-62425000D01*
X104615000Y-74145000D02*
X104615000Y-62425000D01*
X106035000Y-62425000D02*
X106035000Y-66925000D01*
X106035000Y-66925000D02*
X110925000Y-66925000D01*
X106875000Y-62735000D02*
X107475000Y-62735000D01*
X107175000Y-63335000D02*
X106875000Y-62735000D01*
X107475000Y-62735000D02*
X107175000Y-63335000D01*
X110925000Y-74145000D02*
X104615000Y-74145000D01*
X110925000Y-74145000D02*
X117235000Y-74145000D01*
X115815000Y-62425000D02*
X115815000Y-66925000D01*
X115815000Y-66925000D02*
X110925000Y-66925000D01*
X117235000Y-62425000D02*
X115815000Y-62425000D01*
X117235000Y-74145000D02*
X117235000Y-62425000D01*
X106925000Y-68035000D02*
X107425000Y-68035000D01*
X107425000Y-73535000D01*
X106925000Y-73535000D01*
X106925000Y-68035000D01*
X109425000Y-68035000D02*
X109925000Y-68035000D01*
X109925000Y-73535000D01*
X109425000Y-73535000D01*
X109425000Y-68035000D01*
X111925000Y-68035000D02*
X112425000Y-68035000D01*
X112425000Y-73535000D01*
X111925000Y-73535000D01*
X111925000Y-68035000D01*
X114425000Y-68035000D02*
X114925000Y-68035000D01*
X114925000Y-73535000D01*
X114425000Y-73535000D01*
X114425000Y-68035000D01*
X194026359Y-126365000D02*
X194333641Y-126365000D01*
X194026359Y-127125000D02*
X194333641Y-127125000D01*
X136847164Y-70005000D02*
X137062836Y-70005000D01*
X136847164Y-70725000D02*
X137062836Y-70725000D01*
X139691359Y-71645000D02*
X139998641Y-71645000D01*
X139691359Y-72405000D02*
X139998641Y-72405000D01*
X185045000Y-77276263D02*
X185045000Y-78723737D01*
X187755000Y-77276263D02*
X187755000Y-78723737D01*
X193540580Y-68490000D02*
X193259420Y-68490000D01*
X193540580Y-69510000D02*
X193259420Y-69510000D01*
X190579420Y-124505000D02*
X190860580Y-124505000D01*
X190579420Y-125525000D02*
X190860580Y-125525000D01*
X190828748Y-120275000D02*
X192251252Y-120275000D01*
X190828748Y-122995000D02*
X192251252Y-122995000D01*
X181840000Y-72412164D02*
X181840000Y-72627836D01*
X182560000Y-72412164D02*
X182560000Y-72627836D01*
X189040000Y-62707836D02*
X189040000Y-62492164D01*
X189760000Y-62707836D02*
X189760000Y-62492164D01*
X139691359Y-73635000D02*
X139998641Y-73635000D01*
X139691359Y-74395000D02*
X139998641Y-74395000D01*
X187172164Y-117735000D02*
X187387836Y-117735000D01*
X187172164Y-118455000D02*
X187387836Y-118455000D01*
X118710000Y-88545000D02*
X118710000Y-91845000D01*
X118710000Y-88545000D02*
X124220000Y-88545000D01*
X118710000Y-91845000D02*
X124220000Y-91845000D01*
X139691359Y-67665000D02*
X139998641Y-67665000D01*
X139691359Y-68425000D02*
X139998641Y-68425000D01*
X145904420Y-62245000D02*
X146185580Y-62245000D01*
X145904420Y-63265000D02*
X146185580Y-63265000D01*
X192353641Y-71420000D02*
X192046359Y-71420000D01*
X192353641Y-72180000D02*
X192046359Y-72180000D01*
X189840000Y-77288748D02*
X189840000Y-78711252D01*
X192560000Y-77288748D02*
X192560000Y-78711252D01*
X136847164Y-66065000D02*
X137062836Y-66065000D01*
X136847164Y-66785000D02*
X137062836Y-66785000D01*
X139105000Y-62165000D02*
X143325000Y-62165000D01*
X143325000Y-66385000D02*
X139105000Y-66385000D01*
X182316263Y-111950000D02*
X183763737Y-111950000D01*
X182316263Y-114660000D02*
X183763737Y-114660000D01*
X187172164Y-123645000D02*
X187387836Y-123645000D01*
X187172164Y-124365000D02*
X187387836Y-124365000D01*
X194026359Y-124375000D02*
X194333641Y-124375000D01*
X194026359Y-125135000D02*
X194333641Y-125135000D01*
X189492164Y-65840000D02*
X189707836Y-65840000D01*
X189492164Y-66560000D02*
X189707836Y-66560000D01*
X139691359Y-69655000D02*
X139998641Y-69655000D01*
X139691359Y-70415000D02*
X139998641Y-70415000D01*
X119785000Y-98220000D02*
X119785000Y-102470000D01*
X119785000Y-98220000D02*
X124035000Y-98220000D01*
X119785000Y-102470000D02*
X124035000Y-102470000D01*
X124035000Y-98220000D02*
X124035000Y-102470000D01*
X119110000Y-97845000D02*
G75*
G02*
X118710000Y-97845000I-200000J0D01*
G01*
X118710000Y-97845000D02*
G75*
G02*
X119110000Y-97845000I200000J0D01*
G01*
X189492164Y-64840000D02*
X189707836Y-64840000D01*
X189492164Y-65560000D02*
X189707836Y-65560000D01*
X136847164Y-68035000D02*
X137062836Y-68035000D01*
X136847164Y-68755000D02*
X137062836Y-68755000D01*
M02*
