G04 #@! TF.GenerationSoftware,KiCad,Pcbnew,10.0.4*
G04 #@! TF.CreationDate,2026-07-01T20:35:11-07:00*
G04 #@! TF.ProjectId,ministepper,6d696e69-7374-4657-9070-65722e6b6963,0.1*
G04 #@! TF.SameCoordinates,Original*
G04 #@! TF.FileFunction,Paste,Top*
G04 #@! TF.FilePolarity,Positive*
%FSLAX46Y46*%
G04 Gerber Fmt 4.6, Leading zero omitted, Abs format (unit mm)*
G04 Created by KiCad (PCBNEW 10.0.4) date 2026-07-01 20:35:11*
%MOMM*%
%LPD*%
G01*
G04 APERTURE LIST*
G04 Aperture macros list*
%AMRoundRect*
0 Rectangle with rounded corners*
0 $1 Rounding radius*
0 $2 $3 $4 $5 $6 $7 $8 $9 X,Y pos of 4 corners*
0 Add a 4 corners polygon primitive as box body*
4,1,4,$2,$3,$4,$5,$6,$7,$8,$9,$2,$3,0*
0 Add four circle primitives for the rounded corners*
1,1,$1+$1,$2,$3*
1,1,$1+$1,$4,$5*
1,1,$1+$1,$6,$7*
1,1,$1+$1,$8,$9*
0 Add four rect primitives between the rounded corners*
20,1,$1+$1,$2,$3,$4,$5,0*
20,1,$1+$1,$4,$5,$6,$7,0*
20,1,$1+$1,$6,$7,$8,$9,0*
20,1,$1+$1,$8,$9,$2,$3,0*%
G04 Aperture macros list end*
%ADD10RoundRect,0.140000X-0.170000X0.140000X-0.170000X-0.140000X0.170000X-0.140000X0.170000X0.140000X0*%
%ADD11RoundRect,0.140000X-0.140000X-0.170000X0.140000X-0.170000X0.140000X0.170000X-0.140000X0.170000X0*%
%ADD12RoundRect,0.140000X0.170000X-0.140000X0.170000X0.140000X-0.170000X0.140000X-0.170000X-0.140000X0*%
%ADD13RoundRect,0.135000X-0.135000X-0.185000X0.135000X-0.185000X0.135000X0.185000X-0.135000X0.185000X0*%
%ADD14RoundRect,0.232500X-0.252500X-0.232500X0.252500X-0.232500X0.252500X0.232500X-0.252500X0.232500X0*%
%ADD15RoundRect,0.062500X-0.375000X-0.062500X0.375000X-0.062500X0.375000X0.062500X-0.375000X0.062500X0*%
%ADD16RoundRect,0.062500X-0.062500X-0.375000X0.062500X-0.375000X0.062500X0.375000X-0.062500X0.375000X0*%
%ADD17R,1.000000X0.750000*%
%ADD18R,0.200000X0.300000*%
%ADD19O,0.550000X0.300000*%
%ADD20R,0.650000X1.000000*%
%ADD21RoundRect,0.225000X-0.225000X-0.250000X0.225000X-0.250000X0.225000X0.250000X-0.225000X0.250000X0*%
%ADD22RoundRect,0.250000X-1.075000X0.312500X-1.075000X-0.312500X1.075000X-0.312500X1.075000X0.312500X0*%
%ADD23RoundRect,0.250000X-1.000000X-0.650000X1.000000X-0.650000X1.000000X0.650000X-1.000000X0.650000X0*%
%ADD24RoundRect,0.100000X-0.712500X-0.100000X0.712500X-0.100000X0.712500X0.100000X-0.712500X0.100000X0*%
%ADD25RoundRect,0.250000X-0.325000X-0.650000X0.325000X-0.650000X0.325000X0.650000X-0.325000X0.650000X0*%
%ADD26RoundRect,0.250000X1.075000X-0.312500X1.075000X0.312500X-1.075000X0.312500X-1.075000X-0.312500X0*%
%ADD27RoundRect,0.225000X0.225000X0.250000X-0.225000X0.250000X-0.225000X-0.250000X0.225000X-0.250000X0*%
%ADD28RoundRect,0.135000X0.185000X-0.135000X0.185000X0.135000X-0.185000X0.135000X-0.185000X-0.135000X0*%
%ADD29RoundRect,0.250000X-1.100000X0.325000X-1.100000X-0.325000X1.100000X-0.325000X1.100000X0.325000X0*%
%ADD30RoundRect,0.135000X0.135000X0.185000X-0.135000X0.185000X-0.135000X-0.185000X0.135000X-0.185000X0*%
%ADD31RoundRect,0.250000X-0.300000X-1.600000X0.300000X-1.600000X0.300000X1.600000X-0.300000X1.600000X0*%
%ADD32R,0.280000X0.700000*%
%ADD33RoundRect,0.070000X-0.070000X0.280000X-0.070000X-0.280000X0.070000X-0.280000X0.070000X0.280000X0*%
%ADD34RoundRect,0.070000X-0.280000X0.070000X-0.280000X-0.070000X0.280000X-0.070000X0.280000X0.070000X0*%
%ADD35R,3.500000X3.500000*%
%ADD36RoundRect,0.150000X-0.150000X-0.425000X0.150000X-0.425000X0.150000X0.425000X-0.150000X0.425000X0*%
%ADD37RoundRect,0.075000X-0.075000X-0.500000X0.075000X-0.500000X0.075000X0.500000X-0.075000X0.500000X0*%
%ADD38O,1.000000X2.100000*%
%ADD39O,1.000000X1.800000*%
G04 APERTURE END LIST*
D10*
X75650000Y-90190000D03*
X75650000Y-91150000D03*
X80970000Y-88790000D03*
X80970000Y-89750000D03*
D11*
X81220000Y-104870000D03*
X82180000Y-104870000D03*
D12*
X81500000Y-101750000D03*
X81500000Y-100790000D03*
D10*
X75900000Y-116190000D03*
X75900000Y-117150000D03*
X83250000Y-80710000D03*
X83250000Y-81670000D03*
X83500000Y-106710000D03*
X83500000Y-107670000D03*
X81220000Y-114790000D03*
X81220000Y-115750000D03*
D13*
X131335000Y-117275000D03*
X132355000Y-117275000D03*
D14*
X77415000Y-81680000D03*
X77415000Y-82830000D03*
X77415000Y-83980000D03*
X77415000Y-85130000D03*
X78615000Y-81680000D03*
X78615000Y-82830000D03*
X78615000Y-83980000D03*
X78615000Y-85130000D03*
X79815000Y-81680000D03*
X79815000Y-82830000D03*
X79815000Y-83980000D03*
X79815000Y-85130000D03*
D15*
X76177500Y-81155000D03*
X76177500Y-81655000D03*
X76177500Y-82155000D03*
X76177500Y-82655000D03*
X76177500Y-83155000D03*
X76177500Y-83655000D03*
X76177500Y-84155000D03*
X76177500Y-84655000D03*
X76177500Y-85155000D03*
X76177500Y-85655000D03*
D16*
X76865000Y-86342500D03*
X77365000Y-86342500D03*
X77865000Y-86342500D03*
X78365000Y-86342500D03*
X78865000Y-86342500D03*
X79365000Y-86342500D03*
X79865000Y-86342500D03*
X80365000Y-86342500D03*
D15*
X81052500Y-85655000D03*
X81052500Y-85155000D03*
X81052500Y-84655000D03*
X81052500Y-84155000D03*
X81052500Y-83655000D03*
X81052500Y-83155000D03*
X81052500Y-82655000D03*
X81052500Y-82155000D03*
X81052500Y-81655000D03*
X81052500Y-81155000D03*
D16*
X80365000Y-80467500D03*
X79865000Y-80467500D03*
X79365000Y-80467500D03*
X78865000Y-80467500D03*
X78365000Y-80467500D03*
X77865000Y-80467500D03*
X77365000Y-80467500D03*
X76865000Y-80467500D03*
D17*
X146375000Y-123750000D03*
X152375000Y-123750000D03*
X146375000Y-127500000D03*
X152375000Y-127500000D03*
D18*
X142175000Y-68465000D03*
D19*
X142375000Y-68465000D03*
D18*
X142175000Y-69115000D03*
D19*
X142375000Y-69115000D03*
D18*
X142175000Y-69765000D03*
D19*
X142375000Y-69765000D03*
D18*
X142175000Y-70415000D03*
D19*
X142375000Y-70415000D03*
X145475000Y-70415000D03*
D18*
X145675000Y-70415000D03*
D19*
X145475000Y-69765000D03*
D18*
X145675000Y-69765000D03*
D19*
X145475000Y-69115000D03*
D18*
X145675000Y-69115000D03*
D19*
X145475000Y-68465000D03*
D18*
X145675000Y-68465000D03*
D20*
X143475000Y-68815000D03*
X143475000Y-70065000D03*
X144375000Y-68815000D03*
X144375000Y-70065000D03*
D21*
X127980000Y-127095000D03*
X129530000Y-127095000D03*
X84475000Y-83270000D03*
X86025000Y-83270000D03*
D11*
X136475000Y-62485000D03*
X137435000Y-62485000D03*
D22*
X78500000Y-115207500D03*
X78500000Y-118132500D03*
D14*
X77665000Y-107680000D03*
X77665000Y-108830000D03*
X77665000Y-109980000D03*
X77665000Y-111130000D03*
X78865000Y-107680000D03*
X78865000Y-108830000D03*
X78865000Y-109980000D03*
X78865000Y-111130000D03*
X80065000Y-107680000D03*
X80065000Y-108830000D03*
X80065000Y-109980000D03*
X80065000Y-111130000D03*
D15*
X76427500Y-107155000D03*
X76427500Y-107655000D03*
X76427500Y-108155000D03*
X76427500Y-108655000D03*
X76427500Y-109155000D03*
X76427500Y-109655000D03*
X76427500Y-110155000D03*
X76427500Y-110655000D03*
X76427500Y-111155000D03*
X76427500Y-111655000D03*
D16*
X77115000Y-112342500D03*
X77615000Y-112342500D03*
X78115000Y-112342500D03*
X78615000Y-112342500D03*
X79115000Y-112342500D03*
X79615000Y-112342500D03*
X80115000Y-112342500D03*
X80615000Y-112342500D03*
D15*
X81302500Y-111655000D03*
X81302500Y-111155000D03*
X81302500Y-110655000D03*
X81302500Y-110155000D03*
X81302500Y-109655000D03*
X81302500Y-109155000D03*
X81302500Y-108655000D03*
X81302500Y-108155000D03*
X81302500Y-107655000D03*
X81302500Y-107155000D03*
D16*
X80615000Y-106467500D03*
X80115000Y-106467500D03*
X79615000Y-106467500D03*
X79115000Y-106467500D03*
X78615000Y-106467500D03*
X78115000Y-106467500D03*
X77615000Y-106467500D03*
X77115000Y-106467500D03*
D23*
X120220000Y-85645000D03*
X124220000Y-85645000D03*
D24*
X150025000Y-89450000D03*
X150025000Y-90100000D03*
X150025000Y-90750000D03*
X150025000Y-91400000D03*
X154250000Y-91400000D03*
X154250000Y-90750000D03*
X154250000Y-90100000D03*
X154250000Y-89450000D03*
D11*
X136475000Y-64455000D03*
X137435000Y-64455000D03*
D25*
X142650000Y-73435000D03*
X145600000Y-73435000D03*
D26*
X78850000Y-76732500D03*
X78850000Y-73807500D03*
D13*
X131335000Y-119265000D03*
X132355000Y-119265000D03*
D27*
X86275000Y-107670000D03*
X84725000Y-107670000D03*
D28*
X83250000Y-83580000D03*
X83250000Y-82560000D03*
D11*
X132055000Y-125245000D03*
X133015000Y-125245000D03*
D28*
X83500000Y-109580000D03*
X83500000Y-108560000D03*
D11*
X136475000Y-70365000D03*
X137435000Y-70365000D03*
X132055000Y-123275000D03*
X133015000Y-123275000D03*
D13*
X139335000Y-72025000D03*
X140355000Y-72025000D03*
D22*
X78250000Y-89207500D03*
X78250000Y-92132500D03*
D27*
X86025000Y-81670000D03*
X84475000Y-81670000D03*
D13*
X131335000Y-115285000D03*
X132355000Y-115285000D03*
D21*
X84725000Y-109270000D03*
X86275000Y-109270000D03*
D29*
X83300000Y-115195000D03*
X83300000Y-118145000D03*
D10*
X74050000Y-84710000D03*
X74050000Y-85670000D03*
D12*
X81250000Y-75750000D03*
X81250000Y-74790000D03*
D13*
X139335000Y-74015000D03*
X140355000Y-74015000D03*
D10*
X74300000Y-110710000D03*
X74300000Y-111670000D03*
D23*
X120220000Y-90195000D03*
X124220000Y-90195000D03*
D13*
X139335000Y-68045000D03*
X140355000Y-68045000D03*
D21*
X145270000Y-62755000D03*
X146820000Y-62755000D03*
D30*
X84560000Y-84470000D03*
X83540000Y-84470000D03*
D29*
X83050000Y-89195000D03*
X83050000Y-92145000D03*
D11*
X136475000Y-66425000D03*
X137435000Y-66425000D03*
D31*
X139715000Y-64275000D03*
X142715000Y-64275000D03*
D26*
X79100000Y-102732500D03*
X79100000Y-99807500D03*
D11*
X81220000Y-103870000D03*
X82180000Y-103870000D03*
D30*
X84810000Y-110470000D03*
X83790000Y-110470000D03*
D11*
X80970000Y-78870000D03*
X81930000Y-78870000D03*
D13*
X131335000Y-113295000D03*
X132355000Y-113295000D03*
X139335000Y-70035000D03*
X140355000Y-70035000D03*
D32*
X97750000Y-91750000D03*
D33*
X97250000Y-91750000D03*
X96750000Y-91750000D03*
X96250000Y-91750000D03*
X95750000Y-91750000D03*
X95250000Y-91750000D03*
X94750000Y-91750000D03*
X94250000Y-91750000D03*
D34*
X93500000Y-92500000D03*
X93500000Y-93000000D03*
X93500000Y-93500000D03*
X93500000Y-94000000D03*
X93500000Y-94500000D03*
X93500000Y-95000000D03*
X93500000Y-95500000D03*
X93500000Y-96000000D03*
D33*
X94250000Y-96750000D03*
X94750000Y-96750000D03*
X95250000Y-96750000D03*
X95750000Y-96750000D03*
X96250000Y-96750000D03*
X96750000Y-96750000D03*
X97250000Y-96750000D03*
X97750000Y-96750000D03*
D34*
X98500000Y-96000000D03*
X98500000Y-95500000D03*
X98500000Y-95000000D03*
X98500000Y-94500000D03*
X98500000Y-94000000D03*
X98500000Y-93500000D03*
X98500000Y-93000000D03*
X98500000Y-92500000D03*
D35*
X96000000Y-94250000D03*
D36*
X121345000Y-113905000D03*
X122145000Y-113905000D03*
D37*
X123295000Y-113905000D03*
X124295000Y-113905000D03*
X124795000Y-113905000D03*
X125795000Y-113905000D03*
D36*
X126945000Y-113905000D03*
X127745000Y-113905000D03*
X127745000Y-113905000D03*
X126945000Y-113905000D03*
D37*
X126295000Y-113905000D03*
X125295000Y-113905000D03*
X123795000Y-113905000D03*
X122795000Y-113905000D03*
D36*
X122145000Y-113905000D03*
X121345000Y-113905000D03*
D38*
X120225000Y-114480000D03*
D39*
X120225000Y-118660000D03*
D38*
X128865000Y-114480000D03*
D39*
X128865000Y-118660000D03*
D11*
X80970000Y-77870000D03*
X81930000Y-77870000D03*
X136475000Y-68395000D03*
X137435000Y-68395000D03*
M02*
