<?xml version="1.0" standalone="no"?>
 <!DOCTYPE svg PUBLIC "-//W3C//DTD SVG 1.1//EN" 
 "http://www.w3.org/Graphics/SVG/1.1/DTD/svg11.dtd"> 
<svg
  xmlns:svg="http://www.w3.org/2000/svg"
  xmlns="http://www.w3.org/2000/svg"
  xmlns:xlink="http://www.w3.org/1999/xlink"
  xmlns:inkscape="http://www.inkscape.org/namespaces/inkscape"
  version="1.1"
  width="0.2540mm" height="0.2540mm" viewBox="0.0000 0.0000 0.2540 0.2540">
<title>SVG Image created as pcb-bottom.svg date 2026-04-14T14:30:30 </title>
  <desc>Image generated by PCBNEW </desc>
<g style="fill:#000000; fill-opacity:1.0000;stroke:#000000; stroke-opacity:1.0000;
stroke-linecap:round; stroke-linejoin:round;"
 transform="translate(0 0) scale(1 1)">
</g>
<g style="fill:none; 
stroke:#C872AB; stroke-width:0.1500; stroke-opacity:1; 
stroke-linecap:round; stroke-linejoin:round;">
<path d="M-119.7460 -43.7460
L-11.7460 -43.7460
L-11.7460 -11.7460
L-119.7460 -11.7460
L-119.7460 -43.7460
" />
<path d="M10.0000 10.0000
L-9.7460 10.0000
L-9.7460 -9.7460
L10.0000 -9.7460
L10.0000 10.0000
" />
<path d="M60.0000 12.0000
L60.0000 10.0000
" />
<text x="35.0000" y="11.6500"
textLength="1.4281" font-size="1.7333" lengthAdjust="spacingAndGlyphs"
text-anchor="start" opacity="0" stroke-opacity="0">1</text>
<g class="stroked-text"><desc>1</desc>
<path d="M36.0892 11.5936
L35.3463 11.5936
" />
<path d="M35.7177 11.5936
L35.7177 10.2936
" />
<path d="M35.7177 10.2936
L35.5939 10.4793
" />
<path d="M35.5939 10.4793
L35.4701 10.6031
" />
<path d="M35.4701 10.6031
L35.3463 10.6650
" />
</g><path d="M60.0000 -11.7460
L60.0000 -9.7460
" />
<text x="35.0000" y="-10.0960"
textLength="1.4281" font-size="1.7333" lengthAdjust="spacingAndGlyphs"
text-anchor="start" opacity="0" stroke-opacity="0">1</text>
<g class="stroked-text"><desc>1</desc>
<path d="M36.0892 -10.1524
L35.3463 -10.1524
" />
<path d="M35.7177 -10.1524
L35.7177 -11.4524
" />
<path d="M35.7177 -11.4524
L35.5939 -11.2667
" />
<path d="M35.5939 -11.2667
L35.4701 -11.1429
" />
<path d="M35.4701 -11.1429
L35.3463 -11.0810
" />
</g><path d="M10.0000 60.0000
L12.0000 60.0000
" />
<text x="11.0000" y="35.6500"
textLength="1.3043" font-size="1.7333" lengthAdjust="spacingAndGlyphs"
text-anchor="middle" opacity="0" stroke-opacity="0">A</text>
<g class="stroked-text"><desc>A</desc>
<path d="M10.6905 35.2222
L11.3095 35.2222
" />
<path d="M10.5667 35.5936
L11.0000 34.2936
" />
<path d="M11.0000 34.2936
L11.4333 35.5936
" />
</g><path d="M-9.7460 60.0000
L-11.7460 60.0000
" />
<text x="-10.7460" y="35.6500"
textLength="1.3043" font-size="1.7333" lengthAdjust="spacingAndGlyphs"
text-anchor="middle" opacity="0" stroke-opacity="0">A</text>
<g class="stroked-text"><desc>A</desc>
<path d="M-11.0555 35.2222
L-10.4365 35.2222
" />
<path d="M-11.1793 35.5936
L-10.7460 34.2936
" />
<path d="M-10.7460 34.2936
L-10.3127 35.5936
" />
</g><text x="-96.7460" y="-15.8960"
textLength="22.1500" font-size="2.0000" lengthAdjust="spacingAndGlyphs"
text-anchor="start" opacity="0" stroke-opacity="0">Date: 2026-04-14</text>
<g class="stroked-text"><desc>Date: 2026-04-14</desc>
<path d="M-96.2902 -15.9599
L-96.2902 -17.4599
" />
<path d="M-96.2902 -17.4599
L-95.9330 -17.4599
" />
<path d="M-95.9330 -17.4599
L-95.7187 -17.3884
" />
<path d="M-95.7187 -17.3884
L-95.5759 -17.2456
" />
<path d="M-95.5759 -17.2456
L-95.5045 -17.1027
" />
<path d="M-95.5045 -17.1027
L-95.4330 -16.8170
" />
<path d="M-95.4330 -16.8170
L-95.4330 -16.6027
" />
<path d="M-95.4330 -16.6027
L-95.5045 -16.3170
" />
<path d="M-95.5045 -16.3170
L-95.5759 -16.1742
" />
<path d="M-95.5759 -16.1742
L-95.7187 -16.0313
" />
<path d="M-95.7187 -16.0313
L-95.9330 -15.9599
" />
<path d="M-95.9330 -15.9599
L-96.2902 -15.9599
" />
<path d="M-94.1473 -15.9599
L-94.1473 -16.7456
" />
<path d="M-94.1473 -16.7456
L-94.2187 -16.8884
" />
<path d="M-94.2187 -16.8884
L-94.3616 -16.9599
" />
<path d="M-94.3616 -16.9599
L-94.6473 -16.9599
" />
<path d="M-94.6473 -16.9599
L-94.7902 -16.8884
" />
<path d="M-94.1473 -16.0313
L-94.2902 -15.9599
" />
<path d="M-94.2902 -15.9599
L-94.6473 -15.9599
" />
<path d="M-94.6473 -15.9599
L-94.7902 -16.0313
" />
<path d="M-94.7902 -16.0313
L-94.8616 -16.1742
" />
<path d="M-94.8616 -16.1742
L-94.8616 -16.3170
" />
<path d="M-94.8616 -16.3170
L-94.7902 -16.4599
" />
<path d="M-94.7902 -16.4599
L-94.6473 -16.5313
" />
<path d="M-94.6473 -16.5313
L-94.2902 -16.5313
" />
<path d="M-94.2902 -16.5313
L-94.1473 -16.6027
" />
<path d="M-93.6473 -16.9599
L-93.0759 -16.9599
" />
<path d="M-93.4330 -17.4599
L-93.4330 -16.1742
" />
<path d="M-93.4330 -16.1742
L-93.3616 -16.0313
" />
<path d="M-93.3616 -16.0313
L-93.2187 -15.9599
" />
<path d="M-93.2187 -15.9599
L-93.0759 -15.9599
" />
<path d="M-92.0045 -16.0313
L-92.1473 -15.9599
" />
<path d="M-92.1473 -15.9599
L-92.4330 -15.9599
" />
<path d="M-92.4330 -15.9599
L-92.5759 -16.0313
" />
<path d="M-92.5759 -16.0313
L-92.6473 -16.1742
" />
<path d="M-92.6473 -16.1742
L-92.6473 -16.7456
" />
<path d="M-92.6473 -16.7456
L-92.5759 -16.8884
" />
<path d="M-92.5759 -16.8884
L-92.4330 -16.9599
" />
<path d="M-92.4330 -16.9599
L-92.1473 -16.9599
" />
<path d="M-92.1473 -16.9599
L-92.0045 -16.8884
" />
<path d="M-92.0045 -16.8884
L-91.9330 -16.7456
" />
<path d="M-91.9330 -16.7456
L-91.9330 -16.6027
" />
<path d="M-91.9330 -16.6027
L-92.6473 -16.4599
" />
<path d="M-91.2902 -16.1027
L-91.2187 -16.0313
" />
<path d="M-91.2187 -16.0313
L-91.2902 -15.9599
" />
<path d="M-91.2902 -15.9599
L-91.3616 -16.0313
" />
<path d="M-91.3616 -16.0313
L-91.2902 -16.1027
" />
<path d="M-91.2902 -16.1027
L-91.2902 -15.9599
" />
<path d="M-91.2902 -16.8884
L-91.2187 -16.8170
" />
<path d="M-91.2187 -16.8170
L-91.2902 -16.7456
" />
<path d="M-91.2902 -16.7456
L-91.3616 -16.8170
" />
<path d="M-91.3616 -16.8170
L-91.2902 -16.8884
" />
<path d="M-91.2902 -16.8884
L-91.2902 -16.7456
" />
<path d="M-89.5045 -17.3170
L-89.4330 -17.3884
" />
<path d="M-89.4330 -17.3884
L-89.2902 -17.4599
" />
<path d="M-89.2902 -17.4599
L-88.9330 -17.4599
" />
<path d="M-88.9330 -17.4599
L-88.7902 -17.3884
" />
<path d="M-88.7902 -17.3884
L-88.7187 -17.3170
" />
<path d="M-88.7187 -17.3170
L-88.6473 -17.1742
" />
<path d="M-88.6473 -17.1742
L-88.6473 -17.0313
" />
<path d="M-88.6473 -17.0313
L-88.7187 -16.8170
" />
<path d="M-88.7187 -16.8170
L-89.5759 -15.9599
" />
<path d="M-89.5759 -15.9599
L-88.6473 -15.9599
" />
<path d="M-87.7187 -17.4599
L-87.5759 -17.4599
" />
<path d="M-87.5759 -17.4599
L-87.4330 -17.3884
" />
<path d="M-87.4330 -17.3884
L-87.3616 -17.3170
" />
<path d="M-87.3616 -17.3170
L-87.2902 -17.1742
" />
<path d="M-87.2902 -17.1742
L-87.2187 -16.8884
" />
<path d="M-87.2187 -16.8884
L-87.2187 -16.5313
" />
<path d="M-87.2187 -16.5313
L-87.2902 -16.2456
" />
<path d="M-87.2902 -16.2456
L-87.3616 -16.1027
" />
<path d="M-87.3616 -16.1027
L-87.4330 -16.0313
" />
<path d="M-87.4330 -16.0313
L-87.5759 -15.9599
" />
<path d="M-87.5759 -15.9599
L-87.7187 -15.9599
" />
<path d="M-87.7187 -15.9599
L-87.8616 -16.0313
" />
<path d="M-87.8616 -16.0313
L-87.9330 -16.1027
" />
<path d="M-87.9330 -16.1027
L-88.0045 -16.2456
" />
<path d="M-88.0045 -16.2456
L-88.0759 -16.5313
" />
<path d="M-88.0759 -16.5313
L-88.0759 -16.8884
" />
<path d="M-88.0759 -16.8884
L-88.0045 -17.1742
" />
<path d="M-88.0045 -17.1742
L-87.9330 -17.3170
" />
<path d="M-87.9330 -17.3170
L-87.8616 -17.3884
" />
<path d="M-87.8616 -17.3884
L-87.7187 -17.4599
" />
<path d="M-86.6473 -17.3170
L-86.5759 -17.3884
" />
<path d="M-86.5759 -17.3884
L-86.4330 -17.4599
" />
<path d="M-86.4330 -17.4599
L-86.0759 -17.4599
" />
<path d="M-86.0759 -17.4599
L-85.9330 -17.3884
" />
<path d="M-85.9330 -17.3884
L-85.8616 -17.3170
" />
<path d="M-85.8616 -17.3170
L-85.7902 -17.1742
" />
<path d="M-85.7902 -17.1742
L-85.7902 -17.0313
" />
<path d="M-85.7902 -17.0313
L-85.8616 -16.8170
" />
<path d="M-85.8616 -16.8170
L-86.7187 -15.9599
" />
<path d="M-86.7187 -15.9599
L-85.7902 -15.9599
" />
<path d="M-84.5045 -17.4599
L-84.7902 -17.4599
" />
<path d="M-84.7902 -17.4599
L-84.9330 -17.3884
" />
<path d="M-84.9330 -17.3884
L-85.0045 -17.3170
" />
<path d="M-85.0045 -17.3170
L-85.1473 -17.1027
" />
<path d="M-85.1473 -17.1027
L-85.2187 -16.8170
" />
<path d="M-85.2187 -16.8170
L-85.2187 -16.2456
" />
<path d="M-85.2187 -16.2456
L-85.1473 -16.1027
" />
<path d="M-85.1473 -16.1027
L-85.0759 -16.0313
" />
<path d="M-85.0759 -16.0313
L-84.9330 -15.9599
" />
<path d="M-84.9330 -15.9599
L-84.6473 -15.9599
" />
<path d="M-84.6473 -15.9599
L-84.5045 -16.0313
" />
<path d="M-84.5045 -16.0313
L-84.4330 -16.1027
" />
<path d="M-84.4330 -16.1027
L-84.3616 -16.2456
" />
<path d="M-84.3616 -16.2456
L-84.3616 -16.6027
" />
<path d="M-84.3616 -16.6027
L-84.4330 -16.7456
" />
<path d="M-84.4330 -16.7456
L-84.5045 -16.8170
" />
<path d="M-84.5045 -16.8170
L-84.6473 -16.8884
" />
<path d="M-84.6473 -16.8884
L-84.9330 -16.8884
" />
<path d="M-84.9330 -16.8884
L-85.0759 -16.8170
" />
<path d="M-85.0759 -16.8170
L-85.1473 -16.7456
" />
<path d="M-85.1473 -16.7456
L-85.2187 -16.6027
" />
<path d="M-83.7187 -16.5313
L-82.5759 -16.5313
" />
<path d="M-81.5759 -17.4599
L-81.4330 -17.4599
" />
<path d="M-81.4330 -17.4599
L-81.2902 -17.3884
" />
<path d="M-81.2902 -17.3884
L-81.2187 -17.3170
" />
<path d="M-81.2187 -17.3170
L-81.1473 -17.1742
" />
<path d="M-81.1473 -17.1742
L-81.0759 -16.8884
" />
<path d="M-81.0759 -16.8884
L-81.0759 -16.5313
" />
<path d="M-81.0759 -16.5313
L-81.1473 -16.2456
" />
<path d="M-81.1473 -16.2456
L-81.2187 -16.1027
" />
<path d="M-81.2187 -16.1027
L-81.2902 -16.0313
" />
<path d="M-81.2902 -16.0313
L-81.4330 -15.9599
" />
<path d="M-81.4330 -15.9599
L-81.5759 -15.9599
" />
<path d="M-81.5759 -15.9599
L-81.7187 -16.0313
" />
<path d="M-81.7187 -16.0313
L-81.7902 -16.1027
" />
<path d="M-81.7902 -16.1027
L-81.8616 -16.2456
" />
<path d="M-81.8616 -16.2456
L-81.9330 -16.5313
" />
<path d="M-81.9330 -16.5313
L-81.9330 -16.8884
" />
<path d="M-81.9330 -16.8884
L-81.8616 -17.1742
" />
<path d="M-81.8616 -17.1742
L-81.7902 -17.3170
" />
<path d="M-81.7902 -17.3170
L-81.7187 -17.3884
" />
<path d="M-81.7187 -17.3884
L-81.5759 -17.4599
" />
<path d="M-79.7902 -16.9599
L-79.7902 -15.9599
" />
<path d="M-80.1473 -17.5313
L-80.5045 -16.4599
" />
<path d="M-80.5045 -16.4599
L-79.5759 -16.4599
" />
<path d="M-79.0045 -16.5313
L-77.8616 -16.5313
" />
<path d="M-76.3616 -15.9599
L-77.2187 -15.9599
" />
<path d="M-76.7902 -15.9599
L-76.7902 -17.4599
" />
<path d="M-76.7902 -17.4599
L-76.9330 -17.2456
" />
<path d="M-76.9330 -17.2456
L-77.0759 -17.1027
" />
<path d="M-77.0759 -17.1027
L-77.2187 -17.0313
" />
<path d="M-75.0759 -16.9599
L-75.0759 -15.9599
" />
<path d="M-75.4330 -17.5313
L-75.7902 -16.4599
" />
<path d="M-75.7902 -16.4599
L-74.8616 -16.4599
" />
</g><path d="M-119.7460 -15.2460
L-11.7460 -15.2460
" />
<text x="-118.7460" y="-13.0960"
textLength="22.2929" font-size="2.0000" lengthAdjust="spacingAndGlyphs"
text-anchor="start" opacity="0" stroke-opacity="0">KiCad E.D.A. 10.0.0</text>
<g class="stroked-text"><desc>KiCad E.D.A. 10.0.0</desc>
<path d="M-118.2902 -13.1599
L-118.2902 -14.6599
" />
<path d="M-117.4330 -13.1599
L-118.0759 -14.0170
" />
<path d="M-117.4330 -14.6599
L-118.2902 -13.8027
" />
<path d="M-116.7902 -13.1599
L-116.7902 -14.1599
" />
<path d="M-116.7902 -14.6599
L-116.8616 -14.5884
" />
<path d="M-116.8616 -14.5884
L-116.7902 -14.5170
" />
<path d="M-116.7902 -14.5170
L-116.7187 -14.5884
" />
<path d="M-116.7187 -14.5884
L-116.7902 -14.6599
" />
<path d="M-116.7902 -14.6599
L-116.7902 -14.5170
" />
<path d="M-115.2187 -13.3027
L-115.2902 -13.2313
" />
<path d="M-115.2902 -13.2313
L-115.5045 -13.1599
" />
<path d="M-115.5045 -13.1599
L-115.6473 -13.1599
" />
<path d="M-115.6473 -13.1599
L-115.8616 -13.2313
" />
<path d="M-115.8616 -13.2313
L-116.0045 -13.3742
" />
<path d="M-116.0045 -13.3742
L-116.0759 -13.5170
" />
<path d="M-116.0759 -13.5170
L-116.1473 -13.8027
" />
<path d="M-116.1473 -13.8027
L-116.1473 -14.0170
" />
<path d="M-116.1473 -14.0170
L-116.0759 -14.3027
" />
<path d="M-116.0759 -14.3027
L-116.0045 -14.4456
" />
<path d="M-116.0045 -14.4456
L-115.8616 -14.5884
" />
<path d="M-115.8616 -14.5884
L-115.6473 -14.6599
" />
<path d="M-115.6473 -14.6599
L-115.5045 -14.6599
" />
<path d="M-115.5045 -14.6599
L-115.2902 -14.5884
" />
<path d="M-115.2902 -14.5884
L-115.2187 -14.5170
" />
<path d="M-113.9330 -13.1599
L-113.9330 -13.9456
" />
<path d="M-113.9330 -13.9456
L-114.0045 -14.0884
" />
<path d="M-114.0045 -14.0884
L-114.1473 -14.1599
" />
<path d="M-114.1473 -14.1599
L-114.4330 -14.1599
" />
<path d="M-114.4330 -14.1599
L-114.5759 -14.0884
" />
<path d="M-113.9330 -13.2313
L-114.0759 -13.1599
" />
<path d="M-114.0759 -13.1599
L-114.4330 -13.1599
" />
<path d="M-114.4330 -13.1599
L-114.5759 -13.2313
" />
<path d="M-114.5759 -13.2313
L-114.6473 -13.3742
" />
<path d="M-114.6473 -13.3742
L-114.6473 -13.5170
" />
<path d="M-114.6473 -13.5170
L-114.5759 -13.6599
" />
<path d="M-114.5759 -13.6599
L-114.4330 -13.7313
" />
<path d="M-114.4330 -13.7313
L-114.0759 -13.7313
" />
<path d="M-114.0759 -13.7313
L-113.9330 -13.8027
" />
<path d="M-112.5759 -13.1599
L-112.5759 -14.6599
" />
<path d="M-112.5759 -13.2313
L-112.7187 -13.1599
" />
<path d="M-112.7187 -13.1599
L-113.0045 -13.1599
" />
<path d="M-113.0045 -13.1599
L-113.1473 -13.2313
" />
<path d="M-113.1473 -13.2313
L-113.2187 -13.3027
" />
<path d="M-113.2187 -13.3027
L-113.2902 -13.4456
" />
<path d="M-113.2902 -13.4456
L-113.2902 -13.8742
" />
<path d="M-113.2902 -13.8742
L-113.2187 -14.0170
" />
<path d="M-113.2187 -14.0170
L-113.1473 -14.0884
" />
<path d="M-113.1473 -14.0884
L-113.0045 -14.1599
" />
<path d="M-113.0045 -14.1599
L-112.7187 -14.1599
" />
<path d="M-112.7187 -14.1599
L-112.5759 -14.0884
" />
<path d="M-110.7187 -13.9456
L-110.2187 -13.9456
" />
<path d="M-110.0045 -13.1599
L-110.7187 -13.1599
" />
<path d="M-110.7187 -13.1599
L-110.7187 -14.6599
" />
<path d="M-110.7187 -14.6599
L-110.0045 -14.6599
" />
<path d="M-109.3616 -13.3027
L-109.2902 -13.2313
" />
<path d="M-109.2902 -13.2313
L-109.3616 -13.1599
" />
<path d="M-109.3616 -13.1599
L-109.4330 -13.2313
" />
<path d="M-109.4330 -13.2313
L-109.3616 -13.3027
" />
<path d="M-109.3616 -13.3027
L-109.3616 -13.1599
" />
<path d="M-108.6473 -13.1599
L-108.6473 -14.6599
" />
<path d="M-108.6473 -14.6599
L-108.2902 -14.6599
" />
<path d="M-108.2902 -14.6599
L-108.0759 -14.5884
" />
<path d="M-108.0759 -14.5884
L-107.9330 -14.4456
" />
<path d="M-107.9330 -14.4456
L-107.8616 -14.3027
" />
<path d="M-107.8616 -14.3027
L-107.7902 -14.0170
" />
<path d="M-107.7902 -14.0170
L-107.7902 -13.8027
" />
<path d="M-107.7902 -13.8027
L-107.8616 -13.5170
" />
<path d="M-107.8616 -13.5170
L-107.9330 -13.3742
" />
<path d="M-107.9330 -13.3742
L-108.0759 -13.2313
" />
<path d="M-108.0759 -13.2313
L-108.2902 -13.1599
" />
<path d="M-108.2902 -13.1599
L-108.6473 -13.1599
" />
<path d="M-107.1473 -13.3027
L-107.0759 -13.2313
" />
<path d="M-107.0759 -13.2313
L-107.1473 -13.1599
" />
<path d="M-107.1473 -13.1599
L-107.2187 -13.2313
" />
<path d="M-107.2187 -13.2313
L-107.1473 -13.3027
" />
<path d="M-107.1473 -13.3027
L-107.1473 -13.1599
" />
<path d="M-106.5045 -13.5884
L-105.7902 -13.5884
" />
<path d="M-106.6473 -13.1599
L-106.1473 -14.6599
" />
<path d="M-106.1473 -14.6599
L-105.6473 -13.1599
" />
<path d="M-105.1473 -13.3027
L-105.0759 -13.2313
" />
<path d="M-105.0759 -13.2313
L-105.1473 -13.1599
" />
<path d="M-105.1473 -13.1599
L-105.2187 -13.2313
" />
<path d="M-105.2187 -13.2313
L-105.1473 -13.3027
" />
<path d="M-105.1473 -13.3027
L-105.1473 -13.1599
" />
<path d="M-102.5045 -13.1599
L-103.3616 -13.1599
" />
<path d="M-102.9330 -13.1599
L-102.9330 -14.6599
" />
<path d="M-102.9330 -14.6599
L-103.0759 -14.4456
" />
<path d="M-103.0759 -14.4456
L-103.2187 -14.3027
" />
<path d="M-103.2187 -14.3027
L-103.3616 -14.2313
" />
<path d="M-101.5759 -14.6599
L-101.4330 -14.6599
" />
<path d="M-101.4330 -14.6599
L-101.2902 -14.5884
" />
<path d="M-101.2902 -14.5884
L-101.2187 -14.5170
" />
<path d="M-101.2187 -14.5170
L-101.1473 -14.3742
" />
<path d="M-101.1473 -14.3742
L-101.0759 -14.0884
" />
<path d="M-101.0759 -14.0884
L-101.0759 -13.7313
" />
<path d="M-101.0759 -13.7313
L-101.1473 -13.4456
" />
<path d="M-101.1473 -13.4456
L-101.2187 -13.3027
" />
<path d="M-101.2187 -13.3027
L-101.2902 -13.2313
" />
<path d="M-101.2902 -13.2313
L-101.4330 -13.1599
" />
<path d="M-101.4330 -13.1599
L-101.5759 -13.1599
" />
<path d="M-101.5759 -13.1599
L-101.7187 -13.2313
" />
<path d="M-101.7187 -13.2313
L-101.7902 -13.3027
" />
<path d="M-101.7902 -13.3027
L-101.8616 -13.4456
" />
<path d="M-101.8616 -13.4456
L-101.9330 -13.7313
" />
<path d="M-101.9330 -13.7313
L-101.9330 -14.0884
" />
<path d="M-101.9330 -14.0884
L-101.8616 -14.3742
" />
<path d="M-101.8616 -14.3742
L-101.7902 -14.5170
" />
<path d="M-101.7902 -14.5170
L-101.7187 -14.5884
" />
<path d="M-101.7187 -14.5884
L-101.5759 -14.6599
" />
<path d="M-100.4330 -13.3027
L-100.3616 -13.2313
" />
<path d="M-100.3616 -13.2313
L-100.4330 -13.1599
" />
<path d="M-100.4330 -13.1599
L-100.5045 -13.2313
" />
<path d="M-100.5045 -13.2313
L-100.4330 -13.3027
" />
<path d="M-100.4330 -13.3027
L-100.4330 -13.1599
" />
<path d="M-99.4330 -14.6599
L-99.2902 -14.6599
" />
<path d="M-99.2902 -14.6599
L-99.1473 -14.5884
" />
<path d="M-99.1473 -14.5884
L-99.0759 -14.5170
" />
<path d="M-99.0759 -14.5170
L-99.0045 -14.3742
" />
<path d="M-99.0045 -14.3742
L-98.9330 -14.0884
" />
<path d="M-98.9330 -14.0884
L-98.9330 -13.7313
" />
<path d="M-98.9330 -13.7313
L-99.0045 -13.4456
" />
<path d="M-99.0045 -13.4456
L-99.0759 -13.3027
" />
<path d="M-99.0759 -13.3027
L-99.1473 -13.2313
" />
<path d="M-99.1473 -13.2313
L-99.2902 -13.1599
" />
<path d="M-99.2902 -13.1599
L-99.4330 -13.1599
" />
<path d="M-99.4330 -13.1599
L-99.5759 -13.2313
" />
<path d="M-99.5759 -13.2313
L-99.6473 -13.3027
" />
<path d="M-99.6473 -13.3027
L-99.7187 -13.4456
" />
<path d="M-99.7187 -13.4456
L-99.7902 -13.7313
" />
<path d="M-99.7902 -13.7313
L-99.7902 -14.0884
" />
<path d="M-99.7902 -14.0884
L-99.7187 -14.3742
" />
<path d="M-99.7187 -14.3742
L-99.6473 -14.5170
" />
<path d="M-99.6473 -14.5170
L-99.5759 -14.5884
" />
<path d="M-99.5759 -14.5884
L-99.4330 -14.6599
" />
<path d="M-98.2902 -13.3027
L-98.2187 -13.2313
" />
<path d="M-98.2187 -13.2313
L-98.2902 -13.1599
" />
<path d="M-98.2902 -13.1599
L-98.3616 -13.2313
" />
<path d="M-98.3616 -13.2313
L-98.2902 -13.3027
" />
<path d="M-98.2902 -13.3027
L-98.2902 -13.1599
" />
<path d="M-97.2902 -14.6599
L-97.1473 -14.6599
" />
<path d="M-97.1473 -14.6599
L-97.0045 -14.5884
" />
<path d="M-97.0045 -14.5884
L-96.9330 -14.5170
" />
<path d="M-96.9330 -14.5170
L-96.8616 -14.3742
" />
<path d="M-96.8616 -14.3742
L-96.7902 -14.0884
" />
<path d="M-96.7902 -14.0884
L-96.7902 -13.7313
" />
<path d="M-96.7902 -13.7313
L-96.8616 -13.4456
" />
<path d="M-96.8616 -13.4456
L-96.9330 -13.3027
" />
<path d="M-96.9330 -13.3027
L-97.0045 -13.2313
" />
<path d="M-97.0045 -13.2313
L-97.1473 -13.1599
" />
<path d="M-97.1473 -13.1599
L-97.2902 -13.1599
" />
<path d="M-97.2902 -13.1599
L-97.4330 -13.2313
" />
<path d="M-97.4330 -13.2313
L-97.5045 -13.3027
" />
<path d="M-97.5045 -13.3027
L-97.5759 -13.4456
" />
<path d="M-97.5759 -13.4456
L-97.6473 -13.7313
" />
<path d="M-97.6473 -13.7313
L-97.6473 -14.0884
" />
<path d="M-97.6473 -14.0884
L-97.5759 -14.3742
" />
<path d="M-97.5759 -14.3742
L-97.5045 -14.5170
" />
<path d="M-97.5045 -14.5170
L-97.4330 -14.5884
" />
<path d="M-97.4330 -14.5884
L-97.2902 -14.6599
" />
</g><path d="M-119.7460 -18.2460
L-11.7460 -18.2460
" />
</g>
<g style="fill:none; 
stroke:#C872AB; stroke-width:0.3000; stroke-opacity:1; 
stroke-linecap:round; stroke-linejoin:round;">
<text x="-33.7460" y="-15.8960"
textLength="9.9571" font-size="2.0000" lengthAdjust="spacingAndGlyphs"
text-anchor="start" opacity="0" stroke-opacity="0">Rev: 0.1</text>
<g class="stroked-text"><desc>Rev: 0.1</desc>
<path d="M-32.3343 -15.9677
L-32.8343 -16.6820
" />
<path d="M-33.1915 -15.9677
L-33.1915 -17.4677
" />
<path d="M-33.1915 -17.4677
L-32.6201 -17.4677
" />
<path d="M-32.6201 -17.4677
L-32.4772 -17.3962
" />
<path d="M-32.4772 -17.3962
L-32.4058 -17.3248
" />
<path d="M-32.4058 -17.3248
L-32.3343 -17.1820
" />
<path d="M-32.3343 -17.1820
L-32.3343 -16.9677
" />
<path d="M-32.3343 -16.9677
L-32.4058 -16.8248
" />
<path d="M-32.4058 -16.8248
L-32.4772 -16.7534
" />
<path d="M-32.4772 -16.7534
L-32.6201 -16.6820
" />
<path d="M-32.6201 -16.6820
L-33.1915 -16.6820
" />
<path d="M-31.1201 -16.0391
L-31.2629 -15.9677
" />
<path d="M-31.2629 -15.9677
L-31.5486 -15.9677
" />
<path d="M-31.5486 -15.9677
L-31.6915 -16.0391
" />
<path d="M-31.6915 -16.0391
L-31.7629 -16.1820
" />
<path d="M-31.7629 -16.1820
L-31.7629 -16.7534
" />
<path d="M-31.7629 -16.7534
L-31.6915 -16.8962
" />
<path d="M-31.6915 -16.8962
L-31.5486 -16.9677
" />
<path d="M-31.5486 -16.9677
L-31.2629 -16.9677
" />
<path d="M-31.2629 -16.9677
L-31.1201 -16.8962
" />
<path d="M-31.1201 -16.8962
L-31.0486 -16.7534
" />
<path d="M-31.0486 -16.7534
L-31.0486 -16.6105
" />
<path d="M-31.0486 -16.6105
L-31.7629 -16.4677
" />
<path d="M-30.5486 -16.9677
L-30.1915 -15.9677
" />
<path d="M-30.1915 -15.9677
L-29.8343 -16.9677
" />
<path d="M-29.2629 -16.1105
L-29.1915 -16.0391
" />
<path d="M-29.1915 -16.0391
L-29.2629 -15.9677
" />
<path d="M-29.2629 -15.9677
L-29.3343 -16.0391
" />
<path d="M-29.3343 -16.0391
L-29.2629 -16.1105
" />
<path d="M-29.2629 -16.1105
L-29.2629 -15.9677
" />
<path d="M-29.2629 -16.8962
L-29.1915 -16.8248
" />
<path d="M-29.1915 -16.8248
L-29.2629 -16.7534
" />
<path d="M-29.2629 -16.7534
L-29.3343 -16.8248
" />
<path d="M-29.3343 -16.8248
L-29.2629 -16.8962
" />
<path d="M-29.2629 -16.8962
L-29.2629 -16.7534
" />
<path d="M-27.1201 -17.4677
L-26.9772 -17.4677
" />
<path d="M-26.9772 -17.4677
L-26.8343 -17.3962
" />
<path d="M-26.8343 -17.3962
L-26.7629 -17.3248
" />
<path d="M-26.7629 -17.3248
L-26.6915 -17.1820
" />
<path d="M-26.6915 -17.1820
L-26.6201 -16.8962
" />
<path d="M-26.6201 -16.8962
L-26.6201 -16.5391
" />
<path d="M-26.6201 -16.5391
L-26.6915 -16.2534
" />
<path d="M-26.6915 -16.2534
L-26.7629 -16.1105
" />
<path d="M-26.7629 -16.1105
L-26.8343 -16.0391
" />
<path d="M-26.8343 -16.0391
L-26.9772 -15.9677
" />
<path d="M-26.9772 -15.9677
L-27.1201 -15.9677
" />
<path d="M-27.1201 -15.9677
L-27.2629 -16.0391
" />
<path d="M-27.2629 -16.0391
L-27.3343 -16.1105
" />
<path d="M-27.3343 -16.1105
L-27.4058 -16.2534
" />
<path d="M-27.4058 -16.2534
L-27.4772 -16.5391
" />
<path d="M-27.4772 -16.5391
L-27.4772 -16.8962
" />
<path d="M-27.4772 -16.8962
L-27.4058 -17.1820
" />
<path d="M-27.4058 -17.1820
L-27.3343 -17.3248
" />
<path d="M-27.3343 -17.3248
L-27.2629 -17.3962
" />
<path d="M-27.2629 -17.3962
L-27.1201 -17.4677
" />
<path d="M-25.9772 -16.1105
L-25.9058 -16.0391
" />
<path d="M-25.9058 -16.0391
L-25.9772 -15.9677
" />
<path d="M-25.9772 -15.9677
L-26.0486 -16.0391
" />
<path d="M-26.0486 -16.0391
L-25.9772 -16.1105
" />
<path d="M-25.9772 -16.1105
L-25.9772 -15.9677
" />
<path d="M-24.4772 -15.9677
L-25.3343 -15.9677
" />
<path d="M-24.9058 -15.9677
L-24.9058 -17.4677
" />
<path d="M-24.9058 -17.4677
L-25.0486 -17.2534
" />
<path d="M-25.0486 -17.2534
L-25.1915 -17.1105
" />
<path d="M-25.1915 -17.1105
L-25.3343 -17.0391
" />
</g></g>
<g style="fill:none; 
stroke:#C872AB; stroke-width:0.1500; stroke-opacity:1; 
stroke-linecap:round; stroke-linejoin:round;">
<text x="-118.7460" y="-15.8960"
textLength="11.6500" font-size="2.0000" lengthAdjust="spacingAndGlyphs"
text-anchor="start" opacity="0" stroke-opacity="0">Size: User</text>
<g class="stroked-text"><desc>Size: User</desc>
<path d="M-118.3616 -16.0313
L-118.1473 -15.9599
" />
<path d="M-118.1473 -15.9599
L-117.7902 -15.9599
" />
<path d="M-117.7902 -15.9599
L-117.6473 -16.0313
" />
<path d="M-117.6473 -16.0313
L-117.5759 -16.1027
" />
<path d="M-117.5759 -16.1027
L-117.5045 -16.2456
" />
<path d="M-117.5045 -16.2456
L-117.5045 -16.3884
" />
<path d="M-117.5045 -16.3884
L-117.5759 -16.5313
" />
<path d="M-117.5759 -16.5313
L-117.6473 -16.6027
" />
<path d="M-117.6473 -16.6027
L-117.7902 -16.6742
" />
<path d="M-117.7902 -16.6742
L-118.0759 -16.7456
" />
<path d="M-118.0759 -16.7456
L-118.2187 -16.8170
" />
<path d="M-118.2187 -16.8170
L-118.2902 -16.8884
" />
<path d="M-118.2902 -16.8884
L-118.3616 -17.0313
" />
<path d="M-118.3616 -17.0313
L-118.3616 -17.1742
" />
<path d="M-118.3616 -17.1742
L-118.2902 -17.3170
" />
<path d="M-118.2902 -17.3170
L-118.2187 -17.3884
" />
<path d="M-118.2187 -17.3884
L-118.0759 -17.4599
" />
<path d="M-118.0759 -17.4599
L-117.7187 -17.4599
" />
<path d="M-117.7187 -17.4599
L-117.5045 -17.3884
" />
<path d="M-116.8616 -15.9599
L-116.8616 -16.9599
" />
<path d="M-116.8616 -17.4599
L-116.9330 -17.3884
" />
<path d="M-116.9330 -17.3884
L-116.8616 -17.3170
" />
<path d="M-116.8616 -17.3170
L-116.7902 -17.3884
" />
<path d="M-116.7902 -17.3884
L-116.8616 -17.4599
" />
<path d="M-116.8616 -17.4599
L-116.8616 -17.3170
" />
<path d="M-116.2902 -16.9599
L-115.5045 -16.9599
" />
<path d="M-115.5045 -16.9599
L-116.2902 -15.9599
" />
<path d="M-116.2902 -15.9599
L-115.5045 -15.9599
" />
<path d="M-114.3616 -16.0313
L-114.5045 -15.9599
" />
<path d="M-114.5045 -15.9599
L-114.7902 -15.9599
" />
<path d="M-114.7902 -15.9599
L-114.9330 -16.0313
" />
<path d="M-114.9330 -16.0313
L-115.0045 -16.1742
" />
<path d="M-115.0045 -16.1742
L-115.0045 -16.7456
" />
<path d="M-115.0045 -16.7456
L-114.9330 -16.8884
" />
<path d="M-114.9330 -16.8884
L-114.7902 -16.9599
" />
<path d="M-114.7902 -16.9599
L-114.5045 -16.9599
" />
<path d="M-114.5045 -16.9599
L-114.3616 -16.8884
" />
<path d="M-114.3616 -16.8884
L-114.2902 -16.7456
" />
<path d="M-114.2902 -16.7456
L-114.2902 -16.6027
" />
<path d="M-114.2902 -16.6027
L-115.0045 -16.4599
" />
<path d="M-113.6473 -16.1027
L-113.5759 -16.0313
" />
<path d="M-113.5759 -16.0313
L-113.6473 -15.9599
" />
<path d="M-113.6473 -15.9599
L-113.7187 -16.0313
" />
<path d="M-113.7187 -16.0313
L-113.6473 -16.1027
" />
<path d="M-113.6473 -16.1027
L-113.6473 -15.9599
" />
<path d="M-113.6473 -16.8884
L-113.5759 -16.8170
" />
<path d="M-113.5759 -16.8170
L-113.6473 -16.7456
" />
<path d="M-113.6473 -16.7456
L-113.7187 -16.8170
" />
<path d="M-113.7187 -16.8170
L-113.6473 -16.8884
" />
<path d="M-113.6473 -16.8884
L-113.6473 -16.7456
" />
<path d="M-111.7902 -17.4599
L-111.7902 -16.2456
" />
<path d="M-111.7902 -16.2456
L-111.7187 -16.1027
" />
<path d="M-111.7187 -16.1027
L-111.6473 -16.0313
" />
<path d="M-111.6473 -16.0313
L-111.5045 -15.9599
" />
<path d="M-111.5045 -15.9599
L-111.2187 -15.9599
" />
<path d="M-111.2187 -15.9599
L-111.0759 -16.0313
" />
<path d="M-111.0759 -16.0313
L-111.0045 -16.1027
" />
<path d="M-111.0045 -16.1027
L-110.9330 -16.2456
" />
<path d="M-110.9330 -16.2456
L-110.9330 -17.4599
" />
<path d="M-110.2902 -16.0313
L-110.1473 -15.9599
" />
<path d="M-110.1473 -15.9599
L-109.8616 -15.9599
" />
<path d="M-109.8616 -15.9599
L-109.7187 -16.0313
" />
<path d="M-109.7187 -16.0313
L-109.6473 -16.1742
" />
<path d="M-109.6473 -16.1742
L-109.6473 -16.2456
" />
<path d="M-109.6473 -16.2456
L-109.7187 -16.3884
" />
<path d="M-109.7187 -16.3884
L-109.8616 -16.4599
" />
<path d="M-109.8616 -16.4599
L-110.0759 -16.4599
" />
<path d="M-110.0759 -16.4599
L-110.2187 -16.5313
" />
<path d="M-110.2187 -16.5313
L-110.2902 -16.6742
" />
<path d="M-110.2902 -16.6742
L-110.2902 -16.7456
" />
<path d="M-110.2902 -16.7456
L-110.2187 -16.8884
" />
<path d="M-110.2187 -16.8884
L-110.0759 -16.9599
" />
<path d="M-110.0759 -16.9599
L-109.8616 -16.9599
" />
<path d="M-109.8616 -16.9599
L-109.7187 -16.8884
" />
<path d="M-108.4330 -16.0313
L-108.5759 -15.9599
" />
<path d="M-108.5759 -15.9599
L-108.8616 -15.9599
" />
<path d="M-108.8616 -15.9599
L-109.0045 -16.0313
" />
<path d="M-109.0045 -16.0313
L-109.0759 -16.1742
" />
<path d="M-109.0759 -16.1742
L-109.0759 -16.7456
" />
<path d="M-109.0759 -16.7456
L-109.0045 -16.8884
" />
<path d="M-109.0045 -16.8884
L-108.8616 -16.9599
" />
<path d="M-108.8616 -16.9599
L-108.5759 -16.9599
" />
<path d="M-108.5759 -16.9599
L-108.4330 -16.8884
" />
<path d="M-108.4330 -16.8884
L-108.3616 -16.7456
" />
<path d="M-108.3616 -16.7456
L-108.3616 -16.6027
" />
<path d="M-108.3616 -16.6027
L-109.0759 -16.4599
" />
<path d="M-107.7187 -15.9599
L-107.7187 -16.9599
" />
<path d="M-107.7187 -16.6742
L-107.6473 -16.8170
" />
<path d="M-107.6473 -16.8170
L-107.5759 -16.8884
" />
<path d="M-107.5759 -16.8884
L-107.4330 -16.9599
" />
<path d="M-107.4330 -16.9599
L-107.2902 -16.9599
" />
</g><text x="-33.7460" y="-13.0960"
textLength="8.5071" font-size="2.0000" lengthAdjust="spacingAndGlyphs"
text-anchor="start" opacity="0" stroke-opacity="0">Id: 1/1</text>
<g class="stroked-text"><desc>Id: 1/1</desc>
<path d="M-33.2902 -13.1599
L-33.2902 -14.6599
" />
<path d="M-31.9330 -13.1599
L-31.9330 -14.6599
" />
<path d="M-31.9330 -13.2313
L-32.0759 -13.1599
" />
<path d="M-32.0759 -13.1599
L-32.3616 -13.1599
" />
<path d="M-32.3616 -13.1599
L-32.5045 -13.2313
" />
<path d="M-32.5045 -13.2313
L-32.5759 -13.3027
" />
<path d="M-32.5759 -13.3027
L-32.6473 -13.4456
" />
<path d="M-32.6473 -13.4456
L-32.6473 -13.8742
" />
<path d="M-32.6473 -13.8742
L-32.5759 -14.0170
" />
<path d="M-32.5759 -14.0170
L-32.5045 -14.0884
" />
<path d="M-32.5045 -14.0884
L-32.3616 -14.1599
" />
<path d="M-32.3616 -14.1599
L-32.0759 -14.1599
" />
<path d="M-32.0759 -14.1599
L-31.9330 -14.0884
" />
<path d="M-31.2187 -13.3027
L-31.1473 -13.2313
" />
<path d="M-31.1473 -13.2313
L-31.2187 -13.1599
" />
<path d="M-31.2187 -13.1599
L-31.2902 -13.2313
" />
<path d="M-31.2902 -13.2313
L-31.2187 -13.3027
" />
<path d="M-31.2187 -13.3027
L-31.2187 -13.1599
" />
<path d="M-31.2187 -14.0884
L-31.1473 -14.0170
" />
<path d="M-31.1473 -14.0170
L-31.2187 -13.9456
" />
<path d="M-31.2187 -13.9456
L-31.2902 -14.0170
" />
<path d="M-31.2902 -14.0170
L-31.2187 -14.0884
" />
<path d="M-31.2187 -14.0884
L-31.2187 -13.9456
" />
<path d="M-28.5759 -13.1599
L-29.4330 -13.1599
" />
<path d="M-29.0045 -13.1599
L-29.0045 -14.6599
" />
<path d="M-29.0045 -14.6599
L-29.1473 -14.4456
" />
<path d="M-29.1473 -14.4456
L-29.2902 -14.3027
" />
<path d="M-29.2902 -14.3027
L-29.4330 -14.2313
" />
<path d="M-26.8616 -14.7313
L-28.1473 -12.8027
" />
<path d="M-25.5759 -13.1599
L-26.4330 -13.1599
" />
<path d="M-26.0045 -13.1599
L-26.0045 -14.6599
" />
<path d="M-26.0045 -14.6599
L-26.1473 -14.4456
" />
<path d="M-26.1473 -14.4456
L-26.2902 -14.3027
" />
<path d="M-26.2902 -14.3027
L-26.4330 -14.2313
" />
</g><path d="M-119.7460 -22.2460
L-11.7460 -22.2460
" />
</g>
<g style="fill:none; 
stroke:#C872AB; stroke-width:0.4000; stroke-opacity:1; 
stroke-linecap:round; stroke-linejoin:round;">
<text x="-118.7460" y="-19.4460"
textLength="60.4191" font-size="2.6667" lengthAdjust="spacingAndGlyphs"
text-anchor="start" opacity="0" stroke-opacity="0">Title: Tsumikoro ESP32 RS-485 Bridge</text>
<g class="stroked-text"><desc>Title: Tsumikoro ESP32 RS-485 Bridge</desc>
<path d="M-118.0543 -21.5416
L-116.9114 -21.5416
" />
<path d="M-117.7328 -19.5416
L-117.4828 -21.5416
" />
<path d="M-116.4947 -19.5416
L-116.3281 -20.8749
" />
<path d="M-116.2447 -21.5416
L-116.3519 -21.4463
" />
<path d="M-116.3519 -21.4463
L-116.2686 -21.3511
" />
<path d="M-116.2686 -21.3511
L-116.1614 -21.4463
" />
<path d="M-116.1614 -21.4463
L-116.2447 -21.5416
" />
<path d="M-116.2447 -21.5416
L-116.2686 -21.3511
" />
<path d="M-115.6614 -20.8749
L-114.8995 -20.8749
" />
<path d="M-115.2924 -21.5416
L-115.5067 -19.8273
" />
<path d="M-115.5067 -19.8273
L-115.4352 -19.6368
" />
<path d="M-115.4352 -19.6368
L-115.2567 -19.5416
" />
<path d="M-115.2567 -19.5416
L-115.0662 -19.5416
" />
<path d="M-114.1138 -19.5416
L-114.2924 -19.6368
" />
<path d="M-114.2924 -19.6368
L-114.3638 -19.8273
" />
<path d="M-114.3638 -19.8273
L-114.1495 -21.5416
" />
<path d="M-112.5781 -19.6368
L-112.7805 -19.5416
" />
<path d="M-112.7805 -19.5416
L-113.1614 -19.5416
" />
<path d="M-113.1614 -19.5416
L-113.3400 -19.6368
" />
<path d="M-113.3400 -19.6368
L-113.4114 -19.8273
" />
<path d="M-113.4114 -19.8273
L-113.3162 -20.5892
" />
<path d="M-113.3162 -20.5892
L-113.1971 -20.7797
" />
<path d="M-113.1971 -20.7797
L-112.9947 -20.8749
" />
<path d="M-112.9947 -20.8749
L-112.6138 -20.8749
" />
<path d="M-112.6138 -20.8749
L-112.4352 -20.7797
" />
<path d="M-112.4352 -20.7797
L-112.3638 -20.5892
" />
<path d="M-112.3638 -20.5892
L-112.3876 -20.3987
" />
<path d="M-112.3876 -20.3987
L-113.3638 -20.2082
" />
<path d="M-111.6138 -19.7320
L-111.5305 -19.6368
" />
<path d="M-111.5305 -19.6368
L-111.6376 -19.5416
" />
<path d="M-111.6376 -19.5416
L-111.7209 -19.6368
" />
<path d="M-111.7209 -19.6368
L-111.6138 -19.7320
" />
<path d="M-111.6138 -19.7320
L-111.6376 -19.5416
" />
<path d="M-111.4828 -20.7797
L-111.3995 -20.6844
" />
<path d="M-111.3995 -20.6844
L-111.5067 -20.5892
" />
<path d="M-111.5067 -20.5892
L-111.5900 -20.6844
" />
<path d="M-111.5900 -20.6844
L-111.4828 -20.7797
" />
<path d="M-111.4828 -20.7797
L-111.5067 -20.5892
" />
<path d="M-109.1971 -21.5416
L-108.0543 -21.5416
" />
<path d="M-108.8757 -19.5416
L-108.6257 -21.5416
" />
<path d="M-107.7209 -19.6368
L-107.5424 -19.5416
" />
<path d="M-107.5424 -19.5416
L-107.1614 -19.5416
" />
<path d="M-107.1614 -19.5416
L-106.9590 -19.6368
" />
<path d="M-106.9590 -19.6368
L-106.8400 -19.8273
" />
<path d="M-106.8400 -19.8273
L-106.8281 -19.9225
" />
<path d="M-106.8281 -19.9225
L-106.8995 -20.1130
" />
<path d="M-106.8995 -20.1130
L-107.0781 -20.2082
" />
<path d="M-107.0781 -20.2082
L-107.3638 -20.2082
" />
<path d="M-107.3638 -20.2082
L-107.5424 -20.3035
" />
<path d="M-107.5424 -20.3035
L-107.6138 -20.4939
" />
<path d="M-107.6138 -20.4939
L-107.6019 -20.5892
" />
<path d="M-107.6019 -20.5892
L-107.4828 -20.7797
" />
<path d="M-107.4828 -20.7797
L-107.2805 -20.8749
" />
<path d="M-107.2805 -20.8749
L-106.9947 -20.8749
" />
<path d="M-106.9947 -20.8749
L-106.8162 -20.7797
" />
<path d="M-104.9947 -20.8749
L-105.1614 -19.5416
" />
<path d="M-105.8519 -20.8749
L-105.9828 -19.8273
" />
<path d="M-105.9828 -19.8273
L-105.9114 -19.6368
" />
<path d="M-105.9114 -19.6368
L-105.7328 -19.5416
" />
<path d="M-105.7328 -19.5416
L-105.4471 -19.5416
" />
<path d="M-105.4471 -19.5416
L-105.2447 -19.6368
" />
<path d="M-105.2447 -19.6368
L-105.1376 -19.7320
" />
<path d="M-104.2090 -19.5416
L-104.0424 -20.8749
" />
<path d="M-104.0662 -20.6844
L-103.9590 -20.7797
" />
<path d="M-103.9590 -20.7797
L-103.7566 -20.8749
" />
<path d="M-103.7566 -20.8749
L-103.4709 -20.8749
" />
<path d="M-103.4709 -20.8749
L-103.2924 -20.7797
" />
<path d="M-103.2924 -20.7797
L-103.2209 -20.5892
" />
<path d="M-103.2209 -20.5892
L-103.3519 -19.5416
" />
<path d="M-103.2209 -20.5892
L-103.1019 -20.7797
" />
<path d="M-103.1019 -20.7797
L-102.8995 -20.8749
" />
<path d="M-102.8995 -20.8749
L-102.6138 -20.8749
" />
<path d="M-102.6138 -20.8749
L-102.4352 -20.7797
" />
<path d="M-102.4352 -20.7797
L-102.3638 -20.5892
" />
<path d="M-102.3638 -20.5892
L-102.4947 -19.5416
" />
<path d="M-101.5424 -19.5416
L-101.3757 -20.8749
" />
<path d="M-101.2924 -21.5416
L-101.3995 -21.4463
" />
<path d="M-101.3995 -21.4463
L-101.3162 -21.3511
" />
<path d="M-101.3162 -21.3511
L-101.2090 -21.4463
" />
<path d="M-101.2090 -21.4463
L-101.2924 -21.5416
" />
<path d="M-101.2924 -21.5416
L-101.3162 -21.3511
" />
<path d="M-100.5900 -19.5416
L-100.3400 -21.5416
" />
<path d="M-100.3043 -20.3035
L-99.8281 -19.5416
" />
<path d="M-99.6614 -20.8749
L-100.5186 -20.1130
" />
<path d="M-98.6852 -19.5416
L-98.8638 -19.6368
" />
<path d="M-98.8638 -19.6368
L-98.9471 -19.7320
" />
<path d="M-98.9471 -19.7320
L-99.0186 -19.9225
" />
<path d="M-99.0186 -19.9225
L-98.9471 -20.4939
" />
<path d="M-98.9471 -20.4939
L-98.8281 -20.6844
" />
<path d="M-98.8281 -20.6844
L-98.7209 -20.7797
" />
<path d="M-98.7209 -20.7797
L-98.5186 -20.8749
" />
<path d="M-98.5186 -20.8749
L-98.2328 -20.8749
" />
<path d="M-98.2328 -20.8749
L-98.0543 -20.7797
" />
<path d="M-98.0543 -20.7797
L-97.9709 -20.6844
" />
<path d="M-97.9709 -20.6844
L-97.8995 -20.4939
" />
<path d="M-97.8995 -20.4939
L-97.9709 -19.9225
" />
<path d="M-97.9709 -19.9225
L-98.0900 -19.7320
" />
<path d="M-98.0900 -19.7320
L-98.1971 -19.6368
" />
<path d="M-98.1971 -19.6368
L-98.3995 -19.5416
" />
<path d="M-98.3995 -19.5416
L-98.6852 -19.5416
" />
<path d="M-97.1614 -19.5416
L-96.9947 -20.8749
" />
<path d="M-97.0424 -20.4939
L-96.9233 -20.6844
" />
<path d="M-96.9233 -20.6844
L-96.8162 -20.7797
" />
<path d="M-96.8162 -20.7797
L-96.6138 -20.8749
" />
<path d="M-96.6138 -20.8749
L-96.4233 -20.8749
" />
<path d="M-95.6376 -19.5416
L-95.8162 -19.6368
" />
<path d="M-95.8162 -19.6368
L-95.8995 -19.7320
" />
<path d="M-95.8995 -19.7320
L-95.9709 -19.9225
" />
<path d="M-95.9709 -19.9225
L-95.8995 -20.4939
" />
<path d="M-95.8995 -20.4939
L-95.7805 -20.6844
" />
<path d="M-95.7805 -20.6844
L-95.6733 -20.7797
" />
<path d="M-95.6733 -20.7797
L-95.4709 -20.8749
" />
<path d="M-95.4709 -20.8749
L-95.1852 -20.8749
" />
<path d="M-95.1852 -20.8749
L-95.0066 -20.7797
" />
<path d="M-95.0066 -20.7797
L-94.9233 -20.6844
" />
<path d="M-94.9233 -20.6844
L-94.8519 -20.4939
" />
<path d="M-94.8519 -20.4939
L-94.9233 -19.9225
" />
<path d="M-94.9233 -19.9225
L-95.0424 -19.7320
" />
<path d="M-95.0424 -19.7320
L-95.1495 -19.6368
" />
<path d="M-95.1495 -19.6368
L-95.3519 -19.5416
" />
<path d="M-95.3519 -19.5416
L-95.6376 -19.5416
" />
<path d="M-92.4590 -20.5892
L-91.7924 -20.5892
" />
<path d="M-91.6376 -19.5416
L-92.5900 -19.5416
" />
<path d="M-92.5900 -19.5416
L-92.3400 -21.5416
" />
<path d="M-92.3400 -21.5416
L-91.3876 -21.5416
" />
<path d="M-90.8638 -19.6368
L-90.5900 -19.5416
" />
<path d="M-90.5900 -19.5416
L-90.1138 -19.5416
" />
<path d="M-90.1138 -19.5416
L-89.9114 -19.6368
" />
<path d="M-89.9114 -19.6368
L-89.8043 -19.7320
" />
<path d="M-89.8043 -19.7320
L-89.6852 -19.9225
" />
<path d="M-89.6852 -19.9225
L-89.6614 -20.1130
" />
<path d="M-89.6614 -20.1130
L-89.7328 -20.3035
" />
<path d="M-89.7328 -20.3035
L-89.8162 -20.3987
" />
<path d="M-89.8162 -20.3987
L-89.9947 -20.4939
" />
<path d="M-89.9947 -20.4939
L-90.3638 -20.5892
" />
<path d="M-90.3638 -20.5892
L-90.5424 -20.6844
" />
<path d="M-90.5424 -20.6844
L-90.6257 -20.7797
" />
<path d="M-90.6257 -20.7797
L-90.6971 -20.9701
" />
<path d="M-90.6971 -20.9701
L-90.6733 -21.1606
" />
<path d="M-90.6733 -21.1606
L-90.5543 -21.3511
" />
<path d="M-90.5543 -21.3511
L-90.4471 -21.4463
" />
<path d="M-90.4471 -21.4463
L-90.2447 -21.5416
" />
<path d="M-90.2447 -21.5416
L-89.7686 -21.5416
" />
<path d="M-89.7686 -21.5416
L-89.4947 -21.4463
" />
<path d="M-88.8757 -19.5416
L-88.6257 -21.5416
" />
<path d="M-88.6257 -21.5416
L-87.8638 -21.5416
" />
<path d="M-87.8638 -21.5416
L-87.6852 -21.4463
" />
<path d="M-87.6852 -21.4463
L-87.6019 -21.3511
" />
<path d="M-87.6019 -21.3511
L-87.5305 -21.1606
" />
<path d="M-87.5305 -21.1606
L-87.5662 -20.8749
" />
<path d="M-87.5662 -20.8749
L-87.6852 -20.6844
" />
<path d="M-87.6852 -20.6844
L-87.7924 -20.5892
" />
<path d="M-87.7924 -20.5892
L-87.9947 -20.4939
" />
<path d="M-87.9947 -20.4939
L-88.7566 -20.4939
" />
<path d="M-86.8162 -21.5416
L-85.5781 -21.5416
" />
<path d="M-85.5781 -21.5416
L-86.3400 -20.7797
" />
<path d="M-86.3400 -20.7797
L-86.0543 -20.7797
" />
<path d="M-86.0543 -20.7797
L-85.8757 -20.6844
" />
<path d="M-85.8757 -20.6844
L-85.7924 -20.5892
" />
<path d="M-85.7924 -20.5892
L-85.7209 -20.3987
" />
<path d="M-85.7209 -20.3987
L-85.7805 -19.9225
" />
<path d="M-85.7805 -19.9225
L-85.8995 -19.7320
" />
<path d="M-85.8995 -19.7320
L-86.0066 -19.6368
" />
<path d="M-86.0066 -19.6368
L-86.2090 -19.5416
" />
<path d="M-86.2090 -19.5416
L-86.7805 -19.5416
" />
<path d="M-86.7805 -19.5416
L-86.9590 -19.6368
" />
<path d="M-86.9590 -19.6368
L-87.0424 -19.7320
" />
<path d="M-84.8400 -21.3511
L-84.7328 -21.4463
" />
<path d="M-84.7328 -21.4463
L-84.5305 -21.5416
" />
<path d="M-84.5305 -21.5416
L-84.0543 -21.5416
" />
<path d="M-84.0543 -21.5416
L-83.8757 -21.4463
" />
<path d="M-83.8757 -21.4463
L-83.7924 -21.3511
" />
<path d="M-83.7924 -21.3511
L-83.7209 -21.1606
" />
<path d="M-83.7209 -21.1606
L-83.7447 -20.9701
" />
<path d="M-83.7447 -20.9701
L-83.8757 -20.6844
" />
<path d="M-83.8757 -20.6844
L-85.1614 -19.5416
" />
<path d="M-85.1614 -19.5416
L-83.9233 -19.5416
" />
<path d="M-80.3995 -19.5416
L-80.9471 -20.4939
" />
<path d="M-81.5424 -19.5416
L-81.2924 -21.5416
" />
<path d="M-81.2924 -21.5416
L-80.5305 -21.5416
" />
<path d="M-80.5305 -21.5416
L-80.3519 -21.4463
" />
<path d="M-80.3519 -21.4463
L-80.2686 -21.3511
" />
<path d="M-80.2686 -21.3511
L-80.1971 -21.1606
" />
<path d="M-80.1971 -21.1606
L-80.2328 -20.8749
" />
<path d="M-80.2328 -20.8749
L-80.3519 -20.6844
" />
<path d="M-80.3519 -20.6844
L-80.4590 -20.5892
" />
<path d="M-80.4590 -20.5892
L-80.6614 -20.4939
" />
<path d="M-80.6614 -20.4939
L-81.4233 -20.4939
" />
<path d="M-79.6257 -19.6368
L-79.3519 -19.5416
" />
<path d="M-79.3519 -19.5416
L-78.8757 -19.5416
" />
<path d="M-78.8757 -19.5416
L-78.6733 -19.6368
" />
<path d="M-78.6733 -19.6368
L-78.5662 -19.7320
" />
<path d="M-78.5662 -19.7320
L-78.4471 -19.9225
" />
<path d="M-78.4471 -19.9225
L-78.4233 -20.1130
" />
<path d="M-78.4233 -20.1130
L-78.4947 -20.3035
" />
<path d="M-78.4947 -20.3035
L-78.5781 -20.3987
" />
<path d="M-78.5781 -20.3987
L-78.7566 -20.4939
" />
<path d="M-78.7566 -20.4939
L-79.1257 -20.5892
" />
<path d="M-79.1257 -20.5892
L-79.3043 -20.6844
" />
<path d="M-79.3043 -20.6844
L-79.3876 -20.7797
" />
<path d="M-79.3876 -20.7797
L-79.4590 -20.9701
" />
<path d="M-79.4590 -20.9701
L-79.4352 -21.1606
" />
<path d="M-79.4352 -21.1606
L-79.3162 -21.3511
" />
<path d="M-79.3162 -21.3511
L-79.2090 -21.4463
" />
<path d="M-79.2090 -21.4463
L-79.0066 -21.5416
" />
<path d="M-79.0066 -21.5416
L-78.5305 -21.5416
" />
<path d="M-78.5305 -21.5416
L-78.2566 -21.4463
" />
<path d="M-77.5424 -20.3035
L-76.0186 -20.3035
" />
<path d="M-74.1376 -20.8749
L-74.3043 -19.5416
" />
<path d="M-74.5186 -21.6368
L-75.1733 -20.2082
" />
<path d="M-75.1733 -20.2082
L-73.9352 -20.2082
" />
<path d="M-72.8281 -20.6844
L-73.0066 -20.7797
" />
<path d="M-73.0066 -20.7797
L-73.0900 -20.8749
" />
<path d="M-73.0900 -20.8749
L-73.1614 -21.0654
" />
<path d="M-73.1614 -21.0654
L-73.1495 -21.1606
" />
<path d="M-73.1495 -21.1606
L-73.0305 -21.3511
" />
<path d="M-73.0305 -21.3511
L-72.9233 -21.4463
" />
<path d="M-72.9233 -21.4463
L-72.7209 -21.5416
" />
<path d="M-72.7209 -21.5416
L-72.3400 -21.5416
" />
<path d="M-72.3400 -21.5416
L-72.1614 -21.4463
" />
<path d="M-72.1614 -21.4463
L-72.0781 -21.3511
" />
<path d="M-72.0781 -21.3511
L-72.0066 -21.1606
" />
<path d="M-72.0066 -21.1606
L-72.0186 -21.0654
" />
<path d="M-72.0186 -21.0654
L-72.1376 -20.8749
" />
<path d="M-72.1376 -20.8749
L-72.2447 -20.7797
" />
<path d="M-72.2447 -20.7797
L-72.4471 -20.6844
" />
<path d="M-72.4471 -20.6844
L-72.8281 -20.6844
" />
<path d="M-72.8281 -20.6844
L-73.0305 -20.5892
" />
<path d="M-73.0305 -20.5892
L-73.1376 -20.4939
" />
<path d="M-73.1376 -20.4939
L-73.2566 -20.3035
" />
<path d="M-73.2566 -20.3035
L-73.3043 -19.9225
" />
<path d="M-73.3043 -19.9225
L-73.2328 -19.7320
" />
<path d="M-73.2328 -19.7320
L-73.1495 -19.6368
" />
<path d="M-73.1495 -19.6368
L-72.9709 -19.5416
" />
<path d="M-72.9709 -19.5416
L-72.5900 -19.5416
" />
<path d="M-72.5900 -19.5416
L-72.3876 -19.6368
" />
<path d="M-72.3876 -19.6368
L-72.2805 -19.7320
" />
<path d="M-72.2805 -19.7320
L-72.1614 -19.9225
" />
<path d="M-72.1614 -19.9225
L-72.1138 -20.3035
" />
<path d="M-72.1138 -20.3035
L-72.1852 -20.4939
" />
<path d="M-72.1852 -20.4939
L-72.2686 -20.5892
" />
<path d="M-72.2686 -20.5892
L-72.4471 -20.6844
" />
<path d="M-70.1495 -21.5416
L-71.1019 -21.5416
" />
<path d="M-71.1019 -21.5416
L-71.3162 -20.5892
" />
<path d="M-71.3162 -20.5892
L-71.2090 -20.6844
" />
<path d="M-71.2090 -20.6844
L-71.0066 -20.7797
" />
<path d="M-71.0066 -20.7797
L-70.5305 -20.7797
" />
<path d="M-70.5305 -20.7797
L-70.3519 -20.6844
" />
<path d="M-70.3519 -20.6844
L-70.2686 -20.5892
" />
<path d="M-70.2686 -20.5892
L-70.1971 -20.3987
" />
<path d="M-70.1971 -20.3987
L-70.2566 -19.9225
" />
<path d="M-70.2566 -19.9225
L-70.3757 -19.7320
" />
<path d="M-70.3757 -19.7320
L-70.4828 -19.6368
" />
<path d="M-70.4828 -19.6368
L-70.6852 -19.5416
" />
<path d="M-70.6852 -19.5416
L-71.1614 -19.5416
" />
<path d="M-71.1614 -19.5416
L-71.3400 -19.6368
" />
<path d="M-71.3400 -19.6368
L-71.4233 -19.7320
" />
<path d="M-67.1257 -20.5892
L-66.8519 -20.4939
" />
<path d="M-66.8519 -20.4939
L-66.7686 -20.3987
" />
<path d="M-66.7686 -20.3987
L-66.6971 -20.2082
" />
<path d="M-66.6971 -20.2082
L-66.7328 -19.9225
" />
<path d="M-66.7328 -19.9225
L-66.8519 -19.7320
" />
<path d="M-66.8519 -19.7320
L-66.9590 -19.6368
" />
<path d="M-66.9590 -19.6368
L-67.1614 -19.5416
" />
<path d="M-67.1614 -19.5416
L-67.9233 -19.5416
" />
<path d="M-67.9233 -19.5416
L-67.6733 -21.5416
" />
<path d="M-67.6733 -21.5416
L-67.0066 -21.5416
" />
<path d="M-67.0066 -21.5416
L-66.8281 -21.4463
" />
<path d="M-66.8281 -21.4463
L-66.7447 -21.3511
" />
<path d="M-66.7447 -21.3511
L-66.6733 -21.1606
" />
<path d="M-66.6733 -21.1606
L-66.6971 -20.9701
" />
<path d="M-66.6971 -20.9701
L-66.8162 -20.7797
" />
<path d="M-66.8162 -20.7797
L-66.9233 -20.6844
" />
<path d="M-66.9233 -20.6844
L-67.1257 -20.5892
" />
<path d="M-67.1257 -20.5892
L-67.7924 -20.5892
" />
<path d="M-65.9233 -19.5416
L-65.7566 -20.8749
" />
<path d="M-65.8043 -20.4939
L-65.6852 -20.6844
" />
<path d="M-65.6852 -20.6844
L-65.5781 -20.7797
" />
<path d="M-65.5781 -20.7797
L-65.3757 -20.8749
" />
<path d="M-65.3757 -20.8749
L-65.1852 -20.8749
" />
<path d="M-64.6852 -19.5416
L-64.5186 -20.8749
" />
<path d="M-64.4352 -21.5416
L-64.5424 -21.4463
" />
<path d="M-64.5424 -21.4463
L-64.4590 -21.3511
" />
<path d="M-64.4590 -21.3511
L-64.3519 -21.4463
" />
<path d="M-64.3519 -21.4463
L-64.4352 -21.5416
" />
<path d="M-64.4352 -21.5416
L-64.4590 -21.3511
" />
<path d="M-62.8757 -19.5416
L-62.6257 -21.5416
" />
<path d="M-62.8638 -19.6368
L-63.0662 -19.5416
" />
<path d="M-63.0662 -19.5416
L-63.4471 -19.5416
" />
<path d="M-63.4471 -19.5416
L-63.6257 -19.6368
" />
<path d="M-63.6257 -19.6368
L-63.7090 -19.7320
" />
<path d="M-63.7090 -19.7320
L-63.7805 -19.9225
" />
<path d="M-63.7805 -19.9225
L-63.7090 -20.4939
" />
<path d="M-63.7090 -20.4939
L-63.5900 -20.6844
" />
<path d="M-63.5900 -20.6844
L-63.4828 -20.7797
" />
<path d="M-63.4828 -20.7797
L-63.2805 -20.8749
" />
<path d="M-63.2805 -20.8749
L-62.8995 -20.8749
" />
<path d="M-62.8995 -20.8749
L-62.7209 -20.7797
" />
<path d="M-60.8995 -20.8749
L-61.1019 -19.2558
" />
<path d="M-61.1019 -19.2558
L-61.2209 -19.0654
" />
<path d="M-61.2209 -19.0654
L-61.3281 -18.9701
" />
<path d="M-61.3281 -18.9701
L-61.5305 -18.8749
" />
<path d="M-61.5305 -18.8749
L-61.8162 -18.8749
" />
<path d="M-61.8162 -18.8749
L-61.9947 -18.9701
" />
<path d="M-61.0543 -19.6368
L-61.2566 -19.5416
" />
<path d="M-61.2566 -19.5416
L-61.6376 -19.5416
" />
<path d="M-61.6376 -19.5416
L-61.8162 -19.6368
" />
<path d="M-61.8162 -19.6368
L-61.8995 -19.7320
" />
<path d="M-61.8995 -19.7320
L-61.9709 -19.9225
" />
<path d="M-61.9709 -19.9225
L-61.8995 -20.4939
" />
<path d="M-61.8995 -20.4939
L-61.7805 -20.6844
" />
<path d="M-61.7805 -20.6844
L-61.6733 -20.7797
" />
<path d="M-61.6733 -20.7797
L-61.4709 -20.8749
" />
<path d="M-61.4709 -20.8749
L-61.0900 -20.8749
" />
<path d="M-61.0900 -20.8749
L-60.9114 -20.7797
" />
<path d="M-59.3400 -19.6368
L-59.5424 -19.5416
" />
<path d="M-59.5424 -19.5416
L-59.9233 -19.5416
" />
<path d="M-59.9233 -19.5416
L-60.1019 -19.6368
" />
<path d="M-60.1019 -19.6368
L-60.1733 -19.8273
" />
<path d="M-60.1733 -19.8273
L-60.0781 -20.5892
" />
<path d="M-60.0781 -20.5892
L-59.9590 -20.7797
" />
<path d="M-59.9590 -20.7797
L-59.7566 -20.8749
" />
<path d="M-59.7566 -20.8749
L-59.3757 -20.8749
" />
<path d="M-59.3757 -20.8749
L-59.1971 -20.7797
" />
<path d="M-59.1971 -20.7797
L-59.1257 -20.5892
" />
<path d="M-59.1257 -20.5892
L-59.1495 -20.3987
" />
<path d="M-59.1495 -20.3987
L-60.1257 -20.2082
" />
</g></g>
<g style="fill:none; 
stroke:#C872AB; stroke-width:0.1500; stroke-opacity:1; 
stroke-linecap:round; stroke-linejoin:round;">
<text x="-118.7460" y="-23.2960"
textLength="24.8643" font-size="2.0000" lengthAdjust="spacingAndGlyphs"
text-anchor="start" opacity="0" stroke-opacity="0">File: bridge.kicad_pcb</text>
<g class="stroked-text"><desc>File: bridge.kicad_pcb</desc>
<path d="M-117.7902 -24.1456
L-118.2902 -24.1456
" />
<path d="M-118.2902 -23.3599
L-118.2902 -24.8599
" />
<path d="M-118.2902 -24.8599
L-117.5759 -24.8599
" />
<path d="M-117.0045 -23.3599
L-117.0045 -24.3599
" />
<path d="M-117.0045 -24.8599
L-117.0759 -24.7884
" />
<path d="M-117.0759 -24.7884
L-117.0045 -24.7170
" />
<path d="M-117.0045 -24.7170
L-116.9330 -24.7884
" />
<path d="M-116.9330 -24.7884
L-117.0045 -24.8599
" />
<path d="M-117.0045 -24.8599
L-117.0045 -24.7170
" />
<path d="M-116.0759 -23.3599
L-116.2187 -23.4313
" />
<path d="M-116.2187 -23.4313
L-116.2902 -23.5742
" />
<path d="M-116.2902 -23.5742
L-116.2902 -24.8599
" />
<path d="M-114.9330 -23.4313
L-115.0759 -23.3599
" />
<path d="M-115.0759 -23.3599
L-115.3616 -23.3599
" />
<path d="M-115.3616 -23.3599
L-115.5045 -23.4313
" />
<path d="M-115.5045 -23.4313
L-115.5759 -23.5742
" />
<path d="M-115.5759 -23.5742
L-115.5759 -24.1456
" />
<path d="M-115.5759 -24.1456
L-115.5045 -24.2884
" />
<path d="M-115.5045 -24.2884
L-115.3616 -24.3599
" />
<path d="M-115.3616 -24.3599
L-115.0759 -24.3599
" />
<path d="M-115.0759 -24.3599
L-114.9330 -24.2884
" />
<path d="M-114.9330 -24.2884
L-114.8616 -24.1456
" />
<path d="M-114.8616 -24.1456
L-114.8616 -24.0027
" />
<path d="M-114.8616 -24.0027
L-115.5759 -23.8599
" />
<path d="M-114.2187 -23.5027
L-114.1473 -23.4313
" />
<path d="M-114.1473 -23.4313
L-114.2187 -23.3599
" />
<path d="M-114.2187 -23.3599
L-114.2902 -23.4313
" />
<path d="M-114.2902 -23.4313
L-114.2187 -23.5027
" />
<path d="M-114.2187 -23.5027
L-114.2187 -23.3599
" />
<path d="M-114.2187 -24.2884
L-114.1473 -24.2170
" />
<path d="M-114.1473 -24.2170
L-114.2187 -24.1456
" />
<path d="M-114.2187 -24.1456
L-114.2902 -24.2170
" />
<path d="M-114.2902 -24.2170
L-114.2187 -24.2884
" />
<path d="M-114.2187 -24.2884
L-114.2187 -24.1456
" />
<path d="M-112.3616 -23.3599
L-112.3616 -24.8599
" />
<path d="M-112.3616 -24.2884
L-112.2187 -24.3599
" />
<path d="M-112.2187 -24.3599
L-111.9330 -24.3599
" />
<path d="M-111.9330 -24.3599
L-111.7902 -24.2884
" />
<path d="M-111.7902 -24.2884
L-111.7187 -24.2170
" />
<path d="M-111.7187 -24.2170
L-111.6473 -24.0742
" />
<path d="M-111.6473 -24.0742
L-111.6473 -23.6456
" />
<path d="M-111.6473 -23.6456
L-111.7187 -23.5027
" />
<path d="M-111.7187 -23.5027
L-111.7902 -23.4313
" />
<path d="M-111.7902 -23.4313
L-111.9330 -23.3599
" />
<path d="M-111.9330 -23.3599
L-112.2187 -23.3599
" />
<path d="M-112.2187 -23.3599
L-112.3616 -23.4313
" />
<path d="M-111.0045 -23.3599
L-111.0045 -24.3599
" />
<path d="M-111.0045 -24.0742
L-110.9330 -24.2170
" />
<path d="M-110.9330 -24.2170
L-110.8616 -24.2884
" />
<path d="M-110.8616 -24.2884
L-110.7187 -24.3599
" />
<path d="M-110.7187 -24.3599
L-110.5759 -24.3599
" />
<path d="M-110.0759 -23.3599
L-110.0759 -24.3599
" />
<path d="M-110.0759 -24.8599
L-110.1473 -24.7884
" />
<path d="M-110.1473 -24.7884
L-110.0759 -24.7170
" />
<path d="M-110.0759 -24.7170
L-110.0045 -24.7884
" />
<path d="M-110.0045 -24.7884
L-110.0759 -24.8599
" />
<path d="M-110.0759 -24.8599
L-110.0759 -24.7170
" />
<path d="M-108.7187 -23.3599
L-108.7187 -24.8599
" />
<path d="M-108.7187 -23.4313
L-108.8616 -23.3599
" />
<path d="M-108.8616 -23.3599
L-109.1473 -23.3599
" />
<path d="M-109.1473 -23.3599
L-109.2902 -23.4313
" />
<path d="M-109.2902 -23.4313
L-109.3616 -23.5027
" />
<path d="M-109.3616 -23.5027
L-109.4330 -23.6456
" />
<path d="M-109.4330 -23.6456
L-109.4330 -24.0742
" />
<path d="M-109.4330 -24.0742
L-109.3616 -24.2170
" />
<path d="M-109.3616 -24.2170
L-109.2902 -24.2884
" />
<path d="M-109.2902 -24.2884
L-109.1473 -24.3599
" />
<path d="M-109.1473 -24.3599
L-108.8616 -24.3599
" />
<path d="M-108.8616 -24.3599
L-108.7187 -24.2884
" />
<path d="M-107.3616 -24.3599
L-107.3616 -23.1456
" />
<path d="M-107.3616 -23.1456
L-107.4330 -23.0027
" />
<path d="M-107.4330 -23.0027
L-107.5045 -22.9313
" />
<path d="M-107.5045 -22.9313
L-107.6473 -22.8599
" />
<path d="M-107.6473 -22.8599
L-107.8616 -22.8599
" />
<path d="M-107.8616 -22.8599
L-108.0045 -22.9313
" />
<path d="M-107.3616 -23.4313
L-107.5045 -23.3599
" />
<path d="M-107.5045 -23.3599
L-107.7902 -23.3599
" />
<path d="M-107.7902 -23.3599
L-107.9330 -23.4313
" />
<path d="M-107.9330 -23.4313
L-108.0045 -23.5027
" />
<path d="M-108.0045 -23.5027
L-108.0759 -23.6456
" />
<path d="M-108.0759 -23.6456
L-108.0759 -24.0742
" />
<path d="M-108.0759 -24.0742
L-108.0045 -24.2170
" />
<path d="M-108.0045 -24.2170
L-107.9330 -24.2884
" />
<path d="M-107.9330 -24.2884
L-107.7902 -24.3599
" />
<path d="M-107.7902 -24.3599
L-107.5045 -24.3599
" />
<path d="M-107.5045 -24.3599
L-107.3616 -24.2884
" />
<path d="M-106.0759 -23.4313
L-106.2187 -23.3599
" />
<path d="M-106.2187 -23.3599
L-106.5045 -23.3599
" />
<path d="M-106.5045 -23.3599
L-106.6473 -23.4313
" />
<path d="M-106.6473 -23.4313
L-106.7187 -23.5742
" />
<path d="M-106.7187 -23.5742
L-106.7187 -24.1456
" />
<path d="M-106.7187 -24.1456
L-106.6473 -24.2884
" />
<path d="M-106.6473 -24.2884
L-106.5045 -24.3599
" />
<path d="M-106.5045 -24.3599
L-106.2187 -24.3599
" />
<path d="M-106.2187 -24.3599
L-106.0759 -24.2884
" />
<path d="M-106.0759 -24.2884
L-106.0045 -24.1456
" />
<path d="M-106.0045 -24.1456
L-106.0045 -24.0027
" />
<path d="M-106.0045 -24.0027
L-106.7187 -23.8599
" />
<path d="M-105.3616 -23.5027
L-105.2902 -23.4313
" />
<path d="M-105.2902 -23.4313
L-105.3616 -23.3599
" />
<path d="M-105.3616 -23.3599
L-105.4330 -23.4313
" />
<path d="M-105.4330 -23.4313
L-105.3616 -23.5027
" />
<path d="M-105.3616 -23.5027
L-105.3616 -23.3599
" />
<path d="M-104.6473 -23.3599
L-104.6473 -24.8599
" />
<path d="M-104.5045 -23.9313
L-104.0759 -23.3599
" />
<path d="M-104.0759 -24.3599
L-104.6473 -23.7884
" />
<path d="M-103.4330 -23.3599
L-103.4330 -24.3599
" />
<path d="M-103.4330 -24.8599
L-103.5045 -24.7884
" />
<path d="M-103.5045 -24.7884
L-103.4330 -24.7170
" />
<path d="M-103.4330 -24.7170
L-103.3616 -24.7884
" />
<path d="M-103.3616 -24.7884
L-103.4330 -24.8599
" />
<path d="M-103.4330 -24.8599
L-103.4330 -24.7170
" />
<path d="M-102.0759 -23.4313
L-102.2187 -23.3599
" />
<path d="M-102.2187 -23.3599
L-102.5045 -23.3599
" />
<path d="M-102.5045 -23.3599
L-102.6473 -23.4313
" />
<path d="M-102.6473 -23.4313
L-102.7187 -23.5027
" />
<path d="M-102.7187 -23.5027
L-102.7902 -23.6456
" />
<path d="M-102.7902 -23.6456
L-102.7902 -24.0742
" />
<path d="M-102.7902 -24.0742
L-102.7187 -24.2170
" />
<path d="M-102.7187 -24.2170
L-102.6473 -24.2884
" />
<path d="M-102.6473 -24.2884
L-102.5045 -24.3599
" />
<path d="M-102.5045 -24.3599
L-102.2187 -24.3599
" />
<path d="M-102.2187 -24.3599
L-102.0759 -24.2884
" />
<path d="M-100.7902 -23.3599
L-100.7902 -24.1456
" />
<path d="M-100.7902 -24.1456
L-100.8616 -24.2884
" />
<path d="M-100.8616 -24.2884
L-101.0045 -24.3599
" />
<path d="M-101.0045 -24.3599
L-101.2902 -24.3599
" />
<path d="M-101.2902 -24.3599
L-101.4330 -24.2884
" />
<path d="M-100.7902 -23.4313
L-100.9330 -23.3599
" />
<path d="M-100.9330 -23.3599
L-101.2902 -23.3599
" />
<path d="M-101.2902 -23.3599
L-101.4330 -23.4313
" />
<path d="M-101.4330 -23.4313
L-101.5045 -23.5742
" />
<path d="M-101.5045 -23.5742
L-101.5045 -23.7170
" />
<path d="M-101.5045 -23.7170
L-101.4330 -23.8599
" />
<path d="M-101.4330 -23.8599
L-101.2902 -23.9313
" />
<path d="M-101.2902 -23.9313
L-100.9330 -23.9313
" />
<path d="M-100.9330 -23.9313
L-100.7902 -24.0027
" />
<path d="M-99.4330 -23.3599
L-99.4330 -24.8599
" />
<path d="M-99.4330 -23.4313
L-99.5759 -23.3599
" />
<path d="M-99.5759 -23.3599
L-99.8616 -23.3599
" />
<path d="M-99.8616 -23.3599
L-100.0045 -23.4313
" />
<path d="M-100.0045 -23.4313
L-100.0759 -23.5027
" />
<path d="M-100.0759 -23.5027
L-100.1473 -23.6456
" />
<path d="M-100.1473 -23.6456
L-100.1473 -24.0742
" />
<path d="M-100.1473 -24.0742
L-100.0759 -24.2170
" />
<path d="M-100.0759 -24.2170
L-100.0045 -24.2884
" />
<path d="M-100.0045 -24.2884
L-99.8616 -24.3599
" />
<path d="M-99.8616 -24.3599
L-99.5759 -24.3599
" />
<path d="M-99.5759 -24.3599
L-99.4330 -24.2884
" />
<path d="M-99.0759 -23.2170
L-97.9330 -23.2170
" />
<path d="M-97.5759 -24.3599
L-97.5759 -22.8599
" />
<path d="M-97.5759 -24.2884
L-97.4330 -24.3599
" />
<path d="M-97.4330 -24.3599
L-97.1473 -24.3599
" />
<path d="M-97.1473 -24.3599
L-97.0045 -24.2884
" />
<path d="M-97.0045 -24.2884
L-96.9330 -24.2170
" />
<path d="M-96.9330 -24.2170
L-96.8616 -24.0742
" />
<path d="M-96.8616 -24.0742
L-96.8616 -23.6456
" />
<path d="M-96.8616 -23.6456
L-96.9330 -23.5027
" />
<path d="M-96.9330 -23.5027
L-97.0045 -23.4313
" />
<path d="M-97.0045 -23.4313
L-97.1473 -23.3599
" />
<path d="M-97.1473 -23.3599
L-97.4330 -23.3599
" />
<path d="M-97.4330 -23.3599
L-97.5759 -23.4313
" />
<path d="M-95.5759 -23.4313
L-95.7187 -23.3599
" />
<path d="M-95.7187 -23.3599
L-96.0045 -23.3599
" />
<path d="M-96.0045 -23.3599
L-96.1473 -23.4313
" />
<path d="M-96.1473 -23.4313
L-96.2187 -23.5027
" />
<path d="M-96.2187 -23.5027
L-96.2902 -23.6456
" />
<path d="M-96.2902 -23.6456
L-96.2902 -24.0742
" />
<path d="M-96.2902 -24.0742
L-96.2187 -24.2170
" />
<path d="M-96.2187 -24.2170
L-96.1473 -24.2884
" />
<path d="M-96.1473 -24.2884
L-96.0045 -24.3599
" />
<path d="M-96.0045 -24.3599
L-95.7187 -24.3599
" />
<path d="M-95.7187 -24.3599
L-95.5759 -24.2884
" />
<path d="M-94.9330 -23.3599
L-94.9330 -24.8599
" />
<path d="M-94.9330 -24.2884
L-94.7902 -24.3599
" />
<path d="M-94.7902 -24.3599
L-94.5045 -24.3599
" />
<path d="M-94.5045 -24.3599
L-94.3616 -24.2884
" />
<path d="M-94.3616 -24.2884
L-94.2902 -24.2170
" />
<path d="M-94.2902 -24.2170
L-94.2187 -24.0742
" />
<path d="M-94.2187 -24.0742
L-94.2187 -23.6456
" />
<path d="M-94.2187 -23.6456
L-94.2902 -23.5027
" />
<path d="M-94.2902 -23.5027
L-94.3616 -23.4313
" />
<path d="M-94.3616 -23.4313
L-94.5045 -23.3599
" />
<path d="M-94.5045 -23.3599
L-94.7902 -23.3599
" />
<path d="M-94.7902 -23.3599
L-94.9330 -23.4313
" />
</g><path d="M-119.7460 -28.2460
L-11.7460 -28.2460
" />
<text x="-118.7460" y="-25.9960"
textLength="8.2214" font-size="2.0000" lengthAdjust="spacingAndGlyphs"
text-anchor="start" opacity="0" stroke-opacity="0">Sheet: </text>
<g class="stroked-text"><desc>Sheet: </desc>
<path d="M-118.3616 -26.1313
L-118.1473 -26.0599
" />
<path d="M-118.1473 -26.0599
L-117.7902 -26.0599
" />
<path d="M-117.7902 -26.0599
L-117.6473 -26.1313
" />
<path d="M-117.6473 -26.1313
L-117.5759 -26.2027
" />
<path d="M-117.5759 -26.2027
L-117.5045 -26.3456
" />
<path d="M-117.5045 -26.3456
L-117.5045 -26.4884
" />
<path d="M-117.5045 -26.4884
L-117.5759 -26.6313
" />
<path d="M-117.5759 -26.6313
L-117.6473 -26.7027
" />
<path d="M-117.6473 -26.7027
L-117.7902 -26.7742
" />
<path d="M-117.7902 -26.7742
L-118.0759 -26.8456
" />
<path d="M-118.0759 -26.8456
L-118.2187 -26.9170
" />
<path d="M-118.2187 -26.9170
L-118.2902 -26.9884
" />
<path d="M-118.2902 -26.9884
L-118.3616 -27.1313
" />
<path d="M-118.3616 -27.1313
L-118.3616 -27.2742
" />
<path d="M-118.3616 -27.2742
L-118.2902 -27.4170
" />
<path d="M-118.2902 -27.4170
L-118.2187 -27.4884
" />
<path d="M-118.2187 -27.4884
L-118.0759 -27.5599
" />
<path d="M-118.0759 -27.5599
L-117.7187 -27.5599
" />
<path d="M-117.7187 -27.5599
L-117.5045 -27.4884
" />
<path d="M-116.8616 -26.0599
L-116.8616 -27.5599
" />
<path d="M-116.2187 -26.0599
L-116.2187 -26.8456
" />
<path d="M-116.2187 -26.8456
L-116.2902 -26.9884
" />
<path d="M-116.2902 -26.9884
L-116.4330 -27.0599
" />
<path d="M-116.4330 -27.0599
L-116.6473 -27.0599
" />
<path d="M-116.6473 -27.0599
L-116.7902 -26.9884
" />
<path d="M-116.7902 -26.9884
L-116.8616 -26.9170
" />
<path d="M-114.9330 -26.1313
L-115.0759 -26.0599
" />
<path d="M-115.0759 -26.0599
L-115.3616 -26.0599
" />
<path d="M-115.3616 -26.0599
L-115.5045 -26.1313
" />
<path d="M-115.5045 -26.1313
L-115.5759 -26.2742
" />
<path d="M-115.5759 -26.2742
L-115.5759 -26.8456
" />
<path d="M-115.5759 -26.8456
L-115.5045 -26.9884
" />
<path d="M-115.5045 -26.9884
L-115.3616 -27.0599
" />
<path d="M-115.3616 -27.0599
L-115.0759 -27.0599
" />
<path d="M-115.0759 -27.0599
L-114.9330 -26.9884
" />
<path d="M-114.9330 -26.9884
L-114.8616 -26.8456
" />
<path d="M-114.8616 -26.8456
L-114.8616 -26.7027
" />
<path d="M-114.8616 -26.7027
L-115.5759 -26.5599
" />
<path d="M-113.6473 -26.1313
L-113.7902 -26.0599
" />
<path d="M-113.7902 -26.0599
L-114.0759 -26.0599
" />
<path d="M-114.0759 -26.0599
L-114.2187 -26.1313
" />
<path d="M-114.2187 -26.1313
L-114.2902 -26.2742
" />
<path d="M-114.2902 -26.2742
L-114.2902 -26.8456
" />
<path d="M-114.2902 -26.8456
L-114.2187 -26.9884
" />
<path d="M-114.2187 -26.9884
L-114.0759 -27.0599
" />
<path d="M-114.0759 -27.0599
L-113.7902 -27.0599
" />
<path d="M-113.7902 -27.0599
L-113.6473 -26.9884
" />
<path d="M-113.6473 -26.9884
L-113.5759 -26.8456
" />
<path d="M-113.5759 -26.8456
L-113.5759 -26.7027
" />
<path d="M-113.5759 -26.7027
L-114.2902 -26.5599
" />
<path d="M-113.1473 -27.0599
L-112.5759 -27.0599
" />
<path d="M-112.9330 -27.5599
L-112.9330 -26.2742
" />
<path d="M-112.9330 -26.2742
L-112.8616 -26.1313
" />
<path d="M-112.8616 -26.1313
L-112.7187 -26.0599
" />
<path d="M-112.7187 -26.0599
L-112.5759 -26.0599
" />
<path d="M-112.0759 -26.2027
L-112.0045 -26.1313
" />
<path d="M-112.0045 -26.1313
L-112.0759 -26.0599
" />
<path d="M-112.0759 -26.0599
L-112.1473 -26.1313
" />
<path d="M-112.1473 -26.1313
L-112.0759 -26.2027
" />
<path d="M-112.0759 -26.2027
L-112.0759 -26.0599
" />
<path d="M-112.0759 -26.9884
L-112.0045 -26.9170
" />
<path d="M-112.0045 -26.9170
L-112.0759 -26.8456
" />
<path d="M-112.0759 -26.8456
L-112.1473 -26.9170
" />
<path d="M-112.1473 -26.9170
L-112.0759 -26.9884
" />
<path d="M-112.0759 -26.9884
L-112.0759 -26.8456
" />
</g></g>
<g style="fill:none; 
stroke:#C872AB; stroke-width:0.3000; stroke-opacity:1; 
stroke-linecap:round; stroke-linejoin:round;">
<text x="-118.7460" y="-28.9960"
textLength="0.9000" font-size="2.0000" lengthAdjust="spacingAndGlyphs"
text-anchor="start" opacity="0" stroke-opacity="0"></text>
<g class="stroked-text"><desc></desc>
</g></g>
<g style="fill:none; 
stroke:#C872AB; stroke-width:0.1500; stroke-opacity:1; 
stroke-linecap:round; stroke-linejoin:round;">
<text x="-118.7460" y="-31.9960"
textLength="0.4500" font-size="2.0000" lengthAdjust="spacingAndGlyphs"
text-anchor="start" opacity="0" stroke-opacity="0"></text>
<g class="stroked-text"><desc></desc>
</g><text x="-118.7460" y="-34.9960"
textLength="0.4500" font-size="2.0000" lengthAdjust="spacingAndGlyphs"
text-anchor="start" opacity="0" stroke-opacity="0"></text>
<g class="stroked-text"><desc></desc>
</g><text x="-118.7460" y="-37.9960"
textLength="0.4500" font-size="2.0000" lengthAdjust="spacingAndGlyphs"
text-anchor="start" opacity="0" stroke-opacity="0"></text>
<g class="stroked-text"><desc></desc>
</g><text x="-118.7460" y="-40.9960"
textLength="0.4500" font-size="2.0000" lengthAdjust="spacingAndGlyphs"
text-anchor="start" opacity="0" stroke-opacity="0"></text>
<g class="stroked-text"><desc></desc>
</g><path d="M-99.7460 -18.2460
L-99.7460 -15.2460
" />
<path d="M-35.7460 -18.2460
L-35.7460 -11.7460
" />
</g> 
</svg>
